<svg width="360" height="360" viewBox="0 0 360 360" fill="none" xmlns="http://www.w3.org/2000/svg">
<path d="M294.513 136.042C294.513 136.042 290.752 141.793 269.386 149.469C248.011 157.146 95.4273 202.987 95.4273 202.987L84.7171 200.901C84.7171 200.901 62.6325 205.533 57.7075 199.494C52.7825 193.455 123.078 145.443 123.078 145.443L220.305 116.181L245.075 119.092L294.513 136.042Z" fill="#CFB300"/>
<path d="M294.513 136.042C294.513 136.042 290.752 141.793 269.386 149.469C248.011 157.146 95.4273 202.987 95.4273 202.987L84.7171 200.901C84.7171 200.901 62.6325 205.533 57.7075 199.494C52.7825 193.455 123.078 145.443 123.078 145.443L220.305 116.181L245.075 119.092L294.513 136.042Z" stroke="#0D2232" stroke-width="9" stroke-miterlimit="10" stroke-linecap="round" stroke-linejoin="round"/>
<path d="M94.2257 232.947C94.2257 232.947 70.0554 242.633 80.9137 270.682C91.7802 298.73 126.13 283.063 126.13 283.063L111.926 242.425L94.2257 232.947Z" fill="#FBC6A6" stroke="#0D2232" stroke-width="9" stroke-miterlimit="10"/>
<path d="M285.801 181.614C285.801 181.614 305.639 179.65 312.717 200.343C319.796 221.036 301.343 245.938 281.031 243.489C260.72 241.041 265.817 205.933 265.817 205.933L285.801 181.614Z" fill="#FBC6A6" stroke="#0D2232" stroke-width="9" stroke-miterlimit="10"/>
<path opacity="0.4" d="M287.46 194.557C287.46 194.557 298.729 197.141 297.564 209.635C295.941 227.136 282.755 225.935 282.755 225.935L281.095 205.182L287.46 194.557Z" fill="black"/>
<path opacity="0.4" d="M93.9493 246.408C93.9493 246.408 85.4818 254.28 92.7376 264.518C102.894 278.863 113.713 271.23 113.713 271.23L104.773 252.427L93.9493 246.408Z" fill="black"/>
<path d="M275.362 187.754L281.716 211.469C281.716 211.469 282.603 215.638 282.802 222.402C283.248 237.567 280.249 265.784 256.11 289.416C252.675 292.774 249.113 295.759 245.447 298.39C234.801 306.039 223.345 310.731 211.869 313.132C187.145 318.303 162.393 312.816 145.771 303.359C118.783 288.001 108.875 256.221 108.875 256.221L96.8447 211.322L113.932 174.109L244.011 140.93L265.013 155.383L275.362 187.754Z" fill="#FBC6A6"/>
<path opacity="0.5" d="M162.896 302.353C182.954 309.976 200.372 311.949 213.312 311.868C188.588 317.039 163.836 311.552 147.215 302.095C120.226 286.737 110.319 254.957 110.319 254.957L108.191 247.016L113.722 239.665C113.722 239.665 119.423 285.826 162.896 302.353Z" fill="white"/>
<path opacity="0.5" d="M280.32 223.068C280.766 238.232 277.768 266.449 253.629 290.081C250.193 293.439 246.631 296.424 242.965 299.055C254.412 283.904 272.392 256.807 274.076 234.209C274.66 226.561 277.019 223.385 280.32 223.068Z" fill="white"/>
<path d="M294.513 136.042C294.513 136.042 284.499 135.099 272.265 138.377C260.031 141.656 78.0096 190.428 78.0096 190.428C78.0096 190.428 61.3074 194.203 57.7072 199.494L54.6751 188.178C53.5004 183.794 56.1042 179.284 60.4883 178.11L281.42 118.911C285.804 117.736 290.314 120.34 291.489 124.724L294.521 136.04L294.513 136.042Z" fill="#F9DC1B"/>
<path d="M276.755 120.161C276.779 120.252 276.79 120.294 276.79 120.294L170.878 148.673L170.843 148.54L64.9221 176.922C64.9221 176.922 64.9155 176.897 64.9044 176.856C64.6386 175.996 61.9855 167.451 61.2983 163.397C60.57 159.124 63.9199 158.094 63.9199 158.094C63.9199 158.094 55.8661 104.61 110.334 71.6107C110.334 71.6107 107.022 61.3361 116.374 57.7222C125.723 54.1001 143.854 47.8499 143.854 47.8499L143.889 47.9822C143.889 47.9822 162.708 44.3316 172.616 42.794C182.524 41.2563 184.791 51.8019 184.791 51.8019C248.461 53.1467 268.228 103.491 268.228 103.491C268.228 103.491 271.646 102.717 273.15 106.774C274.557 110.537 276.497 118.998 276.755 120.161Z" fill="#F9DC1B"/>
<path opacity="0.73" d="M276.755 120.161L267.755 122.573C267.755 122.573 248.972 70.7053 186.827 58.907L185.185 52.9105C185.185 52.9105 138.409 50.9574 110.865 73.9592L113.565 82.4473C113.565 82.4473 68.3441 109.06 73.0401 174.463L64.9103 176.845C64.6445 175.985 61.9914 167.44 61.3041 163.387C60.5758 159.113 63.9258 158.083 63.9258 158.083C63.9258 158.083 55.8719 104.6 110.34 71.6C110.34 71.6 107.028 61.3254 116.379 57.7115C125.728 54.0893 143.86 47.8392 143.86 47.8392L143.895 47.9715C143.895 47.9715 162.714 44.3209 172.622 42.7832C182.529 41.2456 184.797 51.7911 184.797 51.7911C248.467 53.1359 268.234 103.481 268.234 103.481C268.234 103.481 271.652 102.706 273.156 106.763C274.557 110.537 276.496 118.998 276.755 120.161Z" fill="white"/>
<path d="M273.156 106.763C271.653 102.706 268.234 103.48 268.234 103.48C268.234 103.48 248.467 53.1357 184.797 51.7909C184.797 51.7909 182.53 41.2454 172.622 42.783C162.714 44.3207 143.887 47.9735 143.887 47.9735L143.852 47.8412C143.852 47.8412 125.72 54.0914 116.371 57.7135C107.022 61.3357 110.332 71.602 110.332 71.602C55.8639 104.602 63.9177 158.085 63.9177 158.085C63.9177 158.085 60.57 159.124 61.2961 163.389C62.0222 167.654 64.9222 176.921 64.9222 176.921L170.834 148.542L170.87 148.675L276.782 120.295C276.782 120.295 274.67 110.825 273.156 106.763Z" stroke="#0D2232" stroke-width="9" stroke-miterlimit="10" stroke-linecap="round" stroke-linejoin="round"/>
<path d="M184.797 51.7906C184.797 51.7906 188.043 60.2653 189.303 79.033Z" fill="#F9DC1B"/>
<path d="M184.797 51.7906C184.797 51.7906 188.043 60.2653 189.303 79.033" stroke="#0D2232" stroke-width="9" stroke-miterlimit="10" stroke-linecap="round" stroke-linejoin="round"/>
<path d="M268.234 103.481L241.408 110.669C238.571 111.429 236.888 114.344 237.648 117.182L241.048 129.871" stroke="#0D2232" stroke-width="9" stroke-miterlimit="10" stroke-linecap="round" stroke-linejoin="round"/>
<path d="M110.34 71.6001C110.34 71.6001 111.766 80.5624 120.058 97.4461Z" fill="#F9DC1B"/>
<path d="M110.34 71.6001C110.34 71.6001 111.766 80.5624 120.058 97.4461" stroke="#0D2232" stroke-width="9" stroke-miterlimit="10" stroke-linecap="round" stroke-linejoin="round"/>
<path d="M63.9258 158.083L90.7513 150.895C93.5885 150.135 96.5042 151.818 97.2645 154.656L100.664 167.344" stroke="#0D2232" stroke-width="9" stroke-miterlimit="10" stroke-linecap="round" stroke-linejoin="round"/>
<path opacity="0.74" d="M280.366 127.518C274.477 126.915 268.615 128.53 262.923 130.117C221.312 141.746 179.698 153.366 138.086 164.995C119.594 170.162 101.11 175.328 82.6179 180.496C74.4118 182.792 65.3179 185.778 61.4026 193.335C60.6321 194.827 59.9596 196.585 58.4191 197.255C56.0704 198.283 53.4964 195.923 52.7841 193.463C51.4414 188.849 53.9177 183.797 57.6133 180.715C61.311 177.641 66.0301 176.128 70.6284 174.727C138.74 153.968 209.466 142.172 276.697 118.722C280.582 117.371 285.257 116.092 288.486 118.649C290.266 120.06 291.103 122.327 291.864 124.473C292.622 126.637 296.633 134.392 291.346 132.431C289.634 131.799 288.045 129.84 286.237 129.048C284.389 128.24 282.365 127.665 280.366 127.518Z" fill="white"/>
<path d="M294.513 136.042C294.513 136.042 284.499 135.099 272.265 138.377C260.031 141.656 78.0096 190.428 78.0096 190.428C78.0096 190.428 61.3074 194.203 57.7072 199.494L54.6751 188.178C53.5004 183.794 56.1042 179.284 60.4883 178.11L281.42 118.911C285.804 117.736 290.314 120.34 291.489 124.724L294.521 136.04L294.513 136.042Z" stroke="#0D2232" stroke-width="9" stroke-miterlimit="10" stroke-linecap="round" stroke-linejoin="round"/>
<path d="M104.889 213.449C104.889 213.449 110.867 237.549 113.162 244.328C115.458 251.107 112.449 258.607 104.004 255.71C95.559 252.813 89.2799 223.82 89.2799 223.82C89.2799 223.82 96.7988 222.169 104.889 213.449Z" fill="#253B5A" stroke="#0D2232" stroke-width="9" stroke-miterlimit="10"/>
<path d="M154.412 241.307C161.74 239.344 166.088 231.812 164.125 224.484C162.161 217.157 154.629 212.808 147.302 214.772C139.974 216.735 135.625 224.267 137.589 231.595C139.552 238.922 147.084 243.271 154.412 241.307Z" fill="#0D2232"/>
<path d="M232.853 220.289C240.181 218.325 244.53 210.793 242.566 203.466C240.603 196.138 233.071 191.79 225.743 193.753C218.415 195.716 214.067 203.248 216.03 210.576C217.994 217.904 225.526 222.252 232.853 220.289Z" fill="#0D2232"/>
<path d="M240.294 179.038C239.227 179.324 238.063 179.246 236.992 178.726C236.496 178.495 225.593 173.473 213.071 179.018C210.663 180.089 207.845 179 206.782 176.59C205.711 174.181 206.8 171.363 209.21 170.3C225.924 162.896 240.543 169.84 241.156 170.145C243.523 171.302 244.51 174.158 243.353 176.525C242.723 177.811 241.585 178.692 240.294 179.038Z" fill="#0D2232"/>
<path d="M127.732 209.199C128.799 208.913 129.768 208.263 130.435 207.278C130.75 206.83 137.681 197.029 151.298 195.57C153.919 195.293 155.815 192.941 155.53 190.322C155.253 187.701 152.901 185.805 150.282 186.09C132.106 188.035 122.918 201.357 122.539 201.928C121.067 204.114 121.641 207.081 123.826 208.552C125.015 209.35 126.441 209.545 127.732 209.199Z" fill="#0D2232"/>
<path d="M241.649 245.77C239.888 253.06 236.647 261.349 230.733 268.395C225.512 274.617 218.203 279.865 207.987 282.602C196.845 285.587 187.238 284.243 179.219 280.851C171.53 277.6 165.301 272.452 160.576 267.423C156.441 263.008 156.513 256.694 159.666 252.347C161.18 250.257 163.403 248.624 166.207 247.873L227.021 231.577C229.825 230.826 232.566 231.129 234.923 232.182C239.848 234.382 243.081 239.864 241.649 245.77Z" fill="#162336"/>
<path d="M224.133 247.6C211.081 251.098 171.872 261.603 171.872 261.603C171.872 261.603 161.531 264.8 159.674 252.345C161.189 250.254 163.411 248.622 166.215 247.87L227.03 231.575C229.834 230.824 232.575 231.127 234.931 232.18C235.105 232.266 237.178 244.105 224.133 247.6Z" fill="white"/>
<path d="M230.742 268.392C225.52 274.614 218.211 279.862 207.996 282.599C196.854 285.585 187.246 284.24 179.227 280.848C180.832 271.189 194.545 264.429 209.36 261.32C220.765 258.92 227.425 264.254 230.742 268.392Z" fill="#DD1010"/>
<path d="M166.207 247.872L227.021 231.577C235.698 229.252 243.76 237.039 241.649 245.77C238.326 259.507 229.776 276.763 207.988 282.602C186.158 288.451 170.228 277.701 160.576 267.423C154.457 260.897 157.563 250.188 166.207 247.872Z" stroke="#0D2232" stroke-width="9" stroke-miterlimit="10"/>
<g opacity="0.16">
<path d="M96.398 185.501L262.81 140.911L269.377 149.471L93.6922 196.546L96.398 185.501Z" fill="black"/>
<path d="M89.2797 223.82C89.2797 223.82 120.69 223.188 141.712 183.688L114.528 186.725L89.2797 223.82Z" fill="black"/>
<path d="M160.806 202.27C160.806 202.27 206.725 197.785 225.736 156.005L201.562 163.396L160.806 202.27Z" fill="black"/>
</g>
<path opacity="0.16" d="M274.446 194.923C274.446 194.923 281.719 279.309 199.079 312.552C199.079 312.552 291.927 301.291 279.836 211.929L274.446 194.923Z" fill="black"/>
<path d="M123.679 178.191C123.679 178.191 111.546 222.446 83.7452 224.868C81.2228 225.083 78.9271 225.184 76.8623 225.188C56.1557 225.168 57.1299 215.04 57.1299 215.04C57.1299 215.04 74.4645 215.147 80.1009 191.481C80.2348 190.922 80.3582 190.357 80.4772 189.776L123.681 178.199L123.679 178.191Z" fill="#253B5A"/>
<path opacity="0.21" d="M78.2554 211.56C72.0381 218.102 69.0105 218.78 69.0105 218.78C69.0105 218.78 69.1135 222.805 76.8623 225.188C56.1557 225.168 57.1299 215.04 57.1299 215.04C57.1299 215.04 76.0133 213.118 81.6496 189.453C81.7415 189.73 84.4033 205.09 78.2554 211.56Z" fill="white"/>
<path d="M305.048 152.467C305.048 152.467 298.592 172.575 278.266 173.846C266.625 174.571 250.428 169.114 228.286 150.17L275.925 137.512C275.925 137.512 276.714 139.863 278.574 142.769C282.309 148.568 290.346 156.592 305.048 152.467Z" fill="#253B5A"/>
<path opacity="0.21" d="M305.048 152.466C305.048 152.466 298.592 172.575 278.266 173.846C280.298 172.627 282.191 171.154 283.961 169.589C287.529 166.426 290.699 162.837 294.228 159.63C289.621 160.634 284.668 158.362 281.757 154.647C279.707 152.022 277.507 147.319 278.128 143.881C278.21 143.425 278.376 143.052 278.593 142.772C282.309 148.568 290.346 156.592 305.048 152.466Z" fill="white"/>
<path d="M275.931 137.502C275.931 137.502 282.999 158.65 305.049 152.467C305.049 152.467 289.093 202.205 228.292 150.16L275.931 137.502Z" stroke="#0D2232" stroke-width="9" stroke-miterlimit="10" stroke-linecap="round" stroke-linejoin="round"/>
<path d="M206.165 156.089C206.165 156.089 203.407 186.395 160.805 202.27C160.805 202.27 164.723 186.716 159.843 168.501L206.165 156.089Z" fill="#253B5A" stroke="#0D2232" stroke-width="9" stroke-miterlimit="10" stroke-linecap="round" stroke-linejoin="round"/>
<path d="M123.678 178.191C123.678 178.191 111.545 222.446 83.7526 224.866C55.96 227.286 57.1269 215.031 57.1269 215.031C57.1269 215.031 75.2862 215.139 80.4803 189.757L123.676 178.183L123.678 178.191Z" stroke="#0D2232" stroke-width="9" stroke-miterlimit="10" stroke-linecap="round" stroke-linejoin="round"/>
<path d="M281.716 211.469C281.716 211.469 291.023 255.237 256.11 289.416C221.197 323.595 172.76 318.718 145.771 303.36C118.783 288.001 108.875 256.222 108.875 256.222" stroke="#0D2232" stroke-width="9" stroke-miterlimit="10"/>
<path d="M283.507 173.053C283.507 173.053 289.038 195.252 289.279 199.788C289.519 204.325 287.177 210.671 279.846 211.935C272.516 213.199 270.299 203.899 268.431 197.422C266.556 190.956 261.363 171.043 261.363 171.043C261.363 171.043 273.17 176.133 283.507 173.053Z" fill="#253B5A" stroke="#0D2232" stroke-width="9" stroke-miterlimit="10" stroke-linecap="round" stroke-linejoin="round"/>
<path d="M170.144 259.975C159.595 256.749 144.49 264.867 138.512 279.055C136.983 281.852 135.577 275.385 134.614 268.475C132.779 255.419 130.731 224.842 124.004 221.371C116.65 217.565 106.269 220.745 105.856 233.205C105.489 243.998 112.17 270.141 110.107 277.847C108.058 285.537 90.5527 237.378 83.1532 233.098C76.0594 229 65.8314 234.489 67.7119 244.335C69.5312 253.829 85.9509 275.813 86.3943 283.993C86.3943 283.993 78.6584 277.602 71.6563 271.915C71.6563 271.915 60.8474 260.525 54.6403 261.244C48.4333 261.977 43.9843 272.802 54.3499 282.341C61.3825 288.808 74.7904 300.795 78.7654 307.2C82.7403 313.622 83.4742 331.677 95.4603 336.569C106.055 340.896 134.446 339.81 145.392 322.168C149.046 318.927 152.746 313.943 154.32 306.405C157.837 289.588 164.411 283.916 172.636 281.73C180.846 279.544 181.06 263.307 170.144 259.975Z" fill="#FBC6A6"/>
<path opacity="0.07" d="M134.614 268.46C132.78 255.404 130.731 224.827 124.004 221.357C119.295 218.926 113.379 219.369 109.603 223.237C110.78 222.962 112.11 222.855 113.669 223.115C120.87 224.323 122.536 240.008 123.484 249.212C124.432 258.416 125.716 278.367 128.147 282.587C130.563 286.806 134.89 289.91 138.528 279.04C136.984 281.853 135.577 275.386 134.614 268.46Z" fill="black"/>
<path opacity="0.07" d="M110.092 277.832C108.044 285.522 90.5538 237.364 83.1389 233.083C78.9499 230.668 73.706 231.6 70.4648 234.78C72.2383 234.627 74.2411 234.811 76.1368 235.805C81.289 238.495 89.5753 258.095 91.6392 262.834C93.7032 267.574 100.124 281.532 102.647 283.015C105.154 284.498 109.832 285.018 110.092 277.832Z" fill="black"/>
<path opacity="0.07" d="M86.3796 283.978C86.3796 283.978 78.6437 277.587 71.6417 271.9C71.6417 271.9 60.8328 260.51 54.6257 261.229C51.9655 261.535 49.6264 263.721 48.6479 266.855C50.1309 266.152 51.8891 265.754 53.846 266.228C59.3651 267.589 74.7146 283.596 76.6256 285.66C78.552 287.724 84.6979 292.432 86.9147 289.711C89.1315 287.005 86.6854 285.828 86.3796 283.978Z" fill="black"/>
<path opacity="0.07" d="M116.192 338.252C127.245 336.891 139.155 332.228 145.393 322.168C149.047 318.927 152.746 313.943 154.321 306.406C157.837 289.589 164.411 283.917 172.637 281.731C178.721 280.125 180.403 270.83 176.459 264.73C177.483 268.369 175.144 271.808 171.643 273.414C166.858 275.615 153.648 278.413 149.398 292.111C145.148 305.795 137.366 334.399 116.192 338.252Z" fill="black"/>
<path opacity="0.5" d="M137.152 330.745C137.152 330.745 119.555 335.591 118.317 335.775C112.614 336.661 95.8734 338.083 88.5962 326.143C88.5962 326.143 82.4961 307.537 80.3863 304.632L74.3015 297.248L48.189 271.212" stroke="white" stroke-width="9" stroke-miterlimit="10"/>
<path d="M170.144 259.975C159.595 256.749 144.49 264.867 138.512 279.055C136.983 281.852 135.577 275.385 134.614 268.475C132.779 255.419 130.731 224.842 124.004 221.371C116.65 217.565 106.269 220.745 105.856 233.205C105.489 243.998 112.17 270.141 110.107 277.847C108.058 285.537 90.5527 237.378 83.1532 233.098C76.0594 229 65.8314 234.489 67.7119 244.335C69.5312 253.829 85.9509 275.813 86.3943 283.993C86.3943 283.993 78.6584 277.602 71.6563 271.915C71.6563 271.915 60.8474 260.525 54.6403 261.244C48.4333 261.977 43.9843 272.802 54.3499 282.341C61.3825 288.808 74.7904 300.795 78.7654 307.2C82.7403 313.622 83.4742 331.677 95.4603 336.569C106.055 340.896 134.446 339.81 145.392 322.168C149.046 318.927 152.746 313.943 154.32 306.405C157.837 289.588 164.411 283.916 172.636 281.73C180.846 279.544 181.06 263.307 170.144 259.975Z" stroke="#0D2232" stroke-width="9" stroke-miterlimit="10" stroke-linecap="round" stroke-linejoin="round"/>
</svg>
