<svg width="360" height="412" viewBox="0 0 360 412" fill="none" xmlns="http://www.w3.org/2000/svg">
<g clip-path="url(#clip0_1175_351)">
<path d="M276.608 135.66C276.608 135.66 272.82 141.452 251.297 149.184C229.767 156.918 76.0692 203.093 76.0692 203.093L65.2808 200.992C65.2808 200.992 43.0351 205.658 38.0742 199.575C33.1132 193.492 103.922 145.129 103.922 145.129L201.858 115.654L226.81 118.586L276.608 135.66Z" fill="#CFB300"/>
<path d="M276.608 135.66C276.608 135.66 272.82 141.452 251.297 149.184C229.767 156.918 76.0692 203.093 76.0692 203.093L65.2808 200.992C65.2808 200.992 43.0351 205.658 38.0742 199.575C33.1132 193.492 103.922 145.129 103.922 145.129L201.858 115.654L226.81 118.586L276.608 135.66Z" stroke="#0D2232" stroke-width="9" stroke-miterlimit="10" stroke-linecap="round" stroke-linejoin="round"/>
<path d="M74.8588 233.272C74.8588 233.272 50.5122 243.028 61.4497 271.283C72.3955 299.535 106.996 283.753 106.996 283.753L92.688 242.819L74.8588 233.272Z" fill="#FBC6A6" stroke="#0D2232" stroke-width="9" stroke-miterlimit="10"/>
<path d="M267.833 181.565C267.833 181.565 287.816 179.586 294.946 200.43C302.076 221.275 283.488 246.358 263.029 243.892C242.569 241.426 247.703 206.061 247.703 206.061L267.833 181.565Z" fill="#FBC6A6" stroke="#0D2232" stroke-width="9" stroke-miterlimit="10"/>
<path opacity="0.4" d="M269.504 194.602C269.504 194.602 280.855 197.205 279.682 209.79C278.047 227.419 264.765 226.209 264.765 226.209L263.093 205.304L269.504 194.602Z" fill="black"/>
<path opacity="0.4" d="M74.5808 246.832C74.5808 246.832 66.0515 254.761 73.3602 265.073C83.5905 279.523 94.4882 271.834 94.4882 271.834L85.4839 252.894L74.5808 246.832Z" fill="black"/>
<path d="M257.317 187.749L263.718 211.637C263.718 211.637 264.611 215.837 264.811 222.65C265.261 237.926 262.24 266.348 237.925 290.153C234.465 293.536 230.876 296.542 227.184 299.193C216.46 306.898 204.92 311.624 193.36 314.043C168.456 319.251 143.524 313.724 126.781 304.198C99.5952 288.728 89.6156 256.716 89.6156 256.716L77.497 211.489L94.7086 174.004L225.738 140.583L246.892 155.142L257.317 187.749Z" fill="#FBC6A6"/>
<path opacity="0.5" d="M144.031 303.185C164.235 310.863 181.78 312.851 194.814 312.769C169.91 317.978 144.978 312.451 128.235 302.925C101.049 287.455 91.0695 255.443 91.0695 255.443L88.9262 247.444L94.4973 240.039C94.4973 240.039 100.241 286.537 144.031 303.185Z" fill="white"/>
<path opacity="0.5" d="M262.312 223.321C262.762 238.596 259.741 267.018 235.426 290.823C231.965 294.206 228.377 297.213 224.685 299.863C236.214 284.601 254.326 257.306 256.023 234.544C256.611 226.84 258.986 223.64 262.312 223.321Z" fill="white"/>
<path d="M276.608 135.66C276.608 135.66 266.521 134.71 254.198 138.012C241.874 141.314 58.5246 190.442 58.5246 190.442C58.5246 190.442 41.7005 194.245 38.074 199.575L35.0198 188.176C33.8365 183.76 36.4593 179.217 40.8754 178.034L263.42 118.403C267.836 117.22 272.379 119.843 273.562 124.259L276.616 135.657L276.608 135.66Z" fill="#F9DC1B"/>
<path d="M258.721 119.663C258.745 119.754 258.756 119.796 258.756 119.796L152.071 148.382L152.035 148.249L45.3415 176.838C45.3415 176.838 45.3348 176.813 45.3237 176.771C45.0559 175.905 42.3835 167.298 41.6912 163.214C40.9576 158.91 44.332 157.872 44.332 157.872C44.332 157.872 36.2194 103.998 91.0847 70.7578C91.0847 70.7578 87.7489 60.4082 97.1685 56.768C106.586 53.1194 124.849 46.8236 124.849 46.8236L124.885 46.9569C124.885 46.9569 143.841 43.2796 153.821 41.7307C163.801 40.1818 166.085 50.8044 166.085 50.8044C230.22 52.159 250.131 102.871 250.131 102.871C250.131 102.871 253.575 102.091 255.089 106.177C256.507 109.968 258.46 118.491 258.721 119.663Z" fill="#F9DC1B"/>
<path opacity="0.73" d="M258.721 119.663L249.655 122.092C249.655 122.092 230.736 69.8459 168.137 57.9614L166.483 51.9212C166.483 51.9212 119.366 49.9539 91.6206 73.1236L94.3402 81.6735C94.3402 81.6735 48.789 108.48 53.5192 174.361L45.33 176.76C45.0623 175.894 42.3898 167.287 41.6976 163.204C40.964 158.899 44.3383 157.861 44.3383 157.861C44.3383 157.861 36.2257 103.988 91.091 70.7471C91.091 70.7471 87.7552 60.3975 97.1748 56.7572C106.592 53.1086 124.856 46.8128 124.856 46.8128L124.891 46.9462C124.891 46.9462 143.848 43.2689 153.828 41.72C163.808 40.1711 166.091 50.7937 166.091 50.7937C230.226 52.1483 250.137 102.86 250.137 102.86C250.137 102.86 253.581 102.081 255.096 106.167C256.507 109.968 258.461 118.491 258.721 119.663Z" fill="white"/>
<path d="M255.096 106.167C253.581 102.081 250.137 102.861 250.137 102.861C250.137 102.861 230.226 52.1485 166.091 50.7939C166.091 50.7939 163.808 40.1714 153.828 41.7203C143.848 43.2692 124.883 46.9487 124.883 46.9487L124.847 46.8153C124.847 46.8153 106.584 53.1111 97.1663 56.7597C87.7489 60.4084 91.0825 70.7496 91.0825 70.7496C36.2172 103.99 44.3298 157.864 44.3298 157.864C44.3298 157.864 40.9576 158.91 41.689 163.206C42.4204 167.502 45.3416 176.838 45.3416 176.838L152.027 148.251L152.063 148.385L258.748 119.798C258.748 119.798 256.621 110.259 255.096 106.167Z" stroke="#0D2232" stroke-width="9" stroke-miterlimit="10" stroke-linecap="round" stroke-linejoin="round"/>
<path d="M166.091 50.7933C166.091 50.7933 169.361 59.3299 170.631 78.2346Z" fill="#F9DC1B"/>
<path d="M166.091 50.7933C166.091 50.7933 169.361 59.3299 170.631 78.2346" stroke="#0D2232" stroke-width="9" stroke-miterlimit="10" stroke-linecap="round" stroke-linejoin="round"/>
<path d="M250.137 102.861L223.116 110.101C220.258 110.867 218.563 113.804 219.328 116.662L222.753 129.443" stroke="#0D2232" stroke-width="9" stroke-miterlimit="10" stroke-linecap="round" stroke-linejoin="round"/>
<path d="M91.0905 70.7473C91.0905 70.7473 92.5272 79.775 100.88 96.782Z" fill="#F9DC1B"/>
<path d="M91.0905 70.7473C91.0905 70.7473 92.5272 79.775 100.88 96.782" stroke="#0D2232" stroke-width="9" stroke-miterlimit="10" stroke-linecap="round" stroke-linejoin="round"/>
<path d="M44.3379 157.861L71.3592 150.621C74.2171 149.855 77.1542 151.551 77.9199 154.409L81.3447 167.19" stroke="#0D2232" stroke-width="9" stroke-miterlimit="10" stroke-linecap="round" stroke-linejoin="round"/>
<path opacity="0.74" d="M262.358 127.074C256.426 126.466 250.522 128.093 244.788 129.692C202.873 141.405 160.955 153.11 119.04 164.824C100.413 170.029 81.7937 175.232 63.1665 180.438C54.9005 182.751 45.7402 185.759 41.7964 193.371C41.0203 194.874 40.3428 196.645 38.7911 197.32C36.4253 198.355 33.8325 195.978 33.115 193.5C31.7625 188.853 34.2569 183.764 37.9794 180.659C41.7041 177.562 46.4576 176.038 51.0896 174.627C119.698 153.716 190.94 141.834 258.662 118.214C262.575 116.853 267.285 115.564 270.538 118.139C272.33 119.561 273.174 121.845 273.94 124.006C274.703 126.186 278.743 133.998 273.418 132.022C271.694 131.386 270.093 129.413 268.272 128.615C266.411 127.801 264.371 127.222 262.358 127.074Z" fill="white"/>
<path d="M276.608 135.66C276.608 135.66 266.521 134.71 254.198 138.012C241.874 141.314 58.5246 190.442 58.5246 190.442C58.5246 190.442 41.7005 194.245 38.074 199.575L35.0198 188.176C33.8365 183.76 36.4593 179.217 40.8754 178.034L263.42 118.403C267.836 117.22 272.379 119.843 273.562 124.259L276.616 135.657L276.608 135.66Z" stroke="#0D2232" stroke-width="9" stroke-miterlimit="10" stroke-linecap="round" stroke-linejoin="round"/>
<path d="M85.5995 213.632C85.5995 213.632 91.6219 237.907 93.9338 244.736C96.2457 251.564 93.2154 259.119 84.7086 256.201C76.2019 253.282 69.8769 224.078 69.8769 224.078C69.8769 224.078 77.4507 222.415 85.5995 213.632Z" fill="#253B5A" stroke="#0D2232" stroke-width="9" stroke-miterlimit="10"/>
<path d="M135.485 241.693C142.866 239.716 147.246 232.129 145.268 224.748C143.291 217.366 135.704 212.986 128.322 214.964C120.941 216.942 116.561 224.529 118.539 231.91C120.516 239.291 128.103 243.671 135.485 241.693Z" fill="#0D2232"/>
<path d="M214.499 220.522C221.88 218.544 226.26 210.957 224.282 203.576C222.305 196.194 214.718 191.814 207.336 193.792C199.955 195.77 195.575 203.357 197.553 210.738C199.531 218.119 207.117 222.499 214.499 220.522Z" fill="#0D2232"/>
<path d="M221.994 178.969C220.919 179.257 219.746 179.178 218.668 178.655C218.168 178.422 207.186 173.364 194.572 178.949C192.146 180.028 189.307 178.931 188.237 176.503C187.158 174.077 188.255 171.238 190.683 170.168C207.519 162.71 222.244 169.704 222.862 170.011C225.246 171.177 226.24 174.054 225.075 176.438C224.44 177.733 223.294 178.621 221.994 178.969Z" fill="#0D2232"/>
<path d="M108.609 209.35C109.684 209.062 110.661 208.408 111.333 207.415C111.649 206.964 118.631 197.092 132.347 195.622C134.987 195.343 136.898 192.974 136.611 190.336C136.332 187.696 133.963 185.786 131.325 186.073C113.015 188.032 103.76 201.451 103.379 202.027C101.896 204.228 102.474 207.217 104.675 208.699C105.873 209.503 107.31 209.699 108.609 209.35Z" fill="#0D2232"/>
<path d="M223.358 246.189C221.584 253.532 218.32 261.881 212.363 268.978C207.104 275.246 199.741 280.532 189.451 283.289C178.228 286.296 168.55 284.942 160.473 281.525C152.728 278.251 146.453 273.065 141.693 267.999C137.528 263.552 137.601 257.192 140.777 252.813C142.302 250.708 144.541 249.063 147.365 248.306L208.624 231.892C211.448 231.135 214.209 231.44 216.583 232.501C221.544 234.717 224.8 240.239 223.358 246.189Z" fill="#162336"/>
<path d="M205.715 248.032C192.567 251.555 153.072 262.138 153.072 262.138C153.072 262.138 142.656 265.357 140.785 252.811C142.311 250.706 144.549 249.061 147.374 248.304L208.632 231.89C211.457 231.133 214.218 231.438 216.592 232.499C216.767 232.586 218.855 244.511 205.715 248.032Z" fill="white"/>
<path d="M212.371 268.976C207.112 275.244 199.75 280.529 189.459 283.287C178.236 286.294 168.559 284.94 160.481 281.523C162.098 271.793 175.91 264.984 190.833 261.852C202.322 259.434 209.031 264.808 212.371 268.976Z" fill="#DD1010"/>
<path d="M147.366 248.306L208.624 231.892C217.364 229.55 225.485 237.394 223.359 246.189C220.011 260.026 211.398 277.408 189.451 283.289C167.463 289.181 151.416 278.353 141.694 268C135.53 261.426 138.658 250.639 147.366 248.306Z" stroke="#0D2232" stroke-width="9" stroke-miterlimit="10"/>
<g opacity="0.16">
<path d="M77.0474 185.48L244.674 140.564L251.289 149.187L74.3219 196.605L77.0474 185.48Z" fill="black"/>
<path d="M69.877 224.078C69.877 224.078 101.516 223.441 122.692 183.653L95.3097 186.713L69.877 224.078Z" fill="black"/>
<path d="M141.925 202.371C141.925 202.371 188.179 197.854 207.329 155.768L182.979 163.213L141.925 202.371Z" fill="black"/>
</g>
<path opacity="0.16" d="M256.394 194.971C256.394 194.971 263.721 279.972 180.478 313.458C180.478 313.458 274.003 302.115 261.824 212.1L256.394 194.971Z" fill="black"/>
<path d="M104.527 178.117C104.527 178.117 92.306 222.694 64.3021 225.135C61.7613 225.351 59.4488 225.453 57.369 225.456C36.5112 225.437 37.4925 215.234 37.4925 215.234C37.4925 215.234 54.9536 215.342 60.6311 191.504C60.766 190.941 60.8904 190.372 61.0103 189.786L104.529 178.125L104.527 178.117Z" fill="#253B5A"/>
<path opacity="0.21" d="M58.7722 211.729C52.5095 218.319 49.4598 219.002 49.4598 219.002C49.4598 219.002 49.5635 223.056 57.369 225.456C36.5112 225.437 37.4925 215.234 37.4925 215.234C37.4925 215.234 56.5137 213.299 62.1912 189.46C62.2838 189.739 64.965 205.212 58.7722 211.729Z" fill="white"/>
<path d="M287.22 152.204C287.22 152.204 280.717 172.459 260.243 173.739C248.517 174.47 232.202 168.973 209.897 149.891L257.884 137.14C257.884 137.14 258.68 139.508 260.553 142.435C264.315 148.277 272.411 156.36 287.22 152.204Z" fill="#253B5A"/>
<path opacity="0.21" d="M287.221 152.204C287.221 152.204 280.717 172.459 260.243 173.739C262.29 172.512 264.196 171.028 265.98 169.452C269.573 166.265 272.766 162.65 276.321 159.42C271.681 160.431 266.691 158.142 263.76 154.4C261.694 151.757 259.478 147.019 260.104 143.556C260.186 143.096 260.354 142.721 260.573 142.439C264.316 148.277 272.411 156.36 287.221 152.204Z" fill="white"/>
<path d="M257.891 137.13C257.891 137.13 265.01 158.433 287.221 152.204C287.221 152.204 271.148 202.306 209.904 149.881L257.891 137.13Z" stroke="#0D2232" stroke-width="9" stroke-miterlimit="10" stroke-linecap="round" stroke-linejoin="round"/>
<path d="M187.615 155.853C187.615 155.853 184.837 186.38 141.925 202.371C141.925 202.371 145.871 186.703 140.955 168.355L187.615 155.853Z" fill="#253B5A" stroke="#0D2232" stroke-width="9" stroke-miterlimit="10" stroke-linecap="round" stroke-linejoin="round"/>
<path d="M104.526 178.117C104.526 178.117 92.3052 222.694 64.3096 225.132C36.314 227.57 37.4895 215.226 37.4895 215.226C37.4895 215.226 55.7813 215.335 61.0133 189.767L104.524 178.108L104.526 178.117Z" stroke="#0D2232" stroke-width="9" stroke-miterlimit="10" stroke-linecap="round" stroke-linejoin="round"/>
<path d="M263.718 211.638C263.718 211.638 273.093 255.725 237.925 290.153C202.757 324.582 153.967 319.669 126.781 304.199C99.5953 288.729 89.6157 256.717 89.6157 256.717" stroke="#0D2232" stroke-width="9" stroke-miterlimit="10"/>
<path d="M265.522 172.941C265.522 172.941 271.094 195.301 271.336 199.871C271.578 204.441 269.219 210.834 261.835 212.107C254.451 213.379 252.218 204.012 250.336 197.488C248.448 190.974 243.216 170.916 243.216 170.916C243.216 170.916 255.11 176.044 265.522 172.941Z" fill="#253B5A" stroke="#0D2232" stroke-width="9" stroke-miterlimit="10" stroke-linecap="round" stroke-linejoin="round"/>
<g clip-path="url(#clip1_1175_351)">
<path d="M122.505 273.266C128.619 304.169 100.703 343.135 91.1573 355.353C90.2444 356.371 89.0252 357.066 87.6834 357.331C86.3415 357.597 84.9498 357.419 83.7178 356.824C70.2394 349.162 29.5902 323.76 23.4768 292.856C20.8789 279.725 23.6042 266.098 31.0529 254.976C38.5017 243.853 50.0639 236.145 63.1958 233.547C76.3278 230.949 89.9539 233.675 101.077 241.123C112.199 248.572 119.907 260.134 122.505 273.266Z" fill="#FFF974" stroke="#0D2232" stroke-width="9" stroke-linecap="round" stroke-linejoin="round"/>
<path d="M83.7021 311.99C97.1921 306.943 104.037 291.916 98.9897 278.426C93.9428 264.936 78.9157 258.091 65.4257 263.138C51.9358 268.185 45.0913 283.212 50.1382 296.702C55.1851 310.192 70.2121 317.037 83.7021 311.99Z" fill="#FFF974" stroke="#0D2232" stroke-width="9" stroke-linecap="round" stroke-linejoin="round"/>
</g>
</g>
<defs>
<clipPath id="clip0_1175_351">
<rect width="360" height="412" fill="white"/>
</clipPath>
<clipPath id="clip1_1175_351">
<rect width="151.421" height="151.421" fill="white" transform="translate(-22 251.058) rotate(-20.5119)"/>
</clipPath>
</defs>
</svg>
