<svg width="360" height="360" viewBox="0 0 360 360" fill="none" xmlns="http://www.w3.org/2000/svg">
<g clip-path="url(#clip0_902_183)">
<path d="M264.608 132.378C264.608 132.378 260.82 138.171 239.297 145.902C217.767 153.636 64.0692 199.811 64.0692 199.811L53.2808 197.71C53.2808 197.71 31.0351 202.376 26.0742 196.293C21.1132 190.21 91.9216 141.847 91.9216 141.847L189.858 112.372L214.81 115.304L264.608 132.378Z" fill="#CFB300"/>
<path d="M264.608 132.378C264.608 132.378 260.82 138.171 239.297 145.902C217.767 153.636 64.0692 199.811 64.0692 199.811L53.2808 197.71C53.2808 197.71 31.0351 202.376 26.0742 196.293C21.1132 190.21 91.9216 141.847 91.9216 141.847L189.858 112.372L214.81 115.304L264.608 132.378Z" stroke="#0D2232" stroke-width="9" stroke-miterlimit="10" stroke-linecap="round" stroke-linejoin="round"/>
<path d="M62.8588 229.99C62.8588 229.99 38.5122 239.747 49.4497 268.001C60.3955 296.253 94.9963 280.471 94.9963 280.471L80.688 239.537L62.8588 229.99Z" fill="#FBC6A6" stroke="#0D2232" stroke-width="9" stroke-miterlimit="10"/>
<path d="M255.833 178.283C255.833 178.283 275.816 176.305 282.946 197.149C290.076 217.993 271.488 243.076 251.029 240.61C230.569 238.144 235.703 202.779 235.703 202.779L255.833 178.283Z" fill="#FBC6A6" stroke="#0D2232" stroke-width="9" stroke-miterlimit="10"/>
<path opacity="0.4" d="M257.504 191.321C257.504 191.321 268.855 193.923 267.682 206.508C266.047 224.137 252.765 222.927 252.765 222.927L251.093 202.022L257.504 191.321Z" fill="black"/>
<path opacity="0.4" d="M62.5808 243.55C62.5808 243.55 54.0515 251.48 61.3602 261.792C71.5905 276.241 82.4882 268.553 82.4882 268.553L73.4839 249.613L62.5808 243.55Z" fill="black"/>
<path d="M245.317 184.467L251.718 208.356C251.718 208.356 252.611 212.555 252.811 219.369C253.261 234.644 250.24 263.066 225.925 286.871C222.465 290.254 218.876 293.261 215.184 295.911C204.46 303.616 192.92 308.342 181.36 310.761C156.456 315.969 131.524 310.442 114.781 300.917C87.5952 285.446 77.6156 253.435 77.6156 253.435L65.497 208.207L82.7086 170.723L213.738 137.301L234.892 151.86L245.317 184.467Z" fill="#FBC6A6"/>
<path opacity="0.5" d="M132.031 299.903C152.235 307.581 169.78 309.569 182.814 309.488C157.91 314.696 132.978 309.169 116.235 299.643C89.0491 284.173 79.0695 252.161 79.0695 252.161L76.9262 244.162L82.4973 236.758C82.4973 236.758 88.2407 283.255 132.031 299.903Z" fill="white"/>
<path opacity="0.5" d="M250.312 220.039C250.762 235.314 247.741 263.737 223.426 287.541C219.965 290.924 216.377 293.931 212.685 296.581C224.214 281.32 242.326 254.025 244.023 231.262C244.611 223.558 246.986 220.358 250.312 220.039Z" fill="white"/>
<path d="M264.608 132.378C264.608 132.378 254.521 131.428 242.198 134.73C229.874 138.032 46.5246 187.161 46.5246 187.161C46.5246 187.161 29.7005 190.963 26.074 196.293L23.0198 184.894C21.8365 180.478 24.4593 175.935 28.8754 174.752L251.42 115.122C255.836 113.938 260.379 116.561 261.562 120.977L264.616 132.376L264.608 132.378Z" fill="#F9DC1B"/>
<path d="M246.721 116.381C246.745 116.473 246.756 116.514 246.756 116.514L140.071 145.101L140.035 144.967L33.3415 173.556C33.3415 173.556 33.3348 173.531 33.3237 173.489C33.0559 172.623 30.3835 164.016 29.6912 159.933C28.9576 155.628 32.332 154.59 32.332 154.59C32.332 154.59 24.2194 100.717 79.0847 67.4761C79.0847 67.4761 75.7489 57.1265 85.1685 53.4862C94.5858 49.8376 112.849 43.5418 112.849 43.5418L112.885 43.6751C112.885 43.6751 131.841 39.9979 141.821 38.449C151.801 36.9001 154.085 47.5227 154.085 47.5227C218.22 48.8773 238.131 99.5894 238.131 99.5894C238.131 99.5894 241.575 98.8096 243.089 102.896C244.507 106.686 246.46 115.21 246.721 116.381Z" fill="#F9DC1B"/>
<path opacity="0.73" d="M246.721 116.381L237.655 118.81C237.655 118.81 218.736 66.5642 156.137 54.6797L154.483 48.6395C154.483 48.6395 107.366 46.6721 79.6206 69.8418L82.3402 78.3918C82.3402 78.3918 36.789 105.198 41.5192 171.079L33.33 173.478C33.0623 172.612 30.3898 164.005 29.6976 159.922C28.964 155.618 32.3383 154.58 32.3383 154.58C32.3383 154.58 24.2257 100.706 79.091 67.4653C79.091 67.4653 75.7552 57.1158 85.1748 53.4755C94.5922 49.8269 112.856 43.5311 112.856 43.5311L112.891 43.6644C112.891 43.6644 131.848 39.9872 141.828 38.4383C151.808 36.8894 154.091 47.5119 154.091 47.5119C218.226 48.8665 238.137 99.5787 238.137 99.5787C238.137 99.5787 241.581 98.7989 243.096 102.885C244.507 106.686 246.461 115.209 246.721 116.381Z" fill="white"/>
<path d="M243.096 102.885C241.581 98.7991 238.137 99.579 238.137 99.579C238.137 99.579 218.226 48.8668 154.091 47.5122C154.091 47.5122 151.808 36.8896 141.828 38.4385C131.848 39.9874 112.883 43.6669 112.883 43.6669L112.847 43.5336C112.847 43.5336 94.5836 49.8294 85.1663 53.478C75.7489 57.1266 79.0825 67.4678 79.0825 67.4678C24.2172 100.709 32.3298 154.582 32.3298 154.582C32.3298 154.582 28.9576 155.628 29.689 159.924C30.4204 164.221 33.3416 173.556 33.3416 173.556L140.027 144.97L140.063 145.103L246.748 116.517C246.748 116.517 244.621 106.978 243.096 102.885Z" stroke="#0D2232" stroke-width="9" stroke-miterlimit="10" stroke-linecap="round" stroke-linejoin="round"/>
<path d="M154.091 47.5116C154.091 47.5116 157.361 56.0481 158.631 74.9528Z" fill="#F9DC1B"/>
<path d="M154.091 47.5116C154.091 47.5116 157.361 56.0481 158.631 74.9528" stroke="#0D2232" stroke-width="9" stroke-miterlimit="10" stroke-linecap="round" stroke-linejoin="round"/>
<path d="M238.137 99.5788L211.116 106.819C208.258 107.585 206.563 110.522 207.328 113.38L210.753 126.161" stroke="#0D2232" stroke-width="9" stroke-miterlimit="10" stroke-linecap="round" stroke-linejoin="round"/>
<path d="M79.0905 67.4656C79.0905 67.4656 80.5272 76.4933 88.8796 93.5003Z" fill="#F9DC1B"/>
<path d="M79.0905 67.4656C79.0905 67.4656 80.5272 76.4933 88.8796 93.5003" stroke="#0D2232" stroke-width="9" stroke-miterlimit="10" stroke-linecap="round" stroke-linejoin="round"/>
<path d="M32.3379 154.58L59.3592 147.339C62.2171 146.573 65.1542 148.269 65.9199 151.127L69.3447 163.909" stroke="#0D2232" stroke-width="9" stroke-miterlimit="10" stroke-linecap="round" stroke-linejoin="round"/>
<path opacity="0.74" d="M250.358 123.792C244.426 123.184 238.522 124.811 232.788 126.41C190.873 138.124 148.955 149.829 107.04 161.542C88.4126 166.747 69.7937 171.951 51.1665 177.156C42.9005 179.469 33.7402 182.477 29.7964 190.089C29.0203 191.592 28.3428 193.363 26.7911 194.038C24.4253 195.074 21.8325 192.696 21.115 190.218C19.7625 185.571 22.2569 180.482 25.9794 177.377C29.7041 174.28 34.4576 172.756 39.0896 171.346C107.698 150.435 178.94 138.552 246.662 114.932C250.575 113.571 255.285 112.282 258.538 114.858C260.33 116.28 261.174 118.563 261.94 120.724C262.703 122.904 266.743 130.716 261.418 128.741C259.694 128.104 258.093 126.131 256.272 125.333C254.411 124.519 252.371 123.94 250.358 123.792Z" fill="white"/>
<path d="M264.608 132.378C264.608 132.378 254.521 131.428 242.198 134.73C229.874 138.032 46.5246 187.161 46.5246 187.161C46.5246 187.161 29.7005 190.963 26.074 196.293L23.0198 184.894C21.8365 180.478 24.4593 175.935 28.8754 174.752L251.42 115.122C255.836 113.938 260.379 116.561 261.562 120.977L264.616 132.376L264.608 132.378Z" stroke="#0D2232" stroke-width="9" stroke-miterlimit="10" stroke-linecap="round" stroke-linejoin="round"/>
<path d="M73.5995 210.35C73.5995 210.35 79.6219 234.626 81.9338 241.454C84.2457 248.283 81.2154 255.837 72.7086 252.919C64.2019 250.001 57.8769 220.796 57.8769 220.796C57.8769 220.796 65.4507 219.133 73.5995 210.35Z" fill="#253B5A" stroke="#0D2232" stroke-width="9" stroke-miterlimit="10"/>
<path d="M123.485 238.412C130.866 236.434 135.246 228.847 133.268 221.466C131.291 214.085 123.704 209.704 116.322 211.682C108.941 213.66 104.561 221.247 106.539 228.628C108.516 236.009 116.103 240.39 123.485 238.412Z" fill="#0D2232"/>
<path d="M202.499 217.24C209.88 215.262 214.26 207.675 212.282 200.294C210.305 192.913 202.718 188.532 195.336 190.51C187.955 192.488 183.575 200.075 185.553 207.456C187.531 214.837 195.117 219.218 202.499 217.24Z" fill="#0D2232"/>
<path d="M209.994 175.687C208.919 175.975 207.746 175.897 206.668 175.373C206.168 175.141 195.186 170.082 182.572 175.667C180.146 176.746 177.307 175.649 176.237 173.221C175.158 170.795 176.255 167.956 178.683 166.886C195.519 159.428 210.244 166.422 210.862 166.73C213.246 167.895 214.24 170.772 213.075 173.156C212.44 174.451 211.294 175.339 209.994 175.687Z" fill="#0D2232"/>
<path d="M96.6094 206.069C97.6842 205.781 98.6609 205.126 99.3326 204.133C99.6493 203.682 106.631 193.81 120.347 192.341C122.987 192.062 124.898 189.692 124.611 187.054C124.332 184.414 121.963 182.504 119.325 182.791C101.015 184.75 91.7602 198.17 91.3786 198.745C89.8965 200.946 90.474 203.935 92.6751 205.417C93.873 206.221 95.3096 206.417 96.6094 206.069Z" fill="#0D2232"/>
<path d="M211.358 242.907C209.584 250.25 206.32 258.599 200.363 265.697C195.104 271.964 187.741 277.25 177.451 280.007C166.228 283.014 156.55 281.66 148.473 278.243C140.728 274.969 134.453 269.783 129.693 264.718C125.528 260.27 125.601 253.91 128.777 249.531C130.302 247.426 132.541 245.781 135.365 245.024L196.624 228.61C199.448 227.853 202.209 228.159 204.583 229.219C209.544 231.435 212.8 236.957 211.358 242.907Z" fill="#162336"/>
<path d="M193.715 244.75C180.567 248.273 141.072 258.856 141.072 258.856C141.072 258.856 130.656 262.076 128.785 249.529C130.311 247.424 132.549 245.779 135.374 245.022L196.632 228.608C199.457 227.851 202.218 228.156 204.592 229.217C204.767 229.304 206.855 241.229 193.715 244.75Z" fill="white"/>
<path d="M200.371 265.694C195.112 271.962 187.75 277.248 177.459 280.005C166.236 283.012 156.559 281.658 148.481 278.241C150.098 268.511 163.91 261.702 178.833 258.57C190.322 256.152 197.031 261.526 200.371 265.694Z" fill="#DD1010"/>
<path d="M135.366 245.025L196.624 228.611C205.364 226.269 213.485 234.112 211.359 242.907C208.011 256.744 199.398 274.127 177.451 280.007C155.463 285.899 139.416 275.071 129.694 264.718C123.53 258.145 126.658 247.358 135.366 245.025Z" stroke="#0D2232" stroke-width="9" stroke-miterlimit="10"/>
<g opacity="0.16">
<path d="M65.0474 182.198L232.674 137.282L239.289 145.905L62.3219 193.323L65.0474 182.198Z" fill="black"/>
<path d="M57.877 220.796C57.877 220.796 89.5165 220.16 110.692 180.371L83.3097 183.431L57.877 220.796Z" fill="black"/>
<path d="M129.925 199.089C129.925 199.089 176.179 194.572 195.329 152.487L170.979 159.931L129.925 199.089Z" fill="black"/>
</g>
<path opacity="0.16" d="M244.394 191.689C244.394 191.689 251.721 276.69 168.478 310.176C168.478 310.176 262.003 298.833 249.824 208.819L244.394 191.689Z" fill="black"/>
<path d="M92.5271 174.835C92.5271 174.835 80.306 219.413 52.3021 221.853C49.7613 222.069 47.4488 222.171 45.369 222.174C24.5112 222.155 25.4925 211.953 25.4925 211.953C25.4925 211.953 42.9536 212.061 48.6311 188.222C48.766 187.659 48.8904 187.09 49.0103 186.504L92.5293 174.843L92.5271 174.835Z" fill="#253B5A"/>
<path opacity="0.21" d="M46.7722 208.447C40.5095 215.037 37.4598 215.721 37.4598 215.721C37.4598 215.721 37.5635 219.774 45.369 222.174C24.5112 222.155 25.4925 211.953 25.4925 211.953C25.4925 211.953 44.5137 210.017 50.1912 186.179C50.2838 186.458 52.965 201.93 46.7722 208.447Z" fill="white"/>
<path d="M275.22 148.922C275.22 148.922 268.717 169.178 248.243 170.457C236.517 171.188 220.202 165.692 197.897 146.609L245.884 133.858C245.884 133.858 246.68 136.226 248.553 139.154C252.315 144.995 260.411 153.078 275.22 148.922Z" fill="#253B5A"/>
<path opacity="0.21" d="M275.221 148.922C275.221 148.922 268.717 169.178 248.243 170.457C250.29 169.23 252.196 167.746 253.98 166.17C257.573 162.983 260.766 159.368 264.321 156.138C259.681 157.15 254.691 154.861 251.76 151.119C249.694 148.475 247.478 143.737 248.104 140.274C248.186 139.815 248.354 139.439 248.573 139.157C252.316 144.995 260.411 153.078 275.221 148.922Z" fill="white"/>
<path d="M245.891 133.848C245.891 133.848 253.01 155.151 275.221 148.923C275.221 148.923 259.148 199.024 197.904 146.599L245.891 133.848Z" stroke="#0D2232" stroke-width="9" stroke-miterlimit="10" stroke-linecap="round" stroke-linejoin="round"/>
<path d="M175.615 152.571C175.615 152.571 172.837 183.098 129.925 199.089C129.925 199.089 133.871 183.421 128.955 165.074L175.615 152.571Z" fill="#253B5A" stroke="#0D2232" stroke-width="9" stroke-miterlimit="10" stroke-linecap="round" stroke-linejoin="round"/>
<path d="M92.5263 174.835C92.5263 174.835 80.3052 219.413 52.3096 221.851C24.314 224.288 25.4895 211.944 25.4895 211.944C25.4895 211.944 43.7813 212.053 49.0133 186.485L92.524 174.827L92.5263 174.835Z" stroke="#0D2232" stroke-width="9" stroke-miterlimit="10" stroke-linecap="round" stroke-linejoin="round"/>
<path d="M251.718 208.356C251.718 208.356 261.093 252.443 225.925 286.871C190.757 321.3 141.967 316.387 114.781 300.917C87.5953 285.447 77.6157 253.435 77.6157 253.435" stroke="#0D2232" stroke-width="9" stroke-miterlimit="10"/>
<path d="M253.522 169.659C253.522 169.659 259.094 192.02 259.336 196.59C259.578 201.159 257.219 207.552 249.835 208.825C242.451 210.098 240.218 200.73 238.336 194.206C236.448 187.692 231.216 167.635 231.216 167.635C231.216 167.635 243.11 172.762 253.522 169.659Z" fill="#253B5A" stroke="#0D2232" stroke-width="9" stroke-miterlimit="10" stroke-linecap="round" stroke-linejoin="round"/>
<path d="M209.779 252.002C208.915 248.112 209.048 244.067 210.165 240.242C211.281 236.416 213.345 232.935 216.166 230.12C218.987 227.306 222.472 225.249 226.3 224.14C230.127 223.032 234.173 222.908 238.061 223.779C240.201 220.432 243.149 217.678 246.634 215.77C250.118 213.862 254.027 212.862 258 212.862C261.973 212.862 265.882 213.862 269.366 215.77C272.851 217.678 275.799 220.432 277.939 223.779C281.833 222.904 285.886 223.027 289.719 224.139C293.553 225.25 297.043 227.312 299.865 230.135C302.688 232.957 304.75 236.447 305.862 240.281C306.973 244.115 307.096 248.167 306.221 252.061C309.568 254.201 312.322 257.149 314.23 260.634C316.138 264.119 317.138 268.027 317.138 272C317.138 275.973 316.138 279.882 314.23 283.366C312.322 286.851 309.568 289.799 306.221 291.939C307.092 295.828 306.968 299.873 305.86 303.7C304.751 307.528 302.694 311.014 299.88 313.834C297.065 316.655 293.584 318.719 289.759 319.835C285.933 320.952 281.888 321.085 277.998 320.221C275.861 323.581 272.91 326.347 269.42 328.264C265.929 330.18 262.012 331.185 258.03 331.185C254.047 331.185 250.13 330.18 246.639 328.264C243.149 326.347 240.198 323.581 238.061 320.221C234.173 321.093 230.127 320.969 226.3 319.86C222.472 318.752 218.987 316.695 216.166 313.88C213.345 311.065 211.281 307.584 210.165 303.759C209.048 299.934 208.915 295.889 209.779 291.999C206.406 289.864 203.628 286.911 201.703 283.415C199.778 279.918 198.769 275.992 198.769 272C198.769 268.009 199.778 264.082 201.703 260.586C203.628 257.089 206.406 254.136 209.779 252.002Z" fill="#FFF974" stroke="black" stroke-width="9" stroke-linecap="round" stroke-linejoin="round"/>
<path d="M258 248.333V295.667" stroke="black" stroke-width="9" stroke-linecap="round" stroke-linejoin="round"/>
<path d="M234.333 272H281.667" stroke="black" stroke-width="9" stroke-linecap="round" stroke-linejoin="round"/>
</g>
<defs>
<clipPath id="clip0_902_183">
<rect width="360" height="360" fill="white"/>
</clipPath>
</defs>
</svg>
