<svg width="360" height="360" viewBox="0 0 360 360" fill="none" xmlns="http://www.w3.org/2000/svg">
<path d="M294.51 136.042C294.51 136.042 290.75 141.793 269.383 149.469C248.009 157.146 95.4264 202.987 95.4264 202.987L84.7163 200.901C84.7163 200.901 62.632 205.532 57.707 199.494C52.782 193.455 123.077 145.442 123.077 145.442L220.303 116.181L245.073 119.092L294.51 136.042Z" fill="#CFB300"/>
<path d="M294.51 136.042C294.51 136.042 290.75 141.793 269.383 149.469C248.009 157.146 95.4264 202.987 95.4264 202.987L84.7163 200.901C84.7163 200.901 62.632 205.532 57.707 199.494C52.782 193.455 123.077 145.442 123.077 145.442L220.303 116.181L245.073 119.092L294.51 136.042Z" stroke="#0D2232" stroke-width="9" stroke-miterlimit="10" stroke-linecap="round" stroke-linejoin="round"/>
<path d="M94.2255 232.947C94.2255 232.947 70.0555 242.632 80.9137 270.682C91.7801 298.729 126.13 283.062 126.13 283.062L111.925 242.424L94.2255 232.947Z" fill="#FBC6A6" stroke="#0D2232" stroke-width="9" stroke-miterlimit="10"/>
<path d="M285.799 181.615C285.799 181.615 305.637 179.65 312.715 200.343C319.794 221.036 301.341 245.938 281.03 243.489C260.719 241.041 265.816 205.933 265.816 205.933L285.799 181.615Z" fill="#FBC6A6" stroke="#0D2232" stroke-width="9" stroke-miterlimit="10"/>
<path opacity="0.4" d="M287.458 194.557C287.458 194.557 298.726 197.141 297.562 209.635C295.939 227.136 282.753 225.935 282.753 225.935L281.093 205.182L287.458 194.557Z" fill="black"/>
<path opacity="0.4" d="M93.9493 246.408C93.9493 246.408 85.4819 254.28 92.7376 264.517C102.894 278.862 113.712 271.229 113.712 271.229L104.773 252.427L93.9493 246.408Z" fill="black"/>
<path d="M275.368 187.752L281.722 211.467C281.722 211.467 282.609 215.636 282.808 222.4C283.254 237.565 280.256 265.781 256.117 289.413C252.681 292.772 249.119 295.757 245.454 298.388C234.808 306.037 223.351 310.729 211.876 313.13C187.152 318.301 162.4 312.814 145.779 303.357C118.791 287.999 108.883 256.219 108.883 256.219L96.8525 211.32L113.939 174.107L244.017 140.928L265.019 155.381L275.368 187.752Z" fill="#FBC6A6"/>
<path opacity="0.5" d="M162.904 302.351C182.961 309.973 200.379 311.947 213.319 311.866C188.595 317.037 163.844 311.55 147.222 302.093C120.234 286.735 110.326 254.955 110.326 254.955L108.199 247.014L113.729 239.663C113.721 239.665 119.423 285.826 162.904 302.351Z" fill="white"/>
<path opacity="0.5" d="M280.327 223.065C280.773 238.23 277.774 266.446 253.635 290.078C250.2 293.437 246.638 296.422 242.972 299.053C254.418 283.902 272.398 256.805 274.083 234.207C274.658 226.561 277.017 223.385 280.327 223.065Z" fill="white"/>
<path d="M294.51 136.042C294.51 136.042 284.497 135.099 272.263 138.378C260.029 141.656 78.0094 190.428 78.0094 190.428C78.0094 190.428 61.3074 194.202 57.7072 199.494L54.6751 188.178C53.5004 183.794 56.1042 179.284 60.4882 178.109L281.418 118.911C285.802 117.736 290.312 120.34 291.487 124.724L294.519 136.04L294.51 136.042Z" fill="#F9DC1B"/>
<path d="M276.752 120.161C276.776 120.252 276.788 120.294 276.788 120.294L170.876 148.672L170.841 148.54L64.9295 176.919C64.9295 176.919 64.9228 176.894 64.9117 176.853C64.6459 175.993 61.9928 167.448 61.3056 163.394C60.5773 159.121 63.9272 158.091 63.9272 158.091C63.9272 158.091 55.8733 104.608 110.34 71.608C110.34 71.608 107.029 61.3334 116.38 57.7195C125.731 54.1056 143.86 47.8472 143.86 47.8472L143.896 47.9796C143.896 47.9796 162.714 44.329 172.622 42.7914C182.53 41.2537 184.797 51.7993 184.797 51.7993C248.466 53.1442 268.233 103.489 268.233 103.489C268.233 103.489 271.652 102.715 273.155 106.771C274.563 110.535 276.494 118.998 276.752 120.161Z" fill="#F9DC1B"/>
<path opacity="0.73" d="M276.752 120.161L267.753 122.573C267.753 122.573 248.97 70.7053 186.826 58.9068L185.183 52.9104C185.183 52.9104 138.408 50.9572 110.864 73.9589L113.564 82.4469C113.564 82.4469 68.3435 109.059 73.0396 174.462L64.9098 176.844C64.644 175.985 61.9909 167.44 61.3037 163.386C60.5753 159.113 63.9252 158.082 63.9252 158.082C63.9252 158.082 55.8714 104.599 110.339 71.5997C110.339 71.5997 107.027 61.3251 116.378 57.7112C125.729 54.0973 143.858 47.8389 143.858 47.8389L143.894 47.9713C143.894 47.9713 162.712 44.3207 172.62 42.7831C182.528 41.2455 184.795 51.791 184.795 51.791C248.465 53.136 268.231 103.481 268.231 103.481C268.231 103.481 271.65 102.706 273.153 106.763C274.563 110.535 276.494 118.998 276.752 120.161Z" fill="white"/>
<path d="M273.162 106.761C271.658 102.704 268.24 103.478 268.24 103.478C268.24 103.478 248.473 53.1338 184.803 51.7889C184.803 51.7889 182.536 41.2433 172.629 42.7809C162.721 44.3186 143.894 47.9714 143.894 47.9714L143.859 47.839C143.859 47.839 125.727 54.0891 116.378 57.7113C107.029 61.3334 110.339 71.5997 110.339 71.5997C55.8716 104.599 63.9255 158.082 63.9255 158.082C63.9255 158.082 60.5778 159.121 61.3039 163.386C62.03 167.651 64.93 176.919 64.93 176.919L170.841 148.54L170.877 148.672L276.788 120.294C276.788 120.294 274.668 110.826 273.162 106.761Z" stroke="#0D2232" stroke-width="9" stroke-miterlimit="10" stroke-linecap="round" stroke-linejoin="round"/>
<path d="M184.796 51.7911C184.796 51.7911 188.042 60.2658 189.302 79.0335Z" fill="#F9DC1B"/>
<path d="M184.796 51.7911C184.796 51.7911 188.042 60.2658 189.302 79.0335" stroke="#0D2232" stroke-width="9" stroke-miterlimit="10" stroke-linecap="round" stroke-linejoin="round"/>
<path d="M268.232 103.481L241.407 110.669C238.57 111.429 236.886 114.344 237.646 117.182L241.046 129.871" stroke="#0D2232" stroke-width="9" stroke-miterlimit="10" stroke-linecap="round" stroke-linejoin="round"/>
<path d="M110.339 71.5996C110.339 71.5996 111.765 80.5619 120.057 97.4457Z" fill="#F9DC1B"/>
<path d="M110.339 71.5996C110.339 71.5996 111.765 80.5619 120.057 97.4457" stroke="#0D2232" stroke-width="9" stroke-miterlimit="10" stroke-linecap="round" stroke-linejoin="round"/>
<path d="M63.9258 158.083L90.751 150.895C93.5882 150.134 96.5039 151.818 97.2642 154.655L100.664 167.344" stroke="#0D2232" stroke-width="9" stroke-miterlimit="10" stroke-linecap="round" stroke-linejoin="round"/>
<path opacity="0.74" d="M280.364 127.518C274.476 126.915 268.614 128.53 262.922 130.117C221.311 141.746 179.697 153.366 138.086 164.994C119.594 170.162 101.11 175.328 82.618 180.495C74.412 182.792 65.3182 185.778 61.403 193.335C60.6325 194.827 59.96 196.585 58.4195 197.255C56.0708 198.283 53.4969 195.923 52.7846 193.463C51.4419 188.849 53.9181 183.797 57.6137 180.714C61.3114 177.64 66.0304 176.127 70.6287 174.727C138.74 153.968 209.465 142.172 276.695 118.722C280.58 117.371 285.255 116.092 288.485 118.649C290.264 120.061 291.102 122.327 291.863 124.473C292.62 126.637 296.631 134.393 291.344 132.431C289.632 131.799 288.044 129.84 286.236 129.048C284.388 128.24 282.363 127.665 280.364 127.518Z" fill="white"/>
<path d="M294.51 136.042C294.51 136.042 284.497 135.099 272.263 138.378C260.029 141.656 78.0094 190.428 78.0094 190.428C78.0094 190.428 61.3074 194.202 57.7072 199.494L54.6751 188.178C53.5004 183.794 56.1042 179.284 60.4882 178.109L281.418 118.911C285.802 117.736 290.312 120.34 291.487 124.724L294.519 136.04L294.51 136.042Z" stroke="#0D2232" stroke-width="9" stroke-miterlimit="10" stroke-linecap="round" stroke-linejoin="round"/>
<path d="M104.888 213.449C104.888 213.449 110.867 237.548 113.162 244.327C115.457 251.106 112.449 258.606 104.004 255.709C95.559 252.812 89.2799 223.819 89.2799 223.819C89.2799 223.819 96.7987 222.168 104.888 213.449Z" fill="#253B5A" stroke="#0D2232" stroke-width="9" stroke-miterlimit="10"/>
<path d="M156.104 247.592C163.431 245.628 167.78 238.096 165.816 230.769C163.853 223.441 156.321 219.092 148.993 221.056C141.666 223.019 137.317 230.551 139.281 237.879C141.244 245.207 148.776 249.555 156.104 247.592Z" fill="#0D2232"/>
<path d="M237.779 225.706C245.107 223.743 249.455 216.211 247.492 208.883C245.528 201.556 237.996 197.207 230.669 199.17C223.341 201.134 218.993 208.666 220.956 215.994C222.919 223.321 230.451 227.67 237.779 225.706Z" fill="#0D2232"/>
<g opacity="0.16">
<path d="M96.3975 185.501L262.817 140.909L269.383 149.469L93.7 196.543L96.3975 185.501Z" fill="black"/>
<path d="M89.2797 223.819C89.2797 223.819 120.69 223.187 141.712 183.687L114.528 186.725L89.2797 223.819Z" fill="black"/>
<path d="M160.805 202.269C160.805 202.269 206.724 197.785 225.734 156.005L201.561 163.395L160.805 202.269Z" fill="black"/>
</g>
<path opacity="0.16" d="M274.444 194.924C274.444 194.924 281.717 279.309 199.078 312.552C199.078 312.552 291.925 301.291 279.834 211.929L274.444 194.924Z" fill="black"/>
<path d="M123.678 178.191C123.678 178.191 111.546 222.446 83.745 224.868C81.2227 225.083 78.9269 225.184 76.8622 225.187C56.1557 225.168 57.1299 215.039 57.1299 215.039C57.1299 215.039 74.4644 215.147 80.1006 191.481C80.2346 190.922 80.358 190.357 80.477 189.775L123.68 178.199L123.678 178.191Z" fill="#253B5A"/>
<path opacity="0.21" d="M78.2552 211.56C72.038 218.102 69.0104 218.78 69.0104 218.78C69.0104 218.78 69.1134 222.804 76.8622 225.187C56.1557 225.168 57.1299 215.039 57.1299 215.039C57.1299 215.039 76.0131 213.118 81.6494 189.452C81.7413 189.729 84.4031 205.089 78.2552 211.56Z" fill="white"/>
<path d="M305.046 152.467C305.046 152.467 298.589 172.575 278.264 173.846C266.623 174.571 250.426 169.115 228.284 150.17L275.922 137.512C275.922 137.512 276.712 139.863 278.572 142.769C282.307 148.568 290.344 156.592 305.046 152.467Z" fill="#253B5A"/>
<path opacity="0.21" d="M305.046 152.467C305.046 152.467 298.59 172.576 278.264 173.846C280.296 172.628 282.189 171.154 283.959 169.589C287.527 166.426 290.697 162.837 294.226 159.631C289.619 160.635 284.666 158.362 281.755 154.647C279.705 152.023 277.505 147.32 278.126 143.882C278.208 143.425 278.374 143.053 278.591 142.773C282.307 148.568 290.344 156.593 305.046 152.467Z" fill="white"/>
<path d="M275.929 137.502C275.929 137.502 282.996 158.65 305.046 152.467C305.046 152.467 289.09 202.206 228.29 150.16L275.929 137.502Z" stroke="#0D2232" stroke-width="9" stroke-miterlimit="10" stroke-linecap="round" stroke-linejoin="round"/>
<path d="M206.163 156.089C206.163 156.089 203.406 186.395 160.804 202.269C160.804 202.269 164.722 186.715 159.842 168.501L206.163 156.089Z" fill="#253B5A" stroke="#0D2232" stroke-width="9" stroke-miterlimit="10" stroke-linecap="round" stroke-linejoin="round"/>
<path d="M123.678 178.191C123.678 178.191 111.545 222.445 83.7529 224.866C55.9605 227.286 57.1274 215.031 57.1274 215.031C57.1274 215.031 75.2865 215.139 80.4805 189.757L123.676 178.182L123.678 178.191Z" stroke="#0D2232" stroke-width="9" stroke-miterlimit="10" stroke-linecap="round" stroke-linejoin="round"/>
<path d="M281.723 211.467C281.723 211.467 291.03 255.235 256.117 289.414C221.204 323.593 172.768 318.715 145.779 303.357C118.791 287.999 108.883 256.219 108.883 256.219" stroke="#0D2232" stroke-width="9" stroke-miterlimit="10"/>
<path d="M283.505 173.053C283.505 173.053 289.036 195.252 289.276 199.789C289.517 204.325 287.175 210.671 279.844 211.935C272.514 213.199 270.297 203.899 268.429 197.422C266.554 190.956 261.361 171.043 261.361 171.043C261.361 171.043 273.176 176.131 283.505 173.053Z" fill="#253B5A" stroke="#0D2232" stroke-width="9" stroke-miterlimit="10" stroke-linecap="round" stroke-linejoin="round"/>
<path d="M159.119 212.855C148.438 212.135 137.92 215.795 129.987 222.983L127.17 225.538" stroke="#0D2232" stroke-width="9" stroke-miterlimit="10" stroke-linecap="round" stroke-linejoin="round"/>
<path d="M213.77 198.21C222.66 192.247 233.599 190.158 244.063 192.416L247.78 193.22" stroke="#0D2232" stroke-width="9" stroke-miterlimit="10" stroke-linecap="round" stroke-linejoin="round"/>
<path d="M172.587 274.302C172.587 274.302 201.82 281.825 227.355 259.627" stroke="#0D2232" stroke-width="9" stroke-miterlimit="10" stroke-linecap="round" stroke-linejoin="round"/>
</svg>
