<svg width="360" height="360" viewBox="0 0 360 360" fill="none" xmlns="http://www.w3.org/2000/svg">
<g clip-path="url(#clip0_509_221)">
<path d="M121.092 281.045H151.585" stroke="#0D2232" stroke-width="9" stroke-miterlimit="10" stroke-linecap="round" stroke-linejoin="round"/>
<path d="M144.657 259.325V242.943C144.657 235.547 138.664 229.562 131.276 229.562C123.88 229.562 117.896 235.556 117.896 242.943V259.155L144.657 259.325Z" fill="#FBC6A6"/>
<path d="M301.162 167.283C301.162 167.283 296.078 171.831 273.618 173.702C251.15 175.572 93.063 180.324 93.063 180.324L83.3292 175.572C83.3292 175.572 60.9627 174.339 57.7918 167.283C54.6209 160.227 134.361 132.25 134.361 132.25L235.108 129.173L258.112 138.329L301.162 167.283Z" fill="#CFB300"/>
<path d="M301.162 167.283C301.162 167.283 296.078 171.831 273.618 173.702C251.15 175.572 93.063 180.324 93.063 180.324L83.3292 175.572C83.3292 175.572 60.9627 174.339 57.7918 167.283C54.6209 160.227 134.361 132.25 134.361 132.25L235.108 129.173L258.112 138.329L301.162 167.283Z" stroke="#0D2232" stroke-width="9" stroke-miterlimit="10" stroke-linecap="round" stroke-linejoin="round"/>
<path d="M84.214 208.743C84.214 208.743 58.5491 211.821 61.754 241.506C64.9675 271.192 101.93 264.995 101.93 264.995L98.7509 222.379L84.214 208.743Z" fill="#FBC6A6" stroke="#0D2232" stroke-width="9" stroke-miterlimit="10"/>
<path d="M281.099 208.743C281.099 208.743 300.626 211.957 302.097 233.617C303.568 255.278 279.476 274.414 260.629 266.848C241.782 259.282 255.69 226.927 255.69 226.927L281.099 208.743Z" fill="#FBC6A6" stroke="#0D2232" stroke-width="9" stroke-miterlimit="10"/>
<path opacity="0.4" d="M279.366 221.58C279.366 221.58 289.507 226.952 285.18 238.633C279.128 254.998 266.792 250.458 266.792 250.458L270.533 230.132L279.366 221.58Z" fill="black"/>
<path opacity="0.4" d="M80.4897 221.58C80.4897 221.58 70.3478 226.952 74.6749 238.633C80.7277 254.998 93.0628 250.458 93.0628 250.458L89.3223 230.132L80.4897 221.58Z" fill="black"/>
<path d="M269.521 211.948V236.321C269.521 236.321 269.3 240.546 267.753 247.083C264.284 261.739 254.159 288.024 224.941 304.483C220.784 306.82 216.601 308.767 212.41 310.348C200.237 314.947 188.046 316.503 176.425 315.857C151.389 314.463 129.065 302.842 115.557 289.504C93.6242 267.843 92.2896 234.824 92.2896 234.824V188.68L118.235 157.388L251.49 158.994L267.914 178.249L269.521 211.948Z" fill="#FBC6A6"/>
<path opacity="0.5" d="M132.228 292.937C149.502 305.4 165.697 311.767 178.125 315.015C153.09 313.621 130.766 302 117.257 288.661C95.3244 267.001 93.9897 233.982 93.9897 233.982V225.821L101.182 220.193C101.182 220.193 94.7889 265.921 132.228 292.937Z" fill="white"/>
<path opacity="0.5" d="M265.194 247.083C261.726 261.739 251.601 288.025 222.383 304.483C218.226 306.821 214.043 308.768 209.852 310.349C224.721 298.762 248.923 277.398 256.345 256.163C258.87 248.979 261.947 246.539 265.194 247.083Z" fill="white"/>
<path d="M301.162 167.283C301.162 167.283 291.802 163.806 279.229 163.806C266.656 163.806 79.5889 163.806 79.5889 163.806C79.5889 163.806 62.6036 163.135 57.792 167.283V155.654C57.792 151.148 61.4475 147.493 65.9531 147.493H293.01C297.515 147.493 301.171 151.148 301.171 155.654V167.283H301.162Z" fill="#F9DC1B"/>
<path d="M288.215 147.492C288.215 147.586 288.215 147.628 288.215 147.628H179.367V147.492H70.5187C70.5187 147.492 70.5187 147.467 70.5187 147.424C70.4847 146.532 70.1361 137.657 70.5187 133.593C70.9182 129.309 74.3952 129.181 74.3952 129.181C74.3952 129.181 80.4139 75.828 141.12 58.1797C141.12 58.1797 140.585 47.4767 150.48 46.4141C160.376 45.343 179.367 44.0083 179.367 44.0083V44.1443C179.367 44.1443 198.35 45.479 208.245 46.5501C218.141 47.6213 217.605 58.3157 217.605 58.3157C278.312 75.964 284.33 129.317 284.33 129.317C284.33 129.317 287.807 129.453 288.207 133.729C288.589 137.699 288.266 146.311 288.215 147.492Z" fill="#F9DC1B"/>
<path opacity="0.73" d="M288.215 147.493H278.966C278.966 147.493 274.282 92.9325 217.724 65.6524L217.69 59.4805C217.69 59.4805 173.34 45.5897 141.018 60.5687L141.427 69.4014C141.427 69.4014 91.2274 83.3007 78.9263 147.221L70.5187 147.416C70.4847 146.524 70.1361 137.648 70.5187 133.585C70.9182 129.3 74.3952 129.173 74.3952 129.173C74.3952 129.173 80.4139 75.8197 141.12 58.1714C141.12 58.1714 140.585 47.4685 150.48 46.4058C160.376 45.3347 179.367 44 179.367 44V44.136C179.367 44.136 198.35 45.4707 208.245 46.5418C218.141 47.613 217.605 58.3074 217.605 58.3074C278.312 75.9557 284.33 129.309 284.33 129.309C284.33 129.309 287.807 129.445 288.207 133.721C288.589 137.699 288.266 146.311 288.215 147.493Z" fill="white"/>
<path d="M288.215 133.721C287.816 129.445 284.339 129.309 284.339 129.309C284.339 129.309 278.32 75.9557 217.613 58.3074C217.613 58.3074 218.149 47.613 208.254 46.5418C198.358 45.4707 179.367 44.136 179.367 44.136V44C179.367 44 160.375 45.3347 150.48 46.4058C140.585 47.477 141.12 58.1714 141.12 58.1714C80.4137 75.8197 74.3949 129.173 74.3949 129.173C74.3949 129.173 70.918 129.309 70.5184 133.585C70.1188 137.861 70.5184 147.493 70.5184 147.493H179.367V147.629H288.215C288.215 147.629 288.615 138.005 288.215 133.721Z" stroke="#0D2232" stroke-width="9" stroke-miterlimit="10" stroke-linecap="round" stroke-linejoin="round"/>
<path d="M217.605 58.3071C217.605 58.3071 218.54 67.2673 214.927 85.5872Z" fill="#F9DC1B"/>
<path d="M217.605 58.3071C217.605 58.3071 218.54 67.2673 214.927 85.5872" stroke="#0D2232" stroke-width="9" stroke-miterlimit="10" stroke-linecap="round" stroke-linejoin="round"/>
<path d="M284.33 129.309H256.761C253.845 129.309 251.482 131.672 251.482 134.588V147.629" stroke="#0D2232" stroke-width="9" stroke-miterlimit="10" stroke-linecap="round" stroke-linejoin="round"/>
<path d="M141.121 58.1714C141.121 58.1714 140.185 67.1316 143.798 85.4515Z" fill="#F9DC1B"/>
<path d="M141.121 58.1714C141.121 58.1714 140.185 67.1316 143.798 85.4515" stroke="#0D2232" stroke-width="9" stroke-miterlimit="10" stroke-linecap="round" stroke-linejoin="round"/>
<path d="M74.3955 129.173H101.965C104.881 129.173 107.244 131.536 107.244 134.452V147.493" stroke="#0D2232" stroke-width="9" stroke-miterlimit="10" stroke-linecap="round" stroke-linejoin="round"/>
<path opacity="0.74" d="M289.788 155.475C284.297 153.384 278.261 153.426 272.395 153.486C229.507 153.945 186.619 154.396 143.73 154.855C124.671 155.059 105.62 155.263 86.5604 155.467C78.1018 155.56 68.6146 156.087 62.9188 162.327C61.7967 163.56 60.7 165.073 59.0508 165.319C56.5344 165.702 54.6727 162.778 54.6217 160.236C54.5197 155.467 58.1922 151.259 62.5278 149.252C66.8633 147.255 71.777 147.017 76.5461 146.855C147.19 144.449 218.039 151.31 288.53 146.098C292.602 145.801 297.414 145.775 299.854 149.057C301.197 150.868 301.418 153.256 301.596 155.509C301.766 157.779 303.62 166.246 299.054 163.007C297.575 161.962 296.555 159.675 295.025 158.451C293.461 157.201 291.667 156.13 289.788 155.475Z" fill="white"/>
<path d="M301.162 167.283C301.162 167.283 291.802 163.806 279.229 163.806C266.656 163.806 79.5889 163.806 79.5889 163.806C79.5889 163.806 62.6036 163.135 57.792 167.283V155.654C57.792 151.148 61.4475 147.493 65.9531 147.493H293.01C297.515 147.493 301.171 151.148 301.171 155.654V167.283H301.162Z" stroke="#0D2232" stroke-width="9" stroke-miterlimit="10" stroke-linecap="round" stroke-linejoin="round"/>
<path d="M99.4477 192.787C99.4477 192.787 98.9886 217.431 99.4477 224.521C99.9068 231.611 95.0951 238.03 87.7416 233.082C80.3882 228.134 81.8164 198.72 81.8164 198.72C81.8164 198.72 89.4504 199.069 99.4477 192.787Z" fill="#253B5A" stroke="#0D2232" stroke-width="9" stroke-miterlimit="10"/>
<path d="M139.786 232.223C147.317 232.223 153.421 226.118 153.421 218.587C153.421 211.057 147.317 204.952 139.786 204.952C132.255 204.952 126.15 211.057 126.15 218.587C126.15 226.118 132.255 232.223 139.786 232.223Z" fill="#0D2232"/>
<path d="M220.393 241.082C227.924 241.082 234.029 234.977 234.029 227.446C234.029 219.915 227.924 213.81 220.393 213.81C212.862 213.81 206.757 219.915 206.757 227.446C206.757 234.977 212.862 241.082 220.393 241.082Z" fill="#0D2232"/>
<g opacity="0.16">
<path d="M98.4872 163.806H269.521L273.61 173.701H93.0635L98.4872 163.806Z" fill="black"/>
<path d="M81.8169 198.721C81.8169 198.721 112.098 206.185 142.404 173.71L115.558 169.638L81.8169 198.721Z" fill="black"/>
<path d="M155.938 196.433C155.938 196.433 201.121 203.931 230.085 168.753L205.006 169.629L155.938 196.433Z" fill="black"/>
</g>
<path opacity="0.16" d="M266.793 218.588C266.793 218.588 252.086 301.372 164.303 312.015C164.303 312.015 256.226 325.073 267.592 236.279L266.793 218.588Z" fill="black"/>
<path d="M126.524 163.806C126.524 163.806 103.52 203.124 76.2396 198.304C73.7658 197.862 71.5385 197.369 69.5577 196.842C49.7076 191.503 53.2441 182.041 53.2441 182.041C53.2441 182.041 69.8383 186.598 81.3233 165.353C81.5953 164.852 81.8589 164.342 82.1224 163.815H126.524V163.806Z" fill="#253B5A"/>
<path opacity="0.21" d="M74.3949 184.132C66.7524 188.808 63.6749 188.68 63.6749 188.68C63.6749 188.68 62.7398 192.565 69.5577 196.842C49.7076 191.503 53.2441 182.041 53.2441 182.041C53.2441 182.041 71.8445 185.05 83.3296 163.806C83.3466 164.095 81.9524 179.508 74.3949 184.132Z" fill="white"/>
<path d="M307.045 185.739C307.045 185.739 295.688 203.362 275.872 199.358C264.523 197.063 250.394 187.669 234.029 163.815L282.962 163.917C282.962 163.917 283.115 166.374 284.152 169.638C286.243 176.159 291.888 185.918 307.045 185.739Z" fill="#253B5A"/>
<path opacity="0.21" d="M307.045 185.739C307.045 185.739 295.688 203.362 275.872 199.358C278.133 198.712 280.326 197.785 282.426 196.74C286.66 194.623 290.621 191.996 294.829 189.828C290.154 189.607 285.988 186.156 284.152 181.846C282.86 178.802 281.958 173.727 283.438 170.59C283.633 170.174 283.888 169.859 284.169 169.646C286.243 176.158 291.888 185.918 307.045 185.739Z" fill="white"/>
<path d="M282.971 163.908C282.971 163.908 284.314 186.003 307.046 185.739C307.046 185.739 278.967 229.333 234.038 163.806L282.971 163.908Z" stroke="#0D2232" stroke-width="9" stroke-miterlimit="10" stroke-linecap="round" stroke-linejoin="round"/>
<path d="M211.297 163.806C211.297 163.806 200.866 192.157 155.938 196.433C155.938 196.433 163.691 182.526 163.691 163.806H211.297Z" fill="#253B5A" stroke="#0D2232" stroke-width="9" stroke-miterlimit="10" stroke-linecap="round" stroke-linejoin="round"/>
<path d="M126.524 163.806C126.524 163.806 103.52 203.124 76.2485 198.303C48.9769 193.483 53.2444 182.032 53.2444 182.032C53.2444 182.032 70.6292 186.801 82.1313 163.797H126.524V163.806Z" stroke="#0D2232" stroke-width="9" stroke-miterlimit="10" stroke-linecap="round" stroke-linejoin="round"/>
<path d="M269.521 236.32C269.521 236.32 267.2 280.679 224.941 304.482C182.682 328.286 137.49 311.164 115.557 289.503C93.6242 267.843 92.2896 234.824 92.2896 234.824" stroke="#0D2232" stroke-width="9" stroke-miterlimit="10"/>
<path d="M281.1 199.945C281.1 199.945 280.7 222.652 279.765 227.064C278.83 231.476 274.954 236.959 267.6 236.287C260.247 235.616 260.51 226.129 260.383 219.438C260.247 212.756 260.383 192.328 260.383 192.328C260.383 192.328 270.406 200.243 281.1 199.945Z" fill="#253B5A" stroke="#0D2232" stroke-width="9" stroke-miterlimit="10" stroke-linecap="round" stroke-linejoin="round"/>
<path d="M203.927 211.626C203.927 211.626 218.132 201.399 236.69 208.174" stroke="#0D2232" stroke-width="9" stroke-miterlimit="10" stroke-linecap="round" stroke-linejoin="round"/>
<path d="M149.171 194.512C149.171 194.512 130.452 187.61 116.247 200.965" stroke="#0D2232" stroke-width="9" stroke-miterlimit="10" stroke-linecap="round" stroke-linejoin="round"/>
<path d="M158.403 267.996C158.403 267.996 181.416 255.789 197.857 265.182" stroke="#0D2232" stroke-width="9" stroke-miterlimit="10" stroke-linecap="round" stroke-linejoin="round"/>
<path d="M165.718 316.339C164.724 320.181 162.801 323.884 160.963 327.376C157.407 334.133 153.02 340.245 148.168 346.128C144.612 350.425 141.181 354.699 138.418 359.491L131.81 357.121L98.0363 345C97.5752 342.361 96.8841 339.717 95.9367 337.055C93.6911 330.729 90.3641 324.734 88.8632 318.168C87.2802 311.225 89.1796 305.702 92.0571 299.524C94.7625 293.73 96.3667 287.874 95.7549 281.425C95.6509 280.324 95.1176 278.814 95.1802 277.725C95.2611 275.781 95.8122 274.13 97.0286 273.583C97.1394 273.535 97.2501 273.488 97.3746 273.452C97.3873 273.451 97.3873 273.451 97.3999 273.45C97.9115 273.318 98.5138 273.357 99.2236 273.617C99.4071 273.678 99.5917 273.752 99.791 273.85C105.497 276.563 104.316 286.755 103.405 291.598C102.875 294.42 102.66 297.357 101.687 300.076C101.863 300.201 102.122 300.243 102.345 300.174C102.533 300.133 102.7 299.992 102.771 299.769C105.18 292.406 107.824 284.948 111.619 278.158C113.793 274.256 117.79 270.508 122.368 273.302C126.301 275.69 127.202 280.102 126.598 284.333C126.526 284.848 125.109 289.427 126.791 288.357C128.003 287.593 128.954 281.55 129.793 280.295C131.459 277.799 134.205 276.028 137.282 276.856C142.549 278.28 143.596 283.98 142.048 288.518C141.648 289.685 139.367 292.768 141.51 293.24C142.871 293.522 143.944 292.018 144.799 291.259C146.034 290.163 147.406 289.195 148.89 288.485C151.869 287.066 155.318 286.856 157.929 289.137C160.072 290.998 160.495 293.64 159.732 296.278C159.337 297.661 158.682 298.978 157.957 300.223C157.299 301.361 156.129 302.465 155.734 303.696C154.398 307.86 158.205 303.975 161.555 305.494C162.96 306.142 164.311 306.91 165.152 308.14L165.151 308.127C165.196 308.2 165.252 308.272 165.309 308.343C165.366 308.415 165.411 308.488 165.455 308.561C166.747 310.926 166.355 313.877 165.718 316.339Z" fill="#FBC6A6"/>
<path opacity="0.16" d="M101.687 300.076C101.877 300.213 102.122 300.244 102.346 300.174C102.045 300.696 101.66 301.123 101.197 301.226C98.8832 301.762 100.316 294.607 100.505 293.661C100.799 292.133 101.207 290.608 101.373 289.065C101.599 286.879 101.392 284.539 101.021 282.377C100.447 279.137 99.1449 276.046 97.0414 273.582C97.7408 273.256 98.649 273.296 99.8165 273.849C105.522 276.561 104.328 286.742 103.417 291.584C102.875 294.42 102.66 297.357 101.687 300.076Z" fill="black"/>
<path opacity="0.16" d="M122.428 288.298C122.176 289.415 121.845 290.488 121.409 291.531C120.506 291.555 119.778 291.08 119.52 289.967C119.138 288.278 119.406 286.446 119.495 284.744C119.61 282.3 119.662 279.848 119.395 277.398C119.225 275.819 118.836 274.347 118.288 272.965C118.381 273.021 118.473 273.052 118.568 273.12C122.501 275.509 123.389 279.921 122.785 284.152C122.731 284.577 121.699 287.964 122.428 288.298Z" fill="black"/>
<path opacity="0.16" d="M138.507 294.229C137.796 295.639 136.959 297.072 135.943 298.342C135.741 298.371 135.553 298.399 135.336 298.405C133.985 298.402 133.721 297.06 133.601 295.923C133.222 292.437 134.327 288.853 134.395 285.368C134.449 282.802 134.152 280.137 133.17 277.835C133.667 277.832 134.168 277.88 134.677 278.016C139.943 279.427 140.99 285.139 139.441 289.665C139.072 290.741 137.117 293.452 138.507 294.229Z" fill="black"/>
<path opacity="0.16" d="M155.303 302.635C154.745 303.599 153.866 304.526 153.351 305.537C153.038 305.908 152.689 306.306 152.241 306.751C151.17 307.821 150.241 308.6 149.081 309.218C148.825 309.354 148.567 309.478 148.309 309.588C148.235 309.62 148.174 309.651 148.099 309.67C148.074 309.672 148.086 309.671 148.062 309.685C147.938 309.721 147.802 309.771 147.677 309.807C147.49 309.86 147.313 309.875 147.125 309.916C146.814 309.241 146.888 308.126 146.963 307.495C147.169 305.528 148.003 303.751 148.719 301.933C149.475 299.984 150.086 297.983 150.463 295.925C150.842 293.88 150.911 291.797 150.496 289.868C152.201 289.842 153.873 290.327 155.301 291.56C157.444 293.421 157.867 296.063 157.105 298.713C156.672 300.087 156.015 301.391 155.303 302.635Z" fill="black"/>
<path opacity="0.16" d="M165.718 316.339C164.724 320.181 162.801 323.884 160.962 327.376C157.406 334.133 153.019 340.245 148.167 346.128C144.611 350.425 141.181 354.699 138.418 359.491L131.81 357.121C135.751 351.314 140.274 345.929 144.951 340.698C150.223 334.805 156.108 329.244 160.261 322.463C163.024 317.977 164.652 313.177 165.151 308.127C165.195 308.2 165.252 308.272 165.309 308.343C165.366 308.415 165.41 308.488 165.454 308.561C166.747 310.926 166.355 313.877 165.718 316.339Z" fill="black"/>
<path d="M165.718 316.339C164.724 320.181 162.801 323.884 160.963 327.376C157.407 334.133 153.02 340.245 148.168 346.128C144.612 350.425 141.181 354.699 138.418 359.491L131.81 357.121L98.0363 345C97.5752 342.361 96.8841 339.717 95.9367 337.055C93.6911 330.729 90.3641 324.734 88.8632 318.168C87.2802 311.225 89.1796 305.702 92.0571 299.524C94.7625 293.73 96.3667 287.874 95.7549 281.425C95.6509 280.324 95.1176 278.814 95.1802 277.725C95.2611 275.781 95.8122 274.13 97.0286 273.583C97.1394 273.535 97.2501 273.488 97.3746 273.452C97.3873 273.451 97.3873 273.451 97.3999 273.45C97.9115 273.318 98.5138 273.357 99.2236 273.617C99.4071 273.678 99.5917 273.752 99.791 273.85C105.497 276.563 104.316 286.755 103.405 291.598C102.875 294.42 102.66 297.357 101.687 300.076C101.863 300.201 102.122 300.243 102.345 300.174C102.533 300.133 102.7 299.992 102.771 299.769C105.18 292.406 107.824 284.948 111.619 278.158C113.793 274.256 117.79 270.508 122.368 273.302C126.301 275.69 127.202 280.102 126.598 284.333C126.526 284.848 125.109 289.427 126.791 288.357C128.003 287.593 128.954 281.55 129.793 280.295C131.459 277.799 134.205 276.028 137.282 276.856C142.549 278.28 143.596 283.98 142.048 288.518C141.648 289.685 139.367 292.768 141.51 293.24C142.871 293.522 143.944 292.018 144.799 291.259C146.034 290.163 147.406 289.195 148.89 288.485C151.869 287.066 155.318 286.856 157.929 289.137C160.072 290.998 160.495 293.64 159.732 296.278C159.337 297.661 158.682 298.978 157.957 300.223C157.299 301.361 156.129 302.465 155.734 303.696C154.398 307.86 158.205 303.975 161.555 305.494C162.96 306.142 164.311 306.91 165.152 308.14L165.151 308.127C165.196 308.2 165.252 308.272 165.309 308.343C165.366 308.415 165.411 308.488 165.455 308.561C166.747 310.926 166.355 313.877 165.718 316.339Z" stroke="#0D2232" stroke-width="9" stroke-miterlimit="10" stroke-linecap="round" stroke-linejoin="round"/>
<path d="M233.665 32.6082C230.798 31.0905 228.837 28.8137 227.782 25.7779C226.837 22.7083 227.181 19.6323 228.812 16.5498C230.444 13.4673 232.756 11.5254 235.75 10.7239C238.853 9.88874 241.839 10.23 244.706 11.7477C247.645 13.3033 249.606 15.5801 250.589 18.578C251.61 21.5042 251.304 24.5085 249.673 27.591C248.041 30.6735 245.691 32.6871 242.621 33.6319C239.59 34.5051 236.604 34.1638 233.665 32.6082ZM261.807 47.5035C258.94 45.9858 256.979 43.709 255.924 40.6732C254.98 37.6036 255.323 34.5276 256.954 31.4451C258.586 28.3626 260.899 26.4207 263.892 25.6193C266.996 24.7841 269.981 25.1253 272.848 26.643C275.788 28.1987 277.748 30.4754 278.731 33.4733C279.752 36.3995 279.446 39.4039 277.815 42.4863C276.183 45.5688 273.833 47.5825 270.763 48.5273C267.732 49.4004 264.746 49.0591 261.807 47.5035ZM289.949 62.3988C287.082 60.8811 285.121 58.6044 284.067 55.5685C283.122 52.499 283.465 49.4229 285.097 46.3405C286.728 43.258 289.041 41.316 292.034 40.5146C295.138 39.6794 298.123 40.0207 300.991 41.5383C303.93 43.094 305.891 45.3707 306.873 48.3686C307.894 51.2949 307.589 54.2992 305.957 57.3817C304.326 60.4641 301.975 62.4778 298.905 63.4226C295.874 64.2957 292.888 63.9545 289.949 62.3988ZM318.092 77.2942C315.224 75.7765 313.263 73.4997 312.209 70.4639C311.264 67.3943 311.607 64.3183 313.239 61.2358C314.87 58.1533 317.183 56.2113 320.177 55.4099C323.28 54.5747 326.265 54.916 329.133 56.4337C332.072 57.9893 334.033 60.2661 335.016 63.264C336.036 66.1902 335.731 69.1945 334.099 72.277C332.468 75.3595 330.117 77.3731 327.048 78.3179C324.016 79.1911 321.031 78.8498 318.092 77.2942Z" fill="#253B5A"/>
<path d="M227.782 25.7779L224.915 26.6604C224.925 26.6945 224.937 26.7285 224.948 26.7622L227.782 25.7779ZM235.75 10.7239L236.526 13.6219L236.53 13.6208L235.75 10.7239ZM250.589 18.578L247.738 19.5125C247.744 19.5304 247.75 19.5482 247.756 19.566L250.589 18.578ZM242.621 33.6319L243.451 36.5148C243.469 36.5097 243.486 36.5045 243.504 36.4992L242.621 33.6319ZM235.068 29.9567C232.864 28.7901 231.419 27.1053 230.616 24.7936L224.948 26.7622C226.254 30.5222 228.731 33.3909 232.262 35.2597L235.068 29.9567ZM230.649 24.8953C229.96 22.6553 230.169 20.3991 231.464 17.9532L226.161 15.1464C224.192 18.8655 223.715 22.7613 224.915 26.6604L230.649 24.8953ZM231.464 17.9532C232.759 15.5059 234.443 14.1794 236.526 13.6219L234.974 7.82597C231.07 8.8713 228.129 11.4287 226.161 15.1464L231.464 17.9532ZM236.53 13.6208C238.893 12.9849 241.099 13.2326 243.303 14.3992L246.11 9.09619C242.579 7.22738 238.814 6.7926 234.97 7.827L236.53 13.6208ZM243.303 14.3992C245.596 15.6132 247.012 17.2957 247.738 19.5125L253.44 17.6435C252.201 13.8645 249.694 10.9935 246.11 9.09619L243.303 14.3992ZM247.756 19.566C248.466 21.6018 248.317 23.7403 247.021 26.1876L252.324 28.9944C254.292 25.2767 254.753 21.4066 253.422 17.5899L247.756 19.566ZM247.021 26.1876C245.727 28.6335 243.979 30.0752 241.739 30.7647L243.504 36.4992C247.403 35.299 250.356 32.7135 252.324 28.9944L247.021 26.1876ZM241.791 30.7491C239.549 31.3948 237.362 31.1707 235.068 29.9567L232.262 35.2597C235.846 37.157 239.63 37.6154 243.451 36.5148L241.791 30.7491ZM255.924 40.6732L253.057 41.5557C253.068 41.5899 253.079 41.6238 253.09 41.6575L255.924 40.6732ZM263.892 25.6193L264.668 28.5172L264.672 28.5162L263.892 25.6193ZM278.731 33.4733L275.88 34.4078C275.886 34.4257 275.892 34.4436 275.899 34.4614L278.731 33.4733ZM270.763 48.5273L271.594 51.4101C271.611 51.4051 271.628 51.3999 271.646 51.3945L270.763 48.5273ZM263.211 44.852C261.007 43.6854 259.561 42.0006 258.758 39.6889L253.09 41.6575C254.396 45.4175 256.873 48.2862 260.404 50.155L263.211 44.852ZM258.792 39.7907C258.102 37.5507 258.311 35.2944 259.606 32.8485L254.303 30.0417C252.335 33.7608 251.857 37.6566 253.057 41.5557L258.792 39.7907ZM259.606 32.8485C260.901 30.4013 262.585 29.0748 264.668 28.5172L263.116 22.7213C259.212 23.7666 256.271 26.324 254.303 30.0417L259.606 32.8485ZM264.672 28.5162C267.035 27.8802 269.241 28.1279 271.445 29.2945L274.252 23.9915C270.721 22.1227 266.956 21.6879 263.113 22.7223L264.672 28.5162ZM271.445 29.2945C273.739 30.5085 275.154 32.191 275.88 34.4078L281.582 32.5388C280.343 28.7598 277.836 25.8888 274.252 23.9915L271.445 29.2945ZM275.899 34.4614C276.609 36.4971 276.459 38.6357 275.163 41.0829L280.466 43.8898C282.434 40.1721 282.895 36.302 281.564 32.4853L275.899 34.4614ZM275.163 41.0829C273.869 43.5288 272.121 44.9706 269.881 45.66L271.646 51.3945C275.545 50.1944 278.498 47.6088 280.466 43.8898L275.163 41.0829ZM269.933 45.6444C267.691 46.2901 265.504 46.066 263.211 44.852L260.404 50.155C263.988 52.0523 267.772 52.5107 271.594 51.4101L269.933 45.6444ZM284.067 55.5685L281.199 56.4511C281.21 56.4852 281.221 56.5191 281.233 56.5528L284.067 55.5685ZM292.034 40.5146L292.81 43.4125L292.814 43.4115L292.034 40.5146ZM306.873 48.3686L304.023 49.3032C304.028 49.3211 304.035 49.3389 304.041 49.3567L306.873 48.3686ZM298.905 63.4226L299.736 66.3054C299.753 66.3004 299.771 66.2952 299.788 66.2899L298.905 63.4226ZM291.353 59.7473C289.149 58.5808 287.703 56.8959 286.9 54.5842L281.233 56.5528C282.539 60.3128 285.015 63.1815 288.546 65.0503L291.353 59.7473ZM286.934 54.686C286.244 52.446 286.454 50.1897 287.748 47.7439L282.445 44.937C280.477 48.6561 279.999 52.5519 281.199 56.4511L286.934 54.686ZM287.748 47.7439C289.043 45.2966 290.728 43.9701 292.81 43.4125L291.259 37.6166C287.354 38.662 284.413 41.2194 282.445 44.937L287.748 47.7439ZM292.814 43.4115C295.177 42.7755 297.383 43.0233 299.587 44.1898L302.394 38.8869C298.863 37.018 295.098 36.5833 291.255 37.6177L292.814 43.4115ZM299.587 44.1898C301.881 45.4038 303.296 47.0863 304.023 49.3032L309.724 47.4341C308.485 43.6552 305.979 40.7841 302.394 38.8869L299.587 44.1898ZM304.041 49.3567C304.751 51.3924 304.601 53.531 303.306 55.9783L308.609 58.7851C310.576 55.0674 311.037 51.1973 309.706 47.3806L304.041 49.3567ZM303.306 55.9783C302.011 58.4241 300.263 59.8659 298.023 60.5553L299.788 66.2899C303.687 65.0897 306.64 62.5042 308.609 58.7851L303.306 55.9783ZM298.075 60.5398C295.833 61.1854 293.646 60.9613 291.353 59.7473L288.546 65.0503C292.131 66.9476 295.914 67.406 299.736 66.3054L298.075 60.5398ZM312.209 70.4639L309.341 71.3464C309.352 71.3805 309.363 71.4145 309.375 71.4482L312.209 70.4639ZM320.177 55.4099L320.952 58.3079L320.956 58.3068L320.177 55.4099ZM335.016 63.264L332.165 64.1985C332.171 64.2164 332.177 64.2342 332.183 64.252L335.016 63.264ZM327.048 78.3179L327.878 81.2008C327.895 81.1957 327.913 81.1905 327.93 81.1852L327.048 78.3179ZM319.495 74.6427C317.291 73.4761 315.846 71.7912 315.043 69.4796L309.375 71.4482C310.681 75.2082 313.157 78.0768 316.688 79.9457L319.495 74.6427ZM315.076 69.5813C314.387 67.3413 314.596 65.0851 315.89 62.6392L310.587 59.8324C308.619 63.5515 308.141 67.4472 309.341 71.3464L315.076 69.5813ZM315.89 62.6392C317.186 60.1919 318.87 58.8654 320.952 58.3079L319.401 52.512C315.496 53.5573 312.555 56.1147 310.587 59.8324L315.89 62.6392ZM320.956 58.3068C323.319 57.6709 325.525 57.9186 327.729 59.0852L330.536 53.7822C327.005 51.9134 323.241 51.4786 319.397 52.513L320.956 58.3068ZM327.729 59.0852C330.023 60.2992 331.438 61.9817 332.165 64.1985L337.866 62.3295C336.627 58.5505 334.121 55.6795 330.536 53.7822L327.729 59.0852ZM332.183 64.252C332.893 66.2877 332.743 68.4263 331.448 70.8736L336.751 73.6804C338.719 69.9627 339.179 66.0926 337.848 62.2759L332.183 64.252ZM331.448 70.8736C330.153 73.3195 328.405 74.7612 326.165 75.4507L327.93 81.1852C331.829 79.985 334.782 77.3995 336.751 73.6804L331.448 70.8736ZM326.217 75.4351C323.976 76.0807 321.789 75.8566 319.495 74.6427L316.688 79.9457C320.273 81.843 324.056 82.3014 327.878 81.2008L326.217 75.4351Z" fill="#0D2232"/>
</g>
<defs>
<clipPath id="clip0_509_221">
<rect width="360" height="360" fill="white"/>
</clipPath>
</defs>
</svg>
