<svg width="360" height="360" viewBox="0 0 360 360" fill="none" xmlns="http://www.w3.org/2000/svg">
<path d="M301.987 167.189C301.987 167.189 296.866 171.771 274.241 173.655C251.607 175.539 92.3581 180.326 92.3581 180.326L82.5528 175.539C82.5528 175.539 60.0219 174.297 56.8277 167.189C53.6334 160.082 133.96 131.899 133.96 131.899L235.447 128.799L258.621 138.022L301.987 167.189Z" fill="#CFB300"/>
<path d="M301.987 167.189C301.987 167.189 296.866 171.771 274.241 173.655C251.607 175.539 92.3581 180.326 92.3581 180.326L82.5528 175.539C82.5528 175.539 60.0219 174.297 56.8277 167.189C53.6334 160.082 133.96 131.899 133.96 131.899L235.447 128.799L258.621 138.022L301.987 167.189Z" stroke="#0D2232" stroke-width="9" stroke-miterlimit="10" stroke-linecap="round" stroke-linejoin="round"/>
<path d="M83.4431 208.954C83.4431 208.954 57.5896 212.054 60.8181 241.958C64.0551 271.862 101.29 265.619 101.29 265.619L98.0869 222.69L83.4431 208.954Z" fill="#FBC6A6" stroke="#0D2232" stroke-width="9" stroke-miterlimit="10"/>
<path d="M281.776 208.954C281.776 208.954 301.447 212.191 302.928 234.011C304.41 255.831 280.14 275.108 261.155 267.486C242.169 259.865 256.179 227.272 256.179 227.272L281.776 208.954Z" fill="#FBC6A6" stroke="#0D2232" stroke-width="9" stroke-miterlimit="10"/>
<path opacity="0.4" d="M280.029 221.885C280.029 221.885 290.246 227.297 285.887 239.064C279.79 255.549 267.364 250.976 267.364 250.976L271.132 230.5L280.029 221.885Z" fill="black"/>
<path opacity="0.4" d="M79.6921 221.885C79.6921 221.885 69.4758 227.297 73.8346 239.064C79.9319 255.549 92.3577 250.976 92.3577 250.976L88.5897 230.5L79.6921 221.885Z" fill="black"/>
<path d="M270.104 212.182V236.734C270.104 236.734 269.881 240.99 268.323 247.576C264.829 262.34 254.63 288.818 225.196 305.397C221.009 307.752 216.796 309.713 212.574 311.306C200.311 315.939 188.03 317.506 176.324 316.855C151.104 315.451 128.616 303.745 115.008 290.308C92.9143 268.488 91.5698 235.227 91.5698 235.227V188.744L117.706 157.221L251.941 158.84L268.485 178.236L270.104 212.182Z" fill="#FBC6A6"/>
<path opacity="0.5" d="M131.81 293.769C149.211 306.323 165.525 312.737 178.045 316.008C152.825 314.604 130.337 302.897 116.73 289.461C94.6355 267.641 93.291 234.38 93.291 234.38V226.159L100.536 220.49C100.536 220.49 94.096 266.553 131.81 293.769Z" fill="white"/>
<path opacity="0.5" d="M265.753 247.576C262.26 262.34 252.06 288.818 222.627 305.398C218.44 307.753 214.226 309.714 210.004 311.306C224.982 299.634 249.363 278.114 256.839 256.722C259.382 249.486 262.482 247.028 265.753 247.576Z" fill="white"/>
<path d="M301.986 167.19C301.986 167.19 292.558 163.687 279.892 163.687C267.227 163.687 78.7843 163.687 78.7843 163.687C78.7843 163.687 61.6742 163.01 56.8271 167.19V155.474C56.8271 150.936 60.5095 147.253 65.0482 147.253H293.774C298.312 147.253 301.995 150.936 301.995 155.474V167.19H301.986Z" fill="#F9DC1B"/>
<path d="M288.944 147.254C288.944 147.348 288.944 147.391 288.944 147.391H179.295V147.254H69.6381C69.6381 147.254 69.6381 147.228 69.6381 147.185C69.6039 146.286 69.2528 137.346 69.6381 133.252C70.0406 128.936 73.5431 128.808 73.5431 128.808C73.5431 128.808 79.6062 75.0624 140.759 57.2843C140.759 57.2843 140.219 46.5027 150.187 45.4323C160.155 44.3533 179.287 43.0088 179.287 43.0088V43.1458C179.287 43.1458 198.409 44.4903 208.377 45.5693C218.345 46.6483 217.806 57.4213 217.806 57.4213C278.958 75.1994 285.022 128.945 285.022 128.945C285.022 128.945 288.524 129.082 288.927 133.389C289.312 137.388 288.995 146.063 288.944 147.254Z" fill="#F9DC1B"/>
<path opacity="0.73" d="M288.944 147.253H279.627C279.627 147.253 274.908 92.2921 217.934 64.8115L217.9 58.5943C217.9 58.5943 173.224 44.6014 140.665 59.6905L141.076 68.5881C141.076 68.5881 90.5079 82.5896 78.1163 146.979L69.6469 147.176C69.6127 146.277 69.2616 137.337 69.6469 133.243C70.0494 128.927 73.5519 128.799 73.5519 128.799C73.5519 128.799 79.6149 75.0536 140.768 57.2755C140.768 57.2755 140.228 46.494 150.196 45.4235C160.164 44.3445 179.295 43 179.295 43V43.137C179.295 43.137 198.418 44.4815 208.386 45.5605C218.354 46.6395 217.815 57.4126 217.815 57.4126C278.967 75.1906 285.03 128.936 285.03 128.936C285.03 128.936 288.533 129.073 288.935 133.38C289.312 137.388 288.995 146.063 288.944 147.253Z" fill="white"/>
<path d="M288.935 133.38C288.533 129.073 285.03 128.936 285.03 128.936C285.03 128.936 278.967 75.1906 217.815 57.4126C217.815 57.4126 218.354 46.6395 208.386 45.5605C198.418 44.4815 179.287 43.137 179.287 43.137V43C179.287 43 160.156 44.3445 150.188 45.4235C140.22 46.5025 140.759 57.2755 140.759 57.2755C79.6064 75.0536 73.5434 128.799 73.5434 128.799C73.5434 128.799 70.0408 128.936 69.6384 133.243C69.2359 137.551 69.6384 147.253 69.6384 147.253H179.287V147.39H288.935C288.935 147.39 289.346 137.696 288.935 133.38Z" stroke="#0D2232" stroke-width="9" stroke-miterlimit="10" stroke-linecap="round" stroke-linejoin="round"/>
<path d="M217.815 57.4121C217.815 57.4121 218.757 66.4382 215.117 84.8927Z" fill="#F9DC1B"/>
<path d="M217.815 57.4121C217.815 57.4121 218.757 66.4382 215.117 84.8927" stroke="#0D2232" stroke-width="9" stroke-miterlimit="10" stroke-linecap="round" stroke-linejoin="round"/>
<path d="M285.03 128.936H257.258C254.321 128.936 251.94 131.317 251.94 134.254V147.391" stroke="#0D2232" stroke-width="9" stroke-miterlimit="10" stroke-linecap="round" stroke-linejoin="round"/>
<path d="M140.768 57.2754C140.768 57.2754 139.826 66.3014 143.465 84.756Z" fill="#F9DC1B"/>
<path d="M140.768 57.2754C140.768 57.2754 139.826 66.3014 143.465 84.756" stroke="#0D2232" stroke-width="9" stroke-miterlimit="10" stroke-linecap="round" stroke-linejoin="round"/>
<path d="M73.5522 128.799H101.324C104.261 128.799 106.642 131.18 106.642 134.117V147.253" stroke="#0D2232" stroke-width="9" stroke-miterlimit="10" stroke-linecap="round" stroke-linejoin="round"/>
<path opacity="0.74" d="M290.528 155.295C284.996 153.188 278.916 153.231 273.007 153.291C229.804 153.753 186.6 154.207 143.397 154.669C124.197 154.875 105.006 155.08 85.8064 155.286C77.2856 155.38 67.7287 155.911 61.991 162.197C60.8606 163.439 59.756 164.963 58.0946 165.211C55.5598 165.597 53.6843 162.651 53.633 160.09C53.5302 155.286 57.2297 151.047 61.5971 149.026C65.9646 147.014 70.9143 146.774 75.7185 146.611C146.882 144.188 218.251 151.098 289.261 145.849C293.363 145.549 298.21 145.523 300.667 148.829C302.021 150.653 302.243 153.059 302.423 155.329C302.594 157.615 304.461 166.145 299.862 162.882C298.372 161.829 297.345 159.525 295.803 158.292C294.228 157.033 292.421 155.954 290.528 155.295Z" fill="white"/>
<path d="M301.986 167.19C301.986 167.19 292.558 163.687 279.892 163.687C267.227 163.687 78.7843 163.687 78.7843 163.687C78.7843 163.687 61.6742 163.01 56.8271 167.19V155.474C56.8271 150.936 60.5095 147.253 65.0482 147.253H293.774C298.312 147.253 301.995 150.936 301.995 155.474V167.19H301.986Z" stroke="#0D2232" stroke-width="9" stroke-miterlimit="10" stroke-linecap="round" stroke-linejoin="round"/>
<path d="M98.7891 192.88C98.7891 192.88 98.3266 217.706 98.7891 224.848C99.2515 231.99 94.4045 238.456 86.997 233.472C79.5894 228.488 81.0281 198.858 81.0281 198.858C81.0281 198.858 88.7182 199.209 98.7891 192.88Z" fill="#253B5A" stroke="#0D2232" stroke-width="9" stroke-miterlimit="10"/>
<path d="M139.415 232.607C147.001 232.607 153.151 226.457 153.151 218.871C153.151 211.285 147.001 205.135 139.415 205.135C131.829 205.135 125.679 211.285 125.679 218.871C125.679 226.457 131.829 232.607 139.415 232.607Z" fill="#0D2232"/>
<path d="M220.623 232.607C228.209 232.607 234.359 226.457 234.359 218.871C234.359 211.285 228.209 205.135 220.623 205.135C213.037 205.135 206.887 211.285 206.887 218.871C206.887 226.457 213.037 232.607 220.623 232.607Z" fill="#0D2232"/>
<path d="M238.487 194.687C237.382 194.687 236.278 194.31 235.379 193.531C234.959 193.18 225.727 185.507 212.197 187.622C209.594 188.033 207.153 186.252 206.75 183.649C206.339 181.045 208.121 178.605 210.724 178.202C228.785 175.376 241.108 185.867 241.621 186.321C243.608 188.05 243.822 191.065 242.092 193.052C241.15 194.131 239.823 194.687 238.487 194.687Z" fill="#0D2232"/>
<path d="M121.954 194.687C123.058 194.687 124.163 194.31 125.062 193.531C125.482 193.18 134.713 185.507 148.244 187.622C150.847 188.033 153.288 186.252 153.69 183.649C154.101 181.045 152.32 178.605 149.717 178.202C131.656 175.376 119.333 185.867 118.819 186.321C116.833 188.05 116.618 191.065 118.348 193.052C119.29 194.131 120.618 194.687 121.954 194.687Z" fill="#0D2232"/>
<path d="M222.524 259.496C218.936 266.082 213.661 273.25 206.125 278.525C199.471 283.183 191.053 286.36 180.477 286.36C168.942 286.36 160.01 282.575 153.142 277.223C146.557 272.094 141.872 265.508 138.61 259.428C135.758 254.093 137.462 248.013 141.633 244.63C143.636 243.003 146.206 242.001 149.109 242.001H212.068C214.971 242.001 217.54 243.003 219.544 244.63C223.732 248.03 225.436 254.161 222.524 259.496Z" fill="#162336"/>
<path d="M205.132 256.73C191.619 256.73 151.027 256.73 151.027 256.73C151.027 256.73 140.211 257.141 141.642 244.63C143.645 243.003 146.214 242.001 149.118 242.001H212.077C214.98 242.001 217.549 243.003 219.553 244.63C219.699 244.758 218.637 256.73 205.132 256.73Z" fill="white"/>
<path d="M206.133 278.524C199.48 283.183 191.061 286.36 180.485 286.36C168.95 286.36 160.018 282.575 153.15 277.223C157.201 268.308 172.196 265.328 187.311 266.159C198.949 266.792 204.001 273.669 206.133 278.524Z" fill="#DD1010"/>
<path d="M149.109 242.001H212.068C221.052 242.001 226.824 251.609 222.525 259.496C215.759 271.905 203.034 286.36 180.477 286.36C157.878 286.36 145.272 271.854 138.61 259.428C134.388 251.541 140.16 242.001 149.109 242.001Z" stroke="#0D2232" stroke-width="9" stroke-miterlimit="10"/>
<g opacity="0.16">
<path d="M97.8213 163.687H270.104L274.232 173.655H92.3491L97.8213 163.687Z" fill="black"/>
<path d="M81.0278 198.858C81.0278 198.858 111.531 206.376 142.061 173.664L115.017 169.562L81.0278 198.858Z" fill="black"/>
<path d="M155.694 196.554C155.694 196.554 201.21 204.107 230.386 168.671L205.123 169.553L155.694 196.554Z" fill="black"/>
</g>
<path opacity="0.16" d="M267.363 218.871C267.363 218.871 252.548 302.263 164.121 312.985C164.121 312.985 256.719 326.138 268.168 236.691L267.363 218.871Z" fill="black"/>
<path d="M126.064 163.687C126.064 163.687 102.891 203.294 75.4104 198.438C72.9184 197.993 70.6748 197.496 68.6794 196.965C48.6834 191.587 52.2459 182.056 52.2459 182.056C52.2459 182.056 68.962 186.646 80.5315 165.246C80.8055 164.74 81.071 164.227 81.3365 163.696H126.064V163.687Z" fill="#253B5A"/>
<path opacity="0.21" d="M73.5521 184.163C65.8534 188.873 62.7534 188.744 62.7534 188.744C62.7534 188.744 61.8114 192.658 68.6794 196.965C48.6834 191.587 52.2459 182.056 52.2459 182.056C52.2459 182.056 70.9831 185.087 82.5525 163.687C82.5696 163.978 81.1652 179.504 73.5521 184.163Z" fill="white"/>
<path d="M307.912 185.781C307.912 185.781 296.471 203.533 276.509 199.5C265.077 197.188 250.844 187.725 234.359 163.695L283.652 163.798C283.652 163.798 283.806 166.273 284.85 169.561C286.957 176.13 292.643 185.961 307.912 185.781Z" fill="#253B5A"/>
<path opacity="0.21" d="M307.913 185.781C307.913 185.781 296.472 203.533 276.51 199.5C278.788 198.849 280.997 197.915 283.112 196.862C287.377 194.73 291.368 192.084 295.607 189.9C290.897 189.677 286.7 186.2 284.851 181.859C283.549 178.793 282.641 173.68 284.131 170.52C284.328 170.101 284.585 169.784 284.868 169.57C286.957 176.13 292.644 185.961 307.913 185.781Z" fill="white"/>
<path d="M283.66 163.79C283.66 163.79 285.013 186.047 307.912 185.781C307.912 185.781 279.627 229.695 234.368 163.687L283.66 163.79Z" stroke="#0D2232" stroke-width="9" stroke-miterlimit="10" stroke-linecap="round" stroke-linejoin="round"/>
<path d="M211.461 163.687C211.461 163.687 200.953 192.247 155.694 196.554C155.694 196.554 163.504 182.544 163.504 163.687H211.461Z" fill="#253B5A" stroke="#0D2232" stroke-width="9" stroke-miterlimit="10" stroke-linecap="round" stroke-linejoin="round"/>
<path d="M126.064 163.687C126.064 163.687 102.891 203.293 75.4189 198.438C47.9468 193.582 52.2457 182.047 52.2457 182.047C52.2457 182.047 69.7583 186.851 81.3449 163.678H126.064V163.687Z" stroke="#0D2232" stroke-width="9" stroke-miterlimit="10" stroke-linecap="round" stroke-linejoin="round"/>
<path d="M270.104 236.735C270.104 236.735 267.766 281.42 225.196 305.398C182.627 329.376 137.103 312.129 115.008 290.309C92.9143 268.489 91.5698 235.228 91.5698 235.228" stroke="#0D2232" stroke-width="9" stroke-miterlimit="10"/>
<path d="M281.776 200.091C281.776 200.091 281.374 222.964 280.432 227.409C279.49 231.853 275.585 237.377 268.177 236.7C260.77 236.024 261.035 226.467 260.907 219.727C260.77 212.996 260.907 192.418 260.907 192.418C260.907 192.418 270.995 200.391 281.776 200.091Z" fill="#253B5A" stroke="#0D2232" stroke-width="9" stroke-miterlimit="10" stroke-linecap="round" stroke-linejoin="round"/>
<path d="M99.7605 293.73C99.7605 293.73 108.991 303.76 103.331 316.55C103.331 316.55 101.02 325.57 86.7605 325.57H58.1305C54.1305 325.57 50.3805 324.51 47.1405 322.65C40.4905 318.84 36.0005 311.66 36.0005 303.45L36.0005 266.95C36.0005 254.73 45.9105 244.83 58.1305 244.83H89.0605C89.0605 244.83 104.79 244.41 106.47 257.41C106.47 257.41 109.19 267.69 100.18 270.62C100.18 270.61 116.12 282.65 99.7605 293.73Z" fill="#FBC6A6"/>
<path opacity="0.5" d="M106.47 257.4C106.47 257.4 100.39 253.63 83.82 253.63C67.25 253.63 63.06 253.63 63.06 253.63C63.06 253.63 46.91 252.37 47.12 266.84C47.28 278.04 47.19 309.15 47.14 322.64C40.49 318.83 36 311.65 36 303.44L36 266.94C36 254.72 45.91 244.82 58.13 244.82H89.06C89.07 244.82 104.79 244.39 106.47 257.4Z" fill="white"/>
<path d="M99.76 293.73C99.76 293.73 108.99 303.76 103.33 316.55C103.33 316.55 101.02 325.57 86.76 325.57H58.13C45.91 325.57 36 315.66 36 303.44L36 266.95C36 254.73 45.91 244.82 58.13 244.82H89.07C89.07 244.82 104.8 244.4 106.48 257.4C106.48 257.4 109.21 267.68 100.19 270.61C100.18 270.61 116.12 282.65 99.76 293.73Z" stroke="#0D2232" stroke-width="9" stroke-miterlimit="10" stroke-linecap="round" stroke-linejoin="round"/>
<path d="M64.3208 270.56H100.181" stroke="#0D2232" stroke-width="9" stroke-miterlimit="10" stroke-linecap="round" stroke-linejoin="round"/>
<path d="M64.3203 293.73H100.18" stroke="#0D2232" stroke-width="9" stroke-miterlimit="10" stroke-linecap="round" stroke-linejoin="round"/>
<path d="M92.0298 245.01V225.74C92.0298 217.04 84.9798 210 76.2898 210C67.5898 210 60.5498 217.05 60.5498 225.74V244.81L92.0298 245.01Z" fill="#FBC6A6"/>
<path d="M92.0298 245.01V225.74C92.0298 217.04 84.9798 210 76.2898 210C67.5898 210 60.5498 217.05 60.5498 225.74V244.81L92.0298 245.01Z" stroke="#0D2232" stroke-width="9" stroke-miterlimit="10" stroke-linecap="round" stroke-linejoin="round"/>
<path d="M262.058 294.73C262.058 294.73 253.233 304.76 258.644 317.55C258.644 317.55 260.853 326.57 274.488 326.57L301.862 326.57C305.687 326.57 309.273 325.51 312.37 323.65C318.729 319.84 323.022 312.66 323.022 304.45L323.022 267.95C323.022 255.73 313.547 245.83 301.862 245.83L272.289 245.83C272.289 245.83 257.248 245.41 255.642 258.41C255.642 258.41 253.041 268.69 261.656 271.62C261.656 271.61 246.415 283.65 262.058 294.73Z" fill="#FBC6A6"/>
<path opacity="0.5" d="M255.643 258.4C255.643 258.4 261.456 254.63 277.299 254.63C293.143 254.63 297.149 254.63 297.149 254.63C297.149 254.63 312.591 253.37 312.39 267.84C312.237 279.04 312.323 310.15 312.371 323.64C318.729 319.83 323.022 312.65 323.022 304.44L323.022 267.94C323.022 255.72 313.547 245.82 301.863 245.82L272.289 245.82C272.28 245.82 257.249 245.39 255.643 258.4Z" fill="white"/>
<path d="M262.058 294.73C262.058 294.73 253.233 304.76 258.645 317.55C258.645 317.55 260.854 326.57 274.488 326.57L301.863 326.57C313.547 326.57 323.022 316.66 323.022 304.44L323.022 267.95C323.022 255.73 313.547 245.82 301.863 245.82L272.28 245.82C272.28 245.82 257.239 245.4 255.633 258.4C255.633 258.4 253.023 268.68 261.647 271.61C261.657 271.61 246.416 283.65 262.058 294.73Z" stroke="#0D2232" stroke-width="9" stroke-miterlimit="10" stroke-linecap="round" stroke-linejoin="round"/>
<path d="M295.944 271.56L261.656 271.56" stroke="#0D2232" stroke-width="9" stroke-miterlimit="10" stroke-linecap="round" stroke-linejoin="round"/>
<path d="M295.944 294.73L261.656 294.73" stroke="#0D2232" stroke-width="9" stroke-miterlimit="10" stroke-linecap="round" stroke-linejoin="round"/>
<path d="M269.45 246.01L269.45 226.74C269.45 218.04 276.191 211 284.5 211C292.818 211 299.549 218.05 299.549 226.74L299.549 245.81L269.45 246.01Z" fill="#FBC6A6"/>
<path d="M269.45 246.01L269.45 226.74C269.45 218.04 276.191 211 284.5 211C292.818 211 299.549 218.05 299.549 226.74L299.549 245.81L269.45 246.01Z" stroke="#0D2232" stroke-width="9" stroke-miterlimit="10" stroke-linecap="round" stroke-linejoin="round"/>
</svg>
