<svg width="360" height="360" viewBox="0 0 360 360" fill="none" xmlns="http://www.w3.org/2000/svg">
<path d="M294.513 136.042C294.513 136.042 290.752 141.793 269.386 149.469C248.011 157.146 95.4273 202.987 95.4273 202.987L84.7171 200.901C84.7171 200.901 62.6325 205.533 57.7075 199.494C52.7825 193.455 123.078 145.443 123.078 145.443L220.305 116.181L245.075 119.092L294.513 136.042Z" fill="#CFB300"/>
<path d="M294.513 136.042C294.513 136.042 290.752 141.793 269.386 149.469C248.011 157.146 95.4273 202.987 95.4273 202.987L84.7171 200.901C84.7171 200.901 62.6325 205.533 57.7075 199.494C52.7825 193.455 123.078 145.443 123.078 145.443L220.305 116.181L245.075 119.092L294.513 136.042Z" stroke="#0D2232" stroke-width="9" stroke-miterlimit="10" stroke-linecap="round" stroke-linejoin="round"/>
<path d="M94.2257 232.947C94.2257 232.947 70.0554 242.633 80.9137 270.683C91.7802 298.73 126.13 283.063 126.13 283.063L111.926 242.425L94.2257 232.947Z" fill="#FBC6A6" stroke="#0D2232" stroke-width="9" stroke-miterlimit="10"/>
<path d="M285.801 181.615C285.801 181.615 305.639 179.651 312.717 200.344C319.796 221.037 301.343 245.938 281.031 243.49C260.72 241.042 265.817 205.933 265.817 205.933L285.801 181.615Z" fill="#FBC6A6" stroke="#0D2232" stroke-width="9" stroke-miterlimit="10"/>
<path opacity="0.4" d="M287.46 194.557C287.46 194.557 298.729 197.141 297.564 209.635C295.941 227.136 282.755 225.935 282.755 225.935L281.095 205.182L287.46 194.557Z" fill="black"/>
<path opacity="0.4" d="M93.9493 246.408C93.9493 246.408 85.4818 254.28 92.7376 264.518C102.894 278.863 113.713 271.23 113.713 271.23L104.773 252.427L93.9493 246.408Z" fill="black"/>
<path d="M275.362 187.754L281.716 211.469C281.716 211.469 282.603 215.638 282.802 222.402C283.248 237.567 280.249 265.784 256.11 289.416C252.675 292.774 249.113 295.759 245.447 298.39C234.801 306.039 223.345 310.731 211.869 313.132C187.145 318.303 162.393 312.816 145.771 303.359C118.783 288.001 108.875 256.221 108.875 256.221L96.8447 211.322L113.932 174.109L244.011 140.93L265.013 155.383L275.362 187.754Z" fill="#FBC6A6"/>
<path opacity="0.5" d="M162.896 302.353C182.954 309.976 200.372 311.949 213.312 311.868C188.588 317.039 163.836 311.552 147.215 302.095C120.226 286.737 110.319 254.957 110.319 254.957L108.191 247.016L113.722 239.665C113.722 239.665 119.423 285.826 162.896 302.353Z" fill="white"/>
<path opacity="0.5" d="M280.32 223.068C280.766 238.233 277.768 266.449 253.629 290.081C250.193 293.44 246.631 296.424 242.965 299.056C254.412 283.905 272.392 256.808 274.076 234.21C274.66 226.562 277.019 223.385 280.32 223.068Z" fill="white"/>
<path d="M294.513 136.042C294.513 136.042 284.499 135.099 272.265 138.377C260.031 141.656 78.0096 190.428 78.0096 190.428C78.0096 190.428 61.3074 194.203 57.7072 199.494L54.6751 188.178C53.5004 183.794 56.1042 179.284 60.4883 178.11L281.42 118.911C285.804 117.736 290.314 120.34 291.489 124.724L294.521 136.04L294.513 136.042Z" fill="#F9DC1B"/>
<path d="M276.755 120.161C276.779 120.252 276.79 120.294 276.79 120.294L170.878 148.673L170.843 148.54L64.9221 176.922C64.9221 176.922 64.9155 176.897 64.9044 176.856C64.6386 175.996 61.9855 167.451 61.2983 163.397C60.57 159.124 63.9199 158.094 63.9199 158.094C63.9199 158.094 55.8661 104.61 110.334 71.6107C110.334 71.6107 107.022 61.3361 116.374 57.7222C125.723 54.1001 143.854 47.8499 143.854 47.8499L143.889 47.9822C143.889 47.9822 162.708 44.3316 172.616 42.794C182.524 41.2563 184.791 51.8019 184.791 51.8019C248.461 53.1467 268.228 103.491 268.228 103.491C268.228 103.491 271.646 102.717 273.15 106.774C274.557 110.537 276.497 118.998 276.755 120.161Z" fill="#F9DC1B"/>
<path opacity="0.73" d="M276.755 120.161L267.755 122.573C267.755 122.573 248.972 70.7053 186.827 58.907L185.185 52.9105C185.185 52.9105 138.409 50.9574 110.865 73.9592L113.565 82.4473C113.565 82.4473 68.3441 109.06 73.0401 174.463L64.9103 176.845C64.6445 175.985 61.9914 167.44 61.3041 163.387C60.5758 159.113 63.9258 158.083 63.9258 158.083C63.9258 158.083 55.8719 104.6 110.34 71.6C110.34 71.6 107.028 61.3254 116.379 57.7115C125.728 54.0893 143.86 47.8392 143.86 47.8392L143.895 47.9715C143.895 47.9715 162.714 44.3209 172.622 42.7832C182.529 41.2456 184.797 51.7911 184.797 51.7911C248.467 53.1359 268.234 103.481 268.234 103.481C268.234 103.481 271.652 102.706 273.156 106.763C274.557 110.537 276.496 118.998 276.755 120.161Z" fill="white"/>
<path d="M273.156 106.763C271.653 102.707 268.234 103.481 268.234 103.481C268.234 103.481 248.467 53.1362 184.797 51.7914C184.797 51.7914 182.53 41.2459 172.622 42.7835C162.714 44.3212 143.887 47.974 143.887 47.974L143.852 47.8417C143.852 47.8417 125.72 54.0919 116.371 57.714C107.022 61.3362 110.332 71.6025 110.332 71.6025C55.8639 104.602 63.9177 158.085 63.9177 158.085C63.9177 158.085 60.57 159.124 61.2961 163.389C62.0222 167.654 64.9222 176.922 64.9222 176.922L170.834 148.543L170.87 148.675L276.782 120.296C276.782 120.296 274.67 110.826 273.156 106.763Z" stroke="#0D2232" stroke-width="9" stroke-miterlimit="10" stroke-linecap="round" stroke-linejoin="round"/>
<path d="M184.797 51.7911C184.797 51.7911 188.043 60.2658 189.303 79.0335Z" fill="#F9DC1B"/>
<path d="M184.797 51.7911C184.797 51.7911 188.043 60.2658 189.303 79.0335" stroke="#0D2232" stroke-width="9" stroke-miterlimit="10" stroke-linecap="round" stroke-linejoin="round"/>
<path d="M268.234 103.481L241.408 110.669C238.571 111.429 236.888 114.344 237.648 117.182L241.048 129.871" stroke="#0D2232" stroke-width="9" stroke-miterlimit="10" stroke-linecap="round" stroke-linejoin="round"/>
<path d="M110.34 71.6001C110.34 71.6001 111.766 80.5624 120.058 97.4461Z" fill="#F9DC1B"/>
<path d="M110.34 71.6001C110.34 71.6001 111.766 80.5624 120.058 97.4461" stroke="#0D2232" stroke-width="9" stroke-miterlimit="10" stroke-linecap="round" stroke-linejoin="round"/>
<path d="M63.9258 158.083L90.7513 150.895C93.5885 150.135 96.5042 151.818 97.2645 154.656L100.664 167.344" stroke="#0D2232" stroke-width="9" stroke-miterlimit="10" stroke-linecap="round" stroke-linejoin="round"/>
<path opacity="0.74" d="M280.366 127.519C274.477 126.916 268.615 128.531 262.923 130.118C221.312 141.746 179.698 153.367 138.086 164.995C119.594 170.163 101.11 175.328 82.6179 180.496C74.4118 182.793 65.3179 185.779 61.4026 193.335C60.6321 194.827 59.9596 196.586 58.4191 197.256C56.0704 198.284 53.4964 195.924 52.7841 193.464C51.4414 188.85 53.9177 183.798 57.6133 180.715C61.311 177.641 66.0301 176.128 70.6284 174.728C138.74 153.968 209.466 142.172 276.697 118.723C280.582 117.372 285.257 116.092 288.486 118.649C290.266 120.061 291.103 122.328 291.864 124.473C292.622 126.637 296.633 134.393 291.346 132.432C289.634 131.8 288.045 129.841 286.237 129.048C284.389 128.24 282.365 127.666 280.366 127.519Z" fill="white"/>
<path d="M294.513 136.042C294.513 136.042 284.499 135.099 272.265 138.377C260.031 141.656 78.0096 190.428 78.0096 190.428C78.0096 190.428 61.3074 194.203 57.7072 199.494L54.6751 188.178C53.5004 183.794 56.1042 179.284 60.4883 178.11L281.42 118.911C285.804 117.736 290.314 120.34 291.489 124.724L294.521 136.04L294.513 136.042Z" stroke="#0D2232" stroke-width="9" stroke-miterlimit="10" stroke-linecap="round" stroke-linejoin="round"/>
<path d="M104.889 213.449C104.889 213.449 110.867 237.549 113.162 244.328C115.458 251.107 112.449 258.607 104.004 255.71C95.559 252.813 89.2799 223.82 89.2799 223.82C89.2799 223.82 96.7988 222.169 104.889 213.449Z" fill="#253B5A" stroke="#0D2232" stroke-width="9" stroke-miterlimit="10"/>
<path d="M154.412 241.307C161.74 239.344 166.088 231.812 164.125 224.484C162.161 217.157 154.629 212.808 147.302 214.772C139.974 216.735 135.625 224.267 137.589 231.595C139.552 238.922 147.084 243.271 154.412 241.307Z" fill="#0D2232"/>
<path d="M232.853 220.289C240.181 218.326 244.53 210.794 242.566 203.466C240.603 196.139 233.071 191.79 225.743 193.753C218.415 195.717 214.067 203.249 216.03 210.577C217.994 217.904 225.526 222.253 232.853 220.289Z" fill="#0D2232"/>
<path d="M240.294 179.038C239.227 179.324 238.063 179.246 236.992 178.726C236.496 178.495 225.593 173.473 213.071 179.018C210.663 180.089 207.845 179 206.782 176.59C205.711 174.181 206.8 171.363 209.21 170.3C225.924 162.896 240.543 169.84 241.156 170.145C243.523 171.302 244.51 174.158 243.353 176.525C242.723 177.811 241.585 178.692 240.294 179.038Z" fill="#0D2232"/>
<path d="M127.732 209.199C128.799 208.913 129.768 208.263 130.435 207.278C130.75 206.83 137.681 197.029 151.298 195.57C153.919 195.293 155.815 192.941 155.53 190.322C155.253 187.701 152.901 185.805 150.282 186.09C132.106 188.035 122.918 201.357 122.539 201.928C121.067 204.114 121.641 207.081 123.826 208.552C125.015 209.35 126.441 209.545 127.732 209.199Z" fill="#0D2232"/>
<path d="M241.649 245.77C239.888 253.06 236.647 261.349 230.733 268.395C225.512 274.617 218.203 279.865 207.987 282.602C196.845 285.587 187.238 284.243 179.219 280.851C171.53 277.6 165.301 272.452 160.576 267.423C156.441 263.008 156.513 256.694 159.666 252.347C161.18 250.257 163.403 248.624 166.207 247.873L227.021 231.577C229.825 230.826 232.566 231.129 234.923 232.182C239.848 234.382 243.081 239.864 241.649 245.77Z" fill="#162336"/>
<path d="M224.133 247.6C211.081 251.098 171.872 261.603 171.872 261.603C171.872 261.603 161.531 264.8 159.674 252.345C161.189 250.254 163.411 248.622 166.215 247.87L227.03 231.575C229.834 230.824 232.575 231.127 234.931 232.18C235.105 232.266 237.178 244.105 224.133 247.6Z" fill="white"/>
<path d="M230.742 268.392C225.52 274.614 218.211 279.862 207.996 282.599C196.854 285.585 187.246 284.24 179.227 280.848C180.832 271.189 194.545 264.429 209.36 261.32C220.765 258.92 227.425 264.254 230.742 268.392Z" fill="#DD1010"/>
<path d="M166.207 247.873L227.021 231.578C235.698 229.253 243.76 237.04 241.649 245.771C238.326 259.508 229.776 276.764 207.988 282.602C186.158 288.451 170.228 277.701 160.576 267.423C154.457 260.898 157.563 250.189 166.207 247.873Z" stroke="#0D2232" stroke-width="9" stroke-miterlimit="10"/>
<g opacity="0.16">
<path d="M96.398 185.501L262.81 140.911L269.377 149.471L93.6922 196.546L96.398 185.501Z" fill="black"/>
<path d="M89.2797 223.82C89.2797 223.82 120.69 223.188 141.712 183.688L114.528 186.725L89.2797 223.82Z" fill="black"/>
<path d="M160.806 202.27C160.806 202.27 206.725 197.785 225.736 156.005L201.562 163.396L160.806 202.27Z" fill="black"/>
</g>
<path opacity="0.16" d="M274.446 194.924C274.446 194.924 281.719 279.309 199.079 312.552C199.079 312.552 291.927 301.292 279.836 211.929L274.446 194.924Z" fill="black"/>
<path d="M123.679 178.191C123.679 178.191 114.556 221.639 90.3246 223.105C88.1259 223.234 86.1216 223.256 84.316 223.191C66.2066 222.475 66.7181 212.471 66.7181 212.471C66.7181 212.471 81.8815 213.16 86.0151 189.897C86.1134 189.347 86.2024 188.791 86.2869 188.219L123.681 178.199L123.679 178.191Z" fill="#253B5A"/>
<path opacity="0.21" d="M81.0334 210.816C77.1923 216.721 75.1215 217.143 75.1215 217.143C75.1215 217.143 75.5153 221.089 81.1443 224.04C66.6096 222.367 66.4842 212.533 66.4842 212.533C66.4842 212.533 79.5842 212.162 81.6496 189.453C81.7362 189.731 84.8315 204.975 81.0334 210.816Z" fill="white"/>
<path d="M305.048 152.467C305.048 152.467 298.592 172.576 278.266 173.846C266.625 174.572 250.428 169.115 228.286 150.171L275.925 137.512C275.925 137.512 276.714 139.863 278.574 142.769C282.309 148.568 290.346 156.593 305.048 152.467Z" fill="#253B5A"/>
<path opacity="0.21" d="M305.048 152.466C305.048 152.466 298.592 172.575 278.266 173.846C280.298 172.627 282.191 171.154 283.961 169.589C287.529 166.426 290.699 162.837 294.228 159.63C289.621 160.634 284.668 158.362 281.757 154.647C279.707 152.022 277.507 147.319 278.128 143.881C278.21 143.425 278.376 143.052 278.593 142.772C282.309 148.568 290.346 156.592 305.048 152.466Z" fill="white"/>
<path d="M275.931 137.502C275.931 137.502 282.999 158.65 305.049 152.467C305.049 152.467 289.093 202.205 228.292 150.16L275.931 137.502Z" stroke="#0D2232" stroke-width="9" stroke-miterlimit="10" stroke-linecap="round" stroke-linejoin="round"/>
<path d="M206.165 156.089C206.165 156.089 203.407 186.395 160.805 202.27C160.805 202.27 164.723 186.716 159.843 168.501L206.165 156.089Z" fill="#253B5A" stroke="#0D2232" stroke-width="9" stroke-miterlimit="10" stroke-linecap="round" stroke-linejoin="round"/>
<path d="M123.678 178.191C123.678 178.191 115.05 221.507 91.4122 222.814C67.7743 224.121 68.2911 212.04 68.2911 212.04C68.2911 212.04 83.8018 212.858 87.2436 187.945L123.676 178.183L123.678 178.191Z" stroke="#0D2232" stroke-width="9" stroke-miterlimit="10" stroke-linecap="round" stroke-linejoin="round"/>
<path d="M281.716 211.47C281.716 211.47 291.023 255.237 256.11 289.416C221.197 323.595 172.76 318.718 145.771 303.36C118.783 288.002 108.875 256.222 108.875 256.222" stroke="#0D2232" stroke-width="9" stroke-miterlimit="10"/>
<path d="M283.507 173.053C283.507 173.053 289.038 195.252 289.279 199.788C289.519 204.325 287.177 210.671 279.846 211.935C272.516 213.199 270.299 203.899 268.431 197.422C266.556 190.956 261.363 171.043 261.363 171.043C261.363 171.043 273.17 176.133 283.507 173.053Z" fill="#253B5A" stroke="#0D2232" stroke-width="9" stroke-miterlimit="10" stroke-linecap="round" stroke-linejoin="round"/>
<path opacity="0.21" d="M121.656 113.476C114.854 119.594 111.741 120.039 111.741 120.039C111.741 120.039 111.526 124.113 119.167 127.136C98.2451 125.474 100.033 115.317 100.033 115.317C100.033 115.317 119.266 114.873 126.839 91.4071C126.91 91.6941 128.381 107.426 121.656 113.476Z" fill="white"/>
<path d="M37.7764 134.009L43.4529 164.604C43.8931 166.976 42.3222 169.263 39.9582 169.701L23.3593 172.781C20.9868 173.221 18.7002 171.65 18.26 169.278L12.5836 138.683C12.1434 136.31 13.7158 134.032 16.0883 133.592L32.6873 130.512C35.0497 130.065 37.3363 131.636 37.7764 134.009Z" fill="#AFCADC"/>
<path d="M40.0049 170.002L23.406 173.081C20.8713 173.552 18.4229 171.87 17.9526 169.335L12.2762 138.74C11.8059 136.205 13.4896 133.765 16.0242 133.295L32.6232 130.215C35.1578 129.745 37.5978 131.429 38.0664 133.955L43.7429 164.55C44.2217 167.083 42.5396 169.531 40.0049 170.002ZM16.1351 133.892C13.9247 134.302 12.4651 136.427 12.8736 138.629L18.55 169.224C18.9601 171.434 21.0848 172.894 23.2952 172.484L39.8941 169.404C42.0959 168.996 43.5556 166.871 43.1455 164.661L37.4691 134.066C37.0606 131.864 34.9359 130.404 32.734 130.813L16.1351 133.892Z" fill="#000072"/>
<g opacity="0.2">
<path d="M42.1909 157.802L43.4513 164.595C43.8915 166.968 42.3206 169.254 39.9566 169.693L23.3577 172.772C20.9852 173.213 18.6986 171.642 18.2584 169.269L16.998 162.476C17.4382 164.849 19.7248 166.419 22.0973 165.979L38.6963 162.9C41.0602 162.461 42.6327 160.183 42.1909 157.802Z" fill="black"/>
</g>
<g opacity="0.55">
<path d="M37.7764 134.009L38.6663 138.805C38.2261 136.433 35.9411 134.871 33.5772 135.309L16.9782 138.389C14.6057 138.829 13.0348 141.116 13.4734 143.48L12.5836 138.683C12.1434 136.311 13.7158 134.033 16.0883 133.593L32.6873 130.513C35.0497 130.066 37.3363 131.637 37.7764 134.009Z" fill="white"/>
</g>
<path d="M61.2392 157.216L42.72 160.652L38.6855 138.907L54.397 135.992L61.2392 157.216Z" fill="#AFCADC"/>
<path d="M61.6358 157.452L42.4681 161.008L38.3228 138.666L54.6059 135.644L61.6358 157.452ZM42.9631 160.298L60.8508 156.979L54.1962 136.338L39.0395 139.15L42.9631 160.298Z" fill="#000072"/>
<path d="M147.768 137.834C148.088 140.988 144.719 143.194 141.978 141.601C126.621 132.674 108.244 142.731 107.272 159.711C107.108 162.54 105.076 164.912 102.294 165.428L71.3236 171.174C68.3025 171.735 65.3445 169.97 64.4047 167.046L61.2305 157.218L54.3883 135.994L52.0809 128.839C50.955 125.34 53.1551 121.639 56.7736 120.968L107.543 111.548C128.153 107.724 146.032 120.818 147.768 137.834Z" fill="#AFCADC"/>
<path d="M102.35 165.727L71.3791 171.473C68.2214 172.059 65.1031 170.192 64.1124 167.136L51.7886 128.929C51.2257 127.179 51.4447 125.267 52.3862 123.68C53.3292 122.101 54.9074 120.996 56.7167 120.661L107.486 111.241C117.821 109.324 128.275 111.613 136.17 117.528C143.029 122.665 147.251 129.862 148.063 137.806C148.224 139.392 147.491 140.914 146.158 141.77C144.818 142.637 143.201 142.672 141.816 141.87C134.691 137.727 126.255 137.509 119.247 141.272C112.384 144.964 108.014 151.866 107.566 159.727C107.407 162.723 105.251 165.188 102.35 165.727ZM56.8461 121.263C55.2076 121.567 53.7773 122.565 52.9214 123.995C52.0656 125.425 51.8746 127.156 52.3803 128.739L64.7041 166.947C65.5967 169.712 68.4163 171.396 71.2752 170.865L102.246 165.119C104.874 164.632 106.817 162.4 106.976 159.686C107.438 151.611 111.922 144.52 118.978 140.731C126.171 136.863 134.828 137.084 142.14 141.333C143.317 142.015 144.698 141.988 145.842 141.255C147.002 140.51 147.614 139.24 147.473 137.863C146.677 130.101 142.543 123.046 135.819 118.017C128.059 112.209 117.78 109.958 107.616 111.844L56.8461 121.263Z" fill="#000072"/>
<g opacity="0.2">
<path d="M147.768 137.834C148.088 140.988 144.719 143.193 141.978 141.601C126.621 132.674 108.244 142.731 107.272 159.711C107.108 162.539 105.077 164.912 102.294 165.428L71.3238 171.174C68.3027 171.734 65.3447 169.97 64.4049 167.046L63.641 164.689C64.506 164.926 65.4246 164.976 66.3548 164.804L97.3253 159.058C100.107 158.542 102.139 156.17 102.303 153.341C103.275 136.361 121.652 126.304 137.009 135.231C139.75 136.823 143.119 134.618 142.799 131.464C142.404 127.574 141.163 123.884 139.24 120.56C143.989 125.223 147.099 131.231 147.768 137.834Z" fill="black"/>
</g>
<g opacity="0.55">
<path d="M136.675 118.299C129.881 114.705 121.508 113.204 112.624 114.852L61.8537 124.272C58.2353 124.943 56.0352 128.644 57.161 132.143L59.4685 139.298L66.3107 160.522L69.4848 170.35C69.5892 170.675 69.7161 170.978 69.867 171.268C67.4055 171.133 65.2033 169.494 64.4134 167.045L61.2393 157.217L54.3971 135.993L52.0897 128.837C50.9638 125.339 53.1639 121.638 56.7824 120.966L107.552 111.547C118.809 109.458 129.236 112.414 136.675 118.299Z" fill="white"/>
</g>
<g opacity="0.55">
<path d="M38.6661 138.805L14.4717 143.294L15.7146 149.993L39.909 145.504L38.6661 138.805Z" fill="white"/>
</g>
<path d="M101.748 165.529L73.2524 170.816L86.7477 243.553L115.243 238.266L101.748 165.529Z" fill="#435F84" stroke="#0D2232" stroke-width="9" stroke-miterlimit="10" stroke-linecap="round" stroke-linejoin="round"/>
<g opacity="0.2">
<path d="M75.6959 183.56C76.5284 183.432 77.3263 183.593 78.0873 183.84C78.8482 184.088 79.5754 184.438 80.2763 184.838C81.668 185.63 82.9881 186.559 84.1334 187.689C86.4224 189.939 87.9811 192.678 90.2216 194.619C91.3299 195.596 92.6188 196.311 94.0171 196.757C95.4223 197.194 96.9144 197.385 98.4206 197.415C99.9268 197.444 101.454 197.346 102.981 197.204C103.745 197.133 104.515 197.052 105.278 196.928C106.047 196.838 106.844 196.805 107.644 197.169C107.759 197.218 107.812 197.358 107.754 197.475C107.735 197.514 107.705 197.546 107.674 197.569L107.668 197.579C106.922 198.08 106.184 198.146 105.413 198.227C104.643 198.264 103.872 198.345 103.092 198.42C101.539 198.566 99.9778 198.671 98.3916 198.638C96.8054 198.606 95.2046 198.4 93.6502 197.92C92.1043 197.439 90.6278 196.618 89.4222 195.544C86.9767 193.402 85.4149 190.647 83.2802 188.562C82.2136 187.524 81.0125 186.617 79.6786 185.946C79.016 185.61 78.3271 185.323 77.6451 185.026C76.9632 184.729 76.2743 184.441 75.6018 183.957C75.5006 183.888 75.4753 183.751 75.5448 183.65C75.5881 183.598 75.6447 183.57 75.6959 183.56Z" fill="#371A45"/>
<path d="M106.603 191.509C105.198 192.644 103.38 193.025 101.626 193.086C99.8644 193.156 98.0784 193.046 96.3678 192.534C95.5061 192.314 94.6872 191.945 93.8807 191.548C93.109 191.099 92.3325 190.625 91.6773 189.997C90.3012 188.813 89.3846 187.156 88.7515 185.552C88.1084 183.941 87.639 182.315 86.8948 180.873C86.5218 180.148 86.0832 179.496 85.5431 178.917C85.292 178.61 84.9736 178.369 84.6846 178.096C84.3592 177.865 84.0563 177.613 83.7032 177.422C82.3462 176.579 80.7592 176.114 79.1721 176.029C78.3761 175.974 77.5713 176.061 76.8027 176.248C76.0254 176.436 75.3238 176.699 74.4226 176.743L74.4071 176.754C74.3628 176.754 74.3085 176.746 74.2557 176.747L74.2114 176.747C74.0872 176.743 73.9968 176.636 74.0087 176.511C74.0094 176.466 74.0286 176.427 74.0495 176.397C74.0842 176.346 74.1259 176.286 74.1708 176.242L74.1553 176.254C74.7598 175.515 75.6466 175.156 76.5342 174.991C77.4296 174.869 78.3352 174.754 79.2298 174.818C81.0228 174.918 82.8048 175.435 84.3407 176.386C85.8944 177.289 87.1766 178.729 87.975 180.32C88.7819 181.909 89.2576 183.569 89.878 185.104C90.4898 186.642 91.2805 188.049 92.49 189.095C93.0611 189.652 93.7566 190.07 94.449 190.471C95.1676 190.823 95.9087 191.154 96.6974 191.361C98.2556 191.813 99.9083 191.965 101.533 191.823C101.943 191.8 102.341 191.708 102.742 191.678C103.141 191.595 103.547 191.546 103.947 191.463C104.752 191.332 105.537 191.089 106.445 191.132L106.472 191.136C106.588 191.141 106.677 191.239 106.672 191.355C106.683 191.415 106.65 191.474 106.603 191.509Z" fill="#371A45"/>
<path d="M105.078 183.194C104.701 183.732 104.163 184.017 103.6 184.219C103.318 184.315 103.022 184.388 102.732 184.441C102.44 184.487 102.142 184.498 101.847 184.526C100.667 184.586 99.4745 184.49 98.3346 184.198C96.0562 183.623 93.9727 182.385 92.3464 180.71C90.7186 179.025 89.5714 176.934 88.8973 174.729C88.5603 173.626 88.3412 172.492 88.2175 171.35C88.1472 170.78 88.1381 170.208 88.0747 169.629C88.03 169.054 88.0449 168.469 88.376 167.922L88.3738 167.958C88.4364 167.867 88.4733 167.78 88.5561 167.703C88.6598 167.596 88.8266 167.591 88.9326 167.686C88.9427 167.693 88.9443 167.702 88.9528 167.7L88.9645 167.716C89.0315 167.791 89.0629 167.865 89.1198 167.934L89.1176 167.97C89.389 168.528 89.3731 169.061 89.3502 169.604C89.3172 170.14 89.3742 170.685 89.4282 171.214C89.5477 172.286 89.7526 173.343 90.0668 174.37C90.6937 176.417 91.7479 178.34 93.2214 179.859C94.695 181.377 96.5964 182.49 98.6354 183.012C99.6533 183.265 100.709 183.387 101.746 183.265C102.261 183.187 102.766 183.102 103.268 183C103.778 182.897 104.279 182.786 104.905 182.829L104.913 182.827C105.039 182.839 105.138 182.945 105.126 183.07C105.117 183.116 105.106 183.154 105.078 183.194Z" fill="#371A45"/>
<path d="M94.588 166.955C94.7604 167.408 94.7315 167.775 94.6636 168.124C94.6059 168.479 94.5007 168.816 94.4057 169.16C94.2327 169.845 94.1855 170.543 94.2066 171.227C94.2627 172.577 94.7955 173.926 95.7311 174.829C96.1947 175.281 96.7641 175.591 97.3834 175.741C98.0011 175.882 98.6687 175.864 99.3296 175.715C99.9921 175.574 100.631 175.306 101.23 174.965C101.528 174.813 101.818 174.565 102.083 174.33C102.369 174.109 102.661 173.923 103.231 174.047L103.25 174.052C103.397 174.086 103.492 174.219 103.484 174.362C103.455 174.923 103.14 175.176 102.819 175.394C102.652 175.496 102.484 175.589 102.319 175.699C102.164 175.816 101.999 175.926 101.823 176.02C101.128 176.414 100.381 176.72 99.5753 176.897C98.7794 177.079 97.9193 177.107 97.0895 176.916C96.2597 176.726 95.4724 176.289 94.8694 175.704C93.6517 174.517 93.0496 172.89 92.9701 171.272C92.9268 170.467 93.035 169.67 93.1479 168.899C93.1993 168.51 93.2778 168.125 93.4225 167.762C93.5586 167.402 93.7592 167.055 94.1814 166.809C94.3085 166.733 94.4662 166.774 94.5428 166.901C94.5747 166.931 94.5864 166.946 94.588 166.955Z" fill="#371A45"/>
<path d="M77.6052 194.038C78.5543 193.73 79.6045 193.87 80.5241 194.212C81.4577 194.533 82.2879 195.058 83.0563 195.631C84.5859 196.786 85.8966 198.141 87.1514 199.479C88.4131 200.808 89.6684 202.102 91.1307 203.084C92.576 204.07 94.255 204.65 96.0152 205.144C97.7669 205.64 99.5959 206.078 101.338 206.902C103.073 207.737 104.63 208.896 105.944 210.267C107.271 211.619 108.384 213.143 109.413 214.691C109.928 215.469 110.418 216.253 110.93 217.014C111.419 217.797 111.876 218.595 111.983 219.599C111.997 219.72 111.903 219.835 111.782 219.848C111.731 219.858 111.675 219.842 111.635 219.814C110.781 219.257 110.291 218.474 109.82 217.696C109.38 216.895 108.892 216.121 108.39 215.366C107.387 213.858 106.312 212.397 105.07 211.127C103.842 209.836 102.401 208.78 100.82 208.013C99.2338 207.266 97.4676 206.835 95.6871 206.326C93.9098 205.835 92.063 205.207 90.4559 204.11C88.8605 203.029 87.5466 201.657 86.2764 200.33C85.0062 199.003 83.7786 197.669 82.3217 196.668C81.5948 196.176 80.8363 195.751 80.0564 195.402C79.2733 195.035 78.4953 194.791 77.6044 194.462C77.4909 194.421 77.433 194.3 77.4738 194.186C77.4867 194.113 77.547 194.058 77.6052 194.038Z" fill="#371A45"/>
<path d="M100.829 202.212C101.122 201.981 101.35 201.974 101.559 202.006C101.768 202.038 101.963 202.134 102.147 202.223C102.526 202.409 102.92 202.539 103.296 202.707C104.063 203.033 104.817 203.387 105.551 203.772C106.293 204.155 107.014 204.569 107.723 205.011C108.072 205.229 108.424 205.464 108.767 205.691C108.939 205.81 109.102 205.929 109.304 206.016C109.476 206.134 109.634 206.272 109.544 206.739C109.518 206.885 109.424 207 109.313 207.064L109.304 207.066C108.881 207.304 108.712 207.202 108.555 207.073C108.421 206.921 108.251 206.811 108.089 206.7C107.757 206.479 107.424 206.258 107.085 206.048C106.407 205.626 105.706 205.227 105.001 204.854C104.288 204.483 103.562 204.141 102.833 203.826C102.46 203.675 102.102 203.503 101.712 203.399C101.518 203.355 101.323 203.303 101.144 203.195C100.967 203.095 100.809 202.957 100.715 202.595L100.713 202.586C100.663 202.455 100.723 202.302 100.829 202.212Z" fill="#371A45"/>
<path d="M79.1742 202.019C80.286 202.254 81.2027 203.055 81.882 203.909C82.5799 204.768 83.0771 205.735 83.5424 206.673C84.0163 207.609 84.4768 208.521 85.0287 209.354C85.5806 210.188 86.2083 210.954 86.9595 211.53C87.7038 212.115 88.5862 212.446 89.5393 212.587C90.4924 212.728 91.489 212.676 92.5135 212.583C93.5363 212.481 94.5769 212.332 95.6503 212.265C96.7254 212.207 97.852 212.237 98.9508 212.545C100.05 212.853 101.066 213.432 101.902 214.178C102.739 214.932 103.406 215.814 103.974 216.733C105.103 218.58 105.882 220.546 106.772 222.393C107.645 224.244 108.742 225.965 110.046 227.524C110.694 228.304 111.388 229.049 112.166 229.717C112.912 230.409 113.669 231.063 114.244 232.024C114.308 232.127 114.272 232.266 114.169 232.33C114.121 232.356 114.052 232.369 114.005 232.351C112.895 232.08 112.045 231.399 111.274 230.669C110.523 229.907 109.787 229.126 109.106 228.308C107.743 226.671 106.583 224.847 105.67 222.924C104.76 221.019 103.987 219.088 102.937 217.376C102.407 216.52 101.811 215.731 101.091 215.087C100.38 214.442 99.5336 213.973 98.6297 213.717C96.7864 213.202 94.7382 213.582 92.6413 213.795C91.5827 213.894 90.4921 213.964 89.3744 213.792C88.2667 213.627 87.1371 213.2 86.2379 212.493C84.4138 211.084 83.4446 209.048 82.4499 207.255C81.9466 206.351 81.4396 205.474 80.884 204.668C80.3182 203.854 79.7256 203.135 78.9939 202.379C78.9082 202.297 78.91 202.165 78.9912 202.079C79.0345 202.027 79.1098 202.004 79.1742 202.019Z" fill="#371A45"/>
<path d="M82.2982 219.289C83.0713 219.03 83.7758 218.926 84.5199 218.797L86.7483 218.437C88.2433 218.168 89.8196 217.814 91.4336 217.806C92.2441 217.796 93.0688 217.864 93.8863 218.083C94.6937 218.295 95.4971 218.676 96.1706 219.213C96.8526 219.749 97.3807 220.454 97.7723 221.185C98.1569 221.926 98.4236 222.697 98.629 223.471C99.0313 225.021 99.2727 226.512 99.6522 227.987C100.023 229.463 100.452 230.919 101.012 232.316C101.562 233.715 102.245 235.062 103.081 236.284C103.495 236.896 103.958 237.49 104.485 238.001C104.985 238.553 105.492 239.05 105.802 239.867L105.804 239.875C105.853 239.999 105.789 240.125 105.674 240.173C105.633 240.19 105.589 240.189 105.553 240.187C104.668 240.033 104.053 239.476 103.518 238.878C103.014 238.257 102.517 237.625 102.069 236.967C101.17 235.641 100.456 234.22 99.8751 232.757C99.286 231.294 98.8388 229.788 98.4599 228.27C98.0656 226.763 97.8217 225.21 97.44 223.771C97.0598 222.341 96.4727 220.985 95.3983 220.142C94.3463 219.278 92.895 218.973 91.4425 218.996C89.9714 219.013 88.5035 219.285 86.9886 219.637C86.2354 219.812 85.4534 219.975 84.6594 220.025C83.8654 220.075 83.0283 220.036 82.2607 219.658C82.1542 219.607 82.1117 219.473 82.1626 219.367C82.1936 219.343 82.24 219.308 82.2982 219.289Z" fill="#371A45"/>
<path d="M104.641 228.845C105.043 228.92 105.236 229.105 105.39 229.315C105.559 229.513 105.665 229.75 105.771 229.986C105.997 230.447 106.296 230.868 106.563 231.304C107.119 232.163 107.708 233.007 108.337 233.827C108.957 234.647 109.615 235.434 110.297 236.208C110.643 236.595 110.986 236.972 111.346 237.338C111.522 237.526 111.698 237.714 111.91 237.86C112.102 238.036 112.27 238.226 112.15 238.725C112.116 238.872 112.002 238.973 111.869 239.015C111.38 239.141 111.171 238.968 110.995 238.78C110.84 238.562 110.655 238.375 110.469 238.18C110.107 237.797 109.743 237.406 109.396 237.011C108.693 236.223 108.021 235.404 107.379 234.561C106.737 233.717 106.126 232.851 105.554 231.959C105.261 231.519 105.007 231.055 104.696 230.618C104.541 230.399 104.386 230.181 104.295 229.933C104.197 229.686 104.137 229.415 104.287 229.034C104.341 228.892 104.493 228.81 104.641 228.845Z" fill="#371A45"/>
<path d="M83.4953 226.262C83.8716 225.769 84.3621 225.51 84.8823 225.316C85.401 225.114 85.9557 225.011 86.5098 224.952C87.6234 224.816 88.798 224.819 89.9102 225.151C91.0293 225.473 92.0369 226.099 92.8672 226.863C93.6992 227.635 94.3724 228.552 94.8899 229.533C95.952 231.499 96.4266 233.724 96.4283 235.921C96.43 237.025 96.3143 238.114 96.0984 239.187L95.7339 240.791C95.5921 241.312 95.3619 241.831 94.7715 242.17C94.6429 242.238 94.4937 242.195 94.4187 242.077C94.407 242.061 94.4054 242.053 94.4023 242.036L94.3991 242.019C94.1732 241.372 94.3431 240.908 94.4896 240.413C94.6835 239.935 94.8044 239.445 94.9051 238.941C95.108 237.941 95.2123 236.933 95.2094 235.918C95.2053 233.897 94.7671 231.869 93.8144 230.112C92.8889 228.359 91.4084 226.851 89.5619 226.319C88.648 226.056 87.6595 226.01 86.6866 226.191C86.2017 226.29 85.7232 226.423 85.2298 226.523C84.738 226.632 84.2345 226.725 83.6348 226.633C83.5074 226.613 83.4154 226.498 83.4343 226.362C83.4551 226.331 83.4744 226.292 83.4953 226.262Z" fill="#371A45"/>
<path d="M84.7041 232.826C84.8563 232.409 85.1708 232.201 85.4957 232.096C85.826 231.973 86.1768 231.961 86.5255 231.984C87.2127 232.025 87.9291 232.174 88.5336 232.53C89.7596 233.238 90.5437 234.514 90.7272 235.884C90.8096 236.566 90.7261 237.305 90.4636 237.937C90.2112 238.575 89.8375 239.13 89.434 239.62C89.022 240.111 88.5818 240.546 88.147 240.962C87.9296 241.17 87.702 241.371 87.508 241.61C87.2906 241.818 87.053 242.012 86.544 241.886C86.3964 241.852 86.2943 241.729 86.2775 241.591L86.2759 241.583C86.2049 241.057 86.4122 240.842 86.6327 240.651C86.8837 240.481 87.0957 240.292 87.3131 240.084C87.741 239.678 88.1518 239.275 88.505 238.847C89.2201 237.991 89.6692 237.033 89.5282 236.036C89.4059 235.043 88.7946 234.079 87.9365 233.594C87.5141 233.364 87.026 233.207 86.5215 233.248C86.2693 233.268 86.0319 233.321 85.7781 233.333C85.5258 233.353 85.2704 233.356 84.8778 233.191L84.8591 233.185C84.7238 233.122 84.6511 232.968 84.7041 232.826Z" fill="#371A45"/>
</g>
<g opacity="0.55">
<path d="M90.981 242.768L86.748 243.553L75.1133 180.844L77.6052 180.381C78.5696 180.202 79.5004 180.842 79.6794 181.806L90.9895 242.766L90.981 242.768Z" fill="white"/>
</g>
<g opacity="0.3">
<path d="M101.748 165.529L115.243 238.266L108.493 239.519L98.1247 183.637C97.4343 179.916 93.8527 177.455 90.1318 178.146L75.1288 180.929L73.2524 170.816L101.748 165.529Z" fill="#371A45"/>
</g>
<path d="M122.954 243.041L136.533 316.23C137.147 319.542 134.958 322.729 131.646 323.343L102.255 328.796C101.265 328.98 100.282 328.915 99.3831 328.64C99.3815 328.632 99.3815 328.632 99.3815 328.632C97.2691 328 95.5726 326.231 95.142 323.91L81.5628 250.721C80.9485 247.409 83.138 244.222 86.4492 243.608L115.841 238.155C119.152 237.541 122.339 239.73 122.954 243.041Z" fill="#F9DC1B"/>
<path d="M131.701 323.642L102.31 329.095C101.303 329.282 100.26 329.228 99.2953 328.93L99.1157 328.867C96.8974 328.139 95.2704 326.27 94.8429 323.965L81.2638 250.776C80.6193 247.303 82.92 243.954 86.3934 243.309L115.785 237.856C119.259 237.212 122.607 239.513 123.252 242.986L136.831 316.175C137.475 319.649 135.175 322.997 131.701 323.642ZM99.6466 328.397C100.473 328.615 101.345 328.656 102.199 328.498L131.591 323.044C134.731 322.462 136.816 319.427 136.234 316.286L122.655 243.097C122.072 239.956 119.037 237.871 115.896 238.454L86.5043 243.907C83.3637 244.49 81.2785 247.525 81.8612 250.665L95.4403 323.855C95.8377 325.997 97.385 327.722 99.4686 328.342L99.6466 328.397Z" fill="#000072"/>
<path d="M122.953 243.042L136.532 316.231C137.146 319.542 134.957 322.729 131.646 323.344L121.883 325.155C125.194 324.541 127.383 321.354 126.769 318.042L113.19 244.853C112.575 241.542 109.388 239.352 106.077 239.967L115.84 238.155C119.152 237.541 122.339 239.731 122.953 243.042Z" fill="#E89F02"/>
<path d="M131.701 323.642L121.938 325.454L121.827 324.856C124.967 324.273 127.053 321.238 126.47 318.098L112.891 244.908C112.308 241.768 109.273 239.683 106.132 240.265L106.021 239.668L115.785 237.857C119.258 237.212 122.607 239.513 123.251 242.986L136.83 316.175C137.475 319.649 135.174 322.998 131.701 323.642ZM124.515 324.357L131.59 323.045C134.731 322.462 136.816 319.427 136.233 316.286L122.654 243.097C122.071 239.957 119.036 237.871 115.895 238.454L108.821 239.767C111.141 240.378 113.03 242.278 113.497 244.796L127.076 317.985C127.541 320.494 126.46 322.946 124.515 324.357Z" fill="#E89F02"/>
<g opacity="0.55">
<path d="M103.915 327.8C104.813 328.074 105.796 328.139 106.786 327.955L102.255 328.796C101.265 328.98 100.282 328.915 99.3831 328.64C99.3815 328.632 99.3815 328.632 99.3815 328.632C97.2691 328 95.5726 326.231 95.142 323.91L81.5628 250.721C80.9485 247.409 83.138 244.222 86.4492 243.608L90.9809 242.767C87.6696 243.382 85.4801 246.569 86.0945 249.88L99.6736 323.069C100.104 325.39 101.801 327.159 103.915 327.8C103.913 327.791 103.913 327.791 103.915 327.8Z" fill="white"/>
</g>
<g opacity="0.2">
<path d="M42.6795 138.166L50.7165 159.169L42.72 160.652L38.6855 138.907L42.6795 138.166Z" fill="black"/>
</g>
<g opacity="0.2">
<path d="M84.0546 131.497C84.631 134.603 80.5586 134.494 75.7283 135.39C70.8979 136.286 67.1359 137.849 66.5596 134.743C65.9832 131.636 69.4333 128.392 74.2636 127.496C79.094 126.599 83.4783 128.39 84.0546 131.497Z" fill="white"/>
</g>
<g opacity="0.2">
<path d="M105.148 277.163C106.223 282.958 104.646 288.115 101.634 288.674C98.6211 289.233 97.6975 284.54 96.6224 278.745C95.5473 272.95 94.7175 268.24 97.7386 267.68C100.76 267.119 104.073 271.369 105.148 277.163Z" fill="white"/>
</g>
<path d="M37.7764 134.009L43.4529 164.604C43.8931 166.976 42.3222 169.263 39.9582 169.701L23.3593 172.781C20.9868 173.221 18.7002 171.65 18.26 169.278L12.5836 138.683C12.1434 136.31 13.7158 134.032 16.0883 133.592L32.6873 130.512C35.0497 130.065 37.3363 131.636 37.7764 134.009Z" stroke="#0D2232" stroke-width="9" stroke-miterlimit="10" stroke-linecap="round" stroke-linejoin="round"/>
<path d="M61.2392 157.216L42.72 160.652L38.6855 138.907L54.397 135.992L61.2392 157.216Z" stroke="#0D2232" stroke-width="9" stroke-miterlimit="10" stroke-linecap="round" stroke-linejoin="round"/>
<path d="M147.768 137.834C148.088 140.988 144.719 143.194 141.978 141.601C126.621 132.674 108.244 142.731 107.272 159.711C107.108 162.54 105.076 164.912 102.294 165.428L71.3236 171.174C68.3025 171.735 65.3445 169.97 64.4047 167.046L61.2305 157.218L54.3883 135.994L52.0809 128.839C50.955 125.34 53.1551 121.639 56.7736 120.968L107.543 111.548C128.153 107.724 146.032 120.818 147.768 137.834Z" stroke="#0D2232" stroke-width="9" stroke-miterlimit="10" stroke-linecap="round" stroke-linejoin="round"/>
<path d="M101.748 165.529L73.2524 170.816L86.7477 243.553L115.243 238.266L101.748 165.529Z" stroke="#0D2232" stroke-width="9" stroke-miterlimit="10" stroke-linecap="round" stroke-linejoin="round"/>
<path d="M122.954 243.041L136.533 316.23C137.147 319.542 134.958 322.729 131.646 323.343L102.255 328.796C101.265 328.98 100.282 328.915 99.3831 328.64C99.3815 328.632 99.3815 328.632 99.3815 328.632C97.2691 328 95.5726 326.231 95.142 323.91L81.5628 250.721C80.9485 247.409 83.138 244.222 86.4492 243.608L115.841 238.155C119.152 237.541 122.339 239.73 122.954 243.041Z" stroke="#0D2232" stroke-width="9" stroke-miterlimit="10" stroke-linecap="round" stroke-linejoin="round"/>
<path d="M131.094 276.737C131.094 276.737 140.559 283.835 137.754 295.647C137.754 295.647 137.211 303.71 125.041 305.968L100.608 310.501C97.194 311.135 93.8258 310.824 90.7662 309.749C84.4877 307.551 79.519 302.134 78.2191 295.128L72.4397 263.978C70.5048 253.549 77.3946 243.531 87.8234 241.596L114.22 236.699C114.22 236.699 127.577 233.85 131.069 244.678C131.069 244.678 135.019 253.021 127.793 256.948C127.792 256.939 143.293 264.692 131.094 276.737Z" fill="#FBC6A6"/>
<path opacity="0.5" d="M131.068 244.67C131.068 244.67 125.282 242.415 111.141 245.039C97.0001 247.662 93.4243 248.326 93.4243 248.326C93.4243 248.326 79.442 249.808 81.9124 262.123C83.8224 271.656 88.6715 298.22 90.7648 309.741C84.4863 307.542 79.5176 302.126 78.2176 295.119L72.4383 263.969C70.5034 253.541 77.3932 243.523 87.8219 241.588L114.218 236.69C114.218 236.69 127.574 233.833 131.068 244.67Z" fill="white"/>
<path d="M131.094 276.737C131.094 276.737 140.559 283.835 137.754 295.646C137.754 295.646 137.211 303.71 125.041 305.968L100.608 310.501C90.179 312.436 80.1525 305.548 78.2176 295.119L72.4398 263.978C70.5049 253.549 77.3932 243.523 87.8219 241.588L114.227 236.689C114.227 236.689 127.584 233.84 131.077 244.668C131.077 244.668 135.034 253.009 127.8 256.938C127.792 256.939 143.293 264.692 131.094 276.737Z" stroke="#0D2232" stroke-width="9" stroke-miterlimit="10" stroke-linecap="round" stroke-linejoin="round"/>
<path d="M97.1714 262.577L127.783 256.897" stroke="#0D2232" stroke-width="9" stroke-miterlimit="10" stroke-linecap="round" stroke-linejoin="round"/>
<path d="M99.666 282.727L130.278 277.047" stroke="#0D2232" stroke-width="9" stroke-miterlimit="10" stroke-linecap="round" stroke-linejoin="round"/>
</svg>
