<svg width="764" height="764" viewBox="0 0 764 764" fill="none" xmlns="http://www.w3.org/2000/svg">
<rect width="764" height="764" rx="78" fill="white"/>
<g clip-path="url(#clip0_1250_361)">
<path d="M496.51 204.043C496.51 204.043 492.75 209.793 471.383 217.469C450.009 225.147 297.426 270.987 297.426 270.987L286.716 268.901C286.716 268.901 264.632 273.533 259.707 267.494C254.782 261.455 325.077 213.442 325.077 213.442L422.303 184.181L447.073 187.093L496.51 204.043Z" fill="#CFB300"/>
<path d="M496.51 204.043C496.51 204.043 492.75 209.793 471.383 217.469C450.009 225.147 297.426 270.987 297.426 270.987L286.716 268.901C286.716 268.901 264.632 273.533 259.707 267.494C254.782 261.455 325.077 213.442 325.077 213.442L422.303 184.181L447.073 187.093L496.51 204.043Z" stroke="#0D2232" stroke-width="9" stroke-miterlimit="10" stroke-linecap="round" stroke-linejoin="round"/>
<path d="M296.225 300.947C296.225 300.947 272.055 310.633 282.914 338.682C293.78 366.729 328.13 351.062 328.13 351.062L313.925 310.425L296.225 300.947Z" fill="#FBC6A6" stroke="#0D2232" stroke-width="9" stroke-miterlimit="10"/>
<path d="M487.799 249.615C487.799 249.615 507.637 247.651 514.715 268.344C521.794 289.037 503.341 313.938 483.03 311.49C462.719 309.042 467.815 273.933 467.815 273.933L487.799 249.615Z" fill="#FBC6A6" stroke="#0D2232" stroke-width="9" stroke-miterlimit="10"/>
<path opacity="0.4" d="M489.458 262.558C489.458 262.558 500.726 265.141 499.562 277.635C497.939 295.136 484.753 293.935 484.753 293.935L483.093 273.182L489.458 262.558Z" fill="black"/>
<path opacity="0.4" d="M295.949 314.408C295.949 314.408 287.482 322.28 294.737 332.517C304.894 346.863 315.712 339.229 315.712 339.229L306.773 320.427L295.949 314.408Z" fill="black"/>
<path d="M477.368 255.752L483.723 279.467C483.723 279.467 484.609 283.636 484.808 290.4C485.254 305.565 482.256 333.781 458.117 357.414C454.682 360.772 451.119 363.757 447.454 366.388C436.808 374.037 425.352 378.729 413.876 381.13C389.152 386.301 364.401 380.814 347.779 371.357C320.791 355.999 310.883 324.219 310.883 324.219L298.853 279.32L315.939 242.107L446.018 208.928L467.019 223.381L477.368 255.752Z" fill="#FBC6A6"/>
<path opacity="0.5" d="M364.904 370.351C384.961 377.973 402.379 379.947 415.319 379.866C390.595 385.037 365.844 379.55 349.222 370.093C322.234 354.735 312.326 322.955 312.326 322.955L310.199 315.014L315.729 307.663C315.721 307.665 321.423 353.826 364.904 370.351Z" fill="white"/>
<path opacity="0.5" d="M482.327 291.066C482.773 306.231 479.774 334.447 455.635 358.079C452.2 361.437 448.638 364.422 444.972 367.053C456.418 351.902 474.398 324.805 476.083 302.207C476.658 294.561 479.017 291.385 482.327 291.066Z" fill="white"/>
<path d="M496.51 204.043C496.51 204.043 486.497 203.1 474.263 206.378C462.029 209.656 280.009 258.428 280.009 258.428C280.009 258.428 263.307 262.203 259.707 267.494L256.675 256.178C255.5 251.794 258.104 247.284 262.488 246.109L483.418 186.912C487.802 185.737 492.312 188.341 493.486 192.725L496.519 204.041L496.51 204.043Z" fill="#F9DC1B"/>
<path d="M478.752 188.161C478.777 188.252 478.788 188.294 478.788 188.294L372.876 216.672L372.841 216.54L266.93 244.919C266.93 244.919 266.923 244.894 266.912 244.853C266.646 243.993 263.993 235.448 263.306 231.395C262.577 227.121 265.927 226.091 265.927 226.091C265.927 226.091 257.873 172.608 312.341 139.608C312.341 139.608 309.029 129.333 318.38 125.72C327.731 122.106 345.86 115.847 345.86 115.847L345.896 115.98C345.896 115.98 364.715 112.329 374.622 110.791C384.53 109.254 386.797 119.799 386.797 119.799C450.467 121.144 470.233 171.489 470.233 171.489C470.233 171.489 473.652 170.715 475.156 174.771C476.563 178.535 478.494 186.998 478.752 188.161Z" fill="#F9DC1B"/>
<path opacity="0.73" d="M478.752 188.161L469.753 190.573C469.753 190.573 450.97 138.706 388.826 126.907L387.183 120.911C387.183 120.911 340.408 118.958 312.864 141.959L315.564 150.447C315.564 150.447 270.343 177.06 275.04 242.462L266.91 244.845C266.644 243.985 263.991 235.44 263.304 231.386C262.575 227.113 265.925 226.083 265.925 226.083C265.925 226.083 257.871 172.6 312.339 139.6C312.339 139.6 309.027 129.325 318.378 125.712C327.729 122.098 345.858 115.839 345.858 115.839L345.894 115.972C345.894 115.972 364.712 112.321 374.62 110.783C384.528 109.246 386.795 119.791 386.795 119.791C450.465 121.136 470.231 171.481 470.231 171.481C470.231 171.481 473.65 170.707 475.153 174.763C476.563 178.535 478.494 186.998 478.752 188.161Z" fill="white"/>
<path d="M475.162 174.761C473.658 170.705 470.24 171.479 470.24 171.479C470.24 171.479 450.473 121.134 386.803 119.789C386.803 119.789 384.536 109.243 374.629 110.781C364.721 112.319 345.894 115.972 345.894 115.972L345.859 115.839C345.859 115.839 327.727 122.089 318.378 125.711C309.029 129.334 312.339 139.6 312.339 139.6C257.872 172.6 265.925 226.083 265.925 226.083C265.925 226.083 262.578 227.122 263.304 231.386C264.03 235.651 266.93 244.919 266.93 244.919L372.841 216.54L372.877 216.673L478.788 188.294C478.788 188.294 476.668 178.826 475.162 174.761Z" stroke="#0D2232" stroke-width="9" stroke-miterlimit="10" stroke-linecap="round" stroke-linejoin="round"/>
<path d="M386.795 119.791C386.795 119.791 390.041 128.266 391.302 147.034Z" fill="#F9DC1B"/>
<path d="M386.795 119.791C386.795 119.791 390.041 128.266 391.302 147.034" stroke="#0D2232" stroke-width="9" stroke-miterlimit="10" stroke-linecap="round" stroke-linejoin="round"/>
<path d="M470.232 171.481L443.407 178.669C440.569 179.429 438.886 182.345 439.646 185.182L443.046 197.871" stroke="#0D2232" stroke-width="9" stroke-miterlimit="10" stroke-linecap="round" stroke-linejoin="round"/>
<path d="M312.339 139.6C312.339 139.6 313.765 148.562 322.057 165.446Z" fill="#F9DC1B"/>
<path d="M312.339 139.6C312.339 139.6 313.765 148.562 322.057 165.446" stroke="#0D2232" stroke-width="9" stroke-miterlimit="10" stroke-linecap="round" stroke-linejoin="round"/>
<path d="M265.926 226.083L292.751 218.895C295.588 218.135 298.504 219.818 299.264 222.655L302.664 235.344" stroke="#0D2232" stroke-width="9" stroke-miterlimit="10" stroke-linecap="round" stroke-linejoin="round"/>
<path opacity="0.74" d="M482.364 195.519C476.475 194.916 470.613 196.531 464.921 198.118C423.31 209.746 381.697 221.366 340.085 232.995C321.593 238.163 303.11 243.328 284.618 248.496C276.412 250.792 267.318 253.778 263.403 261.335C262.632 262.827 261.96 264.585 260.419 265.255C258.07 266.283 255.497 263.923 254.784 261.463C253.442 256.849 255.918 251.797 259.613 248.715C263.311 245.641 268.03 244.128 272.628 242.727C340.739 221.968 411.464 210.172 478.695 186.723C482.58 185.372 487.255 184.092 490.484 186.649C492.263 188.061 493.101 190.328 493.862 192.473C494.62 194.637 498.63 202.393 493.344 200.432C491.632 199.8 490.043 197.841 488.235 197.048C486.387 196.24 484.363 195.666 482.364 195.519Z" fill="white"/>
<path d="M496.51 204.043C496.51 204.043 486.497 203.1 474.263 206.378C462.029 209.656 280.009 258.428 280.009 258.428C280.009 258.428 263.307 262.203 259.707 267.494L256.675 256.178C255.5 251.794 258.104 247.284 262.488 246.109L483.418 186.912C487.802 185.737 492.312 188.341 493.486 192.725L496.519 204.041L496.51 204.043Z" stroke="#0D2232" stroke-width="9" stroke-miterlimit="10" stroke-linecap="round" stroke-linejoin="round"/>
<path d="M306.888 281.449C306.888 281.449 312.867 305.548 315.162 312.327C317.457 319.106 314.449 326.606 306.004 323.709C297.559 320.812 291.28 291.819 291.28 291.819C291.28 291.819 298.799 290.168 306.888 281.449Z" fill="#253B5A" stroke="#0D2232" stroke-width="9" stroke-miterlimit="10"/>
<path d="M358.104 315.592C365.431 313.628 369.78 306.096 367.816 298.769C365.853 291.441 358.321 287.092 350.993 289.056C343.666 291.019 339.317 298.551 341.281 305.879C343.244 313.207 350.776 317.555 358.104 315.592Z" fill="#0D2232"/>
<path d="M439.779 293.707C447.107 291.743 451.455 284.211 449.492 276.884C447.528 269.556 439.996 265.207 432.669 267.171C425.341 269.134 420.993 276.666 422.956 283.994C424.919 291.322 432.451 295.67 439.779 293.707Z" fill="#0D2232"/>
<g opacity="0.16">
<path d="M298.397 253.501L464.817 208.909L471.383 217.469L295.7 264.543L298.397 253.501Z" fill="black"/>
<path d="M291.28 291.82C291.28 291.82 322.689 291.187 343.711 251.688L316.528 254.725L291.28 291.82Z" fill="black"/>
<path d="M362.805 270.27C362.805 270.27 408.724 265.785 427.734 224.005L403.561 231.395L362.805 270.27Z" fill="black"/>
</g>
<path opacity="0.16" d="M476.444 262.924C476.444 262.924 483.717 347.309 401.078 380.552C401.078 380.552 493.925 369.292 481.834 279.929L476.444 262.924Z" fill="black"/>
<path d="M325.678 246.191C325.678 246.191 313.545 290.446 285.745 292.868C283.222 293.083 280.927 293.184 278.862 293.188C258.155 293.168 259.13 283.04 259.13 283.04C259.13 283.04 276.464 283.147 282.1 259.481C282.234 258.922 282.358 258.357 282.477 257.776L325.68 246.199L325.678 246.191Z" fill="#253B5A"/>
<path opacity="0.21" d="M280.255 279.56C274.038 286.102 271.01 286.78 271.01 286.78C271.01 286.78 271.113 290.804 278.862 293.188C258.155 293.168 259.13 283.04 259.13 283.04C259.13 283.04 278.013 281.118 283.649 257.453C283.741 257.729 286.403 273.09 280.255 279.56Z" fill="white"/>
<path d="M507.046 220.467C507.046 220.467 500.589 240.576 480.264 241.846C468.623 242.571 452.426 237.115 430.284 218.171L477.922 205.512C477.922 205.512 478.712 207.863 480.572 210.769C484.307 216.568 492.344 224.593 507.046 220.467Z" fill="#253B5A"/>
<path opacity="0.21" d="M507.046 220.467C507.046 220.467 500.59 240.576 480.264 241.846C482.296 240.628 484.189 239.155 485.959 237.59C489.527 234.426 492.697 230.837 496.226 227.631C491.619 228.635 486.666 226.363 483.755 222.647C481.705 220.023 479.505 215.32 480.126 211.882C480.208 211.426 480.374 211.053 480.591 210.773C484.307 216.568 492.344 224.593 507.046 220.467Z" fill="white"/>
<path d="M477.929 205.502C477.929 205.502 484.996 226.65 507.046 220.467C507.046 220.467 491.09 270.206 430.29 218.16L477.929 205.502Z" stroke="#0D2232" stroke-width="9" stroke-miterlimit="10" stroke-linecap="round" stroke-linejoin="round"/>
<path d="M408.164 224.089C408.164 224.089 405.406 254.395 362.805 270.27C362.805 270.27 366.722 254.716 361.842 236.501L408.164 224.089Z" fill="#253B5A" stroke="#0D2232" stroke-width="9" stroke-miterlimit="10" stroke-linecap="round" stroke-linejoin="round"/>
<path d="M325.677 246.191C325.677 246.191 313.545 290.446 285.753 292.866C257.96 295.286 259.127 283.031 259.127 283.031C259.127 283.031 277.286 283.139 282.48 257.757L325.675 246.183L325.677 246.191Z" stroke="#0D2232" stroke-width="9" stroke-miterlimit="10" stroke-linecap="round" stroke-linejoin="round"/>
<path d="M483.723 279.468C483.723 279.468 493.03 323.235 458.117 357.414C423.204 391.593 374.768 386.716 347.779 371.357C320.791 355.999 310.883 324.219 310.883 324.219" stroke="#0D2232" stroke-width="9" stroke-miterlimit="10"/>
<path d="M485.504 241.054C485.504 241.054 491.036 263.252 491.276 267.789C491.517 272.326 489.174 278.672 481.844 279.935C474.514 281.199 472.297 271.899 470.429 265.422C468.554 258.956 463.36 239.043 463.36 239.043C463.36 239.043 475.176 244.131 485.504 241.054Z" fill="#253B5A" stroke="#0D2232" stroke-width="9" stroke-miterlimit="10" stroke-linecap="round" stroke-linejoin="round"/>
<path d="M361.119 280.855C350.438 280.135 339.92 283.795 331.987 290.983L329.17 293.538" stroke="#0D2232" stroke-width="9" stroke-miterlimit="10" stroke-linecap="round" stroke-linejoin="round"/>
<path d="M415.77 266.211C424.66 260.247 435.599 258.158 446.063 260.417L449.78 261.22" stroke="#0D2232" stroke-width="9" stroke-miterlimit="10" stroke-linecap="round" stroke-linejoin="round"/>
<path d="M374.587 342.302C374.587 342.302 403.82 349.825 429.354 327.628" stroke="#0D2232" stroke-width="9" stroke-miterlimit="10" stroke-linecap="round" stroke-linejoin="round"/>
<g clip-path="url(#clip1_1250_361)">
<path d="M519.993 376.4C512.229 405.378 488.062 414.432 461.701 416.375C460.324 416.465 458.958 416.077 457.833 415.277C435.902 400.456 419.5 380.532 427.264 351.554L438.135 310.985C438.547 309.448 439.552 308.137 440.93 307.342C442.308 306.546 443.946 306.33 445.483 306.742C457.074 309.848 473.427 306.776 485.871 300.669C487.38 299.949 489.097 299.791 490.712 300.223C492.327 300.656 493.734 301.651 494.681 303.029C502.447 314.614 515.03 325.377 526.621 328.483C528.158 328.895 529.469 329.901 530.264 331.279C531.06 332.657 531.276 334.295 530.864 335.832L519.993 376.4Z" fill="#F9DC1B" stroke="black" stroke-width="7" stroke-linecap="round" stroke-linejoin="round"/>
<path d="M463.033 336.292C465.451 332.831 469.008 330.331 473.083 329.227C477.158 328.124 481.49 328.487 485.324 330.255C489.158 332.022 492.248 335.08 494.055 338.895C495.863 342.71 496.271 347.039 495.211 351.125C492.105 362.716 473.165 363.853 473.165 363.853" stroke="black" stroke-width="8" stroke-linecap="round" stroke-linejoin="round"/>
<path d="M467.417 387.159L467.476 387.175" stroke="black" stroke-width="8" stroke-linecap="round" stroke-linejoin="round"/>
</g>
</g>
<path d="M129.952 604V571.249H117.036V563.638H152.209V571.249H139.293V604H129.952ZM175.455 572.518C177.916 572.518 180.107 573.017 182.029 574.017C183.989 574.978 185.527 576.477 186.642 578.514C187.756 580.513 188.314 583.089 188.314 586.241V604H179.319V587.625C179.319 585.126 178.761 583.281 177.647 582.089C176.57 580.898 175.033 580.302 173.034 580.302C171.611 580.302 170.324 580.609 169.171 581.224C168.056 581.801 167.172 582.704 166.518 583.934C165.903 585.164 165.596 586.74 165.596 588.662V604H156.601V561.216H165.596V581.57L163.578 578.976C164.692 576.9 166.288 575.305 168.363 574.19C170.439 573.075 172.803 572.518 175.455 572.518ZM196.467 604V572.979H205.462V604H196.467ZM200.965 568.654C199.312 568.654 197.966 568.174 196.928 567.213C195.891 566.252 195.372 565.06 195.372 563.638C195.372 562.216 195.891 561.024 196.928 560.063C197.966 559.102 199.312 558.622 200.965 558.622C202.618 558.622 203.963 559.083 205.001 560.005C206.039 560.89 206.558 562.043 206.558 563.465C206.558 564.964 206.039 566.213 205.001 567.213C204.001 568.174 202.656 568.654 200.965 568.654ZM224.247 604.461C221.594 604.461 219.038 604.154 216.578 603.539C214.156 602.885 212.234 602.078 210.812 601.117L213.81 594.659C215.232 595.543 216.905 596.274 218.827 596.85C220.787 597.388 222.709 597.657 224.593 597.657C226.668 597.657 228.129 597.408 228.975 596.908C229.859 596.408 230.301 595.716 230.301 594.832C230.301 594.102 229.955 593.564 229.263 593.218C228.61 592.833 227.725 592.545 226.611 592.353C225.496 592.16 224.266 591.968 222.92 591.776C221.614 591.584 220.287 591.334 218.942 591.026C217.597 590.681 216.366 590.181 215.252 589.527C214.137 588.874 213.234 587.99 212.542 586.875C211.888 585.76 211.561 584.319 211.561 582.55C211.561 580.59 212.119 578.86 213.234 577.361C214.387 575.862 216.04 574.689 218.192 573.844C220.345 572.96 222.92 572.518 225.919 572.518C228.033 572.518 230.186 572.748 232.377 573.21C234.568 573.671 236.394 574.344 237.854 575.228L234.856 581.628C233.357 580.744 231.839 580.148 230.301 579.84C228.802 579.494 227.341 579.322 225.919 579.322C223.92 579.322 222.459 579.591 221.537 580.129C220.614 580.667 220.153 581.359 220.153 582.205C220.153 582.973 220.48 583.55 221.133 583.934C221.825 584.319 222.728 584.626 223.843 584.857C224.958 585.088 226.169 585.299 227.476 585.491C228.821 585.645 230.166 585.895 231.512 586.241C232.857 586.587 234.068 587.086 235.144 587.74C236.259 588.355 237.163 589.22 237.854 590.335C238.546 591.411 238.892 592.833 238.892 594.601C238.892 596.523 238.316 598.234 237.163 599.733C236.009 601.194 234.337 602.347 232.146 603.193C229.993 604.038 227.36 604.461 224.247 604.461ZM261.406 604V563.638H270.747V604H261.406ZM319.419 572.518C321.879 572.518 324.051 573.017 325.935 574.017C327.857 574.978 329.356 576.477 330.432 578.514C331.547 580.513 332.104 583.089 332.104 586.241V604H323.109V587.625C323.109 585.126 322.59 583.281 321.552 582.089C320.515 580.898 319.054 580.302 317.17 580.302C315.863 580.302 314.691 580.609 313.653 581.224C312.615 581.801 311.808 582.685 311.231 583.877C310.655 585.068 310.366 586.587 310.366 588.432V604H301.371V587.625C301.371 585.126 300.852 583.281 299.815 582.089C298.815 580.898 297.374 580.302 295.49 580.302C294.183 580.302 293.011 580.609 291.973 581.224C290.935 581.801 290.128 582.685 289.551 583.877C288.975 585.068 288.686 586.587 288.686 588.432V604H279.691V572.979H288.283V581.455L286.668 578.976C287.744 576.861 289.263 575.266 291.223 574.19C293.222 573.075 295.49 572.518 298.027 572.518C300.872 572.518 303.351 573.248 305.465 574.709C307.618 576.131 309.04 578.322 309.732 581.282L306.561 580.417C307.599 577.995 309.252 576.073 311.52 574.651C313.826 573.229 316.459 572.518 319.419 572.518ZM359.194 604V597.946L358.618 596.62V585.779C358.618 583.857 358.022 582.358 356.83 581.282C355.677 580.206 353.89 579.667 351.468 579.667C349.815 579.667 348.181 579.937 346.567 580.475C344.991 580.974 343.646 581.666 342.531 582.55L339.302 576.266C340.993 575.074 343.03 574.151 345.414 573.498C347.797 572.844 350.219 572.518 352.679 572.518C357.407 572.518 361.078 573.632 363.692 575.862C366.306 578.091 367.613 581.57 367.613 586.298V604H359.194ZM349.738 604.461C347.317 604.461 345.241 604.058 343.511 603.25C341.781 602.405 340.455 601.271 339.532 599.848C338.61 598.426 338.149 596.831 338.149 595.063C338.149 593.218 338.591 591.603 339.475 590.219C340.397 588.835 341.839 587.759 343.799 586.99C345.76 586.183 348.316 585.779 351.468 585.779H359.713V591.026H352.448C350.334 591.026 348.873 591.372 348.066 592.064C347.297 592.756 346.913 593.621 346.913 594.659C346.913 595.812 347.355 596.735 348.239 597.427C349.162 598.08 350.411 598.407 351.987 598.407C353.486 598.407 354.832 598.061 356.023 597.369C357.215 596.639 358.08 595.582 358.618 594.198L360.002 598.349C359.348 600.348 358.157 601.867 356.427 602.904C354.697 603.942 352.467 604.461 349.738 604.461ZM390.567 615.647C387.646 615.647 384.82 615.282 382.091 614.552C379.4 613.86 377.151 612.803 375.345 611.38L378.92 604.923C380.227 605.999 381.88 606.845 383.878 607.46C385.916 608.113 387.915 608.44 389.875 608.44C393.066 608.44 395.372 607.729 396.794 606.306C398.255 604.884 398.985 602.77 398.985 599.964V595.293L399.562 587.509L399.447 579.667V572.979H407.98V598.811C407.98 604.577 406.481 608.824 403.483 611.553C400.484 614.283 396.179 615.647 390.567 615.647ZM389.183 602.501C386.3 602.501 383.686 601.886 381.341 600.656C379.035 599.387 377.171 597.638 375.748 595.409C374.364 593.141 373.673 590.508 373.673 587.509C373.673 584.472 374.364 581.839 375.748 579.61C377.171 577.342 379.035 575.593 381.341 574.363C383.686 573.133 386.3 572.518 389.183 572.518C391.797 572.518 394.103 573.056 396.102 574.132C398.101 575.17 399.658 576.804 400.773 579.033C401.888 581.224 402.445 584.05 402.445 587.509C402.445 590.93 401.888 593.756 400.773 595.985C399.658 598.176 398.101 599.81 396.102 600.886C394.103 601.963 391.797 602.501 389.183 602.501ZM390.971 595.12C392.547 595.12 393.95 594.813 395.18 594.198C396.41 593.544 397.371 592.641 398.063 591.488C398.755 590.335 399.101 589.008 399.101 587.509C399.101 585.972 398.755 584.645 398.063 583.531C397.371 582.377 396.41 581.493 395.18 580.878C393.95 580.225 392.547 579.898 390.971 579.898C389.395 579.898 387.991 580.225 386.761 580.878C385.531 581.493 384.551 582.377 383.821 583.531C383.129 584.645 382.783 585.972 382.783 587.509C382.783 589.008 383.129 590.335 383.821 591.488C384.551 592.641 385.531 593.544 386.761 594.198C387.991 594.813 389.395 595.12 390.971 595.12ZM431.747 604.461C428.211 604.461 425.097 603.769 422.407 602.386C419.754 601.002 417.698 599.118 416.237 596.735C414.776 594.313 414.046 591.565 414.046 588.489C414.046 585.376 414.757 582.627 416.179 580.244C417.64 577.822 419.62 575.939 422.118 574.593C424.617 573.21 427.442 572.518 430.594 572.518C433.631 572.518 436.36 573.171 438.782 574.478C441.242 575.747 443.183 577.592 444.606 580.013C446.028 582.397 446.739 585.26 446.739 588.605C446.739 588.951 446.72 589.354 446.681 589.816C446.643 590.238 446.605 590.642 446.566 591.026H421.369V585.779H441.838L438.378 587.336C438.378 585.722 438.052 584.319 437.398 583.127C436.745 581.935 435.841 581.013 434.688 580.359C433.535 579.667 432.19 579.322 430.652 579.322C429.114 579.322 427.75 579.667 426.558 580.359C425.405 581.013 424.502 581.955 423.848 583.185C423.195 584.376 422.868 585.799 422.868 587.452V588.835C422.868 590.527 423.233 592.026 423.963 593.333C424.732 594.601 425.789 595.582 427.135 596.274C428.518 596.927 430.133 597.254 431.978 597.254C433.631 597.254 435.073 597.004 436.303 596.504C437.571 596.004 438.724 595.255 439.762 594.255L444.548 599.445C443.126 601.059 441.338 602.309 439.186 603.193C437.033 604.038 434.554 604.461 431.747 604.461ZM469.691 604V563.638H479.032V604H469.691ZM498.413 604.461C495.761 604.461 493.205 604.154 490.744 603.539C488.323 602.885 486.401 602.078 484.978 601.117L487.977 594.659C489.399 595.543 491.071 596.274 492.993 596.85C494.954 597.388 496.876 597.657 498.759 597.657C500.835 597.657 502.296 597.408 503.141 596.908C504.025 596.408 504.468 595.716 504.468 594.832C504.468 594.102 504.122 593.564 503.43 593.218C502.776 592.833 501.892 592.545 500.777 592.353C499.663 592.16 498.432 591.968 497.087 591.776C495.78 591.584 494.454 591.334 493.108 591.026C491.763 590.681 490.533 590.181 489.418 589.527C488.303 588.874 487.4 587.99 486.708 586.875C486.055 585.76 485.728 584.319 485.728 582.55C485.728 580.59 486.285 578.86 487.4 577.361C488.553 575.862 490.206 574.689 492.359 573.844C494.512 572.96 497.087 572.518 500.085 572.518C502.2 572.518 504.352 572.748 506.543 573.21C508.734 573.671 510.56 574.344 512.021 575.228L509.023 581.628C507.523 580.744 506.005 580.148 504.468 579.84C502.968 579.494 501.508 579.322 500.085 579.322C498.086 579.322 496.626 579.591 495.703 580.129C494.781 580.667 494.319 581.359 494.319 582.205C494.319 582.973 494.646 583.55 495.3 583.934C495.991 584.319 496.895 584.626 498.01 584.857C499.124 585.088 500.335 585.299 501.642 585.491C502.988 585.645 504.333 585.895 505.678 586.241C507.024 586.587 508.235 587.086 509.311 587.74C510.426 588.355 511.329 589.22 512.021 590.335C512.713 591.411 513.059 592.833 513.059 594.601C513.059 596.523 512.482 598.234 511.329 599.733C510.176 601.194 508.504 602.347 506.313 603.193C504.16 604.038 501.527 604.461 498.413 604.461ZM535.572 604V563.638H543.299L567.112 592.699H563.364V563.638H572.59V604H564.921L541.05 574.939H544.798V604H535.572ZM596.266 604.461C592.96 604.461 590.02 603.769 587.444 602.386C584.907 601.002 582.889 599.118 581.39 596.735C579.929 594.313 579.199 591.565 579.199 588.489C579.199 585.376 579.929 582.627 581.39 580.244C582.889 577.822 584.907 575.939 587.444 574.593C590.02 573.21 592.96 572.518 596.266 572.518C599.534 572.518 602.455 573.21 605.031 574.593C607.606 575.939 609.624 577.803 611.085 580.186C612.546 582.57 613.276 585.337 613.276 588.489C613.276 591.565 612.546 594.313 611.085 596.735C609.624 599.118 607.606 601.002 605.031 602.386C602.455 603.769 599.534 604.461 596.266 604.461ZM596.266 597.081C597.765 597.081 599.111 596.735 600.302 596.043C601.494 595.351 602.436 594.371 603.128 593.102C603.82 591.795 604.166 590.258 604.166 588.489C604.166 586.683 603.82 585.145 603.128 583.877C602.436 582.608 601.494 581.628 600.302 580.936C599.111 580.244 597.765 579.898 596.266 579.898C594.767 579.898 593.422 580.244 592.23 580.936C591.038 581.628 590.077 582.608 589.347 583.877C588.655 585.145 588.309 586.683 588.309 588.489C588.309 590.258 588.655 591.795 589.347 593.102C590.077 594.371 591.038 595.351 592.23 596.043C593.422 596.735 594.767 597.081 596.266 597.081ZM631.974 604.461C628.322 604.461 625.477 603.539 623.44 601.694C621.403 599.81 620.384 597.023 620.384 593.333V566.117H629.379V593.218C629.379 594.525 629.725 595.543 630.417 596.274C631.109 596.965 632.05 597.311 633.242 597.311C634.664 597.311 635.875 596.927 636.875 596.158L639.296 602.501C638.374 603.154 637.259 603.654 635.952 604C634.684 604.308 633.357 604.461 631.974 604.461ZM615.598 580.59V573.671H637.105V580.59H615.598ZM240.307 674L258.296 633.638H267.522L285.57 674H275.767L261.006 638.366H264.697L249.878 674H240.307ZM249.302 665.351L251.781 658.259H272.538L275.076 665.351H249.302ZM295.908 674L282.877 642.979H292.16L303.001 669.675H298.388L309.631 642.979H318.28L305.192 674H295.908ZM339.965 674V667.946L339.388 666.62V655.779C339.388 653.857 338.793 652.358 337.601 651.282C336.448 650.206 334.66 649.667 332.239 649.667C330.586 649.667 328.952 649.937 327.338 650.475C325.762 650.974 324.416 651.666 323.301 652.55L320.072 646.266C321.764 645.074 323.801 644.151 326.184 643.498C328.568 642.844 330.989 642.518 333.45 642.518C338.178 642.518 341.849 643.632 344.463 645.862C347.076 648.091 348.383 651.57 348.383 656.298V674H339.965ZM330.509 674.461C328.087 674.461 326.011 674.058 324.282 673.25C322.552 672.405 321.226 671.271 320.303 669.848C319.38 668.426 318.919 666.831 318.919 665.063C318.919 663.218 319.361 661.603 320.245 660.219C321.168 658.835 322.609 657.759 324.57 656.99C326.53 656.183 329.087 655.779 332.239 655.779H340.484V661.026H333.219C331.105 661.026 329.644 661.372 328.837 662.064C328.068 662.756 327.684 663.621 327.684 664.659C327.684 665.812 328.126 666.735 329.01 667.427C329.932 668.08 331.182 668.407 332.758 668.407C334.257 668.407 335.602 668.061 336.794 667.369C337.985 666.639 338.85 665.582 339.388 664.198L340.772 668.349C340.119 670.348 338.927 671.867 337.197 672.904C335.468 673.942 333.238 674.461 330.509 674.461ZM356.524 674V642.979H365.519V674H356.524ZM361.022 638.654C359.369 638.654 358.023 638.174 356.986 637.213C355.948 636.252 355.429 635.06 355.429 633.638C355.429 632.216 355.948 631.024 356.986 630.063C358.023 629.102 359.369 628.622 361.022 628.622C362.675 628.622 364.02 629.083 365.058 630.005C366.096 630.89 366.615 632.043 366.615 633.465C366.615 634.964 366.096 636.213 365.058 637.213C364.059 638.174 362.713 638.654 361.022 638.654ZM373.867 674V631.216H382.862V674H373.867ZM410.238 674V667.946L409.662 666.62V655.779C409.662 653.857 409.066 652.358 407.874 651.282C406.721 650.206 404.934 649.667 402.512 649.667C400.859 649.667 399.225 649.937 397.611 650.475C396.035 650.974 394.689 651.666 393.574 652.55L390.346 646.266C392.037 645.074 394.074 644.151 396.457 643.498C398.841 642.844 401.262 642.518 403.723 642.518C408.451 642.518 412.122 643.632 414.736 645.862C417.35 648.091 418.657 651.57 418.657 656.298V674H410.238ZM400.782 674.461C398.36 674.461 396.284 674.058 394.555 673.25C392.825 672.405 391.499 671.271 390.576 669.848C389.654 668.426 389.192 666.831 389.192 665.063C389.192 663.218 389.634 661.603 390.518 660.219C391.441 658.835 392.883 657.759 394.843 656.99C396.803 656.183 399.36 655.779 402.512 655.779H410.757V661.026H403.492C401.378 661.026 399.917 661.372 399.11 662.064C398.341 662.756 397.957 663.621 397.957 664.659C397.957 665.812 398.399 666.735 399.283 667.427C400.205 668.08 401.455 668.407 403.031 668.407C404.53 668.407 405.875 668.061 407.067 667.369C408.259 666.639 409.123 665.582 409.662 664.198L411.045 668.349C410.392 670.348 409.2 671.867 407.471 672.904C405.741 673.942 403.511 674.461 400.782 674.461ZM445.133 674.461C442.404 674.461 440.059 673.885 438.099 672.731C436.138 671.578 434.639 669.829 433.601 667.484C432.563 665.101 432.045 662.103 432.045 658.489C432.045 654.838 432.583 651.839 433.659 649.494C434.774 647.15 436.311 645.401 438.272 644.247C440.232 643.094 442.519 642.518 445.133 642.518C448.055 642.518 450.669 643.171 452.975 644.478C455.32 645.785 457.165 647.63 458.51 650.013C459.894 652.397 460.586 655.222 460.586 658.489C460.586 661.718 459.894 664.525 458.51 666.908C457.165 669.291 455.32 671.155 452.975 672.501C450.669 673.808 448.055 674.461 445.133 674.461ZM426.797 674V631.216H435.792V649.264L435.216 658.432L435.389 667.657V674H426.797ZM443.577 667.081C445.076 667.081 446.402 666.735 447.555 666.043C448.747 665.351 449.688 664.371 450.38 663.102C451.111 661.795 451.476 660.258 451.476 658.489C451.476 656.683 451.111 655.145 450.38 653.877C449.688 652.608 448.747 651.628 447.555 650.936C446.402 650.244 445.076 649.898 443.577 649.898C442.077 649.898 440.732 650.244 439.54 650.936C438.349 651.628 437.407 652.608 436.715 653.877C436.023 655.145 435.677 656.683 435.677 658.489C435.677 660.258 436.023 661.795 436.715 663.102C437.407 664.371 438.349 665.351 439.54 666.043C440.732 666.735 442.077 667.081 443.577 667.081ZM466.608 674V631.216H475.603V674H466.608ZM499.346 674.461C495.809 674.461 492.696 673.769 490.005 672.386C487.353 671.002 485.296 669.118 483.835 666.735C482.375 664.313 481.644 661.565 481.644 658.489C481.644 655.376 482.355 652.627 483.778 650.244C485.238 647.822 487.218 645.939 489.717 644.593C492.215 643.21 495.041 642.518 498.193 642.518C501.229 642.518 503.959 643.171 506.38 644.478C508.841 645.747 510.782 647.592 512.204 650.013C513.626 652.397 514.338 655.26 514.338 658.605C514.338 658.951 514.318 659.354 514.28 659.816C514.241 660.238 514.203 660.642 514.165 661.026H488.967V655.779H509.436L505.977 657.336C505.977 655.722 505.65 654.319 504.997 653.127C504.343 651.935 503.44 651.013 502.287 650.359C501.133 649.667 499.788 649.322 498.25 649.322C496.713 649.322 495.348 649.667 494.157 650.359C493.003 651.013 492.1 651.955 491.446 653.185C490.793 654.376 490.466 655.799 490.466 657.452V658.835C490.466 660.527 490.831 662.026 491.562 663.333C492.331 664.601 493.388 665.582 494.733 666.274C496.117 666.927 497.731 667.254 499.577 667.254C501.229 667.254 502.671 667.004 503.901 666.504C505.17 666.004 506.323 665.255 507.361 664.255L512.146 669.445C510.724 671.059 508.937 672.309 506.784 673.193C504.631 674.038 502.152 674.461 499.346 674.461Z" fill="black"/>
<defs>
<clipPath id="clip0_1250_361">
<rect width="360" height="360" fill="white" transform="translate(202 68)"/>
</clipPath>
<clipPath id="clip1_1250_361">
<rect width="144" height="144" fill="white" transform="translate(424.27 270) rotate(15)"/>
</clipPath>
</defs>
</svg>
