<svg width="452" height="722" viewBox="0 0 452 722" fill="none" xmlns="http://www.w3.org/2000/svg">
<g clip-path="url(#clip0_1252_235)">
<path d="M123.532 656.609H196.962V635.109H123.532V656.609Z" fill="#435F84" stroke="#0D2232" stroke-width="6" stroke-miterlimit="10" stroke-linecap="round" stroke-linejoin="round"/>
<path d="M334.44 595.45V636.39L353.73 656.63L372.37 636.39L372.33 535.57H357.23L334.44 595.45Z" fill="#AFCADC"/>
<path d="M353.411 632.47C357.404 632.47 360.641 629.233 360.641 625.24C360.641 621.247 357.404 618.01 353.411 618.01C349.418 618.01 346.181 621.247 346.181 625.24C346.181 629.233 349.418 632.47 353.411 632.47Z" stroke="#0D2232" stroke-width="4" stroke-miterlimit="10" stroke-linecap="round" stroke-linejoin="round"/>
<path opacity="0.2" d="M372.37 536.66H365.73V632.47L353.79 644.4L341.37 631.97V542.92L334.44 543.38V636.39L354.21 656.15L373.17 637.19L372.37 536.66Z" fill="black"/>
<path d="M334.44 595.45V636.39L353.73 656.63L372.37 636.39V536.66H357.26L334.44 595.45Z" stroke="#0D2232" stroke-width="4" stroke-miterlimit="10" stroke-linecap="round" stroke-linejoin="round"/>
<path d="M354.31 145.08C354.31 145.08 348.33 150.43 321.91 152.63C295.48 154.83 109.52 160.42 109.52 160.42L98.0702 154.83C98.0702 154.83 71.7602 153.38 68.0302 145.08C64.3002 136.78 158.1 103.87 158.1 103.87L276.61 100.25L303.67 111.02L354.31 145.08Z" fill="#CFB300"/>
<path d="M354.31 145.08C354.31 145.08 348.33 150.43 321.91 152.63C295.48 154.83 109.52 160.42 109.52 160.42L98.0702 154.83C98.0702 154.83 71.7602 153.38 68.0302 145.08C64.3002 136.78 158.1 103.87 158.1 103.87L276.61 100.25L303.67 111.02L354.31 145.08Z" stroke="#0D2232" stroke-width="6" stroke-miterlimit="10" stroke-linecap="round" stroke-linejoin="round"/>
<path d="M99.1101 193.85C99.1101 193.85 68.9201 197.47 72.6901 232.39C76.4701 267.31 119.95 260.02 119.95 260.02L116.21 209.89L99.1101 193.85Z" fill="#FBC6A6" stroke="#0D2232" stroke-width="6" stroke-miterlimit="10"/>
<path d="M330.72 193.85C330.72 193.85 353.69 197.63 355.42 223.11C357.15 248.59 328.81 271.1 306.64 262.2C284.47 253.3 300.83 215.24 300.83 215.24L330.72 193.85Z" fill="#FBC6A6" stroke="#0D2232" stroke-width="6" stroke-miterlimit="10"/>
<path opacity="0.4" d="M328.67 208.95C328.67 208.95 340.6 215.27 335.51 229.01C328.39 248.26 313.88 242.92 313.88 242.92L318.28 219.01L328.67 208.95Z" fill="black"/>
<path opacity="0.4" d="M94.7302 208.95C94.7302 208.95 82.8002 215.27 87.8902 229.01C95.0102 248.26 109.52 242.92 109.52 242.92L105.12 219.01L94.7302 208.95Z" fill="black"/>
<path d="M317.09 197.62V226.29C317.09 226.29 316.83 231.26 315.01 238.95C310.93 256.19 299.02 287.11 264.65 306.47C259.76 309.22 254.84 311.51 249.91 313.37C235.59 318.78 221.25 320.61 207.58 319.85C178.13 318.21 151.87 304.54 135.98 288.85C110.18 263.37 108.61 224.53 108.61 224.53V170.25L139.13 133.44L295.88 135.33L315.2 157.98L317.09 197.62Z" fill="#FBC6A6"/>
<path opacity="0.5" d="M155.6 292.89C175.92 307.55 194.97 315.04 209.59 318.86C180.14 317.22 153.88 303.55 137.99 287.86C112.19 262.38 110.62 223.54 110.62 223.54V213.94L119.08 207.32C119.07 207.32 111.56 261.11 155.6 292.89Z" fill="white"/>
<path opacity="0.5" d="M312.01 238.95C307.93 256.19 296.02 287.11 261.65 306.47C256.76 309.22 251.84 311.51 246.91 313.37C264.4 299.74 292.87 274.61 301.6 249.63C304.56 241.18 308.19 238.31 312.01 238.95Z" fill="white"/>
<path d="M354.31 145.08C354.31 145.08 343.3 140.99 328.51 140.99C313.72 140.99 93.6698 140.99 93.6698 140.99C93.6698 140.99 73.6898 140.2 68.0298 145.08V131.4C68.0298 126.1 72.3298 121.8 77.6298 121.8H344.72C350.02 121.8 354.32 126.1 354.32 131.4V145.08H354.31Z" fill="#F9DC1B"/>
<path d="M339.08 121.8C339.08 121.91 339.08 121.96 339.08 121.96H211.04V121.8H83.0002C83.0002 121.8 83.0002 121.77 83.0002 121.72C82.9602 120.67 82.5502 110.23 83.0002 105.45C83.4702 100.41 87.5602 100.26 87.5602 100.26C87.5602 100.26 94.6402 37.4998 166.05 16.7398C166.05 16.7398 165.42 4.14981 177.06 2.89981C188.7 1.63981 211.04 0.0698242 211.04 0.0698242V0.229813C211.04 0.229813 233.37 1.79981 245.01 3.05981C256.65 4.31981 256.02 16.8998 256.02 16.8998C327.43 37.6598 334.51 100.42 334.51 100.42C334.51 100.42 338.6 100.58 339.07 105.61C339.52 110.28 339.14 120.41 339.08 121.8Z" fill="#F9DC1B"/>
<path opacity="0.73" d="M339.08 121.8H328.2C328.2 121.8 322.69 57.6201 256.16 25.5301L256.12 18.2701C256.12 18.2701 203.95 1.93006 165.93 19.5501L166.41 29.9401C166.41 29.9401 107.36 46.2901 92.8902 121.48L83.0002 121.71C82.9602 120.66 82.5502 110.22 83.0002 105.44C83.4702 100.4 87.5602 100.25 87.5602 100.25C87.5602 100.25 94.6402 37.4901 166.05 16.7301C166.05 16.7301 165.42 4.14006 177.06 2.89006C188.7 1.63006 211.04 0.0600586 211.04 0.0600586V0.220062C211.04 0.220062 233.37 1.79006 245.01 3.05006C256.65 4.31006 256.02 16.8901 256.02 16.8901C327.43 37.6501 334.51 100.41 334.51 100.41C334.51 100.41 338.6 100.57 339.07 105.6C339.52 110.28 339.14 120.41 339.08 121.8Z" fill="white"/>
<path d="M339.08 105.6C338.61 100.57 334.52 100.41 334.52 100.41C334.52 100.41 327.44 37.6501 256.03 16.8901C256.03 16.8901 256.66 4.31006 245.02 3.05006C233.38 1.79006 211.04 0.220062 211.04 0.220062V0.0600586C211.04 0.0600586 188.7 1.63006 177.06 2.89006C165.42 4.15006 166.05 16.7301 166.05 16.7301C94.6399 37.4901 87.5599 100.25 87.5599 100.25C87.5599 100.25 83.4699 100.41 82.9999 105.44C82.5299 110.47 82.9999 121.8 82.9999 121.8H211.04V121.96H339.08C339.08 121.96 339.55 110.64 339.08 105.6Z" stroke="#0D2232" stroke-width="6" stroke-miterlimit="10" stroke-linecap="round" stroke-linejoin="round"/>
<path d="M255.4 329.86H285.73V495.54H135.98V329.86H255.4Z" fill="white"/>
<path d="M259.2 336.67H165.66V437.55H259.2V336.67Z" fill="#F9DC1B"/>
<path d="M285.73 458.73H135.98V495.54H285.73V458.73Z" fill="#F9DC1B"/>
<path d="M237.18 317.8C237.18 317.8 207.8 324.09 187.78 317.8L180.86 348.74L199.11 355.55C199.11 355.55 211.18 360.58 225.86 355.55C240.54 350.52 245.16 335.84 245.16 335.84L237.18 317.8Z" fill="#FBC6A6" stroke="#0D2232" stroke-width="6" stroke-miterlimit="10"/>
<path d="M256.22 351.83C255.43 363.68 253.53 374.64 253.53 374.64L225.84 355.55C225.84 355.55 229.01 348.04 231.62 340.6C233.14 336.25 234.48 331.91 234.86 329.12C235.91 321.57 237.17 317.8 237.17 317.8C237.17 317.8 253.32 316.96 255.83 331.85C256.79 337.41 256.7 344.77 256.22 351.83Z" fill="#435F84"/>
<path d="M256.22 351.83C249.09 351.3 240.79 347.75 236.51 344.71C234.79 343.48 233.11 342.12 231.62 340.6C233.14 336.25 234.48 331.91 234.86 329.12C235.91 321.57 237.17 317.8 237.17 317.8C237.17 317.8 253.32 316.96 255.83 331.85C256.79 337.41 256.7 344.77 256.22 351.83Z" fill="#253B5A"/>
<path d="M237.18 317.8C237.18 317.8 253.33 316.96 255.85 331.85C258.37 346.74 253.54 374.63 253.54 374.63L225.86 355.54C225.86 355.54 233.83 336.66 234.88 329.11C235.92 321.57 237.18 317.8 237.18 317.8Z" stroke="#0D2232" stroke-width="6" stroke-miterlimit="10"/>
<path d="M168.73 351.83C169.52 363.68 171.42 374.64 171.42 374.64L199.11 355.55C199.11 355.55 195.94 348.04 193.33 340.6C191.81 336.25 190.47 331.91 190.09 329.12C189.04 321.57 187.78 317.8 187.78 317.8C187.78 317.8 171.63 316.96 169.12 331.85C168.17 337.41 168.26 344.77 168.73 351.83Z" fill="#435F84"/>
<path d="M168.73 351.83C175.86 351.3 184.16 347.75 188.44 344.71C190.16 343.48 191.84 342.12 193.33 340.6C191.81 336.25 190.47 331.91 190.09 329.12C189.04 321.57 187.78 317.8 187.78 317.8C187.78 317.8 171.63 316.96 169.12 331.85C168.17 337.41 168.26 344.77 168.73 351.83Z" fill="#253B5A"/>
<path d="M187.78 317.8C187.78 317.8 171.63 316.96 169.11 331.85C166.59 346.74 171.42 374.63 171.42 374.63L199.1 355.54C199.1 355.54 191.13 336.66 190.08 329.11C189.03 321.56 187.78 317.8 187.78 317.8Z" stroke="#0D2232" stroke-width="6" stroke-miterlimit="10"/>
<path d="M190.62 389.31H151.61V424.96H190.62V389.31Z" fill="#F9DC1B" stroke="#0D2232" stroke-width="6" stroke-miterlimit="10"/>
<path d="M190.62 403.37H151.61" stroke="#0D2232" stroke-width="6" stroke-miterlimit="10"/>
<path d="M256.03 16.8901C256.03 16.8901 257.13 27.4301 252.88 48.9801L256.03 16.8901Z" fill="#F9DC1B"/>
<path d="M256.03 16.8901C256.03 16.8901 257.13 27.4301 252.88 48.9801" stroke="#0D2232" stroke-width="6" stroke-miterlimit="10" stroke-linecap="round" stroke-linejoin="round"/>
<path d="M334.52 100.41H302.09C298.66 100.41 295.88 103.19 295.88 106.62V121.96" stroke="#0D2232" stroke-width="6" stroke-miterlimit="10" stroke-linecap="round" stroke-linejoin="round"/>
<path d="M166.05 16.73C166.05 16.73 164.95 27.27 169.2 48.82L166.05 16.73Z" fill="#F9DC1B"/>
<path d="M166.05 16.73C166.05 16.73 164.95 27.27 169.2 48.82" stroke="#0D2232" stroke-width="6" stroke-miterlimit="10" stroke-linecap="round" stroke-linejoin="round"/>
<path d="M87.5601 100.25H119.99C123.42 100.25 126.2 103.03 126.2 106.46V121.8" stroke="#0D2232" stroke-width="6" stroke-miterlimit="10" stroke-linecap="round" stroke-linejoin="round"/>
<path opacity="0.74" d="M340.94 131.19C334.48 128.73 327.38 128.78 320.48 128.85C270.03 129.39 219.58 129.92 169.13 130.46C146.71 130.7 124.3 130.94 101.88 131.18C91.9301 131.29 80.7701 131.91 74.0701 139.25C72.7501 140.7 71.4601 142.48 69.5201 142.77C66.5601 143.22 64.3701 139.78 64.3101 136.79C64.1901 131.18 68.51 126.23 73.61 123.87C78.71 121.52 84.4901 121.24 90.1001 121.05C173.2 118.22 256.54 126.29 339.46 120.16C344.25 119.81 349.91 119.78 352.78 123.64C354.36 125.77 354.62 128.58 354.83 131.23C355.03 133.9 357.21 143.86 351.84 140.05C350.1 138.82 348.9 136.13 347.1 134.69C345.26 133.22 343.14 131.96 340.94 131.19Z" fill="white"/>
<path d="M354.31 145.08C354.31 145.08 343.3 140.99 328.51 140.99C313.72 140.99 93.6698 140.99 93.6698 140.99C93.6698 140.99 73.6898 140.2 68.0298 145.08V131.4C68.0298 126.1 72.3298 121.8 77.6298 121.8H344.72C350.02 121.8 354.32 126.1 354.32 131.4V145.08H354.31Z" stroke="#0D2232" stroke-width="6" stroke-miterlimit="10" stroke-linecap="round" stroke-linejoin="round"/>
<path d="M117.04 175.08C117.04 175.08 116.5 204.07 117.04 212.41C117.58 220.75 111.92 228.3 103.27 222.48C94.62 216.66 96.2999 182.06 96.2999 182.06C96.2999 182.06 105.27 182.47 117.04 175.08Z" fill="#253B5A" stroke="#0D2232" stroke-width="6" stroke-miterlimit="10"/>
<path d="M164.48 221.47C173.339 221.47 180.52 214.289 180.52 205.43C180.52 196.571 173.339 189.39 164.48 189.39C155.622 189.39 148.44 196.571 148.44 205.43C148.44 214.289 155.622 221.47 164.48 221.47Z" fill="#0D2232"/>
<path d="M259.3 221.47C268.159 221.47 275.34 214.289 275.34 205.43C275.34 196.571 268.159 189.39 259.3 189.39C250.442 189.39 243.26 196.571 243.26 205.43C243.26 214.289 250.442 221.47 259.3 221.47Z" fill="#0D2232"/>
<path d="M280.17 177.19C278.88 177.19 277.59 176.75 276.54 175.84C276.05 175.43 265.27 166.47 249.47 168.94C246.43 169.42 243.58 167.34 243.11 164.3C242.63 161.26 244.71 158.41 247.75 157.94C268.84 154.64 283.23 166.89 283.83 167.42C286.15 169.44 286.4 172.96 284.38 175.28C283.28 176.54 281.73 177.19 280.17 177.19Z" fill="#0D2232"/>
<path d="M144.09 177.19C145.38 177.19 146.67 176.75 147.72 175.84C148.21 175.43 158.99 166.47 174.79 168.94C177.83 169.42 180.68 167.34 181.15 164.3C181.63 161.26 179.55 158.41 176.51 157.94C155.42 154.64 141.03 166.89 140.43 167.42C138.11 169.44 137.86 172.96 139.88 175.28C140.98 176.54 142.53 177.19 144.09 177.19Z" fill="#0D2232"/>
<path d="M261.53 252.87C257.34 260.56 251.18 268.93 242.38 275.09C234.61 280.53 224.78 284.24 212.43 284.24C198.96 284.24 188.53 279.82 180.51 273.57C172.82 267.58 167.35 259.89 163.54 252.79C160.21 246.56 162.2 239.46 167.07 235.51C169.41 233.61 172.41 232.44 175.8 232.44H249.32C252.71 232.44 255.71 233.61 258.05 235.51C262.94 239.48 264.93 246.64 261.53 252.87Z" fill="#162336"/>
<path d="M241.21 249.64C225.43 249.64 178.03 249.64 178.03 249.64C178.03 249.64 165.4 250.12 167.07 235.51C169.41 233.61 172.41 232.44 175.8 232.44H249.32C252.71 232.44 255.71 233.61 258.05 235.51C258.23 235.66 256.99 249.64 241.21 249.64Z" fill="white"/>
<path d="M242.38 275.09C234.61 280.53 224.78 284.24 212.43 284.24C198.96 284.24 188.53 279.82 180.51 273.57C185.24 263.16 202.75 259.68 220.4 260.65C233.99 261.39 239.9 269.42 242.38 275.09Z" fill="#DD1010"/>
<path d="M175.8 232.44H249.32C259.81 232.44 266.55 243.66 261.53 252.87C253.63 267.36 238.77 284.24 212.43 284.24C186.04 284.24 171.32 267.3 163.54 252.79C158.61 243.58 165.35 232.44 175.8 232.44Z" stroke="#0D2232" stroke-width="6" stroke-miterlimit="10"/>
<path d="M285.73 495.54H135.98V529.41H285.73V495.54Z" fill="#253B5A" stroke="#0D2232" stroke-width="6" stroke-miterlimit="10"/>
<path d="M236.55 495.54H189.15V529.41H236.55V495.54Z" fill="#C3CDD4" stroke="#0D2232" stroke-width="6" stroke-miterlimit="10"/>
<path d="M354.55 706H357.91C359.53 706 360.85 707.31 360.85 708.94V717.59C360.85 719.99 358.9 721.94 356.5 721.94H280.11L264.49 711.45V721.94H225.74C223.34 721.94 221.39 719.99 221.39 717.59V701.13C221.39 698.84 223.25 696.98 225.54 696.99H226.98L328.61 696.1L354.55 706Z" fill="#484D60" stroke="#0D2232" stroke-width="6" stroke-miterlimit="10" stroke-linecap="round" stroke-linejoin="round"/>
<path d="M356.12 702.23L354.55 706H284.55L266.46 696.98H226.96C226.96 696.98 225.15 688.28 226.67 677.5C227.61 670.81 229.84 663.32 234.58 656.61H294.77L299.49 661.65C299.49 661.65 307.98 661.96 308.61 669.83C308.61 669.83 310.1 669.08 312.67 668.26C317.74 666.64 327 664.71 337.24 667.63C352.66 672.03 359.9 691.85 356.12 702.23Z" fill="#E89F02"/>
<path d="M250.1 696.99H226.96C226.96 696.99 225.15 688.29 226.67 677.51C226.76 677.5 226.86 677.5 226.96 677.49C250.07 676.33 250.1 696.99 250.1 696.99Z" fill="#834526"/>
<path opacity="0.75" d="M356.12 702.23L354.55 706H344.48C344.48 706 353.44 673.71 312.68 668.25C317.75 666.63 327.01 664.7 337.25 667.62C352.66 672.03 359.9 691.85 356.12 702.23Z" fill="white"/>
<path d="M294.78 656.61L299.5 661.64C299.5 661.64 307.99 661.95 308.62 669.82C308.62 669.82 321.83 663.21 337.25 667.62C352.67 672.02 359.9 691.84 356.13 702.23L354.56 706.01H284.56L266.47 696.99H226.97C226.97 696.99 222.22 674.13 234.59 656.62H294.78V656.61Z" stroke="#0D2232" stroke-width="6" stroke-miterlimit="10" stroke-linecap="round" stroke-linejoin="round"/>
<path d="M308.62 669.83C308.62 669.83 288.38 676.44 284.55 706.01" stroke="#0D2232" stroke-width="6" stroke-miterlimit="10" stroke-linecap="round" stroke-linejoin="round"/>
<path d="M299.49 661.65C299.49 661.65 285.33 664.48 280.09 677.48" stroke="#0D2232" stroke-width="6" stroke-miterlimit="10" stroke-linecap="round" stroke-linejoin="round"/>
<path d="M299.5 635.12H226.07V656.62H299.5V635.12Z" fill="#435F84" stroke="#0D2232" stroke-width="6" stroke-miterlimit="10" stroke-linecap="round" stroke-linejoin="round"/>
<path d="M292.89 635.12L284.39 529.41H211.51V549.97L221.37 549.34L231.86 635.12H292.89Z" fill="#435F84" stroke="#0D2232" stroke-width="6" stroke-miterlimit="10" stroke-linecap="round" stroke-linejoin="round"/>
<path d="M68.4802 706H65.1202C63.5002 706 62.1802 707.31 62.1802 708.94V717.59C62.1802 719.99 64.1302 721.94 66.5302 721.94H142.92L158.54 711.45V721.94H197.29C199.69 721.94 201.64 719.99 201.64 717.59V701.13C201.64 698.84 199.78 696.98 197.49 696.99H196.05L94.4202 696.1L68.4802 706Z" fill="#484D60" stroke="#0D2232" stroke-width="6" stroke-miterlimit="10" stroke-linecap="round" stroke-linejoin="round"/>
<path d="M66.8999 702.23L68.4699 706H138.47L156.56 696.98H196.06C196.06 696.98 197.87 688.28 196.35 677.5C195.41 670.81 193.18 663.32 188.44 656.61H128.25L123.53 661.65C123.53 661.65 115.04 661.96 114.41 669.83C114.41 669.83 112.92 669.08 110.35 668.26C105.28 666.64 96.0199 664.71 85.7799 667.63C70.3699 672.03 63.1299 691.85 66.8999 702.23Z" fill="#E89F02"/>
<path d="M172.92 696.99H196.06C196.06 696.99 197.87 688.29 196.35 677.51C196.26 677.5 196.16 677.5 196.06 677.49C172.96 676.33 172.92 696.99 172.92 696.99Z" fill="#834526"/>
<path opacity="0.75" d="M66.9 702.23L68.47 706H78.54C78.54 706 69.58 673.71 110.34 668.25C105.27 666.63 96.01 664.7 85.77 667.62C70.37 672.03 63.13 691.85 66.9 702.23Z" fill="white"/>
<path d="M128.25 656.61L123.53 661.64C123.53 661.64 115.04 661.95 114.41 669.82C114.41 669.82 101.2 663.21 85.7802 667.62C70.3602 672.02 63.1302 691.84 66.9002 702.23L68.4702 706.01H138.47L156.56 696.99H196.06C196.06 696.99 200.81 674.13 188.44 656.62H128.25V656.61Z" stroke="#0D2232" stroke-width="6" stroke-miterlimit="10" stroke-linecap="round" stroke-linejoin="round"/>
<path d="M114.41 669.83C114.41 669.83 134.65 676.44 138.48 706.01" stroke="#0D2232" stroke-width="6" stroke-miterlimit="10" stroke-linecap="round" stroke-linejoin="round"/>
<path d="M123.53 661.65C123.53 661.65 137.69 664.48 142.93 677.48" stroke="#0D2232" stroke-width="6" stroke-miterlimit="10" stroke-linecap="round" stroke-linejoin="round"/>
<path d="M130.14 635.12L138.63 529.41H211.51V549.97L201.66 549.34L191.17 635.12H130.14Z" fill="#435F84" stroke="#0D2232" stroke-width="6" stroke-miterlimit="10" stroke-linecap="round" stroke-linejoin="round"/>
<path d="M93.9102 417.93C93.9102 417.93 80.6202 427.9 56.2102 419.72C31.8002 411.54 24.7202 383.65 24.7202 383.65V376.63L25.9102 376.45L67.3902 370.17H71.3102L84.6102 363.11L91.3002 393.94L92.0302 400.71L93.9102 417.93Z" fill="#FBC6A6"/>
<path opacity="0.16" d="M93.9102 417.93C93.9102 417.93 80.6202 427.9 56.2102 419.72C31.8002 411.54 24.7202 383.65 24.7202 383.65V376.63L25.9102 376.45C33.2602 384.96 41.8002 392.45 51.1902 398.63C53.9402 400.43 56.7702 402.14 59.8202 403.37C68.0202 406.68 77.2402 406.21 85.5202 403.45C87.6502 402.74 89.7402 401.87 91.7502 400.87C91.8402 400.83 91.9302 400.78 92.0302 400.71L93.9102 417.93Z" fill="black"/>
<path d="M71.3202 370.16H67.4002L24.7202 376.63V383.66C24.7202 383.66 31.8002 411.55 56.2102 419.73C80.6202 427.91 93.9102 417.94 93.9102 417.94L91.3102 393.94L84.6202 363.11L71.3202 370.16Z" stroke="#0D2232" stroke-width="6" stroke-miterlimit="10" stroke-linecap="round" stroke-linejoin="round"/>
<path d="M123.72 415.11L98.1302 426.85L75.1802 378.32L68.9702 365.19L93.5102 353.03L100.27 366.92L123.72 415.11Z" fill="#435F84"/>
<path opacity="0.21" d="M100.27 366.92L100.24 366.96L75.1802 378.32L68.9702 365.19L93.5102 353.03L100.27 366.92Z" fill="white"/>
<path d="M135.99 336.67V403.37L121.41 410.92L100.24 366.96L95.8198 357.78L135.99 336.67Z" fill="#F9DC1B"/>
<path opacity="0.5" d="M135.99 336.67V348.62L100.24 366.96L95.8198 357.78L135.99 336.67Z" fill="white"/>
<path d="M63.9402 351.82C63.9402 351.82 73.1702 361.85 67.5102 374.64C67.5102 374.64 65.2002 383.66 50.9402 383.66H22.3102C18.3102 383.66 14.5602 382.6 11.3202 380.74C4.67019 376.93 0.180176 369.75 0.180176 361.54V325.04C0.180176 312.82 10.0902 302.92 22.3102 302.92H53.2402C53.2402 302.92 68.9702 302.5 70.6502 315.5C70.6502 315.5 73.3702 325.78 64.3602 328.71C64.3602 328.7 80.3002 340.74 63.9402 351.82Z" fill="#FBC6A6"/>
<path opacity="0.5" d="M70.6502 315.49C70.6502 315.49 64.5702 311.72 48.0002 311.72C31.4302 311.72 27.2402 311.72 27.2402 311.72C27.2402 311.72 11.0902 310.46 11.3002 324.93C11.4602 336.13 11.3702 367.24 11.3202 380.73C4.67019 376.92 0.180176 369.74 0.180176 361.53V325.03C0.180176 312.81 10.0902 302.91 22.3102 302.91H53.2402C53.2502 302.91 68.9702 302.48 70.6502 315.49Z" fill="white"/>
<path d="M63.9402 351.82C63.9402 351.82 73.1702 361.85 67.5102 374.64C67.5102 374.64 65.2002 383.66 50.9402 383.66H22.3102C10.0902 383.66 0.180176 373.75 0.180176 361.53V325.04C0.180176 312.82 10.0902 302.91 22.3102 302.91H53.2502C53.2502 302.91 68.9802 302.49 70.6602 315.49C70.6602 315.49 73.3902 325.77 64.3702 328.7C64.3602 328.7 80.3002 340.74 63.9402 351.82Z" stroke="#0D2232" stroke-width="6" stroke-miterlimit="10" stroke-linecap="round" stroke-linejoin="round"/>
<path d="M28.5 328.65H64.36" stroke="#0D2232" stroke-width="6" stroke-miterlimit="10" stroke-linecap="round" stroke-linejoin="round"/>
<path d="M28.5 351.82H64.36" stroke="#0D2232" stroke-width="6" stroke-miterlimit="10" stroke-linecap="round" stroke-linejoin="round"/>
<path d="M56.21 303.1V283.83C56.21 275.13 49.16 268.09 40.47 268.09C31.77 268.09 24.73 275.14 24.73 283.83V302.9L56.21 303.1Z" fill="#FBC6A6"/>
<path d="M56.21 303.1V283.83C56.21 275.13 49.16 268.09 40.47 268.09C31.77 268.09 24.73 275.14 24.73 283.83V302.9L56.21 303.1Z" stroke="#0D2232" stroke-width="6" stroke-miterlimit="10" stroke-linecap="round" stroke-linejoin="round"/>
<path d="M328.33 417.93C328.33 417.93 341.62 427.9 366.03 419.72C390.44 411.54 397.52 383.65 397.52 383.65V376.63L396.33 376.45L354.85 370.17H350.93L337.63 363.11L330.94 393.94L330.21 400.71L328.33 417.93Z" fill="#FBC6A6"/>
<path opacity="0.16" d="M328.33 417.93C328.33 417.93 341.62 427.9 366.03 419.72C390.44 411.54 397.52 383.65 397.52 383.65V376.63L396.33 376.45C388.98 384.96 380.44 392.45 371.05 398.63C368.3 400.43 365.47 402.14 362.42 403.37C354.22 406.68 345 406.21 336.72 403.45C334.59 402.74 332.5 401.87 330.49 400.87C330.4 400.83 330.31 400.78 330.21 400.71L328.33 417.93Z" fill="black"/>
<path d="M350.92 370.16H354.84L397.52 376.63V383.66C397.52 383.66 390.44 411.55 366.03 419.73C341.62 427.91 328.33 417.94 328.33 417.94L330.93 393.94L337.62 363.11L350.92 370.16Z" stroke="#0D2232" stroke-width="6" stroke-miterlimit="10" stroke-linecap="round" stroke-linejoin="round"/>
<path d="M298.53 415.11L324.12 426.85L347.06 378.32L353.27 365.19L328.73 353.03L321.97 366.92L298.53 415.11Z" fill="#435F84"/>
<path opacity="0.21" d="M321.97 366.92L322 366.96L347.06 378.32L353.27 365.19L328.73 353.03L321.97 366.92Z" fill="white"/>
<path d="M286.26 336.67V403.37L300.84 410.92L322 366.96L326.42 357.78L286.26 336.67Z" fill="#F9DC1B"/>
<path opacity="0.5" d="M286.26 336.67V348.62L322 366.96L326.42 357.78L286.26 336.67Z" fill="white"/>
<path d="M358.3 351.82C358.3 351.82 349.07 361.85 354.73 374.64C354.73 374.64 357.04 383.66 371.3 383.66H399.93C403.93 383.66 407.68 382.6 410.92 380.74C417.57 376.93 422.06 369.75 422.06 361.54V325.04C422.06 312.82 412.15 302.92 399.93 302.92H369C369 302.92 353.27 302.5 351.59 315.5C351.59 315.5 348.87 325.78 357.88 328.71C357.88 328.7 341.94 340.74 358.3 351.82Z" fill="#FBC6A6"/>
<path opacity="0.5" d="M351.59 315.49C351.59 315.49 357.67 311.72 374.24 311.72C390.81 311.72 395 311.72 395 311.72C395 311.72 411.15 310.46 410.94 324.93C410.78 336.13 410.87 367.24 410.92 380.73C417.57 376.92 422.06 369.74 422.06 361.53V325.03C422.06 312.81 412.15 302.91 399.93 302.91H369C369 302.91 353.27 302.48 351.59 315.49Z" fill="white"/>
<path d="M358.3 351.82C358.3 351.82 349.07 361.85 354.73 374.64C354.73 374.64 357.04 383.66 371.3 383.66H399.93C412.15 383.66 422.06 373.75 422.06 361.53V325.04C422.06 312.82 412.15 302.91 399.93 302.91H369C369 302.91 353.27 302.49 351.59 315.49C351.59 315.49 348.86 325.77 357.88 328.7C357.88 328.7 341.94 340.74 358.3 351.82Z" stroke="#0D2232" stroke-width="6" stroke-miterlimit="10" stroke-linecap="round" stroke-linejoin="round"/>
<path d="M393.75 328.65H357.88" stroke="#0D2232" stroke-width="6" stroke-miterlimit="10" stroke-linecap="round" stroke-linejoin="round"/>
<path d="M393.75 351.82H357.88" stroke="#0D2232" stroke-width="6" stroke-miterlimit="10" stroke-linecap="round" stroke-linejoin="round"/>
<path d="M366.03 303.1V283.83C366.03 275.13 373.08 268.09 381.77 268.09C390.47 268.09 397.51 275.14 397.51 283.83V302.9L366.03 303.1Z" fill="#FBC6A6"/>
<path d="M366.03 303.1V283.83C366.03 275.13 373.08 268.09 381.77 268.09C390.47 268.09 397.51 275.14 397.51 283.83V302.9L366.03 303.1Z" stroke="#0D2232" stroke-width="6" stroke-miterlimit="10" stroke-linecap="round" stroke-linejoin="round"/>
<g opacity="0.16">
<path d="M115.9 140.99H317.09L321.91 152.63H109.52L115.9 140.99Z" fill="black"/>
<path d="M96.29 182.06C96.29 182.06 131.91 190.84 167.56 152.64L135.98 147.85L96.29 182.06Z" fill="black"/>
<path d="M183.49 179.37C183.49 179.37 236.64 188.19 270.71 146.81L241.21 147.84L183.49 179.37Z" fill="black"/>
</g>
<path opacity="0.16" d="M313.89 205.43C313.89 205.43 296.59 302.81 193.33 315.33C193.33 315.33 301.46 330.69 314.83 226.24L313.89 205.43Z" fill="black"/>
<path d="M309.45 393.02L286.26 383.65V403.37L300.84 410.92L309.45 393.02Z" fill="#E89F02"/>
<path d="M135.98 373L108.61 384.35L121.41 410.92L135.98 403.37V373Z" fill="#E89F02"/>
<path d="M279.71 477.14H141.9V489.43H279.71V477.14Z" fill="#E89F02"/>
<path d="M255.83 329.86H286.26V495.54H135.98V329.86H165.77" stroke="#0D2232" stroke-width="6" stroke-miterlimit="10"/>
<path d="M328.73 353.03L298.53 415.11L324.12 426.86L353.27 365.19L328.73 353.03Z" stroke="#0D2232" stroke-width="6" stroke-miterlimit="10" stroke-linecap="round" stroke-linejoin="round"/>
<path d="M93.51 353.03L123.71 415.11L98.13 426.86L68.98 365.19L93.51 353.03Z" stroke="#0D2232" stroke-width="6" stroke-miterlimit="10" stroke-linecap="round" stroke-linejoin="round"/>
<path d="M148.88 140.99C148.88 140.99 121.82 187.24 89.7302 181.57C86.8202 181.05 84.2002 180.47 81.8702 179.85C58.5202 173.57 62.6802 162.44 62.6802 162.44C62.6802 162.44 82.2002 167.8 95.7102 142.81C96.0302 142.22 96.3402 141.62 96.6502 141H148.88V140.99Z" fill="#253B5A"/>
<path opacity="0.21" d="M87.5602 164.9C78.5702 170.4 74.9502 170.25 74.9502 170.25C74.9502 170.25 73.8502 174.82 81.8702 179.85C58.5202 173.57 62.6802 162.44 62.6802 162.44C62.6802 162.44 84.5602 165.98 98.0702 140.99C98.0902 141.33 96.4602 159.46 87.5602 164.9Z" fill="white"/>
<path d="M361.23 166.79C361.23 166.79 347.87 187.52 324.56 182.81C311.21 180.11 294.59 169.06 275.34 141L332.9 141.12C332.9 141.12 333.08 144.01 334.3 147.85C336.76 155.52 343.41 167 361.23 166.79Z" fill="#253B5A"/>
<path opacity="0.21" d="M361.23 166.79C361.23 166.79 347.87 187.52 324.56 182.81C327.22 182.05 329.8 180.96 332.27 179.73C337.25 177.24 341.91 174.15 346.86 171.6C341.36 171.34 336.46 167.28 334.3 162.21C332.78 158.63 331.72 152.66 333.46 148.97C333.69 148.48 333.99 148.11 334.32 147.86C336.76 155.52 343.41 167 361.23 166.79Z" fill="white"/>
<path d="M332.91 141.11C332.91 141.11 334.49 167.1 361.23 166.79C361.23 166.79 328.2 218.07 275.35 140.99L332.91 141.11Z" stroke="#0D2232" stroke-width="6" stroke-miterlimit="10" stroke-linecap="round" stroke-linejoin="round"/>
<path d="M248.61 140.99C248.61 140.99 236.34 174.34 183.49 179.37C183.49 179.37 192.61 163.01 192.61 140.99H248.61Z" fill="#253B5A" stroke="#0D2232" stroke-width="6" stroke-miterlimit="10" stroke-linecap="round" stroke-linejoin="round"/>
<path d="M148.88 140.99C148.88 140.99 121.82 187.24 89.7398 181.57C57.6598 175.9 62.6798 162.43 62.6798 162.43C62.6798 162.43 83.1298 168.04 96.6598 140.98H148.88V140.99Z" stroke="#0D2232" stroke-width="6" stroke-miterlimit="10" stroke-linecap="round" stroke-linejoin="round"/>
<path d="M317.09 226.29C317.09 226.29 314.36 278.47 264.65 306.47C214.94 334.47 161.78 314.33 135.98 288.85C110.18 263.37 108.61 224.53 108.61 224.53" stroke="#0D2232" stroke-width="6" stroke-miterlimit="10"/>
<path d="M330.72 183.5C330.72 183.5 330.25 210.21 329.15 215.4C328.05 220.59 323.49 227.04 314.84 226.25C306.19 225.46 306.5 214.3 306.35 206.43C306.19 198.57 306.35 174.54 306.35 174.54C306.35 174.54 318.13 183.85 330.72 183.5Z" fill="#253B5A" stroke="#0D2232" stroke-width="6" stroke-miterlimit="10" stroke-linecap="round" stroke-linejoin="round"/>
<path d="M229.35 529.41L252.2 656.61H234.58H226.07V635.12H231.86L221.37 546L211.51 549.97V529.41H229.35Z" fill="#253B5A"/>
<path d="M175.35 635.12L171.11 656.61H196.96V635.12H191.17L201.66 546L211.51 549.97V529.41H189.15L175.35 635.12Z" fill="#253B5A"/>
<path d="M221.37 549.34L233.74 547.87" stroke="#0D2232" stroke-width="6" stroke-miterlimit="10" stroke-linecap="round" stroke-linejoin="round"/>
<path d="M201.66 549.34L189.28 547.87" stroke="#0D2232" stroke-width="6" stroke-miterlimit="10" stroke-linecap="round" stroke-linejoin="round"/>
<path d="M284.39 529.41H270.93L280.09 635.12H286.26V656.61H299.49V635.12H292.89L284.39 529.41Z" fill="#C3CDD4"/>
<path d="M139.29 529.41H152.76L143.59 635.12H137.43V656.61H124.19V635.12H130.8L139.29 529.41Z" fill="#C3CDD4"/>
<path d="M299.5 635.12H226.07V656.62H299.5V635.12Z" stroke="#0D2232" stroke-width="6" stroke-miterlimit="10" stroke-linecap="round" stroke-linejoin="round"/>
<path d="M292.89 635.12L284.39 529.41H211.51V549.97L221.37 549.34L231.86 635.12H292.89Z" stroke="#0D2232" stroke-width="6" stroke-miterlimit="10" stroke-linecap="round" stroke-linejoin="round"/>
<path d="M130.14 635.12L138.63 529.41H211.51V549.97L201.66 549.34L191.17 635.12H130.14Z" stroke="#0D2232" stroke-width="6" stroke-miterlimit="10" stroke-linecap="round" stroke-linejoin="round"/>
<path d="M362.37 542.09H345.17V607.23H362.37V542.09Z" fill="#E89F02"/>
<path d="M451.82 521.34V531.68C451.82 534.43 449.58 536.66 446.83 536.66H368.36C365.61 536.66 363.38 534.43 363.38 531.68V521.34C363.38 520.74 363.49 520.16 363.68 519.63C364.37 517.72 366.21 516.35 368.36 516.35H446.83C448.98 516.35 450.82 517.72 451.52 519.63C451.71 520.16 451.82 520.74 451.82 521.34Z" fill="#AFCADC"/>
<path opacity="0.2" d="M363.37 530.58V531.68C363.37 534.43 365.6 536.67 368.35 536.67H446.82C449.57 536.67 451.8 534.44 451.8 531.68V530.58H363.37Z" fill="black"/>
<path opacity="0.7" d="M451.51 519.63H363.67C364.36 517.72 366.2 516.35 368.35 516.35H446.82C448.98 516.35 450.81 517.71 451.51 519.63Z" fill="white"/>
<path d="M451.82 521.34V531.68C451.82 534.43 449.58 536.66 446.83 536.66H368.36C365.61 536.66 363.38 534.43 363.38 531.68V521.34C363.38 520.74 363.49 520.16 363.68 519.63C364.37 517.72 366.21 516.35 368.36 516.35H446.83C448.98 516.35 450.82 517.72 451.52 519.63C451.71 520.16 451.82 520.74 451.82 521.34Z" stroke="#0D2232" stroke-width="4" stroke-miterlimit="10" stroke-linecap="round" stroke-linejoin="round"/>
<path d="M277.87 535.02C277.87 535.02 299.08 551.73 363.37 545.31" stroke="white" stroke-miterlimit="10"/>
<path d="M259.87 495.16V583.88L271.44 595.45H350.51L339.91 587.09L340.55 495.16H259.87Z" fill="#F9DC1B"/>
<path d="M269.51 495.16V578.32L276.26 587.09H357.26L350.51 595.45H271.44L259.87 583.88V495.16H269.51Z" fill="#E89F02"/>
<path d="M272.08 507.52H266.94V512.66H272.08V507.52Z" fill="white"/>
<path d="M272.08 523.93H266.94V529.07H272.08V523.93Z" fill="white"/>
<path d="M272.08 540.35H266.94V545.49H272.08V540.35Z" fill="white"/>
<path d="M272.08 556.76H266.94V561.9H272.08V556.76Z" fill="white"/>
<path d="M272.08 573.17H266.94V578.31H272.08V573.17Z" fill="white"/>
<path d="M340.55 530.2V495.16H259.87V583.88L271.44 595.45H343.44" stroke="#0D2232" stroke-width="4" stroke-miterlimit="10" stroke-linecap="round" stroke-linejoin="round"/>
<path d="M289.43 450.67V467.93C289.43 469.27 288.34 470.36 287.01 470.36H277.64C276.3 470.36 275.21 469.27 275.21 467.93V450.67C275.21 449.33 276.3 448.25 277.64 448.25H287.01C288.35 448.24 289.43 449.33 289.43 450.67Z" fill="#AFCADC"/>
<path d="M287.01 470.53H277.64C276.21 470.53 275.04 469.37 275.04 467.93V450.67C275.04 449.24 276.2 448.08 277.64 448.08H287.01C288.44 448.08 289.6 449.24 289.6 450.67V467.93C289.6 469.36 288.44 470.53 287.01 470.53ZM277.64 448.41C276.4 448.41 275.38 449.42 275.38 450.66V467.92C275.38 469.16 276.39 470.18 277.64 470.18H287.01C288.25 470.18 289.26 469.17 289.26 467.92V450.66C289.26 449.42 288.25 448.41 287.01 448.41H277.64Z" fill="#000072"/>
<g opacity="0.2">
<path d="M289.43 464.1V467.93C289.43 469.27 288.34 470.36 287.01 470.36H277.64C276.3 470.36 275.21 469.27 275.21 467.93V464.1C275.21 465.44 276.3 466.53 277.64 466.53H287.01C288.35 466.52 289.43 465.44 289.43 464.1Z" fill="black"/>
</g>
<g opacity="0.55">
<path d="M289.43 450.67V453.38C289.43 452.04 288.34 450.96 287.01 450.96H277.64C276.3 450.96 275.21 452.05 275.21 453.38V450.67C275.21 449.33 276.3 448.25 277.64 448.25H287.01C288.35 448.24 289.43 449.33 289.43 450.67Z" fill="white"/>
</g>
<path d="M299.88 465.7H289.43V453.43H298.3L299.88 465.7Z" fill="#AFCADC"/>
<path d="M300.08 465.87H289.27V453.26H298.46L300.08 465.87ZM289.6 465.53H299.69L298.15 453.6H289.6V465.53Z" fill="#000072"/>
<path d="M349.04 463.89C348.89 465.64 346.83 466.51 345.5 465.36C338.03 458.94 326.99 462.56 324.74 471.72C324.36 473.25 323.02 474.33 321.45 474.33H303.98C302.28 474.33 300.84 473.07 300.63 471.38L299.9 465.7L298.32 453.43L297.79 449.29C297.53 447.27 299.11 445.47 301.15 445.47H329.8C341.39 445.48 349.82 454.43 349.04 463.89Z" fill="#AFCADC"/>
<path d="M321.45 474.5H303.98C302.2 474.5 300.68 473.17 300.46 471.4L297.61 449.31C297.48 448.3 297.79 447.28 298.47 446.51C299.14 445.74 300.12 445.3 301.14 445.3H329.79C335.62 445.3 341.09 447.61 344.8 451.63C348.02 455.13 349.6 459.48 349.23 463.89C349.16 464.77 348.6 465.53 347.79 465.86C346.97 466.2 346.08 466.05 345.41 465.47C341.94 462.49 337.37 461.52 333.16 462.86C329.04 464.18 325.96 467.5 324.92 471.74C324.51 473.38 323.08 474.5 321.45 474.5ZM301.12 445.65C300.2 445.65 299.32 446.05 298.71 446.74C298.1 447.43 297.82 448.36 297.94 449.27L300.79 471.36C301 472.96 302.37 474.16 303.98 474.16H321.45C322.93 474.16 324.22 473.14 324.58 471.68C325.65 467.32 328.81 463.91 333.04 462.55C337.36 461.17 342.06 462.17 345.61 465.22C346.18 465.71 346.94 465.84 347.64 465.55C348.35 465.26 348.81 464.63 348.87 463.87C349.22 459.55 347.68 455.29 344.52 451.87C340.88 447.92 335.5 445.65 329.76 445.65H301.12Z" fill="#000072"/>
<g opacity="0.2">
<path d="M349.04 463.89C348.89 465.64 346.83 466.51 345.5 465.36C338.03 458.94 326.99 462.56 324.74 471.72C324.36 473.25 323.02 474.33 321.45 474.33H303.98C302.28 474.33 300.84 473.07 300.63 471.38L300.45 470.02C300.9 470.24 301.39 470.36 301.92 470.36H319.39C320.96 470.36 322.31 469.27 322.68 467.75C324.93 458.59 335.97 454.96 343.44 461.39C344.77 462.54 346.83 461.67 346.98 459.92C347.16 457.76 346.85 455.62 346.14 453.61C348.26 456.63 349.34 460.22 349.04 463.89Z" fill="black"/>
</g>
<g opacity="0.55">
<path d="M344.97 452.11C341.63 449.46 337.21 447.79 332.2 447.79H303.55C301.51 447.79 299.93 449.58 300.19 451.61L300.72 455.75L302.3 468.02L303.03 473.7C303.05 473.89 303.09 474.07 303.15 474.24C301.82 473.92 300.79 472.8 300.6 471.39L299.87 465.71L298.29 453.44L297.76 449.3C297.5 447.28 299.08 445.48 301.12 445.48H329.77C336.11 445.48 341.51 448.15 344.97 452.11Z" fill="white"/>
</g>
<g opacity="0.55">
<path d="M289.43 453.38H275.78V457.16H289.43V453.38Z" fill="white"/>
</g>
<path d="M321.14 474.33H305.06V515.37H321.14V474.33Z" fill="#435F84" stroke="#0D2232" stroke-width="4" stroke-miterlimit="10" stroke-linecap="round" stroke-linejoin="round"/>
<g opacity="0.2">
<path d="M305.1 481.54C305.57 481.55 305.99 481.72 306.38 481.93C306.77 482.14 307.13 482.41 307.47 482.7C308.15 483.27 308.77 483.91 309.28 484.65C310.3 486.11 310.88 487.76 311.9 489.05C312.4 489.69 313.03 490.21 313.75 490.6C314.47 490.98 315.27 491.24 316.08 491.41C316.9 491.58 317.74 491.68 318.59 491.76C319.01 491.8 319.44 491.83 319.87 491.84C320.3 491.87 320.74 491.93 321.14 492.21C321.2 492.25 321.21 492.33 321.17 492.39C321.16 492.41 321.14 492.42 321.12 492.43H321.11C320.65 492.63 320.24 492.59 319.81 492.56C319.39 492.5 318.96 492.47 318.53 492.43C317.67 492.35 316.8 492.25 315.94 492.07C315.08 491.89 314.22 491.62 313.43 491.2C312.64 490.78 311.92 490.18 311.36 489.47C310.24 488.05 309.67 486.39 308.71 485.04C308.23 484.37 307.67 483.75 307.01 483.25C306.68 483 306.34 482.77 305.99 482.54C305.65 482.31 305.3 482.08 304.99 481.75C304.94 481.7 304.94 481.63 304.99 481.58C305.04 481.55 305.07 481.53 305.1 481.54Z" fill="#371A45"/>
<path d="M321.16 489C320.28 489.48 319.25 489.5 318.28 489.36C317.31 489.22 316.35 488.98 315.47 488.53C315.02 488.32 314.61 488.04 314.22 487.74C313.84 487.42 313.47 487.08 313.18 486.67C312.55 485.88 312.22 484.89 312.03 483.95C311.84 483 311.75 482.07 311.49 481.21C311.36 480.78 311.19 480.38 310.95 480.01C310.84 479.82 310.7 479.65 310.57 479.48C310.42 479.32 310.28 479.15 310.11 479.01C309.46 478.41 308.64 478 307.78 477.79C307.35 477.68 306.9 477.64 306.47 477.67C306.03 477.7 305.62 477.77 305.12 477.7H305.11C305.09 477.7 305.06 477.69 305.03 477.68L305.01 477.67C304.94 477.65 304.9 477.59 304.92 477.52C304.93 477.5 304.94 477.48 304.95 477.46C304.98 477.43 305 477.41 305.03 477.39H305.02C305.42 477.05 305.95 476.94 306.45 476.94C306.95 476.96 307.45 476.99 307.94 477.12C308.91 477.35 309.83 477.82 310.57 478.49C311.32 479.14 311.88 480.06 312.15 481C312.43 481.95 312.52 482.9 312.7 483.8C312.88 484.7 313.17 485.55 313.72 486.24C313.98 486.6 314.31 486.9 314.65 487.19C315.01 487.46 315.38 487.71 315.79 487.9C316.59 488.3 317.48 488.55 318.38 488.64C318.6 488.67 318.83 488.66 319.06 488.68C319.29 488.67 319.51 488.69 319.74 488.68C320.19 488.69 320.64 488.64 321.14 488.75H321.15C321.21 488.76 321.25 488.83 321.24 488.89C321.21 488.96 321.19 488.98 321.16 489Z" fill="#371A45"/>
<path d="M321.17 484.31C320.91 484.56 320.59 484.67 320.26 484.72C320.1 484.75 319.93 484.76 319.76 484.75C319.59 484.74 319.43 484.72 319.27 484.71C318.62 484.62 317.98 484.45 317.39 484.17C316.21 483.62 315.19 482.74 314.48 481.66C313.76 480.58 313.35 479.32 313.2 478.05C313.13 477.41 313.12 476.77 313.17 476.14C313.19 475.82 313.24 475.51 313.27 475.19C313.3 474.87 313.37 474.56 313.61 474.29V474.31C313.65 474.27 313.68 474.22 313.73 474.19C313.8 474.14 313.89 474.16 313.94 474.22L313.95 474.23V474.24C313.98 474.29 313.99 474.33 314.01 474.37V474.39C314.1 474.72 314.04 475.01 313.97 475.3C313.9 475.59 313.87 475.89 313.85 476.19C313.8 476.79 313.81 477.38 313.88 477.98C314.01 479.16 314.4 480.31 315.05 481.29C315.7 482.27 316.62 483.07 317.68 483.56C318.21 483.8 318.77 483.98 319.35 484.01C319.64 484.02 319.92 484.03 320.21 484.02C320.5 484.02 320.78 484.01 321.12 484.09C321.19 484.11 321.23 484.18 321.21 484.25C321.2 484.27 321.18 484.29 321.17 484.31Z" fill="#371A45"/>
<path d="M317.09 474.39C317.14 474.65 317.08 474.85 317.01 475.04C316.94 475.23 316.85 475.4 316.77 475.58C316.61 475.94 316.51 476.31 316.45 476.69C316.35 477.43 316.5 478.22 316.92 478.81C317.13 479.1 317.41 479.33 317.73 479.47C318.05 479.61 318.42 479.67 318.79 479.65C319.16 479.64 319.54 479.56 319.9 479.44C320.08 479.39 320.26 479.28 320.43 479.18C320.61 479.09 320.79 479.02 321.08 479.14H321.09C321.17 479.17 321.21 479.25 321.19 479.33C321.12 479.63 320.92 479.74 320.73 479.83C320.63 479.87 320.53 479.9 320.43 479.95C320.33 480 320.23 480.04 320.13 480.07C319.71 480.21 319.27 480.31 318.82 480.32C318.37 480.34 317.9 480.27 317.46 480.08C317.03 479.89 316.64 479.57 316.37 479.19C315.83 478.42 315.66 477.47 315.78 476.58C315.84 476.14 315.98 475.71 316.12 475.3C316.19 475.09 316.27 474.89 316.39 474.71C316.5 474.53 316.65 474.36 316.9 474.27C316.98 474.24 317.06 474.28 317.09 474.36C317.08 474.37 317.09 474.38 317.09 474.39Z" fill="#371A45"/>
<path d="M305.08 487.44C305.63 487.37 306.19 487.55 306.65 487.83C307.12 488.1 307.53 488.47 307.89 488.86C308.61 489.65 309.19 490.52 309.74 491.37C310.29 492.22 310.85 493.06 311.54 493.74C312.23 494.42 313.09 494.91 313.99 495.36C314.89 495.81 315.85 496.23 316.72 496.86C317.58 497.49 318.31 498.28 318.89 499.16C319.48 500.03 319.93 500.97 320.33 501.92C320.53 502.4 320.72 502.87 320.92 503.34C321.11 503.82 321.28 504.3 321.23 504.86C321.22 504.93 321.16 504.98 321.1 504.97C321.07 504.97 321.04 504.95 321.02 504.94C320.61 504.55 320.42 504.07 320.24 503.6C320.08 503.12 319.89 502.65 319.7 502.18C319.31 501.25 318.87 500.35 318.32 499.53C317.78 498.7 317.1 497.98 316.32 497.4C315.53 496.83 314.61 496.42 313.69 495.96C312.77 495.51 311.83 494.98 311.06 494.22C310.3 493.47 309.72 492.59 309.16 491.74C308.6 490.89 308.07 490.04 307.38 489.34C307.03 489 306.66 488.69 306.27 488.42C305.88 488.14 305.48 487.93 305.03 487.66C304.97 487.63 304.95 487.55 304.99 487.5C305.01 487.47 305.05 487.45 305.08 487.44Z" fill="#371A45"/>
<path d="M316.92 494.25C317.1 494.15 317.23 494.17 317.34 494.21C317.45 494.25 317.54 494.32 317.64 494.39C317.83 494.53 318.03 494.64 318.22 494.77C318.6 495.03 318.98 495.3 319.34 495.58C319.7 495.86 320.06 496.16 320.4 496.47C320.57 496.63 320.74 496.79 320.9 496.95C320.98 497.03 321.06 497.12 321.16 497.18C321.24 497.26 321.32 497.35 321.22 497.6C321.19 497.68 321.13 497.73 321.06 497.75C320.81 497.83 320.72 497.76 320.65 497.68C320.59 497.58 320.51 497.51 320.43 497.43C320.27 497.27 320.11 497.12 319.95 496.97C319.62 496.67 319.28 496.38 318.93 496.11C318.58 495.84 318.22 495.58 317.85 495.33C317.66 495.21 317.48 495.08 317.28 494.98C317.18 494.93 317.08 494.89 316.99 494.81C316.9 494.74 316.83 494.64 316.82 494.44C316.81 494.36 316.85 494.29 316.92 494.25Z" fill="#371A45"/>
<path d="M305.13 491.96C305.71 492.2 306.13 492.73 306.42 493.26C306.71 493.8 306.89 494.38 307.05 494.93C307.21 495.49 307.37 496.03 307.59 496.54C307.8 497.05 308.07 497.53 308.42 497.92C308.77 498.31 309.22 498.58 309.72 498.76C310.22 498.93 310.78 499.01 311.34 499.06C311.91 499.11 312.49 499.13 313.08 499.21C313.67 499.29 314.28 499.42 314.85 499.7C315.42 499.98 315.92 500.4 316.29 500.89C316.67 501.38 316.94 501.94 317.16 502.49C317.59 503.61 317.81 504.76 318.11 505.86C318.4 506.96 318.82 508.01 319.38 508.99C319.65 509.48 319.96 509.96 320.31 510.4C320.65 510.85 320.99 511.29 321.21 511.87C321.23 511.93 321.2 512 321.14 512.03C321.11 512.04 321.07 512.04 321.05 512.03C320.47 511.77 320.08 511.31 319.73 510.83C319.4 510.34 319.08 509.84 318.79 509.32C318.21 508.29 317.76 507.18 317.46 506.04C317.15 504.91 316.93 503.78 316.53 502.74C316.33 502.22 316.08 501.73 315.75 501.31C315.43 500.89 315.02 500.54 314.54 500.31C313.59 499.84 312.43 499.84 311.27 499.74C310.68 499.69 310.08 499.61 309.49 499.41C308.9 499.21 308.33 498.86 307.91 498.38C307.06 497.43 306.73 496.22 306.37 495.14C306.19 494.59 306 494.07 305.78 493.57C305.55 493.07 305.3 492.62 304.98 492.13C304.94 492.08 304.96 492 305.01 491.97C305.05 491.94 305.1 491.94 305.13 491.96Z" fill="#371A45"/>
<path d="M305.09 501.69C305.54 501.63 305.93 501.64 306.35 501.65L307.6 501.68C308.45 501.68 309.34 501.65 310.22 501.81C310.66 501.89 311.11 502.01 311.53 502.21C311.95 502.41 312.35 502.69 312.66 503.06C312.98 503.42 313.19 503.86 313.33 504.3C313.47 504.74 313.53 505.19 313.57 505.63C313.63 506.52 313.61 507.36 313.67 508.2C313.72 509.04 313.81 509.88 313.97 510.7C314.13 511.52 314.37 512.32 314.7 513.08C314.87 513.46 315.05 513.83 315.29 514.16C315.51 514.51 315.73 514.84 315.82 515.31C315.83 515.38 315.79 515.45 315.72 515.46C315.7 515.46 315.67 515.46 315.65 515.45C315.18 515.28 314.9 514.91 314.67 514.53C314.46 514.14 314.25 513.75 314.07 513.34C313.72 512.53 313.47 511.68 313.3 510.82C313.13 509.96 313.04 509.1 312.98 508.23C312.92 507.37 312.94 506.5 312.88 505.68C312.82 504.86 312.63 504.06 312.13 503.5C311.64 502.92 310.88 502.61 310.09 502.48C309.29 502.34 308.46 502.34 307.6 502.38C307.17 502.4 306.73 502.41 306.29 502.35C305.85 502.3 305.4 502.19 305.02 501.91C304.97 501.87 304.96 501.79 305 501.74C305.03 501.71 305.05 501.69 305.09 501.69Z" fill="#371A45"/>
<path d="M316.31 509.16C316.52 509.24 316.61 509.36 316.67 509.49C316.74 509.62 316.78 509.75 316.81 509.89C316.89 510.16 317.01 510.43 317.11 510.69C317.33 511.22 317.56 511.74 317.82 512.24C318.08 512.75 318.35 513.25 318.65 513.74C318.8 513.98 318.95 514.22 319.11 514.46C319.19 514.58 319.27 514.7 319.37 514.8C319.46 514.91 319.53 515.04 319.41 515.29C319.38 515.37 319.3 515.41 319.23 515.42C318.95 515.44 318.86 515.33 318.78 515.2C318.72 515.06 318.64 514.94 318.55 514.82C318.39 514.57 318.23 514.33 318.08 514.07C317.78 513.57 317.49 513.05 317.23 512.53C316.97 512.01 316.72 511.47 316.5 510.93C316.38 510.66 316.29 510.38 316.17 510.11C316.11 509.98 316.05 509.84 316.02 509.7C315.99 509.55 315.99 509.4 316.11 509.21C316.14 509.16 316.23 509.13 316.31 509.16Z" fill="#371A45"/>
<path d="M305.04 505.61C305.3 505.38 305.59 505.29 305.89 505.23C306.19 505.17 306.5 505.17 306.82 505.2C307.44 505.24 308.08 505.36 308.66 505.65C309.24 505.94 309.73 506.38 310.1 506.88C310.47 507.39 310.75 507.95 310.93 508.54C311.31 509.72 311.34 510.98 311.12 512.18C311.01 512.78 310.84 513.37 310.61 513.93L310.25 514.77C310.12 515.04 309.94 515.3 309.59 515.43C309.52 515.46 309.43 515.42 309.41 515.34C309.41 515.33 309.4 515.32 309.4 515.31V515.3C309.34 514.92 309.48 514.69 309.61 514.43C309.76 514.19 309.88 513.93 309.98 513.67C310.19 513.15 310.35 512.6 310.45 512.05C310.65 510.95 310.62 509.8 310.28 508.74C309.95 507.69 309.3 506.72 308.34 506.24C307.87 506 307.33 505.88 306.79 505.88C306.52 505.88 306.24 505.91 305.96 505.91C305.68 505.92 305.4 505.92 305.08 505.81C305.01 505.79 304.98 505.71 305 505.64C305.01 505.65 305.02 505.63 305.04 505.61Z" fill="#371A45"/>
<path d="M305.03 509.32C305.15 509.11 305.35 509.03 305.54 509C305.73 508.97 305.93 508.99 306.11 509.04C306.48 509.13 306.85 509.28 307.15 509.54C307.75 510.05 308.05 510.82 308.01 511.59C307.99 511.97 307.86 512.37 307.66 512.68C307.46 513 307.2 513.27 306.93 513.5C306.66 513.73 306.37 513.92 306.09 514.1C305.95 514.19 305.8 514.28 305.68 514.39C305.54 514.48 305.39 514.56 305.13 514.44C305.05 514.41 305.01 514.33 305.01 514.25C305.03 513.95 305.16 513.86 305.3 513.78C305.45 513.71 305.59 513.63 305.73 513.54C306 513.36 306.27 513.18 306.5 512.99C306.98 512.6 307.32 512.12 307.34 511.56C307.37 511.01 307.14 510.42 306.72 510.07C306.51 509.9 306.26 509.77 305.98 509.74C305.84 509.73 305.7 509.73 305.57 509.71C305.43 509.7 305.29 509.67 305.1 509.54L305.09 509.53C305.01 509.48 304.99 509.39 305.03 509.32Z" fill="#371A45"/>
</g>
<g opacity="0.55">
<path d="M307.45 515.37H305.06V479.99H305.4C306.53 479.99 307.45 480.91 307.45 482.04V515.37Z" fill="white"/>
</g>
<g opacity="0.3">
<path d="M321.14 474.33V515.37H317.33V483.84C317.33 481.74 315.63 480.04 313.53 480.04H305.06V474.33H321.14Z" fill="#371A45"/>
</g>
<path d="M324.86 518.76V560.05C324.86 561.92 323.34 563.43 321.48 563.43H304.89C304.33 563.43 303.8 563.29 303.34 563.05C302.25 562.49 301.51 561.35 301.51 560.04V518.75C301.51 516.88 303.03 515.37 304.89 515.37H321.48C323.34 515.37 324.86 516.89 324.86 518.76Z" fill="#F9DC1B"/>
<path d="M321.48 563.61H304.89C304.32 563.61 303.76 563.47 303.26 563.22L303.17 563.17C302.04 562.55 301.34 561.37 301.34 560.06V518.77C301.34 516.81 302.93 515.22 304.89 515.22H321.48C323.44 515.22 325.03 516.81 325.03 518.77V560.06C325.03 562.01 323.44 563.61 321.48 563.61ZM303.51 562.96C303.94 563.16 304.41 563.27 304.89 563.27H321.48C323.25 563.27 324.7 561.83 324.7 560.05V518.76C324.7 516.99 323.26 515.54 321.48 515.54H304.89C303.12 515.54 301.67 516.98 301.67 518.76V560.05C301.67 561.26 302.34 562.35 303.41 562.91L303.51 562.96Z" fill="#000072"/>
<path d="M324.86 518.76V560.05C324.86 561.92 323.34 563.43 321.48 563.43H315.97C317.84 563.43 319.35 561.91 319.35 560.05V518.76C319.35 516.89 317.83 515.38 315.97 515.38H321.48C323.34 515.37 324.86 516.89 324.86 518.76Z" fill="#E89F02"/>
<path d="M321.48 563.61H315.97V563.27C317.74 563.27 319.19 561.83 319.19 560.05V518.76C319.19 516.99 317.75 515.54 315.97 515.54V515.2H321.48C323.44 515.2 325.03 516.79 325.03 518.75V560.04C325.03 562.01 323.44 563.61 321.48 563.61ZM317.48 563.27H321.47C323.24 563.27 324.69 561.83 324.69 560.05V518.76C324.69 516.99 323.25 515.54 321.47 515.54H317.48C318.69 516.11 319.52 517.34 319.52 518.76V560.05C319.52 561.47 318.69 562.7 317.48 563.27Z" fill="#E89F02"/>
<g opacity="0.55">
<path d="M305.9 563.06C306.36 563.3 306.89 563.44 307.45 563.44H304.89C304.33 563.44 303.8 563.3 303.34 563.06C302.25 562.5 301.51 561.36 301.51 560.05V518.76C301.51 516.89 303.03 515.38 304.89 515.38H307.45C305.58 515.38 304.07 516.9 304.07 518.76V560.05C304.06 561.36 304.81 562.5 305.9 563.06Z" fill="white"/>
</g>
<g opacity="0.2">
<path d="M291.69 453.43L293.95 465.7H289.43V453.43H291.69Z" fill="black"/>
</g>
<g opacity="0.2">
<path d="M314.93 453.98C314.93 455.73 312.72 455.26 309.99 455.26C307.26 455.26 305.05 455.73 305.05 453.98C305.05 452.23 307.26 450.81 309.99 450.81C312.72 450.81 314.93 452.23 314.93 453.98Z" fill="white"/>
</g>
<g opacity="0.2">
<path d="M311.7 535.57C311.7 538.84 310.32 541.49 308.62 541.49C306.92 541.49 306.89 538.84 306.89 535.57C306.89 532.3 306.92 529.65 308.62 529.65C310.32 529.65 311.7 532.3 311.7 535.57Z" fill="white"/>
</g>
<path d="M289.43 450.67V467.93C289.43 469.27 288.34 470.36 287.01 470.36H277.64C276.3 470.36 275.21 469.27 275.21 467.93V450.67C275.21 449.33 276.3 448.25 277.64 448.25H287.01C288.35 448.24 289.43 449.33 289.43 450.67Z" stroke="#0D2232" stroke-width="4" stroke-miterlimit="10" stroke-linecap="round" stroke-linejoin="round"/>
<path d="M299.88 465.7H289.43V453.43H298.3L299.88 465.7Z" stroke="#0D2232" stroke-width="4" stroke-miterlimit="10" stroke-linecap="round" stroke-linejoin="round"/>
<path d="M349.04 463.89C348.89 465.64 346.83 466.51 345.5 465.36C338.03 458.94 326.99 462.56 324.74 471.72C324.36 473.25 323.02 474.33 321.45 474.33H303.98C302.28 474.33 300.84 473.07 300.63 471.38L299.9 465.7L298.32 453.43L297.79 449.29C297.53 447.27 299.11 445.47 301.15 445.47H329.8C341.39 445.48 349.82 454.43 349.04 463.89Z" stroke="#0D2232" stroke-width="4" stroke-miterlimit="10" stroke-linecap="round" stroke-linejoin="round"/>
<path d="M321.14 474.33H305.06V515.37H321.14V474.33Z" stroke="#0D2232" stroke-width="4" stroke-miterlimit="10" stroke-linecap="round" stroke-linejoin="round"/>
<path d="M324.86 518.76V560.05C324.86 561.92 323.34 563.43 321.48 563.43H304.89C304.33 563.43 303.8 563.29 303.34 563.05C302.25 562.49 301.51 561.35 301.51 560.04V518.75C301.51 516.88 303.03 515.37 304.89 515.37H321.48C323.34 515.37 324.86 516.89 324.86 518.76Z" stroke="#0D2232" stroke-width="4" stroke-miterlimit="10" stroke-linecap="round" stroke-linejoin="round"/>
<path d="M343.28 575.22C343.27 575.17 343.27 575.12 343.27 575.07L345.08 491.01C345.09 490.37 345.62 489.87 346.26 489.88L360.72 490.19C361.03 490.2 361.32 490.32 361.53 490.55C361.71 490.73 361.82 490.97 361.84 491.22C361.85 491.27 361.85 491.32 361.85 491.37L360.04 575.43C360.03 576.07 359.5 576.57 358.86 576.56L344.4 576.25C344.09 576.24 343.8 576.12 343.59 575.89C343.41 575.71 343.3 575.47 343.28 575.22Z" fill="#C14854"/>
<path d="M348.869 491.096L347.078 575.159L356.336 575.357L358.127 491.294L348.869 491.096Z" fill="#E8656D"/>
<path opacity="0.5" d="M347.752 487.414L345.877 576.236L347.017 576.26L348.892 487.438L347.752 487.414Z" fill="white"/>
<path d="M340.52 493.14C339.73 492.55 338.97 491.89 338.26 491.19C334.04 487.04 331.68 481.49 331.63 475.56C331.58 469.64 333.84 464.05 338 459.83C339.08 458.73 340.27 457.75 341.55 456.9C341.93 456.65 342.42 456.64 342.81 456.89C342.84 456.91 342.86 456.92 342.88 456.94C343.22 457.19 343.39 457.61 343.33 458.03L341.59 469.64L354.54 476.1L364.69 465.78L359.62 456.02C359.4 455.6 359.46 455.09 359.77 454.73C360.08 454.37 360.57 454.24 361.02 454.39C363.21 455.14 365.25 456.22 367.11 457.61C367.9 458.2 368.66 458.86 369.37 459.55C373.59 463.7 375.95 469.25 376 475.18C376.05 481.1 373.79 486.69 369.63 490.91C361.86 498.82 349.35 499.77 340.52 493.14Z" fill="#E8656D"/>
<path d="M360.64 455.5L361.44 457.04C362.68 457.82 363.85 458.74 364.94 459.81C373.22 467.95 373.33 481.26 365.19 489.54C360.69 494.12 354.6 496.19 348.66 495.76C355.66 497.52 363.38 495.64 368.8 490.12C376.94 481.84 376.83 468.53 368.55 460.39C366.23 458.12 363.52 456.49 360.64 455.5Z" fill="#C14854"/>
<path opacity="0.5" d="M338.7 486.72C346.65 496.88 357.22 493.41 357.22 493.41C357.22 493.41 349.36 491.59 343.53 485.31C337.44 478.76 335.15 471.8 335.15 471.8C335.15 471.8 332.94 479.36 338.7 486.72Z" fill="white"/>
<path opacity="0.5" d="M340.59 572.9C343.55 569 346.53 569.7 346.53 569.7C346.53 569.7 342.63 573.12 340.46 577.83C338.42 582.26 338.72 589.44 338.72 589.44C338.72 589.44 336.72 584.62 337 582.18C337.47 578.2 338.6 575.53 340.59 572.9Z" fill="white"/>
<path d="M343.44 567.08L344.98 495.72" stroke="#0D2232" stroke-width="4" stroke-miterlimit="10" stroke-linecap="round" stroke-linejoin="round"/>
<path d="M361.75 496.11L360.21 567.48" stroke="#0D2232" stroke-width="4" stroke-miterlimit="10" stroke-linecap="round" stroke-linejoin="round"/>
<path d="M340.52 493.14C339.73 492.55 338.97 491.89 338.26 491.19C334.04 487.04 331.68 481.49 331.63 475.56C331.58 469.64 333.84 464.05 338 459.83C339.08 458.73 340.27 457.75 341.55 456.9C341.93 456.65 342.42 456.64 342.81 456.89C342.84 456.91 342.86 456.92 342.88 456.94C343.22 457.19 343.39 457.61 343.33 458.03L341.59 469.64L354.54 476.1L364.69 465.78L359.62 456.02C359.4 455.6 359.46 455.09 359.77 454.73C360.08 454.37 360.57 454.24 361.02 454.39C363.21 455.14 365.25 456.22 367.11 457.61C367.9 458.2 368.66 458.86 369.37 459.55C373.59 463.7 375.95 469.25 376 475.18C376.05 481.1 373.79 486.69 369.63 490.91C361.86 498.82 349.35 499.77 340.52 493.14Z" stroke="#0D2232" stroke-width="4" stroke-miterlimit="10" stroke-linecap="round" stroke-linejoin="round"/>
<path d="M277.87 519.93V578.09C277.87 578.09 289.44 595.45 311.94 595.45C334.44 595.45 350.51 595.45 350.51 595.45L357.26 586.77C357.26 586.77 362.72 545.95 363.37 530.2C363.37 530.2 301.66 531.85 277.87 519.93Z" fill="#FEC400"/>
<path d="M283.13 522.15V565.81C283.13 573.24 287.33 580.05 294 583.31C304.97 588.68 324.98 593.8 357.26 586.78L350.51 595.46L308.56 595.7C308.56 595.7 286.86 592.89 277.86 578.1V519.94L283.13 522.15Z" fill="#E89F02"/>
<path d="M277.87 519.93V573.14C277.87 576.76 279.33 580.22 281.89 582.78C287.04 587.92 297.12 595.45 311.94 595.45H343.44C347.9 595.45 352.11 593.39 354.85 589.87C356.43 587.84 357.44 585.42 357.77 582.87C359.14 572.28 362.84 542.99 363.36 530.2C363.37 530.2 301.66 531.85 277.87 519.93Z" stroke="#0D2232" stroke-width="4" stroke-miterlimit="10" stroke-linecap="round" stroke-linejoin="round"/>
<path d="M277.87 535.02C277.87 535.02 297.57 551.92 361.85 545.49" stroke="#0D2232" stroke-width="4" stroke-miterlimit="10" stroke-linecap="round" stroke-linejoin="round"/>
<path d="M140.3 519.93V579.37C140.3 579.37 115.87 598.01 78.5901 595.44C78.5901 595.44 63.1602 571.01 58.6602 530.19C58.6602 530.2 122.94 533.78 140.3 519.93Z" stroke="white" stroke-miterlimit="10"/>
<path d="M61.21 546.78C61.21 546.78 114.59 547.24 140.3 535.02" stroke="white" stroke-miterlimit="10"/>
<path d="M74.04 586.81C74.04 586.81 106.22 587.73 124.87 577.45L120.75 527.27L140.3 519.93V579.37C140.3 579.37 118.44 596.73 78.59 595.44L74.04 586.81Z" stroke="white" stroke-miterlimit="10"/>
<path d="M140.47 535.02C140.47 535.02 119.23 551.73 54.8701 545.31" stroke="white" stroke-miterlimit="10"/>
<path d="M158.49 495.16V583.88L146.9 595.45H67.7402L78.3602 587.09L77.7202 495.16H158.49Z" fill="#F9DC1B"/>
<path d="M148.83 495.16V578.32L142.08 587.09H60.98L67.74 595.45H146.9L158.49 583.88V495.16H148.83Z" fill="#E89F02"/>
<path d="M146.26 512.667H151.41V507.527H146.26V512.667Z" fill="white"/>
<path d="M146.26 529.082H151.41V523.942H146.26V529.082Z" fill="white"/>
<path d="M146.26 545.488H151.41V540.348H146.26V545.488Z" fill="white"/>
<path d="M146.26 561.903H151.41V556.763H146.26V561.903Z" fill="white"/>
<path d="M146.26 578.319H151.41V573.179H146.26V578.319Z" fill="white"/>
<path d="M77.721 530.2V495.16H158.491V583.88L146.901 595.45L68.811 594.61" stroke="#0D2232" stroke-width="4" stroke-miterlimit="10" stroke-linecap="round" stroke-linejoin="round"/>
<path d="M83.64 465.1L88.31 482.71L85.58 485.62C82.31 480.72 76.27 477.99 70.21 479.22C69.92 479.28 69.63 479.35 69.34 479.42C70.59 478.38 71.5 477.2 72.08 475.98C74.62 470.67 71.28 464.31 65.01 463.17L61.23 448.93C70.72 450.24 77.58 455.3 82.63 462.93C83.1 463.6 83.44 464.33 83.64 465.1Z" fill="#AFCADC"/>
<path d="M85.56 485.93L85.43 485.73C82.13 480.78 76.04 478.24 70.26 479.41C69.99 479.46 69.71 479.53 69.41 479.61L68.57 479.83L69.24 479.27C70.43 478.28 71.34 477.15 71.93 475.89C73.09 473.47 73.04 470.7 71.81 468.29C70.48 465.7 68 463.9 65 463.35L64.88 463.33L61 448.7L61.29 448.74C70.32 449.99 77.37 454.59 82.83 462.82C83.29 463.51 83.63 464.26 83.84 465.05L88.54 482.76L85.56 485.93ZM70.06 479.05C70.1 479.04 70.14 479.03 70.19 479.02C76.04 477.83 82.2 480.35 85.62 485.3L88.11 482.64L83.46 465.14C83.26 464.39 82.94 463.68 82.5 463.02C77.16 454.98 70.3 450.43 61.52 449.15L65.19 462.99C68.25 463.58 70.79 465.44 72.15 468.11C73.44 470.63 73.48 473.52 72.27 476.05C71.75 477.15 71.01 478.16 70.06 479.05Z" fill="#000072"/>
<g opacity="0.55">
<path d="M72.0703 478.97C71.4603 479.01 70.8402 479.1 70.2202 479.22C69.9302 479.28 69.6403 479.35 69.3503 479.42C70.6003 478.38 71.5102 477.2 72.0902 475.98C74.6302 470.67 71.2902 464.31 65.0202 463.17L61.2402 448.93C62.2602 449.07 63.2402 449.25 64.1902 449.48L67.7102 462.73C73.9802 463.87 77.3202 470.22 74.7802 475.54C74.2102 476.76 73.3103 477.93 72.0703 478.97Z" fill="white"/>
</g>
<g opacity="0.55">
<path d="M72.13 478.96L72.04 478.98C72.05 478.97 72.05 478.97 72.06 478.96C72.09 478.96 72.11 478.96 72.13 478.96Z" fill="white"/>
<path d="M72.18 479.15L71.27 479.39L72.01 478.78C72.05 478.77 72.08 478.77 72.1 478.77L73.73 478.73L72.18 479.15Z" fill="#371A45"/>
</g>
<path d="M91.3299 494.08L93.6099 502.69C93.7499 503.22 93.4599 503.78 92.9599 503.97C92.9199 503.98 92.8899 503.99 92.8499 504L77.2699 508.14C75.6899 508.56 74.0899 508.71 72.5199 508.62C67.4999 508.32 62.8099 505.55 60.2699 501.22C59.6199 500.12 59.1099 498.93 58.7699 497.64C58.3399 496.03 58.1999 494.42 58.2999 492.85C58.6999 486.64 62.9899 481.11 69.3399 479.43H69.3499C69.6399 479.35 69.9199 479.29 70.2199 479.23C76.2799 478 82.3199 480.73 85.5899 485.63C86.5499 487.07 87.2599 488.69 87.6799 490.45C87.9499 491.59 88.0699 492.73 88.0699 493.85L90.0299 493.33C90.3899 493.23 90.7599 493.34 91.0199 493.57C91.1599 493.69 91.2799 493.87 91.3299 494.08Z" fill="#AFCADC"/>
<path d="M92.9099 504.19L77.3299 508.33C75.7599 508.75 74.1399 508.91 72.5199 508.81C67.3999 508.51 62.6499 505.64 60.1099 501.32C59.4399 500.19 58.9299 498.97 58.5899 497.7C58.1699 496.1 58.0099 494.47 58.1099 492.84C58.5299 486.37 63.0199 480.91 69.2899 479.24C69.6199 479.15 69.8999 479.09 70.1799 479.03C76.0999 477.83 82.3599 480.43 85.7399 485.51C86.7299 487 87.4399 488.64 87.8499 490.39C88.0999 491.44 88.2299 492.52 88.2399 493.59L89.9599 493.13C90.3699 493.02 90.8099 493.12 91.1199 493.41C91.3099 493.57 91.4399 493.79 91.4999 494.03L93.7799 502.64C93.9499 503.27 93.6099 503.92 93.0099 504.15C92.9899 504.16 92.9499 504.17 92.9099 504.19ZM69.4099 479.6C63.2899 481.23 58.9099 486.55 58.4999 492.85C58.3899 494.44 58.5499 496.03 58.9599 497.58C59.2899 498.82 59.7899 500.01 60.4399 501.11C62.9099 505.32 67.5499 508.12 72.5399 508.41C74.1199 508.5 75.6999 508.35 77.2299 507.94L92.8099 503.8C92.8399 503.79 92.8699 503.78 92.8999 503.77C93.3199 503.61 93.5499 503.16 93.4399 502.72L91.1599 494.11C91.1199 493.94 91.0199 493.79 90.8899 493.68C90.6699 493.48 90.3699 493.41 90.0799 493.48L87.8799 494.06V493.81C87.8799 492.69 87.7499 491.56 87.4899 490.45C87.0899 488.74 86.3999 487.14 85.4299 485.69C82.1299 480.74 76.0399 478.2 70.2599 479.37C69.9899 479.46 69.7099 479.52 69.4099 479.6Z" fill="#000072"/>
<g opacity="0.3">
<path d="M83.64 465.1L88.31 482.71L85.58 485.62C85.4 485.35 85.21 485.08 85.01 484.82C81.64 480.42 75.94 478.05 70.21 479.22C69.92 479.28 69.63 479.35 69.34 479.42C70.59 478.38 71.5 477.2 72.08 475.98C72.16 475.95 72.25 475.93 72.33 475.91H72.35C72.63 475.84 72.92 475.77 73.22 475.71C75.86 475.17 78.49 475.39 80.89 476.21C82.35 476.71 83.77 475.41 83.38 473.92L81.32 466.17C81.12 465.4 80.78 464.67 80.34 464C75.78 457.12 69.75 452.33 61.66 450.5L61.25 448.95C70.74 450.26 77.6 455.32 82.65 462.95C83.1 463.6 83.44 464.33 83.64 465.1Z" fill="black"/>
<path d="M85.56 485.93L85.43 485.73C85.25 485.45 85.06 485.19 84.87 484.95C81.45 480.48 75.72 478.31 70.26 479.42C69.99 479.47 69.71 479.54 69.41 479.62L68.57 479.84L69.24 479.28C70.43 478.29 71.34 477.16 71.93 475.9L71.97 475.82L72.05 475.79C72.45 475.66 72.86 475.58 73.2 475.51C75.78 474.99 78.46 475.16 80.97 476.01C81.59 476.22 82.25 476.08 82.73 475.64C83.2 475.2 83.38 474.58 83.21 473.96L81.15 466.21C80.95 465.47 80.63 464.76 80.19 464.09C75.35 456.79 69.28 452.4 61.62 450.67L61.51 450.64L61 448.7L61.29 448.74C70.32 449.99 77.37 454.59 82.83 462.82C83.29 463.51 83.63 464.26 83.84 465.05L88.54 482.76L85.56 485.93ZM70.06 479.05C70.1 479.04 70.14 479.03 70.19 479.02C75.79 477.88 81.67 480.11 85.18 484.7C85.33 484.89 85.48 485.09 85.62 485.31L88.11 482.65L83.46 465.15C83.26 464.4 82.94 463.69 82.5 463.03C77.16 454.99 70.3 450.44 61.52 449.16L61.83 450.32C69.53 452.09 75.64 456.53 80.52 463.88C80.98 464.58 81.32 465.33 81.53 466.11L83.59 473.86C83.79 474.62 83.57 475.39 83 475.92C82.42 476.46 81.62 476.63 80.85 476.38C78.41 475.55 75.79 475.38 73.28 475.89C73.01 475.94 72.7 476.01 72.42 476.09C72.36 476.11 72.3 476.12 72.25 476.14C71.72 477.2 70.99 478.18 70.06 479.05Z" fill="#371A45"/>
</g>
<g opacity="0.55">
<path d="M80.2299 480.74C77.8099 479.9 75.1399 479.67 72.4699 480.21C72.1799 480.27 71.8899 480.34 71.5999 480.41H71.5899C65.2499 482.09 60.9599 487.63 60.5499 493.83C60.4499 495.4 60.5899 497.02 61.0199 498.62C61.3599 499.9 61.8699 501.1 62.5199 502.2C63.9199 504.58 65.9599 506.49 68.3599 507.77C65.0099 506.6 62.0899 504.3 60.2699 501.2C59.6199 500.1 59.1099 498.91 58.7699 497.62C58.3399 496.01 58.1999 494.4 58.2999 492.83C58.6999 486.62 62.9899 481.09 69.3399 479.41H69.3499C69.6399 479.33 69.9199 479.27 70.2199 479.21C73.7399 478.5 77.2599 479.13 80.2299 480.74Z" fill="white"/>
</g>
<path d="M73.17 501.7C77.522 501.7 81.05 498.172 81.05 493.82C81.05 489.468 77.522 485.94 73.17 485.94C68.818 485.94 65.29 489.468 65.29 493.82C65.29 498.172 68.818 501.7 73.17 501.7Z" fill="#CECEDD"/>
<g opacity="0.55">
<path d="M83.2498 493.23C84.3698 497.44 81.8598 501.75 77.6598 502.87C75.0598 503.56 72.4198 502.87 70.5098 501.24C71.9598 501.76 73.5798 501.86 75.1898 501.44C79.3998 500.32 81.8998 496.01 80.7798 491.8C80.3498 490.2 79.4598 488.84 78.2898 487.84C80.6498 488.68 82.5598 490.63 83.2498 493.23Z" fill="white"/>
</g>
<g opacity="0.3">
<path d="M77.9702 487.57C76.6802 487.21 75.2803 487.19 73.8903 487.56C69.6803 488.68 67.1802 492.99 68.3002 497.2C68.7602 498.95 69.7802 500.4 71.1202 501.42C68.4902 500.71 66.3102 498.66 65.5602 495.84C64.4402 491.63 66.9502 487.32 71.1502 486.2C73.6102 485.55 76.1002 486.13 77.9702 487.57Z" fill="black"/>
<path d="M72.0002 501.86L71.0602 501.61C68.2802 500.86 66.1002 498.67 65.3602 495.89C64.2202 491.59 66.7902 487.16 71.0902 486.02C73.5302 485.37 76.0802 485.88 78.0802 487.42L78.8602 488.02L77.9102 487.76C76.6202 487.4 75.2502 487.4 73.9302 487.75C69.8302 488.84 67.3802 493.06 68.4702 497.15C68.9102 498.8 69.8602 500.23 71.2202 501.27L72.0002 501.86ZM71.2003 486.39C67.1003 487.48 64.6502 491.7 65.7402 495.79C66.3602 498.12 68.0502 500.02 70.2502 500.93C69.2202 499.92 68.4902 498.67 68.1102 497.25C66.9702 492.95 69.5402 488.52 73.8402 487.38C74.8902 487.1 75.9902 487.04 77.0502 487.19C75.2902 486.15 73.2103 485.85 71.2003 486.39Z" fill="#371A45"/>
</g>
<path d="M76.9902 508.21L80.6003 521.81C81.0803 523.61 82.1302 525.22 83.5902 526.38L98.3503 538.12C100.78 540.05 102.52 542.71 103.31 545.7L110.68 573.48C111.15 575.26 113.2 576.07 114.78 575.11C118.44 572.88 121.28 570.3 122.82 567.16C124.06 564.63 124.26 561.71 123.53 558.98L117.94 537.94C117.38 535.83 116.26 533.92 114.7 532.39L104.94 522.85C103.03 520.98 101.9 518.44 101.87 515.77C101.84 512.75 102.43 509.39 103.38 505.83C103.97 503.61 101.95 501.58 99.7303 502.17L76.9902 508.21Z" fill="#F9DC1B"/>
<path d="M117.95 537.93L123.54 558.98C124.26 561.71 124.07 564.63 122.83 567.16C121.29 570.3 118.44 572.88 114.78 575.11C113.7 575.77 112.4 575.59 111.54 574.85C114.62 572.8 117.02 570.45 118.39 567.66C119.63 565.13 119.83 562.21 119.1 559.48L113.51 538.43C112.95 536.32 111.83 534.41 110.27 532.88L100.51 523.34C98.6 521.47 97.48 518.93 97.45 516.26C97.42 513.24 98.01 509.88 98.96 506.32C99.36 504.81 98.55 503.38 97.29 502.82L99.76 502.17C101.98 501.58 104 503.61 103.41 505.83C102.46 509.39 101.87 512.75 101.9 515.77C101.93 518.44 103.06 520.98 104.96 522.85L114.72 532.39C116.27 533.91 117.39 535.83 117.95 537.93Z" fill="#E89F02"/>
<g opacity="0.55">
<path d="M113.9 574.61C113.97 574.88 114.08 575.14 114.22 575.36C112.75 575.86 111.1 575.05 110.68 573.47L103.31 545.69C102.52 542.7 100.78 540.04 98.3503 538.11L83.5902 526.37C82.1302 525.21 81.0803 523.61 80.6003 521.8L76.9902 508.2L99.7603 502.16C101.05 501.82 102.26 502.36 102.95 503.3L80.2102 509.33L83.8203 522.93C84.3003 524.74 85.3502 526.34 86.8102 527.5L101.57 539.24C103.99 541.17 105.73 543.83 106.53 546.82L113.9 574.61Z" fill="white"/>
</g>
<path d="M76.9898 508.21L80.5998 521.81C81.0798 523.61 80.9598 525.52 80.2698 527.26L73.2698 544.77C72.1198 547.65 71.9298 550.82 72.7198 553.82L80.0898 581.6C80.5598 583.38 79.1798 585.1 77.3398 585.04C73.0598 584.92 69.3098 584.09 66.4098 582.13C64.0698 580.55 62.4598 578.11 61.7298 575.38L56.1398 554.34C55.5798 552.23 55.5998 550.02 56.1998 547.92L59.9398 534.8C60.6698 532.23 60.3898 529.47 59.0898 527.13C57.6198 524.49 55.4398 521.86 52.8498 519.24C51.2398 517.61 51.9898 514.85 54.1998 514.26L76.9898 508.21Z" fill="#F9DC1B"/>
<path d="M76.9901 508.21L80.6001 521.81C81.0801 523.62 80.9601 525.53 80.2701 527.26L73.2701 544.77C72.1201 547.65 71.9301 550.82 72.7201 553.82L80.0901 581.6C80.5601 583.38 79.1801 585.1 77.3401 585.05C76.5501 585.03 75.7701 584.98 75.0101 584.9C75.3401 584.31 75.4501 583.6 75.2601 582.88L67.8901 555.1C67.1001 552.11 67.2901 548.93 68.4401 546.05L75.4401 528.54C76.1301 526.81 76.2501 524.9 75.7701 523.09L72.1601 509.49L76.9901 508.21Z" fill="#E89F02"/>
<g opacity="0.55">
<path d="M56.8298 520.17C59.4198 522.79 61.5999 525.42 63.0699 528.06C64.3699 530.39 64.6499 533.16 63.9199 535.73L60.1798 548.85C59.5798 550.95 59.5598 553.17 60.1198 555.27L65.7098 576.32C66.4298 579.05 68.0499 581.49 70.3799 583.07C71.4099 583.77 72.5498 584.32 73.7799 584.75C70.9699 584.35 68.4799 583.53 66.4199 582.13C64.0899 580.55 62.4699 578.11 61.7499 575.38L56.1599 554.33C55.5999 552.22 55.6199 550 56.2199 547.91L59.9598 534.79C60.6898 532.22 60.4098 529.46 59.1098 527.13C57.6398 524.49 55.4598 521.86 52.8698 519.24C51.2598 517.61 52.0099 514.84 54.2199 514.26L76.9799 508.21L77.4699 510.07L58.1699 515.2C55.9699 515.78 55.2198 518.54 56.8298 520.17Z" fill="white"/>
</g>
<path d="M72.52 508.61L72.71 509.34L59.83 512.76L57.4701 503.88C57.2101 502.89 57.8001 501.87 58.7901 501.61L60.2601 501.22C62.8101 505.54 67.5 508.32 72.52 508.61Z" fill="#AFCADC"/>
<path d="M72.9502 509.48L59.7002 513L57.2902 503.93C57.0002 502.84 57.6502 501.71 58.7502 501.42L60.3602 500.99L60.4302 501.12C62.9002 505.33 67.5402 508.13 72.5302 508.42L72.6702 508.43L72.9502 509.48ZM59.9702 512.53L72.4802 509.21L72.3702 508.8C67.3602 508.46 62.7102 505.65 60.1802 501.44L58.8502 501.79C57.9602 502.03 57.4302 502.94 57.6702 503.83L59.9702 512.53Z" fill="#000072"/>
<g opacity="0.55">
<path d="M60.3999 501.18C60.5999 501.53 60.8299 501.87 61.0599 502.2L60.9299 502.24C59.9399 502.5 59.3499 503.52 59.6099 504.51L61.6699 512.28L59.9599 512.73L57.5999 503.85C57.3399 502.86 57.9299 501.84 58.9199 501.58L60.3999 501.18Z" fill="white"/>
</g>
<path d="M69.34 479.42C63 481.1 58.71 486.64 58.3 492.84L54.5 491.67L49.83 474.06C49.62 473.29 49.55 472.49 49.61 471.69C50.22 462.56 53.66 454.76 61.25 448.92L65.03 463.16C59.02 468.21 60.8 477.94 69.34 479.42Z" fill="#AFCADC"/>
<path d="M58.4798 493.1L54.3498 491.83L49.6498 474.12C49.4398 473.33 49.3598 472.51 49.4198 471.68C50.0798 461.83 53.9098 454.33 61.1398 448.77L61.3698 448.59L65.2498 463.23L65.1598 463.31C62.2698 465.73 61.0598 469.39 61.9898 472.85C62.8898 476.19 65.6498 478.57 69.3798 479.22L70.2398 479.37L69.3898 479.59C63.2798 481.21 58.8998 486.54 58.4998 492.84L58.4798 493.1ZM54.6698 491.53L58.1298 492.6C58.6198 486.49 62.7498 481.32 68.5498 479.46C65.0598 478.61 62.4898 476.22 61.6198 472.97C60.6598 469.4 61.8898 465.63 64.8198 463.11L61.1498 449.27C54.1598 454.74 50.4498 462.09 49.8098 471.72C49.7598 472.51 49.8298 473.29 50.0298 474.03L54.6698 491.53Z" fill="#000072"/>
<g opacity="0.3">
<path d="M66.6699 480.41C66.7199 480.39 66.7699 480.36 66.8199 480.34C66.8399 480.34 66.8599 480.35 66.8799 480.35C66.8099 480.37 66.7399 480.39 66.6699 480.41Z" fill="#262F6A"/>
<path d="M66.7301 480.6L66.5801 480.25C66.6301 480.22 66.6901 480.2 66.7401 480.17L66.7901 480.15L66.8901 480.16L67.6901 480.32L66.9301 480.53C66.8601 480.56 66.7901 480.58 66.7301 480.6Z" fill="#371A45"/>
</g>
<g opacity="0.3">
<path d="M67.2201 478.84C67.8101 479.07 67.8201 479.9 67.2301 480.16C67.0901 480.22 66.9501 480.28 66.8201 480.35C58.3301 478.83 55.9501 469.03 61.9401 464L58.5601 451.26C59.3901 450.45 60.2901 449.68 61.2601 448.94L65.0401 463.18C59.5601 467.76 60.5501 476.24 67.2201 478.84Z" fill="#262F6A"/>
<path d="M66.8501 480.54L66.7901 480.53C62.7401 479.8 59.7301 477.15 58.7401 473.43C57.8101 469.94 58.9501 466.3 61.7301 463.92L58.3501 451.19L58.4301 451.11C59.2701 450.3 60.1801 449.51 61.1401 448.77L61.3701 448.59L65.2501 463.23L65.1601 463.31C62.5301 465.52 61.2701 468.77 61.8101 472.01C62.3101 475.07 64.3101 477.5 67.3001 478.66C67.6401 478.8 67.8601 479.11 67.8701 479.48C67.8801 479.86 67.6701 480.18 67.3201 480.33C67.1801 480.39 67.0501 480.45 66.9101 480.52L66.8501 480.54ZM58.7701 451.31L62.1501 464.06L62.0601 464.14C59.3301 466.43 58.2001 469.95 59.1001 473.34C60.0501 476.89 62.9201 479.43 66.7801 480.15C66.9001 480.09 67.0201 480.04 67.1501 479.98C67.3901 479.88 67.4701 479.66 67.4701 479.49C67.4701 479.28 67.3501 479.1 67.1501 479.02C64.0401 477.81 61.9501 475.28 61.4201 472.08C60.8701 468.75 62.1401 465.4 64.8101 463.11L61.1401 449.27C60.3101 449.91 59.5101 450.6 58.7701 451.31Z" fill="#371A45"/>
</g>
<g opacity="0.55">
<path d="M61.26 448.93L61.8 450.98C55.73 456.58 52.9 463.7 52.35 471.9C52.3 472.7 52.37 473.5 52.57 474.27L57.24 491.88L58.35 492.22C58.33 492.43 58.31 492.64 58.3 492.85L54.5 491.68L49.83 474.07C49.62 473.3 49.55 472.5 49.61 471.7C50.22 462.57 53.66 454.77 61.26 448.93Z" fill="white"/>
</g>
<g opacity="0.2">
<path d="M91.3298 494.08L93.6098 502.69C93.7498 503.22 93.4598 503.78 92.9598 503.97L80.0498 507.4C86.2998 504.37 89.3498 500.06 88.5798 494.2L91.0098 493.56C91.1598 493.69 91.2798 493.87 91.3298 494.08Z" fill="black"/>
</g>
<path d="M72.52 508.61L72.71 509.34L59.83 512.76L57.4701 503.88C57.2101 502.89 57.8001 501.87 58.7901 501.61L60.2601 501.22C62.8101 505.54 67.5 508.32 72.52 508.61Z" stroke="#0D2232" stroke-width="4" stroke-miterlimit="10" stroke-linecap="round" stroke-linejoin="round"/>
<path d="M76.9902 508.21L80.6003 521.81C81.0803 523.61 82.1302 525.22 83.5902 526.38L98.3503 538.12C100.78 540.05 102.52 542.71 103.31 545.7L110.68 573.48C111.15 575.26 113.2 576.07 114.78 575.11C118.44 572.88 121.28 570.3 122.82 567.16C124.06 564.63 124.26 561.71 123.53 558.98L117.94 537.94C117.38 535.83 116.26 533.92 114.7 532.39L104.94 522.85C103.03 520.98 101.9 518.44 101.87 515.77C101.84 512.75 102.43 509.39 103.38 505.83C103.97 503.61 101.95 501.58 99.7303 502.17L76.9902 508.21Z" stroke="#0D2232" stroke-width="4" stroke-miterlimit="10" stroke-linecap="round" stroke-linejoin="round"/>
<path d="M76.9898 508.21L80.5998 521.81C81.0798 523.61 80.9598 525.52 80.2698 527.26L73.2698 544.77C72.1198 547.65 71.9298 550.82 72.7198 553.82L80.0898 581.6C80.5598 583.38 79.1798 585.1 77.3398 585.04C73.0598 584.92 69.3098 584.09 66.4098 582.13C64.0698 580.55 62.4598 578.11 61.7298 575.38L56.1398 554.34C55.5798 552.23 55.5998 550.02 56.1998 547.92L59.9398 534.8C60.6698 532.23 60.3898 529.47 59.0898 527.13C57.6198 524.49 55.4398 521.86 52.8498 519.24C51.2398 517.61 51.9898 514.85 54.1998 514.26L76.9898 508.21Z" stroke="#0D2232" stroke-width="4" stroke-miterlimit="10" stroke-linecap="round" stroke-linejoin="round"/>
<path d="M83.64 465.1L88.31 482.71L85.58 485.62C82.31 480.72 76.27 477.99 70.21 479.22C69.92 479.28 69.63 479.35 69.34 479.42C70.59 478.38 71.5 477.2 72.08 475.98C74.62 470.67 71.28 464.31 65.01 463.17L61.23 448.93C70.72 450.24 77.58 455.3 82.63 462.93C83.1 463.6 83.44 464.33 83.64 465.1Z" stroke="#0D2232" stroke-width="4" stroke-miterlimit="10" stroke-linecap="round" stroke-linejoin="round"/>
<path d="M91.3299 494.08L93.6099 502.69C93.7499 503.22 93.4599 503.78 92.9599 503.97C92.9199 503.98 92.8899 503.99 92.8499 504L77.2699 508.14C75.6899 508.56 74.0899 508.71 72.5199 508.62C67.4999 508.32 62.8099 505.55 60.2699 501.22C59.6199 500.12 59.1099 498.93 58.7699 497.64C58.3399 496.03 58.1999 494.42 58.2999 492.85C58.6999 486.64 62.9899 481.11 69.3399 479.43H69.3499C69.6399 479.35 69.9199 479.29 70.2199 479.23C76.2799 478 82.3199 480.73 85.5899 485.63C86.5499 487.07 87.2599 488.69 87.6799 490.45C87.9499 491.59 88.0699 492.73 88.0699 493.85L90.0299 493.33C90.3899 493.23 90.7599 493.34 91.0199 493.57C91.1599 493.69 91.2799 493.87 91.3299 494.08Z" stroke="#0D2232" stroke-width="4" stroke-miterlimit="10" stroke-linecap="round" stroke-linejoin="round"/>
<path d="M69.34 479.42C63 481.1 58.71 486.64 58.3 492.84L54.5 491.67L49.83 474.06C49.62 473.29 49.55 472.49 49.61 471.69C50.22 462.56 53.66 454.76 61.25 448.92L65.03 463.16C59.02 468.21 60.8 477.94 69.34 479.42Z" stroke="#0D2232" stroke-width="4" stroke-miterlimit="10" stroke-linecap="round" stroke-linejoin="round"/>
<path d="M73.17 501.7C77.522 501.7 81.05 498.172 81.05 493.82C81.05 489.468 77.522 485.94 73.17 485.94C68.818 485.94 65.29 489.468 65.29 493.82C65.29 498.172 68.818 501.7 73.17 501.7Z" stroke="#0D2232" stroke-width="4" stroke-miterlimit="10" stroke-linecap="round" stroke-linejoin="round"/>
<path d="M125.48 525.67H104.93C102.74 525.67 100.96 523.89 100.96 521.7V520.57C100.96 518.38 102.74 516.6 104.93 516.6H125.48C127.67 516.6 129.45 518.38 129.45 520.57V521.7C129.45 523.9 127.68 525.67 125.48 525.67Z" fill="#F9DC1B"/>
<path d="M123.821 525.67H106.681V532.75H123.821V525.67Z" fill="#F9DC1B"/>
<path d="M116.98 577.23H113.43C106.54 577.23 100.96 571.65 100.96 564.76V536.9C100.96 534.61 102.81 532.76 105.1 532.76H125.31C127.6 532.76 129.45 534.61 129.45 536.9V564.76C129.45 571.64 123.87 577.23 116.98 577.23Z" fill="#F9DC1B"/>
<path d="M129.451 519.65V522.63C129.451 524.31 128.091 525.67 126.411 525.67H121.411C123.091 525.67 124.451 524.31 124.451 522.63V519.65C124.451 517.97 123.091 516.61 121.411 516.61H126.411C128.091 516.61 129.451 517.97 129.451 519.65Z" fill="#E89F02"/>
<path d="M123.831 525.68H118.831V532.76H123.831V525.68Z" fill="#E89F02"/>
<path d="M129.451 535.78V563.4C129.451 571.04 123.261 577.23 115.621 577.23H115.351C120.381 577.23 124.461 573.15 124.461 568.12V535.78C124.461 534.11 123.111 532.76 121.441 532.76H126.441C128.101 532.75 129.451 534.11 129.451 535.78Z" fill="#E89F02"/>
<g opacity="0.55">
<path d="M107.541 525.68H104.011C102.331 525.68 100.971 524.32 100.971 522.64V519.66C100.971 517.98 102.331 516.62 104.011 516.62H107.541C105.861 516.62 104.501 517.98 104.501 519.66V522.64C104.501 524.31 105.861 525.68 107.541 525.68Z" fill="white"/>
</g>
<g opacity="0.55">
<path d="M110.211 525.68H106.681V532.76H110.211V525.68Z" fill="white"/>
</g>
<g opacity="0.55">
<path d="M113.611 577.23H110.081C105.051 577.23 100.971 573.15 100.971 568.12V535.78C100.971 534.11 102.321 532.76 103.991 532.76H107.521C105.851 532.76 104.501 534.11 104.501 535.78V568.12C104.501 573.15 108.581 577.23 113.611 577.23Z" fill="white"/>
</g>
<path d="M125.151 477.9L122.831 485.08H119.851V516.61H110.901V485.08H107.921L105.601 477.9L109.251 457.36H121.501L125.151 477.9Z" fill="#AFCADC"/>
<path d="M120.01 516.77H110.73V485.24H107.79L105.42 477.91L105.43 477.87L109.1 457.19H121.63L125.31 477.91L122.94 485.24H120V516.77H120.01ZM111.07 516.44H119.68V484.91H122.71L124.98 477.89L121.37 457.53H109.39L105.78 477.89L108.05 484.91H111.08V516.44H111.07Z" fill="#000072"/>
<g opacity="0.2">
<path d="M119.03 485.08H119.85V516.61H117.09V487.02C117.09 485.95 117.95 485.08 119.03 485.08Z" fill="black"/>
</g>
<g opacity="0.2">
<path d="M125.15 477.9L122.83 485.08H120.07L122.39 477.9L118.74 457.36H121.5L125.15 477.9Z" fill="black"/>
</g>
<g opacity="0.55">
<path d="M108.461 477.9L110.781 485.08H108.251L105.931 477.9L109.581 457.36H112.101L108.461 477.9Z" fill="white"/>
</g>
<g opacity="0.55">
<path d="M113.76 486.73V516.61H111.23V485.08H112.11C113.02 485.08 113.76 485.82 113.76 486.73Z" fill="white"/>
</g>
<g opacity="0.2">
<path d="M114.86 551.77C114.86 555.43 113.32 558.4 111.41 558.4C109.5 558.4 109.48 555.43 109.48 551.77C109.48 548.11 109.51 545.14 111.41 545.14C113.31 545.14 114.86 548.12 114.86 551.77Z" fill="white"/>
</g>
<path d="M125.48 525.67H104.93C102.74 525.67 100.96 523.89 100.96 521.7V520.57C100.96 518.38 102.74 516.6 104.93 516.6H125.48C127.67 516.6 129.45 518.38 129.45 520.57V521.7C129.45 523.9 127.68 525.67 125.48 525.67Z" stroke="#0D2232" stroke-width="4" stroke-miterlimit="10" stroke-linecap="round" stroke-linejoin="round"/>
<path d="M123.821 525.67H106.681V532.75H123.821V525.67Z" stroke="#0D2232" stroke-width="4" stroke-miterlimit="10" stroke-linecap="round" stroke-linejoin="round"/>
<path d="M116.98 577.23H113.43C106.54 577.23 100.96 571.65 100.96 564.76V536.9C100.96 534.61 102.81 532.76 105.1 532.76H125.31C127.6 532.76 129.45 534.61 129.45 536.9V564.76C129.45 571.64 123.87 577.23 116.98 577.23Z" stroke="#0D2232" stroke-width="4" stroke-miterlimit="10" stroke-linecap="round" stroke-linejoin="round"/>
<path d="M125.151 477.9L122.831 485.08H119.851V516.61H110.901V485.08H107.921L105.601 477.9L109.251 457.36H121.501L125.151 477.9Z" stroke="#0D2232" stroke-width="4" stroke-miterlimit="10" stroke-linecap="round" stroke-linejoin="round"/>
<path d="M140.47 519.93V578.09C140.47 578.09 128.88 595.45 106.36 595.45C83.8301 595.45 67.7401 595.45 67.7401 595.45L60.9801 586.77C60.9801 586.77 55.5101 545.95 54.8701 530.2C54.8701 530.2 116.65 531.85 140.47 519.93Z" fill="#FEC400"/>
<path d="M135.2 522.15V565.81C135.2 573.24 131 580.05 124.32 583.31C113.33 588.68 93.3002 593.8 60.9902 586.78L67.7502 595.46L109.75 595.7C109.75 595.7 131.47 592.89 140.48 578.1V519.94L135.2 522.15Z" fill="#E89F02"/>
<path d="M140.47 519.93V574.29C140.47 577 139.44 579.6 137.6 581.58C132.88 586.65 122.39 595.44 106.36 595.44H72.9599C69.6699 595.44 66.5599 593.92 64.5399 591.32L62.7699 589.05C61.5999 587.55 60.8499 585.76 60.6099 583.88C59.3599 574.3 55.4199 543.41 54.8799 530.19C54.8699 530.2 116.65 531.85 140.47 519.93Z" stroke="#0D2232" stroke-width="4" stroke-miterlimit="10" stroke-linecap="round" stroke-linejoin="round"/>
<path d="M140.47 535.02C140.47 535.02 120.75 551.92 56.3901 545.49" stroke="#0D2232" stroke-width="4" stroke-miterlimit="10" stroke-linecap="round" stroke-linejoin="round"/>
<path d="M123.532 656.609H196.962V635.109H123.532V656.609Z" stroke="#0D2232" stroke-width="6" stroke-miterlimit="10" stroke-linecap="round" stroke-linejoin="round"/>
<path d="M286.26 336.67L326.42 357.78L300.84 410.92L286.26 403.37V336.67Z" stroke="#0D2232" stroke-width="6" stroke-miterlimit="10"/>
<path d="M135.98 336.67L95.8198 357.78L121.41 410.92L135.98 403.37V336.67Z" stroke="#0D2232" stroke-width="6" stroke-miterlimit="10"/>
</g>
<defs>
<clipPath id="clip0_1252_235">
<rect width="452" height="722" fill="white"/>
</clipPath>
</defs>
</svg>
