<svg width="392" height="722" viewBox="0 0 392 722" fill="none" xmlns="http://www.w3.org/2000/svg">
<g clip-path="url(#clip0_344_5090)">
<path d="M24.34 373.55C24.34 373.55 -2.49 389.62 3.12 410.84C8.73 432.06 48.67 460.34 48.67 460.34C48.67 460.34 50.54 436.55 78.62 431.41L61.15 413.41L24.34 373.55Z" fill="#FBC6A6"/>
<path d="M78.6201 431.4L87.36 436.86V492.79H48.05L48.6701 460.33C48.6701 460.33 51.1701 435.9 78.6201 431.4Z" fill="#FBC6A6"/>
<path opacity="0.16" d="M28.2699 377.81C28.2699 377.81 3.53994 390.25 9.01994 410.97C14.4999 431.69 49.1099 453.72 49.1099 453.72" stroke="black" stroke-width="6" stroke-miterlimit="10"/>
<path opacity="0.16" d="M51.9299 492.8L52.5499 447.75" stroke="black" stroke-width="6" stroke-miterlimit="10"/>
<path opacity="0.5" d="M72.6399 431.97L19.1099 375.05" stroke="white" stroke-width="6" stroke-miterlimit="10"/>
<path opacity="0.5" d="M82.3501 433.12V494.36" stroke="white" stroke-width="6" stroke-miterlimit="10"/>
<path d="M24.34 373.55C24.34 373.55 -2.49 389.62 3.12 410.84C8.73 432.06 48.67 460.34 48.67 460.34C48.67 460.34 50.54 436.55 78.62 431.41L61.15 413.41L24.34 373.55Z" stroke="#0D2232" stroke-width="6" stroke-miterlimit="10" stroke-linecap="round" stroke-linejoin="round"/>
<path d="M78.6201 431.4L87.36 436.86V492.79H48.05L48.6701 460.33C48.6701 460.33 51.1701 435.9 78.6201 431.4Z" stroke="#0D2232" stroke-width="6" stroke-miterlimit="10" stroke-linecap="round" stroke-linejoin="round"/>
<path d="M72.7998 415.11L46.7599 426.85L23.4099 378.32L17.0898 365.19L42.0598 353.03L48.9398 366.92L72.7998 415.11Z" fill="#435F84"/>
<path opacity="0.21" d="M48.9398 366.92L48.9099 366.96L23.4099 378.32L17.0898 365.19L42.0598 353.03L48.9398 366.92Z" fill="white"/>
<path d="M85.2899 336.67V403.37L70.4499 410.92L48.9099 366.96L44.4099 357.78L85.2899 336.67Z" fill="#F9DC1B"/>
<path opacity="0.5" d="M85.2899 336.67V348.62L48.9099 366.96L44.4099 357.78L85.2899 336.67Z" fill="white"/>
<path d="M61.6799 393.02L85.2899 383.65V403.37L70.45 410.92L61.6799 393.02Z" fill="#E89F02"/>
<path d="M42.0598 353.03L72.7998 415.11L46.7599 426.86L17.0898 365.19L42.0598 353.03Z" stroke="#0D2232" stroke-width="6" stroke-miterlimit="10" stroke-linecap="round" stroke-linejoin="round"/>
<path d="M85.2899 336.67L44.4099 357.78L70.4499 410.92L85.2899 403.37V336.67Z" stroke="#0D2232" stroke-width="6" stroke-miterlimit="10"/>
<path d="M73.9243 656.609L147.354 656.609L147.354 635.109L73.9243 635.109L73.9243 656.609Z" fill="#435F84" stroke="#0D2232" stroke-width="6" stroke-miterlimit="10" stroke-linecap="round" stroke-linejoin="round"/>
<path d="M284.83 595.45V636.39L304.12 656.63L322.76 636.39L322.73 535.57H307.62L284.83 595.45Z" fill="#AFCADC"/>
<path d="M303.8 632.47C307.793 632.47 311.03 629.233 311.03 625.24C311.03 621.247 307.793 618.01 303.8 618.01C299.807 618.01 296.57 621.247 296.57 625.24C296.57 629.233 299.807 632.47 303.8 632.47Z" stroke="#0D2232" stroke-width="4" stroke-miterlimit="10" stroke-linecap="round" stroke-linejoin="round"/>
<path opacity="0.2" d="M322.76 536.66H316.12V632.47L304.19 644.4L291.76 631.97V542.92L284.83 543.38V636.39L304.6 656.15L323.56 637.19L322.76 536.66Z" fill="black"/>
<path d="M284.83 595.45V636.39L304.12 656.63L322.76 636.39V536.66H307.65L284.83 595.45Z" stroke="#0D2232" stroke-width="4" stroke-miterlimit="10" stroke-linecap="round" stroke-linejoin="round"/>
<path d="M304.7 145.08C304.7 145.08 298.72 150.43 272.3 152.63C245.87 154.83 59.9099 160.42 59.9099 160.42L48.4599 154.83C48.4599 154.83 22.1499 153.38 18.4199 145.08C14.6899 136.78 108.49 103.87 108.49 103.87L227 100.25L254.06 111.02L304.7 145.08Z" fill="#CFB300"/>
<path d="M304.7 145.08C304.7 145.08 298.72 150.43 272.3 152.63C245.87 154.83 59.9099 160.42 59.9099 160.42L48.4599 154.83C48.4599 154.83 22.1499 153.38 18.4199 145.08C14.6899 136.78 108.49 103.87 108.49 103.87L227 100.25L254.06 111.02L304.7 145.08Z" stroke="#0D2232" stroke-width="6" stroke-miterlimit="10" stroke-linecap="round" stroke-linejoin="round"/>
<path d="M49.51 193.85C49.51 193.85 19.32 197.47 23.09 232.39C26.86 267.31 70.35 260.02 70.35 260.02L66.61 209.89L49.51 193.85Z" fill="#FBC6A6" stroke="#0D2232" stroke-width="6" stroke-miterlimit="10"/>
<path d="M281.11 193.85C281.11 193.85 304.08 197.63 305.81 223.11C307.54 248.59 279.2 271.1 257.03 262.2C234.86 253.31 251.22 215.24 251.22 215.24L281.11 193.85Z" fill="#FBC6A6" stroke="#0D2232" stroke-width="6" stroke-miterlimit="10"/>
<path opacity="0.4" d="M279.06 208.95C279.06 208.95 290.99 215.27 285.9 229.01C278.78 248.26 264.27 242.92 264.27 242.92L268.67 219.01L279.06 208.95Z" fill="black"/>
<path opacity="0.4" d="M45.1298 208.95C45.1298 208.95 33.1998 215.27 38.2898 229.01C45.4098 248.26 59.9198 242.92 59.9198 242.92L55.5198 219.01L45.1298 208.95Z" fill="black"/>
<path d="M267.48 197.62V226.29C267.48 226.29 267.22 231.26 265.4 238.95C261.32 256.19 249.41 287.11 215.04 306.47C210.15 309.22 205.23 311.51 200.3 313.37C185.98 318.78 171.64 320.61 157.97 319.85C128.52 318.21 102.26 304.54 86.37 288.85C60.57 263.37 59 224.53 59 224.53V170.25L89.52 133.44L246.27 135.33L265.59 157.98L267.48 197.62Z" fill="#FBC6A6"/>
<path opacity="0.5" d="M105.99 292.89C126.31 307.55 145.36 315.04 159.98 318.86C130.53 317.22 104.27 303.55 88.38 287.86C62.58 262.38 61.01 223.54 61.01 223.54V213.94L69.47 207.32C69.46 207.32 61.95 261.11 105.99 292.89Z" fill="white"/>
<path opacity="0.5" d="M262.4 238.95C258.32 256.19 246.41 287.11 212.04 306.47C207.15 309.22 202.23 311.51 197.3 313.37C214.79 299.74 243.26 274.61 251.99 249.63C254.95 241.18 258.58 238.31 262.4 238.95Z" fill="white"/>
<path d="M304.7 145.08C304.7 145.08 293.69 140.99 278.9 140.99C264.11 140.99 44.0599 140.99 44.0599 140.99C44.0599 140.99 24.0799 140.2 18.4199 145.08V131.4C18.4199 126.1 22.7199 121.8 28.0199 121.8H295.11C300.41 121.8 304.71 126.1 304.71 131.4V145.08H304.7Z" fill="#F9DC1B"/>
<path d="M289.48 121.8C289.48 121.91 289.48 121.96 289.48 121.96H161.43V121.8H33.3899C33.3899 121.8 33.3899 121.77 33.3899 121.72C33.3499 120.67 32.9399 110.23 33.3899 105.45C33.8599 100.41 37.9499 100.26 37.9499 100.26C37.9499 100.26 45.0298 37.5 116.44 16.74C116.44 16.74 115.81 4.14999 127.45 2.89999C139.09 1.63999 161.43 0.0700073 161.43 0.0700073V0.229996C161.43 0.229996 183.76 1.8 195.4 3.06C207.04 4.32 206.41 16.9 206.41 16.9C277.82 37.66 284.9 100.42 284.9 100.42C284.9 100.42 288.99 100.58 289.46 105.61C289.91 110.28 289.53 120.41 289.48 121.8Z" fill="#F9DC1B"/>
<path opacity="0.73" d="M289.48 121.8H278.6C278.6 121.8 273.09 57.62 206.56 25.53L206.52 18.27C206.52 18.27 154.35 1.93 116.33 19.55L116.81 29.94C116.81 29.94 57.7599 46.29 43.2899 121.48L33.3999 121.71C33.3599 120.66 32.9499 110.22 33.3999 105.44C33.8699 100.4 37.9599 100.25 37.9599 100.25C37.9599 100.25 45.0399 37.49 116.45 16.73C116.45 16.73 115.82 4.14 127.46 2.89C139.1 1.63 161.44 0.0599976 161.44 0.0599976V0.220001C161.44 0.220001 183.77 1.79 195.41 3.05C207.05 4.31 206.42 16.89 206.42 16.89C277.83 37.65 284.91 100.41 284.91 100.41C284.91 100.41 289 100.57 289.47 105.6C289.91 110.28 289.53 120.41 289.48 121.8Z" fill="white"/>
<path d="M289.47 105.6C289 100.57 284.91 100.41 284.91 100.41C284.91 100.41 277.83 37.65 206.42 16.89C206.42 16.89 207.05 4.31 195.41 3.05C183.77 1.79 161.43 0.220001 161.43 0.220001V0.0599976C161.43 0.0599976 139.09 1.63 127.45 2.89C115.81 4.15 116.44 16.73 116.44 16.73C45.03 37.49 37.95 100.25 37.95 100.25C37.95 100.25 33.86 100.41 33.39 105.44C32.92 110.47 33.39 121.8 33.39 121.8H161.43V121.96H289.47C289.47 121.96 289.94 110.64 289.47 105.6Z" stroke="#0D2232" stroke-width="6" stroke-miterlimit="10" stroke-linecap="round" stroke-linejoin="round"/>
<path d="M205.8 329.86H236.12V495.54H86.3799V329.86H205.8Z" fill="white"/>
<path d="M209.59 336.67H116.05V437.55H209.59V336.67Z" fill="#F9DC1B"/>
<path d="M236.13 458.73H86.3799V495.54H236.13V458.73Z" fill="#F9DC1B"/>
<path d="M187.57 317.8C187.57 317.8 158.19 324.09 138.17 317.8L131.25 348.74L149.5 355.55C149.5 355.55 161.57 360.58 176.25 355.55C190.93 350.52 195.55 335.84 195.55 335.84L187.57 317.8Z" fill="#FBC6A6" stroke="#0D2232" stroke-width="6" stroke-miterlimit="10"/>
<path d="M206.61 351.83C205.82 363.68 203.92 374.64 203.92 374.64L176.23 355.55C176.23 355.55 179.4 348.04 182.01 340.6C183.53 336.25 184.87 331.91 185.25 329.12C186.3 321.57 187.56 317.8 187.56 317.8C187.56 317.8 203.71 316.96 206.22 331.85C207.18 337.41 207.09 344.77 206.61 351.83Z" fill="#435F84"/>
<path d="M206.61 351.83C199.48 351.3 191.18 347.75 186.9 344.71C185.18 343.48 183.5 342.12 182.01 340.6C183.53 336.25 184.87 331.91 185.25 329.12C186.3 321.57 187.56 317.8 187.56 317.8C187.56 317.8 203.71 316.96 206.22 331.85C207.18 337.41 207.09 344.77 206.61 351.83Z" fill="#253B5A"/>
<path d="M187.57 317.8C187.57 317.8 203.72 316.96 206.24 331.85C208.76 346.74 203.93 374.63 203.93 374.63L176.25 355.54C176.25 355.54 184.22 336.66 185.27 329.11C186.32 321.56 187.57 317.8 187.57 317.8Z" stroke="#0D2232" stroke-width="6" stroke-miterlimit="10"/>
<path d="M119.12 351.83C119.91 363.68 121.81 374.64 121.81 374.64L149.5 355.55C149.5 355.55 146.33 348.04 143.72 340.6C142.2 336.25 140.86 331.91 140.48 329.12C139.43 321.57 138.17 317.8 138.17 317.8C138.17 317.8 122.02 316.96 119.51 331.85C118.56 337.41 118.65 344.77 119.12 351.83Z" fill="#435F84"/>
<path d="M119.12 351.83C126.25 351.3 134.55 347.75 138.83 344.71C140.55 343.48 142.23 342.12 143.72 340.6C142.2 336.25 140.86 331.91 140.48 329.12C139.43 321.57 138.17 317.8 138.17 317.8C138.17 317.8 122.02 316.96 119.51 331.85C118.56 337.41 118.65 344.77 119.12 351.83Z" fill="#253B5A"/>
<path d="M138.17 317.8C138.17 317.8 122.02 316.96 119.5 331.85C116.98 346.74 121.81 374.63 121.81 374.63L149.49 355.54C149.49 355.54 141.52 336.66 140.47 329.11C139.42 321.56 138.17 317.8 138.17 317.8Z" stroke="#0D2232" stroke-width="6" stroke-miterlimit="10"/>
<path d="M141.01 389.31H102V424.96H141.01V389.31Z" fill="#F9DC1B" stroke="#0D2232" stroke-width="6" stroke-miterlimit="10"/>
<path d="M141.01 403.37H102" stroke="#0D2232" stroke-width="6" stroke-miterlimit="10"/>
<path d="M206.42 16.89C206.42 16.89 207.52 27.43 203.27 48.98Z" fill="#F9DC1B"/>
<path d="M206.42 16.89C206.42 16.89 207.52 27.43 203.27 48.98" stroke="#0D2232" stroke-width="6" stroke-miterlimit="10" stroke-linecap="round" stroke-linejoin="round"/>
<path d="M284.91 100.41H252.48C249.05 100.41 246.27 103.19 246.27 106.62V121.96" stroke="#0D2232" stroke-width="6" stroke-miterlimit="10" stroke-linecap="round" stroke-linejoin="round"/>
<path d="M116.45 16.73C116.45 16.73 115.35 27.27 119.6 48.82Z" fill="#F9DC1B"/>
<path d="M116.45 16.73C116.45 16.73 115.35 27.27 119.6 48.82" stroke="#0D2232" stroke-width="6" stroke-miterlimit="10" stroke-linecap="round" stroke-linejoin="round"/>
<path d="M37.95 100.25H70.3799C73.8099 100.25 76.5899 103.03 76.5899 106.46V121.8" stroke="#0D2232" stroke-width="6" stroke-miterlimit="10" stroke-linecap="round" stroke-linejoin="round"/>
<path opacity="0.74" d="M291.33 131.19C284.87 128.73 277.77 128.78 270.87 128.85C220.42 129.39 169.97 129.92 119.52 130.46C97.0999 130.7 74.6899 130.94 52.2699 131.18C42.3199 131.29 31.1599 131.91 24.4599 139.25C23.1399 140.7 21.8499 142.48 19.9099 142.77C16.9499 143.22 14.76 139.78 14.7 136.79C14.58 131.18 18.8999 126.23 23.9999 123.87C29.0999 121.52 34.8799 121.24 40.4899 121.05C123.59 118.22 206.93 126.29 289.85 120.16C294.64 119.81 300.3 119.78 303.17 123.64C304.75 125.77 305.01 128.58 305.22 131.23C305.42 133.9 307.6 143.86 302.23 140.05C300.49 138.82 299.29 136.13 297.49 134.69C295.65 133.22 293.53 131.96 291.33 131.19Z" fill="white"/>
<path d="M304.7 145.08C304.7 145.08 293.69 140.99 278.9 140.99C264.11 140.99 44.0599 140.99 44.0599 140.99C44.0599 140.99 24.0799 140.2 18.4199 145.08V131.4C18.4199 126.1 22.7199 121.8 28.0199 121.8H295.11C300.41 121.8 304.71 126.1 304.71 131.4V145.08H304.7Z" stroke="#0D2232" stroke-width="6" stroke-miterlimit="10" stroke-linecap="round" stroke-linejoin="round"/>
<path d="M67.4298 175.08C67.4298 175.08 66.8898 204.07 67.4298 212.41C67.9698 220.75 62.3098 228.3 53.6598 222.48C45.0098 216.66 46.6898 182.06 46.6898 182.06C46.6898 182.06 55.6598 182.47 67.4298 175.08Z" fill="#253B5A" stroke="#0D2232" stroke-width="6" stroke-miterlimit="10"/>
<path d="M114.87 229.07C123.728 229.07 130.91 221.889 130.91 213.03C130.91 204.171 123.728 196.99 114.87 196.99C106.011 196.99 98.8298 204.171 98.8298 213.03C98.8298 221.889 106.011 229.07 114.87 229.07Z" fill="#0D2232"/>
<path d="M213.62 229.07C222.478 229.07 229.66 221.889 229.66 213.03C229.66 204.171 222.478 196.99 213.62 196.99C204.761 196.99 197.58 204.171 197.58 213.03C197.58 221.889 204.761 229.07 213.62 229.07Z" fill="#0D2232"/>
<path d="M236.13 495.54H86.3799V529.41H236.13V495.54Z" fill="#253B5A" stroke="#0D2232" stroke-width="6" stroke-miterlimit="10"/>
<path d="M186.94 495.54H139.54V529.41H186.94V495.54Z" fill="#C3CDD4" stroke="#0D2232" stroke-width="6" stroke-miterlimit="10"/>
<path d="M304.94 706H308.3C309.92 706 311.24 707.31 311.24 708.94V717.59C311.24 719.99 309.29 721.94 306.89 721.94H230.5L214.88 711.45V721.94H176.13C173.73 721.94 171.78 719.99 171.78 717.59V701.13C171.78 698.84 173.64 696.98 175.93 696.99H177.37L279 696.1L304.94 706Z" fill="#484D60" stroke="#0D2232" stroke-width="6" stroke-miterlimit="10" stroke-linecap="round" stroke-linejoin="round"/>
<path d="M306.51 702.23L304.94 706H234.94L216.85 696.98H177.35C177.35 696.98 175.54 688.28 177.06 677.5C178 670.81 180.23 663.32 184.97 656.61H245.16L249.88 661.65C249.88 661.65 258.37 661.96 259 669.83C259 669.83 260.49 669.08 263.06 668.26C268.13 666.64 277.39 664.71 287.63 667.63C303.05 672.03 310.29 691.85 306.51 702.23Z" fill="#E89F02"/>
<path d="M200.49 696.99H177.35C177.35 696.99 175.54 688.29 177.06 677.51C177.15 677.5 177.25 677.5 177.35 677.49C200.46 676.33 200.49 696.99 200.49 696.99Z" fill="#834526"/>
<path opacity="0.75" d="M306.51 702.23L304.94 706H294.87C294.87 706 303.83 673.71 263.07 668.25C268.14 666.63 277.4 664.7 287.64 667.62C303.05 672.03 310.29 691.85 306.51 702.23Z" fill="white"/>
<path d="M245.17 656.61L249.89 661.64C249.89 661.64 258.38 661.95 259.01 669.82C259.01 669.82 272.22 663.21 287.64 667.62C303.06 672.02 310.29 691.84 306.52 702.23L304.95 706.01H234.95L216.86 696.99H177.36C177.36 696.99 172.61 674.13 184.98 656.62H245.17V656.61Z" stroke="#0D2232" stroke-width="6" stroke-miterlimit="10" stroke-linecap="round" stroke-linejoin="round"/>
<path d="M259.01 669.83C259.01 669.83 238.77 676.44 234.94 706.01" stroke="#0D2232" stroke-width="6" stroke-miterlimit="10" stroke-linecap="round" stroke-linejoin="round"/>
<path d="M249.89 661.65C249.89 661.65 235.73 664.48 230.49 677.48" stroke="#0D2232" stroke-width="6" stroke-miterlimit="10" stroke-linecap="round" stroke-linejoin="round"/>
<path d="M249.89 635.12H176.46V656.62H249.89V635.12Z" fill="#435F84" stroke="#0D2232" stroke-width="6" stroke-miterlimit="10" stroke-linecap="round" stroke-linejoin="round"/>
<path d="M243.28 635.12L234.79 529.41H161.9V549.97L171.76 549.34L182.25 635.12H243.28Z" fill="#435F84" stroke="#0D2232" stroke-width="6" stroke-miterlimit="10" stroke-linecap="round" stroke-linejoin="round"/>
<path d="M18.8698 706H15.5098C13.8898 706 12.5698 707.31 12.5698 708.94V717.59C12.5698 719.99 14.5198 721.94 16.9198 721.94H93.3098L108.93 711.45V721.94H147.68C150.08 721.94 152.03 719.99 152.03 717.59V701.13C152.03 698.84 150.17 696.98 147.88 696.99H146.44L44.8098 696.1L18.8698 706Z" fill="#484D60" stroke="#0D2232" stroke-width="6" stroke-miterlimit="10" stroke-linecap="round" stroke-linejoin="round"/>
<path d="M17.2898 702.23L18.8598 706H88.8598L106.95 696.98H146.45C146.45 696.98 148.26 688.28 146.74 677.5C145.8 670.81 143.57 663.32 138.83 656.61H78.6398L73.9198 661.65C73.9198 661.65 65.4298 661.96 64.7998 669.83C64.7998 669.83 63.3098 669.08 60.7398 668.26C55.6698 666.64 46.4098 664.71 36.1698 667.63C20.7598 672.03 13.5198 691.85 17.2898 702.23Z" fill="#E89F02"/>
<path d="M123.32 696.99H146.46C146.46 696.99 148.27 688.29 146.75 677.51C146.66 677.5 146.56 677.5 146.46 677.49C123.35 676.33 123.32 696.99 123.32 696.99Z" fill="#834526"/>
<path opacity="0.75" d="M17.2899 702.23L18.8598 706H28.9299C28.9299 706 19.9699 673.71 60.7299 668.25C55.6599 666.63 46.3999 664.7 36.1599 667.62C20.7599 672.03 13.5199 691.85 17.2899 702.23Z" fill="white"/>
<path d="M78.6398 656.61L73.9198 661.64C73.9198 661.64 65.4298 661.95 64.7998 669.82C64.7998 669.82 51.5898 663.21 36.1698 667.62C20.7498 672.02 13.5198 691.84 17.2898 702.23L18.8598 706.01H88.8598L106.95 696.99H146.45C146.45 696.99 151.2 674.13 138.83 656.62H78.6398V656.61Z" stroke="#0D2232" stroke-width="6" stroke-miterlimit="10" stroke-linecap="round" stroke-linejoin="round"/>
<path d="M64.7998 669.83C64.7998 669.83 85.0398 676.44 88.8698 706.01" stroke="#0D2232" stroke-width="6" stroke-miterlimit="10" stroke-linecap="round" stroke-linejoin="round"/>
<path d="M73.9199 661.65C73.9199 661.65 88.0799 664.48 93.3199 677.48" stroke="#0D2232" stroke-width="6" stroke-miterlimit="10" stroke-linecap="round" stroke-linejoin="round"/>
<path d="M80.5298 635.12L89.0198 529.41H161.9V549.97L152.05 549.34L141.56 635.12H80.5298Z" fill="#435F84" stroke="#0D2232" stroke-width="6" stroke-miterlimit="10" stroke-linecap="round" stroke-linejoin="round"/>
<g opacity="0.16">
<path d="M66.2899 140.99H267.48L272.3 152.63H59.9099L66.2899 140.99Z" fill="black"/>
<path d="M46.6799 182.06C46.6799 182.06 82.2999 190.84 117.95 152.64L86.3699 147.85L46.6799 182.06Z" fill="black"/>
<path d="M133.88 179.37C133.88 179.37 187.03 188.19 221.1 146.81L191.6 147.84L133.88 179.37Z" fill="black"/>
</g>
<path opacity="0.16" d="M264.28 205.43C264.28 205.43 246.98 302.81 143.72 315.33C143.72 315.33 251.85 330.69 265.22 226.24L264.28 205.43Z" fill="black"/>
<path d="M230.1 477.14H92.29V489.43H230.1V477.14Z" fill="#E89F02"/>
<path d="M206.22 329.86H236.65V495.54H86.3799V329.86H116.16" stroke="#0D2232" stroke-width="6" stroke-miterlimit="10"/>
<path d="M99.2798 140.99C99.2798 140.99 72.2199 187.24 40.1299 181.57C37.2199 181.05 34.5998 180.47 32.2698 179.85C8.91983 173.57 13.0798 162.44 13.0798 162.44C13.0798 162.44 32.5998 167.8 46.1098 142.81C46.4298 142.22 46.7398 141.62 47.0498 141H99.2798V140.99Z" fill="#253B5A"/>
<path opacity="0.21" d="M37.9498 164.9C28.9598 170.4 25.3398 170.25 25.3398 170.25C25.3398 170.25 24.2398 174.82 32.2598 179.85C8.90982 173.57 13.0698 162.44 13.0698 162.44C13.0698 162.44 34.9498 165.98 48.4598 140.99C48.4798 141.33 46.8498 159.46 37.9498 164.9Z" fill="white"/>
<path d="M311.63 166.79C311.63 166.79 298.27 187.52 274.96 182.81C261.61 180.11 244.99 169.06 225.74 141L283.3 141.12C283.3 141.12 283.48 144.01 284.7 147.85C287.15 155.52 293.8 167 311.63 166.79Z" fill="#253B5A"/>
<path opacity="0.21" d="M311.63 166.79C311.63 166.79 298.27 187.52 274.96 182.81C277.62 182.05 280.2 180.96 282.67 179.73C287.65 177.24 292.31 174.15 297.26 171.6C291.76 171.34 286.86 167.28 284.7 162.21C283.18 158.63 282.12 152.66 283.86 148.97C284.09 148.48 284.39 148.11 284.72 147.86C287.15 155.52 293.8 167 311.63 166.79Z" fill="white"/>
<path d="M283.3 141.11C283.3 141.11 284.88 167.1 311.62 166.79C311.62 166.79 278.59 218.07 225.74 140.99L283.3 141.11Z" stroke="#0D2232" stroke-width="6" stroke-miterlimit="10" stroke-linecap="round" stroke-linejoin="round"/>
<path d="M199 140.99C199 140.99 186.73 174.34 133.88 179.37C133.88 179.37 143 163.01 143 140.99H199Z" fill="#253B5A" stroke="#0D2232" stroke-width="6" stroke-miterlimit="10" stroke-linecap="round" stroke-linejoin="round"/>
<path d="M99.2699 140.99C99.2699 140.99 72.2099 187.24 40.1299 181.57C8.04989 175.9 13.0699 162.43 13.0699 162.43C13.0699 162.43 33.5199 168.04 47.0499 140.98H99.2699V140.99Z" stroke="#0D2232" stroke-width="6" stroke-miterlimit="10" stroke-linecap="round" stroke-linejoin="round"/>
<path d="M267.48 226.29C267.48 226.29 264.75 278.47 215.04 306.47C165.33 334.47 112.17 314.33 86.37 288.85C60.57 263.37 59 224.53 59 224.53" stroke="#0D2232" stroke-width="6" stroke-miterlimit="10"/>
<path d="M281.11 183.5C281.11 183.5 280.64 210.21 279.54 215.4C278.44 220.59 273.88 227.04 265.23 226.25C256.58 225.46 256.89 214.3 256.74 206.43C256.58 198.57 256.74 174.54 256.74 174.54C256.74 174.54 268.52 183.85 281.11 183.5Z" fill="#253B5A" stroke="#0D2232" stroke-width="6" stroke-miterlimit="10" stroke-linecap="round" stroke-linejoin="round"/>
<path d="M179.75 529.41L202.59 656.61H184.97H176.46V635.12H182.25L171.76 546L161.9 549.97V529.41H179.75Z" fill="#253B5A"/>
<path d="M125.75 635.12L121.5 656.61H147.35V635.12H141.56L152.05 546L161.9 549.97V529.41H139.54L125.75 635.12Z" fill="#253B5A"/>
<path d="M171.76 549.34L184.14 547.87" stroke="#0D2232" stroke-width="6" stroke-miterlimit="10" stroke-linecap="round" stroke-linejoin="round"/>
<path d="M152.05 549.34L139.67 547.87" stroke="#0D2232" stroke-width="6" stroke-miterlimit="10" stroke-linecap="round" stroke-linejoin="round"/>
<path d="M234.79 529.41H221.32L230.49 635.12H236.65V656.61H249.89V635.12H243.28L234.79 529.41Z" fill="#C3CDD4"/>
<path d="M89.6798 529.41H103.15L93.9799 635.12H87.8199V656.61H74.5798V635.12H81.1898L89.6798 529.41Z" fill="#C3CDD4"/>
<path d="M249.89 635.12H176.46V656.62H249.89V635.12Z" stroke="#0D2232" stroke-width="6" stroke-miterlimit="10" stroke-linecap="round" stroke-linejoin="round"/>
<path d="M243.28 635.12L234.79 529.41H161.9V549.97L171.76 549.34L182.25 635.12H243.28Z" stroke="#0D2232" stroke-width="6" stroke-miterlimit="10" stroke-linecap="round" stroke-linejoin="round"/>
<path d="M80.5298 635.12L89.0198 529.41H161.9V549.97L152.05 549.34L141.56 635.12H80.5298Z" stroke="#0D2232" stroke-width="6" stroke-miterlimit="10" stroke-linecap="round" stroke-linejoin="round"/>
<path d="M312.76 542.09H295.56V607.23H312.76V542.09Z" fill="#E89F02"/>
<path d="M402.21 521.34V531.68C402.21 534.43 399.97 536.66 397.22 536.66H318.75C316 536.66 313.77 534.43 313.77 531.68V521.34C313.77 520.74 313.88 520.16 314.07 519.63C314.76 517.72 316.6 516.35 318.75 516.35H397.22C399.37 516.35 401.21 517.72 401.91 519.63C402.1 520.16 402.21 520.74 402.21 521.34Z" fill="#AFCADC"/>
<path opacity="0.2" d="M313.76 530.58V531.68C313.76 534.43 315.99 536.67 318.74 536.67H397.21C399.96 536.67 402.19 534.44 402.19 531.68V530.58H313.76Z" fill="black"/>
<path opacity="0.7" d="M401.9 519.63H314.06C314.75 517.72 316.59 516.35 318.74 516.35H397.21C399.37 516.35 401.21 517.71 401.9 519.63Z" fill="white"/>
<path d="M402.21 521.34V531.68C402.21 534.43 399.97 536.66 397.22 536.66H318.75C316 536.66 313.77 534.43 313.77 531.68V521.34C313.77 520.74 313.88 520.16 314.07 519.63C314.76 517.72 316.6 516.35 318.75 516.35H397.22C399.37 516.35 401.21 517.72 401.91 519.63C402.1 520.16 402.21 520.74 402.21 521.34Z" stroke="#0D2232" stroke-width="4" stroke-miterlimit="10" stroke-linecap="round" stroke-linejoin="round"/>
<path d="M228.26 535.02C228.26 535.02 249.47 551.73 313.76 545.31" stroke="white" stroke-miterlimit="10"/>
<path d="M210.26 495.16V583.88L221.83 595.45H300.9L290.3 587.09L290.94 495.16H210.26Z" fill="#F9DC1B"/>
<path d="M219.9 495.16V578.32L226.65 587.09H307.65L300.9 595.45H221.83L210.26 583.88V495.16H219.9Z" fill="#E89F02"/>
<path d="M222.47 507.52H217.33V512.66H222.47V507.52Z" fill="white"/>
<path d="M222.47 523.93H217.33V529.07H222.47V523.93Z" fill="white"/>
<path d="M222.47 540.35H217.33V545.49H222.47V540.35Z" fill="white"/>
<path d="M222.47 556.76H217.33V561.9H222.47V556.76Z" fill="white"/>
<path d="M222.47 573.17H217.33V578.31H222.47V573.17Z" fill="white"/>
<path d="M290.94 530.2V495.16H210.26V583.88L221.83 595.45H293.84" stroke="#0D2232" stroke-width="4" stroke-miterlimit="10" stroke-linecap="round" stroke-linejoin="round"/>
<path d="M73.9243 656.609L147.354 656.609L147.354 635.109L73.9243 635.109L73.9243 656.609Z" stroke="#0D2232" stroke-width="6" stroke-miterlimit="10" stroke-linecap="round" stroke-linejoin="round"/>
<path d="M303.16 373.55C303.16 373.55 330.8 389.62 325.02 410.84C319.24 432.06 278.09 460.34 278.09 460.34C278.09 460.34 276.16 436.55 247.23 431.41L265.23 413.41L303.16 373.55Z" fill="#FBC6A6"/>
<path d="M247.23 431.4L238.23 436.86V492.79H278.73L278.09 460.33C278.09 460.33 275.52 435.9 247.23 431.4Z" fill="#FBC6A6"/>
<path opacity="0.16" d="M299.1 377.81C299.1 377.81 324.58 390.25 318.93 410.97C313.28 431.7 277.63 453.72 277.63 453.72" stroke="black" stroke-width="6" stroke-miterlimit="10"/>
<path opacity="0.16" d="M274.73 492.8L274.09 447.75" stroke="black" stroke-width="6" stroke-miterlimit="10"/>
<path opacity="0.5" d="M253.4 431.97L308.54 375.05" stroke="white" stroke-width="6" stroke-miterlimit="10"/>
<path opacity="0.5" d="M243.4 433.12V494.36" stroke="white" stroke-width="6" stroke-miterlimit="10"/>
<path d="M303.16 373.55C303.16 373.55 330.8 389.62 325.02 410.84C319.24 432.06 278.09 460.34 278.09 460.34C278.09 460.34 276.16 436.55 247.23 431.41L265.23 413.41L303.16 373.55Z" stroke="#0D2232" stroke-width="6" stroke-miterlimit="10" stroke-linecap="round" stroke-linejoin="round"/>
<path d="M247.23 431.4L238.23 436.86V492.79H278.73L278.09 460.33C278.09 460.33 275.52 435.9 247.23 431.4Z" stroke="#0D2232" stroke-width="6" stroke-miterlimit="10" stroke-linecap="round" stroke-linejoin="round"/>
<path d="M248.92 415.11L274.51 426.85L297.45 378.32L303.66 365.19L279.12 353.03L272.36 366.92L248.92 415.11Z" fill="#435F84"/>
<path opacity="0.21" d="M272.36 366.92L272.4 366.96L297.45 378.32L303.66 365.19L279.12 353.03L272.36 366.92Z" fill="white"/>
<path d="M236.65 336.67V403.37L251.23 410.92L272.4 366.96L276.81 357.78L236.65 336.67Z" fill="#F9DC1B"/>
<path opacity="0.5" d="M236.65 336.67V348.62L272.4 366.96L276.81 357.78L236.65 336.67Z" fill="white"/>
<path d="M259.84 393.02L236.65 383.65V403.37L251.23 410.92L259.84 393.02Z" fill="#E89F02"/>
<path d="M279.12 353.03L248.92 415.11L274.51 426.86L303.66 365.19L279.12 353.03Z" stroke="#0D2232" stroke-width="6" stroke-miterlimit="10" stroke-linecap="round" stroke-linejoin="round"/>
<path d="M236.65 336.67L276.81 357.78L251.23 410.92L236.65 403.37V336.67Z" stroke="#0D2232" stroke-width="6" stroke-miterlimit="10"/>
<path d="M239.82 450.67V467.93C239.82 469.27 238.73 470.36 237.4 470.36H228.03C226.69 470.36 225.6 469.27 225.6 467.93V450.67C225.6 449.33 226.69 448.25 228.03 448.25H237.4C238.74 448.24 239.82 449.33 239.82 450.67Z" fill="#AFCADC"/>
<path d="M237.4 470.53H228.03C226.6 470.53 225.43 469.37 225.43 467.93V450.67C225.43 449.24 226.59 448.08 228.03 448.08H237.4C238.83 448.08 239.99 449.24 239.99 450.67V467.93C239.99 469.36 238.83 470.53 237.4 470.53ZM228.03 448.41C226.79 448.41 225.77 449.42 225.77 450.66V467.92C225.77 469.16 226.78 470.18 228.03 470.18H237.4C238.64 470.18 239.65 469.17 239.65 467.92V450.66C239.65 449.42 238.64 448.41 237.4 448.41H228.03Z" fill="#000072"/>
<g opacity="0.2">
<path d="M239.82 464.1V467.93C239.82 469.27 238.73 470.36 237.4 470.36H228.03C226.69 470.36 225.6 469.27 225.6 467.93V464.1C225.6 465.44 226.69 466.53 228.03 466.53H237.4C238.74 466.52 239.82 465.44 239.82 464.1Z" fill="black"/>
</g>
<g opacity="0.55">
<path d="M239.82 450.67V453.38C239.82 452.04 238.73 450.96 237.4 450.96H228.03C226.69 450.96 225.6 452.05 225.6 453.38V450.67C225.6 449.33 226.69 448.25 228.03 448.25H237.4C238.74 448.24 239.82 449.33 239.82 450.67Z" fill="white"/>
</g>
<path d="M250.28 465.7H239.82V453.43H248.69L250.28 465.7Z" fill="#AFCADC"/>
<path d="M250.47 465.87H239.66V453.26H248.85L250.47 465.87ZM239.99 465.53H250.08L248.54 453.6H239.99V465.53Z" fill="#000072"/>
<path d="M299.43 463.89C299.28 465.64 297.22 466.51 295.89 465.36C288.42 458.94 277.38 462.56 275.13 471.72C274.75 473.25 273.41 474.33 271.84 474.33H254.37C252.67 474.33 251.23 473.07 251.02 471.38L250.29 465.7L248.71 453.43L248.18 449.29C247.92 447.27 249.5 445.47 251.54 445.47H280.19C291.78 445.48 300.21 454.43 299.43 463.89Z" fill="#AFCADC"/>
<path d="M271.84 474.5H254.37C252.59 474.5 251.07 473.17 250.85 471.4L248 449.31C247.87 448.3 248.18 447.28 248.86 446.51C249.53 445.74 250.51 445.3 251.53 445.3H280.18C286.01 445.3 291.48 447.61 295.19 451.63C298.41 455.13 299.99 459.48 299.62 463.89C299.55 464.77 298.99 465.53 298.18 465.86C297.36 466.2 296.47 466.05 295.8 465.47C292.33 462.49 287.76 461.52 283.55 462.86C279.43 464.18 276.35 467.5 275.31 471.74C274.9 473.38 273.47 474.5 271.84 474.5ZM251.51 445.65C250.59 445.65 249.71 446.05 249.1 446.74C248.49 447.43 248.21 448.36 248.33 449.27L251.18 471.36C251.39 472.96 252.76 474.16 254.37 474.16H271.84C273.32 474.16 274.61 473.14 274.97 471.68C276.04 467.32 279.2 463.91 283.43 462.55C287.75 461.17 292.45 462.17 296 465.22C296.57 465.71 297.33 465.84 298.03 465.55C298.74 465.26 299.2 464.63 299.26 463.87C299.61 459.55 298.07 455.29 294.91 451.87C291.27 447.92 285.89 445.65 280.15 445.65H251.51Z" fill="#000072"/>
<g opacity="0.2">
<path d="M299.43 463.89C299.28 465.64 297.22 466.51 295.89 465.36C288.42 458.94 277.38 462.56 275.13 471.72C274.75 473.25 273.41 474.33 271.84 474.33H254.37C252.67 474.33 251.23 473.07 251.02 471.38L250.84 470.02C251.29 470.24 251.78 470.36 252.31 470.36H269.78C271.35 470.36 272.7 469.27 273.07 467.75C275.32 458.59 286.36 454.96 293.83 461.39C295.16 462.54 297.22 461.67 297.37 459.92C297.55 457.76 297.24 455.62 296.53 453.61C298.65 456.63 299.73 460.22 299.43 463.89Z" fill="black"/>
</g>
<g opacity="0.55">
<path d="M295.36 452.11C292.02 449.46 287.6 447.79 282.59 447.79H253.94C251.9 447.79 250.32 449.58 250.58 451.61L251.11 455.75L252.69 468.02L253.42 473.7C253.44 473.89 253.48 474.07 253.54 474.24C252.21 473.92 251.18 472.8 250.99 471.39L250.26 465.71L248.68 453.44L248.15 449.3C247.89 447.28 249.47 445.48 251.51 445.48H280.16C286.51 445.48 291.9 448.15 295.36 452.11Z" fill="white"/>
</g>
<g opacity="0.55">
<path d="M239.82 453.38H226.17V457.16H239.82V453.38Z" fill="white"/>
</g>
<path d="M271.53 474.33H255.45V515.37H271.53V474.33Z" fill="#435F84" stroke="#0D2232" stroke-width="4" stroke-miterlimit="10" stroke-linecap="round" stroke-linejoin="round"/>
<g opacity="0.2">
<path d="M255.5 481.54C255.97 481.55 256.39 481.72 256.78 481.93C257.17 482.14 257.53 482.41 257.87 482.7C258.55 483.27 259.17 483.91 259.68 484.65C260.7 486.11 261.28 487.76 262.3 489.05C262.8 489.69 263.43 490.21 264.15 490.6C264.87 490.98 265.67 491.24 266.48 491.41C267.3 491.58 268.14 491.68 268.99 491.76C269.41 491.8 269.84 491.83 270.27 491.84C270.7 491.87 271.14 491.93 271.54 492.21C271.6 492.25 271.61 492.33 271.57 492.39C271.56 492.41 271.54 492.42 271.52 492.43H271.51C271.05 492.63 270.64 492.59 270.21 492.56C269.79 492.5 269.36 492.47 268.93 492.43C268.07 492.35 267.2 492.25 266.34 492.07C265.48 491.89 264.62 491.62 263.83 491.2C263.04 490.78 262.32 490.18 261.76 489.47C260.64 488.05 260.07 486.39 259.11 485.04C258.63 484.37 258.07 483.75 257.41 483.25C257.08 483 256.74 482.77 256.39 482.54C256.05 482.31 255.7 482.08 255.39 481.75C255.34 481.7 255.34 481.63 255.39 481.58C255.43 481.55 255.46 481.53 255.5 481.54Z" fill="#371A45"/>
<path d="M271.55 489C270.67 489.48 269.64 489.5 268.67 489.36C267.7 489.22 266.74 488.98 265.86 488.53C265.41 488.32 265 488.04 264.61 487.74C264.23 487.42 263.86 487.08 263.57 486.67C262.94 485.88 262.61 484.89 262.42 483.95C262.23 483 262.14 482.07 261.88 481.21C261.75 480.78 261.58 480.38 261.34 480.01C261.23 479.82 261.09 479.65 260.96 479.48C260.81 479.32 260.67 479.15 260.5 479.01C259.85 478.41 259.03 478 258.17 477.79C257.74 477.68 257.29 477.64 256.86 477.67C256.42 477.7 256.01 477.77 255.51 477.7H255.5C255.48 477.7 255.45 477.69 255.42 477.68L255.4 477.67C255.33 477.65 255.29 477.59 255.31 477.52C255.32 477.5 255.33 477.48 255.34 477.46C255.37 477.43 255.39 477.41 255.42 477.39H255.41C255.81 477.05 256.34 476.94 256.84 476.94C257.34 476.96 257.84 476.99 258.33 477.12C259.3 477.35 260.22 477.82 260.96 478.49C261.71 479.14 262.27 480.06 262.54 481C262.82 481.95 262.91 482.9 263.09 483.8C263.27 484.7 263.56 485.55 264.11 486.24C264.37 486.6 264.7 486.9 265.04 487.19C265.4 487.46 265.77 487.71 266.18 487.9C266.98 488.3 267.87 488.55 268.77 488.64C268.99 488.67 269.22 488.66 269.45 488.68C269.68 488.67 269.9 488.69 270.13 488.68C270.58 488.69 271.03 488.64 271.53 488.75H271.54C271.6 488.76 271.64 488.83 271.63 488.89C271.6 488.96 271.58 488.98 271.55 489Z" fill="#371A45"/>
<path d="M271.56 484.31C271.3 484.56 270.98 484.67 270.65 484.72C270.49 484.75 270.32 484.76 270.15 484.75C269.98 484.74 269.82 484.72 269.66 484.71C269.01 484.62 268.37 484.45 267.78 484.17C266.6 483.62 265.58 482.74 264.87 481.66C264.15 480.58 263.74 479.32 263.59 478.05C263.52 477.41 263.51 476.77 263.56 476.14C263.58 475.82 263.63 475.51 263.66 475.19C263.69 474.87 263.76 474.56 264 474.29V474.31C264.04 474.27 264.07 474.22 264.12 474.19C264.19 474.14 264.28 474.16 264.33 474.22L264.34 474.23V474.24C264.37 474.29 264.38 474.33 264.4 474.37V474.39C264.49 474.72 264.43 475.01 264.36 475.3C264.29 475.59 264.26 475.89 264.24 476.19C264.19 476.79 264.2 477.38 264.27 477.98C264.4 479.16 264.79 480.31 265.44 481.29C266.09 482.27 267.01 483.07 268.07 483.56C268.6 483.8 269.16 483.98 269.74 484.01C270.03 484.02 270.31 484.03 270.6 484.02C270.89 484.02 271.17 484.01 271.51 484.09C271.58 484.11 271.62 484.18 271.6 484.25C271.59 484.27 271.57 484.29 271.56 484.31Z" fill="#371A45"/>
<path d="M267.48 474.39C267.53 474.65 267.47 474.85 267.4 475.04C267.33 475.23 267.24 475.4 267.16 475.58C267 475.94 266.9 476.31 266.84 476.69C266.74 477.43 266.89 478.22 267.31 478.81C267.52 479.1 267.8 479.33 268.12 479.47C268.44 479.61 268.81 479.67 269.18 479.65C269.55 479.64 269.93 479.56 270.29 479.44C270.47 479.39 270.65 479.28 270.82 479.18C271 479.09 271.18 479.02 271.47 479.14H271.48C271.56 479.17 271.6 479.25 271.58 479.33C271.51 479.63 271.31 479.74 271.12 479.83C271.02 479.87 270.92 479.9 270.82 479.95C270.72 480 270.62 480.04 270.52 480.07C270.1 480.21 269.66 480.31 269.21 480.32C268.76 480.34 268.29 480.27 267.85 480.08C267.42 479.89 267.03 479.57 266.76 479.19C266.22 478.42 266.05 477.47 266.17 476.58C266.23 476.14 266.37 475.71 266.51 475.3C266.58 475.09 266.66 474.89 266.78 474.71C266.89 474.53 267.04 474.36 267.29 474.27C267.37 474.24 267.45 474.28 267.48 474.36C267.48 474.37 267.48 474.38 267.48 474.39Z" fill="#371A45"/>
<path d="M255.47 487.44C256.02 487.37 256.58 487.55 257.04 487.83C257.51 488.1 257.92 488.47 258.28 488.86C259 489.65 259.58 490.52 260.13 491.37C260.68 492.22 261.24 493.06 261.93 493.74C262.62 494.42 263.48 494.91 264.38 495.36C265.28 495.81 266.24 496.23 267.11 496.86C267.97 497.49 268.7 498.28 269.28 499.16C269.87 500.03 270.32 500.97 270.72 501.92C270.92 502.4 271.11 502.87 271.31 503.34C271.5 503.82 271.67 504.3 271.62 504.86C271.61 504.93 271.55 504.98 271.49 504.97C271.46 504.97 271.43 504.95 271.41 504.94C271 504.55 270.81 504.07 270.63 503.6C270.47 503.12 270.28 502.65 270.09 502.18C269.7 501.25 269.26 500.35 268.71 499.53C268.17 498.7 267.49 497.98 266.71 497.4C265.92 496.83 265 496.42 264.08 495.96C263.16 495.51 262.22 494.98 261.45 494.22C260.69 493.47 260.11 492.59 259.55 491.74C258.99 490.89 258.46 490.04 257.77 489.34C257.42 489 257.05 488.69 256.66 488.42C256.27 488.14 255.87 487.93 255.42 487.66C255.36 487.63 255.34 487.55 255.38 487.5C255.4 487.47 255.44 487.45 255.47 487.44Z" fill="#371A45"/>
<path d="M267.31 494.25C267.49 494.15 267.62 494.17 267.73 494.21C267.84 494.25 267.93 494.32 268.03 494.39C268.22 494.53 268.42 494.64 268.61 494.77C268.99 495.03 269.37 495.3 269.73 495.58C270.09 495.86 270.45 496.16 270.79 496.47C270.96 496.63 271.13 496.79 271.29 496.95C271.37 497.03 271.45 497.12 271.55 497.18C271.63 497.26 271.71 497.35 271.61 497.6C271.58 497.68 271.52 497.73 271.45 497.75C271.2 497.83 271.11 497.76 271.04 497.68C270.98 497.58 270.9 497.51 270.82 497.43C270.66 497.27 270.5 497.12 270.34 496.97C270.01 496.67 269.67 496.38 269.32 496.11C268.97 495.84 268.61 495.58 268.24 495.33C268.05 495.21 267.87 495.08 267.67 494.98C267.57 494.93 267.47 494.89 267.38 494.81C267.29 494.74 267.22 494.64 267.21 494.44C267.2 494.36 267.25 494.29 267.31 494.25Z" fill="#371A45"/>
<path d="M255.52 491.96C256.1 492.2 256.52 492.73 256.81 493.26C257.1 493.8 257.28 494.38 257.44 494.93C257.6 495.49 257.76 496.03 257.98 496.54C258.19 497.05 258.46 497.53 258.81 497.92C259.16 498.31 259.61 498.58 260.11 498.76C260.61 498.93 261.17 499.01 261.73 499.06C262.3 499.11 262.88 499.13 263.47 499.21C264.06 499.29 264.67 499.42 265.24 499.7C265.81 499.98 266.31 500.4 266.68 500.89C267.06 501.38 267.33 501.94 267.55 502.49C267.98 503.61 268.2 504.76 268.5 505.86C268.79 506.96 269.21 508.01 269.77 508.99C270.04 509.48 270.35 509.96 270.7 510.4C271.04 510.85 271.38 511.29 271.6 511.87C271.62 511.93 271.59 512 271.53 512.03C271.5 512.04 271.46 512.04 271.44 512.03C270.86 511.77 270.47 511.31 270.12 510.83C269.79 510.34 269.47 509.84 269.18 509.32C268.6 508.29 268.15 507.18 267.85 506.04C267.54 504.91 267.32 503.78 266.92 502.74C266.72 502.22 266.47 501.73 266.14 501.31C265.82 500.89 265.41 500.54 264.93 500.31C263.98 499.84 262.82 499.84 261.66 499.74C261.07 499.69 260.47 499.61 259.88 499.41C259.29 499.21 258.72 498.86 258.3 498.38C257.45 497.43 257.12 496.22 256.76 495.14C256.58 494.59 256.39 494.07 256.17 493.57C255.94 493.07 255.69 492.62 255.37 492.13C255.33 492.08 255.35 492 255.4 491.97C255.44 491.94 255.49 491.94 255.52 491.96Z" fill="#371A45"/>
<path d="M255.48 501.69C255.93 501.63 256.32 501.64 256.74 501.65L257.99 501.68C258.84 501.68 259.73 501.65 260.61 501.81C261.05 501.89 261.5 502.01 261.92 502.21C262.34 502.41 262.74 502.69 263.05 503.06C263.37 503.42 263.58 503.86 263.72 504.3C263.86 504.74 263.92 505.19 263.96 505.63C264.02 506.52 264 507.36 264.06 508.2C264.11 509.04 264.2 509.88 264.36 510.7C264.52 511.52 264.76 512.32 265.09 513.08C265.26 513.46 265.44 513.83 265.68 514.16C265.9 514.51 266.12 514.84 266.21 515.31C266.22 515.38 266.18 515.45 266.11 515.46C266.09 515.46 266.06 515.46 266.04 515.45C265.57 515.28 265.29 514.91 265.06 514.53C264.85 514.14 264.64 513.75 264.46 513.34C264.11 512.53 263.86 511.68 263.69 510.82C263.52 509.96 263.43 509.1 263.37 508.23C263.31 507.37 263.33 506.5 263.27 505.68C263.21 504.86 263.02 504.06 262.52 503.5C262.03 502.92 261.27 502.61 260.48 502.48C259.68 502.34 258.85 502.34 257.99 502.38C257.56 502.4 257.12 502.41 256.68 502.35C256.24 502.3 255.79 502.19 255.41 501.91C255.36 501.87 255.35 501.79 255.39 501.74C255.42 501.71 255.45 501.69 255.48 501.69Z" fill="#371A45"/>
<path d="M266.7 509.16C266.91 509.24 267 509.36 267.06 509.49C267.13 509.62 267.17 509.75 267.2 509.89C267.28 510.16 267.4 510.43 267.5 510.69C267.72 511.22 267.95 511.74 268.21 512.24C268.47 512.75 268.74 513.25 269.04 513.74C269.19 513.98 269.34 514.22 269.5 514.46C269.58 514.58 269.66 514.7 269.76 514.8C269.85 514.91 269.92 515.04 269.8 515.29C269.77 515.37 269.69 515.41 269.62 515.42C269.34 515.44 269.25 515.33 269.17 515.2C269.11 515.06 269.03 514.94 268.94 514.82C268.78 514.57 268.62 514.33 268.47 514.07C268.17 513.57 267.88 513.05 267.62 512.53C267.36 512.01 267.11 511.47 266.89 510.93C266.77 510.66 266.68 510.38 266.56 510.11C266.5 509.98 266.44 509.84 266.41 509.7C266.38 509.55 266.38 509.4 266.5 509.21C266.53 509.16 266.62 509.13 266.7 509.16Z" fill="#371A45"/>
<path d="M255.43 505.61C255.69 505.38 255.98 505.29 256.28 505.23C256.58 505.17 256.89 505.17 257.21 505.2C257.83 505.24 258.47 505.36 259.05 505.65C259.63 505.94 260.12 506.38 260.49 506.88C260.86 507.39 261.14 507.95 261.32 508.54C261.7 509.72 261.73 510.98 261.51 512.18C261.4 512.78 261.23 513.37 261 513.93L260.64 514.77C260.51 515.04 260.33 515.3 259.98 515.43C259.91 515.46 259.82 515.42 259.8 515.34C259.8 515.33 259.8 515.32 259.79 515.31V515.3C259.73 514.92 259.87 514.69 260 514.43C260.15 514.19 260.27 513.93 260.37 513.67C260.58 513.15 260.74 512.6 260.84 512.05C261.04 510.95 261.01 509.8 260.67 508.74C260.34 507.69 259.69 506.72 258.73 506.24C258.26 506 257.72 505.88 257.18 505.88C256.91 505.88 256.63 505.91 256.35 505.91C256.07 505.92 255.79 505.92 255.47 505.81C255.4 505.79 255.37 505.71 255.39 505.64C255.4 505.65 255.41 505.63 255.43 505.61Z" fill="#371A45"/>
<path d="M255.42 509.32C255.54 509.11 255.74 509.03 255.93 509C256.12 508.97 256.32 508.99 256.5 509.04C256.87 509.13 257.24 509.28 257.54 509.54C258.14 510.05 258.44 510.82 258.4 511.59C258.38 511.97 258.25 512.37 258.05 512.68C257.85 513 257.59 513.27 257.32 513.5C257.05 513.73 256.76 513.92 256.48 514.1C256.34 514.19 256.19 514.28 256.07 514.39C255.93 514.48 255.78 514.56 255.52 514.44C255.44 514.41 255.4 514.33 255.4 514.25C255.42 513.95 255.55 513.86 255.69 513.78C255.84 513.71 255.98 513.63 256.12 513.54C256.39 513.36 256.66 513.18 256.89 512.99C257.37 512.6 257.71 512.12 257.73 511.56C257.76 511.01 257.53 510.42 257.11 510.07C256.9 509.9 256.65 509.77 256.37 509.74C256.23 509.73 256.09 509.73 255.96 509.71C255.82 509.7 255.68 509.67 255.49 509.54L255.48 509.53C255.4 509.48 255.38 509.39 255.42 509.32Z" fill="#371A45"/>
</g>
<g opacity="0.55">
<path d="M257.84 515.37H255.45V479.99H255.79C256.92 479.99 257.84 480.91 257.84 482.04V515.37Z" fill="white"/>
</g>
<g opacity="0.3">
<path d="M271.53 474.33V515.37H267.72V483.84C267.72 481.74 266.02 480.04 263.92 480.04H255.45V474.33H271.53Z" fill="#371A45"/>
</g>
<path d="M275.25 518.76V560.05C275.25 561.92 273.73 563.43 271.87 563.43H255.28C254.72 563.43 254.19 563.29 253.73 563.05C252.64 562.49 251.9 561.35 251.9 560.04V518.75C251.9 516.88 253.42 515.37 255.28 515.37H271.87C273.74 515.37 275.25 516.89 275.25 518.76Z" fill="#F9DC1B"/>
<path d="M271.87 563.61H255.28C254.71 563.61 254.15 563.47 253.65 563.22L253.56 563.17C252.43 562.55 251.73 561.37 251.73 560.06V518.77C251.73 516.81 253.32 515.22 255.28 515.22H271.87C273.83 515.22 275.42 516.81 275.42 518.77V560.06C275.42 562.01 273.83 563.61 271.87 563.61ZM253.9 562.96C254.33 563.16 254.8 563.27 255.28 563.27H271.87C273.64 563.27 275.09 561.83 275.09 560.05V518.76C275.09 516.99 273.65 515.54 271.87 515.54H255.28C253.51 515.54 252.06 516.98 252.06 518.76V560.05C252.06 561.26 252.73 562.35 253.8 562.91L253.9 562.96Z" fill="#000072"/>
<path d="M275.25 518.76V560.05C275.25 561.92 273.73 563.43 271.87 563.43H266.36C268.23 563.43 269.74 561.91 269.74 560.05V518.76C269.74 516.89 268.22 515.38 266.36 515.38H271.87C273.74 515.37 275.25 516.89 275.25 518.76Z" fill="#E89F02"/>
<path d="M271.87 563.61H266.36V563.27C268.13 563.27 269.58 561.83 269.58 560.05V518.76C269.58 516.99 268.14 515.54 266.36 515.54V515.2H271.87C273.83 515.2 275.42 516.79 275.42 518.75V560.04C275.42 562.01 273.83 563.61 271.87 563.61ZM267.87 563.27H271.86C273.63 563.27 275.08 561.83 275.08 560.05V518.76C275.08 516.99 273.64 515.54 271.86 515.54H267.87C269.08 516.11 269.91 517.34 269.91 518.76V560.05C269.91 561.47 269.08 562.7 267.87 563.27Z" fill="#E89F02"/>
<g opacity="0.55">
<path d="M256.29 563.06C256.75 563.3 257.28 563.44 257.84 563.44H255.28C254.72 563.44 254.19 563.3 253.73 563.06C252.64 562.5 251.9 561.36 251.9 560.05V518.76C251.9 516.89 253.42 515.38 255.28 515.38H257.84C255.97 515.38 254.46 516.9 254.46 518.76V560.05C254.46 561.36 255.2 562.5 256.29 563.06Z" fill="white"/>
</g>
<g opacity="0.2">
<path d="M242.08 453.43L244.34 465.7H239.82V453.43H242.08Z" fill="black"/>
</g>
<g opacity="0.2">
<path d="M265.32 453.98C265.32 455.73 263.11 455.26 260.38 455.26C257.65 455.26 255.44 455.73 255.44 453.98C255.44 452.23 257.65 450.81 260.38 450.81C263.11 450.81 265.32 452.23 265.32 453.98Z" fill="white"/>
</g>
<g opacity="0.2">
<path d="M262.09 535.57C262.09 538.84 260.71 541.49 259.01 541.49C257.31 541.49 257.28 538.84 257.28 535.57C257.28 532.3 257.31 529.65 259.01 529.65C260.71 529.65 262.09 532.3 262.09 535.57Z" fill="white"/>
</g>
<path d="M239.82 450.67V467.93C239.82 469.27 238.73 470.36 237.4 470.36H228.03C226.69 470.36 225.6 469.27 225.6 467.93V450.67C225.6 449.33 226.69 448.25 228.03 448.25H237.4C238.74 448.24 239.82 449.33 239.82 450.67Z" stroke="#0D2232" stroke-width="4" stroke-miterlimit="10" stroke-linecap="round" stroke-linejoin="round"/>
<path d="M250.28 465.7H239.82V453.43H248.69L250.28 465.7Z" stroke="#0D2232" stroke-width="4" stroke-miterlimit="10" stroke-linecap="round" stroke-linejoin="round"/>
<path d="M299.43 463.89C299.28 465.64 297.22 466.51 295.89 465.36C288.42 458.94 277.38 462.56 275.13 471.72C274.75 473.25 273.41 474.33 271.84 474.33H254.37C252.67 474.33 251.23 473.07 251.02 471.38L250.29 465.7L248.71 453.43L248.18 449.29C247.92 447.27 249.5 445.47 251.54 445.47H280.19C291.78 445.48 300.21 454.43 299.43 463.89Z" stroke="#0D2232" stroke-width="4" stroke-miterlimit="10" stroke-linecap="round" stroke-linejoin="round"/>
<path d="M271.53 474.33H255.45V515.37H271.53V474.33Z" stroke="#0D2232" stroke-width="4" stroke-miterlimit="10" stroke-linecap="round" stroke-linejoin="round"/>
<path d="M275.25 518.76V560.05C275.25 561.92 273.73 563.43 271.87 563.43H255.28C254.72 563.43 254.19 563.29 253.73 563.05C252.64 562.49 251.9 561.35 251.9 560.04V518.75C251.9 516.88 253.42 515.37 255.28 515.37H271.87C273.74 515.37 275.25 516.89 275.25 518.76Z" stroke="#0D2232" stroke-width="4" stroke-miterlimit="10" stroke-linecap="round" stroke-linejoin="round"/>
<path d="M293.67 575.22C293.66 575.17 293.66 575.12 293.66 575.07L295.47 491.01C295.48 490.37 296.01 489.87 296.65 489.88L311.11 490.19C311.42 490.2 311.71 490.32 311.92 490.55C312.1 490.73 312.21 490.97 312.23 491.22C312.24 491.27 312.24 491.32 312.24 491.37L310.43 575.43C310.42 576.07 309.89 576.57 309.25 576.56L294.79 576.25C294.48 576.24 294.19 576.12 293.98 575.89C293.81 575.71 293.7 575.47 293.67 575.22Z" fill="#C14854"/>
<path d="M299.259 491.098L297.468 575.161L306.726 575.358L308.517 491.295L299.259 491.098Z" fill="#E8656D"/>
<path opacity="0.5" d="M298.143 487.416L296.269 576.238L297.409 576.262L299.283 487.44L298.143 487.416Z" fill="white"/>
<path d="M290.91 493.14C290.12 492.55 289.36 491.89 288.65 491.19C284.43 487.04 282.07 481.49 282.02 475.56C281.97 469.64 284.23 464.05 288.39 459.83C289.47 458.73 290.66 457.75 291.94 456.9C292.32 456.65 292.81 456.64 293.2 456.89C293.23 456.91 293.25 456.92 293.27 456.94C293.61 457.19 293.78 457.61 293.72 458.03L291.98 469.64L304.93 476.1L315.08 465.78L310.01 456.02C309.79 455.6 309.85 455.09 310.16 454.73C310.47 454.37 310.96 454.24 311.41 454.39C313.6 455.14 315.64 456.22 317.5 457.61C318.29 458.2 319.05 458.86 319.76 459.55C323.98 463.7 326.34 469.25 326.39 475.18C326.44 481.1 324.18 486.69 320.02 490.91C312.25 498.82 299.74 499.77 290.91 493.14Z" fill="#E8656D"/>
<path d="M311.03 455.5L311.83 457.04C313.07 457.82 314.24 458.74 315.33 459.81C323.61 467.95 323.72 481.26 315.58 489.54C311.08 494.12 304.99 496.19 299.05 495.76C306.05 497.52 313.77 495.64 319.19 490.12C327.33 481.84 327.22 468.53 318.94 460.39C316.62 458.12 313.91 456.49 311.03 455.5Z" fill="#C14854"/>
<path opacity="0.5" d="M289.09 486.72C297.04 496.88 307.61 493.41 307.61 493.41C307.61 493.41 299.75 491.59 293.92 485.31C287.83 478.76 285.54 471.8 285.54 471.8C285.54 471.8 283.34 479.36 289.09 486.72Z" fill="white"/>
<path opacity="0.5" d="M290.99 572.9C293.95 569 296.93 569.7 296.93 569.7C296.93 569.7 293.03 573.12 290.86 577.83C288.82 582.26 289.12 589.44 289.12 589.44C289.12 589.44 287.12 584.62 287.4 582.18C287.86 578.2 288.99 575.53 290.99 572.9Z" fill="white"/>
<path d="M293.83 567.08L295.37 495.72" stroke="#0D2232" stroke-width="4" stroke-miterlimit="10" stroke-linecap="round" stroke-linejoin="round"/>
<path d="M312.14 496.11L310.61 567.48" stroke="#0D2232" stroke-width="4" stroke-miterlimit="10" stroke-linecap="round" stroke-linejoin="round"/>
<path d="M290.91 493.14C290.12 492.55 289.36 491.89 288.65 491.19C284.43 487.04 282.07 481.49 282.02 475.56C281.97 469.64 284.23 464.05 288.39 459.83C289.47 458.73 290.66 457.75 291.94 456.9C292.32 456.65 292.81 456.64 293.2 456.89C293.23 456.91 293.25 456.92 293.27 456.94C293.61 457.19 293.78 457.61 293.72 458.03L291.98 469.64L304.93 476.1L315.08 465.78L310.01 456.02C309.79 455.6 309.85 455.09 310.16 454.73C310.47 454.37 310.96 454.24 311.41 454.39C313.6 455.14 315.64 456.22 317.5 457.61C318.29 458.2 319.05 458.86 319.76 459.55C323.98 463.7 326.34 469.25 326.39 475.18C326.44 481.1 324.18 486.69 320.02 490.91C312.25 498.82 299.74 499.77 290.91 493.14Z" stroke="#0D2232" stroke-width="4" stroke-miterlimit="10" stroke-linecap="round" stroke-linejoin="round"/>
<path d="M228.26 519.93V578.09C228.26 578.09 239.83 595.45 262.33 595.45C284.83 595.45 300.9 595.45 300.9 595.45L307.65 586.77C307.65 586.77 313.11 545.95 313.76 530.2C313.76 530.2 252.05 531.85 228.26 519.93Z" fill="#FEC400"/>
<path d="M233.52 522.15V565.81C233.52 573.24 237.72 580.05 244.39 583.31C255.36 588.68 275.37 593.8 307.65 586.78L300.9 595.46L258.95 595.7C258.95 595.7 237.25 592.89 228.25 578.1V519.94L233.52 522.15Z" fill="#E89F02"/>
<path d="M228.26 519.93V573.14C228.26 576.76 229.72 580.22 232.28 582.78C237.43 587.92 247.51 595.45 262.33 595.45H293.83C298.29 595.45 302.5 593.39 305.24 589.87C306.82 587.84 307.83 585.42 308.16 582.87C309.53 572.28 313.23 542.99 313.75 530.2C313.76 530.2 252.05 531.85 228.26 519.93Z" stroke="#0D2232" stroke-width="4" stroke-miterlimit="10" stroke-linecap="round" stroke-linejoin="round"/>
<path d="M228.26 535.02C228.26 535.02 247.96 551.92 312.24 545.49" stroke="#0D2232" stroke-width="4" stroke-miterlimit="10" stroke-linecap="round" stroke-linejoin="round"/>
<path d="M128.77 190.8L110.26 184.48L88.8999 195.44" stroke="#0D2232" stroke-width="12" stroke-miterlimit="10" stroke-linecap="round" stroke-linejoin="round"/>
<path d="M194.85 185.64L213.36 179.32L234.72 190.29" stroke="#0D2232" stroke-width="12" stroke-miterlimit="10" stroke-linecap="round" stroke-linejoin="round"/>
<path d="M121.5 262.56C121.5 262.56 169.26 284.39 199 266.73" stroke="#0D2232" stroke-width="12" stroke-miterlimit="10" stroke-linecap="round" stroke-linejoin="round"/>
<path d="M90.6898 519.93V579.37C90.6898 579.37 66.2598 598.01 28.9798 595.44C28.9798 595.44 13.5498 571.01 9.0498 530.19C9.0498 530.2 73.3298 533.78 90.6898 519.93Z" stroke="white" stroke-miterlimit="10"/>
<path d="M11.5999 546.78C11.5999 546.78 64.9799 547.24 90.6898 535.02" stroke="white" stroke-miterlimit="10"/>
<path d="M24.4299 586.81C24.4299 586.81 56.6099 587.73 75.2599 577.45L71.14 527.27L90.6899 519.93V579.37C90.6899 579.37 68.8299 596.73 28.9799 595.44L24.4299 586.81Z" stroke="white" stroke-miterlimit="10"/>
<path d="M90.86 535.02C90.86 535.02 69.62 551.73 5.26001 545.31" stroke="white" stroke-miterlimit="10"/>
<path d="M108.88 495.16V583.88L97.2999 595.45H18.1299L28.7499 587.09L28.1099 495.16H108.88Z" fill="#F9DC1B"/>
<path d="M99.2299 495.16V578.32L92.4699 587.09H11.3699L18.1299 595.45H97.2999L108.88 583.88V495.16H99.2299Z" fill="#E89F02"/>
<path d="M96.6523 512.667H101.802V507.527H96.6523V512.667Z" fill="white"/>
<path d="M96.6523 529.082H101.802V523.942H96.6523V529.082Z" fill="white"/>
<path d="M96.6523 545.488H101.802V540.348H96.6523V545.488Z" fill="white"/>
<path d="M96.6523 561.903H101.802V556.763H96.6523V561.903Z" fill="white"/>
<path d="M96.6523 578.319H101.802V573.179H96.6523V578.319Z" fill="white"/>
<path d="M28.1099 530.2V495.16H108.88V583.88L97.2999 595.45L19.2 594.61" stroke="#0D2232" stroke-width="4" stroke-miterlimit="10" stroke-linecap="round" stroke-linejoin="round"/>
<path d="M34.0299 465.1L38.6999 482.71L35.9699 485.62C32.6999 480.72 26.6599 477.99 20.5999 479.22C20.3099 479.28 20.0199 479.35 19.7299 479.42C20.9799 478.38 21.8899 477.2 22.4699 475.98C25.0099 470.67 21.6699 464.31 15.3999 463.17L11.6199 448.93C21.1099 450.24 27.9699 455.3 33.0199 462.93C33.4899 463.6 33.8299 464.33 34.0299 465.1Z" fill="#AFCADC"/>
<path d="M35.9499 485.93L35.8199 485.73C32.5199 480.78 26.4299 478.24 20.6499 479.41C20.3799 479.46 20.0999 479.53 19.7999 479.61L18.9599 479.83L19.6299 479.27C20.8199 478.28 21.7299 477.15 22.3199 475.89C23.4799 473.47 23.4299 470.7 22.1999 468.29C20.8699 465.7 18.3899 463.9 15.3899 463.35L15.2699 463.33L11.3899 448.69L11.6799 448.73C20.7099 449.98 27.7599 454.58 33.2199 462.81C33.6799 463.5 34.0199 464.25 34.2299 465.04L38.9299 482.75L35.9499 485.93ZM20.4499 479.05C20.4899 479.04 20.5299 479.03 20.5799 479.02C26.4299 477.83 32.5899 480.35 36.0099 485.3L38.4999 482.64L33.8499 465.14C33.6499 464.39 33.3299 463.68 32.8899 463.02C27.5499 454.98 20.6899 450.43 11.9099 449.15L15.5799 462.99C18.6399 463.58 21.1799 465.44 22.5399 468.11C23.8299 470.63 23.8699 473.52 22.6599 476.05C22.1399 477.15 21.3999 478.16 20.4499 479.05Z" fill="#000072"/>
<g opacity="0.55">
<path d="M22.4599 478.97C21.8499 479.01 21.2299 479.1 20.6099 479.22C20.3199 479.28 20.0299 479.35 19.7399 479.42C20.9899 478.38 21.8999 477.2 22.4799 475.98C25.0199 470.67 21.6799 464.31 15.4099 463.17L11.6299 448.93C12.6499 449.07 13.6299 449.25 14.5799 449.48L18.0999 462.73C24.3699 463.87 27.7099 470.22 25.1699 475.54C24.5999 476.76 23.6999 477.93 22.4599 478.97Z" fill="white"/>
</g>
<g opacity="0.55">
<path d="M22.5199 478.96L22.4299 478.98C22.4399 478.97 22.44 478.97 22.45 478.96C22.48 478.96 22.4999 478.96 22.5199 478.96Z" fill="white"/>
<path d="M22.5699 479.15L21.6599 479.39L22.3999 478.78C22.4399 478.77 22.4699 478.77 22.4899 478.77L24.1199 478.73L22.5699 479.15Z" fill="#371A45"/>
</g>
<path d="M41.72 494.08L44 502.69C44.14 503.22 43.85 503.78 43.35 503.97C43.31 503.98 43.28 503.99 43.24 504L27.66 508.14C26.08 508.56 24.48 508.71 22.91 508.62C17.89 508.32 13.2 505.55 10.66 501.22C10.01 500.12 9.49999 498.93 9.15999 497.64C8.72999 496.03 8.58999 494.42 8.68999 492.85C9.08999 486.64 13.38 481.11 19.73 479.43H19.74C20.03 479.35 20.31 479.29 20.61 479.23C26.67 478 32.71 480.73 35.98 485.63C36.94 487.07 37.65 488.69 38.07 490.45C38.34 491.59 38.46 492.73 38.46 493.85L40.42 493.33C40.78 493.23 41.15 493.34 41.41 493.57C41.55 493.69 41.67 493.87 41.72 494.08Z" fill="#AFCADC"/>
<path d="M43.3 504.19L27.72 508.33C26.15 508.75 24.53 508.91 22.91 508.81C17.79 508.51 13.04 505.64 10.5 501.32C9.83004 500.19 9.32005 498.97 8.98005 497.7C8.56005 496.1 8.40004 494.47 8.50004 492.84C8.92004 486.37 13.41 480.91 19.68 479.24C20.01 479.15 20.29 479.09 20.57 479.03C26.49 477.83 32.75 480.43 36.13 485.51C37.12 487 37.83 488.64 38.24 490.39C38.49 491.44 38.62 492.52 38.63 493.59L40.35 493.13C40.76 493.02 41.2 493.12 41.51 493.41C41.7 493.57 41.8301 493.79 41.8901 494.03L44.1701 502.64C44.3401 503.27 44 503.92 43.4 504.15C43.38 504.16 43.34 504.17 43.3 504.19ZM19.8 479.6C13.68 481.23 9.30005 486.55 8.89005 492.85C8.78005 494.44 8.94004 496.03 9.35004 497.58C9.68004 498.82 10.18 500.01 10.83 501.11C13.3 505.32 17.94 508.12 22.93 508.41C24.51 508.5 26.09 508.35 27.62 507.94L43.2001 503.8C43.2301 503.79 43.26 503.78 43.29 503.77C43.71 503.61 43.94 503.16 43.83 502.72L41.55 494.11C41.51 493.94 41.41 493.79 41.28 493.68C41.06 493.48 40.76 493.41 40.47 493.48L38.27 494.06V493.81C38.27 492.69 38.14 491.56 37.88 490.45C37.48 488.74 36.79 487.14 35.82 485.69C32.52 480.74 26.43 478.2 20.65 479.37C20.38 479.46 20.1 479.52 19.8 479.6Z" fill="#000072"/>
<g opacity="0.3">
<path d="M34.0299 465.1L38.6999 482.71L35.9699 485.62C35.7899 485.35 35.5999 485.08 35.3999 484.82C32.0299 480.42 26.3299 478.05 20.5999 479.22C20.3099 479.28 20.0199 479.35 19.7299 479.42C20.9799 478.38 21.8899 477.2 22.4699 475.98C22.5499 475.95 22.6399 475.93 22.7199 475.91H22.7399C23.0199 475.84 23.3099 475.77 23.6099 475.71C26.2499 475.17 28.8799 475.39 31.2799 476.21C32.7399 476.71 34.1599 475.41 33.7699 473.92L31.7099 466.17C31.5099 465.4 31.1699 464.67 30.7299 464C26.1699 457.12 20.1399 452.33 12.0499 450.5L11.6399 448.95C21.1299 450.26 27.9899 455.32 33.0399 462.95C33.4899 463.6 33.8299 464.33 34.0299 465.1Z" fill="black"/>
<path d="M35.9499 485.93L35.8199 485.73C35.6399 485.45 35.4499 485.19 35.2599 484.95C31.8399 480.48 26.1099 478.31 20.6499 479.42C20.3799 479.47 20.0999 479.54 19.7999 479.62L18.9599 479.84L19.6299 479.28C20.8199 478.29 21.7299 477.16 22.3199 475.9L22.3599 475.82L22.4399 475.79C22.8399 475.66 23.2499 475.58 23.5899 475.51C26.1699 474.99 28.8499 475.16 31.3599 476.01C31.9799 476.22 32.6399 476.08 33.1199 475.64C33.5899 475.2 33.7699 474.58 33.5999 473.96L31.5399 466.21C31.3399 465.47 31.0199 464.76 30.5799 464.09C25.7399 456.79 19.6699 452.4 12.0099 450.67L11.8999 450.64L11.3799 448.7L11.6699 448.74C20.6999 449.99 27.7499 454.59 33.2099 462.82C33.6699 463.51 34.0099 464.26 34.2199 465.05L38.9199 482.76L35.9499 485.93ZM20.4499 479.05C20.4899 479.04 20.5299 479.03 20.5799 479.02C26.1799 477.88 32.0599 480.11 35.5699 484.7C35.7199 484.89 35.8699 485.09 36.0099 485.31L38.4999 482.65L33.8499 465.15C33.6499 464.4 33.3299 463.69 32.8899 463.03C27.5499 454.99 20.6899 450.44 11.9099 449.16L12.2199 450.32C19.9199 452.09 26.0299 456.53 30.9099 463.88C31.3699 464.58 31.7099 465.33 31.9199 466.11L33.9799 473.86C34.1799 474.62 33.9599 475.39 33.3899 475.92C32.8099 476.46 32.0099 476.63 31.2399 476.38C28.7999 475.55 26.1799 475.38 23.6699 475.89C23.3999 475.94 23.0899 476.01 22.8099 476.09C22.7499 476.11 22.6899 476.12 22.6399 476.14C22.1099 477.2 21.3799 478.18 20.4499 479.05Z" fill="#371A45"/>
</g>
<g opacity="0.55">
<path d="M30.62 480.74C28.2 479.9 25.53 479.67 22.86 480.21C22.57 480.27 22.28 480.34 21.99 480.41H21.98C15.64 482.09 11.35 487.63 10.94 493.83C10.84 495.4 10.98 497.02 11.41 498.62C11.75 499.9 12.26 501.1 12.91 502.2C14.31 504.58 16.35 506.49 18.75 507.77C15.4 506.6 12.48 504.3 10.66 501.2C10.01 500.1 9.49999 498.91 9.15999 497.62C8.72999 496.01 8.58999 494.4 8.68999 492.83C9.08999 486.62 13.38 481.09 19.73 479.41H19.74C20.03 479.33 20.31 479.27 20.61 479.21C24.14 478.5 27.65 479.13 30.62 480.74Z" fill="white"/>
</g>
<path d="M23.5599 501.7C27.9119 501.7 31.4399 498.172 31.4399 493.82C31.4399 489.468 27.9119 485.94 23.5599 485.94C19.2079 485.94 15.6799 489.468 15.6799 493.82C15.6799 498.172 19.2079 501.7 23.5599 501.7Z" fill="#CECEDD"/>
<g opacity="0.55">
<path d="M33.6399 493.23C34.7599 497.44 32.2499 501.75 28.0499 502.87C25.4499 503.56 22.8099 502.87 20.8999 501.24C22.3499 501.76 23.9699 501.86 25.5799 501.44C29.7899 500.32 32.2899 496.01 31.1699 491.8C30.7399 490.2 29.8499 488.84 28.6799 487.84C31.0399 488.68 32.9499 490.63 33.6399 493.23Z" fill="white"/>
</g>
<g opacity="0.3">
<path d="M28.3599 487.57C27.0699 487.21 25.6699 487.19 24.2799 487.56C20.0699 488.68 17.5699 492.99 18.6899 497.2C19.1499 498.95 20.1699 500.4 21.5099 501.42C18.8799 500.71 16.6999 498.66 15.9499 495.84C14.8299 491.63 17.3399 487.32 21.5399 486.2C23.9999 485.55 26.4899 486.13 28.3599 487.57Z" fill="black"/>
<path d="M22.3899 501.86L21.4499 501.61C18.6699 500.86 16.4899 498.67 15.7499 495.89C14.6099 491.59 17.1799 487.16 21.4799 486.02C23.9199 485.37 26.4699 485.88 28.4699 487.42L29.2499 488.02L28.2999 487.76C27.0099 487.4 25.6399 487.4 24.3199 487.75C20.2199 488.84 17.7699 493.06 18.8599 497.15C19.2999 498.8 20.2499 500.23 21.6099 501.27L22.3899 501.86ZM21.5899 486.39C17.4899 487.48 15.0399 491.7 16.1299 495.79C16.7499 498.12 18.4399 500.02 20.6399 500.93C19.6099 499.92 18.8799 498.67 18.4999 497.25C17.3599 492.95 19.9299 488.52 24.2299 487.38C25.2799 487.1 26.3799 487.04 27.4399 487.19C25.6799 486.15 23.5999 485.85 21.5899 486.39Z" fill="#371A45"/>
</g>
<path d="M27.3799 508.21L30.9899 521.81C31.4699 523.61 32.5199 525.22 33.9799 526.38L48.7399 538.12C51.1699 540.05 52.9099 542.71 53.6999 545.7L61.0699 573.48C61.5399 575.26 63.5899 576.07 65.1699 575.11C68.8299 572.88 71.6699 570.3 73.2099 567.16C74.4499 564.63 74.6499 561.71 73.9199 558.98L68.3299 537.94C67.7699 535.83 66.6499 533.92 65.0899 532.39L55.3299 522.85C53.4199 520.98 52.2899 518.44 52.2599 515.77C52.2299 512.75 52.8199 509.39 53.7699 505.83C54.3599 503.61 52.3399 501.58 50.1199 502.17L27.3799 508.21Z" fill="#F9DC1B"/>
<path d="M68.3399 537.93L73.9299 558.98C74.6499 561.71 74.4599 564.63 73.2199 567.16C71.6799 570.3 68.83 572.88 65.17 575.11C64.09 575.77 62.7899 575.59 61.9299 574.85C65.0099 572.8 67.4099 570.45 68.7799 567.66C70.0199 565.13 70.2199 562.21 69.4899 559.48L63.8999 538.43C63.3399 536.32 62.2199 534.41 60.6599 532.88L50.8999 523.34C48.9899 521.47 47.8699 518.93 47.8399 516.26C47.8099 513.24 48.3999 509.88 49.3499 506.32C49.7499 504.81 48.9399 503.38 47.6799 502.82L50.1499 502.17C52.3699 501.58 54.3899 503.61 53.7999 505.83C52.8499 509.39 52.2599 512.75 52.2899 515.77C52.3199 518.44 53.4499 520.98 55.3499 522.85L65.1099 532.39C66.6599 533.91 67.7799 535.83 68.3399 537.93Z" fill="#E89F02"/>
<g opacity="0.55">
<path d="M64.2899 574.61C64.3599 574.88 64.4699 575.14 64.6099 575.36C63.1399 575.86 61.4899 575.05 61.0699 573.47L53.6999 545.69C52.9099 542.7 51.1699 540.04 48.7399 538.11L33.9799 526.37C32.5199 525.21 31.4699 523.61 30.9899 521.8L27.3799 508.2L50.1499 502.16C51.4399 501.82 52.6499 502.36 53.3399 503.3L30.5999 509.33L34.2099 522.93C34.6899 524.74 35.7399 526.34 37.1999 527.5L51.9599 539.24C54.3799 541.17 56.1199 543.83 56.9199 546.82L64.2899 574.61Z" fill="white"/>
</g>
<path d="M27.38 508.21L30.99 521.81C31.47 523.61 31.35 525.52 30.66 527.26L23.66 544.77C22.51 547.65 22.32 550.82 23.11 553.82L30.48 581.6C30.95 583.38 29.57 585.1 27.73 585.04C23.45 584.92 19.7 584.09 16.8 582.13C14.46 580.55 12.85 578.11 12.12 575.38L6.52997 554.34C5.96997 552.23 5.98997 550.02 6.58997 547.92L10.33 534.8C11.06 532.23 10.78 529.47 9.47998 527.13C8.00998 524.49 5.82996 521.86 3.23996 519.24C1.62996 517.61 2.37997 514.85 4.58997 514.26L27.38 508.21Z" fill="#F9DC1B"/>
<path d="M27.38 508.21L30.99 521.81C31.47 523.62 31.35 525.53 30.66 527.26L23.66 544.77C22.51 547.65 22.32 550.82 23.11 553.82L30.48 581.6C30.95 583.38 29.57 585.1 27.73 585.05C26.94 585.03 26.16 584.98 25.4 584.9C25.73 584.31 25.84 583.6 25.65 582.88L18.28 555.1C17.49 552.11 17.68 548.93 18.83 546.05L25.83 528.54C26.52 526.81 26.64 524.9 26.16 523.09L22.55 509.49L27.38 508.21Z" fill="#E89F02"/>
<g opacity="0.55">
<path d="M7.23001 520.17C9.82001 522.79 12 525.42 13.47 528.06C14.77 530.39 15.05 533.16 14.32 535.73L10.58 548.85C9.97999 550.95 9.95999 553.17 10.52 555.27L16.11 576.32C16.83 579.05 18.45 581.49 20.78 583.07C21.81 583.77 22.95 584.32 24.18 584.75C21.37 584.35 18.88 583.53 16.82 582.13C14.49 580.55 12.87 578.11 12.15 575.38L6.56 554.33C6 552.22 6.02 550 6.62 547.91L10.36 534.79C11.09 532.22 10.81 529.46 9.51001 527.13C8.04001 524.49 5.85999 521.86 3.26999 519.24C1.65999 517.61 2.41 514.84 4.62 514.26L27.38 508.21L27.87 510.07L8.57001 515.2C6.36001 515.78 5.61001 518.54 7.23001 520.17Z" fill="white"/>
</g>
<path d="M22.91 508.61L23.1 509.34L10.22 512.76L7.85995 503.88C7.59995 502.89 8.18995 501.87 9.17995 501.61L10.65 501.22C13.2 505.54 17.89 508.32 22.91 508.61Z" fill="#AFCADC"/>
<path d="M23.3399 509.48L10.0899 513L7.67986 503.93C7.38986 502.84 8.03988 501.71 9.13988 501.42L10.7499 500.99L10.8199 501.12C13.2899 505.33 17.9299 508.13 22.9199 508.42L23.0599 508.43L23.3399 509.48ZM10.3598 512.53L22.8699 509.21L22.7599 508.8C17.7499 508.46 13.0999 505.65 10.5699 501.44L9.23985 501.79C8.34985 502.03 7.81986 502.94 8.05986 503.83L10.3598 512.53Z" fill="#000072"/>
<g opacity="0.55">
<path d="M10.7898 501.18C10.9898 501.53 11.2199 501.87 11.4499 502.2L11.3198 502.24C10.3298 502.5 9.73984 503.52 9.99984 504.51L12.0598 512.28L10.3498 512.73L7.98983 503.85C7.72983 502.86 8.31984 501.84 9.30984 501.58L10.7898 501.18Z" fill="white"/>
</g>
<path d="M19.7299 479.42C13.3899 481.1 9.0999 486.64 8.6899 492.84L4.88991 491.67L0.219897 474.06C0.00989705 473.29 -0.0601042 472.49 -0.000104174 471.69C0.609896 462.56 4.04991 454.76 11.6399 448.92L15.4199 463.16C9.40991 468.21 11.1899 477.94 19.7299 479.42Z" fill="#AFCADC"/>
<path d="M8.86991 493.1L4.7399 491.83L0.0399223 474.12C-0.170078 473.33 -0.250089 472.51 -0.190089 471.68C0.469911 461.83 4.29991 454.33 11.5299 448.77L11.7599 448.59L15.6399 463.23L15.5499 463.31C12.6599 465.73 11.4499 469.39 12.3799 472.85C13.2799 476.19 16.0399 478.57 19.7699 479.22L20.6299 479.37L19.7799 479.59C13.6699 481.21 9.28993 486.54 8.88993 492.84L8.86991 493.1ZM5.05991 491.53L8.5199 492.6C9.0099 486.49 13.1399 481.32 18.9399 479.46C15.4499 478.61 12.8799 476.22 12.0099 472.97C11.0499 469.4 12.2799 465.63 15.2099 463.11L11.5399 449.27C4.54992 454.74 0.839926 462.09 0.199926 471.72C0.149926 472.51 0.219927 473.29 0.419927 474.03L5.05991 491.53Z" fill="#000072"/>
<g opacity="0.3">
<path d="M17.0601 480.41C17.1101 480.39 17.1601 480.36 17.2101 480.34C17.2301 480.34 17.2501 480.35 17.2701 480.35C17.2001 480.37 17.1301 480.39 17.0601 480.41Z" fill="#262F6A"/>
<path d="M17.12 480.6L16.97 480.25C17.02 480.22 17.08 480.2 17.13 480.17L17.18 480.15L17.28 480.16L18.08 480.32L17.32 480.53C17.25 480.56 17.19 480.58 17.12 480.6Z" fill="#371A45"/>
</g>
<g opacity="0.3">
<path d="M17.6099 478.84C18.1999 479.07 18.2099 479.9 17.6199 480.16C17.4799 480.22 17.3399 480.28 17.2099 480.35C8.71993 478.83 6.33993 469.03 12.3299 464L8.94995 451.26C9.77995 450.45 10.6799 449.68 11.6499 448.94L15.4299 463.18C9.94993 467.76 10.9399 476.24 17.6099 478.84Z" fill="#262F6A"/>
<path d="M17.24 480.54L17.18 480.53C13.13 479.8 10.12 477.15 9.13 473.43C8.2 469.94 9.34 466.3 12.12 463.92L8.73999 451.19L8.82001 451.11C9.66001 450.3 10.57 449.51 11.53 448.77L11.76 448.59L15.64 463.23L15.55 463.31C12.92 465.52 11.66 468.77 12.2 472.01C12.7 475.07 14.7 477.5 17.69 478.66C18.03 478.8 18.25 479.11 18.26 479.48C18.27 479.86 18.06 480.18 17.71 480.33C17.57 480.39 17.44 480.45 17.3 480.52L17.24 480.54ZM9.16 451.31L12.54 464.06L12.45 464.14C9.72001 466.43 8.58999 469.95 9.48999 473.34C10.44 476.89 13.31 479.43 17.17 480.15C17.29 480.09 17.41 480.04 17.54 479.98C17.78 479.88 17.86 479.66 17.86 479.49C17.86 479.28 17.74 479.1 17.54 479.02C14.43 477.81 12.34 475.28 11.81 472.08C11.26 468.75 12.53 465.4 15.2 463.11L11.53 449.27C10.7 449.91 9.9 450.6 9.16 451.31Z" fill="#371A45"/>
</g>
<g opacity="0.55">
<path d="M11.6499 448.93L12.1899 450.98C6.1199 456.58 3.28989 463.7 2.73989 471.9C2.68989 472.7 2.75989 473.5 2.95989 474.27L7.6299 491.88L8.73989 492.22C8.71989 492.43 8.6999 492.64 8.6899 492.85L4.88991 491.68L0.219897 474.07C0.00989705 473.3 -0.0601042 472.5 -0.000104174 471.7C0.609896 462.57 4.05989 454.77 11.6499 448.93Z" fill="white"/>
</g>
<g opacity="0.2">
<path d="M41.7199 494.08L43.9999 502.69C44.1399 503.22 43.8499 503.78 43.3499 503.97L30.4399 507.4C36.6899 504.37 39.7399 500.06 38.9699 494.2L41.3999 493.56C41.5499 493.69 41.6699 493.87 41.7199 494.08Z" fill="black"/>
</g>
<path d="M22.91 508.61L23.1 509.34L10.22 512.76L7.85995 503.88C7.59995 502.89 8.18995 501.87 9.17995 501.61L10.65 501.22C13.2 505.54 17.89 508.32 22.91 508.61Z" stroke="#0D2232" stroke-width="4" stroke-miterlimit="10" stroke-linecap="round" stroke-linejoin="round"/>
<path d="M27.3799 508.21L30.9899 521.81C31.4699 523.61 32.5199 525.22 33.9799 526.38L48.7399 538.12C51.1699 540.05 52.9099 542.71 53.6999 545.7L61.0699 573.48C61.5399 575.26 63.5899 576.07 65.1699 575.11C68.8299 572.88 71.6699 570.3 73.2099 567.16C74.4499 564.63 74.6499 561.71 73.9199 558.98L68.3299 537.94C67.7699 535.83 66.6499 533.92 65.0899 532.39L55.3299 522.85C53.4199 520.98 52.2899 518.44 52.2599 515.77C52.2299 512.75 52.8199 509.39 53.7699 505.83C54.3599 503.61 52.3399 501.58 50.1199 502.17L27.3799 508.21Z" stroke="#0D2232" stroke-width="4" stroke-miterlimit="10" stroke-linecap="round" stroke-linejoin="round"/>
<path d="M27.38 508.21L30.99 521.81C31.47 523.61 31.35 525.52 30.66 527.26L23.66 544.77C22.51 547.65 22.32 550.82 23.11 553.82L30.48 581.6C30.95 583.38 29.57 585.1 27.73 585.04C23.45 584.92 19.7 584.09 16.8 582.13C14.46 580.55 12.85 578.11 12.12 575.38L6.52997 554.34C5.96997 552.23 5.98997 550.02 6.58997 547.92L10.33 534.8C11.06 532.23 10.78 529.47 9.47998 527.13C8.00998 524.49 5.82996 521.86 3.23996 519.24C1.62996 517.61 2.37997 514.85 4.58997 514.26L27.38 508.21Z" stroke="#0D2232" stroke-width="4" stroke-miterlimit="10" stroke-linecap="round" stroke-linejoin="round"/>
<path d="M34.0299 465.1L38.6999 482.71L35.9699 485.62C32.6999 480.72 26.6599 477.99 20.5999 479.22C20.3099 479.28 20.0199 479.35 19.7299 479.42C20.9799 478.38 21.8899 477.2 22.4699 475.98C25.0099 470.67 21.6699 464.31 15.3999 463.17L11.6199 448.93C21.1099 450.24 27.9699 455.3 33.0199 462.93C33.4899 463.6 33.8299 464.33 34.0299 465.1Z" stroke="#0D2232" stroke-width="4" stroke-miterlimit="10" stroke-linecap="round" stroke-linejoin="round"/>
<path d="M41.72 494.08L44 502.69C44.14 503.22 43.85 503.78 43.35 503.97C43.31 503.98 43.28 503.99 43.24 504L27.66 508.14C26.08 508.56 24.48 508.71 22.91 508.62C17.89 508.32 13.2 505.55 10.66 501.22C10.01 500.12 9.49999 498.93 9.15999 497.64C8.72999 496.03 8.58999 494.42 8.68999 492.85C9.08999 486.64 13.38 481.11 19.73 479.43H19.74C20.03 479.35 20.31 479.29 20.61 479.23C26.67 478 32.71 480.73 35.98 485.63C36.94 487.07 37.65 488.69 38.07 490.45C38.34 491.59 38.46 492.73 38.46 493.85L40.42 493.33C40.78 493.23 41.15 493.34 41.41 493.57C41.55 493.69 41.67 493.87 41.72 494.08Z" stroke="#0D2232" stroke-width="4" stroke-miterlimit="10" stroke-linecap="round" stroke-linejoin="round"/>
<path d="M19.7299 479.42C13.3899 481.1 9.0999 486.64 8.6899 492.84L4.88991 491.67L0.219897 474.06C0.00989705 473.29 -0.0601042 472.49 -0.000104174 471.69C0.609896 462.56 4.04991 454.76 11.6399 448.92L15.4199 463.16C9.40991 468.21 11.1899 477.94 19.7299 479.42Z" stroke="#0D2232" stroke-width="4" stroke-miterlimit="10" stroke-linecap="round" stroke-linejoin="round"/>
<path d="M23.5599 501.7C27.9119 501.7 31.4399 498.172 31.4399 493.82C31.4399 489.468 27.9119 485.94 23.5599 485.94C19.2079 485.94 15.6799 489.468 15.6799 493.82C15.6799 498.172 19.2079 501.7 23.5599 501.7Z" stroke="#0D2232" stroke-width="4" stroke-miterlimit="10" stroke-linecap="round" stroke-linejoin="round"/>
<path d="M75.8698 525.67H55.3199C53.1299 525.67 51.3499 523.89 51.3499 521.7V520.57C51.3499 518.38 53.1299 516.6 55.3199 516.6H75.8698C78.0598 516.6 79.8398 518.38 79.8398 520.57V521.7C79.8398 523.9 78.0698 525.67 75.8698 525.67Z" fill="#F9DC1B"/>
<path d="M74.2098 525.67H57.0698V532.75H74.2098V525.67Z" fill="#F9DC1B"/>
<path d="M67.3698 577.23H63.8199C56.9299 577.23 51.3499 571.65 51.3499 564.76V536.9C51.3499 534.61 53.1998 532.76 55.4898 532.76H75.6999C77.9899 532.76 79.8398 534.61 79.8398 536.9V564.76C79.8398 571.64 74.2598 577.23 67.3698 577.23Z" fill="#F9DC1B"/>
<path d="M79.8398 519.65V522.63C79.8398 524.31 78.4798 525.67 76.7998 525.67H71.7998C73.4798 525.67 74.8398 524.31 74.8398 522.63V519.65C74.8398 517.97 73.4798 516.61 71.7998 516.61H76.7998C78.4798 516.61 79.8398 517.97 79.8398 519.65Z" fill="#E89F02"/>
<path d="M74.2197 525.68H69.2197V532.76H74.2197V525.68Z" fill="#E89F02"/>
<path d="M79.8398 535.78V563.4C79.8398 571.04 73.6498 577.23 66.0098 577.23H65.7397C70.7697 577.23 74.8498 573.15 74.8498 568.12V535.78C74.8498 534.11 73.4997 532.76 71.8297 532.76H76.8297C78.4897 532.75 79.8398 534.11 79.8398 535.78Z" fill="#E89F02"/>
<g opacity="0.55">
<path d="M57.9299 525.68H54.3999C52.7199 525.68 51.3599 524.32 51.3599 522.64V519.66C51.3599 517.98 52.7199 516.62 54.3999 516.62H57.9299C56.2499 516.62 54.8899 517.98 54.8899 519.66V522.64C54.8899 524.31 56.2499 525.68 57.9299 525.68Z" fill="white"/>
</g>
<g opacity="0.55">
<path d="M60.5998 525.68H57.0698V532.76H60.5998V525.68Z" fill="white"/>
</g>
<g opacity="0.55">
<path d="M63.9999 577.23H60.4699C55.4399 577.23 51.3599 573.15 51.3599 568.12V535.78C51.3599 534.11 52.7099 532.76 54.3799 532.76H57.9099C56.2399 532.76 54.8899 534.11 54.8899 535.78V568.12C54.8899 573.15 58.9699 577.23 63.9999 577.23Z" fill="white"/>
</g>
<path d="M75.5398 477.9L73.2198 485.08H70.2397V516.61H61.2898V485.08H58.3098L55.9897 477.9L59.6398 457.36H71.8898L75.5398 477.9Z" fill="#AFCADC"/>
<path d="M70.3998 516.77H61.1198V485.24H58.1798L55.8098 477.91L55.8198 477.87L59.4898 457.19H72.0198L75.6998 477.91L73.3298 485.24H70.3898V516.77H70.3998ZM61.4598 516.44H70.0698V484.91H73.0998L75.3698 477.89L71.7598 457.53H59.7798L56.1698 477.89L58.4398 484.91H61.4698V516.44H61.4598Z" fill="#000072"/>
<g opacity="0.2">
<path d="M69.42 485.08H70.24V516.61H67.48V487.02C67.48 485.95 68.35 485.08 69.42 485.08Z" fill="black"/>
</g>
<g opacity="0.2">
<path d="M75.5399 477.9L73.2199 485.08H70.4599L72.7799 477.9L69.1299 457.36H71.8899L75.5399 477.9Z" fill="black"/>
</g>
<g opacity="0.55">
<path d="M58.8498 477.9L61.1698 485.08H58.6398L56.3198 477.9L59.9698 457.36H62.4998L58.8498 477.9Z" fill="white"/>
</g>
<g opacity="0.55">
<path d="M64.1499 486.73V516.61H61.6199V485.08H62.4999C63.4099 485.08 64.1499 485.82 64.1499 486.73Z" fill="white"/>
</g>
<g opacity="0.2">
<path d="M65.2499 551.77C65.2499 555.43 63.7099 558.4 61.7999 558.4C59.8999 558.4 59.8699 555.43 59.8699 551.77C59.8699 548.11 59.8999 545.14 61.7999 545.14C63.6999 545.15 65.2499 548.12 65.2499 551.77Z" fill="white"/>
</g>
<path d="M75.8698 525.67H55.3199C53.1299 525.67 51.3499 523.89 51.3499 521.7V520.57C51.3499 518.38 53.1299 516.6 55.3199 516.6H75.8698C78.0598 516.6 79.8398 518.38 79.8398 520.57V521.7C79.8398 523.9 78.0698 525.67 75.8698 525.67Z" stroke="#0D2232" stroke-width="4" stroke-miterlimit="10" stroke-linecap="round" stroke-linejoin="round"/>
<path d="M74.2098 525.67H57.0698V532.75H74.2098V525.67Z" stroke="#0D2232" stroke-width="4" stroke-miterlimit="10" stroke-linecap="round" stroke-linejoin="round"/>
<path d="M67.3698 577.23H63.8199C56.9299 577.23 51.3499 571.65 51.3499 564.76V536.9C51.3499 534.61 53.1998 532.76 55.4898 532.76H75.6999C77.9899 532.76 79.8398 534.61 79.8398 536.9V564.76C79.8398 571.64 74.2598 577.23 67.3698 577.23Z" stroke="#0D2232" stroke-width="4" stroke-miterlimit="10" stroke-linecap="round" stroke-linejoin="round"/>
<path d="M75.5398 477.9L73.2198 485.08H70.2397V516.61H61.2898V485.08H58.3098L55.9897 477.9L59.6398 457.36H71.8898L75.5398 477.9Z" stroke="#0D2232" stroke-width="4" stroke-miterlimit="10" stroke-linecap="round" stroke-linejoin="round"/>
<path d="M90.86 519.93V578.09C90.86 578.09 79.27 595.45 56.75 595.45C34.23 595.45 18.13 595.45 18.13 595.45L11.37 586.77C11.37 586.77 5.90001 545.95 5.26001 530.2C5.26001 530.2 67.05 531.85 90.86 519.93Z" fill="#FEC400"/>
<path d="M85.5901 522.15V565.81C85.5901 573.24 81.3901 580.05 74.7101 583.31C63.7201 588.68 43.6901 593.8 11.3801 586.78L18.1401 595.46L60.1401 595.7C60.1401 595.7 81.8601 592.89 90.8701 578.1V519.94L85.5901 522.15Z" fill="#E89F02"/>
<path d="M90.86 519.93V574.29C90.86 577 89.83 579.6 87.99 581.58C83.27 586.65 72.78 595.44 56.75 595.44H23.35C20.06 595.44 16.95 593.92 14.93 591.32L13.16 589.05C11.99 587.55 11.24 585.76 11 583.88C9.75003 574.3 5.81002 543.41 5.27002 530.19C5.26002 530.2 67.05 531.85 90.86 519.93Z" stroke="#0D2232" stroke-width="4" stroke-miterlimit="10" stroke-linecap="round" stroke-linejoin="round"/>
<path d="M90.86 535.02C90.86 535.02 71.14 551.92 6.78003 545.49" stroke="#0D2232" stroke-width="4" stroke-miterlimit="10" stroke-linecap="round" stroke-linejoin="round"/>
</g>
<defs>
<clipPath id="clip0_344_5090">
<rect width="392" height="722" fill="white"/>
</clipPath>
</defs>
</svg>
