<svg width="1000" height="1000" viewBox="0 0 1000 1000" fill="none" xmlns="http://www.w3.org/2000/svg">
<path d="M323.34 512.55C323.34 512.55 296.51 528.62 302.12 549.84C307.73 571.06 347.67 599.34 347.67 599.34C347.67 599.34 349.54 575.55 377.62 570.41L360.15 552.41L323.34 512.55Z" fill="#FBC6A6"/>
<path d="M377.62 570.4L386.36 575.86V631.79H347.05L347.67 599.33C347.67 599.33 350.17 574.9 377.62 570.4Z" fill="#FBC6A6"/>
<path opacity="0.16" d="M327.27 516.81C327.27 516.81 302.54 529.25 308.02 549.97C313.5 570.69 348.11 592.72 348.11 592.72" stroke="black" stroke-width="6" stroke-miterlimit="10"/>
<path opacity="0.16" d="M350.93 631.8L351.55 586.75" stroke="black" stroke-width="6" stroke-miterlimit="10"/>
<path opacity="0.5" d="M371.64 570.97L318.11 514.05" stroke="white" stroke-width="6" stroke-miterlimit="10"/>
<path opacity="0.5" d="M381.35 572.12V633.36" stroke="white" stroke-width="6" stroke-miterlimit="10"/>
<path d="M323.34 512.55C323.34 512.55 296.51 528.62 302.12 549.84C307.73 571.06 347.67 599.34 347.67 599.34C347.67 599.34 349.54 575.55 377.62 570.41L360.15 552.41L323.34 512.55Z" stroke="#0D2232" stroke-width="6" stroke-miterlimit="10" stroke-linecap="round" stroke-linejoin="round"/>
<path d="M377.62 570.4L386.36 575.86V631.79H347.05L347.67 599.33C347.67 599.33 350.17 574.9 377.62 570.4Z" stroke="#0D2232" stroke-width="6" stroke-miterlimit="10" stroke-linecap="round" stroke-linejoin="round"/>
<path d="M371.8 554.11L345.76 565.85L322.41 517.32L316.09 504.19L341.06 492.03L347.94 505.92L371.8 554.11Z" fill="#435F84"/>
<path opacity="0.21" d="M347.94 505.92L347.91 505.96L322.41 517.32L316.09 504.19L341.06 492.03L347.94 505.92Z" fill="white"/>
<path d="M384.29 475.67V542.37L369.45 549.92L347.91 505.96L343.41 496.78L384.29 475.67Z" fill="#F9DC1B"/>
<path opacity="0.5" d="M384.29 475.67V487.62L347.91 505.96L343.41 496.78L384.29 475.67Z" fill="white"/>
<path d="M360.68 532.02L384.29 522.65V542.37L369.45 549.92L360.68 532.02Z" fill="#E89F02"/>
<path d="M341.06 492.03L371.8 554.11L345.76 565.86L316.09 504.19L341.06 492.03Z" stroke="#0D2232" stroke-width="6" stroke-miterlimit="10" stroke-linecap="round" stroke-linejoin="round"/>
<path d="M384.29 475.67L343.41 496.78L369.45 549.92L384.29 542.37V475.67Z" stroke="#0D2232" stroke-width="6" stroke-miterlimit="10"/>
<path d="M372.924 795.609L446.354 795.609L446.354 774.109L372.924 774.109L372.924 795.609Z" fill="#435F84" stroke="#0D2232" stroke-width="6" stroke-miterlimit="10" stroke-linecap="round" stroke-linejoin="round"/>
<path d="M583.83 734.45V775.39L603.12 795.63L621.76 775.39L621.73 674.57H606.62L583.83 734.45Z" fill="#AFCADC"/>
<path d="M602.8 771.47C606.793 771.47 610.03 768.233 610.03 764.24C610.03 760.247 606.793 757.01 602.8 757.01C598.807 757.01 595.57 760.247 595.57 764.24C595.57 768.233 598.807 771.47 602.8 771.47Z" stroke="#0D2232" stroke-width="4" stroke-miterlimit="10" stroke-linecap="round" stroke-linejoin="round"/>
<path opacity="0.2" d="M621.76 675.66H615.12V771.47L603.19 783.4L590.76 770.97V681.92L583.83 682.38V775.39L603.6 795.15L622.56 776.19L621.76 675.66Z" fill="black"/>
<path d="M583.83 734.45V775.39L603.12 795.63L621.76 775.39V675.66H606.65L583.83 734.45Z" stroke="#0D2232" stroke-width="4" stroke-miterlimit="10" stroke-linecap="round" stroke-linejoin="round"/>
<path d="M603.7 284.08C603.7 284.08 597.72 289.43 571.3 291.63C544.87 293.83 358.91 299.42 358.91 299.42L347.46 293.83C347.46 293.83 321.15 292.38 317.42 284.08C313.69 275.78 407.49 242.87 407.49 242.87L526 239.25L553.06 250.02L603.7 284.08Z" fill="#CFB300"/>
<path d="M603.7 284.08C603.7 284.08 597.72 289.43 571.3 291.63C544.87 293.83 358.91 299.42 358.91 299.42L347.46 293.83C347.46 293.83 321.15 292.38 317.42 284.08C313.69 275.78 407.49 242.87 407.49 242.87L526 239.25L553.06 250.02L603.7 284.08Z" stroke="#0D2232" stroke-width="6" stroke-miterlimit="10" stroke-linecap="round" stroke-linejoin="round"/>
<path d="M348.51 332.85C348.51 332.85 318.32 336.47 322.09 371.39C325.86 406.31 369.35 399.02 369.35 399.02L365.61 348.89L348.51 332.85Z" fill="#FBC6A6" stroke="#0D2232" stroke-width="6" stroke-miterlimit="10"/>
<path d="M580.11 332.85C580.11 332.85 603.08 336.63 604.81 362.11C606.54 387.59 578.2 410.1 556.03 401.2C533.86 392.31 550.22 354.24 550.22 354.24L580.11 332.85Z" fill="#FBC6A6" stroke="#0D2232" stroke-width="6" stroke-miterlimit="10"/>
<path opacity="0.4" d="M578.06 347.95C578.06 347.95 589.99 354.27 584.9 368.01C577.78 387.26 563.27 381.92 563.27 381.92L567.67 358.01L578.06 347.95Z" fill="black"/>
<path opacity="0.4" d="M344.13 347.95C344.13 347.95 332.2 354.27 337.29 368.01C344.41 387.26 358.92 381.92 358.92 381.92L354.52 358.01L344.13 347.95Z" fill="black"/>
<path d="M566.48 336.62V365.29C566.48 365.29 566.22 370.26 564.4 377.95C560.32 395.19 548.41 426.11 514.04 445.47C509.15 448.22 504.23 450.51 499.3 452.37C484.98 457.78 470.64 459.61 456.97 458.85C427.52 457.21 401.26 443.54 385.37 427.85C359.57 402.37 358 363.53 358 363.53V309.25L388.52 272.44L545.27 274.33L564.59 296.98L566.48 336.62Z" fill="#FBC6A6"/>
<path opacity="0.5" d="M404.99 431.89C425.31 446.55 444.36 454.04 458.98 457.86C429.53 456.22 403.27 442.55 387.38 426.86C361.58 401.38 360.01 362.54 360.01 362.54V352.94L368.47 346.32C368.46 346.32 360.95 400.11 404.99 431.89Z" fill="white"/>
<path opacity="0.5" d="M561.4 377.95C557.32 395.19 545.41 426.11 511.04 445.47C506.15 448.22 501.23 450.51 496.3 452.37C513.79 438.74 542.26 413.61 550.99 388.63C553.95 380.18 557.58 377.31 561.4 377.95Z" fill="white"/>
<path d="M603.7 284.08C603.7 284.08 592.69 279.99 577.9 279.99C563.11 279.99 343.06 279.99 343.06 279.99C343.06 279.99 323.08 279.2 317.42 284.08V270.4C317.42 265.1 321.72 260.8 327.02 260.8H594.11C599.41 260.8 603.71 265.1 603.71 270.4V284.08H603.7Z" fill="#F9DC1B"/>
<path d="M588.48 260.8C588.48 260.91 588.48 260.96 588.48 260.96H460.43V260.8H332.39C332.39 260.8 332.39 260.77 332.39 260.72C332.35 259.67 331.94 249.23 332.39 244.45C332.86 239.41 336.95 239.26 336.95 239.26C336.95 239.26 344.03 176.5 415.44 155.74C415.44 155.74 414.81 143.15 426.45 141.9C438.09 140.64 460.43 139.07 460.43 139.07V139.23C460.43 139.23 482.76 140.8 494.4 142.06C506.04 143.32 505.41 155.9 505.41 155.9C576.82 176.66 583.9 239.42 583.9 239.42C583.9 239.42 587.99 239.58 588.46 244.61C588.91 249.28 588.53 259.41 588.48 260.8Z" fill="#F9DC1B"/>
<path opacity="0.73" d="M588.48 260.8H577.6C577.6 260.8 572.09 196.62 505.56 164.53L505.52 157.27C505.52 157.27 453.35 140.93 415.33 158.55L415.81 168.94C415.81 168.94 356.76 185.29 342.29 260.48L332.4 260.71C332.36 259.66 331.95 249.22 332.4 244.44C332.87 239.4 336.96 239.25 336.96 239.25C336.96 239.25 344.04 176.49 415.45 155.73C415.45 155.73 414.82 143.14 426.46 141.89C438.1 140.63 460.44 139.06 460.44 139.06V139.22C460.44 139.22 482.77 140.79 494.41 142.05C506.05 143.31 505.42 155.89 505.42 155.89C576.83 176.65 583.91 239.41 583.91 239.41C583.91 239.41 588 239.57 588.47 244.6C588.91 249.28 588.53 259.41 588.48 260.8Z" fill="white"/>
<path d="M588.47 244.6C588 239.57 583.91 239.41 583.91 239.41C583.91 239.41 576.83 176.65 505.42 155.89C505.42 155.89 506.05 143.31 494.41 142.05C482.77 140.79 460.43 139.22 460.43 139.22V139.06C460.43 139.06 438.09 140.63 426.45 141.89C414.81 143.15 415.44 155.73 415.44 155.73C344.03 176.49 336.95 239.25 336.95 239.25C336.95 239.25 332.86 239.41 332.39 244.44C331.92 249.47 332.39 260.8 332.39 260.8H460.43V260.96H588.47C588.47 260.96 588.94 249.64 588.47 244.6Z" stroke="#0D2232" stroke-width="6" stroke-miterlimit="10" stroke-linecap="round" stroke-linejoin="round"/>
<path d="M504.8 468.86H535.12V634.54H385.38V468.86H504.8Z" fill="white"/>
<path d="M508.59 475.67H415.05V576.55H508.59V475.67Z" fill="#F9DC1B"/>
<path d="M535.13 597.73H385.38V634.54H535.13V597.73Z" fill="#F9DC1B"/>
<path d="M486.57 456.8C486.57 456.8 457.19 463.09 437.17 456.8L430.25 487.74L448.5 494.55C448.5 494.55 460.57 499.58 475.25 494.55C489.93 489.52 494.55 474.84 494.55 474.84L486.57 456.8Z" fill="#FBC6A6" stroke="#0D2232" stroke-width="6" stroke-miterlimit="10"/>
<path d="M505.61 490.83C504.82 502.68 502.92 513.64 502.92 513.64L475.23 494.55C475.23 494.55 478.4 487.04 481.01 479.6C482.53 475.25 483.87 470.91 484.25 468.12C485.3 460.57 486.56 456.8 486.56 456.8C486.56 456.8 502.71 455.96 505.22 470.85C506.18 476.41 506.09 483.77 505.61 490.83Z" fill="#435F84"/>
<path d="M505.61 490.83C498.48 490.3 490.18 486.75 485.9 483.71C484.18 482.48 482.5 481.12 481.01 479.6C482.53 475.25 483.87 470.91 484.25 468.12C485.3 460.57 486.56 456.8 486.56 456.8C486.56 456.8 502.71 455.96 505.22 470.85C506.18 476.41 506.09 483.77 505.61 490.83Z" fill="#253B5A"/>
<path d="M486.57 456.8C486.57 456.8 502.72 455.96 505.24 470.85C507.76 485.74 502.93 513.63 502.93 513.63L475.25 494.54C475.25 494.54 483.22 475.66 484.27 468.11C485.32 460.56 486.57 456.8 486.57 456.8Z" stroke="#0D2232" stroke-width="6" stroke-miterlimit="10"/>
<path d="M418.12 490.83C418.91 502.68 420.81 513.64 420.81 513.64L448.5 494.55C448.5 494.55 445.33 487.04 442.72 479.6C441.2 475.25 439.86 470.91 439.48 468.12C438.43 460.57 437.17 456.8 437.17 456.8C437.17 456.8 421.02 455.96 418.51 470.85C417.56 476.41 417.65 483.77 418.12 490.83Z" fill="#435F84"/>
<path d="M418.12 490.83C425.25 490.3 433.55 486.75 437.83 483.71C439.55 482.48 441.23 481.12 442.72 479.6C441.2 475.25 439.86 470.91 439.48 468.12C438.43 460.57 437.17 456.8 437.17 456.8C437.17 456.8 421.02 455.96 418.51 470.85C417.56 476.41 417.65 483.77 418.12 490.83Z" fill="#253B5A"/>
<path d="M437.17 456.8C437.17 456.8 421.02 455.96 418.5 470.85C415.98 485.74 420.81 513.63 420.81 513.63L448.49 494.54C448.49 494.54 440.52 475.66 439.47 468.11C438.42 460.56 437.17 456.8 437.17 456.8Z" stroke="#0D2232" stroke-width="6" stroke-miterlimit="10"/>
<path d="M440.01 528.31H401V563.96H440.01V528.31Z" fill="#F9DC1B" stroke="#0D2232" stroke-width="6" stroke-miterlimit="10"/>
<path d="M440.01 542.37H401" stroke="#0D2232" stroke-width="6" stroke-miterlimit="10"/>
<path d="M505.42 155.89C505.42 155.89 506.52 166.43 502.27 187.98Z" fill="#F9DC1B"/>
<path d="M505.42 155.89C505.42 155.89 506.52 166.43 502.27 187.98" stroke="#0D2232" stroke-width="6" stroke-miterlimit="10" stroke-linecap="round" stroke-linejoin="round"/>
<path d="M583.91 239.41H551.48C548.05 239.41 545.27 242.19 545.27 245.62V260.96" stroke="#0D2232" stroke-width="6" stroke-miterlimit="10" stroke-linecap="round" stroke-linejoin="round"/>
<path d="M415.45 155.73C415.45 155.73 414.35 166.27 418.6 187.82Z" fill="#F9DC1B"/>
<path d="M415.45 155.73C415.45 155.73 414.35 166.27 418.6 187.82" stroke="#0D2232" stroke-width="6" stroke-miterlimit="10" stroke-linecap="round" stroke-linejoin="round"/>
<path d="M336.95 239.25H369.38C372.81 239.25 375.59 242.03 375.59 245.46V260.8" stroke="#0D2232" stroke-width="6" stroke-miterlimit="10" stroke-linecap="round" stroke-linejoin="round"/>
<path opacity="0.74" d="M590.33 270.19C583.87 267.73 576.77 267.78 569.87 267.85C519.42 268.39 468.97 268.92 418.52 269.46C396.1 269.7 373.69 269.94 351.27 270.18C341.32 270.29 330.16 270.91 323.46 278.25C322.14 279.7 320.85 281.48 318.91 281.77C315.95 282.22 313.76 278.78 313.7 275.79C313.58 270.18 317.9 265.23 323 262.87C328.1 260.52 333.88 260.24 339.49 260.05C422.59 257.22 505.93 265.29 588.85 259.16C593.64 258.81 599.3 258.78 602.17 262.64C603.75 264.77 604.01 267.58 604.22 270.23C604.42 272.9 606.6 282.86 601.23 279.05C599.49 277.82 598.29 275.13 596.49 273.69C594.65 272.22 592.53 270.96 590.33 270.19Z" fill="white"/>
<path d="M603.7 284.08C603.7 284.08 592.69 279.99 577.9 279.99C563.11 279.99 343.06 279.99 343.06 279.99C343.06 279.99 323.08 279.2 317.42 284.08V270.4C317.42 265.1 321.72 260.8 327.02 260.8H594.11C599.41 260.8 603.71 265.1 603.71 270.4V284.08H603.7Z" stroke="#0D2232" stroke-width="6" stroke-miterlimit="10" stroke-linecap="round" stroke-linejoin="round"/>
<path d="M366.43 314.08C366.43 314.08 365.89 343.07 366.43 351.41C366.97 359.75 361.31 367.3 352.66 361.48C344.01 355.66 345.69 321.06 345.69 321.06C345.69 321.06 354.66 321.47 366.43 314.08Z" fill="#253B5A" stroke="#0D2232" stroke-width="6" stroke-miterlimit="10"/>
<path d="M413.87 368.07C422.729 368.07 429.91 360.889 429.91 352.03C429.91 343.171 422.729 335.99 413.87 335.99C405.011 335.99 397.83 343.171 397.83 352.03C397.83 360.889 405.011 368.07 413.87 368.07Z" fill="#0D2232"/>
<path d="M512.62 368.07C521.479 368.07 528.66 360.889 528.66 352.03C528.66 343.171 521.479 335.99 512.62 335.99C503.761 335.99 496.58 343.171 496.58 352.03C496.58 360.889 503.761 368.07 512.62 368.07Z" fill="#0D2232"/>
<path d="M535.13 634.54H385.38V668.41H535.13V634.54Z" fill="#253B5A" stroke="#0D2232" stroke-width="6" stroke-miterlimit="10"/>
<path d="M485.94 634.54H438.54V668.41H485.94V634.54Z" fill="#C3CDD4" stroke="#0D2232" stroke-width="6" stroke-miterlimit="10"/>
<path d="M603.94 845H607.3C608.92 845 610.24 846.31 610.24 847.94V856.59C610.24 858.99 608.29 860.94 605.89 860.94H529.5L513.88 850.45V860.94H475.13C472.73 860.94 470.78 858.99 470.78 856.59V840.13C470.78 837.84 472.64 835.98 474.93 835.99H476.37L578 835.1L603.94 845Z" fill="#484D60" stroke="#0D2232" stroke-width="6" stroke-miterlimit="10" stroke-linecap="round" stroke-linejoin="round"/>
<path d="M605.51 841.23L603.94 845H533.94L515.85 835.98H476.35C476.35 835.98 474.54 827.28 476.06 816.5C477 809.81 479.23 802.32 483.97 795.61H544.16L548.88 800.65C548.88 800.65 557.37 800.96 558 808.83C558 808.83 559.49 808.08 562.06 807.26C567.13 805.64 576.39 803.71 586.63 806.63C602.05 811.03 609.29 830.85 605.51 841.23Z" fill="#E89F02"/>
<path d="M499.49 835.99H476.35C476.35 835.99 474.54 827.29 476.06 816.51C476.15 816.5 476.25 816.5 476.35 816.49C499.46 815.33 499.49 835.99 499.49 835.99Z" fill="#834526"/>
<path opacity="0.75" d="M605.51 841.23L603.94 845H593.87C593.87 845 602.83 812.71 562.07 807.25C567.14 805.63 576.4 803.7 586.64 806.62C602.05 811.03 609.29 830.85 605.51 841.23Z" fill="white"/>
<path d="M544.17 795.61L548.89 800.64C548.89 800.64 557.38 800.95 558.01 808.82C558.01 808.82 571.22 802.21 586.64 806.62C602.06 811.02 609.29 830.84 605.52 841.23L603.95 845.01H533.95L515.86 835.99H476.36C476.36 835.99 471.61 813.13 483.98 795.62H544.17V795.61Z" stroke="#0D2232" stroke-width="6" stroke-miterlimit="10" stroke-linecap="round" stroke-linejoin="round"/>
<path d="M558.01 808.83C558.01 808.83 537.77 815.44 533.94 845.01" stroke="#0D2232" stroke-width="6" stroke-miterlimit="10" stroke-linecap="round" stroke-linejoin="round"/>
<path d="M548.89 800.65C548.89 800.65 534.73 803.48 529.49 816.48" stroke="#0D2232" stroke-width="6" stroke-miterlimit="10" stroke-linecap="round" stroke-linejoin="round"/>
<path d="M548.89 774.12H475.46V795.62H548.89V774.12Z" fill="#435F84" stroke="#0D2232" stroke-width="6" stroke-miterlimit="10" stroke-linecap="round" stroke-linejoin="round"/>
<path d="M542.28 774.12L533.79 668.41H460.9V688.97L470.76 688.34L481.25 774.12H542.28Z" fill="#435F84" stroke="#0D2232" stroke-width="6" stroke-miterlimit="10" stroke-linecap="round" stroke-linejoin="round"/>
<path d="M317.87 845H314.51C312.89 845 311.57 846.31 311.57 847.94V856.59C311.57 858.99 313.52 860.94 315.92 860.94H392.31L407.93 850.45V860.94H446.68C449.08 860.94 451.03 858.99 451.03 856.59V840.13C451.03 837.84 449.17 835.98 446.88 835.99H445.44L343.81 835.1L317.87 845Z" fill="#484D60" stroke="#0D2232" stroke-width="6" stroke-miterlimit="10" stroke-linecap="round" stroke-linejoin="round"/>
<path d="M316.29 841.23L317.86 845H387.86L405.95 835.98H445.45C445.45 835.98 447.26 827.28 445.74 816.5C444.8 809.81 442.57 802.32 437.83 795.61H377.64L372.92 800.65C372.92 800.65 364.43 800.96 363.8 808.83C363.8 808.83 362.31 808.08 359.74 807.26C354.67 805.64 345.41 803.71 335.17 806.63C319.76 811.03 312.52 830.85 316.29 841.23Z" fill="#E89F02"/>
<path d="M422.32 835.99H445.46C445.46 835.99 447.27 827.29 445.75 816.51C445.66 816.5 445.56 816.5 445.46 816.49C422.35 815.33 422.32 835.99 422.32 835.99Z" fill="#834526"/>
<path opacity="0.75" d="M316.29 841.23L317.86 845H327.93C327.93 845 318.97 812.71 359.73 807.25C354.66 805.63 345.4 803.7 335.16 806.62C319.76 811.03 312.52 830.85 316.29 841.23Z" fill="white"/>
<path d="M377.64 795.61L372.92 800.64C372.92 800.64 364.43 800.95 363.8 808.82C363.8 808.82 350.59 802.21 335.17 806.62C319.75 811.02 312.52 830.84 316.29 841.23L317.86 845.01H387.86L405.95 835.99H445.45C445.45 835.99 450.2 813.13 437.83 795.62H377.64V795.61Z" stroke="#0D2232" stroke-width="6" stroke-miterlimit="10" stroke-linecap="round" stroke-linejoin="round"/>
<path d="M363.8 808.83C363.8 808.83 384.04 815.44 387.87 845.01" stroke="#0D2232" stroke-width="6" stroke-miterlimit="10" stroke-linecap="round" stroke-linejoin="round"/>
<path d="M372.92 800.65C372.92 800.65 387.08 803.48 392.32 816.48" stroke="#0D2232" stroke-width="6" stroke-miterlimit="10" stroke-linecap="round" stroke-linejoin="round"/>
<path d="M379.53 774.12L388.02 668.41H460.9V688.97L451.05 688.34L440.56 774.12H379.53Z" fill="#435F84" stroke="#0D2232" stroke-width="6" stroke-miterlimit="10" stroke-linecap="round" stroke-linejoin="round"/>
<g opacity="0.16">
<path d="M365.29 279.99H566.48L571.3 291.63H358.91L365.29 279.99Z" fill="black"/>
<path d="M345.68 321.06C345.68 321.06 381.3 329.84 416.95 291.64L385.37 286.85L345.68 321.06Z" fill="black"/>
<path d="M432.88 318.37C432.88 318.37 486.03 327.19 520.1 285.81L490.6 286.84L432.88 318.37Z" fill="black"/>
</g>
<path opacity="0.16" d="M563.28 344.43C563.28 344.43 545.98 441.81 442.72 454.33C442.72 454.33 550.85 469.69 564.22 365.24L563.28 344.43Z" fill="black"/>
<path d="M529.1 616.14H391.29V628.43H529.1V616.14Z" fill="#E89F02"/>
<path d="M505.22 468.86H535.65V634.54H385.38V468.86H415.16" stroke="#0D2232" stroke-width="6" stroke-miterlimit="10"/>
<path d="M398.28 279.99C398.28 279.99 371.22 326.24 339.13 320.57C336.22 320.05 333.6 319.47 331.27 318.85C307.92 312.57 312.08 301.44 312.08 301.44C312.08 301.44 331.6 306.8 345.11 281.81C345.43 281.22 345.74 280.62 346.05 280H398.28V279.99Z" fill="#253B5A"/>
<path opacity="0.21" d="M336.95 303.9C327.96 309.4 324.34 309.25 324.34 309.25C324.34 309.25 323.24 313.82 331.26 318.85C307.91 312.57 312.07 301.44 312.07 301.44C312.07 301.44 333.95 304.98 347.46 279.99C347.48 280.33 345.85 298.46 336.95 303.9Z" fill="white"/>
<path d="M610.63 305.79C610.63 305.79 597.27 326.52 573.96 321.81C560.61 319.11 543.99 308.06 524.74 280L582.3 280.12C582.3 280.12 582.48 283.01 583.7 286.85C586.15 294.52 592.8 306 610.63 305.79Z" fill="#253B5A"/>
<path opacity="0.21" d="M610.63 305.79C610.63 305.79 597.27 326.52 573.96 321.81C576.62 321.05 579.2 319.96 581.67 318.73C586.65 316.24 591.31 313.15 596.26 310.6C590.76 310.34 585.86 306.28 583.7 301.21C582.18 297.63 581.12 291.66 582.86 287.97C583.09 287.48 583.39 287.11 583.72 286.86C586.15 294.52 592.8 306 610.63 305.79Z" fill="white"/>
<path d="M582.3 280.11C582.3 280.11 583.88 306.1 610.62 305.79C610.62 305.79 577.59 357.07 524.74 279.99L582.3 280.11Z" stroke="#0D2232" stroke-width="6" stroke-miterlimit="10" stroke-linecap="round" stroke-linejoin="round"/>
<path d="M498 279.99C498 279.99 485.73 313.34 432.88 318.37C432.88 318.37 442 302.01 442 279.99H498Z" fill="#253B5A" stroke="#0D2232" stroke-width="6" stroke-miterlimit="10" stroke-linecap="round" stroke-linejoin="round"/>
<path d="M398.27 279.99C398.27 279.99 371.21 326.24 339.13 320.57C307.05 314.9 312.07 301.43 312.07 301.43C312.07 301.43 332.52 307.04 346.05 279.98H398.27V279.99Z" stroke="#0D2232" stroke-width="6" stroke-miterlimit="10" stroke-linecap="round" stroke-linejoin="round"/>
<path d="M566.48 365.29C566.48 365.29 563.75 417.47 514.04 445.47C464.33 473.47 411.17 453.33 385.37 427.85C359.57 402.37 358 363.53 358 363.53" stroke="#0D2232" stroke-width="6" stroke-miterlimit="10"/>
<path d="M580.11 322.5C580.11 322.5 579.64 349.21 578.54 354.4C577.44 359.59 572.88 366.04 564.23 365.25C555.58 364.46 555.89 353.3 555.74 345.43C555.58 337.57 555.74 313.54 555.74 313.54C555.74 313.54 567.52 322.85 580.11 322.5Z" fill="#253B5A" stroke="#0D2232" stroke-width="6" stroke-miterlimit="10" stroke-linecap="round" stroke-linejoin="round"/>
<path d="M478.75 668.41L501.59 795.61H483.97H475.46V774.12H481.25L470.76 685L460.9 688.97V668.41H478.75Z" fill="#253B5A"/>
<path d="M424.75 774.12L420.5 795.61H446.35V774.12H440.56L451.05 685L460.9 688.97V668.41H438.54L424.75 774.12Z" fill="#253B5A"/>
<path d="M470.76 688.34L483.14 686.87" stroke="#0D2232" stroke-width="6" stroke-miterlimit="10" stroke-linecap="round" stroke-linejoin="round"/>
<path d="M451.05 688.34L438.67 686.87" stroke="#0D2232" stroke-width="6" stroke-miterlimit="10" stroke-linecap="round" stroke-linejoin="round"/>
<path d="M533.79 668.41H520.32L529.49 774.12H535.65V795.61H548.89V774.12H542.28L533.79 668.41Z" fill="#C3CDD4"/>
<path d="M388.68 668.41H402.15L392.98 774.12H386.82V795.61H373.58V774.12H380.19L388.68 668.41Z" fill="#C3CDD4"/>
<path d="M548.89 774.12H475.46V795.62H548.89V774.12Z" stroke="#0D2232" stroke-width="6" stroke-miterlimit="10" stroke-linecap="round" stroke-linejoin="round"/>
<path d="M542.28 774.12L533.79 668.41H460.9V688.97L470.76 688.34L481.25 774.12H542.28Z" stroke="#0D2232" stroke-width="6" stroke-miterlimit="10" stroke-linecap="round" stroke-linejoin="round"/>
<path d="M379.53 774.12L388.02 668.41H460.9V688.97L451.05 688.34L440.56 774.12H379.53Z" stroke="#0D2232" stroke-width="6" stroke-miterlimit="10" stroke-linecap="round" stroke-linejoin="round"/>
<path d="M611.76 681.09H594.56V746.23H611.76V681.09Z" fill="#E89F02"/>
<path d="M701.21 660.34V670.68C701.21 673.43 698.969 675.66 696.219 675.66H617.75C615 675.66 612.77 673.43 612.77 670.68V660.34C612.77 659.74 612.88 659.16 613.07 658.63C613.76 656.72 615.6 655.35 617.75 655.35H696.219C698.369 655.35 700.209 656.72 700.909 658.63C701.099 659.16 701.21 659.74 701.21 660.34Z" fill="#AFCADC"/>
<path opacity="0.2" d="M612.76 669.58V670.68C612.76 673.43 614.99 675.67 617.74 675.67H696.21C698.96 675.67 701.19 673.44 701.19 670.68V669.58H612.76Z" fill="black"/>
<path opacity="0.7" d="M700.9 658.63H613.06C613.75 656.72 615.59 655.35 617.74 655.35H696.21C698.37 655.35 700.21 656.71 700.9 658.63Z" fill="white"/>
<path d="M701.21 660.34V670.68C701.21 673.43 698.969 675.66 696.219 675.66H617.75C615 675.66 612.77 673.43 612.77 670.68V660.34C612.77 659.74 612.88 659.16 613.07 658.63C613.76 656.72 615.6 655.35 617.75 655.35H696.219C698.369 655.35 700.209 656.72 700.909 658.63C701.099 659.16 701.21 659.74 701.21 660.34Z" stroke="#0D2232" stroke-width="4" stroke-miterlimit="10" stroke-linecap="round" stroke-linejoin="round"/>
<path d="M527.26 674.02C527.26 674.02 548.47 690.73 612.76 684.31" stroke="white" stroke-miterlimit="10"/>
<path d="M509.26 634.16V722.88L520.83 734.45H599.9L589.3 726.09L589.94 634.16H509.26Z" fill="#F9DC1B"/>
<path d="M518.9 634.16V717.32L525.65 726.09H606.65L599.9 734.45H520.83L509.26 722.88V634.16H518.9Z" fill="#E89F02"/>
<path d="M521.47 646.52H516.33V651.66H521.47V646.52Z" fill="white"/>
<path d="M521.47 662.93H516.33V668.07H521.47V662.93Z" fill="white"/>
<path d="M521.47 679.35H516.33V684.49H521.47V679.35Z" fill="white"/>
<path d="M521.47 695.76H516.33V700.9H521.47V695.76Z" fill="white"/>
<path d="M521.47 712.17H516.33V717.31H521.47V712.17Z" fill="white"/>
<path d="M589.94 669.2V634.16H509.26V722.88L520.83 734.45H592.84" stroke="#0D2232" stroke-width="4" stroke-miterlimit="10" stroke-linecap="round" stroke-linejoin="round"/>
<path d="M372.924 795.609L446.354 795.609L446.354 774.109L372.924 774.109L372.924 795.609Z" stroke="#0D2232" stroke-width="6" stroke-miterlimit="10" stroke-linecap="round" stroke-linejoin="round"/>
<path d="M602.16 512.55C602.16 512.55 629.8 528.62 624.02 549.84C618.24 571.06 577.09 599.34 577.09 599.34C577.09 599.34 575.16 575.55 546.23 570.41L564.23 552.41L602.16 512.55Z" fill="#FBC6A6"/>
<path d="M546.23 570.4L537.23 575.86V631.79H577.73L577.09 599.33C577.09 599.33 574.52 574.9 546.23 570.4Z" fill="#FBC6A6"/>
<path opacity="0.16" d="M598.1 516.81C598.1 516.81 623.58 529.25 617.93 549.97C612.28 570.7 576.63 592.72 576.63 592.72" stroke="black" stroke-width="6" stroke-miterlimit="10"/>
<path opacity="0.16" d="M573.73 631.8L573.09 586.75" stroke="black" stroke-width="6" stroke-miterlimit="10"/>
<path opacity="0.5" d="M552.4 570.97L607.54 514.05" stroke="white" stroke-width="6" stroke-miterlimit="10"/>
<path opacity="0.5" d="M542.4 572.12V633.36" stroke="white" stroke-width="6" stroke-miterlimit="10"/>
<path d="M602.16 512.55C602.16 512.55 629.8 528.62 624.02 549.84C618.24 571.06 577.09 599.34 577.09 599.34C577.09 599.34 575.16 575.55 546.23 570.41L564.23 552.41L602.16 512.55Z" stroke="#0D2232" stroke-width="6" stroke-miterlimit="10" stroke-linecap="round" stroke-linejoin="round"/>
<path d="M546.23 570.4L537.23 575.86V631.79H577.73L577.09 599.33C577.09 599.33 574.52 574.9 546.23 570.4Z" stroke="#0D2232" stroke-width="6" stroke-miterlimit="10" stroke-linecap="round" stroke-linejoin="round"/>
<path d="M547.92 554.11L573.51 565.85L596.45 517.32L602.66 504.19L578.12 492.03L571.36 505.92L547.92 554.11Z" fill="#435F84"/>
<path opacity="0.21" d="M571.36 505.92L571.4 505.96L596.45 517.32L602.66 504.19L578.12 492.03L571.36 505.92Z" fill="white"/>
<path d="M535.65 475.67V542.37L550.23 549.92L571.4 505.96L575.81 496.78L535.65 475.67Z" fill="#F9DC1B"/>
<path opacity="0.5" d="M535.65 475.67V487.62L571.4 505.96L575.81 496.78L535.65 475.67Z" fill="white"/>
<path d="M558.84 532.02L535.65 522.65V542.37L550.23 549.92L558.84 532.02Z" fill="#E89F02"/>
<path d="M578.12 492.03L547.92 554.11L573.51 565.86L602.66 504.19L578.12 492.03Z" stroke="#0D2232" stroke-width="6" stroke-miterlimit="10" stroke-linecap="round" stroke-linejoin="round"/>
<path d="M535.65 475.67L575.81 496.78L550.23 549.92L535.65 542.37V475.67Z" stroke="#0D2232" stroke-width="6" stroke-miterlimit="10"/>
<path d="M538.82 589.67V606.93C538.82 608.27 537.73 609.36 536.4 609.36H527.03C525.69 609.36 524.6 608.27 524.6 606.93V589.67C524.6 588.33 525.69 587.25 527.03 587.25H536.4C537.74 587.24 538.82 588.33 538.82 589.67Z" fill="#AFCADC"/>
<path d="M536.4 609.53H527.03C525.6 609.53 524.43 608.37 524.43 606.93V589.67C524.43 588.24 525.59 587.08 527.03 587.08H536.4C537.83 587.08 538.99 588.24 538.99 589.67V606.93C538.99 608.36 537.83 609.53 536.4 609.53ZM527.03 587.41C525.79 587.41 524.77 588.42 524.77 589.66V606.92C524.77 608.16 525.78 609.18 527.03 609.18H536.4C537.64 609.18 538.65 608.17 538.65 606.92V589.66C538.65 588.42 537.64 587.41 536.4 587.41H527.03Z" fill="#000072"/>
<g opacity="0.2">
<path d="M538.82 603.1V606.93C538.82 608.27 537.73 609.36 536.4 609.36H527.03C525.69 609.36 524.6 608.27 524.6 606.93V603.1C524.6 604.44 525.69 605.53 527.03 605.53H536.4C537.74 605.52 538.82 604.44 538.82 603.1Z" fill="black"/>
</g>
<g opacity="0.55">
<path d="M538.82 589.67V592.38C538.82 591.04 537.73 589.96 536.4 589.96H527.03C525.69 589.96 524.6 591.05 524.6 592.38V589.67C524.6 588.33 525.69 587.25 527.03 587.25H536.4C537.74 587.24 538.82 588.33 538.82 589.67Z" fill="white"/>
</g>
<path d="M549.28 604.7H538.82V592.43H547.69L549.28 604.7Z" fill="#AFCADC"/>
<path d="M549.47 604.87H538.66V592.26H547.85L549.47 604.87ZM538.99 604.53H549.08L547.54 592.6H538.99V604.53Z" fill="#000072"/>
<path d="M598.429 602.89C598.279 604.64 596.219 605.51 594.889 604.36C587.419 597.94 576.379 601.56 574.129 610.72C573.749 612.25 572.409 613.33 570.839 613.33H553.369C551.669 613.33 550.229 612.07 550.019 610.38L549.289 604.7L547.709 592.43L547.179 588.29C546.919 586.27 548.499 584.47 550.539 584.47H579.189C590.779 584.48 599.209 593.43 598.429 602.89Z" fill="#AFCADC"/>
<path d="M570.84 613.5H553.37C551.59 613.5 550.07 612.17 549.85 610.4L547 588.31C546.87 587.3 547.18 586.28 547.86 585.51C548.53 584.74 549.51 584.3 550.53 584.3H579.18C585.01 584.3 590.48 586.61 594.19 590.63C597.41 594.13 598.99 598.48 598.62 602.89C598.55 603.77 597.99 604.53 597.18 604.86C596.36 605.2 595.47 605.05 594.8 604.47C591.33 601.49 586.76 600.52 582.55 601.86C578.43 603.18 575.35 606.5 574.31 610.74C573.9 612.38 572.47 613.5 570.84 613.5ZM550.51 584.65C549.59 584.65 548.71 585.05 548.1 585.74C547.49 586.43 547.21 587.36 547.33 588.27L550.18 610.36C550.39 611.96 551.76 613.16 553.37 613.16H570.84C572.32 613.16 573.61 612.14 573.97 610.68C575.04 606.32 578.2 602.91 582.43 601.55C586.75 600.17 591.45 601.17 595 604.22C595.57 604.71 596.33 604.84 597.03 604.55C597.74 604.26 598.2 603.63 598.26 602.87C598.61 598.55 597.07 594.29 593.91 590.87C590.27 586.92 584.89 584.65 579.15 584.65H550.51Z" fill="#000072"/>
<g opacity="0.2">
<path d="M598.43 602.89C598.28 604.64 596.22 605.51 594.89 604.36C587.42 597.94 576.38 601.56 574.13 610.72C573.75 612.25 572.41 613.33 570.84 613.33H553.37C551.67 613.33 550.23 612.07 550.02 610.38L549.84 609.02C550.29 609.24 550.78 609.36 551.31 609.36H568.78C570.35 609.36 571.7 608.27 572.07 606.75C574.32 597.59 585.36 593.96 592.83 600.39C594.16 601.54 596.22 600.67 596.37 598.92C596.55 596.76 596.24 594.62 595.53 592.61C597.65 595.63 598.73 599.22 598.43 602.89Z" fill="black"/>
</g>
<g opacity="0.55">
<path d="M594.36 591.11C591.02 588.46 586.6 586.79 581.59 586.79H552.94C550.9 586.79 549.32 588.58 549.58 590.61L550.11 594.75L551.69 607.02L552.42 612.7C552.44 612.89 552.48 613.07 552.54 613.24C551.21 612.92 550.18 611.8 549.99 610.39L549.26 604.71L547.68 592.44L547.15 588.3C546.89 586.28 548.47 584.48 550.51 584.48H579.16C585.51 584.48 590.9 587.15 594.36 591.11Z" fill="white"/>
</g>
<g opacity="0.55">
<path d="M538.82 592.38H525.17V596.16H538.82V592.38Z" fill="white"/>
</g>
<path d="M570.53 613.33H554.45V654.37H570.53V613.33Z" fill="#435F84" stroke="#0D2232" stroke-width="4" stroke-miterlimit="10" stroke-linecap="round" stroke-linejoin="round"/>
<g opacity="0.2">
<path d="M554.5 620.54C554.97 620.55 555.39 620.72 555.78 620.93C556.17 621.14 556.53 621.41 556.87 621.7C557.55 622.27 558.17 622.91 558.68 623.65C559.7 625.11 560.28 626.76 561.3 628.05C561.8 628.69 562.43 629.21 563.15 629.6C563.87 629.98 564.67 630.24 565.48 630.41C566.3 630.58 567.14 630.68 567.99 630.76C568.41 630.8 568.84 630.83 569.27 630.84C569.7 630.87 570.14 630.93 570.54 631.21C570.6 631.25 570.61 631.33 570.57 631.39C570.56 631.41 570.54 631.42 570.52 631.43H570.51C570.05 631.63 569.64 631.59 569.21 631.56C568.79 631.5 568.36 631.47 567.93 631.43C567.07 631.35 566.2 631.25 565.34 631.07C564.48 630.89 563.62 630.62 562.83 630.2C562.04 629.78 561.32 629.18 560.76 628.47C559.64 627.05 559.07 625.39 558.11 624.04C557.63 623.37 557.07 622.75 556.41 622.25C556.08 622 555.74 621.77 555.39 621.54C555.05 621.31 554.7 621.08 554.39 620.75C554.34 620.7 554.34 620.63 554.39 620.58C554.43 620.55 554.46 620.53 554.5 620.54Z" fill="#371A45"/>
<path d="M570.55 628C569.67 628.48 568.64 628.5 567.67 628.36C566.7 628.22 565.74 627.98 564.86 627.53C564.41 627.32 564 627.04 563.61 626.74C563.23 626.42 562.86 626.08 562.57 625.67C561.94 624.88 561.61 623.89 561.42 622.95C561.23 622 561.14 621.07 560.88 620.21C560.75 619.78 560.58 619.38 560.34 619.01C560.23 618.82 560.09 618.65 559.96 618.48C559.81 618.32 559.67 618.15 559.5 618.01C558.85 617.41 558.03 617 557.17 616.79C556.74 616.68 556.29 616.64 555.86 616.67C555.42 616.7 555.01 616.77 554.51 616.7H554.5C554.48 616.7 554.45 616.69 554.42 616.68L554.4 616.67C554.33 616.65 554.29 616.59 554.31 616.52C554.32 616.5 554.33 616.48 554.34 616.46C554.37 616.43 554.39 616.41 554.42 616.39H554.41C554.81 616.05 555.34 615.94 555.84 615.94C556.34 615.96 556.84 615.99 557.33 616.12C558.3 616.35 559.22 616.82 559.96 617.49C560.71 618.14 561.27 619.06 561.54 620C561.82 620.95 561.91 621.9 562.09 622.8C562.27 623.7 562.56 624.55 563.11 625.24C563.37 625.6 563.7 625.9 564.04 626.19C564.4 626.46 564.77 626.71 565.18 626.9C565.98 627.3 566.87 627.55 567.77 627.64C567.99 627.67 568.22 627.66 568.45 627.68C568.68 627.67 568.9 627.69 569.13 627.68C569.58 627.69 570.03 627.64 570.53 627.75H570.54C570.6 627.76 570.64 627.83 570.63 627.89C570.6 627.96 570.58 627.98 570.55 628Z" fill="#371A45"/>
<path d="M570.56 623.31C570.3 623.56 569.98 623.67 569.65 623.72C569.49 623.75 569.32 623.76 569.15 623.75C568.98 623.74 568.82 623.72 568.66 623.71C568.01 623.62 567.37 623.45 566.78 623.17C565.6 622.62 564.58 621.74 563.87 620.66C563.15 619.58 562.74 618.32 562.59 617.05C562.52 616.41 562.51 615.77 562.56 615.14C562.58 614.82 562.63 614.51 562.66 614.19C562.69 613.87 562.76 613.56 563 613.29V613.31C563.04 613.27 563.07 613.22 563.12 613.19C563.19 613.14 563.28 613.16 563.33 613.22L563.34 613.23V613.24C563.37 613.29 563.38 613.33 563.4 613.37V613.39C563.49 613.72 563.43 614.01 563.36 614.3C563.29 614.59 563.26 614.89 563.24 615.19C563.19 615.79 563.2 616.38 563.27 616.98C563.4 618.16 563.79 619.31 564.44 620.29C565.09 621.27 566.01 622.07 567.07 622.56C567.6 622.8 568.16 622.98 568.74 623.01C569.03 623.02 569.31 623.03 569.6 623.02C569.89 623.02 570.17 623.01 570.51 623.09C570.58 623.11 570.62 623.18 570.6 623.25C570.59 623.27 570.57 623.29 570.56 623.31Z" fill="#371A45"/>
<path d="M566.48 613.39C566.53 613.65 566.47 613.85 566.4 614.04C566.33 614.23 566.24 614.4 566.16 614.58C566 614.94 565.9 615.31 565.84 615.69C565.74 616.43 565.89 617.22 566.31 617.81C566.52 618.1 566.8 618.33 567.12 618.47C567.44 618.61 567.81 618.67 568.18 618.65C568.55 618.64 568.93 618.56 569.29 618.44C569.47 618.39 569.65 618.28 569.82 618.18C570 618.09 570.18 618.02 570.47 618.14H570.48C570.56 618.17 570.6 618.25 570.58 618.33C570.51 618.63 570.31 618.74 570.12 618.83C570.02 618.87 569.92 618.9 569.82 618.95C569.72 619 569.62 619.04 569.52 619.07C569.1 619.21 568.66 619.31 568.21 619.32C567.76 619.34 567.29 619.27 566.85 619.08C566.42 618.89 566.03 618.57 565.76 618.19C565.22 617.42 565.05 616.47 565.17 615.58C565.23 615.14 565.37 614.71 565.51 614.3C565.58 614.09 565.66 613.89 565.78 613.71C565.89 613.53 566.04 613.36 566.29 613.27C566.37 613.24 566.45 613.28 566.48 613.36C566.48 613.37 566.48 613.38 566.48 613.39Z" fill="#371A45"/>
<path d="M554.47 626.44C555.02 626.37 555.58 626.55 556.04 626.83C556.51 627.1 556.92 627.47 557.28 627.86C558 628.65 558.58 629.52 559.13 630.37C559.68 631.22 560.24 632.06 560.93 632.74C561.62 633.42 562.48 633.91 563.38 634.36C564.28 634.81 565.24 635.23 566.11 635.86C566.97 636.49 567.7 637.28 568.28 638.16C568.87 639.03 569.32 639.97 569.72 640.92C569.92 641.4 570.11 641.87 570.31 642.34C570.5 642.82 570.67 643.3 570.62 643.86C570.61 643.93 570.55 643.98 570.49 643.97C570.46 643.97 570.43 643.95 570.41 643.94C570 643.55 569.81 643.07 569.63 642.6C569.47 642.12 569.28 641.65 569.09 641.18C568.7 640.25 568.26 639.35 567.71 638.53C567.17 637.7 566.49 636.98 565.71 636.4C564.92 635.83 564 635.42 563.08 634.96C562.16 634.51 561.22 633.98 560.45 633.22C559.69 632.47 559.11 631.59 558.55 630.74C557.99 629.89 557.46 629.04 556.77 628.34C556.42 628 556.05 627.69 555.66 627.42C555.27 627.14 554.87 626.93 554.42 626.66C554.36 626.63 554.34 626.55 554.38 626.5C554.4 626.47 554.44 626.45 554.47 626.44Z" fill="#371A45"/>
<path d="M566.31 633.25C566.49 633.15 566.62 633.17 566.73 633.21C566.84 633.25 566.93 633.32 567.03 633.39C567.22 633.53 567.42 633.64 567.61 633.77C567.99 634.03 568.37 634.3 568.73 634.58C569.09 634.86 569.45 635.16 569.79 635.47C569.96 635.63 570.13 635.79 570.29 635.95C570.37 636.03 570.45 636.12 570.55 636.18C570.63 636.26 570.71 636.35 570.61 636.6C570.58 636.68 570.52 636.73 570.45 636.75C570.2 636.83 570.11 636.76 570.04 636.68C569.98 636.58 569.9 636.51 569.82 636.43C569.66 636.27 569.5 636.12 569.34 635.97C569.01 635.67 568.67 635.38 568.32 635.11C567.97 634.84 567.61 634.58 567.24 634.33C567.05 634.21 566.87 634.08 566.67 633.98C566.57 633.93 566.47 633.89 566.38 633.81C566.29 633.74 566.22 633.64 566.21 633.44C566.2 633.36 566.25 633.29 566.31 633.25Z" fill="#371A45"/>
<path d="M554.52 630.96C555.1 631.2 555.52 631.73 555.81 632.26C556.1 632.8 556.28 633.38 556.44 633.93C556.6 634.49 556.76 635.03 556.98 635.54C557.19 636.05 557.46 636.53 557.81 636.92C558.16 637.31 558.61 637.58 559.11 637.76C559.61 637.93 560.17 638.01 560.73 638.06C561.3 638.11 561.88 638.13 562.47 638.21C563.06 638.29 563.67 638.42 564.24 638.7C564.81 638.98 565.31 639.4 565.68 639.89C566.06 640.38 566.33 640.94 566.55 641.49C566.98 642.61 567.2 643.76 567.5 644.86C567.79 645.96 568.21 647.01 568.77 647.99C569.04 648.48 569.35 648.96 569.7 649.4C570.04 649.85 570.38 650.29 570.6 650.87C570.62 650.93 570.59 651 570.53 651.03C570.5 651.04 570.46 651.04 570.44 651.03C569.86 650.77 569.47 650.31 569.12 649.83C568.79 649.34 568.47 648.84 568.18 648.32C567.6 647.29 567.15 646.18 566.85 645.04C566.54 643.91 566.32 642.78 565.92 641.74C565.72 641.22 565.47 640.73 565.14 640.31C564.82 639.89 564.41 639.54 563.93 639.31C562.98 638.84 561.82 638.84 560.66 638.74C560.07 638.69 559.47 638.61 558.88 638.41C558.29 638.21 557.72 637.86 557.3 637.38C556.45 636.43 556.12 635.22 555.76 634.14C555.58 633.59 555.39 633.07 555.17 632.57C554.94 632.07 554.69 631.62 554.37 631.13C554.33 631.08 554.35 631 554.4 630.97C554.44 630.94 554.49 630.94 554.52 630.96Z" fill="#371A45"/>
<path d="M554.48 640.69C554.93 640.63 555.32 640.64 555.74 640.65L556.99 640.68C557.84 640.68 558.73 640.65 559.61 640.81C560.05 640.89 560.5 641.01 560.92 641.21C561.34 641.41 561.74 641.69 562.05 642.06C562.37 642.42 562.58 642.86 562.72 643.3C562.86 643.74 562.92 644.19 562.96 644.63C563.02 645.52 563 646.36 563.06 647.2C563.11 648.04 563.2 648.88 563.36 649.7C563.52 650.52 563.76 651.32 564.09 652.08C564.26 652.46 564.44 652.83 564.68 653.16C564.9 653.51 565.12 653.84 565.21 654.31C565.22 654.38 565.18 654.45 565.11 654.46C565.09 654.46 565.06 654.46 565.04 654.45C564.57 654.28 564.29 653.91 564.06 653.53C563.85 653.14 563.64 652.75 563.46 652.34C563.11 651.53 562.86 650.68 562.69 649.82C562.52 648.96 562.43 648.1 562.37 647.23C562.31 646.37 562.33 645.5 562.27 644.68C562.21 643.86 562.02 643.06 561.52 642.5C561.03 641.92 560.27 641.61 559.48 641.48C558.68 641.34 557.85 641.34 556.99 641.38C556.56 641.4 556.12 641.41 555.68 641.35C555.24 641.3 554.79 641.19 554.41 640.91C554.36 640.87 554.35 640.79 554.39 640.74C554.42 640.71 554.45 640.69 554.48 640.69Z" fill="#371A45"/>
<path d="M565.7 648.16C565.91 648.24 566 648.36 566.06 648.49C566.13 648.62 566.17 648.75 566.2 648.89C566.28 649.16 566.4 649.43 566.5 649.69C566.72 650.22 566.95 650.74 567.21 651.24C567.47 651.75 567.74 652.25 568.04 652.74C568.19 652.98 568.34 653.22 568.5 653.46C568.58 653.58 568.66 653.7 568.76 653.8C568.85 653.91 568.92 654.04 568.8 654.29C568.77 654.37 568.69 654.41 568.62 654.42C568.34 654.44 568.25 654.33 568.17 654.2C568.11 654.06 568.03 653.94 567.94 653.82C567.78 653.57 567.62 653.33 567.47 653.07C567.17 652.57 566.88 652.05 566.62 651.53C566.36 651.01 566.11 650.47 565.89 649.93C565.77 649.66 565.68 649.38 565.56 649.11C565.5 648.98 565.44 648.84 565.41 648.7C565.38 648.55 565.38 648.4 565.5 648.21C565.53 648.16 565.62 648.13 565.7 648.16Z" fill="#371A45"/>
<path d="M554.43 644.61C554.69 644.38 554.98 644.29 555.28 644.23C555.58 644.17 555.89 644.17 556.21 644.2C556.83 644.24 557.47 644.36 558.05 644.65C558.63 644.94 559.12 645.38 559.49 645.88C559.86 646.39 560.14 646.95 560.32 647.54C560.7 648.72 560.73 649.98 560.51 651.18C560.4 651.78 560.23 652.37 560 652.93L559.64 653.77C559.51 654.04 559.33 654.3 558.98 654.43C558.91 654.46 558.82 654.42 558.8 654.34C558.8 654.33 558.8 654.32 558.79 654.31V654.3C558.73 653.92 558.87 653.69 559 653.43C559.15 653.19 559.27 652.93 559.37 652.67C559.58 652.15 559.74 651.6 559.84 651.05C560.04 649.95 560.01 648.8 559.67 647.74C559.34 646.69 558.69 645.72 557.73 645.24C557.26 645 556.72 644.88 556.18 644.88C555.91 644.88 555.63 644.91 555.35 644.91C555.07 644.92 554.79 644.92 554.47 644.81C554.4 644.79 554.37 644.71 554.39 644.64C554.4 644.65 554.41 644.63 554.43 644.61Z" fill="#371A45"/>
<path d="M554.42 648.32C554.54 648.11 554.74 648.03 554.93 648C555.12 647.97 555.32 647.99 555.5 648.04C555.87 648.13 556.24 648.28 556.54 648.54C557.14 649.05 557.44 649.82 557.4 650.59C557.38 650.97 557.25 651.37 557.05 651.68C556.85 652 556.59 652.27 556.32 652.5C556.05 652.73 555.76 652.92 555.48 653.1C555.34 653.19 555.19 653.28 555.07 653.39C554.93 653.48 554.78 653.56 554.52 653.44C554.44 653.41 554.4 653.33 554.4 653.25C554.42 652.95 554.55 652.86 554.69 652.78C554.84 652.71 554.98 652.63 555.12 652.54C555.39 652.36 555.66 652.18 555.89 651.99C556.37 651.6 556.71 651.12 556.73 650.56C556.76 650.01 556.53 649.42 556.11 649.07C555.9 648.9 555.65 648.77 555.37 648.74C555.23 648.73 555.09 648.73 554.96 648.71C554.82 648.7 554.68 648.67 554.49 648.54L554.48 648.53C554.4 648.48 554.38 648.39 554.42 648.32Z" fill="#371A45"/>
</g>
<g opacity="0.55">
<path d="M556.84 654.37H554.45V618.99H554.79C555.92 618.99 556.84 619.91 556.84 621.04V654.37Z" fill="white"/>
</g>
<g opacity="0.3">
<path d="M570.53 613.33V654.37H566.72V622.84C566.72 620.74 565.02 619.04 562.92 619.04H554.45V613.33H570.53Z" fill="#371A45"/>
</g>
<path d="M574.25 657.76V699.05C574.25 700.92 572.73 702.43 570.87 702.43H554.28C553.72 702.43 553.19 702.29 552.73 702.05C551.64 701.49 550.9 700.35 550.9 699.04V657.75C550.9 655.88 552.42 654.37 554.28 654.37H570.87C572.74 654.37 574.25 655.89 574.25 657.76Z" fill="#F9DC1B"/>
<path d="M570.87 702.61H554.28C553.71 702.61 553.15 702.47 552.65 702.22L552.56 702.17C551.43 701.55 550.729 700.37 550.729 699.06V657.77C550.729 655.81 552.32 654.22 554.28 654.22H570.87C572.83 654.22 574.419 655.81 574.419 657.77V699.06C574.419 701.01 572.83 702.61 570.87 702.61ZM552.9 701.96C553.33 702.16 553.8 702.27 554.28 702.27H570.87C572.64 702.27 574.09 700.83 574.09 699.05V657.76C574.09 655.99 572.65 654.54 570.87 654.54H554.28C552.51 654.54 551.06 655.98 551.06 657.76V699.05C551.06 700.26 551.729 701.35 552.799 701.91L552.9 701.96Z" fill="#000072"/>
<path d="M574.25 657.76V699.05C574.25 700.92 572.73 702.43 570.87 702.43H565.36C567.23 702.43 568.74 700.91 568.74 699.05V657.76C568.74 655.89 567.22 654.38 565.36 654.38H570.87C572.74 654.37 574.25 655.89 574.25 657.76Z" fill="#E89F02"/>
<path d="M570.87 702.61H565.36V702.27C567.13 702.27 568.58 700.83 568.58 699.05V657.76C568.58 655.99 567.14 654.54 565.36 654.54V654.2H570.87C572.83 654.2 574.42 655.79 574.42 657.75V699.04C574.42 701.01 572.83 702.61 570.87 702.61ZM566.87 702.27H570.86C572.63 702.27 574.08 700.83 574.08 699.05V657.76C574.08 655.99 572.64 654.54 570.86 654.54H566.87C568.08 655.11 568.91 656.34 568.91 657.76V699.05C568.91 700.47 568.08 701.7 566.87 702.27Z" fill="#E89F02"/>
<g opacity="0.55">
<path d="M555.29 702.06C555.75 702.3 556.28 702.44 556.84 702.44H554.28C553.72 702.44 553.19 702.3 552.73 702.06C551.64 701.5 550.9 700.36 550.9 699.05V657.76C550.9 655.89 552.42 654.38 554.28 654.38H556.84C554.97 654.38 553.46 655.9 553.46 657.76V699.05C553.46 700.36 554.2 701.5 555.29 702.06Z" fill="white"/>
</g>
<g opacity="0.2">
<path d="M541.08 592.43L543.34 604.7H538.82V592.43H541.08Z" fill="black"/>
</g>
<g opacity="0.2">
<path d="M564.319 592.98C564.319 594.73 562.109 594.26 559.379 594.26C556.649 594.26 554.439 594.73 554.439 592.98C554.439 591.23 556.649 589.81 559.379 589.81C562.109 589.81 564.319 591.23 564.319 592.98Z" fill="white"/>
</g>
<g opacity="0.2">
<path d="M561.09 674.57C561.09 677.84 559.71 680.49 558.01 680.49C556.31 680.49 556.28 677.84 556.28 674.57C556.28 671.3 556.31 668.65 558.01 668.65C559.71 668.65 561.09 671.3 561.09 674.57Z" fill="white"/>
</g>
<path d="M538.82 589.67V606.93C538.82 608.27 537.73 609.36 536.4 609.36H527.03C525.69 609.36 524.6 608.27 524.6 606.93V589.67C524.6 588.33 525.69 587.25 527.03 587.25H536.4C537.74 587.24 538.82 588.33 538.82 589.67Z" stroke="#0D2232" stroke-width="4" stroke-miterlimit="10" stroke-linecap="round" stroke-linejoin="round"/>
<path d="M549.28 604.7H538.82V592.43H547.69L549.28 604.7Z" stroke="#0D2232" stroke-width="4" stroke-miterlimit="10" stroke-linecap="round" stroke-linejoin="round"/>
<path d="M598.429 602.89C598.279 604.64 596.219 605.51 594.889 604.36C587.419 597.94 576.379 601.56 574.129 610.72C573.749 612.25 572.409 613.33 570.839 613.33H553.369C551.669 613.33 550.229 612.07 550.019 610.38L549.289 604.7L547.709 592.43L547.179 588.29C546.919 586.27 548.499 584.47 550.539 584.47H579.189C590.779 584.48 599.209 593.43 598.429 602.89Z" stroke="#0D2232" stroke-width="4" stroke-miterlimit="10" stroke-linecap="round" stroke-linejoin="round"/>
<path d="M570.53 613.33H554.45V654.37H570.53V613.33Z" stroke="#0D2232" stroke-width="4" stroke-miterlimit="10" stroke-linecap="round" stroke-linejoin="round"/>
<path d="M574.25 657.76V699.05C574.25 700.92 572.73 702.43 570.87 702.43H554.28C553.72 702.43 553.19 702.29 552.73 702.05C551.64 701.49 550.9 700.35 550.9 699.04V657.75C550.9 655.88 552.42 654.37 554.28 654.37H570.87C572.74 654.37 574.25 655.89 574.25 657.76Z" stroke="#0D2232" stroke-width="4" stroke-miterlimit="10" stroke-linecap="round" stroke-linejoin="round"/>
<path d="M592.67 714.22C592.66 714.17 592.66 714.12 592.66 714.07L594.47 630.01C594.48 629.37 595.01 628.87 595.65 628.88L610.11 629.19C610.42 629.2 610.71 629.32 610.92 629.55C611.1 629.73 611.21 629.97 611.23 630.22C611.24 630.27 611.24 630.32 611.24 630.37L609.43 714.43C609.42 715.07 608.89 715.57 608.25 715.56L593.79 715.25C593.48 715.24 593.19 715.12 592.98 714.89C592.81 714.71 592.7 714.47 592.67 714.22Z" fill="#C14854"/>
<path d="M598.259 630.098L596.468 714.161L605.726 714.358L607.517 630.295L598.259 630.098Z" fill="#E8656D"/>
<path opacity="0.5" d="M597.144 626.416L595.269 715.238L596.409 715.262L598.283 626.44L597.144 626.416Z" fill="white"/>
<path d="M589.91 632.14C589.12 631.55 588.36 630.89 587.65 630.19C583.43 626.04 581.07 620.49 581.02 614.56C580.97 608.64 583.23 603.05 587.39 598.83C588.47 597.73 589.66 596.75 590.94 595.9C591.32 595.65 591.81 595.64 592.2 595.89C592.23 595.91 592.25 595.92 592.27 595.94C592.61 596.19 592.78 596.61 592.72 597.03L590.98 608.64L603.93 615.1L614.08 604.78L609.01 595.02C608.79 594.6 608.85 594.09 609.16 593.73C609.47 593.37 609.96 593.24 610.41 593.39C612.6 594.14 614.64 595.22 616.5 596.61C617.29 597.2 618.05 597.86 618.76 598.55C622.98 602.7 625.34 608.25 625.39 614.18C625.44 620.1 623.18 625.69 619.02 629.91C611.25 637.82 598.74 638.77 589.91 632.14Z" fill="#E8656D"/>
<path d="M610.03 594.5L610.83 596.04C612.07 596.82 613.24 597.74 614.33 598.81C622.61 606.95 622.72 620.26 614.58 628.54C610.08 633.12 603.99 635.19 598.05 634.76C605.05 636.52 612.77 634.64 618.19 629.12C626.33 620.84 626.22 607.53 617.94 599.39C615.62 597.12 612.91 595.49 610.03 594.5Z" fill="#C14854"/>
<path opacity="0.5" d="M588.09 625.72C596.04 635.88 606.61 632.41 606.61 632.41C606.61 632.41 598.75 630.59 592.92 624.31C586.83 617.76 584.54 610.8 584.54 610.8C584.54 610.8 582.34 618.36 588.09 625.72Z" fill="white"/>
<path opacity="0.5" d="M589.99 711.9C592.95 708 595.93 708.7 595.93 708.7C595.93 708.7 592.03 712.12 589.86 716.83C587.82 721.26 588.12 728.44 588.12 728.44C588.12 728.44 586.12 723.62 586.4 721.18C586.86 717.2 587.99 714.53 589.99 711.9Z" fill="white"/>
<path d="M592.83 706.08L594.37 634.72" stroke="#0D2232" stroke-width="4" stroke-miterlimit="10" stroke-linecap="round" stroke-linejoin="round"/>
<path d="M611.14 635.11L609.61 706.48" stroke="#0D2232" stroke-width="4" stroke-miterlimit="10" stroke-linecap="round" stroke-linejoin="round"/>
<path d="M589.91 632.14C589.12 631.55 588.36 630.89 587.65 630.19C583.43 626.04 581.07 620.49 581.02 614.56C580.97 608.64 583.23 603.05 587.39 598.83C588.47 597.73 589.66 596.75 590.94 595.9C591.32 595.65 591.81 595.64 592.2 595.89C592.23 595.91 592.25 595.92 592.27 595.94C592.61 596.19 592.78 596.61 592.72 597.03L590.98 608.64L603.93 615.1L614.08 604.78L609.01 595.02C608.79 594.6 608.85 594.09 609.16 593.73C609.47 593.37 609.96 593.24 610.41 593.39C612.6 594.14 614.64 595.22 616.5 596.61C617.29 597.2 618.05 597.86 618.76 598.55C622.98 602.7 625.34 608.25 625.39 614.18C625.44 620.1 623.18 625.69 619.02 629.91C611.25 637.82 598.74 638.77 589.91 632.14Z" stroke="#0D2232" stroke-width="4" stroke-miterlimit="10" stroke-linecap="round" stroke-linejoin="round"/>
<path d="M527.26 658.93V717.09C527.26 717.09 538.83 734.45 561.33 734.45C583.83 734.45 599.9 734.45 599.9 734.45L606.65 725.77C606.65 725.77 612.11 684.95 612.76 669.2C612.76 669.2 551.05 670.85 527.26 658.93Z" fill="#FEC400"/>
<path d="M532.52 661.15V704.81C532.52 712.24 536.72 719.05 543.39 722.31C554.36 727.68 574.37 732.8 606.65 725.78L599.9 734.46L557.95 734.7C557.95 734.7 536.25 731.89 527.25 717.1V658.94L532.52 661.15Z" fill="#E89F02"/>
<path d="M527.26 658.93V712.14C527.26 715.76 528.72 719.22 531.28 721.78C536.43 726.92 546.51 734.45 561.33 734.45H592.83C597.29 734.45 601.5 732.39 604.24 728.87C605.82 726.84 606.83 724.42 607.16 721.87C608.53 711.28 612.23 681.99 612.75 669.2C612.76 669.2 551.05 670.85 527.26 658.93Z" stroke="#0D2232" stroke-width="4" stroke-miterlimit="10" stroke-linecap="round" stroke-linejoin="round"/>
<path d="M527.26 674.02C527.26 674.02 546.96 690.92 611.24 684.49" stroke="#0D2232" stroke-width="4" stroke-miterlimit="10" stroke-linecap="round" stroke-linejoin="round"/>
<path d="M427.77 329.8L409.26 323.48L387.9 334.44" stroke="#0D2232" stroke-width="12" stroke-miterlimit="10" stroke-linecap="round" stroke-linejoin="round"/>
<path d="M493.85 324.64L512.36 318.32L533.72 329.29" stroke="#0D2232" stroke-width="12" stroke-miterlimit="10" stroke-linecap="round" stroke-linejoin="round"/>
<path d="M420.5 401.56C420.5 401.56 468.26 423.39 498 405.73" stroke="#0D2232" stroke-width="12" stroke-miterlimit="10" stroke-linecap="round" stroke-linejoin="round"/>
<path d="M389.69 658.93V718.37C389.69 718.37 365.26 737.01 327.98 734.44C327.98 734.44 312.55 710.01 308.05 669.19C308.05 669.2 372.33 672.78 389.69 658.93Z" stroke="white" stroke-miterlimit="10"/>
<path d="M310.6 685.78C310.6 685.78 363.98 686.24 389.69 674.02" stroke="white" stroke-miterlimit="10"/>
<path d="M323.43 725.81C323.43 725.81 355.61 726.73 374.26 716.45L370.14 666.27L389.69 658.93V718.37C389.69 718.37 367.83 735.73 327.98 734.44L323.43 725.81Z" stroke="white" stroke-miterlimit="10"/>
<path d="M389.86 674.02C389.86 674.02 368.62 690.73 304.26 684.31" stroke="white" stroke-miterlimit="10"/>
<path d="M407.88 634.16V722.88L396.3 734.45H317.13L327.75 726.09L327.11 634.16H407.88Z" fill="#F9DC1B"/>
<path d="M398.23 634.16V717.32L391.47 726.09H310.37L317.13 734.45H396.3L407.88 722.88V634.16H398.23Z" fill="#E89F02"/>
<path d="M395.653 651.667H400.803V646.527H395.653V651.667Z" fill="white"/>
<path d="M395.653 668.082H400.803V662.942H395.653V668.082Z" fill="white"/>
<path d="M395.653 684.488H400.803V679.348H395.653V684.488Z" fill="white"/>
<path d="M395.653 700.903H400.803V695.763H395.653V700.903Z" fill="white"/>
<path d="M395.653 717.319H400.803V712.179H395.653V717.319Z" fill="white"/>
<path d="M327.11 669.2V634.16H407.88V722.88L396.3 734.45L318.2 733.61" stroke="#0D2232" stroke-width="4" stroke-miterlimit="10" stroke-linecap="round" stroke-linejoin="round"/>
<path d="M333.03 604.1L337.7 621.71L334.97 624.62C331.7 619.72 325.66 616.99 319.6 618.22C319.31 618.28 319.02 618.35 318.73 618.42C319.98 617.38 320.89 616.2 321.47 614.98C324.01 609.67 320.67 603.31 314.4 602.17L310.62 587.93C320.11 589.24 326.97 594.3 332.02 601.93C332.49 602.6 332.83 603.33 333.03 604.1Z" fill="#AFCADC"/>
<path d="M334.95 624.93L334.82 624.73C331.52 619.78 325.43 617.24 319.65 618.41C319.38 618.46 319.1 618.53 318.8 618.61L317.96 618.83L318.63 618.27C319.82 617.28 320.73 616.15 321.32 614.89C322.48 612.47 322.43 609.7 321.2 607.29C319.87 604.7 317.39 602.9 314.39 602.35L314.27 602.33L310.39 587.69L310.68 587.73C319.71 588.98 326.76 593.58 332.22 601.81C332.68 602.5 333.02 603.25 333.23 604.04L337.93 621.75L334.95 624.93ZM319.45 618.05C319.49 618.04 319.53 618.03 319.58 618.02C325.43 616.83 331.59 619.35 335.01 624.3L337.5 621.64L332.85 604.14C332.65 603.39 332.33 602.68 331.89 602.02C326.55 593.98 319.69 589.43 310.91 588.15L314.58 601.99C317.64 602.58 320.18 604.44 321.54 607.11C322.83 609.63 322.87 612.52 321.66 615.05C321.14 616.15 320.4 617.16 319.45 618.05Z" fill="#000072"/>
<g opacity="0.55">
<path d="M321.46 617.97C320.85 618.01 320.23 618.1 319.61 618.22C319.32 618.28 319.03 618.35 318.74 618.42C319.99 617.38 320.9 616.2 321.48 614.98C324.02 609.67 320.68 603.31 314.41 602.17L310.63 587.93C311.65 588.07 312.63 588.25 313.58 588.48L317.1 601.73C323.37 602.87 326.71 609.22 324.17 614.54C323.6 615.76 322.7 616.93 321.46 617.97Z" fill="white"/>
</g>
<g opacity="0.55">
<path d="M321.52 617.96L321.43 617.98C321.44 617.97 321.44 617.97 321.45 617.96C321.48 617.96 321.5 617.96 321.52 617.96Z" fill="white"/>
<path d="M321.57 618.15L320.66 618.39L321.4 617.78C321.44 617.77 321.47 617.77 321.49 617.77L323.12 617.73L321.57 618.15Z" fill="#371A45"/>
</g>
<path d="M340.72 633.08L343 641.69C343.14 642.22 342.85 642.78 342.35 642.97C342.31 642.98 342.28 642.99 342.24 643L326.66 647.14C325.08 647.56 323.48 647.71 321.91 647.62C316.89 647.32 312.2 644.55 309.66 640.22C309.01 639.12 308.5 637.93 308.16 636.64C307.73 635.03 307.59 633.42 307.69 631.85C308.09 625.64 312.38 620.11 318.73 618.43H318.74C319.03 618.35 319.31 618.29 319.61 618.23C325.67 617 331.71 619.73 334.98 624.63C335.94 626.07 336.65 627.69 337.07 629.45C337.34 630.59 337.46 631.73 337.46 632.85L339.42 632.33C339.78 632.23 340.15 632.34 340.41 632.57C340.55 632.69 340.67 632.87 340.72 633.08Z" fill="#AFCADC"/>
<path d="M342.3 643.19L326.72 647.33C325.15 647.75 323.53 647.91 321.91 647.81C316.79 647.51 312.04 644.64 309.5 640.32C308.83 639.19 308.32 637.97 307.98 636.7C307.56 635.1 307.4 633.47 307.5 631.84C307.92 625.37 312.41 619.91 318.68 618.24C319.01 618.15 319.29 618.09 319.57 618.03C325.49 616.83 331.75 619.43 335.13 624.51C336.12 626 336.83 627.64 337.24 629.39C337.49 630.44 337.62 631.52 337.63 632.59L339.35 632.13C339.76 632.02 340.2 632.12 340.51 632.41C340.7 632.57 340.83 632.79 340.89 633.03L343.17 641.64C343.34 642.27 343 642.92 342.4 643.15C342.38 643.16 342.34 643.17 342.3 643.19ZM318.8 618.6C312.68 620.23 308.3 625.55 307.89 631.85C307.78 633.44 307.94 635.03 308.35 636.58C308.68 637.82 309.18 639.01 309.83 640.11C312.3 644.32 316.94 647.12 321.93 647.41C323.51 647.5 325.09 647.35 326.62 646.94L342.2 642.8C342.23 642.79 342.26 642.78 342.29 642.77C342.71 642.61 342.94 642.16 342.83 641.72L340.55 633.11C340.51 632.94 340.41 632.79 340.28 632.68C340.06 632.48 339.76 632.41 339.47 632.48L337.27 633.06V632.81C337.27 631.69 337.14 630.56 336.88 629.45C336.48 627.74 335.79 626.14 334.82 624.69C331.52 619.74 325.43 617.2 319.65 618.37C319.38 618.46 319.1 618.52 318.8 618.6Z" fill="#000072"/>
<g opacity="0.3">
<path d="M333.03 604.1L337.7 621.71L334.97 624.62C334.79 624.35 334.6 624.08 334.4 623.82C331.03 619.42 325.33 617.05 319.6 618.22C319.31 618.28 319.02 618.35 318.73 618.42C319.98 617.38 320.89 616.2 321.47 614.98C321.55 614.95 321.64 614.93 321.72 614.91H321.74C322.02 614.84 322.31 614.77 322.61 614.71C325.25 614.17 327.88 614.39 330.28 615.21C331.74 615.71 333.16 614.41 332.77 612.92L330.71 605.17C330.51 604.4 330.17 603.67 329.73 603C325.17 596.12 319.14 591.33 311.05 589.5L310.64 587.95C320.13 589.26 326.99 594.32 332.04 601.95C332.49 602.6 332.83 603.33 333.03 604.1Z" fill="black"/>
<path d="M334.95 624.93L334.82 624.73C334.64 624.45 334.45 624.19 334.26 623.95C330.84 619.48 325.11 617.31 319.65 618.42C319.38 618.47 319.1 618.54 318.8 618.62L317.96 618.84L318.63 618.28C319.82 617.29 320.73 616.16 321.32 614.9L321.36 614.82L321.44 614.79C321.84 614.66 322.25 614.58 322.59 614.51C325.17 613.99 327.85 614.16 330.36 615.01C330.98 615.22 331.64 615.08 332.12 614.64C332.59 614.2 332.77 613.58 332.6 612.96L330.54 605.21C330.34 604.47 330.02 603.76 329.58 603.09C324.74 595.79 318.67 591.4 311.01 589.67L310.9 589.64L310.38 587.7L310.67 587.74C319.7 588.99 326.75 593.59 332.21 601.82C332.67 602.51 333.01 603.26 333.22 604.05L337.92 621.76L334.95 624.93ZM319.45 618.05C319.49 618.04 319.53 618.03 319.58 618.02C325.18 616.88 331.06 619.11 334.57 623.7C334.72 623.89 334.87 624.09 335.01 624.31L337.5 621.65L332.85 604.15C332.65 603.4 332.33 602.69 331.89 602.03C326.55 593.99 319.69 589.44 310.91 588.16L311.22 589.32C318.92 591.09 325.03 595.53 329.91 602.88C330.37 603.58 330.71 604.33 330.92 605.11L332.98 612.86C333.18 613.62 332.96 614.39 332.39 614.92C331.81 615.46 331.01 615.63 330.24 615.38C327.8 614.55 325.18 614.38 322.67 614.89C322.4 614.94 322.09 615.01 321.81 615.09C321.75 615.11 321.69 615.12 321.64 615.14C321.11 616.2 320.38 617.18 319.45 618.05Z" fill="#371A45"/>
</g>
<g opacity="0.55">
<path d="M329.62 619.74C327.2 618.9 324.53 618.67 321.86 619.21C321.57 619.27 321.28 619.34 320.99 619.41H320.98C314.64 621.09 310.35 626.63 309.94 632.83C309.84 634.4 309.98 636.02 310.41 637.62C310.75 638.9 311.26 640.1 311.91 641.2C313.31 643.58 315.35 645.49 317.75 646.77C314.4 645.6 311.48 643.3 309.66 640.2C309.01 639.1 308.5 637.91 308.16 636.62C307.73 635.01 307.59 633.4 307.69 631.83C308.09 625.62 312.38 620.09 318.73 618.41H318.74C319.03 618.33 319.31 618.27 319.61 618.21C323.14 617.5 326.65 618.13 329.62 619.74Z" fill="white"/>
</g>
<path d="M322.56 640.7C326.912 640.7 330.44 637.172 330.44 632.82C330.44 628.468 326.912 624.94 322.56 624.94C318.208 624.94 314.68 628.468 314.68 632.82C314.68 637.172 318.208 640.7 322.56 640.7Z" fill="#CECEDD"/>
<g opacity="0.55">
<path d="M332.64 632.23C333.76 636.44 331.25 640.75 327.05 641.87C324.45 642.56 321.81 641.87 319.9 640.24C321.35 640.76 322.97 640.86 324.58 640.44C328.79 639.32 331.29 635.01 330.17 630.8C329.74 629.2 328.85 627.84 327.68 626.84C330.04 627.68 331.95 629.63 332.64 632.23Z" fill="white"/>
</g>
<g opacity="0.3">
<path d="M327.36 626.57C326.07 626.21 324.67 626.19 323.28 626.56C319.07 627.68 316.57 631.99 317.69 636.2C318.15 637.95 319.17 639.4 320.51 640.42C317.88 639.71 315.7 637.66 314.95 634.84C313.83 630.63 316.34 626.32 320.54 625.2C323 624.55 325.49 625.13 327.36 626.57Z" fill="black"/>
<path d="M321.39 640.86L320.45 640.61C317.67 639.86 315.49 637.67 314.75 634.89C313.61 630.59 316.18 626.16 320.48 625.02C322.92 624.37 325.47 624.88 327.47 626.42L328.25 627.02L327.3 626.76C326.01 626.4 324.64 626.4 323.32 626.75C319.22 627.84 316.77 632.06 317.86 636.15C318.3 637.8 319.25 639.23 320.61 640.27L321.39 640.86ZM320.59 625.39C316.49 626.48 314.04 630.7 315.13 634.79C315.75 637.12 317.44 639.02 319.64 639.93C318.61 638.92 317.88 637.67 317.5 636.25C316.36 631.95 318.93 627.52 323.23 626.38C324.28 626.1 325.38 626.04 326.44 626.19C324.68 625.15 322.6 624.85 320.59 625.39Z" fill="#371A45"/>
</g>
<path d="M326.38 647.21L329.99 660.81C330.47 662.61 331.52 664.22 332.98 665.38L347.74 677.12C350.17 679.05 351.91 681.71 352.7 684.7L360.07 712.48C360.54 714.26 362.59 715.07 364.17 714.11C367.83 711.88 370.67 709.3 372.21 706.16C373.45 703.63 373.65 700.71 372.92 697.98L367.33 676.94C366.77 674.83 365.65 672.92 364.09 671.39L354.33 661.85C352.42 659.98 351.29 657.44 351.26 654.77C351.23 651.75 351.82 648.39 352.77 644.83C353.36 642.61 351.34 640.58 349.12 641.17L326.38 647.21Z" fill="#F9DC1B"/>
<path d="M367.34 676.93L372.93 697.98C373.65 700.71 373.46 703.63 372.22 706.16C370.68 709.3 367.83 711.88 364.17 714.11C363.09 714.77 361.79 714.59 360.93 713.85C364.01 711.8 366.41 709.45 367.78 706.66C369.02 704.13 369.22 701.21 368.49 698.48L362.9 677.43C362.34 675.32 361.22 673.41 359.66 671.88L349.9 662.34C347.99 660.47 346.87 657.93 346.84 655.26C346.81 652.24 347.4 648.88 348.35 645.32C348.75 643.81 347.94 642.38 346.68 641.82L349.15 641.17C351.37 640.58 353.39 642.61 352.8 644.83C351.85 648.39 351.26 651.75 351.29 654.77C351.32 657.44 352.45 659.98 354.35 661.85L364.11 671.39C365.66 672.91 366.78 674.83 367.34 676.93Z" fill="#E89F02"/>
<g opacity="0.55">
<path d="M363.29 713.61C363.36 713.88 363.47 714.14 363.61 714.36C362.14 714.86 360.49 714.05 360.07 712.47L352.7 684.69C351.91 681.7 350.17 679.04 347.74 677.11L332.98 665.37C331.52 664.21 330.47 662.61 329.99 660.8L326.38 647.2L349.15 641.16C350.44 640.82 351.65 641.36 352.34 642.3L329.6 648.33L333.21 661.93C333.69 663.74 334.74 665.34 336.2 666.5L350.96 678.24C353.38 680.17 355.12 682.83 355.92 685.82L363.29 713.61Z" fill="white"/>
</g>
<path d="M326.38 647.21L329.99 660.81C330.47 662.61 330.35 664.52 329.66 666.26L322.66 683.77C321.51 686.65 321.32 689.82 322.11 692.82L329.48 720.6C329.95 722.38 328.57 724.1 326.73 724.04C322.45 723.92 318.7 723.09 315.8 721.13C313.46 719.55 311.85 717.11 311.12 714.38L305.53 693.34C304.97 691.23 304.99 689.02 305.59 686.92L309.33 673.8C310.06 671.23 309.78 668.47 308.48 666.13C307.01 663.49 304.83 660.86 302.24 658.24C300.63 656.61 301.38 653.85 303.59 653.26L326.38 647.21Z" fill="#F9DC1B"/>
<path d="M326.38 647.21L329.99 660.81C330.47 662.62 330.35 664.53 329.66 666.26L322.66 683.77C321.51 686.65 321.32 689.82 322.11 692.82L329.48 720.6C329.95 722.38 328.57 724.1 326.73 724.05C325.94 724.03 325.16 723.98 324.4 723.9C324.73 723.31 324.84 722.6 324.65 721.88L317.28 694.1C316.49 691.11 316.68 687.93 317.83 685.05L324.83 667.54C325.52 665.81 325.64 663.9 325.16 662.09L321.55 648.49L326.38 647.21Z" fill="#E89F02"/>
<g opacity="0.55">
<path d="M306.23 659.17C308.82 661.79 311 664.42 312.47 667.06C313.77 669.39 314.05 672.16 313.32 674.73L309.58 687.85C308.98 689.95 308.96 692.17 309.52 694.27L315.11 715.32C315.83 718.05 317.45 720.49 319.78 722.07C320.81 722.77 321.95 723.32 323.18 723.75C320.37 723.35 317.88 722.53 315.82 721.13C313.49 719.55 311.87 717.11 311.15 714.38L305.56 693.33C305 691.22 305.02 689 305.62 686.91L309.36 673.79C310.09 671.22 309.81 668.46 308.51 666.13C307.04 663.49 304.86 660.86 302.27 658.24C300.66 656.61 301.41 653.84 303.62 653.26L326.38 647.21L326.87 649.07L307.57 654.2C305.36 654.78 304.61 657.54 306.23 659.17Z" fill="white"/>
</g>
<path d="M321.91 647.61L322.1 648.34L309.22 651.76L306.86 642.88C306.6 641.89 307.19 640.87 308.18 640.61L309.65 640.22C312.2 644.54 316.89 647.32 321.91 647.61Z" fill="#AFCADC"/>
<path d="M322.34 648.48L309.09 652L306.68 642.93C306.39 641.84 307.04 640.71 308.14 640.42L309.75 639.99L309.82 640.12C312.29 644.33 316.93 647.13 321.92 647.42L322.06 647.43L322.34 648.48ZM309.36 651.53L321.87 648.21L321.76 647.8C316.75 647.46 312.1 644.65 309.57 640.44L308.24 640.79C307.35 641.03 306.82 641.94 307.06 642.83L309.36 651.53Z" fill="#000072"/>
<g opacity="0.55">
<path d="M309.79 640.18C309.99 640.53 310.22 640.87 310.45 641.2L310.32 641.24C309.33 641.5 308.74 642.52 309 643.51L311.06 651.28L309.35 651.73L306.99 642.85C306.73 641.86 307.32 640.84 308.31 640.58L309.79 640.18Z" fill="white"/>
</g>
<path d="M318.73 618.42C312.39 620.1 308.1 625.64 307.69 631.84L303.89 630.67L299.22 613.06C299.01 612.29 298.94 611.49 299 610.69C299.61 601.56 303.05 593.76 310.64 587.92L314.42 602.16C308.41 607.21 310.19 616.94 318.73 618.42Z" fill="#AFCADC"/>
<path d="M307.87 632.1L303.74 630.83L299.04 613.12C298.83 612.33 298.75 611.51 298.81 610.68C299.47 600.83 303.3 593.33 310.53 587.77L310.76 587.59L314.64 602.23L314.55 602.31C311.66 604.73 310.45 608.39 311.38 611.85C312.28 615.19 315.04 617.57 318.77 618.22L319.63 618.37L318.78 618.59C312.67 620.21 308.29 625.54 307.89 631.84L307.87 632.1ZM304.06 630.53L307.52 631.6C308.01 625.49 312.14 620.32 317.94 618.46C314.45 617.61 311.88 615.22 311.01 611.97C310.05 608.4 311.28 604.63 314.21 602.11L310.54 588.27C303.55 593.74 299.84 601.09 299.2 610.72C299.15 611.51 299.22 612.29 299.42 613.03L304.06 630.53Z" fill="#000072"/>
<g opacity="0.3">
<path d="M316.06 619.41C316.11 619.39 316.16 619.36 316.21 619.34C316.23 619.34 316.25 619.35 316.27 619.35C316.2 619.37 316.13 619.39 316.06 619.41Z" fill="#262F6A"/>
<path d="M316.12 619.6L315.97 619.25C316.02 619.22 316.08 619.2 316.13 619.17L316.18 619.15L316.28 619.16L317.08 619.32L316.32 619.53C316.25 619.56 316.19 619.58 316.12 619.6Z" fill="#371A45"/>
</g>
<g opacity="0.3">
<path d="M316.61 617.84C317.2 618.07 317.21 618.9 316.62 619.16C316.48 619.22 316.34 619.28 316.21 619.35C307.72 617.83 305.34 608.03 311.33 603L307.95 590.26C308.78 589.45 309.68 588.68 310.65 587.94L314.43 602.18C308.95 606.76 309.94 615.24 316.61 617.84Z" fill="#262F6A"/>
<path d="M316.24 619.54L316.18 619.53C312.13 618.8 309.12 616.15 308.13 612.43C307.2 608.94 308.34 605.3 311.12 602.92L307.74 590.19L307.82 590.11C308.66 589.3 309.57 588.51 310.53 587.77L310.76 587.59L314.64 602.23L314.55 602.31C311.92 604.52 310.66 607.77 311.2 611.01C311.7 614.07 313.7 616.5 316.69 617.66C317.03 617.8 317.25 618.11 317.26 618.48C317.27 618.86 317.06 619.18 316.71 619.33C316.57 619.39 316.44 619.45 316.3 619.52L316.24 619.54ZM308.16 590.31L311.54 603.06L311.45 603.14C308.72 605.43 307.59 608.95 308.49 612.34C309.44 615.89 312.31 618.43 316.17 619.15C316.29 619.09 316.41 619.04 316.54 618.98C316.78 618.88 316.86 618.66 316.86 618.49C316.86 618.28 316.74 618.1 316.54 618.02C313.43 616.81 311.34 614.28 310.81 611.08C310.26 607.75 311.53 604.4 314.2 602.11L310.53 588.27C309.7 588.91 308.9 589.6 308.16 590.31Z" fill="#371A45"/>
</g>
<g opacity="0.55">
<path d="M310.65 587.93L311.19 589.98C305.12 595.58 302.29 602.7 301.74 610.9C301.69 611.7 301.76 612.5 301.96 613.27L306.63 630.88L307.74 631.22C307.72 631.43 307.7 631.64 307.69 631.85L303.89 630.68L299.22 613.07C299.01 612.3 298.94 611.5 299 610.7C299.61 601.57 303.06 593.77 310.65 587.93Z" fill="white"/>
</g>
<g opacity="0.2">
<path d="M340.72 633.08L343 641.69C343.14 642.22 342.85 642.78 342.35 642.97L329.44 646.4C335.69 643.37 338.74 639.06 337.97 633.2L340.4 632.56C340.55 632.69 340.67 632.87 340.72 633.08Z" fill="black"/>
</g>
<path d="M321.91 647.61L322.1 648.34L309.22 651.76L306.86 642.88C306.6 641.89 307.19 640.87 308.18 640.61L309.65 640.22C312.2 644.54 316.89 647.32 321.91 647.61Z" stroke="#0D2232" stroke-width="4" stroke-miterlimit="10" stroke-linecap="round" stroke-linejoin="round"/>
<path d="M326.38 647.21L329.99 660.81C330.47 662.61 331.52 664.22 332.98 665.38L347.74 677.12C350.17 679.05 351.91 681.71 352.7 684.7L360.07 712.48C360.54 714.26 362.59 715.07 364.17 714.11C367.83 711.88 370.67 709.3 372.21 706.16C373.45 703.63 373.65 700.71 372.92 697.98L367.33 676.94C366.77 674.83 365.65 672.92 364.09 671.39L354.33 661.85C352.42 659.98 351.29 657.44 351.26 654.77C351.23 651.75 351.82 648.39 352.77 644.83C353.36 642.61 351.34 640.58 349.12 641.17L326.38 647.21Z" stroke="#0D2232" stroke-width="4" stroke-miterlimit="10" stroke-linecap="round" stroke-linejoin="round"/>
<path d="M326.38 647.21L329.99 660.81C330.47 662.61 330.35 664.52 329.66 666.26L322.66 683.77C321.51 686.65 321.32 689.82 322.11 692.82L329.48 720.6C329.95 722.38 328.57 724.1 326.73 724.04C322.45 723.92 318.7 723.09 315.8 721.13C313.46 719.55 311.85 717.11 311.12 714.38L305.53 693.34C304.97 691.23 304.99 689.02 305.59 686.92L309.33 673.8C310.06 671.23 309.78 668.47 308.48 666.13C307.01 663.49 304.83 660.86 302.24 658.24C300.63 656.61 301.38 653.85 303.59 653.26L326.38 647.21Z" stroke="#0D2232" stroke-width="4" stroke-miterlimit="10" stroke-linecap="round" stroke-linejoin="round"/>
<path d="M333.03 604.1L337.7 621.71L334.97 624.62C331.7 619.72 325.66 616.99 319.6 618.22C319.31 618.28 319.02 618.35 318.73 618.42C319.98 617.38 320.89 616.2 321.47 614.98C324.01 609.67 320.67 603.31 314.4 602.17L310.62 587.93C320.11 589.24 326.97 594.3 332.02 601.93C332.49 602.6 332.83 603.33 333.03 604.1Z" stroke="#0D2232" stroke-width="4" stroke-miterlimit="10" stroke-linecap="round" stroke-linejoin="round"/>
<path d="M340.72 633.08L343 641.69C343.14 642.22 342.85 642.78 342.35 642.97C342.31 642.98 342.28 642.99 342.24 643L326.66 647.14C325.08 647.56 323.48 647.71 321.91 647.62C316.89 647.32 312.2 644.55 309.66 640.22C309.01 639.12 308.5 637.93 308.16 636.64C307.73 635.03 307.59 633.42 307.69 631.85C308.09 625.64 312.38 620.11 318.73 618.43H318.74C319.03 618.35 319.31 618.29 319.61 618.23C325.67 617 331.71 619.73 334.98 624.63C335.94 626.07 336.65 627.69 337.07 629.45C337.34 630.59 337.46 631.73 337.46 632.85L339.42 632.33C339.78 632.23 340.15 632.34 340.41 632.57C340.55 632.69 340.67 632.87 340.72 633.08Z" stroke="#0D2232" stroke-width="4" stroke-miterlimit="10" stroke-linecap="round" stroke-linejoin="round"/>
<path d="M318.73 618.42C312.39 620.1 308.1 625.64 307.69 631.84L303.89 630.67L299.22 613.06C299.01 612.29 298.94 611.49 299 610.69C299.61 601.56 303.05 593.76 310.64 587.92L314.42 602.16C308.41 607.21 310.19 616.94 318.73 618.42Z" stroke="#0D2232" stroke-width="4" stroke-miterlimit="10" stroke-linecap="round" stroke-linejoin="round"/>
<path d="M322.56 640.7C326.912 640.7 330.44 637.172 330.44 632.82C330.44 628.468 326.912 624.94 322.56 624.94C318.208 624.94 314.68 628.468 314.68 632.82C314.68 637.172 318.208 640.7 322.56 640.7Z" stroke="#0D2232" stroke-width="4" stroke-miterlimit="10" stroke-linecap="round" stroke-linejoin="round"/>
<path d="M374.87 664.67H354.32C352.13 664.67 350.35 662.89 350.35 660.7V659.57C350.35 657.38 352.13 655.6 354.32 655.6H374.87C377.06 655.6 378.84 657.38 378.84 659.57V660.7C378.84 662.9 377.07 664.67 374.87 664.67Z" fill="#F9DC1B"/>
<path d="M373.21 664.67H356.07V671.75H373.21V664.67Z" fill="#F9DC1B"/>
<path d="M366.37 716.23H362.82C355.93 716.23 350.35 710.65 350.35 703.76V675.9C350.35 673.61 352.2 671.76 354.49 671.76H374.7C376.99 671.76 378.84 673.61 378.84 675.9V703.76C378.84 710.64 373.26 716.23 366.37 716.23Z" fill="#F9DC1B"/>
<path d="M378.84 658.65V661.63C378.84 663.31 377.48 664.67 375.8 664.67H370.8C372.48 664.67 373.84 663.31 373.84 661.63V658.65C373.84 656.97 372.48 655.61 370.8 655.61H375.8C377.48 655.61 378.84 656.97 378.84 658.65Z" fill="#E89F02"/>
<path d="M373.22 664.68H368.22V671.76H373.22V664.68Z" fill="#E89F02"/>
<path d="M378.84 674.78V702.4C378.84 710.04 372.65 716.23 365.01 716.23H364.74C369.77 716.23 373.85 712.15 373.85 707.12V674.78C373.85 673.11 372.5 671.76 370.83 671.76H375.83C377.49 671.75 378.84 673.11 378.84 674.78Z" fill="#E89F02"/>
<g opacity="0.55">
<path d="M356.93 664.68H353.4C351.72 664.68 350.36 663.32 350.36 661.64V658.66C350.36 656.98 351.72 655.62 353.4 655.62H356.93C355.25 655.62 353.89 656.98 353.89 658.66V661.64C353.89 663.31 355.25 664.68 356.93 664.68Z" fill="white"/>
</g>
<g opacity="0.55">
<path d="M359.6 664.68H356.07V671.76H359.6V664.68Z" fill="white"/>
</g>
<g opacity="0.55">
<path d="M363 716.23H359.47C354.44 716.23 350.36 712.15 350.36 707.12V674.78C350.36 673.11 351.71 671.76 353.38 671.76H356.91C355.24 671.76 353.89 673.11 353.89 674.78V707.12C353.89 712.15 357.97 716.23 363 716.23Z" fill="white"/>
</g>
<path d="M374.54 616.9L372.22 624.08H369.24V655.61H360.29V624.08H357.31L354.99 616.9L358.64 596.36H370.89L374.54 616.9Z" fill="#AFCADC"/>
<path d="M369.4 655.77H360.12V624.24H357.18L354.81 616.91L354.82 616.87L358.49 596.19H371.02L374.7 616.91L372.33 624.24H369.39V655.77H369.4ZM360.46 655.44H369.07V623.91H372.1L374.37 616.89L370.76 596.53H358.78L355.17 616.89L357.44 623.91H360.47V655.44H360.46Z" fill="#000072"/>
<g opacity="0.2">
<path d="M368.42 624.08H369.24V655.61H366.48V626.02C366.48 624.95 367.35 624.08 368.42 624.08Z" fill="black"/>
</g>
<g opacity="0.2">
<path d="M374.54 616.9L372.22 624.08H369.46L371.78 616.9L368.13 596.36H370.89L374.54 616.9Z" fill="black"/>
</g>
<g opacity="0.55">
<path d="M357.85 616.9L360.17 624.08H357.64L355.32 616.9L358.97 596.36H361.5L357.85 616.9Z" fill="white"/>
</g>
<g opacity="0.55">
<path d="M363.15 625.73V655.61H360.62V624.08H361.5C362.41 624.08 363.15 624.82 363.15 625.73Z" fill="white"/>
</g>
<g opacity="0.2">
<path d="M364.25 690.77C364.25 694.43 362.71 697.4 360.8 697.4C358.9 697.4 358.87 694.43 358.87 690.77C358.87 687.11 358.9 684.14 360.8 684.14C362.7 684.15 364.25 687.12 364.25 690.77Z" fill="white"/>
</g>
<path d="M374.87 664.67H354.32C352.13 664.67 350.35 662.89 350.35 660.7V659.57C350.35 657.38 352.13 655.6 354.32 655.6H374.87C377.06 655.6 378.84 657.38 378.84 659.57V660.7C378.84 662.9 377.07 664.67 374.87 664.67Z" stroke="#0D2232" stroke-width="4" stroke-miterlimit="10" stroke-linecap="round" stroke-linejoin="round"/>
<path d="M373.21 664.67H356.07V671.75H373.21V664.67Z" stroke="#0D2232" stroke-width="4" stroke-miterlimit="10" stroke-linecap="round" stroke-linejoin="round"/>
<path d="M366.37 716.23H362.82C355.93 716.23 350.35 710.65 350.35 703.76V675.9C350.35 673.61 352.2 671.76 354.49 671.76H374.7C376.99 671.76 378.84 673.61 378.84 675.9V703.76C378.84 710.64 373.26 716.23 366.37 716.23Z" stroke="#0D2232" stroke-width="4" stroke-miterlimit="10" stroke-linecap="round" stroke-linejoin="round"/>
<path d="M374.54 616.9L372.22 624.08H369.24V655.61H360.29V624.08H357.31L354.99 616.9L358.64 596.36H370.89L374.54 616.9Z" stroke="#0D2232" stroke-width="4" stroke-miterlimit="10" stroke-linecap="round" stroke-linejoin="round"/>
<path d="M389.86 658.93V717.09C389.86 717.09 378.27 734.45 355.75 734.45C333.23 734.45 317.13 734.45 317.13 734.45L310.37 725.77C310.37 725.77 304.9 684.95 304.26 669.2C304.26 669.2 366.05 670.85 389.86 658.93Z" fill="#FEC400"/>
<path d="M384.589 661.15V704.81C384.589 712.24 380.389 719.05 373.709 722.31C362.719 727.68 342.689 732.8 310.379 725.78L317.139 734.46L359.139 734.7C359.139 734.7 380.859 731.89 389.869 717.1V658.94L384.589 661.15Z" fill="#E89F02"/>
<path d="M389.86 658.93V713.29C389.86 716 388.83 718.6 386.99 720.58C382.27 725.65 371.78 734.44 355.75 734.44H322.35C319.06 734.44 315.95 732.92 313.93 730.32L312.16 728.05C310.99 726.55 310.24 724.76 310 722.88C308.75 713.3 304.81 682.41 304.27 669.19C304.26 669.2 366.05 670.85 389.86 658.93Z" stroke="#0D2232" stroke-width="4" stroke-miterlimit="10" stroke-linecap="round" stroke-linejoin="round"/>
<path d="M389.859 674.02C389.859 674.02 370.139 690.92 305.779 684.49" stroke="#0D2232" stroke-width="4" stroke-miterlimit="10" stroke-linecap="round" stroke-linejoin="round"/>
</svg>
