<svg width="586" height="719" viewBox="0 0 586 719" fill="none" xmlns="http://www.w3.org/2000/svg">
<g clip-path="url(#clip0_344_4738)">
<path d="M226.55 405.18L197.99 404.61L197.72 350.76L197.64 336.19L225.42 335.92L225.67 351.42L226.55 405.18Z" fill="#435F84"/>
<path opacity="0.21" d="M225.67 351.42L225.63 351.43L197.72 350.76L197.64 336.19L225.42 335.92L225.67 351.42Z" fill="white"/>
<path d="M271.48 339.68L271.76 399.93L226.23 400.38L225.63 351.43L225.5 341.21L271.48 339.68Z" fill="#F9DC1B"/>
<path opacity="0.5" d="M271.48 339.68L266.35 350.48L225.63 351.43L225.5 341.21L271.48 339.68Z" fill="white"/>
<path d="M225.98 380.45L280.22 382.12L271.76 399.92L226.23 400.38L225.98 380.45Z" fill="#E89F02"/>
<path d="M225.42 335.91L226.55 405.18L197.99 404.61L197.64 336.19L225.42 335.91Z" stroke="#0D2232" stroke-width="6" stroke-miterlimit="10" stroke-linecap="round" stroke-linejoin="round"/>
<path d="M271.48 339.68L225.5 341.22L226.23 400.38L271.76 399.92L271.48 339.68Z" stroke="#0D2232" stroke-width="6" stroke-miterlimit="10"/>
<path d="M257.618 653.609L331.048 653.609L331.048 632.109L257.618 632.109L257.618 653.609Z" fill="#435F84" stroke="#0D2232" stroke-width="6" stroke-miterlimit="10" stroke-linecap="round" stroke-linejoin="round"/>
<path d="M468.53 592.45V633.39L487.82 653.63L506.46 633.39L506.42 532.57H491.32L468.53 592.45Z" fill="#AFCADC"/>
<path d="M487.49 629.47C491.483 629.47 494.72 626.233 494.72 622.24C494.72 618.247 491.483 615.01 487.49 615.01C483.497 615.01 480.26 618.247 480.26 622.24C480.26 626.233 483.497 629.47 487.49 629.47Z" stroke="#0D2232" stroke-width="4" stroke-miterlimit="10" stroke-linecap="round" stroke-linejoin="round"/>
<path opacity="0.2" d="M506.46 533.66H499.82V629.47L487.88 641.4L475.45 628.97V539.92L468.53 540.38V633.39L488.3 653.15L507.26 634.19L506.46 533.66Z" fill="black"/>
<path d="M468.53 592.45V633.39L487.82 653.63L506.46 633.39V533.66H491.35L468.53 592.45Z" stroke="#0D2232" stroke-width="4" stroke-miterlimit="10" stroke-linecap="round" stroke-linejoin="round"/>
<path d="M488.4 142.08C488.4 142.08 482.42 147.43 456 149.63C429.57 151.83 243.61 157.42 243.61 157.42L232.16 151.83C232.16 151.83 205.85 150.38 202.12 142.08C198.39 133.78 292.19 100.87 292.19 100.87L410.7 97.25L437.76 108.02L488.4 142.08Z" fill="#CFB300"/>
<path d="M488.4 142.08C488.4 142.08 482.42 147.43 456 149.63C429.57 151.83 243.61 157.42 243.61 157.42L232.16 151.83C232.16 151.83 205.85 150.38 202.12 142.08C198.39 133.78 292.19 100.87 292.19 100.87L410.7 97.25L437.76 108.02L488.4 142.08Z" stroke="#0D2232" stroke-width="6" stroke-miterlimit="10" stroke-linecap="round" stroke-linejoin="round"/>
<path d="M233.2 190.85C233.2 190.85 203.01 194.47 206.78 229.39C210.56 264.31 254.04 257.02 254.04 257.02L250.3 206.89L233.2 190.85Z" fill="#FBC6A6" stroke="#0D2232" stroke-width="6" stroke-miterlimit="10"/>
<path d="M464.8 190.85C464.8 190.85 487.77 194.63 489.5 220.11C491.23 245.59 462.89 268.1 440.72 259.2C418.55 250.3 434.91 212.24 434.91 212.24L464.8 190.85Z" fill="#FBC6A6" stroke="#0D2232" stroke-width="6" stroke-miterlimit="10"/>
<path opacity="0.4" d="M462.76 205.95C462.76 205.95 474.69 212.27 469.6 226.01C462.48 245.26 447.97 239.92 447.97 239.92L452.37 216.01L462.76 205.95Z" fill="black"/>
<path opacity="0.4" d="M228.82 205.95C228.82 205.95 216.89 212.27 221.98 226.01C229.1 245.26 243.61 239.92 243.61 239.92L239.21 216.01L228.82 205.95Z" fill="black"/>
<path d="M451.18 194.62V223.29C451.18 223.29 450.92 228.26 449.1 235.95C445.02 253.19 433.11 284.11 398.74 303.47C393.85 306.22 388.93 308.51 384 310.37C369.68 315.78 355.34 317.61 341.67 316.85C312.22 315.21 285.96 301.54 270.07 285.85C244.27 260.37 242.7 221.53 242.7 221.53V167.25L273.22 130.44L429.97 132.33L449.29 154.98L451.18 194.62Z" fill="#FBC6A6"/>
<path opacity="0.5" d="M289.69 289.89C310.01 304.55 329.06 312.04 343.68 315.86C314.23 314.22 287.97 300.55 272.08 284.86C246.28 259.38 244.71 220.54 244.71 220.54V210.94L253.17 204.32C253.16 204.32 245.65 258.11 289.69 289.89Z" fill="white"/>
<path opacity="0.5" d="M446.1 235.95C442.02 253.19 430.11 284.11 395.74 303.47C390.85 306.22 385.93 308.51 381 310.37C398.49 296.74 426.96 271.61 435.69 246.63C438.65 238.18 442.27 235.31 446.1 235.95Z" fill="white"/>
<path d="M488.4 142.08C488.4 142.08 477.39 137.99 462.6 137.99C447.81 137.99 227.76 137.99 227.76 137.99C227.76 137.99 207.78 137.2 202.12 142.08V128.4C202.12 123.1 206.42 118.8 211.72 118.8H478.81C484.11 118.8 488.41 123.1 488.41 128.4V142.08H488.4Z" fill="#F9DC1B"/>
<path d="M473.17 118.8C473.17 118.91 473.17 118.96 473.17 118.96H345.13V118.8H217.09C217.09 118.8 217.09 118.77 217.09 118.72C217.05 117.67 216.64 107.23 217.09 102.45C217.56 97.41 221.65 97.26 221.65 97.26C221.65 97.26 228.73 34.5 300.14 13.74C300.14 13.74 299.51 1.14999 311.15 -0.100006C322.79 -1.35001 345.13 -2.92999 345.13 -2.92999V-2.77C345.13 -2.77 367.46 -1.2 379.1 0.0599976C390.74 1.32 390.11 13.9 390.11 13.9C461.52 34.66 468.6 97.42 468.6 97.42C468.6 97.42 472.69 97.58 473.16 102.61C473.61 107.28 473.23 117.41 473.17 118.8Z" fill="#F9DC1B"/>
<path opacity="0.73" d="M473.17 118.8H462.29C462.29 118.8 456.78 54.62 390.25 22.53L390.21 15.27C390.21 15.27 338.04 -1.07 300.02 16.55L300.5 26.94C300.5 26.94 241.45 43.29 226.98 118.48L217.09 118.71C217.05 117.66 216.64 107.22 217.09 102.44C217.56 97.4 221.65 97.25 221.65 97.25C221.65 97.25 228.73 34.49 300.14 13.73C300.14 13.73 299.51 1.14 311.15 -0.110001C322.79 -1.36 345.13 -2.94 345.13 -2.94V-2.78C345.13 -2.78 367.46 -1.21 379.1 0.0500031C390.74 1.31 390.11 13.89 390.11 13.89C461.52 34.65 468.6 97.41 468.6 97.41C468.6 97.41 472.69 97.57 473.16 102.6C473.61 107.28 473.23 117.41 473.17 118.8Z" fill="white"/>
<path d="M473.17 102.6C472.7 97.57 468.61 97.41 468.61 97.41C468.61 97.41 461.53 34.65 390.12 13.89C390.12 13.89 390.75 1.31 379.11 0.0500031C367.47 -1.21 345.13 -2.78 345.13 -2.78V-2.94C345.13 -2.94 322.79 -1.37 311.15 -0.110001C299.51 1.15 300.14 13.73 300.14 13.73C228.73 34.49 221.65 97.25 221.65 97.25C221.65 97.25 217.56 97.41 217.09 102.44C216.62 107.47 217.09 118.8 217.09 118.8H345.13V118.96H473.17C473.17 118.96 473.64 107.64 473.17 102.6Z" stroke="#0D2232" stroke-width="6" stroke-miterlimit="10" stroke-linecap="round" stroke-linejoin="round"/>
<path d="M389.49 326.86H419.82V492.54H270.07V326.86H389.49Z" fill="white"/>
<path d="M393.29 333.67H299.75V434.55H393.29V333.67Z" fill="#F9DC1B"/>
<path d="M419.82 455.73H270.07V492.54H419.82V455.73Z" fill="#F9DC1B"/>
<path d="M371.27 314.8C371.27 314.8 341.89 321.09 321.87 314.8L314.95 345.74L333.2 352.55C333.2 352.55 345.27 357.58 359.95 352.55C374.63 347.52 379.25 332.84 379.25 332.84L371.27 314.8Z" fill="#FBC6A6" stroke="#0D2232" stroke-width="6" stroke-miterlimit="10"/>
<path d="M390.31 348.83C389.52 360.68 387.62 371.64 387.62 371.64L359.93 352.55C359.93 352.55 363.1 345.04 365.71 337.6C367.23 333.25 368.57 328.91 368.95 326.12C370 318.57 371.26 314.8 371.26 314.8C371.26 314.8 387.41 313.96 389.92 328.85C390.87 334.41 390.79 341.77 390.31 348.83Z" fill="#435F84"/>
<path d="M390.31 348.83C383.18 348.3 374.88 344.75 370.6 341.71C368.88 340.48 367.2 339.12 365.71 337.6C367.23 333.25 368.57 328.91 368.95 326.12C370 318.57 371.26 314.8 371.26 314.8C371.26 314.8 387.41 313.96 389.92 328.85C390.87 334.41 390.79 341.77 390.31 348.83Z" fill="#253B5A"/>
<path d="M371.27 314.8C371.27 314.8 387.42 313.96 389.94 328.85C392.46 343.74 387.63 371.63 387.63 371.63L359.95 352.54C359.95 352.54 367.92 333.66 368.97 326.11C370.02 318.56 371.27 314.8 371.27 314.8Z" stroke="#0D2232" stroke-width="6" stroke-miterlimit="10"/>
<path d="M302.82 348.83C303.61 360.68 305.51 371.64 305.51 371.64L333.2 352.55C333.2 352.55 330.03 345.04 327.42 337.6C325.9 333.25 324.56 328.91 324.18 326.12C323.13 318.57 321.87 314.8 321.87 314.8C321.87 314.8 305.72 313.96 303.21 328.85C302.26 334.41 302.34 341.77 302.82 348.83Z" fill="#435F84"/>
<path d="M302.82 348.83C309.95 348.3 318.25 344.75 322.53 341.71C324.25 340.48 325.93 339.12 327.42 337.6C325.9 333.25 324.56 328.91 324.18 326.12C323.13 318.57 321.87 314.8 321.87 314.8C321.87 314.8 305.72 313.96 303.21 328.85C302.26 334.41 302.34 341.77 302.82 348.83Z" fill="#253B5A"/>
<path d="M321.87 314.8C321.87 314.8 305.72 313.96 303.2 328.85C300.68 343.74 305.51 371.63 305.51 371.63L333.19 352.54C333.19 352.54 325.22 333.66 324.17 326.11C323.12 318.56 321.87 314.8 321.87 314.8Z" stroke="#0D2232" stroke-width="6" stroke-miterlimit="10"/>
<path d="M324.71 386.31H285.7V421.96H324.71V386.31Z" fill="#F9DC1B" stroke="#0D2232" stroke-width="6" stroke-miterlimit="10"/>
<path d="M324.71 400.37H285.7" stroke="#0D2232" stroke-width="6" stroke-miterlimit="10"/>
<path d="M390.12 13.89C390.12 13.89 391.22 24.43 386.97 45.98Z" fill="#F9DC1B"/>
<path d="M390.12 13.89C390.12 13.89 391.22 24.43 386.97 45.98" stroke="#0D2232" stroke-width="6" stroke-miterlimit="10" stroke-linecap="round" stroke-linejoin="round"/>
<path d="M468.61 97.41H436.18C432.75 97.41 429.97 100.19 429.97 103.62V118.96" stroke="#0D2232" stroke-width="6" stroke-miterlimit="10" stroke-linecap="round" stroke-linejoin="round"/>
<path d="M300.14 13.73C300.14 13.73 299.04 24.27 303.29 45.82Z" fill="#F9DC1B"/>
<path d="M300.14 13.73C300.14 13.73 299.04 24.27 303.29 45.82" stroke="#0D2232" stroke-width="6" stroke-miterlimit="10" stroke-linecap="round" stroke-linejoin="round"/>
<path d="M221.65 97.25H254.08C257.51 97.25 260.29 100.03 260.29 103.46V118.8" stroke="#0D2232" stroke-width="6" stroke-miterlimit="10" stroke-linecap="round" stroke-linejoin="round"/>
<path opacity="0.74" d="M475.03 128.19C468.57 125.73 461.47 125.78 454.57 125.85C404.12 126.39 353.67 126.92 303.22 127.46C280.8 127.7 258.39 127.94 235.97 128.18C226.02 128.29 214.86 128.91 208.16 136.25C206.84 137.7 205.55 139.48 203.61 139.77C200.65 140.22 198.46 136.78 198.4 133.79C198.28 128.18 202.6 123.23 207.7 120.87C212.8 118.52 218.58 118.24 224.19 118.05C307.29 115.22 390.63 123.29 473.55 117.16C478.34 116.81 484 116.78 486.87 120.64C488.45 122.77 488.71 125.58 488.92 128.23C489.12 130.9 491.3 140.86 485.93 137.05C484.19 135.82 482.99 133.13 481.19 131.69C479.35 130.22 477.23 128.96 475.03 128.19Z" fill="white"/>
<path d="M488.4 142.08C488.4 142.08 477.39 137.99 462.6 137.99C447.81 137.99 227.76 137.99 227.76 137.99C227.76 137.99 207.78 137.2 202.12 142.08V128.4C202.12 123.1 206.42 118.8 211.72 118.8H478.81C484.11 118.8 488.41 123.1 488.41 128.4V142.08H488.4Z" stroke="#0D2232" stroke-width="6" stroke-miterlimit="10" stroke-linecap="round" stroke-linejoin="round"/>
<path d="M251.12 172.08C251.12 172.08 250.58 201.07 251.12 209.41C251.66 217.75 246 225.3 237.35 219.48C228.7 213.66 230.38 179.06 230.38 179.06C230.38 179.06 239.36 179.47 251.12 172.08Z" fill="#253B5A" stroke="#0D2232" stroke-width="6" stroke-miterlimit="10"/>
<path d="M298.57 226.07C307.428 226.07 314.61 218.889 314.61 210.03C314.61 201.171 307.428 193.99 298.57 193.99C289.711 193.99 282.53 201.171 282.53 210.03C282.53 218.889 289.711 226.07 298.57 226.07Z" fill="#0D2232"/>
<path d="M397.31 226.07C406.169 226.07 413.35 218.889 413.35 210.03C413.35 201.171 406.169 193.99 397.31 193.99C388.451 193.99 381.27 201.171 381.27 210.03C381.27 218.889 388.451 226.07 397.31 226.07Z" fill="#0D2232"/>
<path d="M419.82 492.54H270.07V526.41H419.82V492.54Z" fill="#253B5A" stroke="#0D2232" stroke-width="6" stroke-miterlimit="10"/>
<path d="M370.64 492.54H323.24V526.41H370.64V492.54Z" fill="#C3CDD4" stroke="#0D2232" stroke-width="6" stroke-miterlimit="10"/>
<path d="M488.64 703H492C493.62 703 494.94 704.31 494.94 705.94V714.59C494.94 716.99 492.99 718.94 490.59 718.94H414.2L398.58 708.45V718.94H359.83C357.43 718.94 355.48 716.99 355.48 714.59V698.13C355.48 695.84 357.34 693.98 359.63 693.99H361.07L462.7 693.1L488.64 703Z" fill="#484D60" stroke="#0D2232" stroke-width="6" stroke-miterlimit="10" stroke-linecap="round" stroke-linejoin="round"/>
<path d="M490.21 699.23L488.64 703H418.64L400.55 693.98H361.05C361.05 693.98 359.24 685.28 360.76 674.5C361.7 667.81 363.93 660.32 368.67 653.61H428.86L433.58 658.65C433.58 658.65 442.07 658.96 442.7 666.83C442.7 666.83 444.19 666.08 446.76 665.26C451.83 663.64 461.09 661.71 471.33 664.63C486.75 669.03 493.99 688.85 490.21 699.23Z" fill="#E89F02"/>
<path d="M384.19 693.99H361.05C361.05 693.99 359.24 685.29 360.76 674.51C360.85 674.5 360.95 674.5 361.05 674.49C384.15 673.33 384.19 693.99 384.19 693.99Z" fill="#834526"/>
<path opacity="0.75" d="M490.21 699.23L488.64 703H478.57C478.57 703 487.53 670.71 446.77 665.25C451.84 663.63 461.1 661.7 471.34 664.62C486.75 669.03 493.99 688.85 490.21 699.23Z" fill="white"/>
<path d="M428.86 653.61L433.58 658.64C433.58 658.64 442.07 658.95 442.7 666.82C442.7 666.82 455.91 660.21 471.33 664.62C486.75 669.02 493.98 688.84 490.21 699.23L488.64 703.01H418.64L400.55 693.99H361.05C361.05 693.99 356.3 671.13 368.67 653.62H428.86V653.61Z" stroke="#0D2232" stroke-width="6" stroke-miterlimit="10" stroke-linecap="round" stroke-linejoin="round"/>
<path d="M442.71 666.83C442.71 666.83 422.47 673.44 418.64 703.01" stroke="#0D2232" stroke-width="6" stroke-miterlimit="10" stroke-linecap="round" stroke-linejoin="round"/>
<path d="M433.58 658.65C433.58 658.65 419.42 661.48 414.18 674.48" stroke="#0D2232" stroke-width="6" stroke-miterlimit="10" stroke-linecap="round" stroke-linejoin="round"/>
<path d="M433.58 632.12H360.15V653.62H433.58V632.12Z" fill="#435F84" stroke="#0D2232" stroke-width="6" stroke-miterlimit="10" stroke-linecap="round" stroke-linejoin="round"/>
<path d="M426.98 632.12L418.48 526.41H345.6V546.97L355.46 546.34L365.94 632.12H426.98Z" fill="#435F84" stroke="#0D2232" stroke-width="6" stroke-miterlimit="10" stroke-linecap="round" stroke-linejoin="round"/>
<path d="M202.57 703H199.21C197.59 703 196.27 704.31 196.27 705.94V714.59C196.27 716.99 198.22 718.94 200.62 718.94H277.01L292.63 708.45V718.94H331.38C333.78 718.94 335.73 716.99 335.73 714.59V698.13C335.73 695.84 333.87 693.98 331.58 693.99H330.14L228.51 693.1L202.57 703Z" fill="#484D60" stroke="#0D2232" stroke-width="6" stroke-miterlimit="10" stroke-linecap="round" stroke-linejoin="round"/>
<path d="M200.99 699.23L202.56 703H272.56L290.65 693.98H330.15C330.15 693.98 331.96 685.28 330.44 674.5C329.5 667.81 327.27 660.32 322.53 653.61H262.34L257.62 658.65C257.62 658.65 249.13 658.96 248.5 666.83C248.5 666.83 247.01 666.08 244.44 665.26C239.37 663.64 230.11 661.71 219.87 664.63C204.45 669.03 197.22 688.85 200.99 699.23Z" fill="#E89F02"/>
<path d="M307.01 693.99H330.15C330.15 693.99 331.96 685.29 330.44 674.51C330.35 674.5 330.25 674.5 330.15 674.49C307.05 673.33 307.01 693.99 307.01 693.99Z" fill="#834526"/>
<path opacity="0.75" d="M200.99 699.23L202.56 703H212.63C212.63 703 203.67 670.71 244.43 665.25C239.36 663.63 230.1 661.7 219.86 664.62C204.45 669.03 197.22 688.85 200.99 699.23Z" fill="white"/>
<path d="M262.34 653.61L257.62 658.64C257.62 658.64 249.13 658.95 248.5 666.82C248.5 666.82 235.29 660.21 219.87 664.62C204.45 669.02 197.22 688.84 200.99 699.23L202.56 703.01H272.56L290.65 693.99H330.15C330.15 693.99 334.9 671.13 322.53 653.62H262.34V653.61Z" stroke="#0D2232" stroke-width="6" stroke-miterlimit="10" stroke-linecap="round" stroke-linejoin="round"/>
<path d="M248.5 666.83C248.5 666.83 268.74 673.44 272.57 703.01" stroke="#0D2232" stroke-width="6" stroke-miterlimit="10" stroke-linecap="round" stroke-linejoin="round"/>
<path d="M257.62 658.65C257.62 658.65 271.78 661.48 277.02 674.48" stroke="#0D2232" stroke-width="6" stroke-miterlimit="10" stroke-linecap="round" stroke-linejoin="round"/>
<path d="M264.23 632.12L272.72 526.41H345.6V546.97L335.74 546.34L325.26 632.12H264.23Z" fill="#435F84" stroke="#0D2232" stroke-width="6" stroke-miterlimit="10" stroke-linecap="round" stroke-linejoin="round"/>
<g opacity="0.16">
<path d="M249.99 137.99H451.18L456 149.63H243.61L249.99 137.99Z" fill="black"/>
<path d="M230.38 179.06C230.38 179.06 266 187.84 301.65 149.64L270.07 144.85L230.38 179.06Z" fill="black"/>
<path d="M317.58 176.37C317.58 176.37 370.73 185.19 404.8 143.81L375.3 144.84L317.58 176.37Z" fill="black"/>
</g>
<path opacity="0.16" d="M447.98 202.43C447.98 202.43 430.68 299.81 327.42 312.33C327.42 312.33 435.55 327.69 448.92 223.24L447.98 202.43Z" fill="black"/>
<path d="M413.8 474.14H275.99V486.43H413.8V474.14Z" fill="#E89F02"/>
<path d="M389.91 326.86H420.35V492.54H270.07V326.86H299.85" stroke="#0D2232" stroke-width="6" stroke-miterlimit="10"/>
<path d="M282.97 137.99C282.97 137.99 255.91 184.24 223.82 178.57C220.91 178.05 218.29 177.47 215.96 176.85C192.61 170.57 196.77 159.44 196.77 159.44C196.77 159.44 216.29 164.8 229.8 139.81C230.12 139.22 230.43 138.62 230.74 138H282.97V137.99Z" fill="#253B5A"/>
<path opacity="0.21" d="M221.65 161.9C212.66 167.4 209.04 167.25 209.04 167.25C209.04 167.25 207.94 171.82 215.96 176.85C192.61 170.57 196.77 159.44 196.77 159.44C196.77 159.44 218.65 162.98 232.16 137.99C232.18 138.33 230.55 156.46 221.65 161.9Z" fill="white"/>
<path d="M495.32 163.79C495.32 163.79 481.96 184.52 458.65 179.81C445.3 177.11 428.68 166.06 409.43 138L466.99 138.12C466.99 138.12 467.17 141.01 468.39 144.85C470.85 152.52 477.5 164 495.32 163.79Z" fill="#253B5A"/>
<path opacity="0.21" d="M495.32 163.79C495.32 163.79 481.96 184.52 458.65 179.81C461.31 179.05 463.89 177.96 466.36 176.73C471.34 174.24 476 171.15 480.95 168.6C475.45 168.34 470.55 164.28 468.39 159.21C466.87 155.63 465.81 149.66 467.55 145.97C467.78 145.48 468.08 145.11 468.41 144.86C470.85 152.52 477.5 164 495.32 163.79Z" fill="white"/>
<path d="M467 138.11C467 138.11 468.58 164.1 495.32 163.79C495.32 163.79 462.29 215.07 409.44 137.99L467 138.11Z" stroke="#0D2232" stroke-width="6" stroke-miterlimit="10" stroke-linecap="round" stroke-linejoin="round"/>
<path d="M382.7 137.99C382.7 137.99 370.43 171.34 317.58 176.37C317.58 176.37 326.7 160.01 326.7 137.99H382.7Z" fill="#253B5A" stroke="#0D2232" stroke-width="6" stroke-miterlimit="10" stroke-linecap="round" stroke-linejoin="round"/>
<path d="M282.97 137.99C282.97 137.99 255.91 184.24 223.83 178.57C191.75 172.9 196.77 159.43 196.77 159.43C196.77 159.43 217.22 165.04 230.75 137.98H282.97V137.99Z" stroke="#0D2232" stroke-width="6" stroke-miterlimit="10" stroke-linecap="round" stroke-linejoin="round"/>
<path d="M451.18 223.29C451.18 223.29 448.45 275.47 398.74 303.47C349.03 331.47 295.87 311.33 270.07 285.85C244.27 260.37 242.7 221.53 242.7 221.53" stroke="#0D2232" stroke-width="6" stroke-miterlimit="10"/>
<path d="M464.8 180.5C464.8 180.5 464.33 207.21 463.23 212.4C462.13 217.59 457.57 224.04 448.92 223.25C440.27 222.46 440.58 211.3 440.43 203.43C440.27 195.57 440.43 171.54 440.43 171.54C440.43 171.54 452.22 180.85 464.8 180.5Z" fill="#253B5A" stroke="#0D2232" stroke-width="6" stroke-miterlimit="10" stroke-linecap="round" stroke-linejoin="round"/>
<path d="M363.44 526.41L386.29 653.61H368.67H360.15V632.12H365.94L355.46 543L345.6 546.97V526.41H363.44Z" fill="#253B5A"/>
<path d="M309.44 632.12L305.2 653.61H331.05V632.12H325.26L335.74 543L345.6 546.97V526.41H323.24L309.44 632.12Z" fill="#253B5A"/>
<path d="M355.46 546.34L367.83 544.87" stroke="#0D2232" stroke-width="6" stroke-miterlimit="10" stroke-linecap="round" stroke-linejoin="round"/>
<path d="M335.74 546.34L323.37 544.87" stroke="#0D2232" stroke-width="6" stroke-miterlimit="10" stroke-linecap="round" stroke-linejoin="round"/>
<path d="M418.48 526.41H405.01L414.18 632.12H420.35V653.61H433.58V632.12H426.98L418.48 526.41Z" fill="#C3CDD4"/>
<path d="M273.38 526.41H286.85L277.68 632.12H271.51V653.61H258.28V632.12H264.88L273.38 526.41Z" fill="#C3CDD4"/>
<path d="M433.58 632.12H360.15V653.62H433.58V632.12Z" stroke="#0D2232" stroke-width="6" stroke-miterlimit="10" stroke-linecap="round" stroke-linejoin="round"/>
<path d="M426.98 632.12L418.48 526.41H345.6V546.97L355.46 546.34L365.94 632.12H426.98Z" stroke="#0D2232" stroke-width="6" stroke-miterlimit="10" stroke-linecap="round" stroke-linejoin="round"/>
<path d="M264.23 632.12L272.72 526.41H345.6V546.97L335.74 546.34L325.26 632.12H264.23Z" stroke="#0D2232" stroke-width="6" stroke-miterlimit="10" stroke-linecap="round" stroke-linejoin="round"/>
<path d="M496.46 539.09H479.26V604.23H496.46V539.09Z" fill="#E89F02"/>
<path d="M585.9 518.34V528.68C585.9 531.43 583.66 533.66 580.91 533.66H502.44C499.69 533.66 497.46 531.43 497.46 528.68V518.34C497.46 517.74 497.57 517.16 497.76 516.63C498.45 514.72 500.29 513.35 502.44 513.35H580.91C583.06 513.35 584.9 514.72 585.6 516.63C585.8 517.16 585.9 517.74 585.9 518.34Z" fill="#AFCADC"/>
<path opacity="0.2" d="M497.46 527.58V528.68C497.46 531.43 499.69 533.67 502.44 533.67H580.91C583.66 533.67 585.89 531.44 585.89 528.68V527.58H497.46Z" fill="black"/>
<path opacity="0.7" d="M585.6 516.63H497.76C498.45 514.72 500.29 513.35 502.44 513.35H580.91C583.07 513.35 584.9 514.71 585.6 516.63Z" fill="white"/>
<path d="M585.9 518.34V528.68C585.9 531.43 583.66 533.66 580.91 533.66H502.44C499.69 533.66 497.46 531.43 497.46 528.68V518.34C497.46 517.74 497.57 517.16 497.76 516.63C498.45 514.72 500.29 513.35 502.44 513.35H580.91C583.06 513.35 584.9 514.72 585.6 516.63C585.8 517.16 585.9 517.74 585.9 518.34Z" stroke="#0D2232" stroke-width="4" stroke-miterlimit="10" stroke-linecap="round" stroke-linejoin="round"/>
<path d="M411.96 532.02C411.96 532.02 433.17 548.73 497.46 542.31" stroke="white" stroke-miterlimit="10"/>
<path d="M393.96 492.16V580.88L405.53 592.45H484.6L473.99 584.09L474.64 492.16H393.96Z" fill="#F9DC1B"/>
<path d="M403.6 492.16V575.32L410.35 584.09H491.35L484.6 592.45H405.53L393.96 580.88V492.16H403.6Z" fill="#E89F02"/>
<path d="M406.17 504.52H401.03V509.66H406.17V504.52Z" fill="white"/>
<path d="M406.17 520.93H401.03V526.07H406.17V520.93Z" fill="white"/>
<path d="M406.17 537.35H401.03V542.49H406.17V537.35Z" fill="white"/>
<path d="M406.17 553.76H401.03V558.9H406.17V553.76Z" fill="white"/>
<path d="M406.17 570.17H401.03V575.31H406.17V570.17Z" fill="white"/>
<path d="M474.64 527.2V492.16H393.96V580.88L405.53 592.45H477.53" stroke="#0D2232" stroke-width="4" stroke-miterlimit="10" stroke-linecap="round" stroke-linejoin="round"/>
<path d="M257.618 653.609L331.048 653.609L331.048 632.109L257.618 632.109L257.618 653.609Z" stroke="#0D2232" stroke-width="6" stroke-miterlimit="10" stroke-linecap="round" stroke-linejoin="round"/>
<path d="M486.85 370.55C486.85 370.55 514.49 386.62 508.71 407.84C502.93 429.06 461.78 457.34 461.78 457.34C461.78 457.34 459.85 433.55 430.92 428.41L448.92 410.41L486.85 370.55Z" fill="#FBC6A6"/>
<path d="M430.93 428.4L421.93 433.86V489.79H462.43L461.79 457.33C461.78 457.33 459.21 432.9 430.93 428.4Z" fill="#FBC6A6"/>
<path opacity="0.16" d="M482.8 374.81C482.8 374.81 508.28 387.25 502.63 407.97C496.98 428.7 461.33 450.72 461.33 450.72" stroke="black" stroke-width="6" stroke-miterlimit="10"/>
<path opacity="0.16" d="M458.43 489.8L457.78 444.75" stroke="black" stroke-width="6" stroke-miterlimit="10"/>
<path opacity="0.5" d="M437.09 428.97L492.24 372.05" stroke="white" stroke-width="6" stroke-miterlimit="10"/>
<path opacity="0.5" d="M427.09 430.12V491.36" stroke="white" stroke-width="6" stroke-miterlimit="10"/>
<path d="M486.85 370.55C486.85 370.55 514.49 386.62 508.71 407.84C502.93 429.06 461.78 457.34 461.78 457.34C461.78 457.34 459.85 433.55 430.92 428.41L448.92 410.41L486.85 370.55Z" stroke="#0D2232" stroke-width="6" stroke-miterlimit="10" stroke-linecap="round" stroke-linejoin="round"/>
<path d="M430.93 428.4L421.93 433.86V489.79H462.43L461.79 457.33C461.78 457.33 459.21 432.9 430.93 428.4Z" stroke="#0D2232" stroke-width="6" stroke-miterlimit="10" stroke-linecap="round" stroke-linejoin="round"/>
<path d="M432.61 412.11L458.21 423.85L481.15 375.32L487.36 362.19L462.82 350.03L456.06 363.92L432.61 412.11Z" fill="#435F84"/>
<path opacity="0.21" d="M456.06 363.92L456.09 363.96L481.15 375.32L487.36 362.19L462.82 350.03L456.06 363.92Z" fill="white"/>
<path d="M420.35 333.67V400.37L434.92 407.92L456.09 363.96L460.51 354.78L420.35 333.67Z" fill="#F9DC1B"/>
<path opacity="0.5" d="M420.35 333.67V345.62L456.09 363.96L460.51 354.78L420.35 333.67Z" fill="white"/>
<path d="M443.54 390.02L420.35 380.65V400.37L434.92 407.92L443.54 390.02Z" fill="#E89F02"/>
<path d="M462.82 350.03L432.62 412.11L458.2 423.86L487.36 362.19L462.82 350.03Z" stroke="#0D2232" stroke-width="6" stroke-miterlimit="10" stroke-linecap="round" stroke-linejoin="round"/>
<path d="M420.35 333.67L460.51 354.78L434.92 407.92L420.35 400.37V333.67Z" stroke="#0D2232" stroke-width="6" stroke-miterlimit="10"/>
<path d="M423.52 447.67V464.93C423.52 466.27 422.43 467.36 421.1 467.36H411.73C410.39 467.36 409.3 466.27 409.3 464.93V447.67C409.3 446.33 410.39 445.25 411.73 445.25H421.1C422.43 445.24 423.52 446.33 423.52 447.67Z" fill="#AFCADC"/>
<path d="M421.1 467.53H411.73C410.3 467.53 409.13 466.37 409.13 464.93V447.67C409.13 446.24 410.29 445.08 411.73 445.08H421.1C422.53 445.08 423.69 446.24 423.69 447.67V464.93C423.69 466.36 422.53 467.53 421.1 467.53ZM411.73 445.41C410.49 445.41 409.47 446.42 409.47 447.66V464.92C409.47 466.16 410.48 467.18 411.73 467.18H421.1C422.34 467.18 423.35 466.17 423.35 464.92V447.66C423.35 446.42 422.34 445.41 421.1 445.41H411.73Z" fill="#000072"/>
<g opacity="0.2">
<path d="M423.52 461.1V464.93C423.52 466.27 422.43 467.36 421.1 467.36H411.73C410.39 467.36 409.3 466.27 409.3 464.93V461.1C409.3 462.44 410.39 463.53 411.73 463.53H421.1C422.43 463.52 423.52 462.44 423.52 461.1Z" fill="black"/>
</g>
<g opacity="0.55">
<path d="M423.52 447.67V450.38C423.52 449.04 422.43 447.96 421.1 447.96H411.73C410.39 447.96 409.3 449.05 409.3 450.38V447.67C409.3 446.33 410.39 445.25 411.73 445.25H421.1C422.43 445.24 423.52 446.33 423.52 447.67Z" fill="white"/>
</g>
<path d="M433.97 462.7H423.52V450.43H432.39L433.97 462.7Z" fill="#AFCADC"/>
<path d="M434.16 462.87H423.35V450.26H432.54L434.16 462.87ZM423.69 462.53H433.78L432.24 450.6H423.69V462.53Z" fill="#000072"/>
<path d="M483.13 460.89C482.98 462.64 480.92 463.51 479.59 462.36C472.12 455.94 461.08 459.56 458.83 468.72C458.45 470.25 457.11 471.33 455.54 471.33H438.07C436.37 471.33 434.93 470.07 434.72 468.38L433.99 462.7L432.41 450.43L431.88 446.29C431.62 444.27 433.2 442.47 435.24 442.47H463.89C475.48 442.48 483.9 451.43 483.13 460.89Z" fill="#AFCADC"/>
<path d="M455.53 471.5H438.06C436.28 471.5 434.76 470.17 434.54 468.4L431.69 446.31C431.56 445.3 431.87 444.28 432.55 443.51C433.22 442.74 434.2 442.3 435.22 442.3H463.87C469.7 442.3 475.17 444.61 478.88 448.63C482.1 452.13 483.68 456.48 483.31 460.89C483.24 461.77 482.68 462.53 481.87 462.86C481.05 463.2 480.16 463.05 479.49 462.47C476.02 459.49 471.45 458.52 467.24 459.86C463.12 461.18 460.04 464.5 459 468.74C458.59 470.38 457.17 471.5 455.53 471.5ZM435.21 442.65C434.29 442.65 433.41 443.05 432.8 443.74C432.19 444.43 431.91 445.36 432.03 446.27L434.88 468.36C435.09 469.96 436.46 471.16 438.07 471.16H455.54C457.02 471.16 458.31 470.14 458.67 468.68C459.74 464.32 462.9 460.91 467.13 459.55C471.45 458.17 476.15 459.17 479.7 462.22C480.27 462.71 481.03 462.84 481.73 462.55C482.44 462.26 482.9 461.63 482.96 460.87C483.31 456.55 481.77 452.29 478.61 448.87C474.97 444.92 469.59 442.65 463.85 442.65H435.21Z" fill="#000072"/>
<g opacity="0.2">
<path d="M483.13 460.89C482.98 462.64 480.92 463.51 479.59 462.36C472.12 455.94 461.08 459.56 458.83 468.72C458.45 470.25 457.11 471.33 455.54 471.33H438.07C436.37 471.33 434.93 470.07 434.72 468.38L434.54 467.02C434.99 467.24 435.48 467.36 436.01 467.36H453.48C455.05 467.36 456.4 466.27 456.77 464.75C459.02 455.59 470.06 451.96 477.53 458.39C478.86 459.54 480.92 458.67 481.07 456.92C481.25 454.76 480.94 452.62 480.23 450.61C482.34 453.63 483.43 457.22 483.13 460.89Z" fill="black"/>
</g>
<g opacity="0.55">
<path d="M479.06 449.11C475.72 446.46 471.3 444.79 466.29 444.79H437.64C435.6 444.79 434.02 446.58 434.28 448.61L434.81 452.75L436.39 465.02L437.12 470.7C437.14 470.89 437.18 471.07 437.24 471.24C435.91 470.92 434.88 469.8 434.69 468.39L433.96 462.71L432.38 450.44L431.85 446.3C431.59 444.28 433.17 442.48 435.21 442.48H463.86C470.2 442.48 475.59 445.15 479.06 449.11Z" fill="white"/>
</g>
<g opacity="0.55">
<path d="M423.52 450.38H409.87V454.16H423.52V450.38Z" fill="white"/>
</g>
<path d="M455.23 471.33H439.15V512.37H455.23V471.33Z" fill="#435F84" stroke="#0D2232" stroke-width="4" stroke-miterlimit="10" stroke-linecap="round" stroke-linejoin="round"/>
<g opacity="0.2">
<path d="M439.19 478.54C439.66 478.55 440.08 478.72 440.47 478.93C440.86 479.14 441.22 479.41 441.56 479.7C442.24 480.27 442.86 480.91 443.37 481.65C444.39 483.11 444.97 484.76 445.99 486.05C446.49 486.69 447.12 487.21 447.84 487.6C448.56 487.98 449.36 488.24 450.17 488.41C450.99 488.58 451.83 488.68 452.68 488.76C453.1 488.8 453.53 488.83 453.96 488.84C454.39 488.87 454.83 488.93 455.23 489.21C455.29 489.25 455.3 489.33 455.26 489.39C455.25 489.41 455.23 489.42 455.21 489.43H455.2C454.74 489.63 454.33 489.59 453.9 489.56C453.48 489.5 453.05 489.47 452.62 489.43C451.76 489.35 450.89 489.25 450.03 489.07C449.17 488.89 448.31 488.62 447.52 488.2C446.73 487.78 446.01 487.18 445.45 486.47C444.33 485.05 443.76 483.39 442.8 482.04C442.32 481.37 441.76 480.75 441.1 480.25C440.77 480 440.43 479.77 440.08 479.54C439.74 479.31 439.39 479.08 439.08 478.75C439.03 478.7 439.03 478.63 439.08 478.58C439.13 478.55 439.16 478.53 439.19 478.54Z" fill="#371A45"/>
<path d="M455.25 486C454.37 486.48 453.34 486.5 452.37 486.36C451.4 486.22 450.44 485.98 449.56 485.53C449.11 485.32 448.7 485.04 448.31 484.74C447.93 484.42 447.56 484.08 447.27 483.67C446.64 482.88 446.31 481.89 446.12 480.95C445.93 480 445.84 479.07 445.58 478.21C445.45 477.78 445.28 477.38 445.04 477.01C444.93 476.82 444.79 476.65 444.66 476.48C444.51 476.32 444.37 476.15 444.2 476.01C443.55 475.41 442.73 475 441.87 474.79C441.44 474.68 440.99 474.64 440.56 474.67C440.12 474.7 439.71 474.77 439.21 474.7H439.2C439.18 474.7 439.15 474.69 439.12 474.68L439.1 474.67C439.03 474.65 438.99 474.59 439.01 474.52C439.02 474.5 439.03 474.48 439.04 474.46C439.07 474.43 439.09 474.41 439.12 474.39H439.11C439.51 474.05 440.04 473.94 440.54 473.94C441.04 473.96 441.54 473.99 442.03 474.12C443 474.35 443.92 474.82 444.66 475.49C445.41 476.14 445.97 477.06 446.24 478C446.52 478.95 446.61 479.9 446.79 480.8C446.97 481.7 447.26 482.55 447.81 483.24C448.07 483.6 448.4 483.9 448.74 484.19C449.1 484.46 449.47 484.71 449.88 484.9C450.68 485.3 451.57 485.55 452.47 485.64C452.69 485.67 452.92 485.66 453.15 485.68C453.38 485.67 453.6 485.69 453.83 485.68C454.28 485.69 454.73 485.64 455.23 485.75H455.24C455.3 485.76 455.34 485.83 455.33 485.89C455.3 485.96 455.28 485.98 455.25 486Z" fill="#371A45"/>
<path d="M455.26 481.31C455 481.56 454.68 481.67 454.35 481.72C454.19 481.75 454.02 481.76 453.85 481.75C453.68 481.74 453.52 481.72 453.36 481.71C452.71 481.62 452.07 481.45 451.48 481.17C450.3 480.62 449.28 479.74 448.57 478.66C447.85 477.58 447.44 476.32 447.29 475.05C447.22 474.41 447.21 473.77 447.26 473.14C447.28 472.82 447.33 472.51 447.36 472.19C447.39 471.87 447.46 471.56 447.7 471.29V471.31C447.74 471.27 447.77 471.22 447.82 471.19C447.89 471.14 447.98 471.16 448.03 471.22L448.04 471.23V471.24C448.07 471.29 448.08 471.33 448.1 471.37V471.39C448.19 471.72 448.13 472.01 448.06 472.3C447.99 472.59 447.96 472.89 447.94 473.19C447.89 473.79 447.9 474.38 447.97 474.98C448.1 476.16 448.49 477.31 449.14 478.29C449.79 479.27 450.71 480.07 451.77 480.56C452.3 480.8 452.86 480.98 453.44 481.01C453.73 481.02 454.01 481.03 454.3 481.02C454.59 481.02 454.87 481.01 455.21 481.09C455.28 481.11 455.32 481.18 455.3 481.25C455.28 481.27 455.27 481.29 455.26 481.31Z" fill="#371A45"/>
<path d="M451.18 471.39C451.23 471.65 451.17 471.85 451.1 472.04C451.03 472.23 450.94 472.4 450.86 472.58C450.7 472.94 450.6 473.31 450.54 473.69C450.44 474.43 450.59 475.22 451.01 475.81C451.22 476.1 451.5 476.33 451.82 476.47C452.14 476.61 452.51 476.67 452.88 476.65C453.25 476.64 453.63 476.56 453.99 476.44C454.17 476.39 454.35 476.28 454.52 476.18C454.7 476.09 454.88 476.02 455.17 476.14H455.18C455.26 476.17 455.3 476.25 455.28 476.33C455.21 476.63 455.01 476.74 454.82 476.83C454.72 476.87 454.62 476.9 454.52 476.95C454.42 477 454.32 477.04 454.22 477.07C453.8 477.21 453.36 477.31 452.91 477.32C452.46 477.34 451.99 477.27 451.55 477.08C451.12 476.89 450.73 476.57 450.46 476.19C449.92 475.42 449.75 474.47 449.87 473.58C449.93 473.14 450.07 472.71 450.21 472.3C450.28 472.09 450.36 471.89 450.48 471.71C450.59 471.53 450.74 471.36 450.99 471.27C451.07 471.24 451.15 471.28 451.18 471.36C451.17 471.37 451.17 471.38 451.18 471.39Z" fill="#371A45"/>
<path d="M439.17 484.44C439.72 484.37 440.28 484.55 440.74 484.83C441.21 485.1 441.62 485.47 441.98 485.86C442.7 486.65 443.28 487.52 443.83 488.37C444.38 489.22 444.94 490.06 445.63 490.74C446.32 491.42 447.18 491.91 448.08 492.36C448.98 492.81 449.94 493.23 450.81 493.86C451.67 494.49 452.4 495.28 452.98 496.16C453.57 497.03 454.02 497.97 454.42 498.92C454.62 499.4 454.81 499.87 455.01 500.34C455.2 500.82 455.37 501.3 455.32 501.86C455.31 501.93 455.25 501.98 455.19 501.97C455.16 501.97 455.13 501.95 455.11 501.94C454.7 501.55 454.51 501.07 454.33 500.6C454.17 500.12 453.98 499.65 453.79 499.18C453.4 498.25 452.96 497.35 452.41 496.53C451.87 495.7 451.19 494.98 450.41 494.4C449.62 493.83 448.7 493.42 447.78 492.96C446.86 492.51 445.92 491.98 445.15 491.22C444.39 490.47 443.81 489.59 443.25 488.74C442.69 487.89 442.16 487.04 441.47 486.34C441.12 486 440.75 485.69 440.36 485.42C439.97 485.14 439.57 484.93 439.12 484.66C439.06 484.63 439.04 484.55 439.08 484.5C439.1 484.47 439.14 484.45 439.17 484.44Z" fill="#371A45"/>
<path d="M451.01 491.25C451.19 491.15 451.32 491.17 451.43 491.21C451.54 491.25 451.63 491.32 451.73 491.39C451.92 491.53 452.12 491.64 452.31 491.77C452.69 492.03 453.07 492.3 453.43 492.58C453.79 492.86 454.15 493.16 454.49 493.47C454.66 493.63 454.83 493.79 454.99 493.95C455.07 494.03 455.15 494.12 455.25 494.18C455.33 494.26 455.41 494.35 455.31 494.6C455.28 494.68 455.22 494.73 455.15 494.75C454.9 494.83 454.81 494.76 454.74 494.68C454.68 494.58 454.6 494.51 454.52 494.43C454.36 494.27 454.2 494.12 454.04 493.97C453.71 493.67 453.37 493.38 453.02 493.11C452.67 492.84 452.31 492.58 451.94 492.33C451.75 492.21 451.57 492.08 451.37 491.98C451.27 491.93 451.17 491.89 451.08 491.81C450.99 491.74 450.92 491.64 450.91 491.44C450.9 491.36 450.94 491.29 451.01 491.25Z" fill="#371A45"/>
<path d="M439.22 488.96C439.8 489.2 440.22 489.73 440.51 490.26C440.8 490.8 440.98 491.38 441.14 491.93C441.3 492.49 441.46 493.03 441.68 493.54C441.89 494.05 442.16 494.53 442.51 494.92C442.86 495.31 443.31 495.58 443.81 495.76C444.31 495.93 444.87 496.01 445.43 496.06C446 496.11 446.58 496.13 447.17 496.21C447.76 496.29 448.37 496.42 448.94 496.7C449.51 496.98 450.01 497.4 450.38 497.89C450.76 498.38 451.03 498.94 451.25 499.49C451.68 500.61 451.9 501.76 452.2 502.86C452.49 503.96 452.91 505.01 453.47 505.99C453.74 506.48 454.05 506.96 454.4 507.4C454.74 507.85 455.08 508.29 455.3 508.87C455.32 508.93 455.29 509 455.23 509.03C455.2 509.04 455.16 509.04 455.14 509.03C454.56 508.77 454.17 508.31 453.82 507.83C453.49 507.34 453.17 506.84 452.88 506.32C452.3 505.29 451.85 504.18 451.55 503.04C451.24 501.91 451.02 500.78 450.62 499.74C450.42 499.22 450.17 498.73 449.84 498.31C449.52 497.89 449.11 497.54 448.63 497.31C447.68 496.84 446.52 496.84 445.36 496.74C444.77 496.69 444.17 496.61 443.58 496.41C442.99 496.21 442.42 495.86 442 495.38C441.15 494.43 440.82 493.22 440.46 492.14C440.28 491.59 440.09 491.07 439.87 490.57C439.64 490.07 439.39 489.62 439.07 489.13C439.03 489.08 439.05 489 439.1 488.97C439.14 488.94 439.18 488.94 439.22 488.96Z" fill="#371A45"/>
<path d="M439.18 498.69C439.63 498.63 440.02 498.64 440.44 498.65L441.69 498.68C442.54 498.68 443.43 498.65 444.31 498.81C444.75 498.89 445.2 499.01 445.62 499.21C446.04 499.41 446.44 499.69 446.75 500.06C447.07 500.42 447.28 500.86 447.42 501.3C447.56 501.74 447.62 502.19 447.66 502.63C447.72 503.52 447.7 504.36 447.76 505.2C447.81 506.04 447.9 506.88 448.06 507.7C448.22 508.52 448.46 509.32 448.79 510.08C448.96 510.46 449.14 510.83 449.38 511.16C449.6 511.51 449.82 511.84 449.91 512.31C449.92 512.38 449.88 512.45 449.81 512.46C449.79 512.46 449.76 512.46 449.74 512.45C449.27 512.28 448.99 511.91 448.76 511.53C448.55 511.14 448.34 510.75 448.16 510.34C447.81 509.53 447.56 508.68 447.39 507.82C447.22 506.96 447.13 506.1 447.07 505.23C447.01 504.37 447.03 503.5 446.97 502.68C446.91 501.86 446.72 501.06 446.22 500.5C445.73 499.92 444.97 499.61 444.18 499.48C443.38 499.34 442.55 499.34 441.69 499.38C441.26 499.4 440.82 499.41 440.38 499.35C439.94 499.3 439.49 499.19 439.11 498.91C439.06 498.87 439.05 498.79 439.09 498.74C439.11 498.71 439.14 498.69 439.18 498.69Z" fill="#371A45"/>
<path d="M450.4 506.16C450.61 506.24 450.7 506.36 450.76 506.49C450.83 506.62 450.87 506.75 450.9 506.89C450.98 507.16 451.1 507.43 451.2 507.69C451.42 508.22 451.65 508.74 451.91 509.24C452.17 509.75 452.44 510.25 452.74 510.74C452.89 510.98 453.04 511.22 453.2 511.46C453.28 511.58 453.36 511.7 453.46 511.8C453.55 511.91 453.62 512.04 453.5 512.29C453.47 512.37 453.39 512.41 453.32 512.42C453.04 512.44 452.95 512.33 452.87 512.2C452.81 512.06 452.73 511.94 452.64 511.82C452.48 511.57 452.32 511.33 452.17 511.07C451.87 510.57 451.58 510.05 451.32 509.53C451.06 509.01 450.81 508.47 450.59 507.93C450.47 507.66 450.38 507.38 450.26 507.11C450.2 506.98 450.14 506.84 450.11 506.7C450.08 506.55 450.08 506.4 450.2 506.21C450.23 506.16 450.32 506.13 450.4 506.16Z" fill="#371A45"/>
<path d="M439.13 502.61C439.39 502.38 439.68 502.29 439.98 502.23C440.28 502.17 440.59 502.17 440.91 502.2C441.53 502.24 442.17 502.36 442.74 502.65C443.32 502.94 443.81 503.38 444.18 503.88C444.55 504.39 444.83 504.95 445.01 505.54C445.39 506.72 445.42 507.98 445.2 509.18C445.09 509.78 444.92 510.37 444.69 510.93L444.33 511.77C444.2 512.04 444.02 512.3 443.67 512.43C443.6 512.46 443.51 512.42 443.49 512.34C443.49 512.33 443.49 512.32 443.48 512.31V512.3C443.42 511.92 443.56 511.69 443.69 511.43C443.84 511.19 443.96 510.93 444.06 510.67C444.27 510.15 444.43 509.6 444.53 509.05C444.73 507.95 444.7 506.8 444.36 505.74C444.03 504.69 443.38 503.72 442.42 503.24C441.95 503 441.41 502.88 440.87 502.88C440.6 502.88 440.32 502.91 440.04 502.91C439.76 502.92 439.48 502.92 439.16 502.81C439.09 502.79 439.06 502.71 439.08 502.64C439.1 502.65 439.11 502.63 439.13 502.61Z" fill="#371A45"/>
<path d="M439.12 506.32C439.24 506.11 439.44 506.03 439.63 506C439.82 505.97 440.02 505.99 440.2 506.04C440.57 506.13 440.94 506.28 441.24 506.54C441.84 507.05 442.14 507.82 442.1 508.59C442.08 508.97 441.95 509.37 441.75 509.68C441.55 510 441.29 510.27 441.02 510.5C440.75 510.73 440.46 510.92 440.18 511.1C440.04 511.19 439.89 511.28 439.77 511.39C439.63 511.48 439.48 511.56 439.22 511.44C439.14 511.41 439.1 511.33 439.1 511.25C439.12 510.95 439.25 510.86 439.39 510.78C439.54 510.71 439.68 510.63 439.82 510.54C440.09 510.36 440.36 510.18 440.59 509.99C441.07 509.6 441.41 509.12 441.43 508.56C441.46 508.01 441.23 507.42 440.81 507.07C440.6 506.9 440.35 506.77 440.07 506.74C439.93 506.73 439.79 506.73 439.66 506.71C439.52 506.7 439.38 506.67 439.19 506.54L439.18 506.53C439.1 506.48 439.08 506.39 439.12 506.32Z" fill="#371A45"/>
</g>
<g opacity="0.55">
<path d="M441.54 512.37H439.15V476.99H439.49C440.62 476.99 441.54 477.91 441.54 479.04V512.37Z" fill="white"/>
</g>
<g opacity="0.3">
<path d="M455.23 471.33V512.37H451.42V480.84C451.42 478.74 449.72 477.04 447.62 477.04H439.15V471.33H455.23Z" fill="#371A45"/>
</g>
<path d="M458.95 515.76V557.05C458.95 558.92 457.43 560.43 455.57 560.43H438.98C438.42 560.43 437.89 560.29 437.43 560.05C436.34 559.49 435.6 558.35 435.6 557.04V515.75C435.6 513.88 437.12 512.37 438.98 512.37H455.57C457.43 512.37 458.95 513.89 458.95 515.76Z" fill="#F9DC1B"/>
<path d="M455.56 560.61H438.97C438.4 560.61 437.84 560.47 437.34 560.22L437.25 560.17C436.12 559.55 435.42 558.37 435.42 557.06V515.77C435.42 513.81 437.01 512.22 438.97 512.22H455.56C457.52 512.22 459.11 513.81 459.11 515.77V557.06C459.12 559.01 457.52 560.61 455.56 560.61ZM437.6 559.96C438.03 560.16 438.5 560.27 438.98 560.27H455.57C457.34 560.27 458.79 558.83 458.79 557.05V515.76C458.79 513.99 457.35 512.54 455.57 512.54H438.98C437.21 512.54 435.76 513.98 435.76 515.76V557.05C435.76 558.26 436.43 559.35 437.5 559.91L437.6 559.96Z" fill="#000072"/>
<path d="M458.95 515.76V557.05C458.95 558.92 457.43 560.43 455.57 560.43H450.06C451.93 560.43 453.44 558.91 453.44 557.05V515.76C453.44 513.89 451.92 512.38 450.06 512.38H455.57C457.43 512.37 458.95 513.89 458.95 515.76Z" fill="#E89F02"/>
<path d="M455.56 560.61H450.05V560.27C451.82 560.27 453.27 558.83 453.27 557.05V515.76C453.27 513.99 451.83 512.54 450.05 512.54V512.2H455.56C457.52 512.2 459.11 513.79 459.11 515.75V557.04C459.12 559.01 457.52 560.61 455.56 560.61ZM451.57 560.27H455.56C457.33 560.27 458.78 558.83 458.78 557.05V515.76C458.78 513.99 457.34 512.54 455.56 512.54H451.57C452.78 513.11 453.61 514.34 453.61 515.76V557.05C453.61 558.47 452.78 559.7 451.57 560.27Z" fill="#E89F02"/>
<g opacity="0.55">
<path d="M439.99 560.06C440.45 560.3 440.98 560.44 441.54 560.44H438.98C438.42 560.44 437.89 560.3 437.43 560.06C436.34 559.5 435.6 558.36 435.6 557.05V515.76C435.6 513.89 437.12 512.38 438.98 512.38H441.54C439.67 512.38 438.16 513.9 438.16 515.76V557.05C438.15 558.36 438.9 559.5 439.99 560.06Z" fill="white"/>
</g>
<g opacity="0.2">
<path d="M425.78 450.43L428.03 462.7H423.52V450.43H425.78Z" fill="black"/>
</g>
<g opacity="0.2">
<path d="M449.02 450.98C449.02 452.73 446.81 452.26 444.08 452.26C441.35 452.26 439.14 452.73 439.14 450.98C439.14 449.23 441.35 447.81 444.08 447.81C446.81 447.81 449.02 449.23 449.02 450.98Z" fill="white"/>
</g>
<g opacity="0.2">
<path d="M445.78 532.57C445.78 535.84 444.4 538.49 442.7 538.49C441 538.49 440.97 535.84 440.97 532.57C440.97 529.3 441 526.65 442.7 526.65C444.4 526.65 445.78 529.3 445.78 532.57Z" fill="white"/>
</g>
<path d="M423.52 447.67V464.93C423.52 466.27 422.43 467.36 421.1 467.36H411.73C410.39 467.36 409.3 466.27 409.3 464.93V447.67C409.3 446.33 410.39 445.25 411.73 445.25H421.1C422.43 445.24 423.52 446.33 423.52 447.67Z" stroke="#0D2232" stroke-width="4" stroke-miterlimit="10" stroke-linecap="round" stroke-linejoin="round"/>
<path d="M433.97 462.7H423.52V450.43H432.39L433.97 462.7Z" stroke="#0D2232" stroke-width="4" stroke-miterlimit="10" stroke-linecap="round" stroke-linejoin="round"/>
<path d="M483.13 460.89C482.98 462.64 480.92 463.51 479.59 462.36C472.12 455.94 461.08 459.56 458.83 468.72C458.45 470.25 457.11 471.33 455.54 471.33H438.07C436.37 471.33 434.93 470.07 434.72 468.38L433.99 462.7L432.41 450.43L431.88 446.29C431.62 444.27 433.2 442.47 435.24 442.47H463.89C475.48 442.48 483.9 451.43 483.13 460.89Z" stroke="#0D2232" stroke-width="4" stroke-miterlimit="10" stroke-linecap="round" stroke-linejoin="round"/>
<path d="M455.23 471.33H439.15V512.37H455.23V471.33Z" stroke="#0D2232" stroke-width="4" stroke-miterlimit="10" stroke-linecap="round" stroke-linejoin="round"/>
<path d="M458.95 515.76V557.05C458.95 558.92 457.43 560.43 455.57 560.43H438.98C438.42 560.43 437.89 560.29 437.43 560.05C436.34 559.49 435.6 558.35 435.6 557.04V515.75C435.6 513.88 437.12 512.37 438.98 512.37H455.57C457.43 512.37 458.95 513.89 458.95 515.76Z" stroke="#0D2232" stroke-width="4" stroke-miterlimit="10" stroke-linecap="round" stroke-linejoin="round"/>
<path d="M477.37 572.22C477.36 572.17 477.36 572.12 477.36 572.07L479.17 488.01C479.18 487.37 479.71 486.87 480.35 486.88L494.81 487.19C495.12 487.2 495.41 487.32 495.62 487.55C495.8 487.73 495.91 487.97 495.93 488.22C495.94 488.27 495.94 488.32 495.94 488.37L494.13 572.43C494.12 573.07 493.59 573.57 492.95 573.56L478.49 573.25C478.18 573.24 477.89 573.12 477.68 572.89C477.5 572.71 477.39 572.47 477.37 572.22Z" fill="#C14854"/>
<path d="M482.959 488.093L481.168 572.156L490.426 572.353L492.217 488.29L482.959 488.093Z" fill="#E8656D"/>
<path opacity="0.5" d="M481.837 484.411L479.963 573.233L481.103 573.257L482.977 484.435L481.837 484.411Z" fill="white"/>
<path d="M474.6 490.14C473.81 489.55 473.05 488.89 472.34 488.19C468.12 484.04 465.76 478.49 465.71 472.56C465.66 466.64 467.92 461.05 472.08 456.83C473.16 455.73 474.35 454.75 475.63 453.9C476.01 453.65 476.5 453.64 476.89 453.89C476.92 453.91 476.94 453.92 476.96 453.94C477.3 454.19 477.47 454.61 477.41 455.03L475.67 466.64L488.62 473.1L498.77 462.78L493.7 453.02C493.48 452.6 493.54 452.09 493.85 451.73C494.16 451.37 494.65 451.24 495.1 451.39C497.29 452.14 499.33 453.22 501.19 454.61C501.98 455.2 502.74 455.86 503.45 456.55C507.67 460.7 510.03 466.25 510.08 472.18C510.13 478.1 507.87 483.69 503.71 487.91C495.95 495.82 483.44 496.77 474.6 490.14Z" fill="#E8656D"/>
<path d="M494.73 452.5L495.53 454.04C496.77 454.82 497.94 455.74 499.03 456.81C507.31 464.95 507.42 478.26 499.28 486.54C494.78 491.12 488.69 493.19 482.75 492.76C489.75 494.52 497.47 492.64 502.89 487.12C511.03 478.84 510.92 465.53 502.64 457.39C500.32 455.12 497.61 453.49 494.73 452.5Z" fill="#C14854"/>
<path opacity="0.5" d="M472.79 483.72C480.74 493.88 491.31 490.41 491.31 490.41C491.31 490.41 483.45 488.59 477.62 482.31C471.53 475.76 469.24 468.8 469.24 468.8C469.24 468.8 467.03 476.36 472.79 483.72Z" fill="white"/>
<path opacity="0.5" d="M474.68 569.9C477.64 566 480.62 566.7 480.62 566.7C480.62 566.7 476.72 570.12 474.55 574.83C472.51 579.26 472.81 586.44 472.81 586.44C472.81 586.44 470.81 581.62 471.09 579.18C471.55 575.2 472.68 572.53 474.68 569.9Z" fill="white"/>
<path d="M477.53 564.08L479.07 492.72" stroke="#0D2232" stroke-width="4" stroke-miterlimit="10" stroke-linecap="round" stroke-linejoin="round"/>
<path d="M495.84 493.11L494.3 564.48" stroke="#0D2232" stroke-width="4" stroke-miterlimit="10" stroke-linecap="round" stroke-linejoin="round"/>
<path d="M474.6 490.14C473.81 489.55 473.05 488.89 472.34 488.19C468.12 484.04 465.76 478.49 465.71 472.56C465.66 466.64 467.92 461.05 472.08 456.83C473.16 455.73 474.35 454.75 475.63 453.9C476.01 453.65 476.5 453.64 476.89 453.89C476.92 453.91 476.94 453.92 476.96 453.94C477.3 454.19 477.47 454.61 477.41 455.03L475.67 466.64L488.62 473.1L498.77 462.78L493.7 453.02C493.48 452.6 493.54 452.09 493.85 451.73C494.16 451.37 494.65 451.24 495.1 451.39C497.29 452.14 499.33 453.22 501.19 454.61C501.98 455.2 502.74 455.86 503.45 456.55C507.67 460.7 510.03 466.25 510.08 472.18C510.13 478.1 507.87 483.69 503.71 487.91C495.95 495.82 483.44 496.77 474.6 490.14Z" stroke="#0D2232" stroke-width="4" stroke-miterlimit="10" stroke-linecap="round" stroke-linejoin="round"/>
<path d="M411.96 516.93V575.09C411.96 575.09 423.53 592.45 446.03 592.45C468.53 592.45 484.6 592.45 484.6 592.45L491.35 583.77C491.35 583.77 496.81 542.95 497.46 527.2C497.46 527.2 435.74 528.85 411.96 516.93Z" fill="#FEC400"/>
<path d="M417.22 519.15V562.81C417.22 570.24 421.42 577.05 428.09 580.31C439.06 585.68 459.07 590.8 491.35 583.78L484.6 592.46L442.65 592.7C442.65 592.7 420.95 589.89 411.95 575.1V516.94L417.22 519.15Z" fill="#E89F02"/>
<path d="M411.96 516.93V570.14C411.96 573.76 413.42 577.22 415.98 579.78C421.13 584.92 431.21 592.45 446.03 592.45H477.53C481.99 592.45 486.2 590.39 488.94 586.87C490.52 584.84 491.53 582.42 491.86 579.87C493.23 569.28 496.93 539.99 497.45 527.2C497.46 527.2 435.74 528.85 411.96 516.93Z" stroke="#0D2232" stroke-width="4" stroke-miterlimit="10" stroke-linecap="round" stroke-linejoin="round"/>
<path d="M411.96 532.02C411.96 532.02 431.66 548.92 495.94 542.49" stroke="#0D2232" stroke-width="4" stroke-miterlimit="10" stroke-linecap="round" stroke-linejoin="round"/>
<path d="M312.47 182.64C300.64 178.6 287.67 179.55 276.55 185.26L272.6 187.29" stroke="#0D2232" stroke-width="12" stroke-miterlimit="10" stroke-linecap="round" stroke-linejoin="round"/>
<path d="M378.54 182.64C390.37 178.6 403.34 179.55 414.46 185.26L418.41 187.29" stroke="#0D2232" stroke-width="12" stroke-miterlimit="10" stroke-linecap="round" stroke-linejoin="round"/>
<path d="M274.39 516.93V576.37C274.39 576.37 249.96 595.01 212.68 592.44C212.68 592.44 197.25 568.01 192.75 527.19C192.74 527.2 257.03 530.78 274.39 516.93Z" stroke="white" stroke-miterlimit="10"/>
<path d="M195.29 543.78C195.29 543.78 248.67 544.24 274.38 532.02" stroke="white" stroke-miterlimit="10"/>
<path d="M208.13 583.81C208.13 583.81 240.31 584.73 258.96 574.45L254.84 524.27L274.39 516.93V576.37C274.39 576.37 252.53 593.73 212.68 592.44L208.13 583.81Z" stroke="white" stroke-miterlimit="10"/>
<path d="M274.56 532.02C274.56 532.02 253.32 548.73 188.96 542.31" stroke="white" stroke-miterlimit="10"/>
<path d="M292.58 492.16V580.88L280.99 592.45H201.83L212.45 584.09L211.8 492.16H292.58Z" fill="#F9DC1B"/>
<path d="M282.92 492.16V575.32L276.17 584.09H195.07L201.83 592.45H280.99L292.58 580.88V492.16H282.92Z" fill="#E89F02"/>
<path d="M280.347 509.667H285.497V504.527H280.347V509.667Z" fill="white"/>
<path d="M280.347 526.082H285.497V520.942H280.347V526.082Z" fill="white"/>
<path d="M280.347 542.488H285.497V537.348H280.347V542.488Z" fill="white"/>
<path d="M280.347 558.903H285.497V553.763H280.347V558.903Z" fill="white"/>
<path d="M280.347 575.319H285.497V570.179H280.347V575.319Z" fill="white"/>
<path d="M211.8 527.2V492.16H292.58V580.88L280.99 592.45L202.89 591.61" stroke="#0D2232" stroke-width="4" stroke-miterlimit="10" stroke-linecap="round" stroke-linejoin="round"/>
<path d="M217.73 462.1L222.4 479.71L219.67 482.62C216.4 477.72 210.36 474.99 204.3 476.22C204.01 476.28 203.72 476.35 203.43 476.42C204.68 475.38 205.59 474.2 206.17 472.98C208.71 467.67 205.37 461.31 199.1 460.17L195.32 445.93C204.81 447.24 211.67 452.3 216.72 459.93C217.19 460.6 217.52 461.33 217.73 462.1Z" fill="#AFCADC"/>
<path d="M219.65 482.93L219.52 482.73C216.22 477.78 210.13 475.24 204.35 476.41C204.08 476.46 203.8 476.53 203.5 476.61L202.66 476.83L203.33 476.27C204.52 475.28 205.43 474.15 206.02 472.89C207.18 470.47 207.13 467.7 205.9 465.29C204.57 462.7 202.09 460.9 199.09 460.35L198.97 460.33L195.09 445.69L195.38 445.73C204.41 446.98 211.46 451.58 216.92 459.81C217.38 460.5 217.72 461.25 217.93 462.04L222.63 479.75L219.65 482.93ZM204.15 476.05C204.19 476.04 204.23 476.03 204.28 476.02C210.13 474.83 216.29 477.35 219.71 482.3L222.2 479.64L217.55 462.14C217.35 461.39 217.03 460.68 216.59 460.02C211.25 451.98 204.39 447.43 195.61 446.15L199.28 459.99C202.34 460.58 204.88 462.44 206.24 465.11C207.53 467.63 207.57 470.52 206.36 473.05C205.84 474.15 205.1 475.16 204.15 476.05Z" fill="#000072"/>
<g opacity="0.55">
<path d="M206.16 475.97C205.55 476.01 204.93 476.1 204.31 476.22C204.02 476.28 203.73 476.35 203.44 476.42C204.69 475.38 205.6 474.2 206.18 472.98C208.72 467.67 205.38 461.31 199.11 460.17L195.33 445.93C196.35 446.07 197.33 446.25 198.28 446.48L201.8 459.73C208.07 460.87 211.41 467.22 208.87 472.54C208.3 473.76 207.4 474.93 206.16 475.97Z" fill="white"/>
</g>
<g opacity="0.55">
<path d="M206.22 475.96L206.13 475.98C206.14 475.97 206.14 475.97 206.15 475.96C206.18 475.96 206.2 475.96 206.22 475.96Z" fill="white"/>
<path d="M206.27 476.15L205.36 476.39L206.1 475.78C206.14 475.77 206.17 475.77 206.19 475.77L207.82 475.73L206.27 476.15Z" fill="#371A45"/>
</g>
<path d="M225.42 491.08L227.7 499.69C227.84 500.22 227.55 500.78 227.05 500.97C227.01 500.98 226.98 500.99 226.94 501L211.36 505.14C209.78 505.56 208.18 505.71 206.61 505.62C201.59 505.32 196.9 502.55 194.36 498.22C193.71 497.12 193.2 495.93 192.86 494.64C192.43 493.03 192.29 491.42 192.39 489.85C192.79 483.64 197.08 478.11 203.43 476.43H203.44C203.73 476.35 204.01 476.29 204.31 476.23C210.37 475 216.41 477.73 219.68 482.63C220.64 484.07 221.35 485.69 221.77 487.45C222.04 488.59 222.16 489.73 222.16 490.85L224.12 490.33C224.48 490.23 224.85 490.34 225.11 490.57C225.25 490.69 225.37 490.87 225.42 491.08Z" fill="#AFCADC"/>
<path d="M226.99 501.19L211.41 505.33C209.84 505.75 208.22 505.91 206.6 505.81C201.48 505.51 196.73 502.64 194.19 498.32C193.52 497.19 193.01 495.97 192.67 494.7C192.25 493.1 192.09 491.47 192.19 489.84C192.61 483.37 197.1 477.91 203.37 476.24C203.7 476.15 203.98 476.09 204.26 476.03C210.18 474.83 216.44 477.43 219.82 482.51C220.81 484 221.52 485.64 221.93 487.39C222.18 488.44 222.31 489.52 222.32 490.59L224.04 490.13C224.45 490.02 224.89 490.12 225.2 490.41C225.39 490.57 225.52 490.79 225.58 491.03L227.86 499.64C228.03 500.27 227.69 500.92 227.09 501.15C227.08 501.16 227.04 501.17 226.99 501.19ZM203.49 476.6C197.37 478.23 192.99 483.55 192.58 489.85C192.47 491.44 192.63 493.03 193.04 494.58C193.37 495.82 193.87 497.01 194.52 498.11C196.99 502.32 201.63 505.12 206.62 505.41C208.2 505.5 209.78 505.35 211.31 504.94L226.89 500.8C226.92 500.79 226.95 500.78 226.98 500.77C227.4 500.61 227.63 500.16 227.52 499.72L225.24 491.11C225.2 490.94 225.1 490.79 224.97 490.68C224.75 490.48 224.45 490.41 224.16 490.48L221.96 491.06V490.81C221.96 489.69 221.83 488.56 221.57 487.45C221.17 485.74 220.48 484.14 219.51 482.69C216.21 477.74 210.12 475.2 204.34 476.37C204.08 476.46 203.8 476.52 203.49 476.6Z" fill="#000072"/>
<g opacity="0.3">
<path d="M217.73 462.1L222.4 479.71L219.67 482.62C219.49 482.35 219.3 482.08 219.1 481.82C215.73 477.42 210.03 475.05 204.3 476.22C204.01 476.28 203.72 476.35 203.43 476.42C204.68 475.38 205.59 474.2 206.17 472.98C206.25 472.95 206.34 472.93 206.42 472.91H206.44C206.72 472.84 207.01 472.77 207.31 472.71C209.95 472.17 212.58 472.39 214.98 473.21C216.44 473.71 217.86 472.41 217.47 470.92L215.41 463.17C215.21 462.4 214.87 461.67 214.43 461C209.87 454.12 203.84 449.33 195.75 447.5L195.34 445.95C204.83 447.26 211.69 452.32 216.74 459.95C217.19 460.6 217.52 461.33 217.73 462.1Z" fill="black"/>
<path d="M219.65 482.93L219.52 482.73C219.34 482.45 219.15 482.19 218.96 481.95C215.54 477.48 209.81 475.31 204.35 476.42C204.08 476.47 203.8 476.54 203.5 476.62L202.66 476.84L203.33 476.28C204.52 475.29 205.43 474.16 206.02 472.9L206.06 472.82L206.14 472.79C206.54 472.66 206.95 472.58 207.29 472.51C209.87 471.99 212.55 472.16 215.06 473.01C215.68 473.22 216.34 473.08 216.82 472.64C217.29 472.2 217.47 471.58 217.3 470.96L215.24 463.21C215.04 462.47 214.72 461.76 214.28 461.09C209.44 453.79 203.37 449.4 195.71 447.67L195.6 447.64L195.08 445.7L195.37 445.74C204.4 446.99 211.45 451.59 216.91 459.82C217.37 460.51 217.71 461.26 217.92 462.05L222.62 479.76L219.65 482.93ZM204.15 476.05C204.19 476.04 204.23 476.03 204.28 476.02C209.88 474.88 215.76 477.11 219.27 481.7C219.42 481.89 219.57 482.09 219.71 482.31L222.2 479.65L217.55 462.15C217.35 461.4 217.03 460.69 216.59 460.03C211.25 451.99 204.39 447.44 195.61 446.16L195.92 447.32C203.62 449.09 209.73 453.53 214.61 460.88C215.07 461.58 215.41 462.33 215.62 463.11L217.68 470.86C217.88 471.62 217.66 472.39 217.09 472.92C216.51 473.46 215.71 473.63 214.94 473.38C212.5 472.55 209.88 472.38 207.37 472.89C207.1 472.94 206.79 473.01 206.51 473.09C206.45 473.11 206.39 473.12 206.34 473.14C205.81 474.2 205.08 475.18 204.15 476.05Z" fill="#371A45"/>
</g>
<g opacity="0.55">
<path d="M214.32 477.74C211.9 476.9 209.23 476.67 206.56 477.21C206.27 477.27 205.98 477.34 205.69 477.41H205.68C199.34 479.09 195.05 484.63 194.64 490.83C194.54 492.4 194.68 494.02 195.11 495.62C195.45 496.9 195.96 498.1 196.61 499.2C198.01 501.58 200.05 503.49 202.45 504.77C199.1 503.6 196.18 501.3 194.36 498.2C193.71 497.1 193.2 495.91 192.86 494.62C192.43 493.01 192.29 491.4 192.39 489.83C192.79 483.62 197.08 478.09 203.43 476.41H203.44C203.73 476.33 204.01 476.27 204.31 476.21C207.83 475.5 211.35 476.13 214.32 477.74Z" fill="white"/>
</g>
<path d="M207.26 498.7C211.612 498.7 215.14 495.172 215.14 490.82C215.14 486.468 211.612 482.94 207.26 482.94C202.908 482.94 199.38 486.468 199.38 490.82C199.38 495.172 202.908 498.7 207.26 498.7Z" fill="#CECEDD"/>
<g opacity="0.55">
<path d="M217.34 490.23C218.46 494.44 215.95 498.75 211.75 499.87C209.15 500.56 206.51 499.87 204.6 498.24C206.05 498.76 207.67 498.86 209.28 498.44C213.49 497.32 215.99 493.01 214.87 488.8C214.44 487.2 213.55 485.84 212.38 484.84C214.74 485.68 216.65 487.63 217.34 490.23Z" fill="white"/>
</g>
<g opacity="0.3">
<path d="M212.06 484.57C210.77 484.21 209.37 484.19 207.98 484.56C203.77 485.68 201.27 489.99 202.39 494.2C202.85 495.95 203.87 497.4 205.21 498.42C202.58 497.71 200.4 495.66 199.65 492.84C198.53 488.63 201.04 484.32 205.24 483.2C207.7 482.55 210.19 483.13 212.06 484.57Z" fill="black"/>
<path d="M206.09 498.86L205.15 498.61C202.37 497.86 200.19 495.67 199.45 492.89C198.31 488.59 200.88 484.16 205.18 483.02C207.62 482.37 210.17 482.88 212.17 484.42L212.95 485.02L212 484.76C210.71 484.4 209.34 484.4 208.02 484.75C203.92 485.84 201.47 490.06 202.56 494.15C203 495.8 203.95 497.23 205.31 498.27L206.09 498.86ZM205.29 483.39C201.19 484.48 198.74 488.7 199.83 492.79C200.45 495.12 202.14 497.02 204.34 497.93C203.31 496.92 202.58 495.67 202.2 494.25C201.06 489.95 203.63 485.52 207.93 484.38C208.98 484.1 210.08 484.04 211.14 484.19C209.38 483.15 207.29 482.85 205.29 483.39Z" fill="#371A45"/>
</g>
<path d="M211.08 505.21L214.69 518.81C215.17 520.61 216.22 522.22 217.68 523.38L232.44 535.12C234.87 537.05 236.61 539.71 237.4 542.7L244.77 570.48C245.24 572.26 247.29 573.07 248.87 572.11C252.53 569.88 255.37 567.3 256.91 564.16C258.15 561.63 258.35 558.71 257.62 555.98L252.03 534.94C251.47 532.83 250.35 530.92 248.79 529.39L239.03 519.85C237.12 517.98 235.99 515.44 235.96 512.77C235.93 509.75 236.52 506.39 237.47 502.83C238.06 500.61 236.04 498.58 233.82 499.17L211.08 505.21Z" fill="#F9DC1B"/>
<path d="M252.04 534.93L257.63 555.98C258.35 558.71 258.16 561.63 256.92 564.16C255.38 567.3 252.53 569.88 248.87 572.11C247.79 572.77 246.49 572.59 245.63 571.85C248.71 569.8 251.11 567.45 252.48 564.66C253.72 562.13 253.92 559.21 253.19 556.48L247.6 535.43C247.04 533.32 245.92 531.41 244.36 529.88L234.6 520.34C232.69 518.47 231.57 515.93 231.54 513.26C231.51 510.24 232.1 506.88 233.05 503.32C233.45 501.81 232.64 500.38 231.38 499.82L233.85 499.17C236.07 498.58 238.09 500.61 237.5 502.83C236.55 506.39 235.96 509.75 235.99 512.77C236.02 515.44 237.15 517.98 239.05 519.85L248.81 529.39C250.36 530.91 251.48 532.83 252.04 534.93Z" fill="#E89F02"/>
<g opacity="0.55">
<path d="M247.99 571.61C248.06 571.88 248.17 572.14 248.31 572.36C246.84 572.86 245.19 572.05 244.77 570.47L237.4 542.69C236.61 539.7 234.87 537.04 232.44 535.11L217.68 523.37C216.22 522.21 215.17 520.61 214.69 518.8L211.08 505.2L233.85 499.16C235.14 498.82 236.35 499.36 237.04 500.3L214.3 506.33L217.91 519.93C218.39 521.74 219.44 523.34 220.9 524.5L235.66 536.24C238.08 538.17 239.82 540.83 240.62 543.82L247.99 571.61Z" fill="white"/>
</g>
<path d="M211.08 505.21L214.69 518.81C215.17 520.61 215.05 522.52 214.36 524.26L207.36 541.77C206.21 544.65 206.02 547.82 206.81 550.82L214.18 578.6C214.65 580.38 213.27 582.1 211.43 582.04C207.15 581.92 203.4 581.09 200.5 579.13C198.16 577.55 196.55 575.11 195.82 572.38L190.23 551.34C189.67 549.23 189.69 547.02 190.29 544.92L194.03 531.8C194.76 529.23 194.48 526.47 193.18 524.13C191.71 521.49 189.53 518.86 186.94 516.24C185.33 514.61 186.08 511.85 188.29 511.26L211.08 505.21Z" fill="#F9DC1B"/>
<path d="M211.08 505.21L214.69 518.81C215.17 520.62 215.05 522.53 214.36 524.26L207.36 541.77C206.21 544.65 206.02 547.82 206.81 550.82L214.18 578.6C214.65 580.38 213.27 582.1 211.43 582.05C210.64 582.03 209.86 581.98 209.1 581.9C209.43 581.31 209.54 580.6 209.35 579.88L201.98 552.1C201.19 549.11 201.38 545.93 202.53 543.05L209.53 525.54C210.22 523.81 210.34 521.9 209.86 520.09L206.25 506.49L211.08 505.21Z" fill="#E89F02"/>
<g opacity="0.55">
<path d="M190.92 517.17C193.51 519.79 195.69 522.42 197.16 525.06C198.46 527.39 198.74 530.16 198.01 532.73L194.27 545.85C193.67 547.95 193.65 550.17 194.21 552.27L199.8 573.32C200.52 576.05 202.14 578.49 204.47 580.07C205.5 580.77 206.64 581.32 207.87 581.75C205.06 581.35 202.57 580.53 200.51 579.13C198.18 577.55 196.56 575.11 195.84 572.38L190.25 551.33C189.69 549.22 189.71 547 190.31 544.91L194.05 531.79C194.78 529.22 194.5 526.46 193.2 524.13C191.73 521.49 189.55 518.86 186.96 516.24C185.35 514.61 186.1 511.84 188.31 511.26L211.07 505.21L211.56 507.07L192.26 512.2C190.06 512.78 189.31 515.54 190.92 517.17Z" fill="white"/>
</g>
<path d="M206.61 505.61L206.8 506.34L193.92 509.76L191.56 500.88C191.3 499.89 191.89 498.87 192.88 498.61L194.35 498.22C196.9 502.54 201.59 505.32 206.61 505.61Z" fill="#AFCADC"/>
<path d="M207.04 506.48L193.79 510L191.38 500.93C191.09 499.84 191.74 498.71 192.84 498.42L194.45 497.99L194.52 498.12C196.99 502.33 201.63 505.13 206.62 505.42L206.76 505.43L207.04 506.48ZM194.06 509.53L206.57 506.21L206.46 505.8C201.45 505.46 196.8 502.65 194.27 498.44L192.94 498.79C192.05 499.03 191.52 499.94 191.76 500.83L194.06 509.53Z" fill="#000072"/>
<g opacity="0.55">
<path d="M194.48 498.18C194.68 498.53 194.91 498.87 195.14 499.2L195.01 499.24C194.02 499.5 193.43 500.52 193.69 501.51L195.75 509.28L194.04 509.73L191.68 500.85C191.42 499.86 192.01 498.84 193 498.58L194.48 498.18Z" fill="white"/>
</g>
<path d="M203.43 476.42C197.09 478.1 192.8 483.64 192.39 489.84L188.59 488.67L183.92 471.06C183.71 470.29 183.64 469.49 183.7 468.69C184.31 459.56 187.75 451.76 195.34 445.92L199.12 460.16C193.11 465.21 194.89 474.94 203.43 476.42Z" fill="#AFCADC"/>
<path d="M192.57 490.1L188.44 488.83L183.74 471.12C183.53 470.33 183.45 469.51 183.51 468.68C184.17 458.83 188 451.33 195.23 445.77L195.46 445.59L199.34 460.23L199.25 460.31C196.36 462.73 195.15 466.39 196.08 469.85C196.98 473.19 199.74 475.57 203.47 476.22L204.33 476.37L203.48 476.59C197.37 478.21 192.99 483.54 192.59 489.84L192.57 490.1ZM188.75 488.53L192.21 489.6C192.7 483.49 196.83 478.32 202.63 476.46C199.14 475.61 196.57 473.22 195.7 469.97C194.74 466.4 195.97 462.63 198.9 460.11L195.23 446.27C188.24 451.74 184.53 459.09 183.89 468.72C183.84 469.51 183.91 470.29 184.11 471.03L188.75 488.53Z" fill="#000072"/>
<g opacity="0.3">
<path d="M200.76 477.41C200.81 477.39 200.86 477.36 200.91 477.34C200.93 477.34 200.95 477.35 200.97 477.35C200.9 477.37 200.83 477.39 200.76 477.41Z" fill="#262F6A"/>
<path d="M200.82 477.6L200.67 477.25C200.72 477.22 200.78 477.2 200.83 477.17L200.88 477.15L200.98 477.16L201.78 477.32L201.02 477.53C200.95 477.56 200.88 477.58 200.82 477.6Z" fill="#371A45"/>
</g>
<g opacity="0.3">
<path d="M201.31 475.84C201.9 476.07 201.91 476.9 201.32 477.16C201.18 477.22 201.04 477.28 200.91 477.35C192.42 475.83 190.04 466.03 196.03 461L192.65 448.26C193.48 447.45 194.38 446.68 195.35 445.94L199.13 460.18C193.65 464.76 194.63 473.24 201.31 475.84Z" fill="#262F6A"/>
<path d="M200.93 477.54L200.87 477.53C196.82 476.8 193.81 474.15 192.82 470.43C191.89 466.94 193.03 463.3 195.81 460.92L192.43 448.19L192.51 448.11C193.35 447.3 194.26 446.51 195.22 445.77L195.45 445.59L199.33 460.23L199.24 460.31C196.61 462.52 195.35 465.77 195.89 469.01C196.39 472.07 198.39 474.5 201.38 475.66C201.72 475.8 201.94 476.11 201.95 476.48C201.96 476.86 201.75 477.18 201.4 477.33C201.26 477.39 201.13 477.45 200.99 477.52L200.93 477.54ZM192.86 448.31L196.24 461.06L196.15 461.14C193.42 463.43 192.29 466.95 193.19 470.34C194.14 473.89 197.01 476.43 200.87 477.15C200.99 477.09 201.11 477.04 201.24 476.98C201.48 476.88 201.56 476.66 201.56 476.49C201.56 476.28 201.44 476.1 201.24 476.02C198.13 474.81 196.04 472.28 195.51 469.08C194.96 465.75 196.23 462.4 198.9 460.11L195.23 446.27C194.4 446.91 193.6 447.6 192.86 448.31Z" fill="#371A45"/>
</g>
<g opacity="0.55">
<path d="M195.34 445.93L195.88 447.98C189.81 453.58 186.98 460.7 186.43 468.9C186.38 469.7 186.45 470.5 186.65 471.27L191.32 488.88L192.43 489.22C192.41 489.43 192.39 489.64 192.38 489.85L188.58 488.68L183.91 471.07C183.7 470.3 183.63 469.5 183.69 468.7C184.31 459.57 187.75 451.77 195.34 445.93Z" fill="white"/>
</g>
<g opacity="0.2">
<path d="M225.42 491.08L227.7 499.69C227.84 500.22 227.55 500.78 227.05 500.97L214.14 504.4C220.39 501.37 223.44 497.06 222.67 491.2L225.1 490.56C225.25 490.69 225.37 490.87 225.42 491.08Z" fill="black"/>
</g>
<path d="M206.61 505.61L206.8 506.34L193.92 509.76L191.56 500.88C191.3 499.89 191.89 498.87 192.88 498.61L194.35 498.22C196.9 502.54 201.59 505.32 206.61 505.61Z" stroke="#0D2232" stroke-width="4" stroke-miterlimit="10" stroke-linecap="round" stroke-linejoin="round"/>
<path d="M211.08 505.21L214.69 518.81C215.17 520.61 216.22 522.22 217.68 523.38L232.44 535.12C234.87 537.05 236.61 539.71 237.4 542.7L244.77 570.48C245.24 572.26 247.29 573.07 248.87 572.11C252.53 569.88 255.37 567.3 256.91 564.16C258.15 561.63 258.35 558.71 257.62 555.98L252.03 534.94C251.47 532.83 250.35 530.92 248.79 529.39L239.03 519.85C237.12 517.98 235.99 515.44 235.96 512.77C235.93 509.75 236.52 506.39 237.47 502.83C238.06 500.61 236.04 498.58 233.82 499.17L211.08 505.21Z" stroke="#0D2232" stroke-width="4" stroke-miterlimit="10" stroke-linecap="round" stroke-linejoin="round"/>
<path d="M211.08 505.21L214.69 518.81C215.17 520.61 215.05 522.52 214.36 524.26L207.36 541.77C206.21 544.65 206.02 547.82 206.81 550.82L214.18 578.6C214.65 580.38 213.27 582.1 211.43 582.04C207.15 581.92 203.4 581.09 200.5 579.13C198.16 577.55 196.55 575.11 195.82 572.38L190.23 551.34C189.67 549.23 189.69 547.02 190.29 544.92L194.03 531.8C194.76 529.23 194.48 526.47 193.18 524.13C191.71 521.49 189.53 518.86 186.94 516.24C185.33 514.61 186.08 511.85 188.29 511.26L211.08 505.21Z" stroke="#0D2232" stroke-width="4" stroke-miterlimit="10" stroke-linecap="round" stroke-linejoin="round"/>
<path d="M217.73 462.1L222.4 479.71L219.67 482.62C216.4 477.72 210.36 474.99 204.3 476.22C204.01 476.28 203.72 476.35 203.43 476.42C204.68 475.38 205.59 474.2 206.17 472.98C208.71 467.67 205.37 461.31 199.1 460.17L195.32 445.93C204.81 447.24 211.67 452.3 216.72 459.93C217.19 460.6 217.52 461.33 217.73 462.1Z" stroke="#0D2232" stroke-width="4" stroke-miterlimit="10" stroke-linecap="round" stroke-linejoin="round"/>
<path d="M225.42 491.08L227.7 499.69C227.84 500.22 227.55 500.78 227.05 500.97C227.01 500.98 226.98 500.99 226.94 501L211.36 505.14C209.78 505.56 208.18 505.71 206.61 505.62C201.59 505.32 196.9 502.55 194.36 498.22C193.71 497.12 193.2 495.93 192.86 494.64C192.43 493.03 192.29 491.42 192.39 489.85C192.79 483.64 197.08 478.11 203.43 476.43H203.44C203.73 476.35 204.01 476.29 204.31 476.23C210.37 475 216.41 477.73 219.68 482.63C220.64 484.07 221.35 485.69 221.77 487.45C222.04 488.59 222.16 489.73 222.16 490.85L224.12 490.33C224.48 490.23 224.85 490.34 225.11 490.57C225.25 490.69 225.37 490.87 225.42 491.08Z" stroke="#0D2232" stroke-width="4" stroke-miterlimit="10" stroke-linecap="round" stroke-linejoin="round"/>
<path d="M203.43 476.42C197.09 478.1 192.8 483.64 192.39 489.84L188.59 488.67L183.92 471.06C183.71 470.29 183.64 469.49 183.7 468.69C184.31 459.56 187.75 451.76 195.34 445.92L199.12 460.16C193.11 465.21 194.89 474.94 203.43 476.42Z" stroke="#0D2232" stroke-width="4" stroke-miterlimit="10" stroke-linecap="round" stroke-linejoin="round"/>
<path d="M207.26 498.7C211.612 498.7 215.14 495.172 215.14 490.82C215.14 486.468 211.612 482.94 207.26 482.94C202.908 482.94 199.38 486.468 199.38 490.82C199.38 495.172 202.908 498.7 207.26 498.7Z" stroke="#0D2232" stroke-width="4" stroke-miterlimit="10" stroke-linecap="round" stroke-linejoin="round"/>
<path d="M259.57 522.67H239.02C236.83 522.67 235.05 520.89 235.05 518.7V517.57C235.05 515.38 236.83 513.6 239.02 513.6H259.57C261.76 513.6 263.54 515.38 263.54 517.57V518.7C263.54 520.9 261.76 522.67 259.57 522.67Z" fill="#F9DC1B"/>
<path d="M257.911 522.67H240.771V529.75H257.911V522.67Z" fill="#F9DC1B"/>
<path d="M251.07 574.23H247.52C240.63 574.23 235.05 568.65 235.05 561.76V533.9C235.05 531.61 236.9 529.76 239.19 529.76H259.4C261.69 529.76 263.54 531.61 263.54 533.9V561.76C263.54 568.64 257.96 574.23 251.07 574.23Z" fill="#F9DC1B"/>
<path d="M263.54 516.65V519.63C263.54 521.31 262.18 522.67 260.5 522.67H255.5C257.18 522.67 258.54 521.31 258.54 519.63V516.65C258.54 514.97 257.18 513.61 255.5 513.61H260.5C262.18 513.61 263.54 514.97 263.54 516.65Z" fill="#E89F02"/>
<path d="M257.91 522.68H252.91V529.76H257.91V522.68Z" fill="#E89F02"/>
<path d="M263.54 532.78V560.4C263.54 568.04 257.35 574.23 249.71 574.23H249.44C254.47 574.23 258.55 570.15 258.55 565.12V532.78C258.55 531.11 257.2 529.76 255.53 529.76H260.53C262.19 529.75 263.54 531.11 263.54 532.78Z" fill="#E89F02"/>
<g opacity="0.55">
<path d="M241.631 522.68H238.101C236.421 522.68 235.061 521.32 235.061 519.64V516.66C235.061 514.98 236.421 513.62 238.101 513.62H241.631C239.951 513.62 238.591 514.98 238.591 516.66V519.64C238.591 521.31 239.951 522.68 241.631 522.68Z" fill="white"/>
</g>
<g opacity="0.55">
<path d="M244.301 522.68H240.771V529.76H244.301V522.68Z" fill="white"/>
</g>
<g opacity="0.55">
<path d="M247.701 574.23H244.171C239.141 574.23 235.061 570.15 235.061 565.12V532.78C235.061 531.11 236.411 529.76 238.081 529.76H241.611C239.941 529.76 238.591 531.11 238.591 532.78V565.12C238.591 570.15 242.661 574.23 247.701 574.23Z" fill="white"/>
</g>
<path d="M259.23 474.9L256.92 482.08H253.93V513.61H244.99V482.08H242.01L239.69 474.9L243.33 454.36H255.59L259.23 474.9Z" fill="#AFCADC"/>
<path d="M254.1 513.77H244.82V482.24H241.88L239.51 474.91L239.52 474.87L243.19 454.19H255.72L259.4 474.91L257.03 482.24H254.09V513.77H254.1ZM245.16 513.44H253.77V481.91H256.8L259.07 474.89L255.46 454.53H243.48L239.87 474.89L242.14 481.91H245.17V513.44H245.16Z" fill="#000072"/>
<g opacity="0.2">
<path d="M253.11 482.08H253.93V513.61H251.17V484.02C251.17 482.95 252.04 482.08 253.11 482.08Z" fill="black"/>
</g>
<g opacity="0.2">
<path d="M259.23 474.9L256.92 482.08H254.16L256.47 474.9L252.83 454.36H255.59L259.23 474.9Z" fill="black"/>
</g>
<g opacity="0.55">
<path d="M242.551 474.9L244.871 482.08H242.341L240.021 474.9L243.661 454.36H246.191L242.551 474.9Z" fill="white"/>
</g>
<g opacity="0.55">
<path d="M247.85 483.73V513.61H245.32V482.08H246.2C247.11 482.08 247.85 482.82 247.85 483.73Z" fill="white"/>
</g>
<g opacity="0.2">
<path d="M248.941 548.77C248.941 552.43 247.401 555.4 245.491 555.4C243.591 555.4 243.561 552.43 243.561 548.77C243.561 545.11 243.591 542.14 245.491 542.14C247.401 542.15 248.941 545.12 248.941 548.77Z" fill="white"/>
</g>
<path d="M259.57 522.67H239.02C236.83 522.67 235.05 520.89 235.05 518.7V517.57C235.05 515.38 236.83 513.6 239.02 513.6H259.57C261.76 513.6 263.54 515.38 263.54 517.57V518.7C263.54 520.9 261.76 522.67 259.57 522.67Z" stroke="#0D2232" stroke-width="4" stroke-miterlimit="10" stroke-linecap="round" stroke-linejoin="round"/>
<path d="M257.911 522.67H240.771V529.75H257.911V522.67Z" stroke="#0D2232" stroke-width="4" stroke-miterlimit="10" stroke-linecap="round" stroke-linejoin="round"/>
<path d="M251.07 574.23H247.52C240.63 574.23 235.05 568.65 235.05 561.76V533.9C235.05 531.61 236.9 529.76 239.19 529.76H259.4C261.69 529.76 263.54 531.61 263.54 533.9V561.76C263.54 568.64 257.96 574.23 251.07 574.23Z" stroke="#0D2232" stroke-width="4" stroke-miterlimit="10" stroke-linecap="round" stroke-linejoin="round"/>
<path d="M259.23 474.9L256.92 482.08H253.93V513.61H244.99V482.08H242.01L239.69 474.9L243.33 454.36H255.59L259.23 474.9Z" stroke="#0D2232" stroke-width="4" stroke-miterlimit="10" stroke-linecap="round" stroke-linejoin="round"/>
<path d="M274.56 516.93V575.09C274.56 575.09 262.97 592.45 240.45 592.45C217.93 592.45 201.83 592.45 201.83 592.45L195.07 583.77C195.07 583.77 189.6 542.95 188.96 527.2C188.95 527.2 250.74 528.85 274.56 516.93Z" fill="#FEC400"/>
<path d="M269.29 519.15V562.81C269.29 570.24 265.09 577.05 258.41 580.31C247.42 585.68 227.39 590.8 195.08 583.78L201.84 592.46L243.84 592.7C243.84 592.7 265.56 589.89 274.57 575.1V516.94L269.29 519.15Z" fill="#E89F02"/>
<path d="M274.56 516.93V571.29C274.56 574 273.53 576.6 271.69 578.58C266.97 583.65 256.48 592.44 240.45 592.44H207.05C203.76 592.44 200.65 590.92 198.63 588.32L196.86 586.05C195.69 584.55 194.94 582.76 194.7 580.88C193.45 571.3 189.51 540.41 188.97 527.19C188.95 527.2 250.74 528.85 274.56 516.93Z" stroke="#0D2232" stroke-width="4" stroke-miterlimit="10" stroke-linecap="round" stroke-linejoin="round"/>
<path d="M274.559 532.02C274.559 532.02 254.839 548.92 190.479 542.49" stroke="#0D2232" stroke-width="4" stroke-miterlimit="10" stroke-linecap="round" stroke-linejoin="round"/>
<path d="M89.2401 389.36L195.66 394.28V346.12L86.5801 352.81L89.2401 389.36Z" fill="#FBC6A6"/>
<path opacity="0.16" d="M196.48 353.72L88.8901 359.34V351.74L196.48 346.12V353.72Z" fill="black"/>
<path opacity="0.5" d="M91.8901 381.22L195.66 386.94V394.28L91.8901 388.56V381.22Z" fill="white"/>
<path d="M90.4999 388.88L195.66 394.28V346.12L85.4199 351.92L90.4999 388.88Z" stroke="#0D2232" stroke-width="6" stroke-miterlimit="10"/>
<path d="M61.0602 360.48C61.0602 360.5 60.7702 360.57 60.2502 360.66C57.0102 361.23 45.1602 362.88 45.1602 362.88L48.5602 389.17L75.2701 391.84L79.1402 371.89L61.0602 360.48Z" fill="#FBC6A6"/>
<path opacity="0.16" d="M61.0602 360.48C61.0602 360.5 60.7702 360.57 60.2502 360.66C57.0102 361.23 45.1602 362.88 45.1602 362.88L48.5602 389.17L75.2701 391.84L79.1402 371.89L61.0602 360.48Z" fill="black"/>
<path d="M60.2898 385.27C59.1598 384.15 57.1898 384 55.6698 383.87C53.8298 383.71 51.9798 383.67 50.1398 383.71C47.8598 383.76 45.5898 383.67 44.2598 381.62C42.0298 378.17 43.0498 373.17 43.7398 369.42C44.1498 367.23 44.6698 365.07 45.1498 362.89C45.5698 361 45.7898 358.85 44.3698 357.28C42.5698 355.27 36.6298 352.81 34.8598 355.98C34.4598 356.69 34.9798 357.03 35.5498 356.97C33.4598 361.88 31.3298 366.79 29.6998 371.86C28.2098 376.51 26.4898 381.79 27.1598 386.72C27.7898 391.32 31.1198 394.25 35.7298 395.05C37.8098 395.41 39.9098 395.47 42.0098 395.42C44.5798 395.36 47.1598 395.36 49.7198 395.13C53.9198 394.74 58.2298 393.69 60.3098 389.79C61.0598 388.42 61.5298 386.49 60.2898 385.27Z" fill="#FBC6A6"/>
<path opacity="0.16" d="M57.6198 385.87C56.4898 384.75 54.5198 384.6 52.9998 384.47C51.1598 384.31 49.3098 384.27 47.4698 384.31C45.1898 384.36 42.9198 384.27 41.5898 382.22C39.3598 378.77 40.3798 373.77 41.0698 370.02C41.4798 367.83 41.9998 365.67 42.4798 363.49C42.8998 361.59 43.1198 359.45 41.6998 357.88C41.0898 357.2 40.0098 356.48 38.7698 355.93C39.7498 356.75 40.3898 357.94 40.4198 359.6C40.4798 362.92 38.7198 366.24 37.2998 369.16C35.7198 372.42 34.2498 375.49 33.5698 379.07C32.7898 383.21 32.8898 387.81 35.1798 391.52C36.4098 393.51 38.1598 394.96 40.1798 396C42.4698 395.96 44.7698 395.94 47.0598 395.72C51.2598 395.33 55.5698 394.28 57.6498 390.38C58.3898 389.03 58.8598 387.1 57.6198 385.87Z" fill="black"/>
<path d="M70.24 386.36C69.11 385.24 67.14 385.09 65.62 384.96C63.78 384.8 61.93 384.76 60.09 384.8C57.81 384.85 55.54 384.76 54.21 382.71C51.98 379.26 53 374.26 53.69 370.51C54.1 368.32 54.62 366.16 55.1 363.98C55.52 362.09 55.74 359.94 54.32 358.37C52.52 356.36 46.58 353.9 44.81 357.07C44.41 357.78 44.93 358.12 45.5 358.06C43.41 362.97 41.28 367.88 39.65 372.96C38.16 377.61 36.44 382.89 37.11 387.82C37.74 392.42 41.07 395.35 45.68 396.15C47.76 396.51 49.86 396.57 51.96 396.52C54.53 396.46 57.11 396.46 59.67 396.23C63.87 395.84 68.18 394.79 70.26 390.9C71.01 389.51 71.48 387.58 70.24 386.36Z" fill="#FBC6A6"/>
<path opacity="0.16" d="M44.1802 359.26C44.0002 359.69 43.8202 360.11 43.6402 360.54C46.9802 360.84 50.4802 361.57 51.8502 364.64C54.6002 370.83 44.4502 384.73 55.0802 386.82C58.2402 387.44 62.2602 386.63 66.0802 386.38C65.4702 386.28 64.8502 386.21 64.2902 386.16C62.4502 386 60.6002 385.96 58.7602 386C56.4802 386.05 54.2102 385.96 52.8802 383.91C50.6502 380.46 51.6702 375.46 52.3602 371.71C52.7702 369.52 53.2902 367.36 53.7702 365.18C54.1902 363.29 54.4102 361.14 52.9902 359.57C51.1902 357.56 45.2502 355.1 43.4802 358.27C43.0902 358.98 43.6102 359.32 44.1802 359.26Z" fill="black"/>
<path d="M92.73 353.7C92.04 353.37 91.3299 353.08 90.6199 352.81C90.0999 352.49 89.5699 352.19 89.0199 351.92C83.5999 349.29 77.1 348.94 71.17 348.34C63.96 347.61 56.7999 346.51 49.5799 345.87C45.9499 345.55 42.28 345.05 38.63 344.99C35.24 344.93 31.86 345.34 28.49 345.73C21.27 346.57 24.0199 346.76 16.7599 346.79C13.1099 346.8 9.45995 346.83 5.80995 346.76C3.77995 346.72 1.49994 346.52 0.429945 348.59C-0.620055 350.63 0.969949 352.8 2.44995 354.18C4.06995 355.69 6.20995 356.55 8.36995 357.04C13.3399 358.17 18.4799 357.63 23.5399 357.83C30.8699 358.13 28.2099 358.01 35.5299 358.43C38.7999 358.62 41.8899 358.78 44.7599 360.43C47.0399 361.74 49.0099 363.51 51.0799 365.11C53.4299 366.93 56.11 368.25 58.63 369.84C61.1 371.41 64.1299 373.4 64.8699 376.35C65.5699 379.12 64.74 382.15 64.26 384.89C63.69 388.13 62.98 391.34 62.01 394.49C61.13 397.35 59.9799 400.02 58.6499 402.7C57.4899 405.06 56.15 407.57 56.35 410.26C56.51 412.5 57.7699 414.67 59.9899 415.53C62.2099 416.39 64.72 415.68 66.57 414.35C70.96 411.19 72.5 405.89 75.1 401.48C76.28 399.48 77.0999 397.4 78.1099 395.32C78.5899 394.32 79.1799 393.28 80.0499 392.55C81.0599 391.71 82.48 391.37 83.75 391.08C89.04 389.88 95.05 390.22 99.7 387.12C103.39 384.66 104.99 380.28 105.4 376.12C106.32 366.74 101.56 357.89 92.73 353.7Z" fill="#FBC6A6"/>
<path opacity="0.16" d="M92.7298 353.7C92.0398 353.37 91.3298 353.08 90.6198 352.81C90.0998 352.49 89.5698 352.19 89.0198 351.92C85.2698 350.1 80.9898 349.38 76.7498 348.91C80.6598 351.61 83.4398 356.01 85.2798 360.2C87.9698 366.32 88.8898 373.7 87.9998 380.28C87.6098 383.19 86.7898 386.19 84.7698 388.46C82.0798 391.49 77.4298 391.41 74.9498 394.74C72.5498 397.96 71.5698 401.95 69.8198 405.5C68.3998 408.38 66.6898 411.59 63.6898 413.19C61.8598 414.17 59.4798 414.43 57.5698 413.67C58.1698 414.48 58.9698 415.15 59.9798 415.54C62.1998 416.4 64.7098 415.69 66.5598 414.36C70.9498 411.2 72.4898 405.9 75.0898 401.49C76.2698 399.49 77.0898 397.41 78.0998 395.33C78.5798 394.33 79.1698 393.29 80.0398 392.56C81.0498 391.72 82.4698 391.38 83.7398 391.09C89.0298 389.89 95.0398 390.23 99.6898 387.13C103.38 384.67 104.98 380.29 105.39 376.13C106.32 366.74 101.56 357.89 92.7298 353.7Z" fill="black"/>
<path opacity="0.16" d="M47.5199 359.98C43.2599 356.97 38.2698 355.21 33.0898 354.4C29.4398 353.83 25.7298 353.8 22.0398 353.72C17.9898 353.63 23.9299 353.62 19.8799 353.66C14.8599 353.71 9.76985 354.14 4.91985 352.57C3.14985 352 1.53984 351.13 0.339844 349.98C0.739844 351.12 1.60985 352.17 2.45985 352.96C4.07985 354.47 6.21985 355.33 8.37985 355.82C13.3499 356.95 18.4899 356.41 23.5499 356.61C30.8799 356.91 28.2198 356.79 35.5398 357.21C38.8098 357.4 41.8999 357.56 44.7699 359.21C47.0499 360.52 49.0198 362.29 51.0898 363.89C51.7898 364.43 52.5298 364.93 53.2798 365.4C51.6098 363.38 49.7099 361.53 47.5199 359.98Z" fill="black"/>
<path d="M34.4398 358.38C32.3498 363.29 31.3498 366.78 29.7198 371.85C28.2298 376.5 26.5098 381.78 27.1798 386.71C27.8098 391.31 31.1398 394.24 35.7498 395.04C37.8298 395.4 41.9398 395.78 44.0398 395.73" stroke="#0D2232" stroke-width="6" stroke-miterlimit="10"/>
<path d="M64.25 384.89C62.41 384.73 61.93 384.75 60.09 384.79C57.81 384.84 55.54 384.75 54.21 382.7C51.98 379.25 53 374.25 53.69 370.5C54.1 368.31 53.88 369.44 54.36 367.26M44.68 360.01C42.59 364.92 41.3 367.86 39.67 372.94C38.18 377.59 36.46 382.87 37.13 387.8C37.76 392.4 41.09 395.33 45.7 396.13C47.78 396.49 49.88 396.55 51.98 396.5C54.55 396.44 59.04 395.98 61.6 395.74" stroke="#0D2232" stroke-width="6" stroke-miterlimit="10"/>
<path d="M92.73 353.7C92.04 353.37 91.3299 353.08 90.6199 352.81C90.0999 352.49 89.5699 352.19 89.0199 351.92C83.5999 349.29 77.1 348.94 71.17 348.34C63.96 347.61 56.7999 346.51 49.5799 345.87C45.9499 345.55 42.28 345.05 38.63 344.99C35.24 344.93 31.86 345.34 28.49 345.73C21.27 346.57 24.0199 346.76 16.7599 346.79C13.1099 346.8 9.45995 346.83 5.80995 346.76C3.77995 346.72 1.49994 346.52 0.429945 348.59C-0.620055 350.63 0.969949 352.8 2.44995 354.18C4.06995 355.69 6.20995 356.55 8.36995 357.04C13.3399 358.17 18.4799 357.63 23.5399 357.83C30.8699 358.13 28.2099 358.01 35.5299 358.43C38.7999 358.62 41.8899 358.78 44.7599 360.43C47.0399 361.74 49.0099 363.51 51.0799 365.11C53.4299 366.93 56.11 368.25 58.63 369.84C61.1 371.41 64.1299 373.4 64.8699 376.35C65.5699 379.12 64.74 382.15 64.26 384.89C63.92 386.81 63.5399 388.72 63.0799 390.62C62.7599 391.92 62.4099 393.21 62.0199 394.5C61.1399 397.36 59.99 400.03 58.66 402.71C57.5 405.07 56.1599 407.58 56.3599 410.27C56.5199 412.51 57.78 414.68 60 415.54C62.22 416.4 64.7299 415.69 66.5799 414.36C70.9699 411.2 72.5099 405.9 75.1099 401.49C76.2899 399.49 77.1099 397.41 78.1199 395.33C78.5999 394.33 79.19 393.29 80.06 392.56C81.07 391.72 82.49 391.38 83.76 391.09C89.05 389.89 95.0599 390.23 99.7099 387.13C103.4 384.67 105 380.29 105.41 376.13C106.32 366.74 101.56 357.89 92.73 353.7Z" stroke="#0D2232" stroke-width="6" stroke-miterlimit="10"/>
<path d="M309.14 261.18C309.14 261.18 338.13 277 379.24 261.18" stroke="#0D2232" stroke-width="12" stroke-miterlimit="10" stroke-linecap="round" stroke-linejoin="round"/>
</g>
<defs>
<clipPath id="clip0_344_4738">
<rect width="586" height="719" fill="white"/>
</clipPath>
</defs>
</svg>
