<svg width="1000" height="1000" viewBox="0 0 1000 1000" fill="none" xmlns="http://www.w3.org/2000/svg">
<path d="M433.55 547.18L404.99 546.61L404.72 492.76L404.64 478.19L432.42 477.92L432.67 493.42L433.55 547.18Z" fill="#435F84"/>
<path opacity="0.21" d="M432.67 493.42L432.63 493.43L404.72 492.76L404.64 478.19L432.42 477.92L432.67 493.42Z" fill="white"/>
<path d="M478.48 481.68L478.76 541.93L433.23 542.38L432.63 493.43L432.5 483.21L478.48 481.68Z" fill="#F9DC1B"/>
<path opacity="0.5" d="M478.48 481.68L473.35 492.48L432.63 493.43L432.5 483.21L478.48 481.68Z" fill="white"/>
<path d="M432.979 522.45L487.219 524.12L478.759 541.92L433.229 542.38L432.979 522.45Z" fill="#E89F02"/>
<path d="M432.42 477.91L433.55 547.18L404.99 546.61L404.64 478.19L432.42 477.91Z" stroke="#0D2232" stroke-width="6" stroke-miterlimit="10" stroke-linecap="round" stroke-linejoin="round"/>
<path d="M478.48 481.68L432.5 483.22L433.23 542.38L478.76 541.92L478.48 481.68Z" stroke="#0D2232" stroke-width="6" stroke-miterlimit="10"/>
<path d="M464.619 795.609L538.049 795.609L538.049 774.109L464.619 774.109L464.619 795.609Z" fill="#435F84" stroke="#0D2232" stroke-width="6" stroke-miterlimit="10" stroke-linecap="round" stroke-linejoin="round"/>
<path d="M675.53 734.45V775.39L694.82 795.63L713.46 775.39L713.42 674.57H698.32L675.53 734.45Z" fill="#AFCADC"/>
<path d="M694.49 771.47C698.483 771.47 701.72 768.233 701.72 764.24C701.72 760.247 698.483 757.01 694.49 757.01C690.497 757.01 687.26 760.247 687.26 764.24C687.26 768.233 690.497 771.47 694.49 771.47Z" stroke="#0D2232" stroke-width="4" stroke-miterlimit="10" stroke-linecap="round" stroke-linejoin="round"/>
<path opacity="0.2" d="M713.46 675.66H706.82V771.47L694.88 783.4L682.45 770.97V681.92L675.53 682.38V775.39L695.3 795.15L714.26 776.19L713.46 675.66Z" fill="black"/>
<path d="M675.53 734.45V775.39L694.82 795.63L713.46 775.39V675.66H698.35L675.53 734.45Z" stroke="#0D2232" stroke-width="4" stroke-miterlimit="10" stroke-linecap="round" stroke-linejoin="round"/>
<path d="M695.4 284.08C695.4 284.08 689.42 289.43 663 291.63C636.57 293.83 450.61 299.42 450.61 299.42L439.16 293.83C439.16 293.83 412.85 292.38 409.12 284.08C405.39 275.78 499.19 242.87 499.19 242.87L617.7 239.25L644.76 250.02L695.4 284.08Z" fill="#CFB300"/>
<path d="M695.4 284.08C695.4 284.08 689.42 289.43 663 291.63C636.57 293.83 450.61 299.42 450.61 299.42L439.16 293.83C439.16 293.83 412.85 292.38 409.12 284.08C405.39 275.78 499.19 242.87 499.19 242.87L617.7 239.25L644.76 250.02L695.4 284.08Z" stroke="#0D2232" stroke-width="6" stroke-miterlimit="10" stroke-linecap="round" stroke-linejoin="round"/>
<path d="M440.2 332.85C440.2 332.85 410.01 336.47 413.78 371.39C417.56 406.31 461.04 399.02 461.04 399.02L457.3 348.89L440.2 332.85Z" fill="#FBC6A6" stroke="#0D2232" stroke-width="6" stroke-miterlimit="10"/>
<path d="M671.8 332.85C671.8 332.85 694.77 336.63 696.5 362.11C698.23 387.59 669.89 410.1 647.72 401.2C625.55 392.3 641.91 354.24 641.91 354.24L671.8 332.85Z" fill="#FBC6A6" stroke="#0D2232" stroke-width="6" stroke-miterlimit="10"/>
<path opacity="0.4" d="M669.76 347.95C669.76 347.95 681.69 354.27 676.6 368.01C669.48 387.26 654.97 381.92 654.97 381.92L659.37 358.01L669.76 347.95Z" fill="black"/>
<path opacity="0.4" d="M435.82 347.95C435.82 347.95 423.89 354.27 428.98 368.01C436.1 387.26 450.61 381.92 450.61 381.92L446.21 358.01L435.82 347.95Z" fill="black"/>
<path d="M658.18 336.62V365.29C658.18 365.29 657.92 370.26 656.1 377.95C652.02 395.19 640.11 426.11 605.74 445.47C600.85 448.22 595.93 450.51 591 452.37C576.68 457.78 562.34 459.61 548.67 458.85C519.22 457.21 492.96 443.54 477.07 427.85C451.27 402.37 449.7 363.53 449.7 363.53V309.25L480.22 272.44L636.97 274.33L656.29 296.98L658.18 336.62Z" fill="#FBC6A6"/>
<path opacity="0.5" d="M496.69 431.89C517.01 446.55 536.06 454.04 550.68 457.86C521.23 456.22 494.97 442.55 479.08 426.86C453.28 401.38 451.71 362.54 451.71 362.54V352.94L460.17 346.32C460.16 346.32 452.65 400.11 496.69 431.89Z" fill="white"/>
<path opacity="0.5" d="M653.1 377.95C649.02 395.19 637.11 426.11 602.74 445.47C597.85 448.22 592.93 450.51 588 452.37C605.49 438.74 633.96 413.61 642.69 388.63C645.65 380.18 649.27 377.31 653.1 377.95Z" fill="white"/>
<path d="M695.4 284.08C695.4 284.08 684.39 279.99 669.6 279.99C654.81 279.99 434.76 279.99 434.76 279.99C434.76 279.99 414.78 279.2 409.12 284.08V270.4C409.12 265.1 413.42 260.8 418.72 260.8H685.81C691.11 260.8 695.41 265.1 695.41 270.4V284.08H695.4Z" fill="#F9DC1B"/>
<path d="M680.17 260.8C680.17 260.91 680.17 260.96 680.17 260.96H552.13V260.8H424.09C424.09 260.8 424.09 260.77 424.09 260.72C424.05 259.67 423.64 249.23 424.09 244.45C424.56 239.41 428.65 239.26 428.65 239.26C428.65 239.26 435.73 176.5 507.14 155.74C507.14 155.74 506.51 143.15 518.15 141.9C529.79 140.65 552.13 139.07 552.13 139.07V139.23C552.13 139.23 574.46 140.8 586.1 142.06C597.74 143.32 597.11 155.9 597.11 155.9C668.52 176.66 675.6 239.42 675.6 239.42C675.6 239.42 679.69 239.58 680.16 244.61C680.61 249.28 680.23 259.41 680.17 260.8Z" fill="#F9DC1B"/>
<path opacity="0.73" d="M680.17 260.8H669.29C669.29 260.8 663.78 196.62 597.25 164.53L597.21 157.27C597.21 157.27 545.04 140.93 507.02 158.55L507.5 168.94C507.5 168.94 448.45 185.29 433.98 260.48L424.09 260.71C424.05 259.66 423.64 249.22 424.09 244.44C424.56 239.4 428.65 239.25 428.65 239.25C428.65 239.25 435.73 176.49 507.14 155.73C507.14 155.73 506.51 143.14 518.15 141.89C529.79 140.64 552.13 139.06 552.13 139.06V139.22C552.13 139.22 574.46 140.79 586.1 142.05C597.74 143.31 597.11 155.89 597.11 155.89C668.52 176.65 675.6 239.41 675.6 239.41C675.6 239.41 679.69 239.57 680.16 244.6C680.61 249.28 680.23 259.41 680.17 260.8Z" fill="white"/>
<path d="M680.17 244.6C679.7 239.57 675.61 239.41 675.61 239.41C675.61 239.41 668.53 176.65 597.12 155.89C597.12 155.89 597.75 143.31 586.11 142.05C574.47 140.79 552.13 139.22 552.13 139.22V139.06C552.13 139.06 529.79 140.63 518.15 141.89C506.51 143.15 507.14 155.73 507.14 155.73C435.73 176.49 428.65 239.25 428.65 239.25C428.65 239.25 424.56 239.41 424.09 244.44C423.62 249.47 424.09 260.8 424.09 260.8H552.13V260.96H680.17C680.17 260.96 680.64 249.64 680.17 244.6Z" stroke="#0D2232" stroke-width="6" stroke-miterlimit="10" stroke-linecap="round" stroke-linejoin="round"/>
<path d="M596.49 468.86H626.82V634.54H477.07V468.86H596.49Z" fill="white"/>
<path d="M600.29 475.67H506.75V576.55H600.29V475.67Z" fill="#F9DC1B"/>
<path d="M626.82 597.73H477.07V634.54H626.82V597.73Z" fill="#F9DC1B"/>
<path d="M578.27 456.8C578.27 456.8 548.89 463.09 528.87 456.8L521.95 487.74L540.2 494.55C540.2 494.55 552.27 499.58 566.95 494.55C581.63 489.52 586.25 474.84 586.25 474.84L578.27 456.8Z" fill="#FBC6A6" stroke="#0D2232" stroke-width="6" stroke-miterlimit="10"/>
<path d="M597.31 490.83C596.52 502.68 594.62 513.64 594.62 513.64L566.93 494.55C566.93 494.55 570.1 487.04 572.71 479.6C574.23 475.25 575.57 470.91 575.95 468.12C577 460.57 578.26 456.8 578.26 456.8C578.26 456.8 594.41 455.96 596.92 470.85C597.87 476.41 597.79 483.77 597.31 490.83Z" fill="#435F84"/>
<path d="M597.31 490.83C590.18 490.3 581.88 486.75 577.6 483.71C575.88 482.48 574.2 481.12 572.71 479.6C574.23 475.25 575.57 470.91 575.95 468.12C577 460.57 578.26 456.8 578.26 456.8C578.26 456.8 594.41 455.96 596.92 470.85C597.87 476.41 597.79 483.77 597.31 490.83Z" fill="#253B5A"/>
<path d="M578.27 456.8C578.27 456.8 594.42 455.96 596.94 470.85C599.46 485.74 594.63 513.63 594.63 513.63L566.95 494.54C566.95 494.54 574.92 475.66 575.97 468.11C577.02 460.56 578.27 456.8 578.27 456.8Z" stroke="#0D2232" stroke-width="6" stroke-miterlimit="10"/>
<path d="M509.82 490.83C510.61 502.68 512.51 513.64 512.51 513.64L540.2 494.55C540.2 494.55 537.03 487.04 534.42 479.6C532.9 475.25 531.56 470.91 531.18 468.12C530.13 460.57 528.87 456.8 528.87 456.8C528.87 456.8 512.72 455.96 510.21 470.85C509.26 476.41 509.34 483.77 509.82 490.83Z" fill="#435F84"/>
<path d="M509.82 490.83C516.95 490.3 525.25 486.75 529.53 483.71C531.25 482.48 532.93 481.12 534.42 479.6C532.9 475.25 531.56 470.91 531.18 468.12C530.13 460.57 528.87 456.8 528.87 456.8C528.87 456.8 512.72 455.96 510.21 470.85C509.26 476.41 509.34 483.77 509.82 490.83Z" fill="#253B5A"/>
<path d="M528.87 456.8C528.87 456.8 512.72 455.96 510.2 470.85C507.68 485.74 512.51 513.63 512.51 513.63L540.19 494.54C540.19 494.54 532.22 475.66 531.17 468.11C530.12 460.56 528.87 456.8 528.87 456.8Z" stroke="#0D2232" stroke-width="6" stroke-miterlimit="10"/>
<path d="M531.71 528.31H492.7V563.96H531.71V528.31Z" fill="#F9DC1B" stroke="#0D2232" stroke-width="6" stroke-miterlimit="10"/>
<path d="M531.71 542.37H492.7" stroke="#0D2232" stroke-width="6" stroke-miterlimit="10"/>
<path d="M597.12 155.89C597.12 155.89 598.22 166.43 593.97 187.98Z" fill="#F9DC1B"/>
<path d="M597.12 155.89C597.12 155.89 598.22 166.43 593.97 187.98" stroke="#0D2232" stroke-width="6" stroke-miterlimit="10" stroke-linecap="round" stroke-linejoin="round"/>
<path d="M675.61 239.41H643.18C639.75 239.41 636.97 242.19 636.97 245.62V260.96" stroke="#0D2232" stroke-width="6" stroke-miterlimit="10" stroke-linecap="round" stroke-linejoin="round"/>
<path d="M507.14 155.73C507.14 155.73 506.04 166.27 510.29 187.82Z" fill="#F9DC1B"/>
<path d="M507.14 155.73C507.14 155.73 506.04 166.27 510.29 187.82" stroke="#0D2232" stroke-width="6" stroke-miterlimit="10" stroke-linecap="round" stroke-linejoin="round"/>
<path d="M428.65 239.25H461.08C464.51 239.25 467.29 242.03 467.29 245.46V260.8" stroke="#0D2232" stroke-width="6" stroke-miterlimit="10" stroke-linecap="round" stroke-linejoin="round"/>
<path opacity="0.74" d="M682.03 270.19C675.57 267.73 668.47 267.78 661.57 267.85C611.12 268.39 560.67 268.92 510.22 269.46C487.8 269.7 465.39 269.94 442.97 270.18C433.02 270.29 421.86 270.91 415.16 278.25C413.84 279.7 412.55 281.48 410.61 281.77C407.65 282.22 405.46 278.78 405.4 275.79C405.28 270.18 409.6 265.23 414.7 262.87C419.8 260.52 425.58 260.24 431.19 260.05C514.29 257.22 597.63 265.29 680.55 259.16C685.34 258.81 691 258.78 693.87 262.64C695.45 264.77 695.71 267.58 695.92 270.23C696.12 272.9 698.3 282.86 692.93 279.05C691.19 277.82 689.99 275.13 688.19 273.69C686.35 272.22 684.23 270.96 682.03 270.19Z" fill="white"/>
<path d="M695.4 284.08C695.4 284.08 684.39 279.99 669.6 279.99C654.81 279.99 434.76 279.99 434.76 279.99C434.76 279.99 414.78 279.2 409.12 284.08V270.4C409.12 265.1 413.42 260.8 418.72 260.8H685.81C691.11 260.8 695.41 265.1 695.41 270.4V284.08H695.4Z" stroke="#0D2232" stroke-width="6" stroke-miterlimit="10" stroke-linecap="round" stroke-linejoin="round"/>
<path d="M458.12 314.08C458.12 314.08 457.58 343.07 458.12 351.41C458.66 359.75 453 367.3 444.35 361.48C435.7 355.66 437.38 321.06 437.38 321.06C437.38 321.06 446.36 321.47 458.12 314.08Z" fill="#253B5A" stroke="#0D2232" stroke-width="6" stroke-miterlimit="10"/>
<path d="M505.57 368.07C514.429 368.07 521.61 360.889 521.61 352.03C521.61 343.171 514.429 335.99 505.57 335.99C496.712 335.99 489.53 343.171 489.53 352.03C489.53 360.889 496.712 368.07 505.57 368.07Z" fill="#0D2232"/>
<path d="M604.31 368.07C613.168 368.07 620.349 360.889 620.349 352.03C620.349 343.171 613.168 335.99 604.31 335.99C595.451 335.99 588.27 343.171 588.27 352.03C588.27 360.889 595.451 368.07 604.31 368.07Z" fill="#0D2232"/>
<path d="M626.82 634.54H477.07V668.41H626.82V634.54Z" fill="#253B5A" stroke="#0D2232" stroke-width="6" stroke-miterlimit="10"/>
<path d="M577.64 634.54H530.24V668.41H577.64V634.54Z" fill="#C3CDD4" stroke="#0D2232" stroke-width="6" stroke-miterlimit="10"/>
<path d="M695.64 845H699C700.62 845 701.94 846.31 701.94 847.94V856.59C701.94 858.99 699.99 860.94 697.59 860.94H621.2L605.58 850.45V860.94H566.83C564.43 860.94 562.479 858.99 562.479 856.59V840.13C562.479 837.84 564.34 835.98 566.63 835.99H568.07L669.7 835.1L695.64 845Z" fill="#484D60" stroke="#0D2232" stroke-width="6" stroke-miterlimit="10" stroke-linecap="round" stroke-linejoin="round"/>
<path d="M697.21 841.23L695.64 845H625.64L607.55 835.98H568.05C568.05 835.98 566.24 827.28 567.76 816.5C568.7 809.81 570.93 802.32 575.67 795.61H635.86L640.58 800.65C640.58 800.65 649.07 800.96 649.7 808.83C649.7 808.83 651.19 808.08 653.76 807.26C658.83 805.64 668.09 803.71 678.33 806.63C693.75 811.03 700.99 830.85 697.21 841.23Z" fill="#E89F02"/>
<path d="M591.19 835.99H568.05C568.05 835.99 566.24 827.29 567.76 816.51C567.85 816.5 567.95 816.5 568.05 816.49C591.15 815.33 591.19 835.99 591.19 835.99Z" fill="#834526"/>
<path opacity="0.75" d="M697.21 841.23L695.64 845H685.57C685.57 845 694.53 812.71 653.77 807.25C658.84 805.63 668.1 803.7 678.34 806.62C693.75 811.03 700.99 830.85 697.21 841.23Z" fill="white"/>
<path d="M635.86 795.61L640.58 800.64C640.58 800.64 649.07 800.95 649.7 808.82C649.7 808.82 662.91 802.21 678.33 806.62C693.75 811.02 700.98 830.84 697.21 841.23L695.64 845.01H625.64L607.55 835.99H568.05C568.05 835.99 563.3 813.13 575.67 795.62H635.86V795.61Z" stroke="#0D2232" stroke-width="6" stroke-miterlimit="10" stroke-linecap="round" stroke-linejoin="round"/>
<path d="M649.71 808.83C649.71 808.83 629.47 815.44 625.64 845.01" stroke="#0D2232" stroke-width="6" stroke-miterlimit="10" stroke-linecap="round" stroke-linejoin="round"/>
<path d="M640.58 800.65C640.58 800.65 626.42 803.48 621.18 816.48" stroke="#0D2232" stroke-width="6" stroke-miterlimit="10" stroke-linecap="round" stroke-linejoin="round"/>
<path d="M640.58 774.12H567.15V795.62H640.58V774.12Z" fill="#435F84" stroke="#0D2232" stroke-width="6" stroke-miterlimit="10" stroke-linecap="round" stroke-linejoin="round"/>
<path d="M633.98 774.12L625.48 668.41H552.6V688.97L562.46 688.34L572.94 774.12H633.98Z" fill="#435F84" stroke="#0D2232" stroke-width="6" stroke-miterlimit="10" stroke-linecap="round" stroke-linejoin="round"/>
<path d="M409.57 845H406.21C404.59 845 403.27 846.31 403.27 847.94V856.59C403.27 858.99 405.22 860.94 407.62 860.94H484.01L499.63 850.45V860.94H538.38C540.78 860.94 542.73 858.99 542.73 856.59V840.13C542.73 837.84 540.87 835.98 538.58 835.99H537.14L435.51 835.1L409.57 845Z" fill="#484D60" stroke="#0D2232" stroke-width="6" stroke-miterlimit="10" stroke-linecap="round" stroke-linejoin="round"/>
<path d="M407.99 841.23L409.56 845H479.56L497.65 835.98H537.15C537.15 835.98 538.96 827.28 537.44 816.5C536.5 809.81 534.27 802.32 529.53 795.61H469.34L464.62 800.65C464.62 800.65 456.13 800.96 455.5 808.83C455.5 808.83 454.01 808.08 451.44 807.26C446.37 805.64 437.11 803.71 426.87 806.63C411.45 811.03 404.22 830.85 407.99 841.23Z" fill="#E89F02"/>
<path d="M514.01 835.99H537.15C537.15 835.99 538.96 827.29 537.44 816.51C537.35 816.5 537.25 816.5 537.15 816.49C514.05 815.33 514.01 835.99 514.01 835.99Z" fill="#834526"/>
<path opacity="0.75" d="M407.99 841.23L409.56 845H419.63C419.63 845 410.67 812.71 451.43 807.25C446.36 805.63 437.1 803.7 426.86 806.62C411.45 811.03 404.22 830.85 407.99 841.23Z" fill="white"/>
<path d="M469.34 795.61L464.62 800.64C464.62 800.64 456.13 800.95 455.5 808.82C455.5 808.82 442.29 802.21 426.87 806.62C411.45 811.02 404.22 830.84 407.99 841.23L409.56 845.01H479.56L497.65 835.99H537.15C537.15 835.99 541.9 813.13 529.53 795.62H469.34V795.61Z" stroke="#0D2232" stroke-width="6" stroke-miterlimit="10" stroke-linecap="round" stroke-linejoin="round"/>
<path d="M455.5 808.83C455.5 808.83 475.74 815.44 479.57 845.01" stroke="#0D2232" stroke-width="6" stroke-miterlimit="10" stroke-linecap="round" stroke-linejoin="round"/>
<path d="M464.62 800.65C464.62 800.65 478.78 803.48 484.02 816.48" stroke="#0D2232" stroke-width="6" stroke-miterlimit="10" stroke-linecap="round" stroke-linejoin="round"/>
<path d="M471.23 774.12L479.72 668.41H552.6V688.97L542.74 688.34L532.26 774.12H471.23Z" fill="#435F84" stroke="#0D2232" stroke-width="6" stroke-miterlimit="10" stroke-linecap="round" stroke-linejoin="round"/>
<g opacity="0.16">
<path d="M456.989 279.99H658.179L662.999 291.63H450.609L456.989 279.99Z" fill="black"/>
<path d="M437.38 321.06C437.38 321.06 473 329.84 508.65 291.64L477.07 286.85L437.38 321.06Z" fill="black"/>
<path d="M524.58 318.37C524.58 318.37 577.73 327.19 611.8 285.81L582.3 286.84L524.58 318.37Z" fill="black"/>
</g>
<path opacity="0.16" d="M654.98 344.43C654.98 344.43 637.68 441.81 534.42 454.33C534.42 454.33 642.55 469.69 655.92 365.24L654.98 344.43Z" fill="black"/>
<path d="M620.8 616.14H482.99V628.43H620.8V616.14Z" fill="#E89F02"/>
<path d="M596.91 468.86H627.35V634.54H477.07V468.86H506.85" stroke="#0D2232" stroke-width="6" stroke-miterlimit="10"/>
<path d="M489.97 279.99C489.97 279.99 462.91 326.24 430.82 320.57C427.91 320.05 425.29 319.47 422.96 318.85C399.61 312.57 403.77 301.44 403.77 301.44C403.77 301.44 423.29 306.8 436.8 281.81C437.12 281.22 437.43 280.62 437.74 280H489.97V279.99Z" fill="#253B5A"/>
<path opacity="0.21" d="M428.65 303.9C419.66 309.4 416.04 309.25 416.04 309.25C416.04 309.25 414.94 313.82 422.96 318.85C399.61 312.57 403.77 301.44 403.77 301.44C403.77 301.44 425.65 304.98 439.16 279.99C439.18 280.33 437.55 298.46 428.65 303.9Z" fill="white"/>
<path d="M702.32 305.79C702.32 305.79 688.96 326.52 665.65 321.81C652.3 319.11 635.68 308.06 616.43 280L673.99 280.12C673.99 280.12 674.17 283.01 675.39 286.85C677.85 294.52 684.5 306 702.32 305.79Z" fill="#253B5A"/>
<path opacity="0.21" d="M702.32 305.79C702.32 305.79 688.96 326.52 665.65 321.81C668.31 321.05 670.89 319.96 673.36 318.73C678.34 316.24 683 313.15 687.95 310.6C682.45 310.34 677.55 306.28 675.39 301.21C673.87 297.63 672.81 291.66 674.55 287.97C674.78 287.48 675.08 287.11 675.41 286.86C677.85 294.52 684.5 306 702.32 305.79Z" fill="white"/>
<path d="M673.999 280.11C673.999 280.11 675.579 306.1 702.319 305.79C702.319 305.79 669.289 357.07 616.439 279.99L673.999 280.11Z" stroke="#0D2232" stroke-width="6" stroke-miterlimit="10" stroke-linecap="round" stroke-linejoin="round"/>
<path d="M589.7 279.99C589.7 279.99 577.43 313.34 524.58 318.37C524.58 318.37 533.7 302.01 533.7 279.99H589.7Z" fill="#253B5A" stroke="#0D2232" stroke-width="6" stroke-miterlimit="10" stroke-linecap="round" stroke-linejoin="round"/>
<path d="M489.97 279.99C489.97 279.99 462.91 326.24 430.83 320.57C398.75 314.9 403.77 301.43 403.77 301.43C403.77 301.43 424.22 307.04 437.75 279.98H489.97V279.99Z" stroke="#0D2232" stroke-width="6" stroke-miterlimit="10" stroke-linecap="round" stroke-linejoin="round"/>
<path d="M658.18 365.29C658.18 365.29 655.45 417.47 605.74 445.47C556.03 473.47 502.87 453.33 477.07 427.85C451.27 402.37 449.7 363.53 449.7 363.53" stroke="#0D2232" stroke-width="6" stroke-miterlimit="10"/>
<path d="M671.8 322.5C671.8 322.5 671.329 349.21 670.229 354.4C669.129 359.59 664.569 366.04 655.919 365.25C647.269 364.46 647.58 353.3 647.43 345.43C647.27 337.57 647.43 313.54 647.43 313.54C647.43 313.54 659.22 322.85 671.8 322.5Z" fill="#253B5A" stroke="#0D2232" stroke-width="6" stroke-miterlimit="10" stroke-linecap="round" stroke-linejoin="round"/>
<path d="M570.44 668.41L593.29 795.61H575.67H567.15V774.12H572.94L562.46 685L552.6 688.97V668.41H570.44Z" fill="#253B5A"/>
<path d="M516.44 774.12L512.2 795.61H538.05V774.12H532.26L542.74 685L552.6 688.97V668.41H530.24L516.44 774.12Z" fill="#253B5A"/>
<path d="M562.46 688.34L574.83 686.87" stroke="#0D2232" stroke-width="6" stroke-miterlimit="10" stroke-linecap="round" stroke-linejoin="round"/>
<path d="M542.74 688.34L530.37 686.87" stroke="#0D2232" stroke-width="6" stroke-miterlimit="10" stroke-linecap="round" stroke-linejoin="round"/>
<path d="M625.48 668.41H612.01L621.18 774.12H627.35V795.61H640.58V774.12H633.98L625.48 668.41Z" fill="#C3CDD4"/>
<path d="M480.38 668.41H493.85L484.68 774.12H478.51V795.61H465.28V774.12H471.88L480.38 668.41Z" fill="#C3CDD4"/>
<path d="M640.58 774.12H567.15V795.62H640.58V774.12Z" stroke="#0D2232" stroke-width="6" stroke-miterlimit="10" stroke-linecap="round" stroke-linejoin="round"/>
<path d="M633.98 774.12L625.48 668.41H552.6V688.97L562.46 688.34L572.94 774.12H633.98Z" stroke="#0D2232" stroke-width="6" stroke-miterlimit="10" stroke-linecap="round" stroke-linejoin="round"/>
<path d="M471.23 774.12L479.72 668.41H552.6V688.97L542.74 688.34L532.26 774.12H471.23Z" stroke="#0D2232" stroke-width="6" stroke-miterlimit="10" stroke-linecap="round" stroke-linejoin="round"/>
<path d="M703.46 681.09H686.26V746.23H703.46V681.09Z" fill="#E89F02"/>
<path d="M792.9 660.34V670.68C792.9 673.43 790.66 675.66 787.91 675.66H709.44C706.69 675.66 704.46 673.43 704.46 670.68V660.34C704.46 659.74 704.57 659.16 704.76 658.63C705.45 656.72 707.29 655.35 709.44 655.35H787.91C790.06 655.35 791.9 656.72 792.6 658.63C792.8 659.16 792.9 659.74 792.9 660.34Z" fill="#AFCADC"/>
<path opacity="0.2" d="M704.46 669.58V670.68C704.46 673.43 706.69 675.67 709.44 675.67H787.91C790.66 675.67 792.89 673.44 792.89 670.68V669.58H704.46Z" fill="black"/>
<path opacity="0.7" d="M792.6 658.63H704.76C705.45 656.72 707.29 655.35 709.44 655.35H787.91C790.07 655.35 791.9 656.71 792.6 658.63Z" fill="white"/>
<path d="M792.9 660.34V670.68C792.9 673.43 790.66 675.66 787.91 675.66H709.44C706.69 675.66 704.46 673.43 704.46 670.68V660.34C704.46 659.74 704.57 659.16 704.76 658.63C705.45 656.72 707.29 655.35 709.44 655.35H787.91C790.06 655.35 791.9 656.72 792.6 658.63C792.8 659.16 792.9 659.74 792.9 660.34Z" stroke="#0D2232" stroke-width="4" stroke-miterlimit="10" stroke-linecap="round" stroke-linejoin="round"/>
<path d="M618.96 674.02C618.96 674.02 640.17 690.73 704.46 684.31" stroke="white" stroke-miterlimit="10"/>
<path d="M600.96 634.16V722.88L612.53 734.45H691.6L680.99 726.09L681.64 634.16H600.96Z" fill="#F9DC1B"/>
<path d="M610.6 634.16V717.32L617.35 726.09H698.35L691.6 734.45H612.53L600.96 722.88V634.16H610.6Z" fill="#E89F02"/>
<path d="M613.17 646.52H608.03V651.66H613.17V646.52Z" fill="white"/>
<path d="M613.17 662.93H608.03V668.07H613.17V662.93Z" fill="white"/>
<path d="M613.17 679.35H608.03V684.49H613.17V679.35Z" fill="white"/>
<path d="M613.17 695.76H608.03V700.9H613.17V695.76Z" fill="white"/>
<path d="M613.17 712.17H608.03V717.31H613.17V712.17Z" fill="white"/>
<path d="M681.64 669.2V634.16H600.96V722.88L612.53 734.45H684.53" stroke="#0D2232" stroke-width="4" stroke-miterlimit="10" stroke-linecap="round" stroke-linejoin="round"/>
<path d="M464.619 795.609L538.049 795.609L538.049 774.109L464.619 774.109L464.619 795.609Z" stroke="#0D2232" stroke-width="6" stroke-miterlimit="10" stroke-linecap="round" stroke-linejoin="round"/>
<path d="M693.85 512.55C693.85 512.55 721.49 528.62 715.71 549.84C709.93 571.06 668.78 599.34 668.78 599.34C668.78 599.34 666.85 575.55 637.92 570.41L655.92 552.41L693.85 512.55Z" fill="#FBC6A6"/>
<path d="M637.93 570.4L628.93 575.86V631.79H669.43L668.79 599.33C668.78 599.33 666.21 574.9 637.93 570.4Z" fill="#FBC6A6"/>
<path opacity="0.16" d="M689.8 516.81C689.8 516.81 715.28 529.25 709.63 549.97C703.98 570.7 668.33 592.72 668.33 592.72" stroke="black" stroke-width="6" stroke-miterlimit="10"/>
<path opacity="0.16" d="M665.429 631.8L664.779 586.75" stroke="black" stroke-width="6" stroke-miterlimit="10"/>
<path opacity="0.5" d="M644.09 570.97L699.24 514.05" stroke="white" stroke-width="6" stroke-miterlimit="10"/>
<path opacity="0.5" d="M634.09 572.12V633.36" stroke="white" stroke-width="6" stroke-miterlimit="10"/>
<path d="M693.85 512.55C693.85 512.55 721.49 528.62 715.71 549.84C709.93 571.06 668.78 599.34 668.78 599.34C668.78 599.34 666.85 575.55 637.92 570.41L655.92 552.41L693.85 512.55Z" stroke="#0D2232" stroke-width="6" stroke-miterlimit="10" stroke-linecap="round" stroke-linejoin="round"/>
<path d="M637.93 570.4L628.93 575.86V631.79H669.43L668.79 599.33C668.78 599.33 666.21 574.9 637.93 570.4Z" stroke="#0D2232" stroke-width="6" stroke-miterlimit="10" stroke-linecap="round" stroke-linejoin="round"/>
<path d="M639.609 554.11L665.209 565.85L688.149 517.32L694.359 504.19L669.819 492.03L663.059 505.92L639.609 554.11Z" fill="#435F84"/>
<path opacity="0.21" d="M663.06 505.92L663.09 505.96L688.15 517.32L694.36 504.19L669.82 492.03L663.06 505.92Z" fill="white"/>
<path d="M627.35 475.67V542.37L641.92 549.92L663.09 505.96L667.51 496.78L627.35 475.67Z" fill="#F9DC1B"/>
<path opacity="0.5" d="M627.35 475.67V487.62L663.09 505.96L667.51 496.78L627.35 475.67Z" fill="white"/>
<path d="M650.54 532.02L627.35 522.65V542.37L641.92 549.92L650.54 532.02Z" fill="#E89F02"/>
<path d="M669.819 492.03L639.619 554.11L665.199 565.86L694.359 504.19L669.819 492.03Z" stroke="#0D2232" stroke-width="6" stroke-miterlimit="10" stroke-linecap="round" stroke-linejoin="round"/>
<path d="M627.35 475.67L667.51 496.78L641.92 549.92L627.35 542.37V475.67Z" stroke="#0D2232" stroke-width="6" stroke-miterlimit="10"/>
<path d="M630.52 589.67V606.93C630.52 608.27 629.43 609.36 628.1 609.36H618.73C617.39 609.36 616.3 608.27 616.3 606.93V589.67C616.3 588.33 617.39 587.25 618.73 587.25H628.1C629.43 587.24 630.52 588.33 630.52 589.67Z" fill="#AFCADC"/>
<path d="M628.1 609.53H618.73C617.3 609.53 616.13 608.37 616.13 606.93V589.67C616.13 588.24 617.29 587.08 618.73 587.08H628.1C629.53 587.08 630.69 588.24 630.69 589.67V606.93C630.69 608.36 629.53 609.53 628.1 609.53ZM618.73 587.41C617.49 587.41 616.47 588.42 616.47 589.66V606.92C616.47 608.16 617.48 609.18 618.73 609.18H628.1C629.34 609.18 630.35 608.17 630.35 606.92V589.66C630.35 588.42 629.34 587.41 628.1 587.41H618.73Z" fill="#000072"/>
<g opacity="0.2">
<path d="M630.52 603.1V606.93C630.52 608.27 629.43 609.36 628.1 609.36H618.73C617.39 609.36 616.3 608.27 616.3 606.93V603.1C616.3 604.44 617.39 605.53 618.73 605.53H628.1C629.43 605.52 630.52 604.44 630.52 603.1Z" fill="black"/>
</g>
<g opacity="0.55">
<path d="M630.52 589.67V592.38C630.52 591.04 629.43 589.96 628.1 589.96H618.73C617.39 589.96 616.3 591.05 616.3 592.38V589.67C616.3 588.33 617.39 587.25 618.73 587.25H628.1C629.43 587.24 630.52 588.33 630.52 589.67Z" fill="white"/>
</g>
<path d="M640.969 604.7H630.52V592.43H639.39L640.969 604.7Z" fill="#AFCADC"/>
<path d="M641.16 604.87H630.35V592.26H639.54L641.16 604.87ZM630.69 604.53H640.78L639.24 592.6H630.69V604.53Z" fill="#000072"/>
<path d="M690.13 602.89C689.98 604.64 687.92 605.51 686.59 604.36C679.12 597.94 668.08 601.56 665.83 610.72C665.45 612.25 664.11 613.33 662.54 613.33H645.07C643.37 613.33 641.93 612.07 641.72 610.38L640.99 604.7L639.41 592.43L638.88 588.29C638.62 586.27 640.2 584.47 642.24 584.47H670.89C682.48 584.48 690.9 593.43 690.13 602.89Z" fill="#AFCADC"/>
<path d="M662.53 613.5H645.06C643.28 613.5 641.76 612.17 641.54 610.4L638.69 588.31C638.56 587.3 638.87 586.28 639.55 585.51C640.22 584.74 641.2 584.3 642.22 584.3H670.87C676.7 584.3 682.17 586.61 685.88 590.63C689.1 594.13 690.68 598.48 690.31 602.89C690.24 603.77 689.68 604.53 688.87 604.86C688.05 605.2 687.16 605.05 686.49 604.47C683.02 601.49 678.45 600.52 674.24 601.86C670.12 603.18 667.04 606.5 666 610.74C665.59 612.38 664.17 613.5 662.53 613.5ZM642.21 584.65C641.29 584.65 640.41 585.05 639.8 585.74C639.19 586.43 638.91 587.36 639.03 588.27L641.88 610.36C642.09 611.96 643.46 613.16 645.07 613.16H662.54C664.02 613.16 665.31 612.14 665.67 610.68C666.74 606.32 669.9 602.91 674.13 601.55C678.45 600.17 683.15 601.17 686.7 604.22C687.27 604.71 688.03 604.84 688.73 604.55C689.44 604.26 689.9 603.63 689.96 602.87C690.31 598.55 688.77 594.29 685.61 590.87C681.97 586.92 676.59 584.65 670.85 584.65H642.21Z" fill="#000072"/>
<g opacity="0.2">
<path d="M690.13 602.89C689.98 604.64 687.92 605.51 686.59 604.36C679.12 597.94 668.08 601.56 665.83 610.72C665.45 612.25 664.11 613.33 662.54 613.33H645.07C643.37 613.33 641.93 612.07 641.72 610.38L641.54 609.02C641.99 609.24 642.48 609.36 643.01 609.36H660.48C662.05 609.36 663.4 608.27 663.77 606.75C666.02 597.59 677.06 593.96 684.53 600.39C685.86 601.54 687.92 600.67 688.07 598.92C688.25 596.76 687.94 594.62 687.23 592.61C689.34 595.63 690.43 599.22 690.13 602.89Z" fill="black"/>
</g>
<g opacity="0.55">
<path d="M686.06 591.11C682.72 588.46 678.3 586.79 673.29 586.79H644.64C642.6 586.79 641.02 588.58 641.28 590.61L641.81 594.75L643.39 607.02L644.12 612.7C644.14 612.89 644.18 613.07 644.24 613.24C642.91 612.92 641.88 611.8 641.69 610.39L640.96 604.71L639.38 592.44L638.85 588.3C638.59 586.28 640.17 584.48 642.21 584.48H670.86C677.2 584.48 682.59 587.15 686.06 591.11Z" fill="white"/>
</g>
<g opacity="0.55">
<path d="M630.52 592.38H616.87V596.16H630.52V592.38Z" fill="white"/>
</g>
<path d="M662.23 613.33H646.15V654.37H662.23V613.33Z" fill="#435F84" stroke="#0D2232" stroke-width="4" stroke-miterlimit="10" stroke-linecap="round" stroke-linejoin="round"/>
<g opacity="0.2">
<path d="M646.19 620.54C646.66 620.55 647.08 620.72 647.47 620.93C647.86 621.14 648.22 621.41 648.56 621.7C649.24 622.27 649.86 622.91 650.37 623.65C651.39 625.11 651.97 626.76 652.99 628.05C653.49 628.69 654.12 629.21 654.84 629.6C655.56 629.98 656.36 630.24 657.17 630.41C657.99 630.58 658.83 630.68 659.68 630.76C660.1 630.8 660.53 630.83 660.96 630.84C661.39 630.87 661.83 630.93 662.23 631.21C662.29 631.25 662.3 631.33 662.26 631.39C662.25 631.41 662.23 631.42 662.21 631.43H662.2C661.74 631.63 661.33 631.59 660.9 631.56C660.48 631.5 660.05 631.47 659.62 631.43C658.76 631.35 657.89 631.25 657.03 631.07C656.17 630.89 655.31 630.62 654.52 630.2C653.73 629.78 653.01 629.18 652.45 628.47C651.33 627.05 650.76 625.39 649.8 624.04C649.32 623.37 648.76 622.75 648.1 622.25C647.77 622 647.43 621.77 647.08 621.54C646.74 621.31 646.39 621.08 646.08 620.75C646.03 620.7 646.03 620.63 646.08 620.58C646.13 620.55 646.16 620.53 646.19 620.54Z" fill="#371A45"/>
<path d="M662.25 628C661.37 628.48 660.34 628.5 659.37 628.36C658.4 628.22 657.44 627.98 656.56 627.53C656.11 627.32 655.7 627.04 655.31 626.74C654.93 626.42 654.56 626.08 654.27 625.67C653.64 624.88 653.31 623.89 653.12 622.95C652.93 622 652.84 621.07 652.58 620.21C652.45 619.78 652.28 619.38 652.04 619.01C651.93 618.82 651.79 618.65 651.66 618.48C651.51 618.32 651.37 618.15 651.2 618.01C650.55 617.41 649.73 617 648.87 616.79C648.44 616.68 647.99 616.64 647.56 616.67C647.12 616.7 646.71 616.77 646.21 616.7H646.2C646.18 616.7 646.15 616.69 646.12 616.68L646.1 616.67C646.03 616.65 645.99 616.59 646.01 616.52C646.02 616.5 646.03 616.48 646.04 616.46C646.07 616.43 646.09 616.41 646.12 616.39H646.11C646.51 616.05 647.04 615.94 647.54 615.94C648.04 615.96 648.54 615.99 649.03 616.12C650 616.35 650.92 616.82 651.66 617.49C652.41 618.14 652.97 619.06 653.24 620C653.52 620.95 653.61 621.9 653.79 622.8C653.97 623.7 654.26 624.55 654.81 625.24C655.07 625.6 655.4 625.9 655.74 626.19C656.1 626.46 656.47 626.71 656.88 626.9C657.68 627.3 658.57 627.55 659.47 627.64C659.69 627.67 659.92 627.66 660.15 627.68C660.38 627.67 660.6 627.69 660.83 627.68C661.28 627.69 661.73 627.64 662.23 627.75H662.24C662.3 627.76 662.34 627.83 662.33 627.89C662.3 627.96 662.28 627.98 662.25 628Z" fill="#371A45"/>
<path d="M662.26 623.31C662 623.56 661.68 623.67 661.35 623.72C661.19 623.75 661.02 623.76 660.85 623.75C660.68 623.74 660.52 623.72 660.36 623.71C659.71 623.62 659.07 623.45 658.48 623.17C657.3 622.62 656.28 621.74 655.57 620.66C654.85 619.58 654.44 618.32 654.29 617.05C654.22 616.41 654.21 615.77 654.26 615.14C654.28 614.82 654.33 614.51 654.36 614.19C654.39 613.87 654.46 613.56 654.7 613.29V613.31C654.74 613.27 654.77 613.22 654.82 613.19C654.89 613.14 654.98 613.16 655.03 613.22L655.04 613.23V613.24C655.07 613.29 655.08 613.33 655.1 613.37V613.39C655.19 613.72 655.13 614.01 655.06 614.3C654.99 614.59 654.96 614.89 654.94 615.19C654.89 615.79 654.9 616.38 654.97 616.98C655.1 618.16 655.49 619.31 656.14 620.29C656.79 621.27 657.71 622.07 658.77 622.56C659.3 622.8 659.86 622.98 660.44 623.01C660.73 623.02 661.01 623.03 661.3 623.02C661.59 623.02 661.87 623.01 662.21 623.09C662.28 623.11 662.32 623.18 662.3 623.25C662.28 623.27 662.27 623.29 662.26 623.31Z" fill="#371A45"/>
<path d="M658.18 613.39C658.23 613.65 658.17 613.85 658.1 614.04C658.03 614.23 657.94 614.4 657.86 614.58C657.7 614.94 657.6 615.31 657.54 615.69C657.44 616.43 657.59 617.22 658.01 617.81C658.22 618.1 658.5 618.33 658.82 618.47C659.14 618.61 659.51 618.67 659.88 618.65C660.25 618.64 660.63 618.56 660.99 618.44C661.17 618.39 661.35 618.28 661.52 618.18C661.7 618.09 661.88 618.02 662.17 618.14H662.18C662.26 618.17 662.3 618.25 662.28 618.33C662.21 618.63 662.01 618.74 661.82 618.83C661.72 618.87 661.62 618.9 661.52 618.95C661.42 619 661.32 619.04 661.22 619.07C660.8 619.21 660.36 619.31 659.91 619.32C659.46 619.34 658.99 619.27 658.55 619.08C658.12 618.89 657.73 618.57 657.46 618.19C656.92 617.42 656.75 616.47 656.87 615.58C656.93 615.14 657.07 614.71 657.21 614.3C657.28 614.09 657.36 613.89 657.48 613.71C657.59 613.53 657.74 613.36 657.99 613.27C658.07 613.24 658.15 613.28 658.18 613.36C658.17 613.37 658.17 613.38 658.18 613.39Z" fill="#371A45"/>
<path d="M646.17 626.44C646.72 626.37 647.28 626.55 647.74 626.83C648.21 627.1 648.62 627.47 648.98 627.86C649.7 628.65 650.28 629.52 650.83 630.37C651.38 631.22 651.94 632.06 652.63 632.74C653.32 633.42 654.18 633.91 655.08 634.36C655.98 634.81 656.94 635.23 657.81 635.86C658.67 636.49 659.4 637.28 659.98 638.16C660.57 639.03 661.02 639.97 661.42 640.92C661.62 641.4 661.81 641.87 662.01 642.34C662.2 642.82 662.37 643.3 662.32 643.86C662.31 643.93 662.25 643.98 662.19 643.97C662.16 643.97 662.13 643.95 662.11 643.94C661.7 643.55 661.51 643.07 661.33 642.6C661.17 642.12 660.98 641.65 660.79 641.18C660.4 640.25 659.96 639.35 659.41 638.53C658.87 637.7 658.19 636.98 657.41 636.4C656.62 635.83 655.7 635.42 654.78 634.96C653.86 634.51 652.92 633.98 652.15 633.22C651.39 632.47 650.81 631.59 650.25 630.74C649.69 629.89 649.16 629.04 648.47 628.34C648.12 628 647.75 627.69 647.36 627.42C646.97 627.14 646.57 626.93 646.12 626.66C646.06 626.63 646.04 626.55 646.08 626.5C646.1 626.47 646.14 626.45 646.17 626.44Z" fill="#371A45"/>
<path d="M658.01 633.25C658.19 633.15 658.32 633.17 658.43 633.21C658.54 633.25 658.63 633.32 658.73 633.39C658.92 633.53 659.12 633.64 659.31 633.77C659.69 634.03 660.07 634.3 660.43 634.58C660.79 634.86 661.15 635.16 661.49 635.47C661.66 635.63 661.83 635.79 661.99 635.95C662.07 636.03 662.15 636.12 662.25 636.18C662.33 636.26 662.41 636.35 662.31 636.6C662.28 636.68 662.22 636.73 662.15 636.75C661.9 636.83 661.81 636.76 661.74 636.68C661.68 636.58 661.6 636.51 661.52 636.43C661.36 636.27 661.2 636.12 661.04 635.97C660.71 635.67 660.37 635.38 660.02 635.11C659.67 634.84 659.31 634.58 658.94 634.33C658.75 634.21 658.57 634.08 658.37 633.98C658.27 633.93 658.17 633.89 658.08 633.81C657.99 633.74 657.92 633.64 657.91 633.44C657.9 633.36 657.94 633.29 658.01 633.25Z" fill="#371A45"/>
<path d="M646.22 630.96C646.8 631.2 647.22 631.73 647.51 632.26C647.8 632.8 647.98 633.38 648.14 633.93C648.3 634.49 648.46 635.03 648.68 635.54C648.89 636.05 649.16 636.53 649.51 636.92C649.86 637.31 650.31 637.58 650.81 637.76C651.31 637.93 651.87 638.01 652.43 638.06C653 638.11 653.58 638.13 654.17 638.21C654.76 638.29 655.37 638.42 655.94 638.7C656.51 638.98 657.01 639.4 657.38 639.89C657.76 640.38 658.03 640.94 658.25 641.49C658.68 642.61 658.9 643.76 659.2 644.86C659.49 645.96 659.91 647.01 660.47 647.99C660.74 648.48 661.05 648.96 661.4 649.4C661.74 649.85 662.08 650.29 662.3 650.87C662.32 650.93 662.29 651 662.23 651.03C662.2 651.04 662.16 651.04 662.14 651.03C661.56 650.77 661.17 650.31 660.82 649.83C660.49 649.34 660.17 648.84 659.88 648.32C659.3 647.29 658.85 646.18 658.55 645.04C658.24 643.91 658.02 642.78 657.62 641.74C657.42 641.22 657.17 640.73 656.84 640.31C656.52 639.89 656.11 639.54 655.63 639.31C654.68 638.84 653.52 638.84 652.36 638.74C651.77 638.69 651.17 638.61 650.58 638.41C649.99 638.21 649.42 637.86 649 637.38C648.15 636.43 647.82 635.22 647.46 634.14C647.28 633.59 647.09 633.07 646.87 632.57C646.64 632.07 646.39 631.62 646.07 631.13C646.03 631.08 646.05 631 646.1 630.97C646.14 630.94 646.18 630.94 646.22 630.96Z" fill="#371A45"/>
<path d="M646.18 640.69C646.63 640.63 647.02 640.64 647.44 640.65L648.69 640.68C649.54 640.68 650.43 640.65 651.31 640.81C651.75 640.89 652.2 641.01 652.62 641.21C653.04 641.41 653.44 641.69 653.75 642.06C654.07 642.42 654.28 642.86 654.42 643.3C654.56 643.74 654.62 644.19 654.66 644.63C654.72 645.52 654.7 646.36 654.76 647.2C654.81 648.04 654.9 648.88 655.06 649.7C655.22 650.52 655.46 651.32 655.79 652.08C655.96 652.46 656.14 652.83 656.38 653.16C656.6 653.51 656.82 653.84 656.91 654.31C656.92 654.38 656.88 654.45 656.81 654.46C656.79 654.46 656.76 654.46 656.74 654.45C656.27 654.28 655.99 653.91 655.76 653.53C655.55 653.14 655.34 652.75 655.16 652.34C654.81 651.53 654.56 650.68 654.39 649.82C654.22 648.96 654.13 648.1 654.07 647.23C654.01 646.37 654.03 645.5 653.97 644.68C653.91 643.86 653.72 643.06 653.22 642.5C652.73 641.92 651.97 641.61 651.18 641.48C650.38 641.34 649.55 641.34 648.69 641.38C648.26 641.4 647.82 641.41 647.38 641.35C646.94 641.3 646.49 641.19 646.11 640.91C646.06 640.87 646.05 640.79 646.09 640.74C646.11 640.71 646.14 640.69 646.18 640.69Z" fill="#371A45"/>
<path d="M657.4 648.16C657.61 648.24 657.7 648.36 657.76 648.49C657.83 648.62 657.87 648.75 657.9 648.89C657.98 649.16 658.1 649.43 658.2 649.69C658.42 650.22 658.65 650.74 658.91 651.24C659.17 651.75 659.44 652.25 659.74 652.74C659.89 652.98 660.04 653.22 660.2 653.46C660.28 653.58 660.36 653.7 660.46 653.8C660.55 653.91 660.62 654.04 660.5 654.29C660.47 654.37 660.39 654.41 660.32 654.42C660.04 654.44 659.95 654.33 659.87 654.2C659.81 654.06 659.73 653.94 659.64 653.82C659.48 653.57 659.32 653.33 659.17 653.07C658.87 652.57 658.58 652.05 658.32 651.53C658.06 651.01 657.81 650.47 657.59 649.93C657.47 649.66 657.38 649.38 657.26 649.11C657.2 648.98 657.14 648.84 657.11 648.7C657.08 648.55 657.08 648.4 657.2 648.21C657.23 648.16 657.32 648.13 657.4 648.16Z" fill="#371A45"/>
<path d="M646.13 644.61C646.39 644.38 646.68 644.29 646.98 644.23C647.28 644.17 647.59 644.17 647.91 644.2C648.53 644.24 649.17 644.36 649.74 644.65C650.32 644.94 650.81 645.38 651.18 645.88C651.55 646.39 651.83 646.95 652.01 647.54C652.39 648.72 652.42 649.98 652.2 651.18C652.09 651.78 651.92 652.37 651.69 652.93L651.33 653.77C651.2 654.04 651.02 654.3 650.67 654.43C650.6 654.46 650.51 654.42 650.49 654.34C650.49 654.33 650.49 654.32 650.48 654.31V654.3C650.42 653.92 650.56 653.69 650.69 653.43C650.84 653.19 650.96 652.93 651.06 652.67C651.27 652.15 651.43 651.6 651.53 651.05C651.73 649.95 651.7 648.8 651.36 647.74C651.03 646.69 650.38 645.72 649.42 645.24C648.95 645 648.41 644.88 647.87 644.88C647.6 644.88 647.32 644.91 647.04 644.91C646.76 644.92 646.48 644.92 646.16 644.81C646.09 644.79 646.06 644.71 646.08 644.64C646.1 644.65 646.11 644.63 646.13 644.61Z" fill="#371A45"/>
<path d="M646.12 648.32C646.24 648.11 646.44 648.03 646.63 648C646.82 647.97 647.02 647.99 647.2 648.04C647.57 648.13 647.94 648.28 648.24 648.54C648.84 649.05 649.14 649.82 649.1 650.59C649.08 650.97 648.95 651.37 648.75 651.68C648.55 652 648.29 652.27 648.02 652.5C647.75 652.73 647.46 652.92 647.18 653.1C647.04 653.19 646.89 653.28 646.77 653.39C646.63 653.48 646.48 653.56 646.22 653.44C646.14 653.41 646.1 653.33 646.1 653.25C646.12 652.95 646.25 652.86 646.39 652.78C646.54 652.71 646.68 652.63 646.82 652.54C647.09 652.36 647.36 652.18 647.59 651.99C648.07 651.6 648.41 651.12 648.43 650.56C648.46 650.01 648.23 649.42 647.81 649.07C647.6 648.9 647.35 648.77 647.07 648.74C646.93 648.73 646.79 648.73 646.66 648.71C646.52 648.7 646.38 648.67 646.19 648.54L646.18 648.53C646.1 648.48 646.08 648.39 646.12 648.32Z" fill="#371A45"/>
</g>
<g opacity="0.55">
<path d="M648.54 654.37H646.15V618.99H646.49C647.62 618.99 648.54 619.91 648.54 621.04V654.37Z" fill="white"/>
</g>
<g opacity="0.3">
<path d="M662.23 613.33V654.37H658.42V622.84C658.42 620.74 656.72 619.04 654.62 619.04H646.15V613.33H662.23Z" fill="#371A45"/>
</g>
<path d="M665.95 657.76V699.05C665.95 700.92 664.43 702.43 662.57 702.43H645.98C645.42 702.43 644.89 702.29 644.43 702.05C643.34 701.49 642.6 700.35 642.6 699.04V657.75C642.6 655.88 644.12 654.37 645.98 654.37H662.57C664.43 654.37 665.95 655.89 665.95 657.76Z" fill="#F9DC1B"/>
<path d="M662.56 702.61H645.97C645.4 702.61 644.84 702.47 644.34 702.22L644.25 702.17C643.12 701.55 642.42 700.37 642.42 699.06V657.77C642.42 655.81 644.01 654.22 645.97 654.22H662.56C664.52 654.22 666.11 655.81 666.11 657.77V699.06C666.12 701.01 664.52 702.61 662.56 702.61ZM644.6 701.96C645.03 702.16 645.5 702.27 645.98 702.27H662.57C664.34 702.27 665.79 700.83 665.79 699.05V657.76C665.79 655.99 664.35 654.54 662.57 654.54H645.98C644.21 654.54 642.76 655.98 642.76 657.76V699.05C642.76 700.26 643.43 701.35 644.5 701.91L644.6 701.96Z" fill="#000072"/>
<path d="M665.95 657.76V699.05C665.95 700.92 664.43 702.43 662.57 702.43H657.06C658.93 702.43 660.44 700.91 660.44 699.05V657.76C660.44 655.89 658.92 654.38 657.06 654.38H662.57C664.43 654.37 665.95 655.89 665.95 657.76Z" fill="#E89F02"/>
<path d="M662.56 702.61H657.05V702.27C658.82 702.27 660.27 700.83 660.27 699.05V657.76C660.27 655.99 658.83 654.54 657.05 654.54V654.2H662.56C664.52 654.2 666.11 655.79 666.11 657.75V699.04C666.12 701.01 664.52 702.61 662.56 702.61ZM658.57 702.27H662.56C664.33 702.27 665.78 700.83 665.78 699.05V657.76C665.78 655.99 664.34 654.54 662.56 654.54H658.57C659.78 655.11 660.61 656.34 660.61 657.76V699.05C660.61 700.47 659.78 701.7 658.57 702.27Z" fill="#E89F02"/>
<g opacity="0.55">
<path d="M646.99 702.06C647.45 702.3 647.98 702.44 648.54 702.44H645.98C645.42 702.44 644.89 702.3 644.43 702.06C643.34 701.5 642.6 700.36 642.6 699.05V657.76C642.6 655.89 644.12 654.38 645.98 654.38H648.54C646.67 654.38 645.16 655.9 645.16 657.76V699.05C645.15 700.36 645.9 701.5 646.99 702.06Z" fill="white"/>
</g>
<g opacity="0.2">
<path d="M632.78 592.43L635.03 604.7H630.52V592.43H632.78Z" fill="black"/>
</g>
<g opacity="0.2">
<path d="M656.02 592.98C656.02 594.73 653.81 594.26 651.08 594.26C648.35 594.26 646.14 594.73 646.14 592.98C646.14 591.23 648.35 589.81 651.08 589.81C653.81 589.81 656.02 591.23 656.02 592.98Z" fill="white"/>
</g>
<g opacity="0.2">
<path d="M652.78 674.57C652.78 677.84 651.4 680.49 649.7 680.49C648 680.49 647.97 677.84 647.97 674.57C647.97 671.3 648 668.65 649.7 668.65C651.4 668.65 652.78 671.3 652.78 674.57Z" fill="white"/>
</g>
<path d="M630.52 589.67V606.93C630.52 608.27 629.43 609.36 628.1 609.36H618.73C617.39 609.36 616.3 608.27 616.3 606.93V589.67C616.3 588.33 617.39 587.25 618.73 587.25H628.1C629.43 587.24 630.52 588.33 630.52 589.67Z" stroke="#0D2232" stroke-width="4" stroke-miterlimit="10" stroke-linecap="round" stroke-linejoin="round"/>
<path d="M640.969 604.7H630.52V592.43H639.39L640.969 604.7Z" stroke="#0D2232" stroke-width="4" stroke-miterlimit="10" stroke-linecap="round" stroke-linejoin="round"/>
<path d="M690.13 602.89C689.98 604.64 687.92 605.51 686.59 604.36C679.12 597.94 668.08 601.56 665.83 610.72C665.45 612.25 664.11 613.33 662.54 613.33H645.07C643.37 613.33 641.93 612.07 641.72 610.38L640.99 604.7L639.41 592.43L638.88 588.29C638.62 586.27 640.2 584.47 642.24 584.47H670.89C682.48 584.48 690.9 593.43 690.13 602.89Z" stroke="#0D2232" stroke-width="4" stroke-miterlimit="10" stroke-linecap="round" stroke-linejoin="round"/>
<path d="M662.23 613.33H646.15V654.37H662.23V613.33Z" stroke="#0D2232" stroke-width="4" stroke-miterlimit="10" stroke-linecap="round" stroke-linejoin="round"/>
<path d="M665.95 657.76V699.05C665.95 700.92 664.43 702.43 662.57 702.43H645.98C645.42 702.43 644.89 702.29 644.43 702.05C643.34 701.49 642.6 700.35 642.6 699.04V657.75C642.6 655.88 644.12 654.37 645.98 654.37H662.57C664.43 654.37 665.95 655.89 665.95 657.76Z" stroke="#0D2232" stroke-width="4" stroke-miterlimit="10" stroke-linecap="round" stroke-linejoin="round"/>
<path d="M684.369 714.22C684.359 714.17 684.359 714.12 684.359 714.07L686.169 630.01C686.179 629.37 686.709 628.87 687.349 628.88L701.809 629.19C702.119 629.2 702.409 629.32 702.619 629.55C702.799 629.73 702.909 629.97 702.929 630.22C702.939 630.27 702.939 630.32 702.939 630.37L701.129 714.43C701.119 715.07 700.589 715.57 699.949 715.56L685.489 715.25C685.179 715.24 684.889 715.12 684.679 714.89C684.499 714.71 684.389 714.47 684.369 714.22Z" fill="#C14854"/>
<path d="M689.959 630.093L688.168 714.156L697.426 714.353L699.217 630.29L689.959 630.093Z" fill="#E8656D"/>
<path opacity="0.5" d="M688.837 626.411L686.963 715.233L688.103 715.257L689.977 626.435L688.837 626.411Z" fill="white"/>
<path d="M681.6 632.14C680.81 631.55 680.05 630.89 679.34 630.19C675.12 626.04 672.76 620.49 672.71 614.56C672.66 608.64 674.92 603.05 679.08 598.83C680.16 597.73 681.35 596.75 682.63 595.9C683.01 595.65 683.5 595.64 683.89 595.89C683.92 595.91 683.94 595.92 683.96 595.94C684.3 596.19 684.47 596.61 684.41 597.03L682.67 608.64L695.62 615.1L705.77 604.78L700.7 595.02C700.48 594.6 700.54 594.09 700.85 593.73C701.16 593.37 701.65 593.24 702.1 593.39C704.29 594.14 706.33 595.22 708.19 596.61C708.98 597.2 709.74 597.86 710.45 598.55C714.67 602.7 717.03 608.25 717.08 614.18C717.13 620.1 714.87 625.69 710.71 629.91C702.95 637.82 690.44 638.77 681.6 632.14Z" fill="#E8656D"/>
<path d="M701.73 594.5L702.53 596.04C703.77 596.82 704.94 597.74 706.03 598.81C714.31 606.95 714.42 620.26 706.28 628.54C701.78 633.12 695.69 635.19 689.75 634.76C696.75 636.52 704.47 634.64 709.89 629.12C718.03 620.84 717.92 607.53 709.64 599.39C707.32 597.12 704.61 595.49 701.73 594.5Z" fill="#C14854"/>
<path opacity="0.5" d="M679.79 625.72C687.74 635.88 698.31 632.41 698.31 632.41C698.31 632.41 690.45 630.59 684.62 624.31C678.53 617.76 676.24 610.8 676.24 610.8C676.24 610.8 674.03 618.36 679.79 625.72Z" fill="white"/>
<path opacity="0.5" d="M681.679 711.9C684.639 708 687.619 708.7 687.619 708.7C687.619 708.7 683.719 712.12 681.549 716.83C679.509 721.26 679.809 728.44 679.809 728.44C679.809 728.44 677.809 723.62 678.089 721.18C678.549 717.2 679.679 714.53 681.679 711.9Z" fill="white"/>
<path d="M684.529 706.08L686.069 634.72" stroke="#0D2232" stroke-width="4" stroke-miterlimit="10" stroke-linecap="round" stroke-linejoin="round"/>
<path d="M702.84 635.11L701.3 706.48" stroke="#0D2232" stroke-width="4" stroke-miterlimit="10" stroke-linecap="round" stroke-linejoin="round"/>
<path d="M681.6 632.14C680.81 631.55 680.05 630.89 679.34 630.19C675.12 626.04 672.76 620.49 672.71 614.56C672.66 608.64 674.92 603.05 679.08 598.83C680.16 597.73 681.35 596.75 682.63 595.9C683.01 595.65 683.5 595.64 683.89 595.89C683.92 595.91 683.94 595.92 683.96 595.94C684.3 596.19 684.47 596.61 684.41 597.03L682.67 608.64L695.62 615.1L705.77 604.78L700.7 595.02C700.48 594.6 700.54 594.09 700.85 593.73C701.16 593.37 701.65 593.24 702.1 593.39C704.29 594.14 706.33 595.22 708.19 596.61C708.98 597.2 709.74 597.86 710.45 598.55C714.67 602.7 717.03 608.25 717.08 614.18C717.13 620.1 714.87 625.69 710.71 629.91C702.95 637.82 690.44 638.77 681.6 632.14Z" stroke="#0D2232" stroke-width="4" stroke-miterlimit="10" stroke-linecap="round" stroke-linejoin="round"/>
<path d="M618.96 658.93V717.09C618.96 717.09 630.53 734.45 653.03 734.45C675.53 734.45 691.6 734.45 691.6 734.45L698.35 725.77C698.35 725.77 703.81 684.95 704.46 669.2C704.46 669.2 642.74 670.85 618.96 658.93Z" fill="#FEC400"/>
<path d="M624.22 661.15V704.81C624.22 712.24 628.42 719.05 635.09 722.31C646.06 727.68 666.07 732.8 698.35 725.78L691.6 734.46L649.65 734.7C649.65 734.7 627.95 731.89 618.95 717.1V658.94L624.22 661.15Z" fill="#E89F02"/>
<path d="M618.96 658.93V712.14C618.96 715.76 620.42 719.22 622.98 721.78C628.13 726.92 638.21 734.45 653.03 734.45H684.53C688.99 734.45 693.2 732.39 695.94 728.87C697.52 726.84 698.53 724.42 698.86 721.87C700.23 711.28 703.93 681.99 704.45 669.2C704.46 669.2 642.74 670.85 618.96 658.93Z" stroke="#0D2232" stroke-width="4" stroke-miterlimit="10" stroke-linecap="round" stroke-linejoin="round"/>
<path d="M618.96 674.02C618.96 674.02 638.66 690.92 702.94 684.49" stroke="#0D2232" stroke-width="4" stroke-miterlimit="10" stroke-linecap="round" stroke-linejoin="round"/>
<path d="M519.47 324.64C507.64 320.6 494.67 321.55 483.55 327.26L479.6 329.29" stroke="#0D2232" stroke-width="12" stroke-miterlimit="10" stroke-linecap="round" stroke-linejoin="round"/>
<path d="M585.54 324.64C597.37 320.6 610.34 321.55 621.46 327.26L625.41 329.29" stroke="#0D2232" stroke-width="12" stroke-miterlimit="10" stroke-linecap="round" stroke-linejoin="round"/>
<path d="M481.39 658.93V718.37C481.39 718.37 456.96 737.01 419.68 734.44C419.68 734.44 404.25 710.01 399.75 669.19C399.74 669.2 464.03 672.78 481.39 658.93Z" stroke="white" stroke-miterlimit="10"/>
<path d="M402.29 685.78C402.29 685.78 455.67 686.24 481.38 674.02" stroke="white" stroke-miterlimit="10"/>
<path d="M415.13 725.81C415.13 725.81 447.31 726.73 465.96 716.45L461.84 666.27L481.39 658.93V718.37C481.39 718.37 459.53 735.73 419.68 734.44L415.13 725.81Z" stroke="white" stroke-miterlimit="10"/>
<path d="M481.56 674.02C481.56 674.02 460.32 690.73 395.96 684.31" stroke="white" stroke-miterlimit="10"/>
<path d="M499.579 634.16V722.88L487.989 734.45H408.829L419.449 726.09L418.799 634.16H499.579Z" fill="#F9DC1B"/>
<path d="M489.919 634.16V717.32L483.169 726.09H402.069L408.829 734.45H487.989L499.579 722.88V634.16H489.919Z" fill="#E89F02"/>
<path d="M487.346 651.667H492.496V646.527H487.346V651.667Z" fill="white"/>
<path d="M487.346 668.082H492.496V662.942H487.346V668.082Z" fill="white"/>
<path d="M487.346 684.488H492.496V679.348H487.346V684.488Z" fill="white"/>
<path d="M487.346 700.903H492.496V695.763H487.346V700.903Z" fill="white"/>
<path d="M487.346 717.319H492.496V712.179H487.346V717.319Z" fill="white"/>
<path d="M418.8 669.2V634.16H499.58V722.88L487.99 734.45L409.89 733.61" stroke="#0D2232" stroke-width="4" stroke-miterlimit="10" stroke-linecap="round" stroke-linejoin="round"/>
<path d="M424.729 604.1L429.399 621.71L426.669 624.62C423.399 619.72 417.359 616.99 411.299 618.22C411.009 618.28 410.719 618.35 410.429 618.42C411.679 617.38 412.589 616.2 413.169 614.98C415.709 609.67 412.369 603.31 406.099 602.17L402.319 587.93C411.809 589.24 418.669 594.3 423.719 601.93C424.189 602.6 424.519 603.33 424.729 604.1Z" fill="#AFCADC"/>
<path d="M426.65 624.93L426.52 624.73C423.22 619.78 417.13 617.24 411.35 618.41C411.08 618.46 410.8 618.53 410.5 618.61L409.66 618.83L410.33 618.27C411.52 617.28 412.43 616.15 413.02 614.89C414.18 612.47 414.13 609.7 412.9 607.29C411.57 604.7 409.09 602.9 406.09 602.35L405.97 602.33L402.09 587.69L402.38 587.73C411.41 588.98 418.46 593.58 423.92 601.81C424.38 602.5 424.72 603.25 424.93 604.04L429.63 621.75L426.65 624.93ZM411.15 618.05C411.19 618.04 411.23 618.03 411.28 618.02C417.13 616.83 423.29 619.35 426.71 624.3L429.2 621.64L424.55 604.14C424.35 603.39 424.03 602.68 423.59 602.02C418.25 593.98 411.39 589.43 402.61 588.15L406.28 601.99C409.34 602.58 411.88 604.44 413.24 607.11C414.53 609.63 414.57 612.52 413.36 615.05C412.84 616.15 412.1 617.16 411.15 618.05Z" fill="#000072"/>
<g opacity="0.55">
<path d="M413.16 617.97C412.55 618.01 411.93 618.1 411.31 618.22C411.02 618.28 410.73 618.35 410.44 618.42C411.69 617.38 412.6 616.2 413.18 614.98C415.72 609.67 412.38 603.31 406.11 602.17L402.33 587.93C403.35 588.07 404.33 588.25 405.28 588.48L408.8 601.73C415.07 602.87 418.41 609.22 415.87 614.54C415.3 615.76 414.4 616.93 413.16 617.97Z" fill="white"/>
</g>
<g opacity="0.55">
<path d="M413.219 617.96L413.129 617.98C413.139 617.97 413.139 617.97 413.149 617.96C413.179 617.96 413.199 617.96 413.219 617.96Z" fill="white"/>
<path d="M413.269 618.15L412.359 618.39L413.099 617.78C413.139 617.77 413.169 617.77 413.189 617.77L414.819 617.73L413.269 618.15Z" fill="#371A45"/>
</g>
<path d="M432.419 633.08L434.699 641.69C434.839 642.22 434.549 642.78 434.049 642.97C434.009 642.98 433.979 642.99 433.939 643L418.359 647.14C416.779 647.56 415.179 647.71 413.609 647.62C408.589 647.32 403.899 644.55 401.359 640.22C400.709 639.12 400.199 637.93 399.859 636.64C399.429 635.03 399.289 633.42 399.389 631.85C399.789 625.64 404.079 620.11 410.429 618.43H410.439C410.729 618.35 411.009 618.29 411.309 618.23C417.369 617 423.409 619.73 426.679 624.63C427.639 626.07 428.349 627.69 428.769 629.45C429.039 630.59 429.159 631.73 429.159 632.85L431.119 632.33C431.479 632.23 431.849 632.34 432.109 632.57C432.249 632.69 432.369 632.87 432.419 633.08Z" fill="#AFCADC"/>
<path d="M433.99 643.19L418.41 647.33C416.84 647.75 415.22 647.91 413.6 647.81C408.48 647.51 403.73 644.64 401.19 640.32C400.52 639.19 400.01 637.97 399.67 636.7C399.25 635.1 399.09 633.47 399.19 631.84C399.61 625.37 404.1 619.91 410.37 618.24C410.7 618.15 410.98 618.09 411.26 618.03C417.18 616.83 423.44 619.43 426.82 624.51C427.81 626 428.52 627.64 428.93 629.39C429.18 630.44 429.31 631.52 429.32 632.59L431.04 632.13C431.45 632.02 431.89 632.12 432.2 632.41C432.39 632.57 432.52 632.79 432.58 633.03L434.86 641.64C435.03 642.27 434.69 642.92 434.09 643.15C434.08 643.16 434.04 643.17 433.99 643.19ZM410.49 618.6C404.37 620.23 399.99 625.55 399.58 631.85C399.47 633.44 399.63 635.03 400.04 636.58C400.37 637.82 400.87 639.01 401.52 640.11C403.99 644.32 408.63 647.12 413.62 647.41C415.2 647.5 416.78 647.35 418.31 646.94L433.89 642.8C433.92 642.79 433.95 642.78 433.98 642.77C434.4 642.61 434.63 642.16 434.52 641.72L432.24 633.11C432.2 632.94 432.1 632.79 431.97 632.68C431.75 632.48 431.45 632.41 431.16 632.48L428.96 633.06V632.81C428.96 631.69 428.83 630.56 428.57 629.45C428.17 627.74 427.48 626.14 426.51 624.69C423.21 619.74 417.12 617.2 411.34 618.37C411.08 618.46 410.8 618.52 410.49 618.6Z" fill="#000072"/>
<g opacity="0.3">
<path d="M424.73 604.1L429.4 621.71L426.67 624.62C426.49 624.35 426.3 624.08 426.1 623.82C422.73 619.42 417.03 617.05 411.3 618.22C411.01 618.28 410.72 618.35 410.43 618.42C411.68 617.38 412.59 616.2 413.17 614.98C413.25 614.95 413.34 614.93 413.42 614.91H413.44C413.72 614.84 414.01 614.77 414.31 614.71C416.95 614.17 419.58 614.39 421.98 615.21C423.44 615.71 424.86 614.41 424.47 612.92L422.41 605.17C422.21 604.4 421.87 603.67 421.43 603C416.87 596.12 410.84 591.33 402.75 589.5L402.34 587.95C411.83 589.26 418.69 594.32 423.74 601.95C424.19 602.6 424.52 603.33 424.73 604.1Z" fill="black"/>
<path d="M426.65 624.93L426.52 624.73C426.34 624.45 426.15 624.19 425.96 623.95C422.54 619.48 416.81 617.31 411.35 618.42C411.08 618.47 410.8 618.54 410.5 618.62L409.66 618.84L410.33 618.28C411.52 617.29 412.43 616.16 413.02 614.9L413.06 614.82L413.14 614.79C413.54 614.66 413.95 614.58 414.29 614.51C416.87 613.99 419.55 614.16 422.06 615.01C422.68 615.22 423.34 615.08 423.82 614.64C424.29 614.2 424.47 613.58 424.3 612.96L422.24 605.21C422.04 604.47 421.72 603.76 421.28 603.09C416.44 595.79 410.37 591.4 402.71 589.67L402.6 589.64L402.08 587.7L402.37 587.74C411.4 588.99 418.45 593.59 423.91 601.82C424.37 602.51 424.71 603.26 424.92 604.05L429.62 621.76L426.65 624.93ZM411.15 618.05C411.19 618.04 411.23 618.03 411.28 618.02C416.88 616.88 422.76 619.11 426.27 623.7C426.42 623.89 426.57 624.09 426.71 624.31L429.2 621.65L424.55 604.15C424.35 603.4 424.03 602.69 423.59 602.03C418.25 593.99 411.39 589.44 402.61 588.16L402.92 589.32C410.62 591.09 416.73 595.53 421.61 602.88C422.07 603.58 422.41 604.33 422.62 605.11L424.68 612.86C424.88 613.62 424.66 614.39 424.09 614.92C423.51 615.46 422.71 615.63 421.94 615.38C419.5 614.55 416.88 614.38 414.37 614.89C414.1 614.94 413.79 615.01 413.51 615.09C413.45 615.11 413.39 615.12 413.34 615.14C412.81 616.2 412.08 617.18 411.15 618.05Z" fill="#371A45"/>
</g>
<g opacity="0.55">
<path d="M421.319 619.74C418.899 618.9 416.229 618.67 413.559 619.21C413.269 619.27 412.979 619.34 412.689 619.41H412.679C406.339 621.09 402.049 626.63 401.639 632.83C401.539 634.4 401.679 636.02 402.109 637.62C402.449 638.9 402.959 640.1 403.609 641.2C405.009 643.58 407.049 645.49 409.449 646.77C406.099 645.6 403.179 643.3 401.359 640.2C400.709 639.1 400.199 637.91 399.859 636.62C399.429 635.01 399.289 633.4 399.389 631.83C399.789 625.62 404.079 620.09 410.429 618.41H410.439C410.729 618.33 411.009 618.27 411.309 618.21C414.829 617.5 418.349 618.13 421.319 619.74Z" fill="white"/>
</g>
<path d="M414.26 640.7C418.612 640.7 422.14 637.172 422.14 632.82C422.14 628.468 418.612 624.94 414.26 624.94C409.908 624.94 406.38 628.468 406.38 632.82C406.38 637.172 409.908 640.7 414.26 640.7Z" fill="#CECEDD"/>
<g opacity="0.55">
<path d="M424.34 632.23C425.46 636.44 422.95 640.75 418.75 641.87C416.15 642.56 413.51 641.87 411.6 640.24C413.05 640.76 414.67 640.86 416.28 640.44C420.49 639.32 422.99 635.01 421.87 630.8C421.44 629.2 420.55 627.84 419.38 626.84C421.74 627.68 423.65 629.63 424.34 632.23Z" fill="white"/>
</g>
<g opacity="0.3">
<path d="M419.06 626.57C417.77 626.21 416.37 626.19 414.98 626.56C410.77 627.68 408.27 631.99 409.39 636.2C409.85 637.95 410.87 639.4 412.21 640.42C409.58 639.71 407.4 637.66 406.65 634.84C405.53 630.63 408.04 626.32 412.24 625.2C414.7 624.55 417.19 625.13 419.06 626.57Z" fill="black"/>
<path d="M413.09 640.86L412.15 640.61C409.37 639.86 407.19 637.67 406.45 634.89C405.31 630.59 407.88 626.16 412.18 625.02C414.62 624.37 417.17 624.88 419.17 626.42L419.95 627.02L419 626.76C417.71 626.4 416.34 626.4 415.02 626.75C410.92 627.84 408.47 632.06 409.56 636.15C410 637.8 410.95 639.23 412.31 640.27L413.09 640.86ZM412.29 625.39C408.19 626.48 405.74 630.7 406.83 634.79C407.45 637.12 409.14 639.02 411.34 639.93C410.31 638.92 409.58 637.67 409.2 636.25C408.06 631.95 410.63 627.52 414.93 626.38C415.98 626.1 417.08 626.04 418.14 626.19C416.38 625.15 414.29 624.85 412.29 625.39Z" fill="#371A45"/>
</g>
<path d="M418.08 647.21L421.69 660.81C422.17 662.61 423.22 664.22 424.68 665.38L439.44 677.12C441.87 679.05 443.61 681.71 444.4 684.7L451.77 712.48C452.24 714.26 454.29 715.07 455.87 714.11C459.53 711.88 462.37 709.3 463.91 706.16C465.15 703.63 465.35 700.71 464.62 697.98L459.03 676.94C458.47 674.83 457.35 672.92 455.79 671.39L446.03 661.85C444.12 659.98 442.99 657.44 442.96 654.77C442.93 651.75 443.52 648.39 444.47 644.83C445.06 642.61 443.04 640.58 440.82 641.17L418.08 647.21Z" fill="#F9DC1B"/>
<path d="M459.04 676.93L464.63 697.98C465.35 700.71 465.16 703.63 463.92 706.16C462.38 709.3 459.53 711.88 455.87 714.11C454.79 714.77 453.49 714.59 452.63 713.85C455.71 711.8 458.11 709.45 459.48 706.66C460.72 704.13 460.92 701.21 460.19 698.48L454.6 677.43C454.04 675.32 452.92 673.41 451.36 671.88L441.6 662.34C439.69 660.47 438.57 657.93 438.54 655.26C438.51 652.24 439.1 648.88 440.05 645.32C440.45 643.81 439.64 642.38 438.38 641.82L440.85 641.17C443.07 640.58 445.09 642.61 444.5 644.83C443.55 648.39 442.96 651.75 442.99 654.77C443.02 657.44 444.15 659.98 446.05 661.85L455.81 671.39C457.36 672.91 458.48 674.83 459.04 676.93Z" fill="#E89F02"/>
<g opacity="0.55">
<path d="M454.99 713.61C455.06 713.88 455.17 714.14 455.31 714.36C453.84 714.86 452.19 714.05 451.77 712.47L444.4 684.69C443.61 681.7 441.87 679.04 439.44 677.11L424.68 665.37C423.22 664.21 422.17 662.61 421.69 660.8L418.08 647.2L440.85 641.16C442.14 640.82 443.35 641.36 444.04 642.3L421.3 648.33L424.91 661.93C425.39 663.74 426.44 665.34 427.9 666.5L442.66 678.24C445.08 680.17 446.82 682.83 447.62 685.82L454.99 713.61Z" fill="white"/>
</g>
<path d="M418.08 647.21L421.69 660.81C422.17 662.61 422.05 664.52 421.36 666.26L414.36 683.77C413.21 686.65 413.02 689.82 413.81 692.82L421.18 720.6C421.65 722.38 420.27 724.1 418.43 724.04C414.15 723.92 410.4 723.09 407.5 721.13C405.16 719.55 403.55 717.11 402.82 714.38L397.23 693.34C396.67 691.23 396.69 689.02 397.29 686.92L401.03 673.8C401.76 671.23 401.48 668.47 400.18 666.13C398.71 663.49 396.53 660.86 393.94 658.24C392.33 656.61 393.08 653.85 395.29 653.26L418.08 647.21Z" fill="#F9DC1B"/>
<path d="M418.08 647.21L421.69 660.81C422.17 662.62 422.05 664.53 421.36 666.26L414.36 683.77C413.21 686.65 413.02 689.82 413.81 692.82L421.18 720.6C421.65 722.38 420.27 724.1 418.43 724.05C417.64 724.03 416.86 723.98 416.1 723.9C416.43 723.31 416.54 722.6 416.35 721.88L408.98 694.1C408.19 691.11 408.38 687.93 409.53 685.05L416.53 667.54C417.22 665.81 417.34 663.9 416.86 662.09L413.25 648.49L418.08 647.21Z" fill="#E89F02"/>
<g opacity="0.55">
<path d="M397.919 659.17C400.509 661.79 402.689 664.42 404.159 667.06C405.459 669.39 405.739 672.16 405.009 674.73L401.269 687.85C400.669 689.95 400.649 692.17 401.209 694.27L406.799 715.32C407.519 718.05 409.139 720.49 411.469 722.07C412.499 722.77 413.639 723.32 414.869 723.75C412.059 723.35 409.569 722.53 407.509 721.13C405.179 719.55 403.559 717.11 402.839 714.38L397.249 693.33C396.689 691.22 396.709 689 397.309 686.91L401.049 673.79C401.779 671.22 401.499 668.46 400.199 666.13C398.729 663.49 396.549 660.86 393.959 658.24C392.349 656.61 393.099 653.84 395.309 653.26L418.069 647.21L418.559 649.07L399.259 654.2C397.059 654.78 396.309 657.54 397.919 659.17Z" fill="white"/>
</g>
<path d="M413.609 647.61L413.799 648.34L400.919 651.76L398.559 642.88C398.299 641.89 398.889 640.87 399.879 640.61L401.349 640.22C403.899 644.54 408.589 647.32 413.609 647.61Z" fill="#AFCADC"/>
<path d="M414.04 648.48L400.79 652L398.38 642.93C398.09 641.84 398.74 640.71 399.84 640.42L401.45 639.99L401.52 640.12C403.99 644.33 408.63 647.13 413.62 647.42L413.76 647.43L414.04 648.48ZM401.06 651.53L413.57 648.21L413.46 647.8C408.45 647.46 403.8 644.65 401.27 640.44L399.94 640.79C399.05 641.03 398.52 641.94 398.76 642.83L401.06 651.53Z" fill="#000072"/>
<g opacity="0.55">
<path d="M401.48 640.18C401.68 640.53 401.91 640.87 402.14 641.2L402.01 641.24C401.02 641.5 400.43 642.52 400.69 643.51L402.75 651.28L401.04 651.73L398.68 642.85C398.42 641.86 399.01 640.84 400 640.58L401.48 640.18Z" fill="white"/>
</g>
<path d="M410.429 618.42C404.089 620.1 399.799 625.64 399.389 631.84L395.589 630.67L390.919 613.06C390.709 612.29 390.639 611.49 390.699 610.69C391.309 601.56 394.749 593.76 402.339 587.92L406.119 602.16C400.109 607.21 401.889 616.94 410.429 618.42Z" fill="#AFCADC"/>
<path d="M399.57 632.1L395.44 630.83L390.74 613.12C390.53 612.33 390.45 611.51 390.51 610.68C391.17 600.83 395 593.33 402.23 587.77L402.46 587.59L406.34 602.23L406.25 602.31C403.36 604.73 402.15 608.39 403.08 611.85C403.98 615.19 406.74 617.57 410.47 618.22L411.33 618.37L410.48 618.59C404.37 620.21 399.99 625.54 399.59 631.84L399.57 632.1ZM395.75 630.53L399.21 631.6C399.7 625.49 403.83 620.32 409.63 618.46C406.14 617.61 403.57 615.22 402.7 611.97C401.74 608.4 402.97 604.63 405.9 602.11L402.23 588.27C395.24 593.74 391.53 601.09 390.89 610.72C390.84 611.51 390.91 612.29 391.11 613.03L395.75 630.53Z" fill="#000072"/>
<g opacity="0.3">
<path d="M407.76 619.41C407.81 619.39 407.86 619.36 407.91 619.34C407.93 619.34 407.95 619.35 407.97 619.35C407.9 619.37 407.83 619.39 407.76 619.41Z" fill="#262F6A"/>
<path d="M407.82 619.6L407.67 619.25C407.72 619.22 407.78 619.2 407.83 619.17L407.88 619.15L407.98 619.16L408.78 619.32L408.02 619.53C407.95 619.56 407.88 619.58 407.82 619.6Z" fill="#371A45"/>
</g>
<g opacity="0.3">
<path d="M408.309 617.84C408.899 618.07 408.909 618.9 408.319 619.16C408.179 619.22 408.039 619.28 407.909 619.35C399.419 617.83 397.039 608.03 403.029 603L399.649 590.26C400.479 589.45 401.379 588.68 402.349 587.94L406.129 602.18C400.649 606.76 401.629 615.24 408.309 617.84Z" fill="#262F6A"/>
<path d="M407.93 619.54L407.87 619.53C403.82 618.8 400.81 616.15 399.82 612.43C398.89 608.94 400.03 605.3 402.81 602.92L399.43 590.19L399.51 590.11C400.35 589.3 401.26 588.51 402.22 587.77L402.45 587.59L406.33 602.23L406.24 602.31C403.61 604.52 402.35 607.77 402.89 611.01C403.39 614.07 405.39 616.5 408.38 617.66C408.72 617.8 408.94 618.11 408.95 618.48C408.96 618.86 408.75 619.18 408.4 619.33C408.26 619.39 408.13 619.45 407.99 619.52L407.93 619.54ZM399.86 590.31L403.24 603.06L403.15 603.14C400.42 605.43 399.29 608.95 400.19 612.34C401.14 615.89 404.01 618.43 407.87 619.15C407.99 619.09 408.11 619.04 408.24 618.98C408.48 618.88 408.56 618.66 408.56 618.49C408.56 618.28 408.44 618.1 408.24 618.02C405.13 616.81 403.04 614.28 402.51 611.08C401.96 607.75 403.23 604.4 405.9 602.11L402.23 588.27C401.4 588.91 400.6 589.6 399.86 590.31Z" fill="#371A45"/>
</g>
<g opacity="0.55">
<path d="M402.34 587.93L402.88 589.98C396.81 595.58 393.98 602.7 393.43 610.9C393.38 611.7 393.45 612.5 393.65 613.27L398.32 630.88L399.43 631.22C399.41 631.43 399.39 631.64 399.38 631.85L395.58 630.68L390.91 613.07C390.7 612.3 390.63 611.5 390.69 610.7C391.31 601.57 394.75 593.77 402.34 587.93Z" fill="white"/>
</g>
<g opacity="0.2">
<path d="M432.42 633.08L434.7 641.69C434.84 642.22 434.55 642.78 434.05 642.97L421.14 646.4C427.39 643.37 430.44 639.06 429.67 633.2L432.1 632.56C432.25 632.69 432.37 632.87 432.42 633.08Z" fill="black"/>
</g>
<path d="M413.609 647.61L413.799 648.34L400.919 651.76L398.559 642.88C398.299 641.89 398.889 640.87 399.879 640.61L401.349 640.22C403.899 644.54 408.589 647.32 413.609 647.61Z" stroke="#0D2232" stroke-width="4" stroke-miterlimit="10" stroke-linecap="round" stroke-linejoin="round"/>
<path d="M418.079 647.21L421.689 660.81C422.169 662.61 423.219 664.22 424.679 665.38L439.439 677.12C441.869 679.05 443.609 681.71 444.399 684.7L451.769 712.48C452.239 714.26 454.289 715.07 455.869 714.11C459.529 711.88 462.369 709.3 463.909 706.16C465.149 703.63 465.349 700.71 464.619 697.98L459.029 676.94C458.469 674.83 457.349 672.92 455.789 671.39L446.029 661.85C444.119 659.98 442.989 657.44 442.959 654.77C442.929 651.75 443.519 648.39 444.469 644.83C445.059 642.61 443.039 640.58 440.819 641.17L418.079 647.21Z" stroke="#0D2232" stroke-width="4" stroke-miterlimit="10" stroke-linecap="round" stroke-linejoin="round"/>
<path d="M418.08 647.21L421.69 660.81C422.17 662.61 422.05 664.52 421.36 666.26L414.36 683.77C413.21 686.65 413.02 689.82 413.81 692.82L421.18 720.6C421.65 722.38 420.27 724.1 418.43 724.04C414.15 723.92 410.4 723.09 407.5 721.13C405.16 719.55 403.55 717.11 402.82 714.38L397.23 693.34C396.67 691.23 396.69 689.02 397.29 686.92L401.03 673.8C401.76 671.23 401.48 668.47 400.18 666.13C398.71 663.49 396.53 660.86 393.94 658.24C392.33 656.61 393.08 653.85 395.29 653.26L418.08 647.21Z" stroke="#0D2232" stroke-width="4" stroke-miterlimit="10" stroke-linecap="round" stroke-linejoin="round"/>
<path d="M424.729 604.1L429.399 621.71L426.669 624.62C423.399 619.72 417.359 616.99 411.299 618.22C411.009 618.28 410.719 618.35 410.429 618.42C411.679 617.38 412.589 616.2 413.169 614.98C415.709 609.67 412.369 603.31 406.099 602.17L402.319 587.93C411.809 589.24 418.669 594.3 423.719 601.93C424.189 602.6 424.519 603.33 424.729 604.1Z" stroke="#0D2232" stroke-width="4" stroke-miterlimit="10" stroke-linecap="round" stroke-linejoin="round"/>
<path d="M432.419 633.08L434.699 641.69C434.839 642.22 434.549 642.78 434.049 642.97C434.009 642.98 433.979 642.99 433.939 643L418.359 647.14C416.779 647.56 415.179 647.71 413.609 647.62C408.589 647.32 403.899 644.55 401.359 640.22C400.709 639.12 400.199 637.93 399.859 636.64C399.429 635.03 399.289 633.42 399.389 631.85C399.789 625.64 404.079 620.11 410.429 618.43H410.439C410.729 618.35 411.009 618.29 411.309 618.23C417.369 617 423.409 619.73 426.679 624.63C427.639 626.07 428.349 627.69 428.769 629.45C429.039 630.59 429.159 631.73 429.159 632.85L431.119 632.33C431.479 632.23 431.849 632.34 432.109 632.57C432.249 632.69 432.369 632.87 432.419 633.08Z" stroke="#0D2232" stroke-width="4" stroke-miterlimit="10" stroke-linecap="round" stroke-linejoin="round"/>
<path d="M410.429 618.42C404.089 620.1 399.799 625.64 399.389 631.84L395.589 630.67L390.919 613.06C390.709 612.29 390.639 611.49 390.699 610.69C391.309 601.56 394.749 593.76 402.339 587.92L406.119 602.16C400.109 607.21 401.889 616.94 410.429 618.42Z" stroke="#0D2232" stroke-width="4" stroke-miterlimit="10" stroke-linecap="round" stroke-linejoin="round"/>
<path d="M414.26 640.7C418.612 640.7 422.14 637.172 422.14 632.82C422.14 628.468 418.612 624.94 414.26 624.94C409.908 624.94 406.38 628.468 406.38 632.82C406.38 637.172 409.908 640.7 414.26 640.7Z" stroke="#0D2232" stroke-width="4" stroke-miterlimit="10" stroke-linecap="round" stroke-linejoin="round"/>
<path d="M466.57 664.67H446.02C443.83 664.67 442.05 662.89 442.05 660.7V659.57C442.05 657.38 443.83 655.6 446.02 655.6H466.57C468.76 655.6 470.54 657.38 470.54 659.57V660.7C470.54 662.9 468.76 664.67 466.57 664.67Z" fill="#F9DC1B"/>
<path d="M464.91 664.67H447.77V671.75H464.91V664.67Z" fill="#F9DC1B"/>
<path d="M458.07 716.23H454.52C447.63 716.23 442.05 710.65 442.05 703.76V675.9C442.05 673.61 443.9 671.76 446.19 671.76H466.4C468.69 671.76 470.54 673.61 470.54 675.9V703.76C470.54 710.64 464.96 716.23 458.07 716.23Z" fill="#F9DC1B"/>
<path d="M470.54 658.65V661.63C470.54 663.31 469.18 664.67 467.5 664.67H462.5C464.18 664.67 465.54 663.31 465.54 661.63V658.65C465.54 656.97 464.18 655.61 462.5 655.61H467.5C469.18 655.61 470.54 656.97 470.54 658.65Z" fill="#E89F02"/>
<path d="M464.91 664.68H459.91V671.76H464.91V664.68Z" fill="#E89F02"/>
<path d="M470.539 674.78V702.4C470.539 710.04 464.349 716.23 456.709 716.23H456.439C461.469 716.23 465.549 712.15 465.549 707.12V674.78C465.549 673.11 464.199 671.76 462.529 671.76H467.529C469.189 671.75 470.539 673.11 470.539 674.78Z" fill="#E89F02"/>
<g opacity="0.55">
<path d="M448.63 664.68H445.1C443.42 664.68 442.06 663.32 442.06 661.64V658.66C442.06 656.98 443.42 655.62 445.1 655.62H448.63C446.95 655.62 445.59 656.98 445.59 658.66V661.64C445.59 663.31 446.95 664.68 448.63 664.68Z" fill="white"/>
</g>
<g opacity="0.55">
<path d="M451.3 664.68H447.77V671.76H451.3V664.68Z" fill="white"/>
</g>
<g opacity="0.55">
<path d="M454.7 716.23H451.17C446.14 716.23 442.06 712.15 442.06 707.12V674.78C442.06 673.11 443.41 671.76 445.08 671.76H448.61C446.94 671.76 445.59 673.11 445.59 674.78V707.12C445.59 712.15 449.66 716.23 454.7 716.23Z" fill="white"/>
</g>
<path d="M466.229 616.9L463.919 624.08H460.929V655.61H451.989V624.08H449.009L446.689 616.9L450.329 596.36H462.589L466.229 616.9Z" fill="#AFCADC"/>
<path d="M461.1 655.77H451.82V624.24H448.88L446.51 616.91L446.52 616.87L450.19 596.19H462.72L466.4 616.91L464.03 624.24H461.09V655.77H461.1ZM452.16 655.44H460.77V623.91H463.8L466.07 616.89L462.46 596.53H450.48L446.87 616.89L449.14 623.91H452.17V655.44H452.16Z" fill="#000072"/>
<g opacity="0.2">
<path d="M460.11 624.08H460.93V655.61H458.17V626.02C458.17 624.95 459.04 624.08 460.11 624.08Z" fill="black"/>
</g>
<g opacity="0.2">
<path d="M466.23 616.9L463.92 624.08H461.16L463.47 616.9L459.83 596.36H462.59L466.23 616.9Z" fill="black"/>
</g>
<g opacity="0.55">
<path d="M449.55 616.9L451.87 624.08H449.34L447.02 616.9L450.66 596.36H453.19L449.55 616.9Z" fill="white"/>
</g>
<g opacity="0.55">
<path d="M454.85 625.73V655.61H452.32V624.08H453.2C454.11 624.08 454.85 624.82 454.85 625.73Z" fill="white"/>
</g>
<g opacity="0.2">
<path d="M455.94 690.77C455.94 694.43 454.4 697.4 452.49 697.4C450.59 697.4 450.56 694.43 450.56 690.77C450.56 687.11 450.59 684.14 452.49 684.14C454.4 684.15 455.94 687.12 455.94 690.77Z" fill="white"/>
</g>
<path d="M466.57 664.67H446.02C443.83 664.67 442.05 662.89 442.05 660.7V659.57C442.05 657.38 443.83 655.6 446.02 655.6H466.57C468.76 655.6 470.54 657.38 470.54 659.57V660.7C470.54 662.9 468.76 664.67 466.57 664.67Z" stroke="#0D2232" stroke-width="4" stroke-miterlimit="10" stroke-linecap="round" stroke-linejoin="round"/>
<path d="M464.91 664.67H447.77V671.75H464.91V664.67Z" stroke="#0D2232" stroke-width="4" stroke-miterlimit="10" stroke-linecap="round" stroke-linejoin="round"/>
<path d="M458.07 716.23H454.52C447.63 716.23 442.05 710.65 442.05 703.76V675.9C442.05 673.61 443.9 671.76 446.19 671.76H466.4C468.69 671.76 470.54 673.61 470.54 675.9V703.76C470.54 710.64 464.96 716.23 458.07 716.23Z" stroke="#0D2232" stroke-width="4" stroke-miterlimit="10" stroke-linecap="round" stroke-linejoin="round"/>
<path d="M466.229 616.9L463.919 624.08H460.929V655.61H451.989V624.08H449.009L446.689 616.9L450.329 596.36H462.589L466.229 616.9Z" stroke="#0D2232" stroke-width="4" stroke-miterlimit="10" stroke-linecap="round" stroke-linejoin="round"/>
<path d="M481.56 658.93V717.09C481.56 717.09 469.97 734.45 447.45 734.45C424.93 734.45 408.83 734.45 408.83 734.45L402.07 725.77C402.07 725.77 396.6 684.95 395.96 669.2C395.95 669.2 457.74 670.85 481.56 658.93Z" fill="#FEC400"/>
<path d="M476.29 661.15V704.81C476.29 712.24 472.09 719.05 465.41 722.31C454.42 727.68 434.39 732.8 402.08 725.78L408.84 734.46L450.84 734.7C450.84 734.7 472.56 731.89 481.57 717.1V658.94L476.29 661.15Z" fill="#E89F02"/>
<path d="M481.56 658.93V713.29C481.56 716 480.53 718.6 478.69 720.58C473.97 725.65 463.48 734.44 447.45 734.44H414.05C410.76 734.44 407.65 732.92 405.63 730.32L403.86 728.05C402.69 726.55 401.94 724.76 401.7 722.88C400.45 713.3 396.51 682.41 395.97 669.19C395.95 669.2 457.74 670.85 481.56 658.93Z" stroke="#0D2232" stroke-width="4" stroke-miterlimit="10" stroke-linecap="round" stroke-linejoin="round"/>
<path d="M481.559 674.02C481.559 674.02 461.839 690.92 397.479 684.49" stroke="#0D2232" stroke-width="4" stroke-miterlimit="10" stroke-linecap="round" stroke-linejoin="round"/>
<path d="M296.24 531.36L402.66 536.28V488.12L293.58 494.81L296.24 531.36Z" fill="#FBC6A6"/>
<path opacity="0.16" d="M403.48 495.72L295.89 501.34V493.74L403.48 488.12V495.72Z" fill="black"/>
<path opacity="0.5" d="M298.89 523.22L402.66 528.94V536.28L298.89 530.56V523.22Z" fill="white"/>
<path d="M297.5 530.88L402.66 536.28V488.12L292.42 493.92L297.5 530.88Z" stroke="#0D2232" stroke-width="6" stroke-miterlimit="10"/>
<path d="M268.06 502.48C268.06 502.5 267.77 502.57 267.25 502.66C264.01 503.23 252.16 504.88 252.16 504.88L255.56 531.17L282.27 533.84L286.14 513.89L268.06 502.48Z" fill="#FBC6A6"/>
<path opacity="0.16" d="M268.06 502.48C268.06 502.5 267.77 502.57 267.25 502.66C264.01 503.23 252.16 504.88 252.16 504.88L255.56 531.17L282.27 533.84L286.14 513.89L268.06 502.48Z" fill="black"/>
<path d="M267.29 527.27C266.16 526.15 264.19 526 262.67 525.87C260.83 525.71 258.98 525.67 257.14 525.71C254.86 525.76 252.59 525.67 251.26 523.62C249.03 520.17 250.05 515.17 250.74 511.42C251.15 509.23 251.67 507.07 252.15 504.89C252.57 503 252.79 500.85 251.37 499.28C249.57 497.27 243.63 494.81 241.86 497.98C241.46 498.69 241.98 499.03 242.55 498.97C240.46 503.88 238.33 508.79 236.7 513.86C235.21 518.51 233.49 523.79 234.16 528.72C234.79 533.32 238.12 536.25 242.73 537.05C244.81 537.41 246.91 537.47 249.01 537.42C251.58 537.36 254.16 537.36 256.72 537.13C260.92 536.74 265.23 535.69 267.31 531.79C268.06 530.42 268.53 528.49 267.29 527.27Z" fill="#FBC6A6"/>
<path opacity="0.16" d="M264.62 527.87C263.49 526.75 261.52 526.6 260 526.47C258.16 526.31 256.31 526.27 254.47 526.31C252.19 526.36 249.92 526.27 248.59 524.22C246.36 520.77 247.38 515.77 248.07 512.02C248.48 509.83 249 507.67 249.48 505.49C249.9 503.59 250.12 501.45 248.7 499.88C248.09 499.2 247.01 498.48 245.77 497.93C246.75 498.75 247.39 499.94 247.42 501.6C247.48 504.92 245.72 508.24 244.3 511.16C242.72 514.42 241.25 517.49 240.57 521.07C239.79 525.21 239.89 529.81 242.18 533.52C243.41 535.51 245.16 536.96 247.18 538C249.47 537.96 251.77 537.94 254.06 537.72C258.26 537.33 262.57 536.28 264.65 532.38C265.39 531.03 265.86 529.1 264.62 527.87Z" fill="black"/>
<path d="M277.24 528.36C276.11 527.24 274.14 527.09 272.62 526.96C270.78 526.8 268.93 526.76 267.09 526.8C264.81 526.85 262.54 526.76 261.21 524.71C258.98 521.26 260 516.26 260.69 512.51C261.1 510.32 261.62 508.16 262.1 505.98C262.52 504.09 262.74 501.94 261.32 500.37C259.52 498.36 253.58 495.9 251.81 499.07C251.41 499.78 251.93 500.12 252.5 500.06C250.41 504.97 248.28 509.88 246.65 514.96C245.16 519.61 243.44 524.89 244.11 529.82C244.74 534.42 248.07 537.35 252.68 538.15C254.76 538.51 256.86 538.57 258.96 538.52C261.53 538.46 264.11 538.46 266.67 538.23C270.87 537.84 275.18 536.79 277.26 532.9C278.01 531.51 278.48 529.58 277.24 528.36Z" fill="#FBC6A6"/>
<path opacity="0.16" d="M251.18 501.26C251 501.69 250.82 502.11 250.64 502.54C253.98 502.84 257.48 503.57 258.85 506.64C261.6 512.83 251.45 526.73 262.08 528.82C265.24 529.44 269.26 528.63 273.08 528.38C272.47 528.28 271.85 528.21 271.29 528.16C269.45 528 267.6 527.96 265.76 528C263.48 528.05 261.21 527.96 259.88 525.91C257.65 522.46 258.67 517.46 259.36 513.71C259.77 511.52 260.29 509.36 260.77 507.18C261.19 505.29 261.41 503.14 259.99 501.57C258.19 499.56 252.25 497.1 250.48 500.27C250.09 500.98 250.61 501.32 251.18 501.26Z" fill="black"/>
<path d="M299.73 495.7C299.04 495.37 298.33 495.08 297.62 494.81C297.1 494.49 296.57 494.19 296.02 493.92C290.6 491.29 284.1 490.94 278.17 490.34C270.96 489.61 263.8 488.51 256.58 487.87C252.95 487.55 249.28 487.05 245.63 486.99C242.24 486.93 238.86 487.34 235.49 487.73C228.27 488.57 231.02 488.76 223.76 488.79C220.11 488.8 216.46 488.83 212.81 488.76C210.78 488.72 208.5 488.52 207.43 490.59C206.38 492.63 207.97 494.8 209.45 496.18C211.07 497.69 213.21 498.55 215.37 499.04C220.34 500.17 225.48 499.63 230.54 499.83C237.87 500.13 235.21 500.01 242.53 500.43C245.8 500.62 248.89 500.78 251.76 502.43C254.04 503.74 256.01 505.51 258.08 507.11C260.43 508.93 263.11 510.25 265.63 511.84C268.1 513.41 271.13 515.4 271.87 518.35C272.57 521.12 271.74 524.15 271.26 526.89C270.69 530.13 269.98 533.34 269.01 536.49C268.13 539.35 266.98 542.02 265.65 544.7C264.49 547.06 263.15 549.57 263.35 552.26C263.51 554.5 264.77 556.67 266.99 557.53C269.21 558.39 271.72 557.68 273.57 556.35C277.96 553.19 279.5 547.89 282.1 543.48C283.28 541.48 284.1 539.4 285.11 537.32C285.59 536.32 286.18 535.28 287.05 534.55C288.06 533.71 289.48 533.37 290.75 533.08C296.04 531.88 302.05 532.22 306.7 529.12C310.39 526.66 311.99 522.28 312.4 518.12C313.32 508.74 308.56 499.89 299.73 495.7Z" fill="#FBC6A6"/>
<path opacity="0.16" d="M299.73 495.7C299.04 495.37 298.33 495.08 297.62 494.81C297.1 494.49 296.57 494.19 296.02 493.92C292.27 492.1 287.99 491.38 283.75 490.91C287.66 493.61 290.44 498.01 292.28 502.2C294.97 508.32 295.89 515.7 295 522.28C294.61 525.19 293.79 528.19 291.77 530.46C289.08 533.49 284.43 533.41 281.95 536.74C279.55 539.96 278.57 543.95 276.82 547.5C275.4 550.38 273.69 553.59 270.69 555.19C268.86 556.17 266.48 556.43 264.57 555.67C265.17 556.48 265.97 557.15 266.98 557.54C269.2 558.4 271.71 557.69 273.56 556.36C277.95 553.2 279.49 547.9 282.09 543.49C283.27 541.49 284.09 539.41 285.1 537.33C285.58 536.33 286.17 535.29 287.04 534.56C288.05 533.72 289.47 533.38 290.74 533.09C296.03 531.89 302.04 532.23 306.69 529.13C310.38 526.67 311.98 522.29 312.39 518.13C313.32 508.74 308.56 499.89 299.73 495.7Z" fill="black"/>
<path opacity="0.16" d="M254.52 501.98C250.26 498.97 245.27 497.21 240.09 496.4C236.44 495.83 232.73 495.8 229.04 495.72C224.99 495.63 230.93 495.62 226.88 495.66C221.86 495.71 216.77 496.14 211.92 494.57C210.15 494 208.54 493.13 207.34 491.98C207.74 493.12 208.61 494.17 209.46 494.96C211.08 496.47 213.22 497.33 215.38 497.82C220.35 498.95 225.49 498.41 230.55 498.61C237.88 498.91 235.22 498.79 242.54 499.21C245.81 499.4 248.9 499.56 251.77 501.21C254.05 502.52 256.02 504.29 258.09 505.89C258.79 506.43 259.53 506.93 260.28 507.4C258.61 505.38 256.71 503.53 254.52 501.98Z" fill="black"/>
<path d="M241.44 500.38C239.35 505.29 238.35 508.78 236.72 513.85C235.23 518.5 233.51 523.78 234.18 528.71C234.81 533.31 238.14 536.24 242.75 537.04C244.83 537.4 248.94 537.78 251.04 537.73" stroke="#0D2232" stroke-width="6" stroke-miterlimit="10"/>
<path d="M271.25 526.89C269.41 526.73 268.93 526.75 267.09 526.79C264.81 526.84 262.54 526.75 261.21 524.7C258.98 521.25 260 516.25 260.69 512.5C261.1 510.31 260.88 511.44 261.36 509.26M251.68 502.01C249.59 506.92 248.3 509.86 246.67 514.94C245.18 519.59 243.46 524.87 244.13 529.8C244.76 534.4 248.09 537.33 252.7 538.13C254.78 538.49 256.88 538.55 258.98 538.5C261.55 538.44 266.04 537.98 268.6 537.74" stroke="#0D2232" stroke-width="6" stroke-miterlimit="10"/>
<path d="M299.73 495.7C299.04 495.37 298.33 495.08 297.62 494.81C297.1 494.49 296.57 494.19 296.02 493.92C290.6 491.29 284.1 490.94 278.17 490.34C270.96 489.61 263.8 488.51 256.58 487.87C252.95 487.55 249.28 487.05 245.63 486.99C242.24 486.93 238.86 487.34 235.49 487.73C228.27 488.57 231.02 488.76 223.76 488.79C220.11 488.8 216.46 488.83 212.81 488.76C210.78 488.72 208.5 488.52 207.43 490.59C206.38 492.63 207.97 494.8 209.45 496.18C211.07 497.69 213.21 498.55 215.37 499.04C220.34 500.17 225.48 499.63 230.54 499.83C237.87 500.13 235.21 500.01 242.53 500.43C245.8 500.62 248.89 500.78 251.76 502.43C254.04 503.74 256.01 505.51 258.08 507.11C260.43 508.93 263.11 510.25 265.63 511.84C268.1 513.41 271.13 515.4 271.87 518.35C272.57 521.12 271.74 524.15 271.26 526.89C270.92 528.81 270.54 530.72 270.08 532.62C269.76 533.92 269.41 535.21 269.02 536.5C268.14 539.36 266.99 542.03 265.66 544.71C264.5 547.07 263.16 549.58 263.36 552.27C263.52 554.51 264.78 556.68 267 557.54C269.22 558.4 271.73 557.69 273.58 556.36C277.97 553.2 279.51 547.9 282.11 543.49C283.29 541.49 284.11 539.41 285.12 537.33C285.6 536.33 286.19 535.29 287.06 534.56C288.07 533.72 289.49 533.38 290.76 533.09C296.05 531.89 302.06 532.23 306.71 529.13C310.4 526.67 312 522.29 312.41 518.13C313.32 508.74 308.56 499.89 299.73 495.7Z" stroke="#0D2232" stroke-width="6" stroke-miterlimit="10"/>
<path d="M516.14 403.18C516.14 403.18 545.13 419 586.24 403.18" stroke="#0D2232" stroke-width="12" stroke-miterlimit="10" stroke-linecap="round" stroke-linejoin="round"/>
</svg>
