<svg width="1000" height="1000" viewBox="0 0 1000 1000" fill="none" xmlns="http://www.w3.org/2000/svg">
<path d="M448.12 590.48L297.96 411.48L342.59 374.66L492.24 554.62L448.12 590.48Z" fill="#FBC6A6"/>
<path opacity="0.16" d="M338.95 378.55L488.6 558.51" stroke="black" stroke-width="6" stroke-miterlimit="10"/>
<path opacity="0.5" d="M303.43 409.73L453.08 589.69" stroke="white" stroke-width="6" stroke-miterlimit="10"/>
<path d="M448.12 590.48L297.96 411.48L342.59 374.66L492.24 554.62L448.12 590.48Z" stroke="#0D2232" stroke-width="6" stroke-miterlimit="10" stroke-linecap="round" stroke-linejoin="round"/>
<path d="M344.1 371.87C344.1 371.87 358.57 335.52 343.09 321.68C327.61 307.84 320.24 308.71 320.24 308.71C320.24 308.71 306.39 292.89 289.68 307.21C289.68 307.21 275.76 301.79 268.59 318.49C268.59 318.49 255.31 327.83 257.76 345.32C260.21 362.8 275.87 387.19 284.81 388.6C293.75 390.01 298.8 407.09 297.96 411.5C297.96 411.48 334.2 392.27 344.1 371.87Z" fill="#FBC6A6"/>
<path opacity="0.16" d="M334.53 384.84C334.53 384.84 358.23 346.79 333.45 314.11" stroke="black" stroke-width="6" stroke-miterlimit="10"/>
<path opacity="0.5" d="M302.05 409.66C302.05 409.66 303.48 388.55 288.99 384.92C274.5 381.29 253.26 343.88 268.59 318.47" stroke="white" stroke-width="6" stroke-miterlimit="10"/>
<path d="M344.1 371.87C344.1 371.87 358.57 335.52 343.09 321.68C327.61 307.84 320.24 308.71 320.24 308.71C320.24 308.71 306.39 292.89 289.68 307.21C289.68 307.21 275.76 301.79 268.59 318.49C268.59 318.49 255.31 327.83 257.76 345.32C260.21 362.8 275.87 387.19 284.81 388.6C293.75 390.01 298.8 407.09 297.96 411.5C297.96 411.48 334.2 392.27 344.1 371.87Z" stroke="#0D2232" stroke-width="6" stroke-miterlimit="10" stroke-linecap="round" stroke-linejoin="round"/>
<path d="M320.25 308.71C320.25 308.71 313.43 323.31 324.9 340.54" stroke="#0D2232" stroke-width="6" stroke-miterlimit="10" stroke-linecap="round" stroke-linejoin="round"/>
<path d="M289.68 307.2C289.68 307.2 303.53 325.44 304.09 336.4C304.65 347.36 299.98 351.02 299.98 351.02" stroke="#0D2232" stroke-width="6" stroke-miterlimit="10" stroke-linecap="round" stroke-linejoin="round"/>
<path d="M268.59 318.48C268.59 318.48 292.95 335.27 287.77 350.49" stroke="#0D2232" stroke-width="6" stroke-miterlimit="10" stroke-linecap="round" stroke-linejoin="round"/>
<path d="M371.36 505.21L353.65 483.32L394.99 449.08L406.17 439.82L424.03 460.59L412.24 470.57L371.36 505.21Z" fill="#435F84"/>
<path opacity="0.21" d="M412.24 470.57L412.2 470.55L394.99 449.08L406.17 439.82L424.03 460.59L412.24 470.57Z" fill="white"/>
<path d="M450.39 497.69L426.44 566.43L374.85 501.94L412.2 470.55L420 464L450.39 497.69Z" fill="#F9DC1B"/>
<path opacity="0.5" d="M450.39 497.69L446.86 507.82L412.2 470.55L420 464L450.39 497.69Z" fill="white"/>
<path d="M437.41 534.94L397.42 482.97L374.85 501.94L426.44 566.43L437.41 534.94Z" fill="#E89F02"/>
<path d="M424.03 460.59L371.36 505.21L353.64 483.33L406.17 439.82L424.03 460.59Z" stroke="#0D2232" stroke-width="6" stroke-miterlimit="10" stroke-linecap="round" stroke-linejoin="round"/>
<path d="M450.39 497.69L420 464L374.85 501.94L426.44 566.43L450.39 497.69Z" stroke="#0D2232" stroke-width="6" stroke-miterlimit="10"/>
<path d="M551.98 590.48L702.06 411.48L657.46 374.66L507.89 554.62L551.98 590.48Z" fill="#FBC6A6"/>
<path opacity="0.16" d="M661.1 378.55L511.53 558.51" stroke="black" stroke-width="6" stroke-miterlimit="10"/>
<path opacity="0.5" d="M696.6 409.73L547.03 589.69" stroke="white" stroke-width="6" stroke-miterlimit="10"/>
<path d="M551.98 590.48L702.06 411.48L657.46 374.66L507.89 554.62L551.98 590.48Z" stroke="#0D2232" stroke-width="6" stroke-miterlimit="10" stroke-linecap="round" stroke-linejoin="round"/>
<path d="M655.94 371.87C655.94 371.87 641.48 335.52 656.95 321.68C672.42 307.84 679.79 308.71 679.79 308.71C679.79 308.71 693.63 292.89 710.34 307.21C710.34 307.21 724.25 301.79 731.42 318.49C731.42 318.49 744.69 327.83 742.25 345.32C739.8 362.8 724.15 387.19 715.21 388.6C706.27 390.01 701.23 407.09 702.07 411.5C702.06 411.48 665.84 392.27 655.94 371.87Z" fill="#FBC6A6"/>
<path opacity="0.16" d="M665.51 384.84C665.51 384.84 641.82 346.79 666.59 314.11" stroke="black" stroke-width="6" stroke-miterlimit="10"/>
<path opacity="0.5" d="M697.98 409.66C697.98 409.66 696.55 388.55 711.03 384.92C725.51 381.29 746.74 343.88 731.41 318.47" stroke="white" stroke-width="6" stroke-miterlimit="10"/>
<path d="M655.94 371.87C655.94 371.87 641.48 335.52 656.95 321.68C672.42 307.84 679.79 308.71 679.79 308.71C679.79 308.71 693.63 292.89 710.34 307.21C710.34 307.21 724.25 301.79 731.42 318.49C731.42 318.49 744.69 327.83 742.25 345.32C739.8 362.8 724.15 387.19 715.21 388.6C706.27 390.01 701.23 407.09 702.07 411.5C702.06 411.48 665.84 392.27 655.94 371.87Z" stroke="#0D2232" stroke-width="6" stroke-miterlimit="10" stroke-linecap="round" stroke-linejoin="round"/>
<path d="M679.79 308.71C679.79 308.71 686.61 323.31 675.15 340.54" stroke="#0D2232" stroke-width="6" stroke-miterlimit="10" stroke-linecap="round" stroke-linejoin="round"/>
<path d="M710.34 307.2C710.34 307.2 696.5 325.44 695.94 336.4C695.38 347.36 700.05 351.02 700.05 351.02" stroke="#0D2232" stroke-width="6" stroke-miterlimit="10" stroke-linecap="round" stroke-linejoin="round"/>
<path d="M731.41 318.48C731.41 318.48 707.07 335.27 712.24 350.49" stroke="#0D2232" stroke-width="6" stroke-miterlimit="10" stroke-linecap="round" stroke-linejoin="round"/>
<path d="M628.71 504.21L646.41 482.32L605.09 448.08L593.91 438.82L576.06 459.59L587.84 469.57L628.71 504.21Z" fill="#435F84"/>
<path opacity="0.21" d="M587.84 469.57L587.89 469.55L605.09 448.08L593.91 438.82L576.06 459.59L587.84 469.57Z" fill="white"/>
<path d="M549.71 496.69L573.65 565.43L625.22 500.94L587.89 469.55L580.09 463L549.71 496.69Z" fill="#F9DC1B"/>
<path opacity="0.5" d="M549.71 496.69L553.24 506.82L587.89 469.55L580.09 463L549.71 496.69Z" fill="white"/>
<path d="M562.69 533.94L602.66 481.97L625.22 500.94L573.65 565.43L562.69 533.94Z" fill="#E89F02"/>
<path d="M576.06 459.59L628.71 504.21L646.41 482.33L593.91 438.82L576.06 459.59Z" stroke="#0D2232" stroke-width="6" stroke-miterlimit="10" stroke-linecap="round" stroke-linejoin="round"/>
<path d="M549.72 496.69L580.09 463L625.22 500.94L573.65 565.43L549.72 496.69Z" stroke="#0D2232" stroke-width="6" stroke-miterlimit="10"/>
<path d="M412.988 795.609L486.418 795.609L486.418 774.109L412.988 774.109L412.988 795.609Z" fill="#435F84" stroke="#0D2232" stroke-width="6" stroke-miterlimit="10" stroke-linecap="round" stroke-linejoin="round"/>
<path d="M623.9 734.45V775.39L643.18 795.63L661.83 775.39L661.79 674.57H646.68L623.9 734.45Z" fill="#AFCADC"/>
<path d="M642.86 771.47C646.853 771.47 650.09 768.233 650.09 764.24C650.09 760.247 646.853 757.01 642.86 757.01C638.867 757.01 635.63 760.247 635.63 764.24C635.63 768.233 638.867 771.47 642.86 771.47Z" stroke="#0D2232" stroke-width="4" stroke-miterlimit="10" stroke-linecap="round" stroke-linejoin="round"/>
<path opacity="0.2" d="M661.83 675.66H655.18V771.47L643.25 783.4L630.82 770.97V681.92L623.9 682.38V775.39L643.67 795.15L662.63 776.19L661.83 675.66Z" fill="black"/>
<path d="M623.9 734.45V775.39L643.18 795.63L661.83 775.39V675.66H646.72L623.9 734.45Z" stroke="#0D2232" stroke-width="4" stroke-miterlimit="10" stroke-linecap="round" stroke-linejoin="round"/>
<path d="M643.77 284.08C643.77 284.08 637.79 289.43 611.37 291.63C584.94 293.83 398.98 299.42 398.98 299.42L387.53 293.83C387.53 293.83 361.22 292.38 357.49 284.08C353.76 275.78 447.56 242.87 447.56 242.87L566.07 239.25L593.13 250.02L643.77 284.08Z" fill="#CFB300"/>
<path d="M643.77 284.08C643.77 284.08 637.79 289.43 611.37 291.63C584.94 293.83 398.98 299.42 398.98 299.42L387.53 293.83C387.53 293.83 361.22 292.38 357.49 284.08C353.76 275.78 447.56 242.87 447.56 242.87L566.07 239.25L593.13 250.02L643.77 284.08Z" stroke="#0D2232" stroke-width="6" stroke-miterlimit="10" stroke-linecap="round" stroke-linejoin="round"/>
<path d="M388.57 332.85C388.57 332.85 358.38 336.47 362.15 371.39C365.92 406.31 409.41 399.02 409.41 399.02L405.67 348.89L388.57 332.85Z" fill="#FBC6A6" stroke="#0D2232" stroke-width="6" stroke-miterlimit="10"/>
<path d="M620.17 332.85C620.17 332.85 643.14 336.63 644.87 362.11C646.6 387.59 618.26 410.1 596.09 401.2C573.92 392.31 590.28 354.24 590.28 354.24L620.17 332.85Z" fill="#FBC6A6" stroke="#0D2232" stroke-width="6" stroke-miterlimit="10"/>
<path opacity="0.4" d="M618.13 347.95C618.13 347.95 630.06 354.27 624.97 368.01C617.85 387.26 603.34 381.92 603.34 381.92L607.74 358.01L618.13 347.95Z" fill="black"/>
<path opacity="0.4" d="M384.19 347.95C384.19 347.95 372.26 354.27 377.35 368.01C384.47 387.26 398.98 381.92 398.98 381.92L394.58 358.01L384.19 347.95Z" fill="black"/>
<path d="M606.55 336.62V365.29C606.55 365.29 606.29 370.26 604.47 377.95C600.39 395.19 588.48 426.11 554.11 445.47C549.22 448.22 544.3 450.51 539.37 452.37C525.05 457.78 510.71 459.61 497.04 458.85C467.59 457.21 441.33 443.54 425.44 427.85C399.64 402.37 398.07 363.53 398.07 363.53V309.25L428.59 272.44L585.34 274.33L604.66 296.98L606.55 336.62Z" fill="#FBC6A6"/>
<path opacity="0.5" d="M445.06 431.89C465.38 446.55 484.43 454.04 499.05 457.86C469.6 456.22 443.34 442.55 427.45 426.86C401.65 401.38 400.08 362.54 400.08 362.54V352.94L408.54 346.32C408.53 346.32 401.02 400.11 445.06 431.89Z" fill="white"/>
<path opacity="0.5" d="M601.47 377.95C597.39 395.19 585.48 426.11 551.11 445.47C546.22 448.22 541.3 450.51 536.37 452.37C553.86 438.74 582.33 413.61 591.06 388.63C594.02 380.18 597.64 377.31 601.47 377.95Z" fill="white"/>
<path d="M643.77 284.08C643.77 284.08 632.76 279.99 617.97 279.99C603.18 279.99 383.13 279.99 383.13 279.99C383.13 279.99 363.15 279.2 357.49 284.08V270.4C357.49 265.1 361.79 260.8 367.09 260.8H634.18C639.48 260.8 643.78 265.1 643.78 270.4V284.08H643.77Z" fill="#F9DC1B"/>
<path d="M628.54 260.8C628.54 260.91 628.54 260.96 628.54 260.96H500.5V260.8H372.46C372.46 260.8 372.46 260.77 372.46 260.72C372.42 259.67 372.01 249.23 372.46 244.45C372.93 239.41 377.02 239.26 377.02 239.26C377.02 239.26 384.1 176.5 455.51 155.74C455.51 155.74 454.88 143.15 466.52 141.9C478.16 140.64 500.5 139.07 500.5 139.07V139.23C500.5 139.23 522.83 140.8 534.47 142.06C546.11 143.32 545.48 155.9 545.48 155.9C616.89 176.66 623.97 239.42 623.97 239.42C623.97 239.42 628.06 239.58 628.53 244.61C628.98 249.28 628.6 259.41 628.54 260.8Z" fill="#F9DC1B"/>
<path opacity="0.73" d="M628.54 260.8H617.66C617.66 260.8 612.15 196.62 545.62 164.53L545.58 157.27C545.58 157.27 493.41 140.93 455.39 158.55L455.87 168.94C455.87 168.94 396.82 185.29 382.35 260.48L372.46 260.71C372.42 259.66 372.01 249.22 372.46 244.44C372.93 239.4 377.02 239.25 377.02 239.25C377.02 239.25 384.1 176.49 455.51 155.73C455.51 155.73 454.88 143.14 466.52 141.89C478.16 140.63 500.5 139.06 500.5 139.06V139.22C500.5 139.22 522.83 140.79 534.47 142.05C546.11 143.31 545.48 155.89 545.48 155.89C616.89 176.65 623.97 239.41 623.97 239.41C623.97 239.41 628.06 239.57 628.53 244.6C628.98 249.28 628.6 259.41 628.54 260.8Z" fill="white"/>
<path d="M628.54 244.6C628.07 239.57 623.98 239.41 623.98 239.41C623.98 239.41 616.9 176.65 545.49 155.89C545.49 155.89 546.12 143.31 534.48 142.05C522.84 140.79 500.5 139.22 500.5 139.22V139.06C500.5 139.06 478.16 140.63 466.52 141.89C454.88 143.15 455.51 155.73 455.51 155.73C384.1 176.49 377.02 239.25 377.02 239.25C377.02 239.25 372.93 239.41 372.46 244.44C371.99 249.47 372.46 260.8 372.46 260.8H500.5V260.96H628.54C628.54 260.96 629.01 249.64 628.54 244.6Z" stroke="#0D2232" stroke-width="6" stroke-miterlimit="10" stroke-linecap="round" stroke-linejoin="round"/>
<path d="M544.86 468.86H575.19V634.54H425.44V468.86H544.86Z" fill="white"/>
<path d="M548.66 475.67H455.12V576.55H548.66V475.67Z" fill="#F9DC1B"/>
<path d="M575.19 597.73H425.44V634.54H575.19V597.73Z" fill="#F9DC1B"/>
<path d="M526.64 456.8C526.64 456.8 497.26 463.09 477.24 456.8L470.32 487.74L488.57 494.55C488.57 494.55 500.64 499.58 515.32 494.55C530 489.52 534.62 474.84 534.62 474.84L526.64 456.8Z" fill="#FBC6A6" stroke="#0D2232" stroke-width="6" stroke-miterlimit="10"/>
<path d="M545.68 490.83C544.89 502.68 542.99 513.64 542.99 513.64L515.3 494.55C515.3 494.55 518.47 487.04 521.08 479.6C522.6 475.25 523.94 470.91 524.32 468.12C525.37 460.57 526.63 456.8 526.63 456.8C526.63 456.8 542.78 455.96 545.29 470.85C546.24 476.41 546.16 483.77 545.68 490.83Z" fill="#435F84"/>
<path d="M545.68 490.83C538.55 490.3 530.25 486.75 525.97 483.71C524.25 482.48 522.57 481.12 521.08 479.6C522.6 475.25 523.94 470.91 524.32 468.12C525.37 460.57 526.63 456.8 526.63 456.8C526.63 456.8 542.78 455.96 545.29 470.85C546.24 476.41 546.16 483.77 545.68 490.83Z" fill="#253B5A"/>
<path d="M526.64 456.8C526.64 456.8 542.79 455.96 545.31 470.85C547.83 485.74 543 513.63 543 513.63L515.32 494.54C515.32 494.54 523.29 475.66 524.34 468.11C525.39 460.56 526.64 456.8 526.64 456.8Z" stroke="#0D2232" stroke-width="6" stroke-miterlimit="10"/>
<path d="M458.19 490.83C458.98 502.68 460.88 513.64 460.88 513.64L488.57 494.55C488.57 494.55 485.4 487.04 482.79 479.6C481.27 475.25 479.93 470.91 479.55 468.12C478.5 460.57 477.24 456.8 477.24 456.8C477.24 456.8 461.09 455.96 458.58 470.85C457.63 476.41 457.71 483.77 458.19 490.83Z" fill="#435F84"/>
<path d="M458.19 490.83C465.32 490.3 473.62 486.75 477.9 483.71C479.62 482.48 481.3 481.12 482.79 479.6C481.27 475.25 479.93 470.91 479.55 468.12C478.5 460.57 477.24 456.8 477.24 456.8C477.24 456.8 461.09 455.96 458.58 470.85C457.63 476.41 457.71 483.77 458.19 490.83Z" fill="#253B5A"/>
<path d="M477.24 456.8C477.24 456.8 461.09 455.96 458.57 470.85C456.05 485.74 460.88 513.63 460.88 513.63L488.56 494.54C488.56 494.54 480.59 475.66 479.54 468.11C478.49 460.56 477.24 456.8 477.24 456.8Z" stroke="#0D2232" stroke-width="6" stroke-miterlimit="10"/>
<path d="M480.08 528.31H441.07V563.96H480.08V528.31Z" fill="#F9DC1B" stroke="#0D2232" stroke-width="6" stroke-miterlimit="10"/>
<path d="M480.08 542.37H441.07" stroke="#0D2232" stroke-width="6" stroke-miterlimit="10"/>
<path d="M545.49 155.89C545.49 155.89 546.59 166.43 542.34 187.98Z" fill="#F9DC1B"/>
<path d="M545.49 155.89C545.49 155.89 546.59 166.43 542.34 187.98" stroke="#0D2232" stroke-width="6" stroke-miterlimit="10" stroke-linecap="round" stroke-linejoin="round"/>
<path d="M623.98 239.41H591.55C588.12 239.41 585.34 242.19 585.34 245.62V260.96" stroke="#0D2232" stroke-width="6" stroke-miterlimit="10" stroke-linecap="round" stroke-linejoin="round"/>
<path d="M455.51 155.73C455.51 155.73 454.41 166.27 458.66 187.82Z" fill="#F9DC1B"/>
<path d="M455.51 155.73C455.51 155.73 454.41 166.27 458.66 187.82" stroke="#0D2232" stroke-width="6" stroke-miterlimit="10" stroke-linecap="round" stroke-linejoin="round"/>
<path d="M377.02 239.25H409.45C412.88 239.25 415.66 242.03 415.66 245.46V260.8" stroke="#0D2232" stroke-width="6" stroke-miterlimit="10" stroke-linecap="round" stroke-linejoin="round"/>
<path opacity="0.74" d="M630.39 270.19C623.93 267.73 616.83 267.78 609.93 267.85C559.48 268.39 509.03 268.92 458.58 269.46C436.16 269.7 413.75 269.94 391.33 270.18C381.38 270.29 370.22 270.91 363.52 278.25C362.2 279.7 360.91 281.48 358.97 281.77C356.01 282.22 353.82 278.78 353.76 275.79C353.64 270.18 357.96 265.23 363.06 262.87C368.16 260.52 373.94 260.24 379.55 260.05C462.65 257.22 545.99 265.29 628.91 259.16C633.7 258.81 639.36 258.78 642.23 262.64C643.81 264.77 644.07 267.58 644.28 270.23C644.48 272.9 646.66 282.86 641.29 279.05C639.55 277.82 638.35 275.13 636.55 273.69C634.71 272.22 632.6 270.96 630.39 270.19Z" fill="white"/>
<path d="M643.77 284.08C643.77 284.08 632.76 279.99 617.97 279.99C603.18 279.99 383.13 279.99 383.13 279.99C383.13 279.99 363.15 279.2 357.49 284.08V270.4C357.49 265.1 361.79 260.8 367.09 260.8H634.18C639.48 260.8 643.78 265.1 643.78 270.4V284.08H643.77Z" stroke="#0D2232" stroke-width="6" stroke-miterlimit="10" stroke-linecap="round" stroke-linejoin="round"/>
<path d="M406.49 314.08C406.49 314.08 405.95 343.07 406.49 351.41C407.03 359.75 401.37 367.3 392.72 361.48C384.07 355.66 385.75 321.06 385.75 321.06C385.75 321.06 394.73 321.47 406.49 314.08Z" fill="#253B5A" stroke="#0D2232" stroke-width="6" stroke-miterlimit="10"/>
<path d="M453.94 360.47C462.799 360.47 469.98 353.289 469.98 344.43C469.98 335.571 462.799 328.39 453.94 328.39C445.081 328.39 437.9 335.571 437.9 344.43C437.9 353.289 445.081 360.47 453.94 360.47Z" fill="#0D2232"/>
<path d="M548.76 360.47C557.619 360.47 564.8 353.289 564.8 344.43C564.8 335.571 557.619 328.39 548.76 328.39C539.902 328.39 532.72 335.571 532.72 344.43C532.72 353.289 539.902 360.47 548.76 360.47Z" fill="#0D2232"/>
<path d="M573.82 334.44C572.65 333.91 571.65 332.98 571.06 331.72C570.79 331.15 564.62 318.55 549.2 314.33C546.23 313.52 544.49 310.45 545.3 307.49C546.11 304.52 549.18 302.78 552.14 303.59C572.73 309.22 580.83 326.3 581.16 327.02C582.45 329.81 581.23 333.12 578.44 334.41C576.92 335.12 575.24 335.08 573.82 334.44Z" fill="#0D2232"/>
<path d="M429.47 334.55C430.64 334.01 431.63 333.06 432.2 331.8C432.47 331.22 438.5 318.57 453.88 314.18C456.84 313.34 458.55 310.25 457.71 307.29C456.87 304.33 453.78 302.62 450.82 303.46C430.29 309.31 422.38 326.47 422.05 327.2C420.79 330.01 422.04 333.3 424.85 334.57C426.38 335.27 428.05 335.21 429.47 334.55Z" fill="#0D2232"/>
<path d="M550.99 391.87C546.8 399.56 540.64 407.93 531.84 414.09C524.07 419.53 514.24 423.24 501.89 423.24C488.42 423.24 477.99 418.82 469.97 412.57C462.28 406.58 456.81 398.89 453 391.79C449.67 385.56 451.66 378.46 456.53 374.51C458.87 372.61 461.87 371.44 465.26 371.44H538.78C542.17 371.44 545.17 372.61 547.51 374.51C552.39 378.48 554.39 385.64 550.99 391.87Z" fill="#162336"/>
<path d="M530.67 388.64C514.89 388.64 467.49 388.64 467.49 388.64C467.49 388.64 454.86 389.12 456.53 374.51C458.87 372.61 461.87 371.44 465.26 371.44H538.78C542.17 371.44 545.17 372.61 547.51 374.51C547.69 374.66 546.45 388.64 530.67 388.64Z" fill="white"/>
<path d="M531.84 414.09C524.07 419.53 514.24 423.24 501.89 423.24C488.42 423.24 477.99 418.82 469.97 412.57C474.7 402.16 492.21 398.68 509.86 399.65C523.45 400.39 529.36 408.42 531.84 414.09Z" fill="#DD1010"/>
<path d="M465.26 371.44H538.78C549.27 371.44 556.01 382.66 550.99 391.87C543.09 406.36 528.23 423.24 501.89 423.24C475.5 423.24 460.78 406.3 453 391.79C448.07 382.58 454.81 371.44 465.26 371.44Z" stroke="#0D2232" stroke-width="6" stroke-miterlimit="10"/>
<path d="M575.19 634.54H425.44V668.41H575.19V634.54Z" fill="#253B5A" stroke="#0D2232" stroke-width="6" stroke-miterlimit="10"/>
<path d="M526.01 634.54H478.61V668.41H526.01V634.54Z" fill="#C3CDD4" stroke="#0D2232" stroke-width="6" stroke-miterlimit="10"/>
<path d="M644.01 845H647.37C648.99 845 650.31 846.31 650.31 847.94V856.59C650.31 858.99 648.36 860.94 645.96 860.94H569.57L553.95 850.45V860.94H515.2C512.8 860.94 510.85 858.99 510.85 856.59V840.13C510.85 837.84 512.71 835.98 515 835.99H516.44L618.07 835.1L644.01 845Z" fill="#484D60" stroke="#0D2232" stroke-width="6" stroke-miterlimit="10" stroke-linecap="round" stroke-linejoin="round"/>
<path d="M645.58 841.23L644.01 845H574.01L555.92 835.98H516.42C516.42 835.98 514.61 827.28 516.13 816.5C517.07 809.81 519.3 802.32 524.04 795.61H584.23L588.95 800.65C588.95 800.65 597.44 800.96 598.07 808.83C598.07 808.83 599.56 808.08 602.13 807.26C607.2 805.64 616.46 803.71 626.7 806.63C642.12 811.03 649.36 830.85 645.58 841.23Z" fill="#E89F02"/>
<path d="M539.56 835.99H516.42C516.42 835.99 514.61 827.29 516.13 816.51C516.22 816.5 516.32 816.5 516.42 816.49C539.52 815.33 539.56 835.99 539.56 835.99Z" fill="#834526"/>
<path opacity="0.75" d="M645.58 841.23L644.01 845H633.94C633.94 845 642.9 812.71 602.14 807.25C607.21 805.63 616.47 803.7 626.71 806.62C642.12 811.03 649.36 830.85 645.58 841.23Z" fill="white"/>
<path d="M584.23 795.61L588.95 800.64C588.95 800.64 597.44 800.95 598.07 808.82C598.07 808.82 611.28 802.21 626.7 806.62C642.12 811.02 649.35 830.84 645.58 841.23L644.01 845.01H574.01L555.92 835.99H516.42C516.42 835.99 511.67 813.13 524.04 795.62H584.23V795.61Z" stroke="#0D2232" stroke-width="6" stroke-miterlimit="10" stroke-linecap="round" stroke-linejoin="round"/>
<path d="M598.08 808.83C598.08 808.83 577.84 815.44 574.01 845.01" stroke="#0D2232" stroke-width="6" stroke-miterlimit="10" stroke-linecap="round" stroke-linejoin="round"/>
<path d="M588.95 800.65C588.95 800.65 574.79 803.48 569.55 816.48" stroke="#0D2232" stroke-width="6" stroke-miterlimit="10" stroke-linecap="round" stroke-linejoin="round"/>
<path d="M588.95 774.12H515.52V795.62H588.95V774.12Z" fill="#435F84" stroke="#0D2232" stroke-width="6" stroke-miterlimit="10" stroke-linecap="round" stroke-linejoin="round"/>
<path d="M582.35 774.12L573.85 668.41H500.97V688.97L510.83 688.34L521.31 774.12H582.35Z" fill="#435F84" stroke="#0D2232" stroke-width="6" stroke-miterlimit="10" stroke-linecap="round" stroke-linejoin="round"/>
<path d="M357.94 845H354.58C352.96 845 351.64 846.31 351.64 847.94V856.59C351.64 858.99 353.59 860.94 355.99 860.94H432.38L448 850.45V860.94H486.75C489.15 860.94 491.1 858.99 491.1 856.59V840.13C491.1 837.84 489.24 835.98 486.95 835.99H485.51L383.88 835.1L357.94 845Z" fill="#484D60" stroke="#0D2232" stroke-width="6" stroke-miterlimit="10" stroke-linecap="round" stroke-linejoin="round"/>
<path d="M356.36 841.23L357.93 845H427.93L446.02 835.98H485.52C485.52 835.98 487.33 827.28 485.81 816.5C484.87 809.81 482.64 802.32 477.9 795.61H417.71L412.99 800.65C412.99 800.65 404.5 800.96 403.87 808.83C403.87 808.83 402.38 808.08 399.81 807.26C394.74 805.64 385.48 803.71 375.24 806.63C359.82 811.03 352.59 830.85 356.36 841.23Z" fill="#E89F02"/>
<path d="M462.38 835.99H485.52C485.52 835.99 487.33 827.29 485.81 816.51C485.72 816.5 485.62 816.5 485.52 816.49C462.42 815.33 462.38 835.99 462.38 835.99Z" fill="#834526"/>
<path opacity="0.75" d="M356.36 841.23L357.93 845H368C368 845 359.04 812.71 399.8 807.25C394.73 805.63 385.47 803.7 375.23 806.62C359.82 811.03 352.59 830.85 356.36 841.23Z" fill="white"/>
<path d="M417.71 795.61L412.99 800.64C412.99 800.64 404.5 800.95 403.87 808.82C403.87 808.82 390.66 802.21 375.24 806.62C359.82 811.02 352.59 830.84 356.36 841.23L357.93 845.01H427.93L446.02 835.99H485.52C485.52 835.99 490.27 813.13 477.9 795.62H417.71V795.61Z" stroke="#0D2232" stroke-width="6" stroke-miterlimit="10" stroke-linecap="round" stroke-linejoin="round"/>
<path d="M403.87 808.83C403.87 808.83 424.11 815.44 427.94 845.01" stroke="#0D2232" stroke-width="6" stroke-miterlimit="10" stroke-linecap="round" stroke-linejoin="round"/>
<path d="M412.99 800.65C412.99 800.65 427.15 803.48 432.39 816.48" stroke="#0D2232" stroke-width="6" stroke-miterlimit="10" stroke-linecap="round" stroke-linejoin="round"/>
<path d="M419.6 774.12L428.09 668.41H500.97V688.97L491.11 688.34L480.63 774.12H419.6Z" fill="#435F84" stroke="#0D2232" stroke-width="6" stroke-miterlimit="10" stroke-linecap="round" stroke-linejoin="round"/>
<g opacity="0.16">
<path d="M405.36 279.99H606.55L611.37 291.63H398.98L405.36 279.99Z" fill="black"/>
<path d="M385.75 321.06C385.75 321.06 421.37 329.84 457.02 291.64L425.44 286.85L385.75 321.06Z" fill="black"/>
<path d="M472.95 318.37C472.95 318.37 526.1 327.19 560.17 285.81L530.67 286.84L472.95 318.37Z" fill="black"/>
</g>
<path opacity="0.16" d="M603.35 344.43C603.35 344.43 586.05 441.81 482.79 454.33C482.79 454.33 590.92 469.69 604.29 365.24L603.35 344.43Z" fill="black"/>
<path d="M569.17 616.14H431.36V628.43H569.17V616.14Z" fill="#E89F02"/>
<path d="M545.28 468.86H575.72V634.54H425.44V468.86H455.22" stroke="#0D2232" stroke-width="6" stroke-miterlimit="10"/>
<path d="M438.34 279.99C438.34 279.99 411.28 326.24 379.19 320.57C376.28 320.05 373.66 319.47 371.33 318.85C347.98 312.57 352.14 301.44 352.14 301.44C352.14 301.44 371.66 306.8 385.17 281.81C385.49 281.22 385.8 280.62 386.11 280H438.34V279.99Z" fill="#253B5A"/>
<path opacity="0.21" d="M377.02 303.9C368.03 309.4 364.41 309.25 364.41 309.25C364.41 309.25 363.31 313.82 371.33 318.85C347.98 312.57 352.14 301.44 352.14 301.44C352.14 301.44 374.02 304.98 387.53 279.99C387.55 280.33 385.92 298.46 377.02 303.9Z" fill="white"/>
<path d="M650.69 305.79C650.69 305.79 637.33 326.52 614.02 321.81C600.67 319.11 584.05 308.06 564.8 280L622.36 280.12C622.36 280.12 622.54 283.01 623.76 286.85C626.22 294.52 632.87 306 650.69 305.79Z" fill="#253B5A"/>
<path opacity="0.21" d="M650.69 305.79C650.69 305.79 637.33 326.52 614.02 321.81C616.68 321.05 619.26 319.96 621.73 318.73C626.71 316.24 631.37 313.15 636.32 310.6C630.82 310.34 625.92 306.28 623.76 301.21C622.24 297.63 621.18 291.66 622.92 287.97C623.15 287.48 623.45 287.11 623.78 286.86C626.22 294.52 632.87 306 650.69 305.79Z" fill="white"/>
<path d="M622.37 280.11C622.37 280.11 623.95 306.1 650.69 305.79C650.69 305.79 617.66 357.07 564.81 279.99L622.37 280.11Z" stroke="#0D2232" stroke-width="6" stroke-miterlimit="10" stroke-linecap="round" stroke-linejoin="round"/>
<path d="M538.07 279.99C538.07 279.99 525.8 313.34 472.95 318.37C472.95 318.37 482.07 302.01 482.07 279.99H538.07Z" fill="#253B5A" stroke="#0D2232" stroke-width="6" stroke-miterlimit="10" stroke-linecap="round" stroke-linejoin="round"/>
<path d="M438.34 279.99C438.34 279.99 411.28 326.24 379.2 320.57C347.12 314.9 352.14 301.43 352.14 301.43C352.14 301.43 372.59 307.04 386.12 279.98H438.34V279.99Z" stroke="#0D2232" stroke-width="6" stroke-miterlimit="10" stroke-linecap="round" stroke-linejoin="round"/>
<path d="M606.55 365.29C606.55 365.29 603.82 417.47 554.11 445.47C504.4 473.47 451.24 453.33 425.44 427.85C399.64 402.37 398.07 363.53 398.07 363.53" stroke="#0D2232" stroke-width="6" stroke-miterlimit="10"/>
<path d="M620.17 322.5C620.17 322.5 619.7 349.21 618.6 354.4C617.5 359.59 612.94 366.04 604.29 365.25C595.64 364.46 595.95 353.3 595.8 345.43C595.64 337.57 595.8 313.54 595.8 313.54C595.8 313.54 607.59 322.85 620.17 322.5Z" fill="#253B5A" stroke="#0D2232" stroke-width="6" stroke-miterlimit="10" stroke-linecap="round" stroke-linejoin="round"/>
<path d="M518.81 668.41L541.66 795.61H524.04H515.52V774.12H521.31L510.83 685L500.97 688.97V668.41H518.81Z" fill="#253B5A"/>
<path d="M464.81 774.12L460.57 795.61H486.42V774.12H480.63L491.11 685L500.97 688.97V668.41H478.61L464.81 774.12Z" fill="#253B5A"/>
<path d="M510.83 688.34L523.2 686.87" stroke="#0D2232" stroke-width="6" stroke-miterlimit="10" stroke-linecap="round" stroke-linejoin="round"/>
<path d="M491.11 688.34L478.74 686.87" stroke="#0D2232" stroke-width="6" stroke-miterlimit="10" stroke-linecap="round" stroke-linejoin="round"/>
<path d="M573.85 668.41H560.38L569.55 774.12H575.72V795.61H588.95V774.12H582.35L573.85 668.41Z" fill="#C3CDD4"/>
<path d="M428.75 668.41H442.22L433.05 774.12H426.88V795.61H413.65V774.12H420.25L428.75 668.41Z" fill="#C3CDD4"/>
<path d="M588.95 774.12H515.52V795.62H588.95V774.12Z" stroke="#0D2232" stroke-width="6" stroke-miterlimit="10" stroke-linecap="round" stroke-linejoin="round"/>
<path d="M582.35 774.12L573.85 668.41H500.97V688.97L510.83 688.34L521.31 774.12H582.35Z" stroke="#0D2232" stroke-width="6" stroke-miterlimit="10" stroke-linecap="round" stroke-linejoin="round"/>
<path d="M419.6 774.12L428.09 668.41H500.97V688.97L491.11 688.34L480.63 774.12H419.6Z" stroke="#0D2232" stroke-width="6" stroke-miterlimit="10" stroke-linecap="round" stroke-linejoin="round"/>
<path d="M651.83 681.09H634.63V746.23H651.83V681.09Z" fill="#E89F02"/>
<path d="M741.27 660.34V670.68C741.27 673.43 739.03 675.66 736.28 675.66H657.81C655.06 675.66 652.83 673.43 652.83 670.68V660.34C652.83 659.74 652.94 659.16 653.13 658.63C653.82 656.72 655.66 655.35 657.81 655.35H736.28C738.43 655.35 740.27 656.72 740.97 658.63C741.17 659.16 741.27 659.74 741.27 660.34Z" fill="#AFCADC"/>
<path opacity="0.2" d="M652.83 669.58V670.68C652.83 673.43 655.06 675.67 657.81 675.67H736.28C739.03 675.67 741.26 673.44 741.26 670.68V669.58H652.83Z" fill="black"/>
<path opacity="0.7" d="M740.97 658.63H653.13C653.82 656.72 655.66 655.35 657.81 655.35H736.28C738.44 655.35 740.27 656.71 740.97 658.63Z" fill="white"/>
<path d="M741.27 660.34V670.68C741.27 673.43 739.03 675.66 736.28 675.66H657.81C655.06 675.66 652.83 673.43 652.83 670.68V660.34C652.83 659.74 652.94 659.16 653.13 658.63C653.82 656.72 655.66 655.35 657.81 655.35H736.28C738.43 655.35 740.27 656.72 740.97 658.63C741.17 659.16 741.27 659.74 741.27 660.34Z" stroke="#0D2232" stroke-width="4" stroke-miterlimit="10" stroke-linecap="round" stroke-linejoin="round"/>
<path d="M567.33 674.02C567.33 674.02 588.54 690.73 652.83 684.31" stroke="white" stroke-miterlimit="10"/>
<path d="M549.33 634.16V722.88L560.9 734.45H639.97L629.36 726.09L630.01 634.16H549.33Z" fill="#F9DC1B"/>
<path d="M558.97 634.16V717.32L565.72 726.09H646.72L639.97 734.45H560.9L549.33 722.88V634.16H558.97Z" fill="#E89F02"/>
<path d="M561.54 646.52H556.4V651.66H561.54V646.52Z" fill="white"/>
<path d="M561.54 662.93H556.4V668.07H561.54V662.93Z" fill="white"/>
<path d="M561.54 679.35H556.4V684.49H561.54V679.35Z" fill="white"/>
<path d="M561.54 695.76H556.4V700.9H561.54V695.76Z" fill="white"/>
<path d="M561.54 712.17H556.4V717.31H561.54V712.17Z" fill="white"/>
<path d="M630.01 669.2V634.16H549.33V722.88L560.9 734.45H632.9" stroke="#0D2232" stroke-width="4" stroke-miterlimit="10" stroke-linecap="round" stroke-linejoin="round"/>
<path d="M578.89 589.67V606.93C578.89 608.27 577.8 609.36 576.47 609.36H567.1C565.76 609.36 564.67 608.27 564.67 606.93V589.67C564.67 588.33 565.76 587.25 567.1 587.25H576.47C577.8 587.24 578.89 588.33 578.89 589.67Z" fill="#AFCADC"/>
<path d="M576.47 609.53H567.1C565.67 609.53 564.5 608.37 564.5 606.93V589.67C564.5 588.24 565.66 587.08 567.1 587.08H576.47C577.9 587.08 579.06 588.24 579.06 589.67V606.93C579.06 608.36 577.9 609.53 576.47 609.53ZM567.1 587.41C565.86 587.41 564.84 588.42 564.84 589.66V606.92C564.84 608.16 565.85 609.18 567.1 609.18H576.47C577.71 609.18 578.72 608.17 578.72 606.92V589.66C578.72 588.42 577.71 587.41 576.47 587.41H567.1Z" fill="#000072"/>
<g opacity="0.2">
<path d="M578.89 603.1V606.93C578.89 608.27 577.8 609.36 576.47 609.36H567.1C565.76 609.36 564.67 608.27 564.67 606.93V603.1C564.67 604.44 565.76 605.53 567.1 605.53H576.47C577.8 605.52 578.89 604.44 578.89 603.1Z" fill="black"/>
</g>
<g opacity="0.55">
<path d="M578.89 589.67V592.38C578.89 591.04 577.8 589.96 576.47 589.96H567.1C565.76 589.96 564.67 591.05 564.67 592.38V589.67C564.67 588.33 565.76 587.25 567.1 587.25H576.47C577.8 587.24 578.89 588.33 578.89 589.67Z" fill="white"/>
</g>
<path d="M589.34 604.7H578.89V592.43H587.76L589.34 604.7Z" fill="#AFCADC"/>
<path d="M589.53 604.87H578.72V592.26H587.91L589.53 604.87ZM579.06 604.53H589.15L587.61 592.6H579.06V604.53Z" fill="#000072"/>
<path d="M638.5 602.89C638.35 604.64 636.29 605.51 634.96 604.36C627.49 597.94 616.45 601.56 614.2 610.72C613.82 612.25 612.48 613.33 610.91 613.33H593.44C591.74 613.33 590.3 612.07 590.09 610.38L589.36 604.7L587.78 592.43L587.25 588.29C586.99 586.27 588.57 584.47 590.61 584.47H619.26C630.85 584.48 639.27 593.43 638.5 602.89Z" fill="#AFCADC"/>
<path d="M610.9 613.5H593.43C591.65 613.5 590.13 612.17 589.91 610.4L587.06 588.31C586.93 587.3 587.24 586.28 587.92 585.51C588.59 584.74 589.57 584.3 590.59 584.3H619.24C625.07 584.3 630.54 586.61 634.25 590.63C637.47 594.13 639.05 598.48 638.68 602.89C638.61 603.77 638.05 604.53 637.24 604.86C636.42 605.2 635.53 605.05 634.86 604.47C631.39 601.49 626.82 600.52 622.61 601.86C618.49 603.18 615.41 606.5 614.37 610.74C613.96 612.38 612.54 613.5 610.9 613.5ZM590.58 584.65C589.66 584.65 588.78 585.05 588.17 585.74C587.56 586.43 587.28 587.36 587.4 588.27L590.25 610.36C590.46 611.96 591.83 613.16 593.44 613.16H610.91C612.39 613.16 613.68 612.14 614.04 610.68C615.11 606.32 618.27 602.91 622.5 601.55C626.82 600.17 631.52 601.17 635.07 604.22C635.64 604.71 636.4 604.84 637.1 604.55C637.81 604.26 638.27 603.63 638.33 602.87C638.68 598.55 637.14 594.29 633.98 590.87C630.34 586.92 624.96 584.65 619.22 584.65H590.58Z" fill="#000072"/>
<g opacity="0.2">
<path d="M638.5 602.89C638.35 604.64 636.29 605.51 634.96 604.36C627.49 597.94 616.45 601.56 614.2 610.72C613.82 612.25 612.48 613.33 610.91 613.33H593.44C591.74 613.33 590.3 612.07 590.09 610.38L589.91 609.02C590.36 609.24 590.85 609.36 591.38 609.36H608.85C610.42 609.36 611.77 608.27 612.14 606.75C614.39 597.59 625.43 593.96 632.9 600.39C634.23 601.54 636.29 600.67 636.44 598.92C636.62 596.76 636.31 594.62 635.6 592.61C637.71 595.63 638.8 599.22 638.5 602.89Z" fill="black"/>
</g>
<g opacity="0.55">
<path d="M634.43 591.11C631.09 588.46 626.67 586.79 621.66 586.79H593.01C590.97 586.79 589.39 588.58 589.65 590.61L590.18 594.75L591.76 607.02L592.49 612.7C592.51 612.89 592.55 613.07 592.61 613.24C591.28 612.92 590.25 611.8 590.06 610.39L589.33 604.71L587.75 592.44L587.22 588.3C586.96 586.28 588.54 584.48 590.58 584.48H619.23C625.57 584.48 630.96 587.15 634.43 591.11Z" fill="white"/>
</g>
<g opacity="0.55">
<path d="M578.89 592.38H565.24V596.16H578.89V592.38Z" fill="white"/>
</g>
<path d="M610.6 613.33H594.52V654.37H610.6V613.33Z" fill="#435F84" stroke="#0D2232" stroke-width="4" stroke-miterlimit="10" stroke-linecap="round" stroke-linejoin="round"/>
<g opacity="0.2">
<path d="M594.56 620.54C595.03 620.55 595.45 620.72 595.84 620.93C596.23 621.14 596.59 621.41 596.93 621.7C597.61 622.27 598.23 622.91 598.74 623.65C599.76 625.11 600.34 626.76 601.36 628.05C601.86 628.69 602.49 629.21 603.21 629.6C603.93 629.98 604.73 630.24 605.54 630.41C606.36 630.58 607.2 630.68 608.05 630.76C608.47 630.8 608.9 630.83 609.33 630.84C609.76 630.87 610.2 630.93 610.6 631.21C610.66 631.25 610.67 631.33 610.63 631.39C610.62 631.41 610.6 631.42 610.58 631.43H610.57C610.11 631.63 609.7 631.59 609.27 631.56C608.85 631.5 608.42 631.47 607.99 631.43C607.13 631.35 606.26 631.25 605.4 631.07C604.54 630.89 603.68 630.62 602.89 630.2C602.1 629.78 601.38 629.18 600.82 628.47C599.7 627.05 599.13 625.39 598.17 624.04C597.69 623.37 597.13 622.75 596.47 622.25C596.14 622 595.8 621.77 595.45 621.54C595.11 621.31 594.76 621.08 594.45 620.75C594.4 620.7 594.4 620.63 594.45 620.58C594.5 620.55 594.53 620.53 594.56 620.54Z" fill="#371A45"/>
<path d="M610.62 628C609.74 628.48 608.71 628.5 607.74 628.36C606.77 628.22 605.81 627.98 604.93 627.53C604.48 627.32 604.07 627.04 603.68 626.74C603.3 626.42 602.93 626.08 602.64 625.67C602.01 624.88 601.68 623.89 601.49 622.95C601.3 622 601.21 621.07 600.95 620.21C600.82 619.78 600.65 619.38 600.41 619.01C600.3 618.82 600.16 618.65 600.03 618.48C599.88 618.32 599.74 618.15 599.57 618.01C598.92 617.41 598.1 617 597.24 616.79C596.81 616.68 596.36 616.64 595.93 616.67C595.49 616.7 595.08 616.77 594.58 616.7H594.57C594.55 616.7 594.52 616.69 594.49 616.68L594.47 616.67C594.4 616.65 594.36 616.59 594.38 616.52C594.39 616.5 594.4 616.48 594.41 616.46C594.44 616.43 594.46 616.41 594.49 616.39H594.48C594.88 616.05 595.41 615.94 595.91 615.94C596.41 615.96 596.91 615.99 597.4 616.12C598.37 616.35 599.29 616.82 600.03 617.49C600.78 618.14 601.34 619.06 601.61 620C601.89 620.95 601.98 621.9 602.16 622.8C602.34 623.7 602.63 624.55 603.18 625.24C603.44 625.6 603.77 625.9 604.11 626.19C604.47 626.46 604.84 626.71 605.25 626.9C606.05 627.3 606.94 627.55 607.84 627.64C608.06 627.67 608.29 627.66 608.52 627.68C608.75 627.67 608.97 627.69 609.2 627.68C609.65 627.69 610.1 627.64 610.6 627.75H610.61C610.67 627.76 610.71 627.83 610.7 627.89C610.67 627.96 610.64 627.98 610.62 628Z" fill="#371A45"/>
<path d="M610.63 623.31C610.37 623.56 610.05 623.67 609.72 623.72C609.56 623.75 609.39 623.76 609.22 623.75C609.05 623.74 608.89 623.72 608.73 623.71C608.08 623.62 607.44 623.45 606.85 623.17C605.67 622.62 604.65 621.74 603.94 620.66C603.22 619.58 602.81 618.32 602.66 617.05C602.59 616.41 602.58 615.77 602.63 615.14C602.65 614.82 602.7 614.51 602.73 614.19C602.76 613.87 602.83 613.56 603.07 613.29V613.31C603.11 613.27 603.14 613.22 603.19 613.19C603.26 613.14 603.35 613.16 603.4 613.22L603.41 613.23V613.24C603.44 613.29 603.45 613.33 603.47 613.37V613.39C603.56 613.72 603.5 614.01 603.43 614.3C603.36 614.59 603.33 614.89 603.31 615.19C603.26 615.79 603.27 616.38 603.34 616.98C603.47 618.16 603.86 619.31 604.51 620.29C605.16 621.27 606.08 622.07 607.14 622.56C607.67 622.8 608.23 622.98 608.81 623.01C609.1 623.02 609.38 623.03 609.67 623.02C609.96 623.02 610.24 623.01 610.58 623.09C610.65 623.11 610.69 623.18 610.67 623.25C610.65 623.27 610.64 623.29 610.63 623.31Z" fill="#371A45"/>
<path d="M606.55 613.39C606.6 613.65 606.54 613.85 606.47 614.04C606.4 614.23 606.31 614.4 606.23 614.58C606.07 614.94 605.97 615.31 605.91 615.69C605.81 616.43 605.96 617.22 606.38 617.81C606.59 618.1 606.87 618.33 607.19 618.47C607.51 618.61 607.88 618.67 608.25 618.65C608.62 618.64 609 618.56 609.36 618.44C609.54 618.39 609.72 618.28 609.89 618.18C610.07 618.09 610.25 618.02 610.54 618.14H610.55C610.63 618.17 610.67 618.25 610.65 618.33C610.58 618.63 610.38 618.74 610.19 618.83C610.09 618.87 609.99 618.9 609.89 618.95C609.79 619 609.69 619.04 609.59 619.07C609.17 619.21 608.73 619.31 608.28 619.32C607.83 619.34 607.36 619.27 606.92 619.08C606.49 618.89 606.1 618.57 605.83 618.19C605.29 617.42 605.12 616.47 605.24 615.58C605.3 615.14 605.44 614.71 605.58 614.3C605.65 614.09 605.73 613.89 605.85 613.71C605.96 613.53 606.11 613.36 606.36 613.27C606.44 613.24 606.52 613.28 606.55 613.36C606.54 613.37 606.54 613.38 606.55 613.39Z" fill="#371A45"/>
<path d="M594.54 626.44C595.09 626.37 595.65 626.55 596.11 626.83C596.58 627.1 596.99 627.47 597.35 627.86C598.07 628.65 598.65 629.52 599.2 630.37C599.75 631.22 600.31 632.06 601 632.74C601.69 633.42 602.55 633.91 603.45 634.36C604.35 634.81 605.31 635.23 606.18 635.86C607.04 636.49 607.77 637.28 608.35 638.16C608.94 639.03 609.39 639.97 609.79 640.92C609.99 641.4 610.18 641.87 610.38 642.34C610.57 642.82 610.74 643.3 610.69 643.86C610.68 643.93 610.62 643.98 610.56 643.97C610.53 643.97 610.5 643.95 610.48 643.94C610.07 643.55 609.88 643.07 609.7 642.6C609.54 642.12 609.35 641.65 609.16 641.18C608.77 640.25 608.33 639.35 607.78 638.53C607.24 637.7 606.56 636.98 605.78 636.4C604.99 635.83 604.07 635.42 603.15 634.96C602.23 634.51 601.29 633.98 600.52 633.22C599.76 632.47 599.18 631.59 598.62 630.74C598.06 629.89 597.53 629.04 596.84 628.34C596.49 628 596.12 627.69 595.73 627.42C595.34 627.14 594.94 626.93 594.49 626.66C594.43 626.63 594.41 626.55 594.45 626.5C594.47 626.47 594.51 626.45 594.54 626.44Z" fill="#371A45"/>
<path d="M606.38 633.25C606.56 633.15 606.69 633.17 606.8 633.21C606.91 633.25 607 633.32 607.1 633.39C607.29 633.53 607.49 633.64 607.68 633.77C608.06 634.03 608.44 634.3 608.8 634.58C609.16 634.86 609.52 635.16 609.86 635.47C610.03 635.63 610.2 635.79 610.36 635.95C610.44 636.03 610.52 636.12 610.62 636.18C610.7 636.26 610.78 636.35 610.68 636.6C610.65 636.68 610.59 636.73 610.52 636.75C610.27 636.83 610.18 636.76 610.11 636.68C610.05 636.58 609.97 636.51 609.89 636.43C609.73 636.27 609.57 636.12 609.41 635.97C609.08 635.67 608.74 635.38 608.39 635.11C608.04 634.84 607.68 634.58 607.31 634.33C607.12 634.21 606.94 634.08 606.74 633.98C606.64 633.93 606.54 633.89 606.45 633.81C606.36 633.74 606.29 633.64 606.28 633.44C606.27 633.36 606.31 633.29 606.38 633.25Z" fill="#371A45"/>
<path d="M594.59 630.96C595.17 631.2 595.59 631.73 595.88 632.26C596.17 632.8 596.35 633.38 596.51 633.93C596.67 634.49 596.83 635.03 597.05 635.54C597.26 636.05 597.53 636.53 597.88 636.92C598.23 637.31 598.68 637.58 599.18 637.76C599.68 637.93 600.24 638.01 600.8 638.06C601.37 638.11 601.95 638.13 602.54 638.21C603.13 638.29 603.74 638.42 604.31 638.7C604.88 638.98 605.38 639.4 605.75 639.89C606.13 640.38 606.4 640.94 606.62 641.49C607.05 642.61 607.27 643.76 607.57 644.86C607.86 645.96 608.28 647.01 608.84 647.99C609.11 648.48 609.42 648.96 609.77 649.4C610.11 649.85 610.45 650.29 610.67 650.87C610.69 650.93 610.66 651 610.6 651.03C610.57 651.04 610.53 651.04 610.51 651.03C609.93 650.77 609.54 650.31 609.19 649.83C608.86 649.34 608.54 648.84 608.25 648.32C607.67 647.29 607.22 646.18 606.92 645.04C606.61 643.91 606.39 642.78 605.99 641.74C605.79 641.22 605.54 640.73 605.21 640.31C604.89 639.89 604.48 639.54 604 639.31C603.05 638.84 601.89 638.84 600.73 638.74C600.14 638.69 599.54 638.61 598.95 638.41C598.36 638.21 597.79 637.86 597.37 637.38C596.52 636.43 596.19 635.22 595.83 634.14C595.65 633.59 595.46 633.07 595.24 632.57C595.01 632.07 594.76 631.62 594.44 631.13C594.4 631.08 594.42 631 594.47 630.97C594.51 630.94 594.55 630.94 594.59 630.96Z" fill="#371A45"/>
<path d="M594.55 640.69C595 640.63 595.39 640.64 595.81 640.65L597.06 640.68C597.91 640.68 598.8 640.65 599.68 640.81C600.12 640.89 600.57 641.01 600.99 641.21C601.41 641.41 601.81 641.69 602.12 642.06C602.44 642.42 602.65 642.86 602.79 643.3C602.93 643.74 602.99 644.19 603.03 644.63C603.09 645.52 603.07 646.36 603.13 647.2C603.18 648.04 603.27 648.88 603.43 649.7C603.59 650.52 603.83 651.32 604.16 652.08C604.33 652.46 604.51 652.83 604.75 653.16C604.97 653.51 605.19 653.84 605.28 654.31C605.29 654.38 605.25 654.45 605.18 654.46C605.16 654.46 605.13 654.46 605.11 654.45C604.64 654.28 604.36 653.91 604.13 653.53C603.92 653.14 603.71 652.75 603.53 652.34C603.18 651.53 602.93 650.68 602.76 649.82C602.59 648.96 602.5 648.1 602.44 647.23C602.38 646.37 602.4 645.5 602.34 644.68C602.28 643.86 602.09 643.06 601.59 642.5C601.1 641.92 600.34 641.61 599.55 641.48C598.75 641.34 597.92 641.34 597.06 641.38C596.63 641.4 596.19 641.41 595.75 641.35C595.31 641.3 594.86 641.19 594.48 640.91C594.43 640.87 594.42 640.79 594.46 640.74C594.48 640.71 594.51 640.69 594.55 640.69Z" fill="#371A45"/>
<path d="M605.77 648.16C605.98 648.24 606.07 648.36 606.13 648.49C606.2 648.62 606.24 648.75 606.27 648.89C606.35 649.16 606.47 649.43 606.57 649.69C606.79 650.22 607.02 650.74 607.28 651.24C607.54 651.75 607.81 652.25 608.11 652.74C608.26 652.98 608.41 653.22 608.57 653.46C608.65 653.58 608.73 653.7 608.83 653.8C608.92 653.91 608.99 654.04 608.87 654.29C608.84 654.37 608.76 654.41 608.69 654.42C608.41 654.44 608.32 654.33 608.24 654.2C608.18 654.06 608.1 653.94 608.01 653.82C607.85 653.57 607.69 653.33 607.54 653.07C607.24 652.57 606.95 652.05 606.69 651.53C606.43 651.01 606.18 650.47 605.96 649.93C605.84 649.66 605.75 649.38 605.63 649.11C605.57 648.98 605.51 648.84 605.48 648.7C605.45 648.55 605.45 648.4 605.57 648.21C605.6 648.16 605.69 648.13 605.77 648.16Z" fill="#371A45"/>
<path d="M594.49 644.61C594.75 644.38 595.04 644.29 595.34 644.23C595.64 644.17 595.95 644.17 596.27 644.2C596.89 644.24 597.53 644.36 598.11 644.65C598.69 644.94 599.18 645.38 599.55 645.88C599.92 646.39 600.2 646.95 600.38 647.54C600.76 648.72 600.79 649.98 600.57 651.18C600.46 651.78 600.29 652.37 600.06 652.93L599.7 653.77C599.57 654.04 599.39 654.3 599.04 654.43C598.97 654.46 598.88 654.42 598.86 654.34C598.86 654.33 598.85 654.32 598.85 654.31V654.3C598.79 653.92 598.93 653.69 599.06 653.43C599.21 653.19 599.33 652.93 599.43 652.67C599.64 652.15 599.8 651.6 599.9 651.05C600.1 649.95 600.07 648.8 599.73 647.74C599.4 646.69 598.75 645.72 597.79 645.24C597.32 645 596.78 644.88 596.24 644.88C595.97 644.88 595.69 644.91 595.41 644.91C595.13 644.92 594.85 644.92 594.53 644.81C594.46 644.79 594.43 644.71 594.45 644.64C594.47 644.65 594.48 644.63 594.49 644.61Z" fill="#371A45"/>
<path d="M594.49 648.32C594.61 648.11 594.81 648.03 595 648C595.19 647.97 595.39 647.99 595.57 648.04C595.94 648.13 596.31 648.28 596.61 648.54C597.21 649.05 597.51 649.82 597.47 650.59C597.45 650.97 597.32 651.37 597.12 651.68C596.92 652 596.66 652.27 596.39 652.5C596.12 652.73 595.83 652.92 595.55 653.1C595.41 653.19 595.26 653.28 595.14 653.39C595 653.48 594.85 653.56 594.59 653.44C594.51 653.41 594.47 653.33 594.47 653.25C594.49 652.95 594.62 652.86 594.76 652.78C594.91 652.71 595.05 652.63 595.19 652.54C595.46 652.36 595.73 652.18 595.96 651.99C596.44 651.6 596.78 651.12 596.8 650.56C596.83 650.01 596.6 649.42 596.18 649.07C595.97 648.9 595.72 648.77 595.44 648.74C595.3 648.73 595.16 648.73 595.03 648.71C594.89 648.7 594.75 648.67 594.56 648.54L594.55 648.53C594.47 648.48 594.45 648.39 594.49 648.32Z" fill="#371A45"/>
</g>
<g opacity="0.55">
<path d="M596.91 654.37H594.52V618.99H594.86C595.99 618.99 596.91 619.91 596.91 621.04V654.37Z" fill="white"/>
</g>
<g opacity="0.3">
<path d="M610.59 613.33V654.37H606.78V622.84C606.78 620.74 605.08 619.04 602.98 619.04H594.51V613.33H610.59Z" fill="#371A45"/>
</g>
<path d="M614.32 657.76V699.05C614.32 700.92 612.8 702.43 610.94 702.43H594.35C593.79 702.43 593.26 702.29 592.8 702.05C591.71 701.49 590.97 700.35 590.97 699.04V657.75C590.97 655.88 592.49 654.37 594.35 654.37H610.94C612.8 654.37 614.32 655.89 614.32 657.76Z" fill="#F9DC1B"/>
<path d="M610.93 702.61H594.34C593.77 702.61 593.21 702.47 592.71 702.22L592.62 702.17C591.49 701.55 590.79 700.37 590.79 699.06V657.77C590.79 655.81 592.38 654.22 594.34 654.22H610.93C612.89 654.22 614.48 655.81 614.48 657.77V699.06C614.49 701.01 612.89 702.61 610.93 702.61ZM592.97 701.96C593.4 702.16 593.87 702.27 594.35 702.27H610.94C612.71 702.27 614.16 700.83 614.16 699.05V657.76C614.16 655.99 612.72 654.54 610.94 654.54H594.35C592.58 654.54 591.13 655.98 591.13 657.76V699.05C591.13 700.26 591.8 701.35 592.87 701.91L592.97 701.96Z" fill="#000072"/>
<path d="M614.32 657.76V699.05C614.32 700.92 612.8 702.43 610.94 702.43H605.43C607.3 702.43 608.81 700.91 608.81 699.05V657.76C608.81 655.89 607.29 654.38 605.43 654.38H610.94C612.8 654.37 614.32 655.89 614.32 657.76Z" fill="#E89F02"/>
<path d="M610.93 702.61H605.42V702.27C607.19 702.27 608.64 700.83 608.64 699.05V657.76C608.64 655.99 607.2 654.54 605.42 654.54V654.2H610.93C612.89 654.2 614.48 655.79 614.48 657.75V699.04C614.49 701.01 612.89 702.61 610.93 702.61ZM606.94 702.27H610.93C612.7 702.27 614.15 700.83 614.15 699.05V657.76C614.15 655.99 612.71 654.54 610.93 654.54H606.94C608.15 655.11 608.98 656.34 608.98 657.76V699.05C608.98 700.47 608.14 701.7 606.94 702.27Z" fill="#E89F02"/>
<g opacity="0.55">
<path d="M595.36 702.06C595.82 702.3 596.35 702.44 596.91 702.44H594.35C593.79 702.44 593.26 702.3 592.8 702.06C591.71 701.5 590.97 700.36 590.97 699.05V657.76C590.97 655.89 592.49 654.38 594.35 654.38H596.91C595.04 654.38 593.53 655.9 593.53 657.76V699.05C593.52 700.36 594.27 701.5 595.36 702.06Z" fill="white"/>
</g>
<g opacity="0.2">
<path d="M581.15 592.43L583.4 604.7H578.89V592.43H581.15Z" fill="black"/>
</g>
<g opacity="0.2">
<path d="M604.39 592.98C604.39 594.73 602.18 594.26 599.45 594.26C596.72 594.26 594.51 594.73 594.51 592.98C594.51 591.23 596.72 589.81 599.45 589.81C602.18 589.81 604.39 591.23 604.39 592.98Z" fill="white"/>
</g>
<g opacity="0.2">
<path d="M601.15 674.57C601.15 677.84 599.77 680.49 598.07 680.49C596.37 680.49 596.34 677.84 596.34 674.57C596.34 671.3 596.37 668.65 598.07 668.65C599.77 668.65 601.15 671.3 601.15 674.57Z" fill="white"/>
</g>
<path d="M578.89 589.67V606.93C578.89 608.27 577.8 609.36 576.47 609.36H567.1C565.76 609.36 564.67 608.27 564.67 606.93V589.67C564.67 588.33 565.76 587.25 567.1 587.25H576.47C577.8 587.24 578.89 588.33 578.89 589.67Z" stroke="#0D2232" stroke-width="4" stroke-miterlimit="10" stroke-linecap="round" stroke-linejoin="round"/>
<path d="M589.34 604.7H578.89V592.43H587.76L589.34 604.7Z" stroke="#0D2232" stroke-width="4" stroke-miterlimit="10" stroke-linecap="round" stroke-linejoin="round"/>
<path d="M638.5 602.89C638.35 604.64 636.29 605.51 634.96 604.36C627.49 597.94 616.45 601.56 614.2 610.72C613.82 612.25 612.48 613.33 610.91 613.33H593.44C591.74 613.33 590.3 612.07 590.09 610.38L589.36 604.7L587.78 592.43L587.25 588.29C586.99 586.27 588.57 584.47 590.61 584.47H619.26C630.85 584.48 639.27 593.43 638.5 602.89Z" stroke="#0D2232" stroke-width="4" stroke-miterlimit="10" stroke-linecap="round" stroke-linejoin="round"/>
<path d="M610.6 613.33H594.52V654.37H610.6V613.33Z" stroke="#0D2232" stroke-width="4" stroke-miterlimit="10" stroke-linecap="round" stroke-linejoin="round"/>
<path d="M614.32 657.76V699.05C614.32 700.92 612.8 702.43 610.94 702.43H594.35C593.79 702.43 593.26 702.29 592.8 702.05C591.71 701.49 590.97 700.35 590.97 699.04V657.75C590.97 655.88 592.49 654.37 594.35 654.37H610.94C612.8 654.37 614.32 655.89 614.32 657.76Z" stroke="#0D2232" stroke-width="4" stroke-miterlimit="10" stroke-linecap="round" stroke-linejoin="round"/>
<path d="M632.73 714.22C632.72 714.17 632.72 714.12 632.72 714.07L634.53 630.01C634.54 629.37 635.07 628.87 635.71 628.88L650.17 629.19C650.48 629.2 650.77 629.32 650.98 629.55C651.16 629.73 651.27 629.97 651.29 630.22C651.3 630.27 651.3 630.32 651.3 630.37L649.49 714.43C649.48 715.07 648.95 715.57 648.31 715.56L633.85 715.25C633.54 715.24 633.25 715.12 633.04 714.89C632.87 714.71 632.76 714.47 632.73 714.22Z" fill="#C14854"/>
<path d="M638.327 630.094L636.536 714.157L645.794 714.354L647.585 630.291L638.327 630.094Z" fill="#E8656D"/>
<path opacity="0.5" d="M637.209 626.412L635.334 715.234L636.474 715.258L638.349 626.436L637.209 626.412Z" fill="white"/>
<path d="M629.97 632.14C629.18 631.55 628.42 630.89 627.71 630.19C623.49 626.04 621.13 620.49 621.08 614.56C621.03 608.64 623.29 603.05 627.45 598.83C628.53 597.73 629.72 596.75 631 595.9C631.38 595.65 631.87 595.64 632.26 595.89C632.29 595.91 632.31 595.92 632.33 595.94C632.67 596.19 632.84 596.61 632.78 597.03L631.04 608.64L643.99 615.1L654.14 604.78L649.07 595.02C648.85 594.6 648.91 594.09 649.22 593.73C649.53 593.37 650.02 593.24 650.47 593.39C652.66 594.14 654.7 595.22 656.56 596.61C657.35 597.2 658.11 597.86 658.82 598.55C663.04 602.7 665.4 608.25 665.45 614.18C665.5 620.1 663.24 625.69 659.08 629.91C651.32 637.82 638.81 638.77 629.97 632.14Z" fill="#E8656D"/>
<path d="M650.1 594.5L650.9 596.04C652.14 596.82 653.31 597.74 654.4 598.81C662.68 606.95 662.79 620.26 654.65 628.54C650.15 633.12 644.06 635.19 638.12 634.76C645.12 636.52 652.84 634.64 658.26 629.12C666.4 620.84 666.29 607.53 658.01 599.39C655.69 597.12 652.98 595.49 650.1 594.5Z" fill="#C14854"/>
<path opacity="0.5" d="M628.16 625.72C636.11 635.88 646.68 632.41 646.68 632.41C646.68 632.41 638.82 630.59 632.99 624.31C626.9 617.76 624.61 610.8 624.61 610.8C624.61 610.8 622.4 618.36 628.16 625.72Z" fill="white"/>
<path opacity="0.5" d="M630.05 711.9C633.01 708 635.99 708.7 635.99 708.7C635.99 708.7 632.09 712.12 629.92 716.83C627.88 721.26 628.18 728.44 628.18 728.44C628.18 728.44 626.18 723.62 626.46 721.18C626.92 717.2 628.05 714.53 630.05 711.9Z" fill="white"/>
<path d="M632.9 706.08L634.44 634.72" stroke="#0D2232" stroke-width="4" stroke-miterlimit="10" stroke-linecap="round" stroke-linejoin="round"/>
<path d="M651.21 635.11L649.67 706.48" stroke="#0D2232" stroke-width="4" stroke-miterlimit="10" stroke-linecap="round" stroke-linejoin="round"/>
<path d="M629.97 632.14C629.18 631.55 628.42 630.89 627.71 630.19C623.49 626.04 621.13 620.49 621.08 614.56C621.03 608.64 623.29 603.05 627.45 598.83C628.53 597.73 629.72 596.75 631 595.9C631.38 595.65 631.87 595.64 632.26 595.89C632.29 595.91 632.31 595.92 632.33 595.94C632.67 596.19 632.84 596.61 632.78 597.03L631.04 608.64L643.99 615.1L654.14 604.78L649.07 595.02C648.85 594.6 648.91 594.09 649.22 593.73C649.53 593.37 650.02 593.24 650.47 593.39C652.66 594.14 654.7 595.22 656.56 596.61C657.35 597.2 658.11 597.86 658.82 598.55C663.04 602.7 665.4 608.25 665.45 614.18C665.5 620.1 663.24 625.69 659.08 629.91C651.32 637.82 638.81 638.77 629.97 632.14Z" stroke="#0D2232" stroke-width="4" stroke-miterlimit="10" stroke-linecap="round" stroke-linejoin="round"/>
<path d="M567.33 658.93V717.09C567.33 717.09 578.9 734.45 601.4 734.45C623.9 734.45 639.97 734.45 639.97 734.45L646.72 725.77C646.72 725.77 652.18 684.95 652.83 669.2C652.83 669.2 591.11 670.85 567.33 658.93Z" fill="#FEC400"/>
<path d="M572.59 661.15V704.81C572.59 712.24 576.79 719.05 583.46 722.31C594.43 727.68 614.44 732.8 646.72 725.78L639.97 734.46L598.02 734.7C598.02 734.7 576.32 731.89 567.32 717.1V658.94L572.59 661.15Z" fill="#E89F02"/>
<path d="M567.33 658.93V712.14C567.33 715.76 568.79 719.22 571.35 721.78C576.5 726.92 586.58 734.45 601.4 734.45H632.9C637.36 734.45 641.57 732.39 644.31 728.87C645.89 726.84 646.9 724.42 647.23 721.87C648.6 711.28 652.3 681.99 652.82 669.2C652.83 669.2 591.11 670.85 567.33 658.93Z" stroke="#0D2232" stroke-width="4" stroke-miterlimit="10" stroke-linecap="round" stroke-linejoin="round"/>
<path d="M567.33 674.02C567.33 674.02 587.03 690.92 651.31 684.49" stroke="#0D2232" stroke-width="4" stroke-miterlimit="10" stroke-linecap="round" stroke-linejoin="round"/>
<path d="M429.76 658.93V718.37C429.76 718.37 405.33 737.01 368.05 734.44C368.05 734.44 352.62 710.01 348.12 669.19C348.11 669.2 412.4 672.78 429.76 658.93Z" stroke="white" stroke-miterlimit="10"/>
<path d="M350.66 685.78C350.66 685.78 404.04 686.24 429.75 674.02" stroke="white" stroke-miterlimit="10"/>
<path d="M363.5 725.81C363.5 725.81 395.68 726.73 414.33 716.45L410.21 666.27L429.76 658.93V718.37C429.76 718.37 407.9 735.73 368.05 734.44L363.5 725.81Z" stroke="white" stroke-miterlimit="10"/>
<path d="M429.93 674.02C429.93 674.02 408.69 690.73 344.33 684.31" stroke="white" stroke-miterlimit="10"/>
<path d="M447.95 634.16V722.88L436.36 734.45H357.2L367.82 726.09L367.17 634.16H447.95Z" fill="#F9DC1B"/>
<path d="M438.29 634.16V717.32L431.53 726.09H350.44L357.2 734.45H436.36L447.95 722.88V634.16H438.29Z" fill="#E89F02"/>
<path d="M435.716 651.667H440.866V646.527H435.716V651.667Z" fill="white"/>
<path d="M435.716 668.082H440.866V662.942H435.716V668.082Z" fill="white"/>
<path d="M435.716 684.488H440.866V679.348H435.716V684.488Z" fill="white"/>
<path d="M435.716 700.903H440.866V695.763H435.716V700.903Z" fill="white"/>
<path d="M435.716 717.319H440.866V712.179H435.716V717.319Z" fill="white"/>
<path d="M367.17 669.2V634.16H447.95V722.88L436.36 734.45L358.26 733.61" stroke="#0D2232" stroke-width="4" stroke-miterlimit="10" stroke-linecap="round" stroke-linejoin="round"/>
<path d="M373.1 604.1L377.77 621.71L375.04 624.62C371.77 619.72 365.73 616.99 359.67 618.22C359.38 618.28 359.09 618.35 358.8 618.42C360.05 617.38 360.96 616.2 361.54 614.98C364.08 609.67 360.74 603.31 354.47 602.17L350.69 587.93C360.18 589.24 367.04 594.3 372.09 601.93C372.56 602.6 372.89 603.33 373.1 604.1Z" fill="#AFCADC"/>
<path d="M375.02 624.93L374.89 624.73C371.59 619.78 365.5 617.24 359.72 618.41C359.45 618.46 359.17 618.53 358.87 618.61L358.03 618.83L358.7 618.27C359.89 617.28 360.8 616.15 361.39 614.89C362.55 612.47 362.5 609.7 361.27 607.29C359.94 604.7 357.46 602.9 354.46 602.35L354.34 602.33L350.46 587.69L350.75 587.73C359.78 588.98 366.83 593.58 372.29 601.81C372.75 602.5 373.09 603.25 373.3 604.04L378 621.75L375.02 624.93ZM359.52 618.05C359.56 618.04 359.6 618.03 359.65 618.02C365.5 616.83 371.66 619.35 375.08 624.3L377.57 621.64L372.92 604.14C372.72 603.39 372.4 602.68 371.96 602.02C366.62 593.98 359.76 589.43 350.98 588.15L354.65 601.99C357.71 602.58 360.25 604.44 361.61 607.11C362.9 609.63 362.94 612.52 361.73 615.05C361.21 616.15 360.47 617.16 359.52 618.05Z" fill="#000072"/>
<g opacity="0.55">
<path d="M361.52 617.97C360.91 618.01 360.29 618.1 359.67 618.22C359.38 618.28 359.09 618.35 358.8 618.42C360.05 617.38 360.96 616.2 361.54 614.98C364.08 609.67 360.74 603.31 354.47 602.17L350.69 587.93C351.71 588.07 352.69 588.25 353.64 588.48L357.16 601.73C363.43 602.87 366.77 609.22 364.23 614.54C363.67 615.76 362.77 616.93 361.52 617.97Z" fill="white"/>
</g>
<g opacity="0.55">
<path d="M361.59 617.96L361.5 617.98C361.51 617.97 361.51 617.97 361.52 617.96C361.55 617.96 361.57 617.96 361.59 617.96Z" fill="white"/>
<path d="M361.64 618.15L360.73 618.39L361.47 617.78C361.51 617.77 361.54 617.77 361.56 617.77L363.19 617.73L361.64 618.15Z" fill="#371A45"/>
</g>
<path d="M380.79 633.08L383.07 641.69C383.21 642.22 382.92 642.78 382.42 642.97C382.38 642.98 382.35 642.99 382.31 643L366.73 647.14C365.15 647.56 363.55 647.71 361.98 647.62C356.96 647.32 352.27 644.55 349.73 640.22C349.08 639.12 348.57 637.93 348.23 636.64C347.8 635.03 347.66 633.42 347.76 631.85C348.16 625.64 352.45 620.11 358.8 618.43H358.81C359.1 618.35 359.38 618.29 359.68 618.23C365.74 617 371.78 619.73 375.05 624.63C376.01 626.07 376.72 627.69 377.14 629.45C377.41 630.59 377.53 631.73 377.53 632.85L379.49 632.33C379.85 632.23 380.22 632.34 380.48 632.57C380.62 632.69 380.74 632.87 380.79 633.08Z" fill="#AFCADC"/>
<path d="M382.36 643.19L366.78 647.33C365.21 647.75 363.59 647.91 361.97 647.81C356.85 647.51 352.1 644.64 349.56 640.32C348.89 639.19 348.38 637.97 348.04 636.7C347.62 635.1 347.46 633.47 347.56 631.84C347.98 625.37 352.47 619.91 358.74 618.24C359.07 618.15 359.35 618.09 359.63 618.03C365.55 616.83 371.81 619.43 375.19 624.51C376.18 626 376.89 627.64 377.3 629.39C377.55 630.44 377.68 631.52 377.69 632.59L379.41 632.13C379.82 632.02 380.26 632.12 380.57 632.41C380.76 632.57 380.89 632.79 380.95 633.03L383.23 641.64C383.4 642.27 383.06 642.92 382.46 643.15C382.45 643.16 382.41 643.17 382.36 643.19ZM358.86 618.6C352.74 620.23 348.36 625.55 347.95 631.85C347.84 633.44 348 635.03 348.41 636.58C348.74 637.82 349.24 639.01 349.89 640.11C352.36 644.32 357 647.12 361.99 647.41C363.57 647.5 365.15 647.35 366.68 646.94L382.26 642.8C382.29 642.79 382.32 642.78 382.35 642.77C382.77 642.61 383 642.16 382.89 641.72L380.61 633.11C380.57 632.94 380.47 632.79 380.34 632.68C380.12 632.48 379.82 632.41 379.53 632.48L377.33 633.06V632.81C377.33 631.69 377.2 630.56 376.94 629.45C376.54 627.74 375.85 626.14 374.88 624.69C371.58 619.74 365.49 617.2 359.71 618.37C359.45 618.46 359.17 618.52 358.86 618.6Z" fill="#000072"/>
<g opacity="0.3">
<path d="M373.1 604.1L377.77 621.71L375.04 624.62C374.86 624.35 374.67 624.08 374.47 623.82C371.1 619.42 365.4 617.05 359.67 618.22C359.38 618.28 359.09 618.35 358.8 618.42C360.05 617.38 360.96 616.2 361.54 614.98C361.62 614.95 361.71 614.93 361.79 614.91H361.81C362.09 614.84 362.38 614.77 362.68 614.71C365.32 614.17 367.95 614.39 370.35 615.21C371.81 615.71 373.23 614.41 372.84 612.92L370.78 605.17C370.58 604.4 370.24 603.67 369.8 603C365.24 596.12 359.21 591.33 351.12 589.5L350.71 587.95C360.2 589.26 367.06 594.32 372.11 601.95C372.56 602.6 372.89 603.33 373.1 604.1Z" fill="black"/>
<path d="M375.02 624.93L374.89 624.73C374.71 624.45 374.52 624.19 374.33 623.95C370.91 619.48 365.18 617.31 359.72 618.42C359.45 618.47 359.17 618.54 358.87 618.62L358.03 618.84L358.7 618.28C359.89 617.29 360.8 616.16 361.39 614.9L361.43 614.82L361.51 614.79C361.91 614.66 362.32 614.58 362.66 614.51C365.24 613.99 367.92 614.16 370.43 615.01C371.05 615.22 371.71 615.08 372.19 614.64C372.66 614.2 372.84 613.58 372.67 612.96L370.61 605.21C370.41 604.47 370.09 603.76 369.65 603.09C364.81 595.79 358.74 591.4 351.08 589.67L350.97 589.64L350.45 587.7L350.74 587.74C359.77 588.99 366.82 593.59 372.28 601.82C372.74 602.51 373.08 603.26 373.29 604.05L377.99 621.76L375.02 624.93ZM359.52 618.05C359.56 618.04 359.6 618.03 359.65 618.02C365.25 616.88 371.13 619.11 374.64 623.7C374.79 623.89 374.94 624.09 375.08 624.31L377.57 621.65L372.92 604.15C372.72 603.4 372.4 602.69 371.96 602.03C366.62 593.99 359.76 589.44 350.98 588.16L351.29 589.32C358.99 591.09 365.1 595.53 369.98 602.88C370.44 603.58 370.78 604.33 370.99 605.11L373.05 612.86C373.25 613.62 373.03 614.39 372.46 614.92C371.88 615.46 371.08 615.63 370.31 615.38C367.87 614.55 365.25 614.38 362.74 614.89C362.47 614.94 362.16 615.01 361.88 615.09C361.82 615.11 361.76 615.12 361.71 615.14C361.18 616.2 360.45 617.18 359.52 618.05Z" fill="#371A45"/>
</g>
<g opacity="0.55">
<path d="M369.69 619.74C367.27 618.9 364.6 618.67 361.93 619.21C361.64 619.27 361.35 619.34 361.06 619.41H361.05C354.71 621.09 350.42 626.63 350.01 632.83C349.91 634.4 350.05 636.02 350.48 637.62C350.82 638.9 351.33 640.1 351.98 641.2C353.38 643.58 355.42 645.49 357.82 646.77C354.47 645.6 351.55 643.3 349.73 640.2C349.08 639.1 348.57 637.91 348.23 636.62C347.8 635.01 347.66 633.4 347.76 631.83C348.16 625.62 352.45 620.09 358.8 618.41H358.81C359.1 618.33 359.38 618.27 359.68 618.21C363.2 617.5 366.72 618.13 369.69 619.74Z" fill="white"/>
</g>
<path d="M362.63 640.7C366.982 640.7 370.51 637.172 370.51 632.82C370.51 628.468 366.982 624.94 362.63 624.94C358.278 624.94 354.75 628.468 354.75 632.82C354.75 637.172 358.278 640.7 362.63 640.7Z" fill="#CECEDD"/>
<g opacity="0.55">
<path d="M372.71 632.23C373.83 636.44 371.32 640.75 367.12 641.87C364.52 642.56 361.88 641.87 359.97 640.24C361.42 640.76 363.04 640.86 364.65 640.44C368.86 639.32 371.36 635.01 370.24 630.8C369.81 629.2 368.92 627.84 367.75 626.84C370.11 627.68 372.02 629.63 372.71 632.23Z" fill="white"/>
</g>
<g opacity="0.3">
<path d="M367.43 626.57C366.14 626.21 364.74 626.19 363.35 626.56C359.14 627.68 356.64 631.99 357.76 636.2C358.22 637.95 359.24 639.4 360.58 640.42C357.95 639.71 355.77 637.66 355.02 634.84C353.9 630.63 356.41 626.32 360.61 625.2C363.07 624.55 365.56 625.13 367.43 626.57Z" fill="black"/>
<path d="M361.46 640.86L360.52 640.61C357.74 639.86 355.56 637.67 354.82 634.89C353.68 630.59 356.25 626.16 360.55 625.02C362.99 624.37 365.54 624.88 367.54 626.42L368.32 627.02L367.37 626.76C366.08 626.4 364.71 626.4 363.39 626.75C359.29 627.84 356.84 632.06 357.93 636.15C358.37 637.8 359.32 639.23 360.68 640.27L361.46 640.86ZM360.65 625.39C356.55 626.48 354.1 630.7 355.19 634.79C355.81 637.12 357.5 639.02 359.7 639.93C358.67 638.92 357.94 637.67 357.56 636.25C356.42 631.95 358.99 627.52 363.29 626.38C364.34 626.1 365.44 626.04 366.5 626.19C364.75 625.15 362.66 624.85 360.65 625.39Z" fill="#371A45"/>
</g>
<path d="M366.45 647.21L370.06 660.81C370.54 662.61 371.59 664.22 373.05 665.38L387.81 677.12C390.24 679.05 391.98 681.71 392.77 684.7L400.14 712.48C400.61 714.26 402.66 715.07 404.24 714.11C407.9 711.88 410.74 709.3 412.28 706.16C413.52 703.63 413.72 700.71 412.99 697.98L407.4 676.94C406.84 674.83 405.72 672.92 404.16 671.39L394.4 661.85C392.49 659.98 391.36 657.44 391.33 654.77C391.3 651.75 391.89 648.39 392.84 644.83C393.43 642.61 391.41 640.58 389.19 641.17L366.45 647.21Z" fill="#F9DC1B"/>
<path d="M407.41 676.93L413 697.98C413.72 700.71 413.53 703.63 412.29 706.16C410.75 709.3 407.9 711.88 404.24 714.11C403.16 714.77 401.86 714.59 401 713.85C404.08 711.8 406.48 709.45 407.85 706.66C409.09 704.13 409.29 701.21 408.56 698.48L402.97 677.43C402.41 675.32 401.29 673.41 399.73 671.88L389.97 662.34C388.06 660.47 386.94 657.93 386.91 655.26C386.88 652.24 387.47 648.88 388.42 645.32C388.82 643.81 388.01 642.38 386.75 641.82L389.22 641.17C391.44 640.58 393.46 642.61 392.87 644.83C391.92 648.39 391.33 651.75 391.36 654.77C391.39 657.44 392.52 659.98 394.42 661.85L404.18 671.39C405.73 672.91 406.85 674.83 407.41 676.93Z" fill="#E89F02"/>
<g opacity="0.55">
<path d="M403.36 713.61C403.43 713.88 403.54 714.14 403.68 714.36C402.21 714.86 400.56 714.05 400.14 712.47L392.77 684.69C391.98 681.7 390.24 679.04 387.81 677.11L373.05 665.37C371.59 664.21 370.54 662.61 370.06 660.8L366.45 647.2L389.22 641.16C390.51 640.82 391.72 641.36 392.41 642.3L369.67 648.33L373.28 661.93C373.76 663.74 374.81 665.34 376.27 666.5L391.03 678.24C393.45 680.17 395.19 682.83 395.99 685.82L403.36 713.61Z" fill="white"/>
</g>
<path d="M366.45 647.21L370.06 660.81C370.54 662.61 370.42 664.52 369.73 666.26L362.73 683.77C361.58 686.65 361.39 689.82 362.18 692.82L369.55 720.6C370.02 722.38 368.64 724.1 366.8 724.04C362.52 723.92 358.77 723.09 355.87 721.13C353.53 719.55 351.92 717.11 351.19 714.38L345.6 693.34C345.04 691.23 345.06 689.02 345.66 686.92L349.4 673.8C350.13 671.23 349.85 668.47 348.55 666.13C347.08 663.49 344.9 660.86 342.31 658.24C340.7 656.61 341.45 653.85 343.66 653.26L366.45 647.21Z" fill="#F9DC1B"/>
<path d="M366.45 647.21L370.06 660.81C370.54 662.62 370.42 664.53 369.73 666.26L362.73 683.77C361.58 686.65 361.39 689.82 362.18 692.82L369.55 720.6C370.02 722.38 368.64 724.1 366.8 724.05C366.01 724.03 365.23 723.98 364.47 723.9C364.8 723.31 364.91 722.6 364.72 721.88L357.35 694.1C356.56 691.11 356.75 687.93 357.9 685.05L364.9 667.54C365.59 665.81 365.71 663.9 365.23 662.09L361.62 648.49L366.45 647.21Z" fill="#E89F02"/>
<g opacity="0.55">
<path d="M346.29 659.17C348.88 661.79 351.06 664.42 352.53 667.06C353.83 669.39 354.11 672.16 353.38 674.73L349.64 687.85C349.04 689.95 349.02 692.17 349.58 694.27L355.17 715.32C355.89 718.05 357.51 720.49 359.84 722.07C360.87 722.77 362.01 723.32 363.24 723.75C360.43 723.35 357.94 722.53 355.88 721.13C353.55 719.55 351.93 717.11 351.21 714.38L345.62 693.33C345.06 691.22 345.08 689 345.68 686.91L349.42 673.79C350.15 671.22 349.87 668.46 348.57 666.13C347.1 663.49 344.92 660.86 342.33 658.24C340.72 656.61 341.47 653.84 343.68 653.26L366.44 647.21L366.93 649.07L347.63 654.2C345.43 654.78 344.68 657.54 346.29 659.17Z" fill="white"/>
</g>
<path d="M361.98 647.61L362.17 648.34L349.29 651.76L346.93 642.88C346.67 641.89 347.26 640.87 348.25 640.61L349.72 640.22C352.27 644.54 356.96 647.32 361.98 647.61Z" fill="#AFCADC"/>
<path d="M362.41 648.48L349.16 652L346.75 642.93C346.46 641.84 347.11 640.71 348.21 640.42L349.82 639.99L349.89 640.12C352.36 644.33 357 647.13 361.99 647.42L362.13 647.43L362.41 648.48ZM349.43 651.53L361.94 648.21L361.83 647.8C356.82 647.46 352.17 644.65 349.64 640.44L348.31 640.79C347.42 641.03 346.89 641.94 347.13 642.83L349.43 651.53Z" fill="#000072"/>
<g opacity="0.55">
<path d="M349.85 640.18C350.05 640.53 350.28 640.87 350.51 641.2L350.38 641.24C349.39 641.5 348.8 642.52 349.06 643.51L351.12 651.28L349.41 651.73L347.05 642.85C346.79 641.86 347.38 640.84 348.37 640.58L349.85 640.18Z" fill="white"/>
</g>
<path d="M358.8 618.42C352.46 620.1 348.17 625.64 347.76 631.84L343.96 630.67L339.29 613.06C339.08 612.29 339.01 611.49 339.07 610.69C339.68 601.56 343.12 593.76 350.71 587.92L354.49 602.16C348.48 607.21 350.26 616.94 358.8 618.42Z" fill="#AFCADC"/>
<path d="M347.94 632.1L343.81 630.83L339.11 613.12C338.9 612.33 338.82 611.51 338.88 610.68C339.54 600.83 343.37 593.33 350.6 587.77L350.83 587.59L354.71 602.23L354.62 602.31C351.73 604.73 350.52 608.39 351.45 611.85C352.35 615.19 355.11 617.57 358.84 618.22L359.7 618.37L358.85 618.59C352.74 620.21 348.36 625.54 347.96 631.84L347.94 632.1ZM344.12 630.53L347.58 631.6C348.07 625.49 352.2 620.32 358 618.46C354.51 617.61 351.94 615.22 351.07 611.97C350.11 608.4 351.34 604.63 354.27 602.11L350.6 588.27C343.61 593.74 339.9 601.09 339.26 610.72C339.21 611.51 339.28 612.29 339.48 613.03L344.12 630.53Z" fill="#000072"/>
<g opacity="0.3">
<path d="M356.13 619.41C356.18 619.39 356.23 619.36 356.28 619.34C356.3 619.34 356.32 619.35 356.34 619.35C356.27 619.37 356.2 619.39 356.13 619.41Z" fill="#262F6A"/>
<path d="M356.19 619.6L356.04 619.25C356.09 619.22 356.15 619.2 356.2 619.17L356.25 619.15L356.35 619.16L357.15 619.32L356.39 619.53C356.32 619.56 356.25 619.58 356.19 619.6Z" fill="#371A45"/>
</g>
<g opacity="0.3">
<path d="M356.681 617.84C357.271 618.07 357.281 618.9 356.691 619.16C356.551 619.22 356.411 619.28 356.281 619.35C347.791 617.83 345.411 608.03 351.401 603L348.021 590.26C348.851 589.45 349.751 588.68 350.721 587.94L354.501 602.18C349.021 606.76 350.001 615.24 356.681 617.84Z" fill="#262F6A"/>
<path d="M356.3 619.54L356.24 619.53C352.19 618.8 349.18 616.15 348.19 612.43C347.26 608.94 348.4 605.3 351.18 602.92L347.8 590.19L347.88 590.11C348.72 589.3 349.63 588.51 350.59 587.77L350.82 587.59L354.7 602.23L354.61 602.31C351.98 604.52 350.72 607.77 351.26 611.01C351.76 614.07 353.76 616.5 356.75 617.66C357.09 617.8 357.31 618.11 357.32 618.48C357.33 618.86 357.12 619.18 356.77 619.33C356.63 619.39 356.5 619.45 356.36 619.52L356.3 619.54ZM348.23 590.31L351.61 603.06L351.52 603.14C348.79 605.43 347.66 608.95 348.56 612.34C349.51 615.89 352.38 618.43 356.24 619.15C356.36 619.09 356.48 619.04 356.61 618.98C356.85 618.88 356.93 618.66 356.93 618.49C356.93 618.28 356.81 618.1 356.61 618.02C353.5 616.81 351.41 614.28 350.88 611.08C350.33 607.75 351.6 604.4 354.27 602.11L350.6 588.27C349.77 588.91 348.97 589.6 348.23 590.31Z" fill="#371A45"/>
</g>
<g opacity="0.55">
<path d="M350.71 587.93L351.25 589.98C345.18 595.58 342.35 602.7 341.8 610.9C341.75 611.7 341.82 612.5 342.02 613.27L346.69 630.88L347.8 631.22C347.78 631.43 347.76 631.64 347.75 631.85L343.95 630.68L339.28 613.07C339.07 612.3 339 611.5 339.06 610.7C339.68 601.57 343.12 593.77 350.71 587.93Z" fill="white"/>
</g>
<g opacity="0.2">
<path d="M380.79 633.08L383.07 641.69C383.21 642.22 382.92 642.78 382.42 642.97L369.51 646.4C375.76 643.37 378.81 639.06 378.04 633.2L380.47 632.56C380.62 632.69 380.74 632.87 380.79 633.08Z" fill="black"/>
</g>
<path d="M361.98 647.61L362.17 648.34L349.29 651.76L346.93 642.88C346.67 641.89 347.26 640.87 348.25 640.61L349.72 640.22C352.27 644.54 356.96 647.32 361.98 647.61Z" stroke="#0D2232" stroke-width="4" stroke-miterlimit="10" stroke-linecap="round" stroke-linejoin="round"/>
<path d="M366.451 647.21L370.061 660.81C370.541 662.61 371.591 664.22 373.051 665.38L387.811 677.12C390.241 679.05 391.981 681.71 392.771 684.7L400.141 712.48C400.611 714.26 402.661 715.07 404.241 714.11C407.901 711.88 410.741 709.3 412.281 706.16C413.521 703.63 413.721 700.71 412.991 697.98L407.401 676.94C406.841 674.83 405.721 672.92 404.161 671.39L394.401 661.85C392.491 659.98 391.361 657.44 391.331 654.77C391.301 651.75 391.891 648.39 392.841 644.83C393.431 642.61 391.411 640.58 389.191 641.17L366.451 647.21Z" stroke="#0D2232" stroke-width="4" stroke-miterlimit="10" stroke-linecap="round" stroke-linejoin="round"/>
<path d="M366.45 647.21L370.06 660.81C370.54 662.61 370.42 664.52 369.73 666.26L362.73 683.77C361.58 686.65 361.39 689.82 362.18 692.82L369.55 720.6C370.02 722.38 368.64 724.1 366.8 724.04C362.52 723.92 358.77 723.09 355.87 721.13C353.53 719.55 351.92 717.11 351.19 714.38L345.6 693.34C345.04 691.23 345.06 689.02 345.66 686.92L349.4 673.8C350.13 671.23 349.85 668.47 348.55 666.13C347.08 663.49 344.9 660.86 342.31 658.24C340.7 656.61 341.45 653.85 343.66 653.26L366.45 647.21Z" stroke="#0D2232" stroke-width="4" stroke-miterlimit="10" stroke-linecap="round" stroke-linejoin="round"/>
<path d="M373.1 604.1L377.77 621.71L375.04 624.62C371.77 619.72 365.73 616.99 359.67 618.22C359.38 618.28 359.09 618.35 358.8 618.42C360.05 617.38 360.96 616.2 361.54 614.98C364.08 609.67 360.74 603.31 354.47 602.17L350.69 587.93C360.18 589.24 367.04 594.3 372.09 601.93C372.56 602.6 372.89 603.33 373.1 604.1Z" stroke="#0D2232" stroke-width="4" stroke-miterlimit="10" stroke-linecap="round" stroke-linejoin="round"/>
<path d="M380.79 633.08L383.07 641.69C383.21 642.22 382.92 642.78 382.42 642.97C382.38 642.98 382.35 642.99 382.31 643L366.73 647.14C365.15 647.56 363.55 647.71 361.98 647.62C356.96 647.32 352.27 644.55 349.73 640.22C349.08 639.12 348.57 637.93 348.23 636.64C347.8 635.03 347.66 633.42 347.76 631.85C348.16 625.64 352.45 620.11 358.8 618.43H358.81C359.1 618.35 359.38 618.29 359.68 618.23C365.74 617 371.78 619.73 375.05 624.63C376.01 626.07 376.72 627.69 377.14 629.45C377.41 630.59 377.53 631.73 377.53 632.85L379.49 632.33C379.85 632.23 380.22 632.34 380.48 632.57C380.62 632.69 380.74 632.87 380.79 633.08Z" stroke="#0D2232" stroke-width="4" stroke-miterlimit="10" stroke-linecap="round" stroke-linejoin="round"/>
<path d="M358.8 618.42C352.46 620.1 348.17 625.64 347.76 631.84L343.96 630.67L339.29 613.06C339.08 612.29 339.01 611.49 339.07 610.69C339.68 601.56 343.12 593.76 350.71 587.92L354.49 602.16C348.48 607.21 350.26 616.94 358.8 618.42Z" stroke="#0D2232" stroke-width="4" stroke-miterlimit="10" stroke-linecap="round" stroke-linejoin="round"/>
<path d="M362.63 640.7C366.982 640.7 370.51 637.172 370.51 632.82C370.51 628.468 366.982 624.94 362.63 624.94C358.278 624.94 354.75 628.468 354.75 632.82C354.75 637.172 358.278 640.7 362.63 640.7Z" stroke="#0D2232" stroke-width="4" stroke-miterlimit="10" stroke-linecap="round" stroke-linejoin="round"/>
<path d="M414.94 664.67H394.39C392.2 664.67 390.42 662.89 390.42 660.7V659.57C390.42 657.38 392.2 655.6 394.39 655.6H414.94C417.13 655.6 418.91 657.38 418.91 659.57V660.7C418.91 662.9 417.13 664.67 414.94 664.67Z" fill="#F9DC1B"/>
<path d="M413.281 664.67H396.141V671.75H413.281V664.67Z" fill="#F9DC1B"/>
<path d="M406.44 716.23H402.89C396 716.23 390.42 710.65 390.42 703.76V675.9C390.42 673.61 392.27 671.76 394.56 671.76H414.77C417.06 671.76 418.91 673.61 418.91 675.9V703.76C418.91 710.64 413.33 716.23 406.44 716.23Z" fill="#F9DC1B"/>
<path d="M418.911 658.65V661.63C418.911 663.31 417.551 664.67 415.871 664.67H410.871C412.551 664.67 413.911 663.31 413.911 661.63V658.65C413.911 656.97 412.551 655.61 410.871 655.61H415.871C417.551 655.61 418.911 656.97 418.911 658.65Z" fill="#E89F02"/>
<path d="M413.28 664.68H408.28V671.76H413.28V664.68Z" fill="#E89F02"/>
<path d="M418.911 674.78V702.4C418.911 710.04 412.721 716.23 405.081 716.23H404.811C409.841 716.23 413.921 712.15 413.921 707.12V674.78C413.921 673.11 412.571 671.76 410.901 671.76H415.901C417.561 671.75 418.911 673.11 418.911 674.78Z" fill="#E89F02"/>
<g opacity="0.55">
<path d="M397 664.68H393.47C391.79 664.68 390.43 663.32 390.43 661.64V658.66C390.43 656.98 391.79 655.62 393.47 655.62H397C395.32 655.62 393.96 656.98 393.96 658.66V661.64C393.96 663.31 395.32 664.68 397 664.68Z" fill="white"/>
</g>
<g opacity="0.55">
<path d="M399.671 664.68H396.141V671.76H399.671V664.68Z" fill="white"/>
</g>
<g opacity="0.55">
<path d="M403.07 716.23H399.54C394.51 716.23 390.43 712.15 390.43 707.12V674.78C390.43 673.11 391.78 671.76 393.45 671.76H396.98C395.31 671.76 393.96 673.11 393.96 674.78V707.12C393.96 712.15 398.03 716.23 403.07 716.23Z" fill="white"/>
</g>
<path d="M414.601 616.9L412.291 624.08H409.301V655.61H400.361V624.08H397.381L395.061 616.9L398.701 596.36H410.961L414.601 616.9Z" fill="#AFCADC"/>
<path d="M409.47 655.77H400.19V624.24H397.25L394.88 616.91L394.89 616.87L398.56 596.19H411.09L414.77 616.91L412.4 624.24H409.46V655.77H409.47ZM400.53 655.44H409.14V623.91H412.17L414.44 616.89L410.83 596.53H398.85L395.24 616.89L397.51 623.91H400.54V655.44H400.53Z" fill="#000072"/>
<g opacity="0.2">
<path d="M408.481 624.08H409.301V655.61H406.541V626.02C406.541 624.95 407.411 624.08 408.481 624.08Z" fill="black"/>
</g>
<g opacity="0.2">
<path d="M414.6 616.9L412.29 624.08H409.53L411.84 616.9L408.2 596.36H410.96L414.6 616.9Z" fill="black"/>
</g>
<g opacity="0.55">
<path d="M397.921 616.9L400.241 624.08H397.711L395.391 616.9L399.031 596.36H401.561L397.921 616.9Z" fill="white"/>
</g>
<g opacity="0.55">
<path d="M403.22 625.73V655.61H400.69V624.08H401.57C402.48 624.08 403.22 624.82 403.22 625.73Z" fill="white"/>
</g>
<g opacity="0.2">
<path d="M404.31 690.77C404.31 694.43 402.77 697.4 400.86 697.4C398.96 697.4 398.93 694.43 398.93 690.77C398.93 687.11 398.96 684.14 400.86 684.14C402.77 684.15 404.31 687.12 404.31 690.77Z" fill="white"/>
</g>
<path d="M414.94 664.67H394.39C392.2 664.67 390.42 662.89 390.42 660.7V659.57C390.42 657.38 392.2 655.6 394.39 655.6H414.94C417.13 655.6 418.91 657.38 418.91 659.57V660.7C418.91 662.9 417.13 664.67 414.94 664.67Z" stroke="#0D2232" stroke-width="4" stroke-miterlimit="10" stroke-linecap="round" stroke-linejoin="round"/>
<path d="M413.281 664.67H396.141V671.75H413.281V664.67Z" stroke="#0D2232" stroke-width="4" stroke-miterlimit="10" stroke-linecap="round" stroke-linejoin="round"/>
<path d="M406.44 716.23H402.89C396 716.23 390.42 710.65 390.42 703.76V675.9C390.42 673.61 392.27 671.76 394.56 671.76H414.77C417.06 671.76 418.91 673.61 418.91 675.9V703.76C418.91 710.64 413.33 716.23 406.44 716.23Z" stroke="#0D2232" stroke-width="4" stroke-miterlimit="10" stroke-linecap="round" stroke-linejoin="round"/>
<path d="M414.601 616.9L412.291 624.08H409.301V655.61H400.361V624.08H397.381L395.061 616.9L398.701 596.36H410.961L414.601 616.9Z" stroke="#0D2232" stroke-width="4" stroke-miterlimit="10" stroke-linecap="round" stroke-linejoin="round"/>
<path d="M429.93 658.93V717.09C429.93 717.09 418.34 734.45 395.82 734.45C373.3 734.45 357.2 734.45 357.2 734.45L350.44 725.77C350.44 725.77 344.97 684.95 344.33 669.2C344.32 669.2 406.11 670.85 429.93 658.93Z" fill="#FEC400"/>
<path d="M424.66 661.15V704.81C424.66 712.24 420.46 719.05 413.78 722.31C402.79 727.68 382.76 732.8 350.45 725.78L357.21 734.46L399.21 734.7C399.21 734.7 420.93 731.89 429.94 717.1V658.94L424.66 661.15Z" fill="#E89F02"/>
<path d="M429.93 658.93V713.29C429.93 716 428.9 718.6 427.06 720.58C422.34 725.65 411.85 734.44 395.82 734.44H362.42C359.13 734.44 356.02 732.92 354 730.32L352.23 728.05C351.06 726.55 350.31 724.76 350.07 722.88C348.82 713.3 344.88 682.41 344.34 669.19C344.32 669.2 406.11 670.85 429.93 658.93Z" stroke="#0D2232" stroke-width="4" stroke-miterlimit="10" stroke-linecap="round" stroke-linejoin="round"/>
<path d="M429.93 674.02C429.93 674.02 410.21 690.92 345.85 684.49" stroke="#0D2232" stroke-width="4" stroke-miterlimit="10" stroke-linecap="round" stroke-linejoin="round"/>
<path d="M412.988 795.609L486.418 795.609L486.418 774.109L412.988 774.109L412.988 795.609Z" stroke="#0D2232" stroke-width="6" stroke-miterlimit="10" stroke-linecap="round" stroke-linejoin="round"/>
</svg>
