<svg width="486" height="719" viewBox="0 0 486 719" fill="none" xmlns="http://www.w3.org/2000/svg">
<g clip-path="url(#clip0_344_4381)">
<path d="M191.12 448.48L40.96 269.48L85.59 232.66L235.24 412.62L191.12 448.48Z" fill="#FBC6A6"/>
<path opacity="0.16" d="M81.9502 236.55L231.6 416.51" stroke="black" stroke-width="6" stroke-miterlimit="10"/>
<path opacity="0.5" d="M46.4302 267.73L196.08 447.69" stroke="white" stroke-width="6" stroke-miterlimit="10"/>
<path d="M191.12 448.48L40.96 269.48L85.59 232.66L235.24 412.62L191.12 448.48Z" stroke="#0D2232" stroke-width="6" stroke-miterlimit="10" stroke-linecap="round" stroke-linejoin="round"/>
<path d="M87.1001 229.87C87.1001 229.87 101.57 193.52 86.0901 179.68C70.6101 165.84 63.2401 166.71 63.2401 166.71C63.2401 166.71 49.3901 150.89 32.6801 165.21C32.6801 165.21 18.7601 159.79 11.5901 176.49C11.5901 176.49 -1.68987 185.83 0.760126 203.32C3.21013 220.8 18.8701 245.19 27.8101 246.6C36.7501 248.01 41.8001 265.09 40.9601 269.5C40.9601 269.48 77.2001 250.27 87.1001 229.87Z" fill="#FBC6A6"/>
<path opacity="0.16" d="M77.5302 242.84C77.5302 242.84 101.23 204.79 76.4502 172.11" stroke="black" stroke-width="6" stroke-miterlimit="10"/>
<path opacity="0.5" d="M45.0503 267.66C45.0503 267.66 46.4803 246.55 31.9903 242.92C17.5003 239.29 -3.73972 201.88 11.5903 176.47" stroke="white" stroke-width="6" stroke-miterlimit="10"/>
<path d="M87.1001 229.87C87.1001 229.87 101.57 193.52 86.0901 179.68C70.6101 165.84 63.2401 166.71 63.2401 166.71C63.2401 166.71 49.3901 150.89 32.6801 165.21C32.6801 165.21 18.7601 159.79 11.5901 176.49C11.5901 176.49 -1.68987 185.83 0.760126 203.32C3.21013 220.8 18.8701 245.19 27.8101 246.6C36.7501 248.01 41.8001 265.09 40.9601 269.5C40.9601 269.48 77.2001 250.27 87.1001 229.87Z" stroke="#0D2232" stroke-width="6" stroke-miterlimit="10" stroke-linecap="round" stroke-linejoin="round"/>
<path d="M63.2502 166.71C63.2502 166.71 56.4302 181.31 67.9002 198.54" stroke="#0D2232" stroke-width="6" stroke-miterlimit="10" stroke-linecap="round" stroke-linejoin="round"/>
<path d="M32.6802 165.2C32.6802 165.2 46.5302 183.44 47.0902 194.4C47.6502 205.36 42.9802 209.02 42.9802 209.02" stroke="#0D2232" stroke-width="6" stroke-miterlimit="10" stroke-linecap="round" stroke-linejoin="round"/>
<path d="M11.5903 176.48C11.5903 176.48 35.9503 193.27 30.7703 208.49" stroke="#0D2232" stroke-width="6" stroke-miterlimit="10" stroke-linecap="round" stroke-linejoin="round"/>
<path d="M114.36 363.21L96.6499 341.32L137.99 307.08L149.17 297.82L167.03 318.59L155.24 328.57L114.36 363.21Z" fill="#435F84"/>
<path opacity="0.21" d="M155.24 328.57L155.2 328.55L137.99 307.08L149.17 297.82L167.03 318.59L155.24 328.57Z" fill="white"/>
<path d="M193.39 355.69L169.44 424.43L117.85 359.94L155.2 328.55L163 322L193.39 355.69Z" fill="#F9DC1B"/>
<path opacity="0.5" d="M193.39 355.69L189.86 365.82L155.2 328.55L163 322L193.39 355.69Z" fill="white"/>
<path d="M180.41 392.94L140.42 340.97L117.85 359.94L169.44 424.43L180.41 392.94Z" fill="#E89F02"/>
<path d="M167.03 318.59L114.36 363.21L96.6401 341.33L149.17 297.82L167.03 318.59Z" stroke="#0D2232" stroke-width="6" stroke-miterlimit="10" stroke-linecap="round" stroke-linejoin="round"/>
<path d="M193.39 355.69L163 322L117.85 359.94L169.44 424.43L193.39 355.69Z" stroke="#0D2232" stroke-width="6" stroke-miterlimit="10"/>
<path d="M294.98 448.48L445.06 269.48L400.46 232.66L250.89 412.62L294.98 448.48Z" fill="#FBC6A6"/>
<path opacity="0.16" d="M404.1 236.55L254.53 416.51" stroke="black" stroke-width="6" stroke-miterlimit="10"/>
<path opacity="0.5" d="M439.6 267.73L290.03 447.69" stroke="white" stroke-width="6" stroke-miterlimit="10"/>
<path d="M294.98 448.48L445.06 269.48L400.46 232.66L250.89 412.62L294.98 448.48Z" stroke="#0D2232" stroke-width="6" stroke-miterlimit="10" stroke-linecap="round" stroke-linejoin="round"/>
<path d="M398.94 229.87C398.94 229.87 384.48 193.52 399.95 179.68C415.42 165.84 422.79 166.71 422.79 166.71C422.79 166.71 436.63 150.89 453.34 165.21C453.34 165.21 467.25 159.79 474.42 176.49C474.42 176.49 487.69 185.83 485.25 203.32C482.8 220.8 467.15 245.19 458.21 246.6C449.27 248.01 444.23 265.09 445.07 269.5C445.06 269.48 408.84 250.27 398.94 229.87Z" fill="#FBC6A6"/>
<path opacity="0.16" d="M408.51 242.84C408.51 242.84 384.82 204.79 409.59 172.11" stroke="black" stroke-width="6" stroke-miterlimit="10"/>
<path opacity="0.5" d="M440.98 267.66C440.98 267.66 439.55 246.55 454.03 242.92C468.51 239.29 489.74 201.88 474.41 176.47" stroke="white" stroke-width="6" stroke-miterlimit="10"/>
<path d="M398.94 229.87C398.94 229.87 384.48 193.52 399.95 179.68C415.42 165.84 422.79 166.71 422.79 166.71C422.79 166.71 436.63 150.89 453.34 165.21C453.34 165.21 467.25 159.79 474.42 176.49C474.42 176.49 487.69 185.83 485.25 203.32C482.8 220.8 467.15 245.19 458.21 246.6C449.27 248.01 444.23 265.09 445.07 269.5C445.06 269.48 408.84 250.27 398.94 229.87Z" stroke="#0D2232" stroke-width="6" stroke-miterlimit="10" stroke-linecap="round" stroke-linejoin="round"/>
<path d="M422.79 166.71C422.79 166.71 429.61 181.31 418.15 198.54" stroke="#0D2232" stroke-width="6" stroke-miterlimit="10" stroke-linecap="round" stroke-linejoin="round"/>
<path d="M453.34 165.2C453.34 165.2 439.5 183.44 438.94 194.4C438.38 205.36 443.05 209.02 443.05 209.02" stroke="#0D2232" stroke-width="6" stroke-miterlimit="10" stroke-linecap="round" stroke-linejoin="round"/>
<path d="M474.41 176.48C474.41 176.48 450.07 193.27 455.24 208.49" stroke="#0D2232" stroke-width="6" stroke-miterlimit="10" stroke-linecap="round" stroke-linejoin="round"/>
<path d="M371.71 362.21L389.41 340.32L348.09 306.08L336.91 296.82L319.06 317.59L330.84 327.57L371.71 362.21Z" fill="#435F84"/>
<path opacity="0.21" d="M330.84 327.57L330.89 327.55L348.09 306.08L336.91 296.82L319.06 317.59L330.84 327.57Z" fill="white"/>
<path d="M292.71 354.69L316.65 423.43L368.22 358.94L330.89 327.55L323.09 321L292.71 354.69Z" fill="#F9DC1B"/>
<path opacity="0.5" d="M292.71 354.69L296.24 364.82L330.89 327.55L323.09 321L292.71 354.69Z" fill="white"/>
<path d="M305.69 391.94L345.66 339.97L368.22 358.94L316.65 423.43L305.69 391.94Z" fill="#E89F02"/>
<path d="M319.06 317.59L371.71 362.21L389.41 340.33L336.91 296.82L319.06 317.59Z" stroke="#0D2232" stroke-width="6" stroke-miterlimit="10" stroke-linecap="round" stroke-linejoin="round"/>
<path d="M292.72 354.69L323.09 321L368.22 358.94L316.65 423.43L292.72 354.69Z" stroke="#0D2232" stroke-width="6" stroke-miterlimit="10"/>
<path d="M155.988 653.609L229.418 653.609L229.418 632.109L155.988 632.109L155.988 653.609Z" fill="#435F84" stroke="#0D2232" stroke-width="6" stroke-miterlimit="10" stroke-linecap="round" stroke-linejoin="round"/>
<path d="M366.9 592.45V633.39L386.18 653.63L404.83 633.39L404.79 532.57H389.68L366.9 592.45Z" fill="#AFCADC"/>
<path d="M385.86 629.47C389.853 629.47 393.09 626.233 393.09 622.24C393.09 618.247 389.853 615.01 385.86 615.01C381.867 615.01 378.63 618.247 378.63 622.24C378.63 626.233 381.867 629.47 385.86 629.47Z" stroke="#0D2232" stroke-width="4" stroke-miterlimit="10" stroke-linecap="round" stroke-linejoin="round"/>
<path opacity="0.2" d="M404.83 533.66H398.18V629.47L386.25 641.4L373.82 628.97V539.92L366.9 540.38V633.39L386.67 653.15L405.63 634.19L404.83 533.66Z" fill="black"/>
<path d="M366.9 592.45V633.39L386.18 653.63L404.83 633.39V533.66H389.72L366.9 592.45Z" stroke="#0D2232" stroke-width="4" stroke-miterlimit="10" stroke-linecap="round" stroke-linejoin="round"/>
<path d="M386.77 142.08C386.77 142.08 380.79 147.43 354.37 149.63C327.94 151.83 141.98 157.42 141.98 157.42L130.53 151.83C130.53 151.83 104.22 150.38 100.49 142.08C96.7602 133.78 190.56 100.87 190.56 100.87L309.07 97.25L336.13 108.02L386.77 142.08Z" fill="#CFB300"/>
<path d="M386.77 142.08C386.77 142.08 380.79 147.43 354.37 149.63C327.94 151.83 141.98 157.42 141.98 157.42L130.53 151.83C130.53 151.83 104.22 150.38 100.49 142.08C96.7602 133.78 190.56 100.87 190.56 100.87L309.07 97.25L336.13 108.02L386.77 142.08Z" stroke="#0D2232" stroke-width="6" stroke-miterlimit="10" stroke-linecap="round" stroke-linejoin="round"/>
<path d="M131.57 190.85C131.57 190.85 101.38 194.47 105.15 229.39C108.92 264.31 152.41 257.02 152.41 257.02L148.67 206.89L131.57 190.85Z" fill="#FBC6A6" stroke="#0D2232" stroke-width="6" stroke-miterlimit="10"/>
<path d="M363.17 190.85C363.17 190.85 386.14 194.63 387.87 220.11C389.6 245.59 361.26 268.1 339.09 259.2C316.92 250.31 333.28 212.24 333.28 212.24L363.17 190.85Z" fill="#FBC6A6" stroke="#0D2232" stroke-width="6" stroke-miterlimit="10"/>
<path opacity="0.4" d="M361.13 205.95C361.13 205.95 373.06 212.27 367.97 226.01C360.85 245.26 346.34 239.92 346.34 239.92L350.74 216.01L361.13 205.95Z" fill="black"/>
<path opacity="0.4" d="M127.19 205.95C127.19 205.95 115.26 212.27 120.35 226.01C127.47 245.26 141.98 239.92 141.98 239.92L137.58 216.01L127.19 205.95Z" fill="black"/>
<path d="M349.55 194.62V223.29C349.55 223.29 349.29 228.26 347.47 235.95C343.39 253.19 331.48 284.11 297.11 303.47C292.22 306.22 287.3 308.51 282.37 310.37C268.05 315.78 253.71 317.61 240.04 316.85C210.59 315.21 184.33 301.54 168.44 285.85C142.64 260.37 141.07 221.53 141.07 221.53V167.25L171.59 130.44L328.34 132.33L347.66 154.98L349.55 194.62Z" fill="#FBC6A6"/>
<path opacity="0.5" d="M188.06 289.89C208.38 304.55 227.43 312.04 242.05 315.86C212.6 314.22 186.34 300.55 170.45 284.86C144.65 259.38 143.08 220.54 143.08 220.54V210.94L151.54 204.32C151.53 204.32 144.02 258.11 188.06 289.89Z" fill="white"/>
<path opacity="0.5" d="M344.47 235.95C340.39 253.19 328.48 284.11 294.11 303.47C289.22 306.22 284.3 308.51 279.37 310.37C296.86 296.74 325.33 271.61 334.06 246.63C337.02 238.18 340.64 235.31 344.47 235.95Z" fill="white"/>
<path d="M386.77 142.08C386.77 142.08 375.76 137.99 360.97 137.99C346.18 137.99 126.13 137.99 126.13 137.99C126.13 137.99 106.15 137.2 100.49 142.08V128.4C100.49 123.1 104.79 118.8 110.09 118.8H377.18C382.48 118.8 386.78 123.1 386.78 128.4V142.08H386.77Z" fill="#F9DC1B"/>
<path d="M371.54 118.8C371.54 118.91 371.54 118.96 371.54 118.96H243.5V118.8H115.46C115.46 118.8 115.46 118.77 115.46 118.72C115.42 117.67 115.01 107.23 115.46 102.45C115.93 97.41 120.02 97.26 120.02 97.26C120.02 97.26 127.1 34.5 198.51 13.74C198.51 13.74 197.88 1.14999 209.52 -0.100006C221.16 -1.36001 243.5 -2.92999 243.5 -2.92999V-2.77C243.5 -2.77 265.83 -1.2 277.47 0.0599976C289.11 1.32 288.48 13.9 288.48 13.9C359.89 34.66 366.97 97.42 366.97 97.42C366.97 97.42 371.06 97.58 371.53 102.61C371.98 107.28 371.6 117.41 371.54 118.8Z" fill="#F9DC1B"/>
<path opacity="0.73" d="M371.54 118.8H360.66C360.66 118.8 355.15 54.62 288.62 22.53L288.58 15.27C288.58 15.27 236.41 -1.07 198.39 16.55L198.87 26.94C198.87 26.94 139.82 43.29 125.35 118.48L115.46 118.71C115.42 117.66 115.01 107.22 115.46 102.44C115.93 97.4 120.02 97.25 120.02 97.25C120.02 97.25 127.1 34.49 198.51 13.73C198.51 13.73 197.88 1.14 209.52 -0.110001C221.16 -1.37 243.5 -2.94 243.5 -2.94V-2.78C243.5 -2.78 265.83 -1.21 277.47 0.0500031C289.11 1.31 288.48 13.89 288.48 13.89C359.89 34.65 366.97 97.41 366.97 97.41C366.97 97.41 371.06 97.57 371.53 102.6C371.98 107.28 371.6 117.41 371.54 118.8Z" fill="white"/>
<path d="M371.54 102.6C371.07 97.57 366.98 97.41 366.98 97.41C366.98 97.41 359.9 34.65 288.49 13.89C288.49 13.89 289.12 1.31 277.48 0.0500031C265.84 -1.21 243.5 -2.78 243.5 -2.78V-2.94C243.5 -2.94 221.16 -1.37 209.52 -0.110001C197.88 1.15 198.51 13.73 198.51 13.73C127.1 34.49 120.02 97.25 120.02 97.25C120.02 97.25 115.93 97.41 115.46 102.44C114.99 107.47 115.46 118.8 115.46 118.8H243.5V118.96H371.54C371.54 118.96 372.01 107.64 371.54 102.6Z" stroke="#0D2232" stroke-width="6" stroke-miterlimit="10" stroke-linecap="round" stroke-linejoin="round"/>
<path d="M287.86 326.86H318.19V492.54H168.44V326.86H287.86Z" fill="white"/>
<path d="M291.66 333.67H198.12V434.55H291.66V333.67Z" fill="#F9DC1B"/>
<path d="M318.19 455.73H168.44V492.54H318.19V455.73Z" fill="#F9DC1B"/>
<path d="M269.64 314.8C269.64 314.8 240.26 321.09 220.24 314.8L213.32 345.74L231.57 352.55C231.57 352.55 243.64 357.58 258.32 352.55C273 347.52 277.62 332.84 277.62 332.84L269.64 314.8Z" fill="#FBC6A6" stroke="#0D2232" stroke-width="6" stroke-miterlimit="10"/>
<path d="M288.68 348.83C287.89 360.68 285.99 371.64 285.99 371.64L258.3 352.55C258.3 352.55 261.47 345.04 264.08 337.6C265.6 333.25 266.94 328.91 267.32 326.12C268.37 318.57 269.63 314.8 269.63 314.8C269.63 314.8 285.78 313.96 288.29 328.85C289.24 334.41 289.16 341.77 288.68 348.83Z" fill="#435F84"/>
<path d="M288.68 348.83C281.55 348.3 273.25 344.75 268.97 341.71C267.25 340.48 265.57 339.12 264.08 337.6C265.6 333.25 266.94 328.91 267.32 326.12C268.37 318.57 269.63 314.8 269.63 314.8C269.63 314.8 285.78 313.96 288.29 328.85C289.24 334.41 289.16 341.77 288.68 348.83Z" fill="#253B5A"/>
<path d="M269.64 314.8C269.64 314.8 285.79 313.96 288.31 328.85C290.83 343.74 286 371.63 286 371.63L258.32 352.54C258.32 352.54 266.29 333.66 267.34 326.11C268.39 318.56 269.64 314.8 269.64 314.8Z" stroke="#0D2232" stroke-width="6" stroke-miterlimit="10"/>
<path d="M201.19 348.83C201.98 360.68 203.88 371.64 203.88 371.64L231.57 352.55C231.57 352.55 228.4 345.04 225.79 337.6C224.27 333.25 222.93 328.91 222.55 326.12C221.5 318.57 220.24 314.8 220.24 314.8C220.24 314.8 204.09 313.96 201.58 328.85C200.63 334.41 200.71 341.77 201.19 348.83Z" fill="#435F84"/>
<path d="M201.19 348.83C208.32 348.3 216.62 344.75 220.9 341.71C222.62 340.48 224.3 339.12 225.79 337.6C224.27 333.25 222.93 328.91 222.55 326.12C221.5 318.57 220.24 314.8 220.24 314.8C220.24 314.8 204.09 313.96 201.58 328.85C200.63 334.41 200.71 341.77 201.19 348.83Z" fill="#253B5A"/>
<path d="M220.24 314.8C220.24 314.8 204.09 313.96 201.57 328.85C199.05 343.74 203.88 371.63 203.88 371.63L231.56 352.54C231.56 352.54 223.59 333.66 222.54 326.11C221.49 318.56 220.24 314.8 220.24 314.8Z" stroke="#0D2232" stroke-width="6" stroke-miterlimit="10"/>
<path d="M223.08 386.31H184.07V421.96H223.08V386.31Z" fill="#F9DC1B" stroke="#0D2232" stroke-width="6" stroke-miterlimit="10"/>
<path d="M223.08 400.37H184.07" stroke="#0D2232" stroke-width="6" stroke-miterlimit="10"/>
<path d="M288.49 13.89C288.49 13.89 289.59 24.43 285.34 45.98Z" fill="#F9DC1B"/>
<path d="M288.49 13.89C288.49 13.89 289.59 24.43 285.34 45.98" stroke="#0D2232" stroke-width="6" stroke-miterlimit="10" stroke-linecap="round" stroke-linejoin="round"/>
<path d="M366.98 97.41H334.55C331.12 97.41 328.34 100.19 328.34 103.62V118.96" stroke="#0D2232" stroke-width="6" stroke-miterlimit="10" stroke-linecap="round" stroke-linejoin="round"/>
<path d="M198.51 13.73C198.51 13.73 197.41 24.27 201.66 45.82Z" fill="#F9DC1B"/>
<path d="M198.51 13.73C198.51 13.73 197.41 24.27 201.66 45.82" stroke="#0D2232" stroke-width="6" stroke-miterlimit="10" stroke-linecap="round" stroke-linejoin="round"/>
<path d="M120.02 97.25H152.45C155.88 97.25 158.66 100.03 158.66 103.46V118.8" stroke="#0D2232" stroke-width="6" stroke-miterlimit="10" stroke-linecap="round" stroke-linejoin="round"/>
<path opacity="0.74" d="M373.39 128.19C366.93 125.73 359.83 125.78 352.93 125.85C302.48 126.39 252.03 126.92 201.58 127.46C179.16 127.7 156.75 127.94 134.33 128.18C124.38 128.29 113.22 128.91 106.52 136.25C105.2 137.7 103.91 139.48 101.97 139.77C99.0102 140.22 96.8203 136.78 96.7603 133.79C96.6403 128.18 100.96 123.23 106.06 120.87C111.16 118.52 116.94 118.24 122.55 118.05C205.65 115.22 288.99 123.29 371.91 117.16C376.7 116.81 382.36 116.78 385.23 120.64C386.81 122.77 387.07 125.58 387.28 128.23C387.48 130.9 389.66 140.86 384.29 137.05C382.55 135.82 381.35 133.13 379.55 131.69C377.71 130.22 375.6 128.96 373.39 128.19Z" fill="white"/>
<path d="M386.77 142.08C386.77 142.08 375.76 137.99 360.97 137.99C346.18 137.99 126.13 137.99 126.13 137.99C126.13 137.99 106.15 137.2 100.49 142.08V128.4C100.49 123.1 104.79 118.8 110.09 118.8H377.18C382.48 118.8 386.78 123.1 386.78 128.4V142.08H386.77Z" stroke="#0D2232" stroke-width="6" stroke-miterlimit="10" stroke-linecap="round" stroke-linejoin="round"/>
<path d="M149.49 172.08C149.49 172.08 148.95 201.07 149.49 209.41C150.03 217.75 144.37 225.3 135.72 219.48C127.07 213.66 128.75 179.06 128.75 179.06C128.75 179.06 137.73 179.47 149.49 172.08Z" fill="#253B5A" stroke="#0D2232" stroke-width="6" stroke-miterlimit="10"/>
<path d="M196.94 218.47C205.799 218.47 212.98 211.289 212.98 202.43C212.98 193.571 205.799 186.39 196.94 186.39C188.081 186.39 180.9 193.571 180.9 202.43C180.9 211.289 188.081 218.47 196.94 218.47Z" fill="#0D2232"/>
<path d="M291.76 218.47C300.619 218.47 307.8 211.289 307.8 202.43C307.8 193.571 300.619 186.39 291.76 186.39C282.902 186.39 275.72 193.571 275.72 202.43C275.72 211.289 282.902 218.47 291.76 218.47Z" fill="#0D2232"/>
<path d="M316.82 192.44C315.65 191.91 314.65 190.98 314.06 189.72C313.79 189.15 307.62 176.55 292.2 172.33C289.23 171.52 287.49 168.45 288.3 165.49C289.11 162.52 292.18 160.78 295.14 161.59C315.73 167.22 323.83 184.3 324.16 185.02C325.45 187.81 324.23 191.12 321.44 192.41C319.92 193.12 318.24 193.08 316.82 192.44Z" fill="#0D2232"/>
<path d="M172.47 192.55C173.64 192.01 174.63 191.06 175.2 189.8C175.47 189.22 181.5 176.57 196.88 172.18C199.84 171.34 201.55 168.25 200.71 165.29C199.87 162.33 196.78 160.62 193.82 161.46C173.29 167.31 165.38 184.47 165.05 185.2C163.79 188.01 165.04 191.3 167.85 192.57C169.38 193.27 171.05 193.21 172.47 192.55Z" fill="#0D2232"/>
<path d="M293.99 249.87C289.8 257.56 283.64 265.93 274.84 272.09C267.07 277.53 257.24 281.24 244.89 281.24C231.42 281.24 220.99 276.82 212.97 270.57C205.28 264.58 199.81 256.89 196 249.79C192.67 243.56 194.66 236.46 199.53 232.51C201.87 230.61 204.87 229.44 208.26 229.44H281.78C285.17 229.44 288.17 230.61 290.51 232.51C295.39 236.48 297.39 243.64 293.99 249.87Z" fill="#162336"/>
<path d="M273.67 246.64C257.89 246.64 210.49 246.64 210.49 246.64C210.49 246.64 197.86 247.12 199.53 232.51C201.87 230.61 204.87 229.44 208.26 229.44H281.78C285.17 229.44 288.17 230.61 290.51 232.51C290.69 232.66 289.45 246.64 273.67 246.64Z" fill="white"/>
<path d="M274.84 272.09C267.07 277.53 257.24 281.24 244.89 281.24C231.42 281.24 220.99 276.82 212.97 270.57C217.7 260.16 235.21 256.68 252.86 257.65C266.45 258.39 272.36 266.42 274.84 272.09Z" fill="#DD1010"/>
<path d="M208.26 229.44H281.78C292.27 229.44 299.01 240.66 293.99 249.87C286.09 264.36 271.23 281.24 244.89 281.24C218.5 281.24 203.78 264.3 196 249.79C191.07 240.58 197.81 229.44 208.26 229.44Z" stroke="#0D2232" stroke-width="6" stroke-miterlimit="10"/>
<path d="M318.19 492.54H168.44V526.41H318.19V492.54Z" fill="#253B5A" stroke="#0D2232" stroke-width="6" stroke-miterlimit="10"/>
<path d="M269.01 492.54H221.61V526.41H269.01V492.54Z" fill="#C3CDD4" stroke="#0D2232" stroke-width="6" stroke-miterlimit="10"/>
<path d="M387.01 703H390.37C391.99 703 393.31 704.31 393.31 705.94V714.59C393.31 716.99 391.36 718.94 388.96 718.94H312.57L296.95 708.45V718.94H258.2C255.8 718.94 253.85 716.99 253.85 714.59V698.13C253.85 695.84 255.71 693.98 258 693.99H259.44L361.07 693.1L387.01 703Z" fill="#484D60" stroke="#0D2232" stroke-width="6" stroke-miterlimit="10" stroke-linecap="round" stroke-linejoin="round"/>
<path d="M388.58 699.23L387.01 703H317.01L298.92 693.98H259.42C259.42 693.98 257.61 685.28 259.13 674.5C260.07 667.81 262.3 660.32 267.04 653.61H327.23L331.95 658.65C331.95 658.65 340.44 658.96 341.07 666.83C341.07 666.83 342.56 666.08 345.13 665.26C350.2 663.64 359.46 661.71 369.7 664.63C385.12 669.03 392.36 688.85 388.58 699.23Z" fill="#E89F02"/>
<path d="M282.56 693.99H259.42C259.42 693.99 257.61 685.29 259.13 674.51C259.22 674.5 259.32 674.5 259.42 674.49C282.52 673.33 282.56 693.99 282.56 693.99Z" fill="#834526"/>
<path opacity="0.75" d="M388.58 699.23L387.01 703H376.94C376.94 703 385.9 670.71 345.14 665.25C350.21 663.63 359.47 661.7 369.71 664.62C385.12 669.03 392.36 688.85 388.58 699.23Z" fill="white"/>
<path d="M327.23 653.61L331.95 658.64C331.95 658.64 340.44 658.95 341.07 666.82C341.07 666.82 354.28 660.21 369.7 664.62C385.12 669.02 392.35 688.84 388.58 699.23L387.01 703.01H317.01L298.92 693.99H259.42C259.42 693.99 254.67 671.13 267.04 653.62H327.23V653.61Z" stroke="#0D2232" stroke-width="6" stroke-miterlimit="10" stroke-linecap="round" stroke-linejoin="round"/>
<path d="M341.08 666.83C341.08 666.83 320.84 673.44 317.01 703.01" stroke="#0D2232" stroke-width="6" stroke-miterlimit="10" stroke-linecap="round" stroke-linejoin="round"/>
<path d="M331.95 658.65C331.95 658.65 317.79 661.48 312.55 674.48" stroke="#0D2232" stroke-width="6" stroke-miterlimit="10" stroke-linecap="round" stroke-linejoin="round"/>
<path d="M331.95 632.12H258.52V653.62H331.95V632.12Z" fill="#435F84" stroke="#0D2232" stroke-width="6" stroke-miterlimit="10" stroke-linecap="round" stroke-linejoin="round"/>
<path d="M325.35 632.12L316.85 526.41H243.97V546.97L253.83 546.34L264.31 632.12H325.35Z" fill="#435F84" stroke="#0D2232" stroke-width="6" stroke-miterlimit="10" stroke-linecap="round" stroke-linejoin="round"/>
<path d="M100.94 703H97.5801C95.9601 703 94.6401 704.31 94.6401 705.94V714.59C94.6401 716.99 96.5901 718.94 98.9901 718.94H175.38L191 708.45V718.94H229.75C232.15 718.94 234.1 716.99 234.1 714.59V698.13C234.1 695.84 232.24 693.98 229.95 693.99H228.51L126.88 693.1L100.94 703Z" fill="#484D60" stroke="#0D2232" stroke-width="6" stroke-miterlimit="10" stroke-linecap="round" stroke-linejoin="round"/>
<path d="M99.3602 699.23L100.93 703H170.93L189.02 693.98H228.52C228.52 693.98 230.33 685.28 228.81 674.5C227.87 667.81 225.64 660.32 220.9 653.61H160.71L155.99 658.65C155.99 658.65 147.5 658.96 146.87 666.83C146.87 666.83 145.38 666.08 142.81 665.26C137.74 663.64 128.48 661.71 118.24 664.63C102.82 669.03 95.5902 688.85 99.3602 699.23Z" fill="#E89F02"/>
<path d="M205.38 693.99H228.52C228.52 693.99 230.33 685.29 228.81 674.51C228.72 674.5 228.62 674.5 228.52 674.49C205.42 673.33 205.38 693.99 205.38 693.99Z" fill="#834526"/>
<path opacity="0.75" d="M99.3602 699.23L100.93 703H111C111 703 102.04 670.71 142.8 665.25C137.73 663.63 128.47 661.7 118.23 664.62C102.82 669.03 95.5902 688.85 99.3602 699.23Z" fill="white"/>
<path d="M160.71 653.61L155.99 658.64C155.99 658.64 147.5 658.95 146.87 666.82C146.87 666.82 133.66 660.21 118.24 664.62C102.82 669.02 95.5902 688.84 99.3602 699.23L100.93 703.01H170.93L189.02 693.99H228.52C228.52 693.99 233.27 671.13 220.9 653.62H160.71V653.61Z" stroke="#0D2232" stroke-width="6" stroke-miterlimit="10" stroke-linecap="round" stroke-linejoin="round"/>
<path d="M146.87 666.83C146.87 666.83 167.11 673.44 170.94 703.01" stroke="#0D2232" stroke-width="6" stroke-miterlimit="10" stroke-linecap="round" stroke-linejoin="round"/>
<path d="M155.99 658.65C155.99 658.65 170.15 661.48 175.39 674.48" stroke="#0D2232" stroke-width="6" stroke-miterlimit="10" stroke-linecap="round" stroke-linejoin="round"/>
<path d="M162.6 632.12L171.09 526.41H243.97V546.97L234.11 546.34L223.63 632.12H162.6Z" fill="#435F84" stroke="#0D2232" stroke-width="6" stroke-miterlimit="10" stroke-linecap="round" stroke-linejoin="round"/>
<g opacity="0.16">
<path d="M148.36 137.99H349.55L354.37 149.63H141.98L148.36 137.99Z" fill="black"/>
<path d="M128.75 179.06C128.75 179.06 164.37 187.84 200.02 149.64L168.44 144.85L128.75 179.06Z" fill="black"/>
<path d="M215.95 176.37C215.95 176.37 269.1 185.19 303.17 143.81L273.67 144.84L215.95 176.37Z" fill="black"/>
</g>
<path opacity="0.16" d="M346.35 202.43C346.35 202.43 329.05 299.81 225.79 312.33C225.79 312.33 333.92 327.69 347.29 223.24L346.35 202.43Z" fill="black"/>
<path d="M312.17 474.14H174.36V486.43H312.17V474.14Z" fill="#E89F02"/>
<path d="M288.28 326.86H318.72V492.54H168.44V326.86H198.22" stroke="#0D2232" stroke-width="6" stroke-miterlimit="10"/>
<path d="M181.34 137.99C181.34 137.99 154.28 184.24 122.19 178.57C119.28 178.05 116.66 177.47 114.33 176.85C90.9801 170.57 95.1401 159.44 95.1401 159.44C95.1401 159.44 114.66 164.8 128.17 139.81C128.49 139.22 128.8 138.62 129.11 138H181.34V137.99Z" fill="#253B5A"/>
<path opacity="0.21" d="M120.02 161.9C111.03 167.4 107.41 167.25 107.41 167.25C107.41 167.25 106.31 171.82 114.33 176.85C90.9801 170.57 95.1401 159.44 95.1401 159.44C95.1401 159.44 117.02 162.98 130.53 137.99C130.55 138.33 128.92 156.46 120.02 161.9Z" fill="white"/>
<path d="M393.69 163.79C393.69 163.79 380.33 184.52 357.02 179.81C343.67 177.11 327.05 166.06 307.8 138L365.36 138.12C365.36 138.12 365.54 141.01 366.76 144.85C369.22 152.52 375.87 164 393.69 163.79Z" fill="#253B5A"/>
<path opacity="0.21" d="M393.69 163.79C393.69 163.79 380.33 184.52 357.02 179.81C359.68 179.05 362.26 177.96 364.73 176.73C369.71 174.24 374.37 171.15 379.32 168.6C373.82 168.34 368.92 164.28 366.76 159.21C365.24 155.63 364.18 149.66 365.92 145.97C366.15 145.48 366.45 145.11 366.78 144.86C369.22 152.52 375.87 164 393.69 163.79Z" fill="white"/>
<path d="M365.37 138.11C365.37 138.11 366.95 164.1 393.69 163.79C393.69 163.79 360.66 215.07 307.81 137.99L365.37 138.11Z" stroke="#0D2232" stroke-width="6" stroke-miterlimit="10" stroke-linecap="round" stroke-linejoin="round"/>
<path d="M281.07 137.99C281.07 137.99 268.8 171.34 215.95 176.37C215.95 176.37 225.07 160.01 225.07 137.99H281.07Z" fill="#253B5A" stroke="#0D2232" stroke-width="6" stroke-miterlimit="10" stroke-linecap="round" stroke-linejoin="round"/>
<path d="M181.34 137.99C181.34 137.99 154.28 184.24 122.2 178.57C90.1202 172.9 95.1402 159.43 95.1402 159.43C95.1402 159.43 115.59 165.04 129.12 137.98H181.34V137.99Z" stroke="#0D2232" stroke-width="6" stroke-miterlimit="10" stroke-linecap="round" stroke-linejoin="round"/>
<path d="M349.55 223.29C349.55 223.29 346.82 275.47 297.11 303.47C247.4 331.47 194.24 311.33 168.44 285.85C142.64 260.37 141.07 221.53 141.07 221.53" stroke="#0D2232" stroke-width="6" stroke-miterlimit="10"/>
<path d="M363.17 180.5C363.17 180.5 362.7 207.21 361.6 212.4C360.5 217.59 355.94 224.04 347.29 223.25C338.64 222.46 338.95 211.3 338.8 203.43C338.64 195.57 338.8 171.54 338.8 171.54C338.8 171.54 350.59 180.85 363.17 180.5Z" fill="#253B5A" stroke="#0D2232" stroke-width="6" stroke-miterlimit="10" stroke-linecap="round" stroke-linejoin="round"/>
<path d="M261.81 526.41L284.66 653.61H267.04H258.52V632.12H264.31L253.83 543L243.97 546.97V526.41H261.81Z" fill="#253B5A"/>
<path d="M207.81 632.12L203.57 653.61H229.42V632.12H223.63L234.11 543L243.97 546.97V526.41H221.61L207.81 632.12Z" fill="#253B5A"/>
<path d="M253.83 546.34L266.2 544.87" stroke="#0D2232" stroke-width="6" stroke-miterlimit="10" stroke-linecap="round" stroke-linejoin="round"/>
<path d="M234.11 546.34L221.74 544.87" stroke="#0D2232" stroke-width="6" stroke-miterlimit="10" stroke-linecap="round" stroke-linejoin="round"/>
<path d="M316.85 526.41H303.38L312.55 632.12H318.72V653.61H331.95V632.12H325.35L316.85 526.41Z" fill="#C3CDD4"/>
<path d="M171.75 526.41H185.22L176.05 632.12H169.88V653.61H156.65V632.12H163.25L171.75 526.41Z" fill="#C3CDD4"/>
<path d="M331.95 632.12H258.52V653.62H331.95V632.12Z" stroke="#0D2232" stroke-width="6" stroke-miterlimit="10" stroke-linecap="round" stroke-linejoin="round"/>
<path d="M325.35 632.12L316.85 526.41H243.97V546.97L253.83 546.34L264.31 632.12H325.35Z" stroke="#0D2232" stroke-width="6" stroke-miterlimit="10" stroke-linecap="round" stroke-linejoin="round"/>
<path d="M162.6 632.12L171.09 526.41H243.97V546.97L234.11 546.34L223.63 632.12H162.6Z" stroke="#0D2232" stroke-width="6" stroke-miterlimit="10" stroke-linecap="round" stroke-linejoin="round"/>
<path d="M394.83 539.09H377.63V604.23H394.83V539.09Z" fill="#E89F02"/>
<path d="M484.27 518.34V528.68C484.27 531.43 482.03 533.66 479.28 533.66H400.81C398.06 533.66 395.83 531.43 395.83 528.68V518.34C395.83 517.74 395.94 517.16 396.13 516.63C396.82 514.72 398.66 513.35 400.81 513.35H479.28C481.43 513.35 483.27 514.72 483.97 516.63C484.17 517.16 484.27 517.74 484.27 518.34Z" fill="#AFCADC"/>
<path opacity="0.2" d="M395.83 527.58V528.68C395.83 531.43 398.06 533.67 400.81 533.67H479.28C482.03 533.67 484.26 531.44 484.26 528.68V527.58H395.83Z" fill="black"/>
<path opacity="0.7" d="M483.97 516.63H396.13C396.82 514.72 398.66 513.35 400.81 513.35H479.28C481.44 513.35 483.27 514.71 483.97 516.63Z" fill="white"/>
<path d="M484.27 518.34V528.68C484.27 531.43 482.03 533.66 479.28 533.66H400.81C398.06 533.66 395.83 531.43 395.83 528.68V518.34C395.83 517.74 395.94 517.16 396.13 516.63C396.82 514.72 398.66 513.35 400.81 513.35H479.28C481.43 513.35 483.27 514.72 483.97 516.63C484.17 517.16 484.27 517.74 484.27 518.34Z" stroke="#0D2232" stroke-width="4" stroke-miterlimit="10" stroke-linecap="round" stroke-linejoin="round"/>
<path d="M310.33 532.02C310.33 532.02 331.54 548.73 395.83 542.31" stroke="white" stroke-miterlimit="10"/>
<path d="M292.33 492.16V580.88L303.9 592.45H382.97L372.36 584.09L373.01 492.16H292.33Z" fill="#F9DC1B"/>
<path d="M301.97 492.16V575.32L308.72 584.09H389.72L382.97 592.45H303.9L292.33 580.88V492.16H301.97Z" fill="#E89F02"/>
<path d="M304.54 504.52H299.4V509.66H304.54V504.52Z" fill="white"/>
<path d="M304.54 520.93H299.4V526.07H304.54V520.93Z" fill="white"/>
<path d="M304.54 537.35H299.4V542.49H304.54V537.35Z" fill="white"/>
<path d="M304.54 553.76H299.4V558.9H304.54V553.76Z" fill="white"/>
<path d="M304.54 570.17H299.4V575.31H304.54V570.17Z" fill="white"/>
<path d="M373.01 527.2V492.16H292.33V580.88L303.9 592.45H375.9" stroke="#0D2232" stroke-width="4" stroke-miterlimit="10" stroke-linecap="round" stroke-linejoin="round"/>
<path d="M321.89 447.67V464.93C321.89 466.27 320.8 467.36 319.47 467.36H310.1C308.76 467.36 307.67 466.27 307.67 464.93V447.67C307.67 446.33 308.76 445.25 310.1 445.25H319.47C320.8 445.24 321.89 446.33 321.89 447.67Z" fill="#AFCADC"/>
<path d="M319.47 467.53H310.1C308.67 467.53 307.5 466.37 307.5 464.93V447.67C307.5 446.24 308.66 445.08 310.1 445.08H319.47C320.9 445.08 322.06 446.24 322.06 447.67V464.93C322.06 466.36 320.9 467.53 319.47 467.53ZM310.1 445.41C308.86 445.41 307.84 446.42 307.84 447.66V464.92C307.84 466.16 308.85 467.18 310.1 467.18H319.47C320.71 467.18 321.72 466.17 321.72 464.92V447.66C321.72 446.42 320.71 445.41 319.47 445.41H310.1Z" fill="#000072"/>
<g opacity="0.2">
<path d="M321.89 461.1V464.93C321.89 466.27 320.8 467.36 319.47 467.36H310.1C308.76 467.36 307.67 466.27 307.67 464.93V461.1C307.67 462.44 308.76 463.53 310.1 463.53H319.47C320.8 463.52 321.89 462.44 321.89 461.1Z" fill="black"/>
</g>
<g opacity="0.55">
<path d="M321.89 447.67V450.38C321.89 449.04 320.8 447.96 319.47 447.96H310.1C308.76 447.96 307.67 449.05 307.67 450.38V447.67C307.67 446.33 308.76 445.25 310.1 445.25H319.47C320.8 445.24 321.89 446.33 321.89 447.67Z" fill="white"/>
</g>
<path d="M332.34 462.7H321.89V450.43H330.76L332.34 462.7Z" fill="#AFCADC"/>
<path d="M332.53 462.87H321.72V450.26H330.91L332.53 462.87ZM322.06 462.53H332.15L330.61 450.6H322.06V462.53Z" fill="#000072"/>
<path d="M381.5 460.89C381.35 462.64 379.29 463.51 377.96 462.36C370.49 455.94 359.45 459.56 357.2 468.72C356.82 470.25 355.48 471.33 353.91 471.33H336.44C334.74 471.33 333.3 470.07 333.09 468.38L332.36 462.7L330.78 450.43L330.25 446.29C329.99 444.27 331.57 442.47 333.61 442.47H362.26C373.85 442.48 382.27 451.43 381.5 460.89Z" fill="#AFCADC"/>
<path d="M353.9 471.5H336.43C334.65 471.5 333.13 470.17 332.91 468.4L330.06 446.31C329.93 445.3 330.24 444.28 330.92 443.51C331.59 442.74 332.57 442.3 333.59 442.3H362.24C368.07 442.3 373.54 444.61 377.25 448.63C380.47 452.13 382.05 456.48 381.68 460.89C381.61 461.77 381.05 462.53 380.24 462.86C379.42 463.2 378.53 463.05 377.86 462.47C374.39 459.49 369.82 458.52 365.61 459.86C361.49 461.18 358.41 464.5 357.37 468.74C356.96 470.38 355.54 471.5 353.9 471.5ZM333.58 442.65C332.66 442.65 331.78 443.05 331.17 443.74C330.56 444.43 330.28 445.36 330.4 446.27L333.25 468.36C333.46 469.96 334.83 471.16 336.44 471.16H353.91C355.39 471.16 356.68 470.14 357.04 468.68C358.11 464.32 361.27 460.91 365.5 459.55C369.82 458.17 374.52 459.17 378.07 462.22C378.64 462.71 379.4 462.84 380.1 462.55C380.81 462.26 381.27 461.63 381.33 460.87C381.68 456.55 380.14 452.29 376.98 448.87C373.34 444.92 367.96 442.65 362.22 442.65H333.58Z" fill="#000072"/>
<g opacity="0.2">
<path d="M381.5 460.89C381.35 462.64 379.29 463.51 377.96 462.36C370.49 455.94 359.45 459.56 357.2 468.72C356.82 470.25 355.48 471.33 353.91 471.33H336.44C334.74 471.33 333.3 470.07 333.09 468.38L332.91 467.02C333.36 467.24 333.85 467.36 334.38 467.36H351.85C353.42 467.36 354.77 466.27 355.14 464.75C357.39 455.59 368.43 451.96 375.9 458.39C377.23 459.54 379.29 458.67 379.44 456.92C379.62 454.76 379.31 452.62 378.6 450.61C380.71 453.63 381.8 457.22 381.5 460.89Z" fill="black"/>
</g>
<g opacity="0.55">
<path d="M377.43 449.11C374.09 446.46 369.67 444.79 364.66 444.79H336.01C333.97 444.79 332.39 446.58 332.65 448.61L333.18 452.75L334.76 465.02L335.49 470.7C335.51 470.89 335.55 471.07 335.61 471.24C334.28 470.92 333.25 469.8 333.06 468.39L332.33 462.71L330.75 450.44L330.22 446.3C329.96 444.28 331.54 442.48 333.58 442.48H362.23C368.57 442.48 373.96 445.15 377.43 449.11Z" fill="white"/>
</g>
<g opacity="0.55">
<path d="M321.89 450.38H308.24V454.16H321.89V450.38Z" fill="white"/>
</g>
<path d="M353.6 471.33H337.52V512.37H353.6V471.33Z" fill="#435F84" stroke="#0D2232" stroke-width="4" stroke-miterlimit="10" stroke-linecap="round" stroke-linejoin="round"/>
<g opacity="0.2">
<path d="M337.56 478.54C338.03 478.55 338.45 478.72 338.84 478.93C339.23 479.14 339.59 479.41 339.93 479.7C340.61 480.27 341.23 480.91 341.74 481.65C342.76 483.11 343.34 484.76 344.36 486.05C344.86 486.69 345.49 487.21 346.21 487.6C346.93 487.98 347.73 488.24 348.54 488.41C349.36 488.58 350.2 488.68 351.05 488.76C351.47 488.8 351.9 488.83 352.33 488.84C352.76 488.87 353.2 488.93 353.6 489.21C353.66 489.25 353.67 489.33 353.63 489.39C353.62 489.41 353.6 489.42 353.58 489.43H353.57C353.11 489.63 352.7 489.59 352.27 489.56C351.85 489.5 351.42 489.47 350.99 489.43C350.13 489.35 349.26 489.25 348.4 489.07C347.54 488.89 346.68 488.62 345.89 488.2C345.1 487.78 344.38 487.18 343.82 486.47C342.7 485.05 342.13 483.39 341.17 482.04C340.69 481.37 340.13 480.75 339.47 480.25C339.14 480 338.8 479.77 338.45 479.54C338.11 479.31 337.76 479.08 337.45 478.75C337.4 478.7 337.4 478.63 337.45 478.58C337.5 478.55 337.53 478.53 337.56 478.54Z" fill="#371A45"/>
<path d="M353.62 486C352.74 486.48 351.71 486.5 350.74 486.36C349.77 486.22 348.81 485.98 347.93 485.53C347.48 485.32 347.07 485.04 346.68 484.74C346.3 484.42 345.93 484.08 345.64 483.67C345.01 482.88 344.68 481.89 344.49 480.95C344.3 480 344.21 479.07 343.95 478.21C343.82 477.78 343.65 477.38 343.41 477.01C343.3 476.82 343.16 476.65 343.03 476.48C342.88 476.32 342.74 476.15 342.57 476.01C341.92 475.41 341.1 475 340.24 474.79C339.81 474.68 339.36 474.64 338.93 474.67C338.49 474.7 338.08 474.77 337.58 474.7H337.57C337.55 474.7 337.52 474.69 337.49 474.68L337.47 474.67C337.4 474.65 337.36 474.59 337.38 474.52C337.39 474.5 337.4 474.48 337.41 474.46C337.44 474.43 337.46 474.41 337.49 474.39H337.48C337.88 474.05 338.41 473.94 338.91 473.94C339.41 473.96 339.91 473.99 340.4 474.12C341.37 474.35 342.29 474.82 343.03 475.49C343.78 476.14 344.34 477.06 344.61 478C344.89 478.95 344.98 479.9 345.16 480.8C345.34 481.7 345.63 482.55 346.18 483.24C346.44 483.6 346.77 483.9 347.11 484.19C347.47 484.46 347.84 484.71 348.25 484.9C349.05 485.3 349.94 485.55 350.84 485.64C351.06 485.67 351.29 485.66 351.52 485.68C351.75 485.67 351.97 485.69 352.2 485.68C352.65 485.69 353.1 485.64 353.6 485.75H353.61C353.67 485.76 353.71 485.83 353.7 485.89C353.67 485.96 353.64 485.98 353.62 486Z" fill="#371A45"/>
<path d="M353.63 481.31C353.37 481.56 353.05 481.67 352.72 481.72C352.56 481.75 352.39 481.76 352.22 481.75C352.05 481.74 351.89 481.72 351.73 481.71C351.08 481.62 350.44 481.45 349.85 481.17C348.67 480.62 347.65 479.74 346.94 478.66C346.22 477.58 345.81 476.32 345.66 475.05C345.59 474.41 345.58 473.77 345.63 473.14C345.65 472.82 345.7 472.51 345.73 472.19C345.76 471.87 345.83 471.56 346.07 471.29V471.31C346.11 471.27 346.14 471.22 346.19 471.19C346.26 471.14 346.35 471.16 346.4 471.22L346.41 471.23V471.24C346.44 471.29 346.45 471.33 346.47 471.37V471.39C346.56 471.72 346.5 472.01 346.43 472.3C346.36 472.59 346.33 472.89 346.31 473.19C346.26 473.79 346.27 474.38 346.34 474.98C346.47 476.16 346.86 477.31 347.51 478.29C348.16 479.27 349.08 480.07 350.14 480.56C350.67 480.8 351.23 480.98 351.81 481.01C352.1 481.02 352.38 481.03 352.67 481.02C352.96 481.02 353.24 481.01 353.58 481.09C353.65 481.11 353.69 481.18 353.67 481.25C353.65 481.27 353.64 481.29 353.63 481.31Z" fill="#371A45"/>
<path d="M349.55 471.39C349.6 471.65 349.54 471.85 349.47 472.04C349.4 472.23 349.31 472.4 349.23 472.58C349.07 472.94 348.97 473.31 348.91 473.69C348.81 474.43 348.96 475.22 349.38 475.81C349.59 476.1 349.87 476.33 350.19 476.47C350.51 476.61 350.88 476.67 351.25 476.65C351.62 476.64 352 476.56 352.36 476.44C352.54 476.39 352.72 476.28 352.89 476.18C353.07 476.09 353.25 476.02 353.54 476.14H353.55C353.63 476.17 353.67 476.25 353.65 476.33C353.58 476.63 353.38 476.74 353.19 476.83C353.09 476.87 352.99 476.9 352.89 476.95C352.79 477 352.69 477.04 352.59 477.07C352.17 477.21 351.73 477.31 351.28 477.32C350.83 477.34 350.36 477.27 349.92 477.08C349.49 476.89 349.1 476.57 348.83 476.19C348.29 475.42 348.12 474.47 348.24 473.58C348.3 473.14 348.44 472.71 348.58 472.3C348.65 472.09 348.73 471.89 348.85 471.71C348.96 471.53 349.11 471.36 349.36 471.27C349.44 471.24 349.52 471.28 349.55 471.36C349.54 471.37 349.54 471.38 349.55 471.39Z" fill="#371A45"/>
<path d="M337.54 484.44C338.09 484.37 338.65 484.55 339.11 484.83C339.58 485.1 339.99 485.47 340.35 485.86C341.07 486.65 341.65 487.52 342.2 488.37C342.75 489.22 343.31 490.06 344 490.74C344.69 491.42 345.55 491.91 346.45 492.36C347.35 492.81 348.31 493.23 349.18 493.86C350.04 494.49 350.77 495.28 351.35 496.16C351.94 497.03 352.39 497.97 352.79 498.92C352.99 499.4 353.18 499.87 353.38 500.34C353.57 500.82 353.74 501.3 353.69 501.86C353.68 501.93 353.62 501.98 353.56 501.97C353.53 501.97 353.5 501.95 353.48 501.94C353.07 501.55 352.88 501.07 352.7 500.6C352.54 500.12 352.35 499.65 352.16 499.18C351.77 498.25 351.33 497.35 350.78 496.53C350.24 495.7 349.56 494.98 348.78 494.4C347.99 493.83 347.07 493.42 346.15 492.96C345.23 492.51 344.29 491.98 343.52 491.22C342.76 490.47 342.18 489.59 341.62 488.74C341.06 487.89 340.53 487.04 339.84 486.34C339.49 486 339.12 485.69 338.73 485.42C338.34 485.14 337.94 484.93 337.49 484.66C337.43 484.63 337.41 484.55 337.45 484.5C337.47 484.47 337.51 484.45 337.54 484.44Z" fill="#371A45"/>
<path d="M349.38 491.25C349.56 491.15 349.69 491.17 349.8 491.21C349.91 491.25 350 491.32 350.1 491.39C350.29 491.53 350.49 491.64 350.68 491.77C351.06 492.03 351.44 492.3 351.8 492.58C352.16 492.86 352.52 493.16 352.86 493.47C353.03 493.63 353.2 493.79 353.36 493.95C353.44 494.03 353.52 494.12 353.62 494.18C353.7 494.26 353.78 494.35 353.68 494.6C353.65 494.68 353.59 494.73 353.52 494.75C353.27 494.83 353.18 494.76 353.11 494.68C353.05 494.58 352.97 494.51 352.89 494.43C352.73 494.27 352.57 494.12 352.41 493.97C352.08 493.67 351.74 493.38 351.39 493.11C351.04 492.84 350.68 492.58 350.31 492.33C350.12 492.21 349.94 492.08 349.74 491.98C349.64 491.93 349.54 491.89 349.45 491.81C349.36 491.74 349.29 491.64 349.28 491.44C349.27 491.36 349.31 491.29 349.38 491.25Z" fill="#371A45"/>
<path d="M337.59 488.96C338.17 489.2 338.59 489.73 338.88 490.26C339.17 490.8 339.35 491.38 339.51 491.93C339.67 492.49 339.83 493.03 340.05 493.54C340.26 494.05 340.53 494.53 340.88 494.92C341.23 495.31 341.68 495.58 342.18 495.76C342.68 495.93 343.24 496.01 343.8 496.06C344.37 496.11 344.95 496.13 345.54 496.21C346.13 496.29 346.74 496.42 347.31 496.7C347.88 496.98 348.38 497.4 348.75 497.89C349.13 498.38 349.4 498.94 349.62 499.49C350.05 500.61 350.27 501.76 350.57 502.86C350.86 503.96 351.28 505.01 351.84 505.99C352.11 506.48 352.42 506.96 352.77 507.4C353.11 507.85 353.45 508.29 353.67 508.87C353.69 508.93 353.66 509 353.6 509.03C353.57 509.04 353.53 509.04 353.51 509.03C352.93 508.77 352.54 508.31 352.19 507.83C351.86 507.34 351.54 506.84 351.25 506.32C350.67 505.29 350.22 504.18 349.92 503.04C349.61 501.91 349.39 500.78 348.99 499.74C348.79 499.22 348.54 498.73 348.21 498.31C347.89 497.89 347.48 497.54 347 497.31C346.05 496.84 344.89 496.84 343.73 496.74C343.14 496.69 342.54 496.61 341.95 496.41C341.36 496.21 340.79 495.86 340.37 495.38C339.52 494.43 339.19 493.22 338.83 492.14C338.65 491.59 338.46 491.07 338.24 490.57C338.01 490.07 337.76 489.62 337.44 489.13C337.4 489.08 337.42 489 337.47 488.97C337.51 488.94 337.55 488.94 337.59 488.96Z" fill="#371A45"/>
<path d="M337.55 498.69C338 498.63 338.39 498.64 338.81 498.65L340.06 498.68C340.91 498.68 341.8 498.65 342.68 498.81C343.12 498.89 343.57 499.01 343.99 499.21C344.41 499.41 344.81 499.69 345.12 500.06C345.44 500.42 345.65 500.86 345.79 501.3C345.93 501.74 345.99 502.19 346.03 502.63C346.09 503.52 346.07 504.36 346.13 505.2C346.18 506.04 346.27 506.88 346.43 507.7C346.59 508.52 346.83 509.32 347.16 510.08C347.33 510.46 347.51 510.83 347.75 511.16C347.97 511.51 348.19 511.84 348.28 512.31C348.29 512.38 348.25 512.45 348.18 512.46C348.16 512.46 348.13 512.46 348.11 512.45C347.64 512.28 347.36 511.91 347.13 511.53C346.92 511.14 346.71 510.75 346.53 510.34C346.18 509.53 345.93 508.68 345.76 507.82C345.59 506.96 345.5 506.1 345.44 505.23C345.38 504.37 345.4 503.5 345.34 502.68C345.28 501.86 345.09 501.06 344.59 500.5C344.1 499.92 343.34 499.61 342.55 499.48C341.75 499.34 340.92 499.34 340.06 499.38C339.63 499.4 339.19 499.41 338.75 499.35C338.31 499.3 337.86 499.19 337.48 498.91C337.43 498.87 337.42 498.79 337.46 498.74C337.48 498.71 337.51 498.69 337.55 498.69Z" fill="#371A45"/>
<path d="M348.77 506.16C348.98 506.24 349.07 506.36 349.13 506.49C349.2 506.62 349.24 506.75 349.27 506.89C349.35 507.16 349.47 507.43 349.57 507.69C349.79 508.22 350.02 508.74 350.28 509.24C350.54 509.75 350.81 510.25 351.11 510.74C351.26 510.98 351.41 511.22 351.57 511.46C351.65 511.58 351.73 511.7 351.83 511.8C351.92 511.91 351.99 512.04 351.87 512.29C351.84 512.37 351.76 512.41 351.69 512.42C351.41 512.44 351.32 512.33 351.24 512.2C351.18 512.06 351.1 511.94 351.01 511.82C350.85 511.57 350.69 511.33 350.54 511.07C350.24 510.57 349.95 510.05 349.69 509.53C349.43 509.01 349.18 508.47 348.96 507.93C348.84 507.66 348.75 507.38 348.63 507.11C348.57 506.98 348.51 506.84 348.48 506.7C348.45 506.55 348.45 506.4 348.57 506.21C348.6 506.16 348.69 506.13 348.77 506.16Z" fill="#371A45"/>
<path d="M337.49 502.61C337.75 502.38 338.04 502.29 338.34 502.23C338.64 502.17 338.95 502.17 339.27 502.2C339.89 502.24 340.53 502.36 341.11 502.65C341.69 502.94 342.18 503.38 342.55 503.88C342.92 504.39 343.2 504.95 343.38 505.54C343.76 506.72 343.79 507.98 343.57 509.18C343.46 509.78 343.29 510.37 343.06 510.93L342.7 511.77C342.57 512.04 342.39 512.3 342.04 512.43C341.97 512.46 341.88 512.42 341.86 512.34C341.86 512.33 341.85 512.32 341.85 512.31V512.3C341.79 511.92 341.93 511.69 342.06 511.43C342.21 511.19 342.33 510.93 342.43 510.67C342.64 510.15 342.8 509.6 342.9 509.05C343.1 507.95 343.07 506.8 342.73 505.74C342.4 504.69 341.75 503.72 340.79 503.24C340.32 503 339.78 502.88 339.24 502.88C338.97 502.88 338.69 502.91 338.41 502.91C338.13 502.92 337.85 502.92 337.53 502.81C337.46 502.79 337.43 502.71 337.45 502.64C337.47 502.65 337.48 502.63 337.49 502.61Z" fill="#371A45"/>
<path d="M337.49 506.32C337.61 506.11 337.81 506.03 338 506C338.19 505.97 338.39 505.99 338.57 506.04C338.94 506.13 339.31 506.28 339.61 506.54C340.21 507.05 340.51 507.82 340.47 508.59C340.45 508.97 340.32 509.37 340.12 509.68C339.92 510 339.66 510.27 339.39 510.5C339.12 510.73 338.83 510.92 338.55 511.1C338.41 511.19 338.26 511.28 338.14 511.39C338 511.48 337.85 511.56 337.59 511.44C337.51 511.41 337.47 511.33 337.47 511.25C337.49 510.95 337.62 510.86 337.76 510.78C337.91 510.71 338.05 510.63 338.19 510.54C338.46 510.36 338.73 510.18 338.96 509.99C339.44 509.6 339.78 509.12 339.8 508.56C339.83 508.01 339.6 507.42 339.18 507.07C338.97 506.9 338.72 506.77 338.44 506.74C338.3 506.73 338.16 506.73 338.03 506.71C337.89 506.7 337.75 506.67 337.56 506.54L337.55 506.53C337.47 506.48 337.45 506.39 337.49 506.32Z" fill="#371A45"/>
</g>
<g opacity="0.55">
<path d="M339.91 512.37H337.52V476.99H337.86C338.99 476.99 339.91 477.91 339.91 479.04V512.37Z" fill="white"/>
</g>
<g opacity="0.3">
<path d="M353.59 471.33V512.37H349.78V480.84C349.78 478.74 348.08 477.04 345.98 477.04H337.51V471.33H353.59Z" fill="#371A45"/>
</g>
<path d="M357.32 515.76V557.05C357.32 558.92 355.8 560.43 353.94 560.43H337.35C336.79 560.43 336.26 560.29 335.8 560.05C334.71 559.49 333.97 558.35 333.97 557.04V515.75C333.97 513.88 335.49 512.37 337.35 512.37H353.94C355.8 512.37 357.32 513.89 357.32 515.76Z" fill="#F9DC1B"/>
<path d="M353.93 560.61H337.34C336.77 560.61 336.21 560.47 335.71 560.22L335.62 560.17C334.49 559.55 333.79 558.37 333.79 557.06V515.77C333.79 513.81 335.38 512.22 337.34 512.22H353.93C355.89 512.22 357.48 513.81 357.48 515.77V557.06C357.49 559.01 355.89 560.61 353.93 560.61ZM335.97 559.96C336.4 560.16 336.87 560.27 337.35 560.27H353.94C355.71 560.27 357.16 558.83 357.16 557.05V515.76C357.16 513.99 355.72 512.54 353.94 512.54H337.35C335.58 512.54 334.13 513.98 334.13 515.76V557.05C334.13 558.26 334.8 559.35 335.87 559.91L335.97 559.96Z" fill="#000072"/>
<path d="M357.32 515.76V557.05C357.32 558.92 355.8 560.43 353.94 560.43H348.43C350.3 560.43 351.81 558.91 351.81 557.05V515.76C351.81 513.89 350.29 512.38 348.43 512.38H353.94C355.8 512.37 357.32 513.89 357.32 515.76Z" fill="#E89F02"/>
<path d="M353.93 560.61H348.42V560.27C350.19 560.27 351.64 558.83 351.64 557.05V515.76C351.64 513.99 350.2 512.54 348.42 512.54V512.2H353.93C355.89 512.2 357.48 513.79 357.48 515.75V557.04C357.49 559.01 355.89 560.61 353.93 560.61ZM349.94 560.27H353.93C355.7 560.27 357.15 558.83 357.15 557.05V515.76C357.15 513.99 355.71 512.54 353.93 512.54H349.94C351.15 513.11 351.98 514.34 351.98 515.76V557.05C351.98 558.47 351.14 559.7 349.94 560.27Z" fill="#E89F02"/>
<g opacity="0.55">
<path d="M338.36 560.06C338.82 560.3 339.35 560.44 339.91 560.44H337.35C336.79 560.44 336.26 560.3 335.8 560.06C334.71 559.5 333.97 558.36 333.97 557.05V515.76C333.97 513.89 335.49 512.38 337.35 512.38H339.91C338.04 512.38 336.53 513.9 336.53 515.76V557.05C336.52 558.36 337.27 559.5 338.36 560.06Z" fill="white"/>
</g>
<g opacity="0.2">
<path d="M324.15 450.43L326.4 462.7H321.89V450.43H324.15Z" fill="black"/>
</g>
<g opacity="0.2">
<path d="M347.39 450.98C347.39 452.73 345.18 452.26 342.45 452.26C339.72 452.26 337.51 452.73 337.51 450.98C337.51 449.23 339.72 447.81 342.45 447.81C345.18 447.81 347.39 449.23 347.39 450.98Z" fill="white"/>
</g>
<g opacity="0.2">
<path d="M344.15 532.57C344.15 535.84 342.77 538.49 341.07 538.49C339.37 538.49 339.34 535.84 339.34 532.57C339.34 529.3 339.37 526.65 341.07 526.65C342.77 526.65 344.15 529.3 344.15 532.57Z" fill="white"/>
</g>
<path d="M321.89 447.67V464.93C321.89 466.27 320.8 467.36 319.47 467.36H310.1C308.76 467.36 307.67 466.27 307.67 464.93V447.67C307.67 446.33 308.76 445.25 310.1 445.25H319.47C320.8 445.24 321.89 446.33 321.89 447.67Z" stroke="#0D2232" stroke-width="4" stroke-miterlimit="10" stroke-linecap="round" stroke-linejoin="round"/>
<path d="M332.34 462.7H321.89V450.43H330.76L332.34 462.7Z" stroke="#0D2232" stroke-width="4" stroke-miterlimit="10" stroke-linecap="round" stroke-linejoin="round"/>
<path d="M381.5 460.89C381.35 462.64 379.29 463.51 377.96 462.36C370.49 455.94 359.45 459.56 357.2 468.72C356.82 470.25 355.48 471.33 353.91 471.33H336.44C334.74 471.33 333.3 470.07 333.09 468.38L332.36 462.7L330.78 450.43L330.25 446.29C329.99 444.27 331.57 442.47 333.61 442.47H362.26C373.85 442.48 382.27 451.43 381.5 460.89Z" stroke="#0D2232" stroke-width="4" stroke-miterlimit="10" stroke-linecap="round" stroke-linejoin="round"/>
<path d="M353.6 471.33H337.52V512.37H353.6V471.33Z" stroke="#0D2232" stroke-width="4" stroke-miterlimit="10" stroke-linecap="round" stroke-linejoin="round"/>
<path d="M357.32 515.76V557.05C357.32 558.92 355.8 560.43 353.94 560.43H337.35C336.79 560.43 336.26 560.29 335.8 560.05C334.71 559.49 333.97 558.35 333.97 557.04V515.75C333.97 513.88 335.49 512.37 337.35 512.37H353.94C355.8 512.37 357.32 513.89 357.32 515.76Z" stroke="#0D2232" stroke-width="4" stroke-miterlimit="10" stroke-linecap="round" stroke-linejoin="round"/>
<path d="M375.73 572.22C375.72 572.17 375.72 572.12 375.72 572.07L377.53 488.01C377.54 487.37 378.07 486.87 378.71 486.88L393.17 487.19C393.48 487.2 393.77 487.32 393.98 487.55C394.16 487.73 394.27 487.97 394.29 488.22C394.3 488.27 394.3 488.32 394.3 488.37L392.49 572.43C392.48 573.07 391.95 573.57 391.31 573.56L376.85 573.25C376.54 573.24 376.25 573.12 376.04 572.89C375.87 572.71 375.76 572.47 375.73 572.22Z" fill="#C14854"/>
<path d="M381.327 488.094L379.536 572.157L388.794 572.354L390.585 488.291L381.327 488.094Z" fill="#E8656D"/>
<path opacity="0.5" d="M380.209 484.412L378.334 573.234L379.474 573.258L381.349 484.436L380.209 484.412Z" fill="white"/>
<path d="M372.97 490.14C372.18 489.55 371.42 488.89 370.71 488.19C366.49 484.04 364.13 478.49 364.08 472.56C364.03 466.64 366.29 461.05 370.45 456.83C371.53 455.73 372.72 454.75 374 453.9C374.38 453.65 374.87 453.64 375.26 453.89C375.29 453.91 375.31 453.92 375.33 453.94C375.67 454.19 375.84 454.61 375.78 455.03L374.04 466.64L386.99 473.1L397.14 462.78L392.07 453.02C391.85 452.6 391.91 452.09 392.22 451.73C392.53 451.37 393.02 451.24 393.47 451.39C395.66 452.14 397.7 453.22 399.56 454.61C400.35 455.2 401.11 455.86 401.82 456.55C406.04 460.7 408.4 466.25 408.45 472.18C408.5 478.1 406.24 483.69 402.08 487.91C394.32 495.82 381.81 496.77 372.97 490.14Z" fill="#E8656D"/>
<path d="M393.1 452.5L393.9 454.04C395.14 454.82 396.31 455.74 397.4 456.81C405.68 464.95 405.79 478.26 397.65 486.54C393.15 491.12 387.06 493.19 381.12 492.76C388.12 494.52 395.84 492.64 401.26 487.12C409.4 478.84 409.29 465.53 401.01 457.39C398.69 455.12 395.98 453.49 393.1 452.5Z" fill="#C14854"/>
<path opacity="0.5" d="M371.16 483.72C379.11 493.88 389.68 490.41 389.68 490.41C389.68 490.41 381.82 488.59 375.99 482.31C369.9 475.76 367.61 468.8 367.61 468.8C367.61 468.8 365.4 476.36 371.16 483.72Z" fill="white"/>
<path opacity="0.5" d="M373.05 569.9C376.01 566 378.99 566.7 378.99 566.7C378.99 566.7 375.09 570.12 372.92 574.83C370.88 579.26 371.18 586.44 371.18 586.44C371.18 586.44 369.18 581.62 369.46 579.18C369.92 575.2 371.05 572.53 373.05 569.9Z" fill="white"/>
<path d="M375.9 564.08L377.44 492.72" stroke="#0D2232" stroke-width="4" stroke-miterlimit="10" stroke-linecap="round" stroke-linejoin="round"/>
<path d="M394.21 493.11L392.67 564.48" stroke="#0D2232" stroke-width="4" stroke-miterlimit="10" stroke-linecap="round" stroke-linejoin="round"/>
<path d="M372.97 490.14C372.18 489.55 371.42 488.89 370.71 488.19C366.49 484.04 364.13 478.49 364.08 472.56C364.03 466.64 366.29 461.05 370.45 456.83C371.53 455.73 372.72 454.75 374 453.9C374.38 453.65 374.87 453.64 375.26 453.89C375.29 453.91 375.31 453.92 375.33 453.94C375.67 454.19 375.84 454.61 375.78 455.03L374.04 466.64L386.99 473.1L397.14 462.78L392.07 453.02C391.85 452.6 391.91 452.09 392.22 451.73C392.53 451.37 393.02 451.24 393.47 451.39C395.66 452.14 397.7 453.22 399.56 454.61C400.35 455.2 401.11 455.86 401.82 456.55C406.04 460.7 408.4 466.25 408.45 472.18C408.5 478.1 406.24 483.69 402.08 487.91C394.32 495.82 381.81 496.77 372.97 490.14Z" stroke="#0D2232" stroke-width="4" stroke-miterlimit="10" stroke-linecap="round" stroke-linejoin="round"/>
<path d="M310.33 516.93V575.09C310.33 575.09 321.9 592.45 344.4 592.45C366.9 592.45 382.97 592.45 382.97 592.45L389.72 583.77C389.72 583.77 395.18 542.95 395.83 527.2C395.83 527.2 334.11 528.85 310.33 516.93Z" fill="#FEC400"/>
<path d="M315.59 519.15V562.81C315.59 570.24 319.79 577.05 326.46 580.31C337.43 585.68 357.44 590.8 389.72 583.78L382.97 592.46L341.02 592.7C341.02 592.7 319.32 589.89 310.32 575.1V516.94L315.59 519.15Z" fill="#E89F02"/>
<path d="M310.33 516.93V570.14C310.33 573.76 311.79 577.22 314.35 579.78C319.5 584.92 329.58 592.45 344.4 592.45H375.9C380.36 592.45 384.57 590.39 387.31 586.87C388.89 584.84 389.9 582.42 390.23 579.87C391.6 569.28 395.3 539.99 395.82 527.2C395.83 527.2 334.11 528.85 310.33 516.93Z" stroke="#0D2232" stroke-width="4" stroke-miterlimit="10" stroke-linecap="round" stroke-linejoin="round"/>
<path d="M310.33 532.02C310.33 532.02 330.03 548.92 394.31 542.49" stroke="#0D2232" stroke-width="4" stroke-miterlimit="10" stroke-linecap="round" stroke-linejoin="round"/>
<path d="M172.76 516.93V576.37C172.76 576.37 148.33 595.01 111.05 592.44C111.05 592.44 95.6201 568.01 91.1201 527.19C91.1101 527.2 155.4 530.78 172.76 516.93Z" stroke="white" stroke-miterlimit="10"/>
<path d="M93.6602 543.78C93.6602 543.78 147.04 544.24 172.75 532.02" stroke="white" stroke-miterlimit="10"/>
<path d="M106.5 583.81C106.5 583.81 138.68 584.73 157.33 574.45L153.21 524.27L172.76 516.93V576.37C172.76 576.37 150.9 593.73 111.05 592.44L106.5 583.81Z" stroke="white" stroke-miterlimit="10"/>
<path d="M172.93 532.02C172.93 532.02 151.69 548.73 87.3301 542.31" stroke="white" stroke-miterlimit="10"/>
<path d="M190.95 492.16V580.88L179.36 592.45H100.2L110.82 584.09L110.17 492.16H190.95Z" fill="#F9DC1B"/>
<path d="M181.29 492.16V575.32L174.53 584.09H93.4404L100.2 592.45H179.36L190.95 580.88V492.16H181.29Z" fill="#E89F02"/>
<path d="M178.716 509.667H183.866V504.527H178.716V509.667Z" fill="white"/>
<path d="M178.716 526.082H183.866V520.942H178.716V526.082Z" fill="white"/>
<path d="M178.716 542.488H183.866V537.348H178.716V542.488Z" fill="white"/>
<path d="M178.716 558.903H183.866V553.763H178.716V558.903Z" fill="white"/>
<path d="M178.716 575.319H183.866V570.179H178.716V575.319Z" fill="white"/>
<path d="M110.17 527.2V492.16H190.95V580.88L179.36 592.45L101.26 591.61" stroke="#0D2232" stroke-width="4" stroke-miterlimit="10" stroke-linecap="round" stroke-linejoin="round"/>
<path d="M116.1 462.1L120.77 479.71L118.04 482.62C114.77 477.72 108.73 474.99 102.67 476.22C102.38 476.28 102.09 476.35 101.8 476.42C103.05 475.38 103.96 474.2 104.54 472.98C107.08 467.67 103.74 461.31 97.4704 460.17L93.6904 445.93C103.18 447.24 110.04 452.3 115.09 459.93C115.56 460.6 115.89 461.33 116.1 462.1Z" fill="#AFCADC"/>
<path d="M118.02 482.93L117.89 482.73C114.59 477.78 108.5 475.24 102.72 476.41C102.45 476.46 102.17 476.53 101.87 476.61L101.03 476.83L101.7 476.27C102.89 475.28 103.8 474.15 104.39 472.89C105.55 470.47 105.5 467.7 104.27 465.29C102.94 462.7 100.46 460.9 97.46 460.35L97.34 460.33L93.46 445.69L93.75 445.73C102.78 446.98 109.83 451.58 115.29 459.81C115.75 460.5 116.09 461.25 116.3 462.04L121 479.75L118.02 482.93ZM102.52 476.05C102.56 476.04 102.6 476.03 102.65 476.02C108.5 474.83 114.66 477.35 118.08 482.3L120.57 479.64L115.92 462.14C115.72 461.39 115.4 460.68 114.96 460.02C109.62 451.98 102.76 447.43 93.98 446.15L97.65 459.99C100.71 460.58 103.25 462.44 104.61 465.11C105.9 467.63 105.94 470.52 104.73 473.05C104.21 474.15 103.47 475.16 102.52 476.05Z" fill="#000072"/>
<g opacity="0.55">
<path d="M104.52 475.97C103.91 476.01 103.29 476.1 102.67 476.22C102.38 476.28 102.09 476.35 101.8 476.42C103.05 475.38 103.96 474.2 104.54 472.98C107.08 467.67 103.74 461.31 97.4704 460.17L93.6904 445.93C94.7104 446.07 95.6904 446.25 96.6404 446.48L100.16 459.73C106.43 460.87 109.77 467.22 107.23 472.54C106.67 473.76 105.77 474.93 104.52 475.97Z" fill="white"/>
</g>
<g opacity="0.55">
<path d="M104.59 475.96L104.5 475.98C104.51 475.97 104.51 475.97 104.52 475.96C104.55 475.96 104.57 475.96 104.59 475.96Z" fill="white"/>
<path d="M104.64 476.15L103.73 476.39L104.47 475.78C104.51 475.77 104.54 475.77 104.56 475.77L106.19 475.73L104.64 476.15Z" fill="#371A45"/>
</g>
<path d="M123.79 491.08L126.07 499.69C126.21 500.22 125.92 500.78 125.42 500.97C125.38 500.98 125.35 500.99 125.31 501L109.73 505.14C108.15 505.56 106.55 505.71 104.98 505.62C99.9603 505.32 95.2703 502.55 92.7303 498.22C92.0803 497.12 91.5703 495.93 91.2303 494.64C90.8003 493.03 90.6603 491.42 90.7603 489.85C91.1603 483.64 95.4503 478.11 101.8 476.43H101.81C102.1 476.35 102.38 476.29 102.68 476.23C108.74 475 114.78 477.73 118.05 482.63C119.01 484.07 119.72 485.69 120.14 487.45C120.41 488.59 120.53 489.73 120.53 490.85L122.49 490.33C122.85 490.23 123.22 490.34 123.48 490.57C123.62 490.69 123.74 490.87 123.79 491.08Z" fill="#AFCADC"/>
<path d="M125.36 501.19L109.78 505.33C108.21 505.75 106.59 505.91 104.97 505.81C99.8501 505.51 95.1001 502.64 92.5601 498.32C91.8901 497.19 91.3801 495.97 91.0401 494.7C90.6201 493.1 90.4601 491.47 90.5601 489.84C90.9801 483.37 95.4701 477.91 101.74 476.24C102.07 476.15 102.35 476.09 102.63 476.03C108.55 474.83 114.81 477.43 118.19 482.51C119.18 484 119.89 485.64 120.3 487.39C120.55 488.44 120.68 489.52 120.69 490.59L122.41 490.13C122.82 490.02 123.26 490.12 123.57 490.41C123.76 490.57 123.89 490.79 123.95 491.03L126.23 499.64C126.4 500.27 126.06 500.92 125.46 501.15C125.45 501.16 125.41 501.17 125.36 501.19ZM101.86 476.6C95.7401 478.23 91.3601 483.55 90.9501 489.85C90.8401 491.44 91.0001 493.03 91.4101 494.58C91.7401 495.82 92.2401 497.01 92.8901 498.11C95.3601 502.32 100 505.12 104.99 505.41C106.57 505.5 108.15 505.35 109.68 504.94L125.26 500.8C125.29 500.79 125.32 500.78 125.35 500.77C125.77 500.61 126 500.16 125.89 499.72L123.61 491.11C123.57 490.94 123.47 490.79 123.34 490.68C123.12 490.48 122.82 490.41 122.53 490.48L120.33 491.06V490.81C120.33 489.69 120.2 488.56 119.94 487.45C119.54 485.74 118.85 484.14 117.88 482.69C114.58 477.74 108.49 475.2 102.71 476.37C102.45 476.46 102.17 476.52 101.86 476.6Z" fill="#000072"/>
<g opacity="0.3">
<path d="M116.1 462.1L120.77 479.71L118.04 482.62C117.86 482.35 117.67 482.08 117.47 481.82C114.1 477.42 108.4 475.05 102.67 476.22C102.38 476.28 102.09 476.35 101.8 476.42C103.05 475.38 103.96 474.2 104.54 472.98C104.62 472.95 104.71 472.93 104.79 472.91H104.81C105.09 472.84 105.38 472.77 105.68 472.71C108.32 472.17 110.95 472.39 113.35 473.21C114.81 473.71 116.23 472.41 115.84 470.92L113.78 463.17C113.58 462.4 113.24 461.67 112.8 461C108.24 454.12 102.21 449.33 94.12 447.5L93.71 445.95C103.2 447.26 110.06 452.32 115.11 459.95C115.56 460.6 115.89 461.33 116.1 462.1Z" fill="black"/>
<path d="M118.02 482.93L117.89 482.73C117.71 482.45 117.52 482.19 117.33 481.95C113.91 477.48 108.18 475.31 102.72 476.42C102.45 476.47 102.17 476.54 101.87 476.62L101.03 476.84L101.7 476.28C102.89 475.29 103.8 474.16 104.39 472.9L104.43 472.82L104.51 472.79C104.91 472.66 105.32 472.58 105.66 472.51C108.24 471.99 110.92 472.16 113.43 473.01C114.05 473.22 114.71 473.08 115.19 472.64C115.66 472.2 115.84 471.58 115.67 470.96L113.61 463.21C113.41 462.47 113.09 461.76 112.65 461.09C107.81 453.79 101.74 449.4 94.0802 447.67L93.9702 447.64L93.4502 445.7L93.7402 445.74C102.77 446.99 109.82 451.59 115.28 459.82C115.74 460.51 116.08 461.26 116.29 462.05L120.99 479.76L118.02 482.93ZM102.52 476.05C102.56 476.04 102.6 476.03 102.65 476.02C108.25 474.88 114.13 477.11 117.64 481.7C117.79 481.89 117.94 482.09 118.08 482.31L120.57 479.65L115.92 462.15C115.72 461.4 115.4 460.69 114.96 460.03C109.62 451.99 102.76 447.44 93.9802 446.16L94.2902 447.32C101.99 449.09 108.1 453.53 112.98 460.88C113.44 461.58 113.78 462.33 113.99 463.11L116.05 470.86C116.25 471.62 116.03 472.39 115.46 472.92C114.88 473.46 114.08 473.63 113.31 473.38C110.87 472.55 108.25 472.38 105.74 472.89C105.47 472.94 105.16 473.01 104.88 473.09C104.82 473.11 104.76 473.12 104.71 473.14C104.18 474.2 103.45 475.18 102.52 476.05Z" fill="#371A45"/>
</g>
<g opacity="0.55">
<path d="M112.69 477.74C110.27 476.9 107.6 476.67 104.93 477.21C104.64 477.27 104.35 477.34 104.06 477.41H104.05C97.7103 479.09 93.4203 484.63 93.0103 490.83C92.9103 492.4 93.0503 494.02 93.4803 495.62C93.8203 496.9 94.3303 498.1 94.9803 499.2C96.3803 501.58 98.4203 503.49 100.82 504.77C97.4703 503.6 94.5503 501.3 92.7303 498.2C92.0803 497.1 91.5703 495.91 91.2303 494.62C90.8003 493.01 90.6603 491.4 90.7603 489.83C91.1603 483.62 95.4503 478.09 101.8 476.41H101.81C102.1 476.33 102.38 476.27 102.68 476.21C106.2 475.5 109.72 476.13 112.69 477.74Z" fill="white"/>
</g>
<path d="M105.63 498.7C109.982 498.7 113.51 495.172 113.51 490.82C113.51 486.468 109.982 482.94 105.63 482.94C101.278 482.94 97.75 486.468 97.75 490.82C97.75 495.172 101.278 498.7 105.63 498.7Z" fill="#CECEDD"/>
<g opacity="0.55">
<path d="M115.71 490.23C116.83 494.44 114.32 498.75 110.12 499.87C107.52 500.56 104.88 499.87 102.97 498.24C104.42 498.76 106.04 498.86 107.65 498.44C111.86 497.32 114.36 493.01 113.24 488.8C112.81 487.2 111.92 485.84 110.75 484.84C113.11 485.68 115.02 487.63 115.71 490.23Z" fill="white"/>
</g>
<g opacity="0.3">
<path d="M110.43 484.57C109.14 484.21 107.74 484.19 106.35 484.56C102.14 485.68 99.6402 489.99 100.76 494.2C101.22 495.95 102.24 497.4 103.58 498.42C100.95 497.71 98.7702 495.66 98.0202 492.84C96.9002 488.63 99.4102 484.32 103.61 483.2C106.07 482.55 108.56 483.13 110.43 484.57Z" fill="black"/>
<path d="M104.46 498.86L103.52 498.61C100.74 497.86 98.5602 495.67 97.8202 492.89C96.6802 488.59 99.2502 484.16 103.55 483.02C105.99 482.37 108.54 482.88 110.54 484.42L111.32 485.02L110.37 484.76C109.08 484.4 107.71 484.4 106.39 484.75C102.29 485.84 99.8402 490.06 100.93 494.15C101.37 495.8 102.32 497.23 103.68 498.27L104.46 498.86ZM103.65 483.39C99.5502 484.48 97.1002 488.7 98.1902 492.79C98.8102 495.12 100.5 497.02 102.7 497.93C101.67 496.92 100.94 495.67 100.56 494.25C99.4202 489.95 101.99 485.52 106.29 484.38C107.34 484.1 108.44 484.04 109.5 484.19C107.75 483.15 105.66 482.85 103.65 483.39Z" fill="#371A45"/>
</g>
<path d="M109.45 505.21L113.06 518.81C113.54 520.61 114.59 522.22 116.05 523.38L130.81 535.12C133.24 537.05 134.98 539.71 135.77 542.7L143.14 570.48C143.61 572.26 145.66 573.07 147.24 572.11C150.9 569.88 153.74 567.3 155.28 564.16C156.52 561.63 156.72 558.71 155.99 555.98L150.4 534.94C149.84 532.83 148.72 530.92 147.16 529.39L137.4 519.85C135.49 517.98 134.36 515.44 134.33 512.77C134.3 509.75 134.89 506.39 135.84 502.83C136.43 500.61 134.41 498.58 132.19 499.17L109.45 505.21Z" fill="#F9DC1B"/>
<path d="M150.41 534.93L156 555.98C156.72 558.71 156.53 561.63 155.29 564.16C153.75 567.3 150.9 569.88 147.24 572.11C146.16 572.77 144.86 572.59 144 571.85C147.08 569.8 149.48 567.45 150.85 564.66C152.09 562.13 152.29 559.21 151.56 556.48L145.97 535.43C145.41 533.32 144.29 531.41 142.73 529.88L132.97 520.34C131.06 518.47 129.94 515.93 129.91 513.26C129.88 510.24 130.47 506.88 131.42 503.32C131.82 501.81 131.01 500.38 129.75 499.82L132.22 499.17C134.44 498.58 136.46 500.61 135.87 502.83C134.92 506.39 134.33 509.75 134.36 512.77C134.39 515.44 135.52 517.98 137.42 519.85L147.18 529.39C148.73 530.91 149.85 532.83 150.41 534.93Z" fill="#E89F02"/>
<g opacity="0.55">
<path d="M146.36 571.61C146.43 571.88 146.54 572.14 146.68 572.36C145.21 572.86 143.56 572.05 143.14 570.47L135.77 542.69C134.98 539.7 133.24 537.04 130.81 535.11L116.05 523.37C114.59 522.21 113.54 520.61 113.06 518.8L109.45 505.2L132.22 499.16C133.51 498.82 134.72 499.36 135.41 500.3L112.67 506.33L116.28 519.93C116.76 521.74 117.81 523.34 119.27 524.5L134.03 536.24C136.45 538.17 138.19 540.83 138.99 543.82L146.36 571.61Z" fill="white"/>
</g>
<path d="M109.45 505.21L113.06 518.81C113.54 520.61 113.42 522.52 112.73 524.26L105.73 541.77C104.58 544.65 104.39 547.82 105.18 550.82L112.55 578.6C113.02 580.38 111.64 582.1 109.8 582.04C105.52 581.92 101.77 581.09 98.8703 579.13C96.5303 577.55 94.9203 575.11 94.1903 572.38L88.6003 551.34C88.0403 549.23 88.0603 547.02 88.6603 544.92L92.4003 531.8C93.1303 529.23 92.8503 526.47 91.5503 524.13C90.0803 521.49 87.9003 518.86 85.3103 516.24C83.7003 514.61 84.4503 511.85 86.6603 511.26L109.45 505.21Z" fill="#F9DC1B"/>
<path d="M109.45 505.21L113.06 518.81C113.54 520.62 113.42 522.53 112.73 524.26L105.73 541.77C104.58 544.65 104.39 547.82 105.18 550.82L112.55 578.6C113.02 580.38 111.64 582.1 109.8 582.05C109.01 582.03 108.23 581.98 107.47 581.9C107.8 581.31 107.91 580.6 107.72 579.88L100.35 552.1C99.56 549.11 99.75 545.93 100.9 543.05L107.9 525.54C108.59 523.81 108.71 521.9 108.23 520.09L104.62 506.49L109.45 505.21Z" fill="#E89F02"/>
<g opacity="0.55">
<path d="M89.2903 517.17C91.8803 519.79 94.0603 522.42 95.5303 525.06C96.8303 527.39 97.1103 530.16 96.3803 532.73L92.6403 545.85C92.0403 547.95 92.0203 550.17 92.5803 552.27L98.1703 573.32C98.8903 576.05 100.51 578.49 102.84 580.07C103.87 580.77 105.01 581.32 106.24 581.75C103.43 581.35 100.94 580.53 98.8803 579.13C96.5503 577.55 94.9303 575.11 94.2103 572.38L88.6203 551.33C88.0603 549.22 88.0803 547 88.6803 544.91L92.4203 531.79C93.1503 529.22 92.8703 526.46 91.5703 524.13C90.1003 521.49 87.9203 518.86 85.3303 516.24C83.7203 514.61 84.4703 511.84 86.6803 511.26L109.44 505.21L109.93 507.07L90.6303 512.2C88.4303 512.78 87.6803 515.54 89.2903 517.17Z" fill="white"/>
</g>
<path d="M104.98 505.61L105.17 506.34L92.29 509.76L89.93 500.88C89.67 499.89 90.26 498.87 91.25 498.61L92.72 498.22C95.27 502.54 99.96 505.32 104.98 505.61Z" fill="#AFCADC"/>
<path d="M105.41 506.48L92.1602 510L89.7502 500.93C89.4602 499.84 90.1102 498.71 91.2102 498.42L92.8202 497.99L92.8902 498.12C95.3602 502.33 100 505.13 104.99 505.42L105.13 505.43L105.41 506.48ZM92.4302 509.53L104.94 506.21L104.83 505.8C99.8202 505.46 95.1702 502.65 92.6402 498.44L91.3102 498.79C90.4202 499.03 89.8902 499.94 90.1302 500.83L92.4302 509.53Z" fill="#000072"/>
<g opacity="0.55">
<path d="M92.8502 498.18C93.0502 498.53 93.2802 498.87 93.5102 499.2L93.3801 499.24C92.3901 499.5 91.8001 500.52 92.0601 501.51L94.1201 509.28L92.4101 509.73L90.0501 500.85C89.7901 499.86 90.3801 498.84 91.3701 498.58L92.8502 498.18Z" fill="white"/>
</g>
<path d="M101.8 476.42C95.4604 478.1 91.1705 483.64 90.7605 489.84L86.9604 488.67L82.2905 471.06C82.0805 470.29 82.0105 469.49 82.0705 468.69C82.6805 459.56 86.1204 451.76 93.7104 445.92L97.4904 460.16C91.4804 465.21 93.2604 474.94 101.8 476.42Z" fill="#AFCADC"/>
<path d="M90.9402 490.1L86.8102 488.83L82.1102 471.12C81.9002 470.33 81.8202 469.51 81.8802 468.68C82.5402 458.83 86.3702 451.33 93.6002 445.77L93.8302 445.59L97.7102 460.23L97.6202 460.31C94.7302 462.73 93.5202 466.39 94.4502 469.85C95.3502 473.19 98.1102 475.57 101.84 476.22L102.7 476.37L101.85 476.59C95.7402 478.21 91.3602 483.54 90.9602 489.84L90.9402 490.1ZM87.1202 488.53L90.5802 489.6C91.0702 483.49 95.2002 478.32 101 476.46C97.5102 475.61 94.9402 473.22 94.0702 469.97C93.1102 466.4 94.3402 462.63 97.2702 460.11L93.6002 446.27C86.6102 451.74 82.9002 459.09 82.2602 468.72C82.2102 469.51 82.2802 470.29 82.4802 471.03L87.1202 488.53Z" fill="#000072"/>
<g opacity="0.3">
<path d="M99.1299 477.41C99.1799 477.39 99.2299 477.36 99.2799 477.34C99.2999 477.34 99.3199 477.35 99.3399 477.35C99.2699 477.37 99.1999 477.39 99.1299 477.41Z" fill="#262F6A"/>
<path d="M99.19 477.6L99.04 477.25C99.09 477.22 99.15 477.2 99.2 477.17L99.25 477.15L99.35 477.16L100.15 477.32L99.39 477.53C99.32 477.56 99.25 477.58 99.19 477.6Z" fill="#371A45"/>
</g>
<g opacity="0.3">
<path d="M99.6805 475.84C100.271 476.07 100.281 476.9 99.6905 477.16C99.5505 477.22 99.4105 477.28 99.2805 477.35C90.7905 475.83 88.4105 466.03 94.4005 461L91.0205 448.26C91.8505 447.45 92.7505 446.68 93.7205 445.94L97.5005 460.18C92.0205 464.76 93.0005 473.24 99.6805 475.84Z" fill="#262F6A"/>
<path d="M99.3003 477.54L99.2403 477.53C95.1903 476.8 92.1803 474.15 91.1903 470.43C90.2603 466.94 91.4003 463.3 94.1803 460.92L90.8003 448.19L90.8803 448.11C91.7203 447.3 92.6303 446.51 93.5903 445.77L93.8203 445.59L97.7003 460.23L97.6103 460.31C94.9803 462.52 93.7203 465.77 94.2603 469.01C94.7603 472.07 96.7603 474.5 99.7503 475.66C100.09 475.8 100.31 476.11 100.32 476.48C100.33 476.86 100.12 477.18 99.7703 477.33C99.6303 477.39 99.5003 477.45 99.3603 477.52L99.3003 477.54ZM91.2303 448.31L94.6103 461.06L94.5203 461.14C91.7903 463.43 90.6603 466.95 91.5603 470.34C92.5103 473.89 95.3803 476.43 99.2403 477.15C99.3603 477.09 99.4803 477.04 99.6103 476.98C99.8503 476.88 99.9303 476.66 99.9303 476.49C99.9303 476.28 99.8103 476.1 99.6103 476.02C96.5003 474.81 94.4103 472.28 93.8803 469.08C93.3303 465.75 94.6003 462.4 97.2703 460.11L93.6003 446.27C92.7703 446.91 91.9703 447.6 91.2303 448.31Z" fill="#371A45"/>
</g>
<g opacity="0.55">
<path d="M93.7102 445.93L94.2502 447.98C88.1802 453.58 85.3502 460.7 84.8002 468.9C84.7502 469.7 84.8202 470.5 85.0202 471.27L89.6902 488.88L90.8002 489.22C90.7802 489.43 90.7602 489.64 90.7502 489.85L86.9502 488.68L82.2802 471.07C82.0702 470.3 82.0002 469.5 82.0602 468.7C82.6802 459.57 86.1202 451.77 93.7102 445.93Z" fill="white"/>
</g>
<g opacity="0.2">
<path d="M123.79 491.08L126.07 499.69C126.21 500.22 125.92 500.78 125.42 500.97L112.51 504.4C118.76 501.37 121.81 497.06 121.04 491.2L123.47 490.56C123.62 490.69 123.74 490.87 123.79 491.08Z" fill="black"/>
</g>
<path d="M104.98 505.61L105.17 506.34L92.29 509.76L89.93 500.88C89.67 499.89 90.26 498.87 91.25 498.61L92.72 498.22C95.27 502.54 99.96 505.32 104.98 505.61Z" stroke="#0D2232" stroke-width="4" stroke-miterlimit="10" stroke-linecap="round" stroke-linejoin="round"/>
<path d="M109.451 505.21L113.061 518.81C113.541 520.61 114.591 522.22 116.051 523.38L130.811 535.12C133.241 537.05 134.981 539.71 135.771 542.7L143.141 570.48C143.611 572.26 145.661 573.07 147.241 572.11C150.901 569.88 153.741 567.3 155.281 564.16C156.521 561.63 156.721 558.71 155.991 555.98L150.401 534.94C149.841 532.83 148.721 530.92 147.161 529.39L137.401 519.85C135.491 517.98 134.361 515.44 134.331 512.77C134.301 509.75 134.891 506.39 135.841 502.83C136.431 500.61 134.411 498.58 132.191 499.17L109.451 505.21Z" stroke="#0D2232" stroke-width="4" stroke-miterlimit="10" stroke-linecap="round" stroke-linejoin="round"/>
<path d="M109.45 505.21L113.06 518.81C113.54 520.61 113.42 522.52 112.73 524.26L105.73 541.77C104.58 544.65 104.39 547.82 105.18 550.82L112.55 578.6C113.02 580.38 111.64 582.1 109.8 582.04C105.52 581.92 101.77 581.09 98.8703 579.13C96.5303 577.55 94.9203 575.11 94.1903 572.38L88.6003 551.34C88.0403 549.23 88.0603 547.02 88.6603 544.92L92.4003 531.8C93.1303 529.23 92.8503 526.47 91.5503 524.13C90.0803 521.49 87.9003 518.86 85.3103 516.24C83.7003 514.61 84.4503 511.85 86.6603 511.26L109.45 505.21Z" stroke="#0D2232" stroke-width="4" stroke-miterlimit="10" stroke-linecap="round" stroke-linejoin="round"/>
<path d="M116.1 462.1L120.77 479.71L118.04 482.62C114.77 477.72 108.73 474.99 102.67 476.22C102.38 476.28 102.09 476.35 101.8 476.42C103.05 475.38 103.96 474.2 104.54 472.98C107.08 467.67 103.74 461.31 97.4704 460.17L93.6904 445.93C103.18 447.24 110.04 452.3 115.09 459.93C115.56 460.6 115.89 461.33 116.1 462.1Z" stroke="#0D2232" stroke-width="4" stroke-miterlimit="10" stroke-linecap="round" stroke-linejoin="round"/>
<path d="M123.79 491.08L126.07 499.69C126.21 500.22 125.92 500.78 125.42 500.97C125.38 500.98 125.35 500.99 125.31 501L109.73 505.14C108.15 505.56 106.55 505.71 104.98 505.62C99.9603 505.32 95.2703 502.55 92.7303 498.22C92.0803 497.12 91.5703 495.93 91.2303 494.64C90.8003 493.03 90.6603 491.42 90.7603 489.85C91.1603 483.64 95.4503 478.11 101.8 476.43H101.81C102.1 476.35 102.38 476.29 102.68 476.23C108.74 475 114.78 477.73 118.05 482.63C119.01 484.07 119.72 485.69 120.14 487.45C120.41 488.59 120.53 489.73 120.53 490.85L122.49 490.33C122.85 490.23 123.22 490.34 123.48 490.57C123.62 490.69 123.74 490.87 123.79 491.08Z" stroke="#0D2232" stroke-width="4" stroke-miterlimit="10" stroke-linecap="round" stroke-linejoin="round"/>
<path d="M101.8 476.42C95.4604 478.1 91.1705 483.64 90.7605 489.84L86.9604 488.67L82.2905 471.06C82.0805 470.29 82.0105 469.49 82.0705 468.69C82.6805 459.56 86.1204 451.76 93.7104 445.92L97.4904 460.16C91.4804 465.21 93.2604 474.94 101.8 476.42Z" stroke="#0D2232" stroke-width="4" stroke-miterlimit="10" stroke-linecap="round" stroke-linejoin="round"/>
<path d="M105.63 498.7C109.982 498.7 113.51 495.172 113.51 490.82C113.51 486.468 109.982 482.94 105.63 482.94C101.278 482.94 97.75 486.468 97.75 490.82C97.75 495.172 101.278 498.7 105.63 498.7Z" stroke="#0D2232" stroke-width="4" stroke-miterlimit="10" stroke-linecap="round" stroke-linejoin="round"/>
<path d="M157.94 522.67H137.39C135.2 522.67 133.42 520.89 133.42 518.7V517.57C133.42 515.38 135.2 513.6 137.39 513.6H157.94C160.13 513.6 161.91 515.38 161.91 517.57V518.7C161.91 520.9 160.13 522.67 157.94 522.67Z" fill="#F9DC1B"/>
<path d="M156.281 522.67H139.141V529.75H156.281V522.67Z" fill="#F9DC1B"/>
<path d="M149.44 574.23H145.89C139 574.23 133.42 568.65 133.42 561.76V533.9C133.42 531.61 135.27 529.76 137.56 529.76H157.77C160.06 529.76 161.91 531.61 161.91 533.9V561.76C161.91 568.64 156.33 574.23 149.44 574.23Z" fill="#F9DC1B"/>
<path d="M161.911 516.65V519.63C161.911 521.31 160.551 522.67 158.871 522.67H153.871C155.551 522.67 156.911 521.31 156.911 519.63V516.65C156.911 514.97 155.551 513.61 153.871 513.61H158.871C160.551 513.61 161.911 514.97 161.911 516.65Z" fill="#E89F02"/>
<path d="M156.28 522.68H151.28V529.76H156.28V522.68Z" fill="#E89F02"/>
<path d="M161.911 532.78V560.4C161.911 568.04 155.721 574.23 148.081 574.23H147.811C152.841 574.23 156.921 570.15 156.921 565.12V532.78C156.921 531.11 155.571 529.76 153.901 529.76H158.901C160.561 529.75 161.911 531.11 161.911 532.78Z" fill="#E89F02"/>
<g opacity="0.55">
<path d="M140 522.68H136.47C134.79 522.68 133.43 521.32 133.43 519.64V516.66C133.43 514.98 134.79 513.62 136.47 513.62H140C138.32 513.62 136.96 514.98 136.96 516.66V519.64C136.96 521.31 138.32 522.68 140 522.68Z" fill="white"/>
</g>
<g opacity="0.55">
<path d="M142.671 522.68H139.141V529.76H142.671V522.68Z" fill="white"/>
</g>
<g opacity="0.55">
<path d="M146.07 574.23H142.54C137.51 574.23 133.43 570.15 133.43 565.12V532.78C133.43 531.11 134.78 529.76 136.45 529.76H139.98C138.31 529.76 136.96 531.11 136.96 532.78V565.12C136.96 570.15 141.03 574.23 146.07 574.23Z" fill="white"/>
</g>
<path d="M157.601 474.9L155.291 482.08H152.301V513.61H143.361V482.08H140.381L138.061 474.9L141.701 454.36H153.961L157.601 474.9Z" fill="#AFCADC"/>
<path d="M152.47 513.77H143.19V482.24H140.25L137.88 474.91L137.89 474.87L141.56 454.19H154.09L157.77 474.91L155.4 482.24H152.46V513.77H152.47ZM143.53 513.44H152.14V481.91H155.17L157.44 474.89L153.83 454.53H141.85L138.24 474.89L140.51 481.91H143.54V513.44H143.53Z" fill="#000072"/>
<g opacity="0.2">
<path d="M151.481 482.08H152.301V513.61H149.541V484.02C149.541 482.95 150.411 482.08 151.481 482.08Z" fill="black"/>
</g>
<g opacity="0.2">
<path d="M157.6 474.9L155.29 482.08H152.53L154.84 474.9L151.2 454.36H153.96L157.6 474.9Z" fill="black"/>
</g>
<g opacity="0.55">
<path d="M140.921 474.9L143.241 482.08H140.711L138.391 474.9L142.031 454.36H144.561L140.921 474.9Z" fill="white"/>
</g>
<g opacity="0.55">
<path d="M146.22 483.73V513.61H143.69V482.08H144.57C145.48 482.08 146.22 482.82 146.22 483.73Z" fill="white"/>
</g>
<g opacity="0.2">
<path d="M147.31 548.77C147.31 552.43 145.77 555.4 143.86 555.4C141.96 555.4 141.93 552.43 141.93 548.77C141.93 545.11 141.96 542.14 143.86 542.14C145.77 542.15 147.31 545.12 147.31 548.77Z" fill="white"/>
</g>
<path d="M157.94 522.67H137.39C135.2 522.67 133.42 520.89 133.42 518.7V517.57C133.42 515.38 135.2 513.6 137.39 513.6H157.94C160.13 513.6 161.91 515.38 161.91 517.57V518.7C161.91 520.9 160.13 522.67 157.94 522.67Z" stroke="#0D2232" stroke-width="4" stroke-miterlimit="10" stroke-linecap="round" stroke-linejoin="round"/>
<path d="M156.281 522.67H139.141V529.75H156.281V522.67Z" stroke="#0D2232" stroke-width="4" stroke-miterlimit="10" stroke-linecap="round" stroke-linejoin="round"/>
<path d="M149.44 574.23H145.89C139 574.23 133.42 568.65 133.42 561.76V533.9C133.42 531.61 135.27 529.76 137.56 529.76H157.77C160.06 529.76 161.91 531.61 161.91 533.9V561.76C161.91 568.64 156.33 574.23 149.44 574.23Z" stroke="#0D2232" stroke-width="4" stroke-miterlimit="10" stroke-linecap="round" stroke-linejoin="round"/>
<path d="M157.601 474.9L155.291 482.08H152.301V513.61H143.361V482.08H140.381L138.061 474.9L141.701 454.36H153.961L157.601 474.9Z" stroke="#0D2232" stroke-width="4" stroke-miterlimit="10" stroke-linecap="round" stroke-linejoin="round"/>
<path d="M172.93 516.93V575.09C172.93 575.09 161.34 592.45 138.82 592.45C116.3 592.45 100.2 592.45 100.2 592.45L93.4401 583.77C93.4401 583.77 87.9701 542.95 87.3301 527.2C87.3201 527.2 149.11 528.85 172.93 516.93Z" fill="#FEC400"/>
<path d="M167.66 519.15V562.81C167.66 570.24 163.46 577.05 156.78 580.31C145.79 585.68 125.76 590.8 93.4497 583.78L100.21 592.46L142.21 592.7C142.21 592.7 163.93 589.89 172.94 575.1V516.94L167.66 519.15Z" fill="#E89F02"/>
<path d="M172.93 516.93V571.29C172.93 574 171.9 576.6 170.06 578.58C165.34 583.65 154.85 592.44 138.82 592.44H105.42C102.13 592.44 99.0199 590.92 96.9999 588.32L95.2299 586.05C94.0599 584.55 93.3099 582.76 93.0699 580.88C91.8199 571.3 87.8798 540.41 87.3398 527.19C87.3198 527.2 149.11 528.85 172.93 516.93Z" stroke="#0D2232" stroke-width="4" stroke-miterlimit="10" stroke-linecap="round" stroke-linejoin="round"/>
<path d="M172.93 532.02C172.93 532.02 153.21 548.92 88.8496 542.49" stroke="#0D2232" stroke-width="4" stroke-miterlimit="10" stroke-linecap="round" stroke-linejoin="round"/>
<path d="M155.988 653.609L229.418 653.609L229.418 632.109L155.988 632.109L155.988 653.609Z" stroke="#0D2232" stroke-width="6" stroke-miterlimit="10" stroke-linecap="round" stroke-linejoin="round"/>
</g>
<defs>
<clipPath id="clip0_344_4381">
<rect width="486" height="719" fill="white"/>
</clipPath>
</defs>
</svg>
