<svg width="882" height="715" viewBox="0 0 882 715" fill="none" xmlns="http://www.w3.org/2000/svg">
<g clip-path="url(#clip0_344_6469)">
<path d="M190.79 711.94C189.13 711.94 187.79 710.6 187.79 708.94V708C187.79 699.58 194.64 692.72 203.07 692.72H213.66L259.8 671.88V261.52C259.8 259.86 261.14 258.52 262.8 258.52H272.94C274.6 258.52 275.94 259.86 275.94 261.52V672.15L320.52 692.35H331.37C339.79 692.35 346.65 699.2 346.65 707.63V708.58C346.65 710.24 345.31 711.58 343.65 711.58H323.97C323.54 711.58 323.11 711.49 322.72 711.31L267.59 686.1L211.73 711.68C211.34 711.86 210.91 711.95 210.48 711.95H190.79V711.94Z" fill="#253B5A"/>
<path d="M272.94 261.52V674.09L319.89 695.36H331.38C338.16 695.36 343.66 700.85 343.66 707.64V708.59H323.97L267.59 682.81L210.49 708.96H190.8V708C190.8 701.22 196.3 695.72 203.08 695.72H214.32L262.82 673.82V261.52H272.94ZM272.94 255.52H262.8C259.49 255.52 256.8 258.21 256.8 261.52V669.96L213.01 689.73H203.07C192.99 689.73 184.79 697.93 184.79 708.01V708.95C184.79 712.26 187.48 714.95 190.79 714.95H210.48C211.34 714.95 212.19 714.76 212.98 714.41L267.59 689.4L321.47 714.04C322.25 714.4 323.1 714.58 323.96 714.58H343.65C346.96 714.58 349.65 711.89 349.65 708.58V707.63C349.65 697.55 341.45 689.35 331.37 689.35H321.17L278.94 670.21V261.51C278.94 258.2 276.25 255.52 272.94 255.52Z" fill="#0D2232"/>
<path d="M534.23 0.440063H0.209961V265.38H534.23V0.440063Z" fill="white"/>
<path d="M534.23 0.440063H0.209961V21.2601H534.23V0.440063Z" fill="#253B5A"/>
<path d="M534.23 243.27H0.209961V265.37H534.23V243.27Z" fill="#253B5A"/>
<path d="M534.23 243.27H0.209961V265.37H534.23V243.27Z" stroke="#0D2232" stroke-width="6" stroke-miterlimit="10" stroke-linecap="round" stroke-linejoin="round"/>
<path d="M534.23 0.440063H0.209961V265.38H534.23V0.440063Z" stroke="#0D2232" stroke-width="6" stroke-miterlimit="10" stroke-linecap="round" stroke-linejoin="round"/>
<path opacity="0.21" d="M536.59 0.440063H0.209961V10.8501H536.59V0.440063Z" fill="white"/>
<path d="M534.23 0.440063H0.209961V21.2601H534.23V0.440063Z" stroke="#0D2232" stroke-width="6" stroke-miterlimit="10" stroke-linecap="round" stroke-linejoin="round"/>
<path d="M536.59 243.91H2.57007V264.73H536.59V243.91Z" fill="#253B5A"/>
<path opacity="0.21" d="M0.211304 264.733L536.591 264.733V254.323L0.211304 254.323V264.733Z" fill="white"/>
<path d="M536.59 243.91H2.57007V264.73H536.59V243.91Z" stroke="#0D2232" stroke-width="6" stroke-miterlimit="10" stroke-linecap="round" stroke-linejoin="round"/>
<path d="M412.62 316.13C406.72 320.35 401.19 325.02 401.76 328.92C401.76 328.92 388.77 328.55 379.55 328.92C370.33 329.25 359.06 335.07 353.24 335.39C348.94 335.64 331.36 335.68 322.63 337.28C322.63 337.28 320.13 331.58 329.68 331.01C329.68 330.81 329.84 328.51 336.85 327.36C344.19 326.17 360.37 324.82 369.26 322.77C378.16 320.72 412.62 316.13 412.62 316.13Z" fill="#FBC6A6"/>
<path d="M529.46 340.36L497.55 361.07L428.95 342.6L399.91 366.95C399.91 366.95 484.9 412.28 509.21 412.27L534.22 395.49L529.46 340.36Z" fill="#FBC6A6"/>
<path opacity="0.16" d="M424.23 348.78L497.56 366.67L529.46 345.96" stroke="black" stroke-width="6" stroke-miterlimit="10"/>
<path opacity="0.5" d="M534.23 390.49L509.22 407.27C509.22 407.27 479.57 404.32 448.93 387.62C421.54 372.69 403.27 364.45 403.27 364.45" stroke="white" stroke-width="6" stroke-miterlimit="10"/>
<path d="M529.46 340.36L497.55 361.07L428.6 345.52L399.91 366.95C399.91 366.95 484.9 412.28 509.21 412.27L534.22 395.49L529.46 340.36Z" stroke="#0D2232" stroke-width="6" stroke-miterlimit="10" stroke-linecap="round" stroke-linejoin="round"/>
<path d="M552.39 402.11L526.34 413.85L502.99 365.32L496.68 352.19L521.65 340.03L528.53 353.92L552.39 402.11Z" fill="#435F84"/>
<path opacity="0.21" d="M528.53 353.92L528.49 353.96L502.99 365.32L496.68 352.19L521.65 340.03L528.53 353.92Z" fill="white"/>
<path d="M564.87 323.67V390.37L550.04 397.92L528.49 353.96L524 344.78L564.87 323.67Z" fill="#F9DC1B"/>
<path opacity="0.5" d="M564.87 323.67V335.62L528.49 353.96L524 344.78L564.87 323.67Z" fill="white"/>
<path d="M541.27 380.02L564.87 370.65V390.37L550.04 397.92L541.27 380.02Z" fill="#E89F02"/>
<path d="M521.65 340.03L552.39 402.11L526.34 413.86L496.68 352.19L521.65 340.03Z" stroke="#0D2232" stroke-width="6" stroke-miterlimit="10" stroke-linecap="round" stroke-linejoin="round"/>
<path d="M564.87 323.67L524 344.78L550.04 397.92L564.87 390.37V323.67Z" stroke="#0D2232" stroke-width="6" stroke-miterlimit="10"/>
<path d="M553.503 643.609L626.933 643.609L626.933 622.109L553.503 622.109L553.503 643.609Z" fill="#435F84" stroke="#0D2232" stroke-width="6" stroke-miterlimit="10" stroke-linecap="round" stroke-linejoin="round"/>
<path d="M764.42 582.45V623.39L783.7 643.63L802.35 623.39L802.31 522.57H787.2L764.42 582.45Z" fill="#AFCADC"/>
<path d="M783.38 619.47C787.373 619.47 790.61 616.233 790.61 612.24C790.61 608.247 787.373 605.01 783.38 605.01C779.387 605.01 776.15 608.247 776.15 612.24C776.15 616.233 779.387 619.47 783.38 619.47Z" stroke="#0D2232" stroke-width="4" stroke-miterlimit="10" stroke-linecap="round" stroke-linejoin="round"/>
<path opacity="0.2" d="M802.35 523.66H795.7V619.47L783.77 631.4L771.34 618.97V529.92L764.42 530.38V623.39L784.18 643.15L803.15 624.19L802.35 523.66Z" fill="black"/>
<path d="M764.42 582.45V623.39L783.7 643.63L802.35 623.39V523.66H787.24L764.42 582.45Z" stroke="#0D2232" stroke-width="4" stroke-miterlimit="10" stroke-linecap="round" stroke-linejoin="round"/>
<path d="M784.29 132.08C784.29 132.08 778.31 137.43 751.89 139.63C725.46 141.83 539.5 147.42 539.5 147.42L528.05 141.83C528.05 141.83 501.74 140.38 498.01 132.08C494.28 123.78 588.08 90.87 588.08 90.87L706.59 87.25L733.65 98.02L784.29 132.08Z" fill="#CFB300"/>
<path d="M784.29 132.08C784.29 132.08 778.31 137.43 751.89 139.63C725.46 141.83 539.5 147.42 539.5 147.42L528.05 141.83C528.05 141.83 501.74 140.38 498.01 132.08C494.28 123.78 588.08 90.87 588.08 90.87L706.59 87.25L733.65 98.02L784.29 132.08Z" stroke="#0D2232" stroke-width="6" stroke-miterlimit="10" stroke-linecap="round" stroke-linejoin="round"/>
<path d="M529.09 180.85C529.09 180.85 498.9 184.47 502.67 219.39C506.45 254.31 549.93 247.02 549.93 247.02L546.19 196.89L529.09 180.85Z" fill="#FBC6A6" stroke="#0D2232" stroke-width="6" stroke-miterlimit="10"/>
<path d="M760.69 180.85C760.69 180.85 783.66 184.63 785.39 210.11C787.12 235.59 758.78 258.1 736.61 249.2C714.44 240.3 730.8 202.24 730.8 202.24L760.69 180.85Z" fill="#FBC6A6" stroke="#0D2232" stroke-width="6" stroke-miterlimit="10"/>
<path opacity="0.4" d="M758.65 195.95C758.65 195.95 770.58 202.27 765.49 216.01C758.37 235.26 743.86 229.92 743.86 229.92L748.26 206.01L758.65 195.95Z" fill="black"/>
<path opacity="0.4" d="M524.71 195.95C524.71 195.95 512.78 202.27 517.87 216.01C524.99 235.26 539.5 229.92 539.5 229.92L535.1 206.01L524.71 195.95Z" fill="black"/>
<path d="M747.07 184.62V213.29C747.07 213.29 746.81 218.26 744.99 225.95C740.91 243.19 729 274.11 694.63 293.47C689.74 296.22 684.82 298.51 679.89 300.37C665.57 305.78 651.23 307.61 637.56 306.85C608.11 305.21 581.85 291.54 565.96 275.85C540.16 250.37 538.59 211.53 538.59 211.53V157.25L569.11 120.44L725.86 122.33L745.18 144.98L747.07 184.62Z" fill="#FBC6A6"/>
<path opacity="0.5" d="M585.58 279.89C605.9 294.55 624.95 302.04 639.57 305.86C610.12 304.22 583.86 290.55 567.97 274.86C542.17 249.38 540.6 210.54 540.6 210.54V200.94L549.06 194.32C549.05 194.32 541.53 248.11 585.58 279.89Z" fill="white"/>
<path opacity="0.5" d="M741.99 225.95C737.91 243.19 726 274.11 691.63 293.47C686.74 296.22 681.82 298.51 676.89 300.37C694.38 286.74 722.85 261.61 731.58 236.63C734.54 228.18 738.16 225.31 741.99 225.95Z" fill="white"/>
<path d="M784.29 132.08C784.29 132.08 773.28 127.99 758.49 127.99C743.7 127.99 523.65 127.99 523.65 127.99C523.65 127.99 503.67 127.2 498.01 132.08V118.4C498.01 113.1 502.31 108.8 507.61 108.8H774.7C780 108.8 784.3 113.1 784.3 118.4V132.08H784.29Z" fill="#F9DC1B"/>
<path d="M769.06 108.8C769.06 108.91 769.06 108.96 769.06 108.96H641.02V108.8H512.98C512.98 108.8 512.98 108.77 512.98 108.72C512.94 107.67 512.53 97.2301 512.98 92.4501C513.45 87.4101 517.54 87.2601 517.54 87.2601C517.54 87.2601 524.62 24.5001 596.03 3.74007C596.03 3.74007 595.4 -8.84995 607.04 -10.0999C618.68 -11.3499 641.02 -12.9299 641.02 -12.9299V-12.7699C641.02 -12.7699 663.35 -11.1999 674.99 -9.93994C686.63 -8.67994 686 3.90005 686 3.90005C757.41 24.6601 764.49 87.4201 764.49 87.4201C764.49 87.4201 768.58 87.5801 769.05 92.6101C769.5 97.2801 769.12 107.41 769.06 108.8Z" fill="#F9DC1B"/>
<path opacity="0.73" d="M769.06 108.8H758.18C758.18 108.8 752.67 44.6201 686.14 12.5301L686.1 5.27007C686.1 5.27007 633.93 -11.0699 595.91 6.55006L596.39 16.9401C596.39 16.9401 537.34 33.2901 522.87 108.48L512.98 108.71C512.94 107.66 512.53 97.2201 512.98 92.4401C513.45 87.4001 517.54 87.2501 517.54 87.2501C517.54 87.2501 524.62 24.4901 596.03 3.73006C596.03 3.73006 595.4 -8.85994 607.04 -10.1099C618.68 -11.3599 641.02 -12.9399 641.02 -12.9399V-12.7799C641.02 -12.7799 663.35 -11.2099 674.99 -9.94994C686.63 -8.68994 686 3.89006 686 3.89006C757.41 24.6501 764.49 87.4101 764.49 87.4101C764.49 87.4101 768.58 87.5701 769.05 92.6001C769.5 97.2801 769.12 107.41 769.06 108.8Z" fill="white"/>
<path d="M769.06 92.6001C768.59 87.5701 764.5 87.4101 764.5 87.4101C764.5 87.4101 757.42 24.6501 686.01 3.89006C686.01 3.89006 686.64 -8.68994 675 -9.94994C663.36 -11.2099 641.02 -12.7799 641.02 -12.7799V-12.9399C641.02 -12.9399 618.68 -11.3699 607.04 -10.1099C595.4 -8.84994 596.03 3.73006 596.03 3.73006C524.62 24.4901 517.54 87.2501 517.54 87.2501C517.54 87.2501 513.45 87.4101 512.98 92.4401C512.51 97.4701 512.98 108.8 512.98 108.8H641.02V108.96H769.06C769.06 108.96 769.53 97.6401 769.06 92.6001Z" stroke="#0D2232" stroke-width="6" stroke-miterlimit="10" stroke-linecap="round" stroke-linejoin="round"/>
<path d="M685.38 316.86H715.71V482.54H565.96V316.86H685.38Z" fill="white"/>
<path d="M689.18 323.67H595.64V424.55H689.18V323.67Z" fill="#F9DC1B"/>
<path d="M715.71 445.73H565.96V482.54H715.71V445.73Z" fill="#F9DC1B"/>
<path d="M667.15 304.8C667.15 304.8 637.77 311.09 617.75 304.8L610.83 335.74L629.08 342.55C629.08 342.55 641.15 347.58 655.83 342.55C670.51 337.52 675.13 322.84 675.13 322.84L667.15 304.8Z" fill="#FBC6A6" stroke="#0D2232" stroke-width="6" stroke-miterlimit="10"/>
<path d="M686.2 338.83C685.41 350.68 683.51 361.64 683.51 361.64L655.82 342.55C655.82 342.55 658.99 335.04 661.6 327.6C663.12 323.25 664.46 318.91 664.84 316.12C665.89 308.57 667.15 304.8 667.15 304.8C667.15 304.8 683.3 303.96 685.81 318.85C686.76 324.41 686.68 331.77 686.2 338.83Z" fill="#435F84"/>
<path d="M686.2 338.83C679.07 338.3 670.77 334.75 666.49 331.71C664.77 330.48 663.09 329.12 661.6 327.6C663.12 323.25 664.46 318.91 664.84 316.12C665.89 308.57 667.15 304.8 667.15 304.8C667.15 304.8 683.3 303.96 685.81 318.85C686.76 324.41 686.68 331.77 686.2 338.83Z" fill="#253B5A"/>
<path d="M667.15 304.8C667.15 304.8 683.3 303.96 685.82 318.85C688.34 333.74 683.51 361.63 683.51 361.63L655.83 342.54C655.83 342.54 663.8 323.66 664.85 316.11C665.9 308.56 667.15 304.8 667.15 304.8Z" stroke="#0D2232" stroke-width="6" stroke-miterlimit="10"/>
<path d="M598.71 338.83C599.5 350.68 601.4 361.64 601.4 361.64L629.09 342.55C629.09 342.55 625.92 335.04 623.31 327.6C621.79 323.25 620.45 318.91 620.07 316.12C619.02 308.57 617.76 304.8 617.76 304.8C617.76 304.8 601.61 303.96 599.1 318.85C598.15 324.41 598.23 331.77 598.71 338.83Z" fill="#435F84"/>
<path d="M598.71 338.83C605.84 338.3 614.14 334.75 618.42 331.71C620.14 330.48 621.82 329.12 623.31 327.6C621.79 323.25 620.45 318.91 620.07 316.12C619.02 308.57 617.76 304.8 617.76 304.8C617.76 304.8 601.61 303.96 599.1 318.85C598.15 324.41 598.23 331.77 598.71 338.83Z" fill="#253B5A"/>
<path d="M617.75 304.8C617.75 304.8 601.6 303.96 599.08 318.85C596.56 333.74 601.39 361.63 601.39 361.63L629.07 342.54C629.07 342.54 621.1 323.66 620.05 316.11C619 308.56 617.75 304.8 617.75 304.8Z" stroke="#0D2232" stroke-width="6" stroke-miterlimit="10"/>
<path d="M620.59 376.31H581.58V411.96H620.59V376.31Z" fill="#F9DC1B" stroke="#0D2232" stroke-width="6" stroke-miterlimit="10"/>
<path d="M620.59 390.37H581.58" stroke="#0D2232" stroke-width="6" stroke-miterlimit="10"/>
<path d="M686 3.89001C686 3.89001 687.1 14.43 682.85 35.98L686 3.89001Z" fill="#F9DC1B"/>
<path d="M686 3.89001C686 3.89001 687.1 14.43 682.85 35.98" stroke="#0D2232" stroke-width="6" stroke-miterlimit="10" stroke-linecap="round" stroke-linejoin="round"/>
<path d="M764.49 87.41H732.06C728.63 87.41 725.85 90.19 725.85 93.62V108.96" stroke="#0D2232" stroke-width="6" stroke-miterlimit="10" stroke-linecap="round" stroke-linejoin="round"/>
<path d="M596.03 3.7301C596.03 3.7301 594.93 14.2701 599.18 35.8201L596.03 3.7301Z" fill="#F9DC1B"/>
<path d="M596.03 3.7301C596.03 3.7301 594.93 14.2701 599.18 35.8201" stroke="#0D2232" stroke-width="6" stroke-miterlimit="10" stroke-linecap="round" stroke-linejoin="round"/>
<path d="M517.54 87.25H549.97C553.4 87.25 556.18 90.03 556.18 93.46V108.8" stroke="#0D2232" stroke-width="6" stroke-miterlimit="10" stroke-linecap="round" stroke-linejoin="round"/>
<path opacity="0.74" d="M770.91 118.19C764.45 115.73 757.35 115.78 750.45 115.85C700 116.39 649.55 116.92 599.1 117.46C576.68 117.7 554.27 117.94 531.85 118.18C521.9 118.29 510.74 118.91 504.04 126.25C502.72 127.7 501.43 129.48 499.49 129.77C496.53 130.22 494.34 126.78 494.28 123.79C494.16 118.18 498.48 113.23 503.58 110.87C508.68 108.52 514.46 108.24 520.07 108.05C603.17 105.22 686.51 113.29 769.43 107.16C774.22 106.81 779.88 106.78 782.75 110.64C784.33 112.77 784.59 115.58 784.8 118.23C785 120.9 787.18 130.86 781.81 127.05C780.07 125.82 778.87 123.13 777.07 121.69C775.23 120.22 773.12 118.96 770.91 118.19Z" fill="white"/>
<path d="M784.29 132.08C784.29 132.08 773.28 127.99 758.49 127.99C743.7 127.99 523.65 127.99 523.65 127.99C523.65 127.99 503.67 127.2 498.01 132.08V118.4C498.01 113.1 502.31 108.8 507.61 108.8H774.7C780 108.8 784.3 113.1 784.3 118.4V132.08H784.29Z" stroke="#0D2232" stroke-width="6" stroke-miterlimit="10" stroke-linecap="round" stroke-linejoin="round"/>
<path d="M547.01 162.08C547.01 162.08 546.47 191.07 547.01 199.41C547.55 207.75 541.89 215.3 533.24 209.48C524.59 203.66 526.27 169.06 526.27 169.06C526.27 169.06 535.25 169.47 547.01 162.08Z" fill="#253B5A" stroke="#0D2232" stroke-width="6" stroke-miterlimit="10"/>
<path d="M594.46 216.07C603.319 216.07 610.5 208.889 610.5 200.03C610.5 191.171 603.319 183.99 594.46 183.99C585.601 183.99 578.42 191.171 578.42 200.03C578.42 208.889 585.601 216.07 594.46 216.07Z" fill="#0D2232"/>
<path d="M693.2 216.07C702.059 216.07 709.24 208.889 709.24 200.03C709.24 191.171 702.059 183.99 693.2 183.99C684.341 183.99 677.16 191.171 677.16 200.03C677.16 208.889 684.341 216.07 693.2 216.07Z" fill="#0D2232"/>
<path d="M715.71 482.54H565.96V516.41H715.71V482.54Z" fill="#253B5A" stroke="#0D2232" stroke-width="6" stroke-miterlimit="10"/>
<path d="M666.53 482.54H619.13V516.41H666.53V482.54Z" fill="#C3CDD4" stroke="#0D2232" stroke-width="6" stroke-miterlimit="10"/>
<path d="M784.52 693H787.88C789.5 693 790.82 694.31 790.82 695.94V704.59C790.82 706.99 788.87 708.94 786.47 708.94H710.08L694.46 698.45V708.94H655.7C653.3 708.94 651.35 706.99 651.35 704.59V688.13C651.35 685.84 653.21 683.98 655.5 683.99H656.94L758.57 683.1L784.52 693Z" fill="#484D60" stroke="#0D2232" stroke-width="6" stroke-miterlimit="10" stroke-linecap="round" stroke-linejoin="round"/>
<path d="M786.1 689.23L784.53 693H714.53L696.44 683.98H656.94C656.94 683.98 655.13 675.28 656.65 664.5C657.59 657.81 659.82 650.32 664.56 643.61H724.75L729.47 648.65C729.47 648.65 737.96 648.96 738.59 656.83C738.59 656.83 740.08 656.08 742.65 655.26C747.72 653.64 756.98 651.71 767.22 654.63C782.64 659.03 789.87 678.85 786.1 689.23Z" fill="#E89F02"/>
<path d="M680.08 683.99H656.94C656.94 683.99 655.13 675.29 656.65 664.51C656.74 664.5 656.84 664.5 656.94 664.49C680.04 663.33 680.08 683.99 680.08 683.99Z" fill="#834526"/>
<path opacity="0.75" d="M786.1 689.23L784.53 693H774.46C774.46 693 783.42 660.71 742.66 655.25C747.73 653.63 756.99 651.7 767.23 654.62C782.64 659.03 789.87 678.85 786.1 689.23Z" fill="white"/>
<path d="M724.75 643.61L729.47 648.64C729.47 648.64 737.96 648.95 738.59 656.82C738.59 656.82 751.8 650.21 767.22 654.62C782.64 659.02 789.87 678.84 786.1 689.23L784.53 693.01H714.53L696.44 683.99H656.94C656.94 683.99 652.19 661.13 664.56 643.62H724.75V643.61Z" stroke="#0D2232" stroke-width="6" stroke-miterlimit="10" stroke-linecap="round" stroke-linejoin="round"/>
<path d="M738.59 656.83C738.59 656.83 718.35 663.44 714.52 693.01" stroke="#0D2232" stroke-width="6" stroke-miterlimit="10" stroke-linecap="round" stroke-linejoin="round"/>
<path d="M729.47 648.65C729.47 648.65 715.31 651.48 710.07 664.48" stroke="#0D2232" stroke-width="6" stroke-miterlimit="10" stroke-linecap="round" stroke-linejoin="round"/>
<path d="M729.47 622.12H656.04V643.62H729.47V622.12Z" fill="#435F84" stroke="#0D2232" stroke-width="6" stroke-miterlimit="10" stroke-linecap="round" stroke-linejoin="round"/>
<path d="M722.86 622.12L714.37 516.41H641.49V536.97L651.35 536.34L661.83 622.12H722.86Z" fill="#435F84" stroke="#0D2232" stroke-width="6" stroke-miterlimit="10" stroke-linecap="round" stroke-linejoin="round"/>
<path d="M498.45 693H495.09C493.47 693 492.15 694.31 492.15 695.94V704.59C492.15 706.99 494.1 708.94 496.5 708.94H572.89L588.51 698.45V708.94H627.26C629.66 708.94 631.61 706.99 631.61 704.59V688.13C631.61 685.84 629.75 683.98 627.46 683.99H626.02L524.39 683.1L498.45 693Z" fill="#484D60" stroke="#0D2232" stroke-width="6" stroke-miterlimit="10" stroke-linecap="round" stroke-linejoin="round"/>
<path d="M496.88 689.23L498.45 693H568.45L586.54 683.98H626.04C626.04 683.98 627.85 675.28 626.33 664.5C625.39 657.81 623.16 650.32 618.42 643.61H558.23L553.51 648.65C553.51 648.65 545.02 648.96 544.39 656.83C544.39 656.83 542.9 656.08 540.33 655.26C535.26 653.64 526 651.71 515.76 654.63C500.34 659.03 493.1 678.85 496.88 689.23Z" fill="#E89F02"/>
<path d="M602.9 683.99H626.04C626.04 683.99 627.85 675.29 626.33 664.51C626.24 664.5 626.14 664.5 626.04 664.49C602.94 663.33 602.9 683.99 602.9 683.99Z" fill="#834526"/>
<path opacity="0.75" d="M496.88 689.23L498.45 693H508.52C508.52 693 499.56 660.71 540.32 655.25C535.25 653.63 525.99 651.7 515.75 654.62C500.34 659.03 493.1 678.85 496.88 689.23Z" fill="white"/>
<path d="M558.23 643.61L553.51 648.64C553.51 648.64 545.02 648.95 544.39 656.82C544.39 656.82 531.18 650.21 515.76 654.62C500.34 659.02 493.11 678.84 496.88 689.23L498.45 693.01H568.45L586.54 683.99H626.04C626.04 683.99 630.79 661.13 618.42 643.62H558.23V643.61Z" stroke="#0D2232" stroke-width="6" stroke-miterlimit="10" stroke-linecap="round" stroke-linejoin="round"/>
<path d="M544.38 656.83C544.38 656.83 564.62 663.44 568.45 693.01" stroke="#0D2232" stroke-width="6" stroke-miterlimit="10" stroke-linecap="round" stroke-linejoin="round"/>
<path d="M553.51 648.65C553.51 648.65 567.67 651.48 572.91 664.48" stroke="#0D2232" stroke-width="6" stroke-miterlimit="10" stroke-linecap="round" stroke-linejoin="round"/>
<path d="M560.11 622.12L568.61 516.41H641.49V536.97L631.63 536.34L621.14 622.12H560.11Z" fill="#435F84" stroke="#0D2232" stroke-width="6" stroke-miterlimit="10" stroke-linecap="round" stroke-linejoin="round"/>
<g opacity="0.16">
<path d="M545.88 127.99H747.07L751.89 139.63H539.5L545.88 127.99Z" fill="black"/>
<path d="M526.27 169.06C526.27 169.06 561.89 177.84 597.54 139.64L565.96 134.85L526.27 169.06Z" fill="black"/>
<path d="M613.46 166.37C613.46 166.37 666.61 175.19 700.68 133.81L671.18 134.84L613.46 166.37Z" fill="black"/>
</g>
<path opacity="0.16" d="M743.86 192.43C743.86 192.43 726.56 289.81 623.3 302.33C623.3 302.33 731.43 317.69 744.8 213.24L743.86 192.43Z" fill="black"/>
<path d="M709.68 464.14H571.87V476.43H709.68V464.14Z" fill="#E89F02"/>
<path d="M685.8 316.86H716.24V482.54H565.96V316.86H595.74" stroke="#0D2232" stroke-width="6" stroke-miterlimit="10"/>
<path d="M578.86 127.99C578.86 127.99 551.8 174.24 519.71 168.57C516.8 168.05 514.18 167.47 511.85 166.85C488.5 160.57 492.66 149.44 492.66 149.44C492.66 149.44 512.18 154.8 525.69 129.81C526.01 129.22 526.32 128.62 526.63 128H578.86V127.99Z" fill="#253B5A"/>
<path opacity="0.21" d="M517.54 151.9C508.55 157.4 504.93 157.25 504.93 157.25C504.93 157.25 503.83 161.82 511.85 166.85C488.5 160.57 492.66 149.44 492.66 149.44C492.66 149.44 514.54 152.98 528.05 127.99C528.07 128.33 526.43 146.46 517.54 151.9Z" fill="white"/>
<path d="M791.21 153.79C791.21 153.79 777.85 174.52 754.54 169.81C741.19 167.11 724.57 156.06 705.32 128L762.88 128.12C762.88 128.12 763.06 131.01 764.28 134.85C766.74 142.52 773.38 154 791.21 153.79Z" fill="#253B5A"/>
<path opacity="0.21" d="M791.21 153.79C791.21 153.79 777.85 174.52 754.54 169.81C757.2 169.05 759.78 167.96 762.25 166.73C767.23 164.24 771.89 161.15 776.84 158.6C771.34 158.34 766.44 154.28 764.28 149.21C762.76 145.63 761.7 139.66 763.44 135.97C763.67 135.48 763.97 135.11 764.3 134.86C766.74 142.52 773.38 154 791.21 153.79Z" fill="white"/>
<path d="M762.89 128.11C762.89 128.11 764.47 154.1 791.21 153.79C791.21 153.79 758.18 205.07 705.33 127.99L762.89 128.11Z" stroke="#0D2232" stroke-width="6" stroke-miterlimit="10" stroke-linecap="round" stroke-linejoin="round"/>
<path d="M678.58 127.99C678.58 127.99 666.31 161.34 613.46 166.37C613.46 166.37 622.58 150.01 622.58 127.99H678.58Z" fill="#253B5A" stroke="#0D2232" stroke-width="6" stroke-miterlimit="10" stroke-linecap="round" stroke-linejoin="round"/>
<path d="M578.86 127.99C578.86 127.99 551.8 174.24 519.72 168.57C487.64 162.9 492.66 149.43 492.66 149.43C492.66 149.43 513.11 155.04 526.64 127.98H578.86V127.99Z" stroke="#0D2232" stroke-width="6" stroke-miterlimit="10" stroke-linecap="round" stroke-linejoin="round"/>
<path d="M747.07 213.29C747.07 213.29 744.34 265.47 694.63 293.47C644.92 321.47 591.76 301.33 565.96 275.85C540.16 250.37 538.59 211.53 538.59 211.53" stroke="#0D2232" stroke-width="6" stroke-miterlimit="10"/>
<path d="M760.69 170.5C760.69 170.5 760.22 197.21 759.12 202.4C758.02 207.59 753.46 214.04 744.81 213.25C736.16 212.46 736.47 201.3 736.32 193.43C736.16 185.57 736.32 161.54 736.32 161.54C736.32 161.54 748.11 170.85 760.69 170.5Z" fill="#253B5A" stroke="#0D2232" stroke-width="6" stroke-miterlimit="10" stroke-linecap="round" stroke-linejoin="round"/>
<path d="M659.33 516.41L682.18 643.61H664.56H656.04V622.12H661.83L651.35 533L641.49 536.97V516.41H659.33Z" fill="#253B5A"/>
<path d="M605.33 622.12L601.09 643.61H626.94V622.12H621.14L631.63 533L641.49 536.97V516.41H619.13L605.33 622.12Z" fill="#253B5A"/>
<path d="M651.35 536.34L663.72 534.87" stroke="#0D2232" stroke-width="6" stroke-miterlimit="10" stroke-linecap="round" stroke-linejoin="round"/>
<path d="M631.63 536.34L619.26 534.87" stroke="#0D2232" stroke-width="6" stroke-miterlimit="10" stroke-linecap="round" stroke-linejoin="round"/>
<path d="M714.37 516.41H700.9L710.07 622.12H716.24V643.61H729.47V622.12H722.86L714.37 516.41Z" fill="#C3CDD4"/>
<path d="M569.27 516.41H582.73L573.57 622.12H567.4V643.61H554.17V622.12H560.77L569.27 516.41Z" fill="#C3CDD4"/>
<path d="M729.47 622.12H656.04V643.62H729.47V622.12Z" stroke="#0D2232" stroke-width="6" stroke-miterlimit="10" stroke-linecap="round" stroke-linejoin="round"/>
<path d="M722.86 622.12L714.37 516.41H641.49V536.97L651.35 536.34L661.83 622.12H722.86Z" stroke="#0D2232" stroke-width="6" stroke-miterlimit="10" stroke-linecap="round" stroke-linejoin="round"/>
<path d="M560.11 622.12L568.61 516.41H641.49V536.97L631.63 536.34L621.14 622.12H560.11Z" stroke="#0D2232" stroke-width="6" stroke-miterlimit="10" stroke-linecap="round" stroke-linejoin="round"/>
<path d="M792.35 529.09H775.15V594.23H792.35V529.09Z" fill="#E89F02"/>
<path d="M881.79 508.34V518.68C881.79 521.43 879.55 523.66 876.8 523.66H798.33C795.58 523.66 793.35 521.43 793.35 518.68V508.34C793.35 507.74 793.46 507.16 793.65 506.63C794.34 504.72 796.18 503.35 798.33 503.35H876.8C878.95 503.35 880.79 504.72 881.49 506.63C881.68 507.16 881.79 507.74 881.79 508.34Z" fill="#AFCADC"/>
<path opacity="0.2" d="M793.35 517.58V518.68C793.35 521.43 795.58 523.67 798.33 523.67H876.8C879.55 523.67 881.78 521.44 881.78 518.68V517.58H793.35Z" fill="black"/>
<path opacity="0.7" d="M881.49 506.63H793.65C794.34 504.72 796.18 503.35 798.33 503.35H876.8C878.96 503.35 880.79 504.71 881.49 506.63Z" fill="white"/>
<path d="M881.79 508.34V518.68C881.79 521.43 879.55 523.66 876.8 523.66H798.33C795.58 523.66 793.35 521.43 793.35 518.68V508.34C793.35 507.74 793.46 507.16 793.65 506.63C794.34 504.72 796.18 503.35 798.33 503.35H876.8C878.95 503.35 880.79 504.72 881.49 506.63C881.68 507.16 881.79 507.74 881.79 508.34Z" stroke="#0D2232" stroke-width="4" stroke-miterlimit="10" stroke-linecap="round" stroke-linejoin="round"/>
<path d="M707.85 522.02C707.85 522.02 729.06 538.73 793.35 532.31" stroke="white" stroke-miterlimit="10"/>
<path d="M689.85 482.16V570.88L701.42 582.45H780.49L769.88 574.09L770.52 482.16H689.85Z" fill="#F9DC1B"/>
<path d="M699.49 482.16V565.32L706.24 574.09H787.24L780.49 582.45H701.42L689.85 570.88V482.16H699.49Z" fill="#E89F02"/>
<path d="M702.06 494.52H696.92V499.66H702.06V494.52Z" fill="white"/>
<path d="M702.06 510.93H696.92V516.07H702.06V510.93Z" fill="white"/>
<path d="M702.06 527.35H696.92V532.49H702.06V527.35Z" fill="white"/>
<path d="M702.06 543.76H696.92V548.9H702.06V543.76Z" fill="white"/>
<path d="M702.06 560.17H696.92V565.31H702.06V560.17Z" fill="white"/>
<path d="M770.52 517.2V482.16H689.85V570.88L701.42 582.45H773.42" stroke="#0D2232" stroke-width="4" stroke-miterlimit="10" stroke-linecap="round" stroke-linejoin="round"/>
<path d="M553.503 643.609L626.933 643.609L626.933 622.109L553.503 622.109L553.503 643.609Z" stroke="#0D2232" stroke-width="6" stroke-miterlimit="10" stroke-linecap="round" stroke-linejoin="round"/>
<path d="M782.74 360.55C782.74 360.55 810.38 376.62 804.6 397.84C798.82 419.06 757.67 447.34 757.67 447.34C757.67 447.34 755.74 423.55 726.81 418.41L744.81 400.41L782.74 360.55Z" fill="#FBC6A6"/>
<path d="M726.81 418.4L717.81 423.86V479.79H758.31L757.67 447.33C757.67 447.33 755.1 422.9 726.81 418.4Z" fill="#FBC6A6"/>
<path opacity="0.16" d="M778.69 364.81C778.69 364.81 804.17 377.25 798.52 397.97C792.87 418.7 757.22 440.72 757.22 440.72" stroke="black" stroke-width="6" stroke-miterlimit="10"/>
<path opacity="0.16" d="M754.31 479.8L753.67 434.75" stroke="black" stroke-width="6" stroke-miterlimit="10"/>
<path opacity="0.5" d="M732.98 418.97L788.12 362.05" stroke="white" stroke-width="6" stroke-miterlimit="10"/>
<path opacity="0.5" d="M722.98 420.12V481.36" stroke="white" stroke-width="6" stroke-miterlimit="10"/>
<path d="M782.74 360.55C782.74 360.55 810.38 376.62 804.6 397.84C798.82 419.06 757.67 447.34 757.67 447.34C757.67 447.34 755.74 423.55 726.81 418.41L744.81 400.41L782.74 360.55Z" stroke="#0D2232" stroke-width="6" stroke-miterlimit="10" stroke-linecap="round" stroke-linejoin="round"/>
<path d="M726.81 418.4L717.81 423.86V479.79H758.31L757.67 447.33C757.67 447.33 755.1 422.9 726.81 418.4Z" stroke="#0D2232" stroke-width="6" stroke-miterlimit="10" stroke-linecap="round" stroke-linejoin="round"/>
<path d="M728.5 402.11L754.09 413.85L777.04 365.32L783.24 352.19L758.71 340.03L751.95 353.92L728.5 402.11Z" fill="#435F84"/>
<path opacity="0.21" d="M751.95 353.92L751.98 353.96L777.04 365.32L783.24 352.19L758.71 340.03L751.95 353.92Z" fill="white"/>
<path d="M716.23 323.67V390.37L730.81 397.92L751.98 353.96L756.4 344.78L716.23 323.67Z" fill="#F9DC1B"/>
<path opacity="0.5" d="M716.23 323.67V335.62L751.98 353.96L756.4 344.78L716.23 323.67Z" fill="white"/>
<path d="M739.43 380.02L716.24 370.65V390.37L730.81 397.92L739.43 380.02Z" fill="#E89F02"/>
<path d="M758.71 340.03L728.5 402.11L754.09 413.86L783.24 352.19L758.71 340.03Z" stroke="#0D2232" stroke-width="6" stroke-miterlimit="10" stroke-linecap="round" stroke-linejoin="round"/>
<path d="M716.24 323.67L756.4 344.78L730.81 397.92L716.24 390.37V323.67Z" stroke="#0D2232" stroke-width="6" stroke-miterlimit="10"/>
<path d="M719.41 437.67V454.93C719.41 456.27 718.32 457.36 716.99 457.36H707.62C706.28 457.36 705.19 456.27 705.19 454.93V437.67C705.19 436.33 706.28 435.25 707.62 435.25H716.99C718.32 435.24 719.41 436.33 719.41 437.67Z" fill="#AFCADC"/>
<path d="M716.98 457.53H707.61C706.18 457.53 705.01 456.37 705.01 454.93V437.67C705.01 436.24 706.17 435.08 707.61 435.08H716.98C718.41 435.08 719.57 436.24 719.57 437.67V454.93C719.58 456.36 718.41 457.53 716.98 457.53ZM707.62 435.41C706.38 435.41 705.36 436.42 705.36 437.66V454.92C705.36 456.16 706.37 457.18 707.62 457.18H716.99C718.23 457.18 719.24 456.17 719.24 454.92V437.66C719.24 436.42 718.23 435.41 716.99 435.41H707.62Z" fill="#000072"/>
<g opacity="0.2">
<path d="M719.41 451.1V454.93C719.41 456.27 718.32 457.36 716.99 457.36H707.62C706.28 457.36 705.19 456.27 705.19 454.93V451.1C705.19 452.44 706.28 453.53 707.62 453.53H716.99C718.32 453.52 719.41 452.44 719.41 451.1Z" fill="black"/>
</g>
<g opacity="0.55">
<path d="M719.41 437.67V440.38C719.41 439.04 718.32 437.96 716.99 437.96H707.62C706.28 437.96 705.19 439.05 705.19 440.38V437.67C705.19 436.33 706.28 435.25 707.62 435.25H716.99C718.32 435.24 719.41 436.33 719.41 437.67Z" fill="white"/>
</g>
<path d="M729.86 452.7H719.41V440.43H728.28L729.86 452.7Z" fill="#AFCADC"/>
<path d="M730.05 452.87H719.24V440.26H728.43L730.05 452.87ZM719.58 452.53H729.67L728.13 440.6H719.58V452.53Z" fill="#000072"/>
<path d="M779.02 450.89C778.87 452.64 776.81 453.51 775.48 452.36C768.01 445.94 756.97 449.56 754.72 458.72C754.34 460.25 753 461.33 751.43 461.33H733.96C732.26 461.33 730.82 460.07 730.61 458.38L729.88 452.7L728.3 440.43L727.77 436.29C727.51 434.27 729.09 432.47 731.13 432.47H759.78C771.37 432.48 779.79 441.43 779.02 450.89Z" fill="#AFCADC"/>
<path d="M751.42 461.5H733.95C732.17 461.5 730.65 460.17 730.43 458.4L727.58 436.31C727.45 435.3 727.76 434.28 728.44 433.51C729.11 432.74 730.09 432.3 731.11 432.3H759.76C765.59 432.3 771.06 434.61 774.77 438.63C777.99 442.13 779.57 446.48 779.2 450.89C779.13 451.77 778.57 452.53 777.76 452.86C776.94 453.2 776.05 453.05 775.38 452.47C771.91 449.49 767.34 448.52 763.13 449.86C759.01 451.18 755.93 454.5 754.89 458.74C754.48 460.38 753.06 461.5 751.42 461.5ZM731.1 432.65C730.18 432.65 729.3 433.05 728.69 433.74C728.08 434.43 727.8 435.36 727.92 436.27L730.77 458.36C730.98 459.96 732.35 461.16 733.96 461.16H751.43C752.91 461.16 754.2 460.14 754.56 458.68C755.63 454.32 758.79 450.91 763.02 449.55C767.34 448.17 772.04 449.17 775.59 452.22C776.16 452.71 776.92 452.84 777.62 452.55C778.33 452.26 778.79 451.63 778.85 450.87C779.2 446.55 777.66 442.29 774.5 438.87C770.86 434.92 765.48 432.65 759.74 432.65H731.1Z" fill="#000072"/>
<g opacity="0.2">
<path d="M779.02 450.89C778.87 452.64 776.81 453.51 775.48 452.36C768.01 445.94 756.97 449.56 754.72 458.72C754.34 460.25 753 461.33 751.43 461.33H733.96C732.26 461.33 730.82 460.07 730.61 458.38L730.43 457.02C730.88 457.24 731.37 457.36 731.9 457.36H749.37C750.94 457.36 752.29 456.27 752.66 454.75C754.91 445.59 765.95 441.96 773.42 448.39C774.75 449.54 776.81 448.67 776.96 446.92C777.14 444.76 776.83 442.62 776.12 440.61C778.23 443.63 779.32 447.22 779.02 450.89Z" fill="black"/>
</g>
<g opacity="0.55">
<path d="M774.94 439.11C771.6 436.46 767.18 434.79 762.17 434.79H733.52C731.48 434.79 729.9 436.58 730.16 438.61L730.69 442.75L732.27 455.02L733 460.7C733.02 460.89 733.06 461.07 733.12 461.24C731.79 460.92 730.76 459.8 730.57 458.39L729.84 452.71L728.26 440.44L727.73 436.3C727.47 434.28 729.05 432.48 731.09 432.48H759.74C766.09 432.48 771.48 435.15 774.94 439.11Z" fill="white"/>
</g>
<g opacity="0.55">
<path d="M719.41 440.38H705.76V444.16H719.41V440.38Z" fill="white"/>
</g>
<path d="M751.12 461.33H735.04V502.37H751.12V461.33Z" fill="#435F84" stroke="#0D2232" stroke-width="4" stroke-miterlimit="10" stroke-linecap="round" stroke-linejoin="round"/>
<g opacity="0.2">
<path d="M735.08 468.54C735.55 468.55 735.97 468.72 736.36 468.93C736.75 469.14 737.11 469.41 737.45 469.7C738.13 470.27 738.75 470.91 739.26 471.65C740.28 473.11 740.86 474.76 741.88 476.05C742.38 476.69 743.01 477.21 743.73 477.6C744.45 477.98 745.25 478.24 746.06 478.41C746.88 478.58 747.72 478.68 748.57 478.76C748.99 478.8 749.42 478.83 749.85 478.84C750.28 478.87 750.72 478.93 751.12 479.21C751.18 479.25 751.19 479.33 751.15 479.39C751.14 479.41 751.12 479.42 751.1 479.43H751.09C750.63 479.63 750.22 479.59 749.79 479.56C749.37 479.5 748.94 479.47 748.51 479.43C747.65 479.35 746.78 479.25 745.92 479.07C745.06 478.89 744.2 478.62 743.41 478.2C742.62 477.78 741.9 477.18 741.34 476.47C740.22 475.05 739.65 473.39 738.69 472.04C738.21 471.37 737.65 470.75 736.99 470.25C736.66 470 736.32 469.77 735.97 469.54C735.63 469.31 735.28 469.08 734.97 468.75C734.92 468.7 734.92 468.63 734.97 468.58C735.02 468.55 735.05 468.53 735.08 468.54Z" fill="#371A45"/>
<path d="M751.13 476C750.25 476.48 749.22 476.5 748.25 476.36C747.28 476.22 746.32 475.98 745.44 475.53C744.99 475.32 744.58 475.04 744.19 474.74C743.81 474.42 743.44 474.08 743.15 473.67C742.52 472.88 742.19 471.89 742 470.95C741.81 470 741.72 469.07 741.46 468.21C741.33 467.78 741.16 467.38 740.92 467.01C740.81 466.82 740.67 466.65 740.54 466.48C740.39 466.32 740.25 466.15 740.08 466.01C739.43 465.41 738.61 465 737.75 464.79C737.32 464.68 736.87 464.64 736.44 464.67C736 464.7 735.59 464.77 735.09 464.7H735.08C735.06 464.7 735.03 464.69 735 464.68L734.98 464.67C734.91 464.65 734.87 464.59 734.89 464.52C734.9 464.5 734.91 464.48 734.92 464.46C734.95 464.43 734.97 464.41 735 464.39H734.99C735.39 464.05 735.92 463.94 736.42 463.94C736.92 463.96 737.42 463.99 737.91 464.12C738.88 464.35 739.8 464.82 740.54 465.49C741.29 466.14 741.85 467.06 742.12 468C742.4 468.95 742.49 469.9 742.67 470.8C742.85 471.7 743.14 472.55 743.69 473.24C743.95 473.6 744.28 473.9 744.62 474.19C744.98 474.46 745.35 474.71 745.76 474.9C746.56 475.3 747.45 475.55 748.35 475.64C748.57 475.67 748.8 475.66 749.03 475.68C749.26 475.67 749.48 475.69 749.71 475.68C750.16 475.69 750.61 475.64 751.11 475.75H751.12C751.18 475.76 751.22 475.83 751.21 475.89C751.18 475.96 751.16 475.98 751.13 476Z" fill="#371A45"/>
<path d="M751.14 471.31C750.88 471.56 750.56 471.67 750.23 471.72C750.07 471.75 749.9 471.76 749.73 471.75C749.56 471.74 749.4 471.72 749.24 471.71C748.59 471.62 747.95 471.45 747.36 471.17C746.18 470.62 745.16 469.74 744.45 468.66C743.73 467.58 743.32 466.32 743.17 465.05C743.1 464.41 743.09 463.77 743.14 463.14C743.16 462.82 743.21 462.51 743.24 462.19C743.27 461.87 743.34 461.56 743.58 461.29V461.31C743.62 461.27 743.65 461.22 743.7 461.19C743.77 461.14 743.86 461.16 743.91 461.22L743.92 461.23V461.24C743.95 461.29 743.96 461.33 743.98 461.37V461.39C744.07 461.72 744.01 462.01 743.94 462.3C743.87 462.59 743.84 462.89 743.82 463.19C743.77 463.79 743.78 464.38 743.85 464.98C743.98 466.16 744.37 467.31 745.02 468.29C745.67 469.27 746.59 470.07 747.65 470.56C748.18 470.8 748.74 470.98 749.32 471.01C749.61 471.02 749.89 471.03 750.18 471.02C750.47 471.02 750.75 471.01 751.09 471.09C751.16 471.11 751.2 471.18 751.18 471.25C751.17 471.27 751.16 471.29 751.14 471.31Z" fill="#371A45"/>
<path d="M747.06 461.39C747.11 461.65 747.05 461.85 746.98 462.04C746.91 462.23 746.82 462.4 746.74 462.58C746.58 462.94 746.48 463.31 746.42 463.69C746.32 464.43 746.47 465.22 746.89 465.81C747.1 466.1 747.38 466.33 747.7 466.47C748.02 466.61 748.39 466.67 748.76 466.65C749.13 466.64 749.51 466.56 749.87 466.44C750.05 466.39 750.23 466.28 750.4 466.18C750.58 466.09 750.76 466.02 751.05 466.14H751.06C751.14 466.17 751.18 466.25 751.16 466.33C751.09 466.63 750.89 466.74 750.7 466.83C750.6 466.87 750.5 466.9 750.4 466.95C750.3 467 750.2 467.04 750.1 467.07C749.68 467.21 749.24 467.31 748.79 467.32C748.34 467.34 747.87 467.27 747.43 467.08C747 466.89 746.61 466.57 746.34 466.19C745.8 465.42 745.63 464.47 745.75 463.58C745.81 463.14 745.95 462.71 746.09 462.3C746.16 462.09 746.24 461.89 746.36 461.71C746.47 461.53 746.62 461.36 746.87 461.27C746.95 461.24 747.03 461.28 747.06 461.36C747.06 461.37 747.06 461.38 747.06 461.39Z" fill="#371A45"/>
<path d="M735.06 474.44C735.61 474.37 736.17 474.55 736.63 474.83C737.1 475.1 737.51 475.47 737.87 475.86C738.59 476.65 739.17 477.52 739.72 478.37C740.27 479.22 740.83 480.06 741.52 480.74C742.21 481.42 743.07 481.91 743.97 482.36C744.87 482.81 745.83 483.23 746.7 483.86C747.56 484.49 748.29 485.28 748.87 486.16C749.46 487.03 749.91 487.97 750.31 488.92C750.51 489.4 750.7 489.87 750.9 490.34C751.09 490.82 751.26 491.3 751.21 491.86C751.2 491.93 751.14 491.98 751.08 491.97C751.05 491.97 751.02 491.95 751 491.94C750.59 491.55 750.4 491.07 750.22 490.6C750.06 490.12 749.87 489.65 749.68 489.18C749.29 488.25 748.85 487.35 748.3 486.53C747.76 485.7 747.08 484.98 746.3 484.4C745.51 483.83 744.59 483.42 743.67 482.96C742.75 482.51 741.81 481.98 741.04 481.22C740.28 480.47 739.7 479.59 739.14 478.74C738.58 477.89 738.05 477.04 737.36 476.34C737.01 476 736.64 475.69 736.25 475.42C735.86 475.14 735.46 474.93 735.01 474.66C734.95 474.63 734.93 474.55 734.97 474.5C734.99 474.47 735.02 474.45 735.06 474.44Z" fill="#371A45"/>
<path d="M746.9 481.25C747.08 481.15 747.21 481.17 747.32 481.21C747.43 481.25 747.52 481.32 747.62 481.39C747.81 481.53 748.01 481.64 748.2 481.77C748.58 482.03 748.96 482.3 749.32 482.58C749.68 482.86 750.04 483.16 750.38 483.47C750.55 483.63 750.72 483.79 750.88 483.95C750.96 484.03 751.04 484.12 751.14 484.18C751.22 484.26 751.3 484.35 751.2 484.6C751.17 484.68 751.11 484.73 751.04 484.75C750.79 484.83 750.7 484.76 750.63 484.68C750.57 484.58 750.49 484.51 750.41 484.43C750.25 484.27 750.09 484.12 749.93 483.97C749.6 483.67 749.26 483.38 748.91 483.11C748.56 482.84 748.2 482.58 747.83 482.33C747.64 482.21 747.46 482.08 747.26 481.98C747.16 481.93 747.06 481.89 746.97 481.81C746.88 481.74 746.81 481.64 746.8 481.44C746.78 481.36 746.83 481.29 746.9 481.25Z" fill="#371A45"/>
<path d="M735.11 478.96C735.69 479.2 736.11 479.73 736.4 480.26C736.69 480.8 736.87 481.38 737.03 481.93C737.19 482.49 737.35 483.03 737.57 483.54C737.78 484.05 738.05 484.53 738.4 484.92C738.75 485.31 739.2 485.58 739.7 485.76C740.2 485.93 740.76 486.01 741.32 486.06C741.89 486.11 742.47 486.13 743.06 486.21C743.65 486.29 744.26 486.42 744.83 486.7C745.4 486.98 745.9 487.4 746.27 487.89C746.65 488.38 746.92 488.94 747.14 489.49C747.57 490.61 747.79 491.76 748.09 492.86C748.38 493.96 748.8 495.01 749.36 495.99C749.63 496.48 749.94 496.96 750.29 497.4C750.63 497.85 750.97 498.29 751.19 498.87C751.21 498.93 751.18 499 751.12 499.03C751.09 499.04 751.05 499.04 751.03 499.03C750.45 498.77 750.06 498.31 749.71 497.83C749.38 497.34 749.06 496.84 748.77 496.32C748.19 495.29 747.74 494.18 747.44 493.04C747.13 491.91 746.91 490.78 746.51 489.74C746.31 489.22 746.06 488.73 745.73 488.31C745.41 487.89 745 487.54 744.52 487.31C743.57 486.84 742.41 486.84 741.25 486.74C740.66 486.69 740.06 486.61 739.47 486.41C738.88 486.21 738.31 485.86 737.89 485.38C737.04 484.43 736.71 483.22 736.35 482.14C736.17 481.59 735.98 481.07 735.76 480.57C735.53 480.07 735.28 479.62 734.96 479.13C734.92 479.08 734.94 479 734.99 478.97C735.03 478.94 735.07 478.94 735.11 478.96Z" fill="#371A45"/>
<path d="M735.06 488.69C735.51 488.63 735.9 488.64 736.32 488.65L737.57 488.68C738.42 488.68 739.31 488.65 740.19 488.81C740.63 488.89 741.08 489.01 741.5 489.21C741.92 489.41 742.32 489.69 742.63 490.06C742.95 490.42 743.16 490.86 743.3 491.3C743.44 491.74 743.5 492.19 743.54 492.63C743.6 493.52 743.58 494.36 743.64 495.2C743.69 496.04 743.78 496.88 743.94 497.7C744.1 498.52 744.34 499.32 744.67 500.08C744.84 500.46 745.02 500.83 745.26 501.16C745.48 501.51 745.7 501.84 745.79 502.31C745.8 502.38 745.76 502.45 745.69 502.46C745.67 502.46 745.64 502.46 745.62 502.45C745.15 502.28 744.87 501.91 744.64 501.53C744.43 501.14 744.22 500.75 744.04 500.34C743.69 499.53 743.44 498.68 743.27 497.82C743.1 496.96 743.01 496.1 742.95 495.23C742.89 494.37 742.91 493.5 742.85 492.68C742.79 491.86 742.6 491.06 742.1 490.5C741.61 489.92 740.85 489.61 740.06 489.48C739.26 489.34 738.43 489.34 737.57 489.38C737.14 489.4 736.7 489.41 736.26 489.35C735.82 489.3 735.37 489.19 734.99 488.91C734.94 488.87 734.93 488.79 734.97 488.74C735 488.71 735.03 488.69 735.06 488.69Z" fill="#371A45"/>
<path d="M746.29 496.16C746.5 496.24 746.59 496.36 746.65 496.49C746.72 496.62 746.76 496.75 746.79 496.89C746.87 497.16 746.99 497.43 747.09 497.69C747.31 498.22 747.54 498.74 747.8 499.24C748.06 499.75 748.33 500.25 748.63 500.74C748.78 500.98 748.93 501.22 749.09 501.46C749.17 501.58 749.25 501.7 749.35 501.8C749.44 501.91 749.51 502.04 749.39 502.29C749.36 502.37 749.28 502.41 749.21 502.42C748.93 502.44 748.84 502.33 748.76 502.2C748.7 502.06 748.62 501.94 748.53 501.82C748.37 501.57 748.21 501.33 748.06 501.07C747.76 500.57 747.47 500.05 747.21 499.53C746.95 499.01 746.7 498.47 746.48 497.93C746.36 497.66 746.27 497.38 746.15 497.11C746.09 496.98 746.03 496.84 746 496.7C745.97 496.55 745.97 496.4 746.09 496.21C746.12 496.16 746.21 496.13 746.29 496.16Z" fill="#371A45"/>
<path d="M735.01 492.61C735.27 492.38 735.56 492.29 735.86 492.23C736.16 492.17 736.47 492.17 736.79 492.2C737.41 492.24 738.05 492.36 738.62 492.65C739.2 492.94 739.69 493.38 740.06 493.88C740.43 494.39 740.71 494.95 740.89 495.54C741.27 496.72 741.3 497.98 741.08 499.18C740.97 499.78 740.8 500.37 740.57 500.93L740.21 501.77C740.08 502.04 739.9 502.3 739.55 502.43C739.48 502.46 739.39 502.42 739.37 502.34C739.37 502.33 739.37 502.32 739.36 502.31V502.3C739.3 501.92 739.44 501.69 739.57 501.43C739.72 501.19 739.84 500.93 739.94 500.67C740.15 500.15 740.31 499.6 740.41 499.05C740.61 497.95 740.58 496.8 740.24 495.74C739.91 494.69 739.26 493.72 738.3 493.24C737.83 493 737.29 492.88 736.75 492.88C736.48 492.88 736.2 492.91 735.92 492.91C735.64 492.92 735.36 492.92 735.04 492.81C734.97 492.79 734.94 492.71 734.96 492.64C734.98 492.65 735 492.63 735.01 492.61Z" fill="#371A45"/>
<path d="M735.01 496.32C735.13 496.11 735.33 496.03 735.52 496C735.71 495.97 735.91 495.99 736.09 496.04C736.46 496.13 736.83 496.28 737.13 496.54C737.73 497.05 738.03 497.82 737.99 498.59C737.97 498.97 737.84 499.37 737.64 499.68C737.44 500 737.18 500.27 736.91 500.5C736.64 500.73 736.35 500.92 736.07 501.1C735.93 501.19 735.78 501.28 735.66 501.39C735.52 501.48 735.37 501.56 735.11 501.44C735.03 501.41 734.99 501.33 734.99 501.25C735.01 500.95 735.14 500.86 735.28 500.78C735.43 500.71 735.57 500.63 735.71 500.54C735.98 500.36 736.25 500.18 736.48 499.99C736.96 499.6 737.3 499.12 737.32 498.56C737.35 498.01 737.12 497.42 736.7 497.07C736.49 496.9 736.24 496.77 735.96 496.74C735.82 496.73 735.68 496.73 735.55 496.71C735.41 496.7 735.27 496.67 735.08 496.54L735.07 496.53C734.99 496.48 734.96 496.39 735.01 496.32Z" fill="#371A45"/>
</g>
<g opacity="0.55">
<path d="M737.42 502.37H735.03V466.99H735.37C736.5 466.99 737.42 467.91 737.42 469.04V502.37Z" fill="white"/>
</g>
<g opacity="0.3">
<path d="M751.11 461.33V502.37H747.3V470.84C747.3 468.74 745.6 467.04 743.5 467.04H735.03V461.33H751.11Z" fill="#371A45"/>
</g>
<path d="M754.84 505.76V547.05C754.84 548.92 753.32 550.43 751.46 550.43H734.87C734.31 550.43 733.78 550.29 733.32 550.05C732.23 549.49 731.49 548.35 731.49 547.04V505.75C731.49 503.88 733.01 502.37 734.87 502.37H751.46C753.32 502.37 754.84 503.89 754.84 505.76Z" fill="#F9DC1B"/>
<path d="M751.45 550.61H734.86C734.29 550.61 733.73 550.47 733.23 550.22L733.14 550.17C732.01 549.55 731.31 548.37 731.31 547.06V505.77C731.31 503.81 732.9 502.22 734.86 502.22H751.45C753.41 502.22 755 503.81 755 505.77V547.06C755.01 549.01 753.41 550.61 751.45 550.61ZM733.48 549.96C733.91 550.16 734.38 550.27 734.86 550.27H751.45C753.22 550.27 754.67 548.83 754.67 547.05V505.76C754.67 503.99 753.23 502.54 751.45 502.54H734.86C733.09 502.54 731.64 503.98 731.64 505.76V547.05C731.64 548.26 732.31 549.35 733.38 549.91L733.48 549.96Z" fill="#000072"/>
<path d="M754.84 505.76V547.05C754.84 548.92 753.32 550.43 751.46 550.43H745.95C747.82 550.43 749.33 548.91 749.33 547.05V505.76C749.33 503.89 747.81 502.38 745.95 502.38H751.46C753.32 502.37 754.84 503.89 754.84 505.76Z" fill="#E89F02"/>
<path d="M751.45 550.61H745.94V550.27C747.71 550.27 749.16 548.83 749.16 547.05V505.76C749.16 503.99 747.72 502.54 745.94 502.54V502.2H751.45C753.41 502.2 755 503.79 755 505.75V547.04C755.01 549.01 753.41 550.61 751.45 550.61ZM747.46 550.27H751.45C753.22 550.27 754.67 548.83 754.67 547.05V505.76C754.67 503.99 753.23 502.54 751.45 502.54H747.46C748.67 503.11 749.5 504.34 749.5 505.76V547.05C749.5 548.47 748.66 549.7 747.46 550.27Z" fill="#E89F02"/>
<g opacity="0.55">
<path d="M735.87 550.06C736.33 550.3 736.86 550.44 737.42 550.44H734.86C734.3 550.44 733.77 550.3 733.31 550.06C732.22 549.5 731.48 548.36 731.48 547.05V505.76C731.48 503.89 733 502.38 734.86 502.38H737.42C735.55 502.38 734.04 503.9 734.04 505.76V547.05C734.04 548.36 734.78 549.5 735.87 550.06Z" fill="white"/>
</g>
<g opacity="0.2">
<path d="M721.67 440.43L723.92 452.7H719.41V440.43H721.67Z" fill="black"/>
</g>
<g opacity="0.2">
<path d="M744.91 440.98C744.91 442.73 742.7 442.26 739.97 442.26C737.24 442.26 735.03 442.73 735.03 440.98C735.03 439.23 737.24 437.81 739.97 437.81C742.7 437.81 744.91 439.23 744.91 440.98Z" fill="white"/>
</g>
<g opacity="0.2">
<path d="M741.67 522.57C741.67 525.84 740.29 528.49 738.59 528.49C736.89 528.49 736.86 525.84 736.86 522.57C736.86 519.3 736.89 516.65 738.59 516.65C740.29 516.65 741.67 519.3 741.67 522.57Z" fill="white"/>
</g>
<path d="M719.41 437.67V454.93C719.41 456.27 718.32 457.36 716.99 457.36H707.62C706.28 457.36 705.19 456.27 705.19 454.93V437.67C705.19 436.33 706.28 435.25 707.62 435.25H716.99C718.32 435.24 719.41 436.33 719.41 437.67Z" stroke="#0D2232" stroke-width="4" stroke-miterlimit="10" stroke-linecap="round" stroke-linejoin="round"/>
<path d="M729.86 452.7H719.41V440.43H728.28L729.86 452.7Z" stroke="#0D2232" stroke-width="4" stroke-miterlimit="10" stroke-linecap="round" stroke-linejoin="round"/>
<path d="M779.02 450.89C778.87 452.64 776.81 453.51 775.48 452.36C768.01 445.94 756.97 449.56 754.72 458.72C754.34 460.25 753 461.33 751.43 461.33H733.96C732.26 461.33 730.82 460.07 730.61 458.38L729.88 452.7L728.3 440.43L727.77 436.29C727.51 434.27 729.09 432.47 731.13 432.47H759.78C771.37 432.48 779.79 441.43 779.02 450.89Z" stroke="#0D2232" stroke-width="4" stroke-miterlimit="10" stroke-linecap="round" stroke-linejoin="round"/>
<path d="M751.12 461.33H735.04V502.37H751.12V461.33Z" stroke="#0D2232" stroke-width="4" stroke-miterlimit="10" stroke-linecap="round" stroke-linejoin="round"/>
<path d="M754.84 505.76V547.05C754.84 548.92 753.32 550.43 751.46 550.43H734.87C734.31 550.43 733.78 550.29 733.32 550.05C732.23 549.49 731.49 548.35 731.49 547.04V505.75C731.49 503.88 733.01 502.37 734.87 502.37H751.46C753.32 502.37 754.84 503.89 754.84 505.76Z" stroke="#0D2232" stroke-width="4" stroke-miterlimit="10" stroke-linecap="round" stroke-linejoin="round"/>
<path d="M773.25 562.22C773.24 562.17 773.24 562.12 773.24 562.07L775.05 478.01C775.06 477.37 775.59 476.87 776.23 476.88L790.69 477.19C791 477.2 791.29 477.32 791.5 477.55C791.68 477.73 791.79 477.97 791.81 478.22C791.82 478.27 791.82 478.32 791.82 478.37L790.01 562.43C790 563.07 789.47 563.57 788.83 563.56L774.37 563.25C774.06 563.24 773.77 563.12 773.56 562.89C773.39 562.71 773.28 562.47 773.25 562.22Z" fill="#C14854"/>
<path d="M778.852 478.086L777.061 562.15L786.319 562.347L788.11 478.284L778.852 478.086Z" fill="#E8656D"/>
<path opacity="0.5" d="M777.721 474.415L775.846 563.237L776.986 563.261L778.861 474.439L777.721 474.415Z" fill="white"/>
<path d="M770.49 480.14C769.7 479.55 768.94 478.89 768.23 478.19C764.01 474.04 761.65 468.49 761.6 462.56C761.55 456.64 763.81 451.05 767.97 446.83C769.05 445.73 770.24 444.75 771.52 443.9C771.9 443.65 772.39 443.64 772.78 443.89C772.81 443.91 772.83 443.92 772.85 443.94C773.19 444.19 773.36 444.61 773.3 445.03L771.56 456.64L784.51 463.1L794.66 452.78L789.59 443.02C789.37 442.6 789.43 442.09 789.74 441.73C790.05 441.37 790.54 441.24 790.99 441.39C793.18 442.14 795.22 443.22 797.08 444.61C797.87 445.2 798.63 445.86 799.34 446.55C803.56 450.7 805.92 456.25 805.97 462.18C806.02 468.1 803.76 473.69 799.6 477.91C791.84 485.82 779.33 486.77 770.49 480.14Z" fill="#E8656D"/>
<path d="M790.61 442.5L791.41 444.04C792.65 444.82 793.82 445.74 794.91 446.81C803.19 454.95 803.3 468.26 795.16 476.54C790.66 481.12 784.57 483.19 778.63 482.76C785.63 484.52 793.35 482.64 798.77 477.12C806.91 468.84 806.8 455.53 798.52 447.39C796.21 445.12 793.5 443.49 790.61 442.5Z" fill="#C14854"/>
<path opacity="0.5" d="M768.68 473.72C776.63 483.88 787.2 480.41 787.2 480.41C787.2 480.41 779.34 478.59 773.51 472.31C767.42 465.76 765.13 458.8 765.13 458.8C765.13 458.8 762.92 466.36 768.68 473.72Z" fill="white"/>
<path opacity="0.5" d="M770.57 559.9C773.53 556 776.51 556.7 776.51 556.7C776.51 556.7 772.61 560.12 770.44 564.83C768.4 569.26 768.7 576.44 768.7 576.44C768.7 576.44 766.7 571.62 766.98 569.18C767.44 565.2 768.57 562.53 770.57 559.9Z" fill="white"/>
<path d="M773.42 554.08L774.95 482.72" stroke="#0D2232" stroke-width="4" stroke-miterlimit="10" stroke-linecap="round" stroke-linejoin="round"/>
<path d="M791.73 483.11L790.19 554.48" stroke="#0D2232" stroke-width="4" stroke-miterlimit="10" stroke-linecap="round" stroke-linejoin="round"/>
<path d="M770.49 480.14C769.7 479.55 768.94 478.89 768.23 478.19C764.01 474.04 761.65 468.49 761.6 462.56C761.55 456.64 763.81 451.05 767.97 446.83C769.05 445.73 770.24 444.75 771.52 443.9C771.9 443.65 772.39 443.64 772.78 443.89C772.81 443.91 772.83 443.92 772.85 443.94C773.19 444.19 773.36 444.61 773.3 445.03L771.56 456.64L784.51 463.1L794.66 452.78L789.59 443.02C789.37 442.6 789.43 442.09 789.74 441.73C790.05 441.37 790.54 441.24 790.99 441.39C793.18 442.14 795.22 443.22 797.08 444.61C797.87 445.2 798.63 445.86 799.34 446.55C803.56 450.7 805.92 456.25 805.97 462.18C806.02 468.1 803.76 473.69 799.6 477.91C791.84 485.82 779.33 486.77 770.49 480.14Z" stroke="#0D2232" stroke-width="4" stroke-miterlimit="10" stroke-linecap="round" stroke-linejoin="round"/>
<path d="M707.85 506.93V565.09C707.85 565.09 719.42 582.45 741.92 582.45C764.42 582.45 780.49 582.45 780.49 582.45L787.24 573.77C787.24 573.77 792.7 532.95 793.35 517.2C793.35 517.2 731.63 518.85 707.85 506.93Z" fill="#FEC400"/>
<path d="M713.11 509.15V552.81C713.11 560.24 717.31 567.05 723.98 570.31C734.95 575.68 754.96 580.8 787.24 573.78L780.49 582.46L738.54 582.7C738.54 582.7 716.84 579.89 707.84 565.1V506.94L713.11 509.15Z" fill="#E89F02"/>
<path d="M707.85 506.93V560.14C707.85 563.76 709.31 567.22 711.87 569.78C717.02 574.92 727.1 582.45 741.92 582.45H773.42C777.88 582.45 782.09 580.39 784.83 576.87C786.41 574.84 787.42 572.42 787.75 569.87C789.12 559.28 792.82 529.99 793.34 517.2C793.35 517.2 731.63 518.85 707.85 506.93Z" stroke="#0D2232" stroke-width="4" stroke-miterlimit="10" stroke-linecap="round" stroke-linejoin="round"/>
<path d="M707.85 522.02C707.85 522.02 727.55 538.92 791.83 532.49" stroke="#0D2232" stroke-width="4" stroke-miterlimit="10" stroke-linecap="round" stroke-linejoin="round"/>
<path d="M608.36 177.8C596.53 173.76 583.56 174.71 572.44 180.42L568.49 182.45" stroke="#0D2232" stroke-width="12" stroke-miterlimit="10" stroke-linecap="round" stroke-linejoin="round"/>
<path d="M674.43 177.8C686.26 173.76 699.23 174.71 710.35 180.42L714.3 182.45" stroke="#0D2232" stroke-width="12" stroke-miterlimit="10" stroke-linecap="round" stroke-linejoin="round"/>
<path d="M570.27 506.93V566.37C570.27 566.37 545.84 585.01 508.56 582.44C508.56 582.44 493.13 558.01 488.63 517.19C488.63 517.2 552.92 520.78 570.27 506.93Z" stroke="white" stroke-miterlimit="10"/>
<path d="M491.18 533.78C491.18 533.78 544.56 534.24 570.27 522.02" stroke="white" stroke-miterlimit="10"/>
<path d="M504.02 573.81C504.02 573.81 536.2 574.73 554.85 564.45L550.73 514.27L570.28 506.93V566.37C570.28 566.37 548.42 583.73 508.57 582.44L504.02 573.81Z" stroke="white" stroke-miterlimit="10"/>
<path d="M570.44 522.02C570.44 522.02 549.2 538.73 484.84 532.31" stroke="white" stroke-miterlimit="10"/>
<path d="M588.47 482.16V570.88L576.88 582.45H497.71L508.33 574.09L507.69 482.16H588.47Z" fill="#F9DC1B"/>
<path d="M578.81 482.16V565.32L572.05 574.09H490.96L497.71 582.45H576.88L588.47 570.88V482.16H578.81Z" fill="#E89F02"/>
<path d="M576.231 499.667H581.381V494.527H576.231V499.667Z" fill="white"/>
<path d="M576.231 516.082H581.381V510.942H576.231V516.082Z" fill="white"/>
<path d="M576.231 532.488H581.381V527.348H576.231V532.488Z" fill="white"/>
<path d="M576.231 548.903H581.381V543.763H576.231V548.903Z" fill="white"/>
<path d="M576.231 565.319H581.381V560.179H576.231V565.319Z" fill="white"/>
<path d="M507.69 517.2V482.16H588.47V570.88L576.88 582.45L498.78 581.61" stroke="#0D2232" stroke-width="4" stroke-miterlimit="10" stroke-linecap="round" stroke-linejoin="round"/>
<path d="M513.62 452.1L518.29 469.71L515.56 472.62C512.29 467.72 506.25 464.99 500.19 466.22C499.9 466.28 499.61 466.35 499.32 466.42C500.57 465.38 501.48 464.2 502.06 462.98C504.6 457.67 501.26 451.31 494.99 450.17L491.21 435.93C500.7 437.24 507.56 442.3 512.61 449.93C513.08 450.6 513.41 451.33 513.62 452.1Z" fill="#AFCADC"/>
<path d="M515.54 472.93L515.41 472.73C512.11 467.78 506.02 465.24 500.24 466.41C499.97 466.46 499.69 466.53 499.39 466.61L498.55 466.83L499.22 466.27C500.41 465.28 501.32 464.15 501.91 462.89C503.07 460.47 503.02 457.7 501.79 455.29C500.46 452.7 497.98 450.9 494.98 450.35L494.86 450.33L490.98 435.69L491.27 435.73C500.3 436.98 507.35 441.58 512.81 449.81C513.27 450.5 513.61 451.25 513.82 452.04L518.52 469.75L515.54 472.93ZM500.03 466.05C500.07 466.04 500.11 466.03 500.16 466.02C506.01 464.83 512.17 467.35 515.59 472.3L518.08 469.64L513.43 452.14C513.23 451.39 512.91 450.68 512.47 450.02C507.13 441.98 500.27 437.43 491.49 436.15L495.16 449.99C498.22 450.58 500.76 452.44 502.12 455.11C503.41 457.63 503.45 460.52 502.24 463.05C501.73 464.15 500.99 465.16 500.03 466.05Z" fill="#000072"/>
<g opacity="0.55">
<path d="M502.04 465.97C501.43 466.01 500.81 466.1 500.19 466.22C499.9 466.28 499.61 466.35 499.32 466.42C500.57 465.38 501.48 464.2 502.06 462.98C504.6 457.67 501.26 451.31 494.99 450.17L491.21 435.93C492.23 436.07 493.21 436.25 494.16 436.48L497.68 449.73C503.95 450.87 507.29 457.22 504.75 462.54C504.19 463.76 503.29 464.93 502.04 465.97Z" fill="white"/>
</g>
<g opacity="0.55">
<path d="M502.11 465.96L502.02 465.98C502.03 465.97 502.03 465.97 502.04 465.96C502.06 465.96 502.09 465.96 502.11 465.96Z" fill="white"/>
<path d="M502.16 466.15L501.25 466.39L501.99 465.78C502.03 465.77 502.06 465.77 502.08 465.77L503.71 465.73L502.16 466.15Z" fill="#371A45"/>
</g>
<path d="M521.31 481.08L523.59 489.69C523.73 490.22 523.44 490.78 522.94 490.97C522.9 490.98 522.87 490.99 522.83 491L507.25 495.14C505.67 495.56 504.07 495.71 502.5 495.62C497.48 495.32 492.79 492.55 490.25 488.22C489.6 487.12 489.09 485.93 488.75 484.64C488.32 483.03 488.18 481.42 488.28 479.85C488.68 473.64 492.97 468.11 499.32 466.43H499.33C499.62 466.35 499.9 466.29 500.2 466.23C506.26 465 512.3 467.73 515.57 472.63C516.53 474.07 517.24 475.69 517.66 477.45C517.93 478.59 518.05 479.73 518.05 480.85L520.01 480.33C520.37 480.23 520.74 480.34 521 480.57C521.14 480.69 521.25 480.87 521.31 481.08Z" fill="#AFCADC"/>
<path d="M522.88 491.19L507.3 495.33C505.73 495.75 504.11 495.91 502.49 495.81C497.37 495.51 492.62 492.64 490.08 488.32C489.41 487.19 488.9 485.97 488.56 484.7C488.14 483.1 487.98 481.47 488.08 479.84C488.5 473.37 492.99 467.91 499.26 466.24C499.59 466.15 499.87 466.09 500.15 466.03C506.07 464.83 512.33 467.43 515.71 472.51C516.7 474 517.41 475.64 517.82 477.39C518.07 478.44 518.2 479.52 518.21 480.59L519.93 480.13C520.34 480.02 520.78 480.12 521.09 480.41C521.28 480.57 521.41 480.79 521.47 481.03L523.75 489.64C523.92 490.27 523.58 490.92 522.98 491.15C522.96 491.16 522.92 491.17 522.88 491.19ZM499.38 466.6C493.26 468.23 488.88 473.55 488.47 479.85C488.36 481.44 488.52 483.03 488.93 484.58C489.26 485.82 489.76 487.01 490.41 488.11C492.88 492.32 497.52 495.12 502.51 495.41C504.09 495.5 505.67 495.35 507.2 494.94L522.78 490.8C522.81 490.79 522.84 490.78 522.87 490.77C523.29 490.61 523.52 490.16 523.41 489.72L521.13 481.11C521.09 480.94 520.99 480.79 520.86 480.68C520.64 480.48 520.34 480.41 520.05 480.48L517.85 481.06V480.81C517.85 479.69 517.72 478.56 517.46 477.45C517.06 475.74 516.37 474.14 515.4 472.69C512.1 467.74 506.01 465.2 500.23 466.37C499.96 466.46 499.69 466.52 499.38 466.6Z" fill="#000072"/>
<g opacity="0.3">
<path d="M513.62 452.1L518.29 469.71L515.56 472.62C515.38 472.35 515.19 472.08 514.99 471.82C511.62 467.42 505.92 465.05 500.19 466.22C499.9 466.28 499.61 466.35 499.32 466.42C500.57 465.38 501.48 464.2 502.06 462.98C502.14 462.95 502.23 462.93 502.31 462.91H502.33C502.61 462.84 502.9 462.77 503.2 462.71C505.84 462.17 508.47 462.39 510.87 463.21C512.33 463.71 513.75 462.41 513.36 460.92L511.3 453.17C511.1 452.4 510.76 451.67 510.32 451C505.76 444.12 499.73 439.33 491.64 437.5L491.23 435.95C500.72 437.26 507.58 442.32 512.63 449.95C513.08 450.6 513.41 451.33 513.62 452.1Z" fill="black"/>
<path d="M515.54 472.93L515.41 472.73C515.23 472.45 515.04 472.19 514.85 471.95C511.43 467.48 505.7 465.31 500.24 466.42C499.97 466.47 499.69 466.54 499.39 466.62L498.55 466.84L499.22 466.28C500.41 465.29 501.32 464.16 501.91 462.9L501.95 462.82L502.03 462.79C502.43 462.66 502.84 462.58 503.18 462.51C505.76 461.99 508.44 462.16 510.95 463.01C511.57 463.22 512.23 463.08 512.71 462.64C513.18 462.2 513.36 461.58 513.19 460.96L511.13 453.21C510.93 452.47 510.61 451.76 510.17 451.09C505.33 443.79 499.26 439.4 491.6 437.67L491.49 437.64L490.97 435.7L491.26 435.74C500.29 436.99 507.34 441.59 512.8 449.82C513.26 450.51 513.6 451.26 513.81 452.05L518.51 469.76L515.54 472.93ZM500.03 466.05C500.07 466.04 500.11 466.03 500.16 466.02C505.76 464.88 511.64 467.11 515.15 471.7C515.3 471.89 515.45 472.09 515.59 472.31L518.08 469.65L513.43 452.15C513.23 451.4 512.91 450.69 512.47 450.03C507.13 441.99 500.27 437.44 491.49 436.16L491.8 437.32C499.5 439.09 505.61 443.53 510.49 450.88C510.95 451.58 511.29 452.33 511.5 453.11L513.56 460.86C513.76 461.62 513.54 462.39 512.97 462.92C512.39 463.46 511.59 463.63 510.82 463.38C508.38 462.55 505.76 462.38 503.25 462.89C502.98 462.94 502.67 463.01 502.39 463.09C502.33 463.11 502.27 463.12 502.22 463.14C501.69 464.2 500.96 465.18 500.03 466.05Z" fill="#371A45"/>
</g>
<g opacity="0.55">
<path d="M510.21 467.74C507.79 466.9 505.12 466.67 502.45 467.21C502.16 467.27 501.87 467.34 501.58 467.41H501.57C495.23 469.09 490.94 474.63 490.53 480.83C490.43 482.4 490.57 484.02 491 485.62C491.34 486.9 491.85 488.1 492.5 489.2C493.9 491.58 495.94 493.49 498.34 494.77C494.99 493.6 492.07 491.3 490.25 488.2C489.6 487.1 489.09 485.91 488.75 484.62C488.32 483.01 488.18 481.4 488.28 479.83C488.68 473.62 492.97 468.09 499.32 466.41H499.33C499.62 466.33 499.9 466.27 500.2 466.21C503.72 465.5 507.24 466.13 510.21 467.74Z" fill="white"/>
</g>
<path d="M503.14 488.7C507.492 488.7 511.02 485.172 511.02 480.82C511.02 476.468 507.492 472.94 503.14 472.94C498.788 472.94 495.26 476.468 495.26 480.82C495.26 485.172 498.788 488.7 503.14 488.7Z" fill="#CECEDD"/>
<g opacity="0.55">
<path d="M513.23 480.23C514.35 484.44 511.84 488.75 507.64 489.87C505.04 490.56 502.4 489.87 500.49 488.24C501.94 488.76 503.56 488.86 505.17 488.44C509.38 487.32 511.88 483.01 510.76 478.8C510.33 477.2 509.44 475.84 508.27 474.84C510.62 475.68 512.54 477.63 513.23 480.23Z" fill="white"/>
</g>
<g opacity="0.3">
<path d="M507.95 474.57C506.66 474.21 505.26 474.19 503.87 474.56C499.66 475.68 497.16 479.99 498.28 484.2C498.74 485.95 499.76 487.4 501.1 488.42C498.47 487.71 496.29 485.66 495.54 482.84C494.42 478.63 496.93 474.32 501.13 473.2C503.58 472.55 506.08 473.13 507.95 474.57Z" fill="black"/>
<path d="M501.98 488.86L501.04 488.61C498.26 487.86 496.08 485.67 495.34 482.89C494.2 478.59 496.77 474.16 501.07 473.02C503.51 472.37 506.06 472.88 508.06 474.42L508.84 475.02L507.89 474.76C506.6 474.4 505.23 474.4 503.91 474.75C499.81 475.84 497.36 480.06 498.45 484.15C498.89 485.8 499.84 487.23 501.2 488.27L501.98 488.86ZM501.17 473.39C497.07 474.48 494.62 478.7 495.71 482.79C496.33 485.12 498.02 487.02 500.22 487.93C499.19 486.92 498.46 485.67 498.08 484.25C496.94 479.95 499.51 475.52 503.81 474.38C504.86 474.1 505.96 474.04 507.02 474.19C505.27 473.15 503.18 472.85 501.17 473.39Z" fill="#371A45"/>
</g>
<path d="M506.96 495.21L510.57 508.81C511.05 510.61 512.1 512.22 513.56 513.38L528.32 525.12C530.75 527.05 532.49 529.71 533.28 532.7L540.65 560.48C541.12 562.26 543.17 563.07 544.75 562.11C548.41 559.88 551.25 557.3 552.79 554.16C554.03 551.63 554.23 548.71 553.5 545.98L547.91 524.94C547.35 522.83 546.23 520.92 544.67 519.39L534.91 509.85C533 507.98 531.87 505.44 531.84 502.77C531.81 499.75 532.4 496.39 533.35 492.83C533.94 490.61 531.92 488.58 529.7 489.17L506.96 495.21Z" fill="#F9DC1B"/>
<path d="M547.93 524.93L553.52 545.98C554.24 548.71 554.05 551.63 552.81 554.16C551.27 557.3 548.42 559.88 544.76 562.11C543.68 562.77 542.38 562.59 541.52 561.85C544.6 559.8 547 557.45 548.37 554.66C549.61 552.13 549.81 549.21 549.08 546.48L543.49 525.43C542.93 523.32 541.81 521.41 540.25 519.88L530.49 510.34C528.58 508.47 527.46 505.93 527.43 503.26C527.4 500.24 527.99 496.88 528.94 493.32C529.34 491.81 528.53 490.38 527.27 489.82L529.74 489.17C531.96 488.58 533.98 490.61 533.39 492.83C532.44 496.39 531.85 499.75 531.88 502.77C531.91 505.44 533.04 507.98 534.94 509.85L544.7 519.39C546.25 520.91 547.37 522.83 547.93 524.93Z" fill="#E89F02"/>
<g opacity="0.55">
<path d="M543.88 561.61C543.95 561.88 544.06 562.14 544.2 562.36C542.73 562.86 541.08 562.05 540.66 560.47L533.29 532.69C532.5 529.7 530.76 527.04 528.33 525.11L513.57 513.37C512.11 512.21 511.06 510.61 510.58 508.8L506.97 495.2L529.74 489.16C531.03 488.82 532.24 489.36 532.93 490.3L510.19 496.33L513.8 509.93C514.28 511.74 515.33 513.34 516.79 514.5L531.55 526.24C533.97 528.17 535.71 530.83 536.51 533.82L543.88 561.61Z" fill="white"/>
</g>
<path d="M506.96 495.21L510.57 508.81C511.05 510.61 510.93 512.52 510.24 514.26L503.24 531.77C502.09 534.65 501.9 537.82 502.69 540.82L510.06 568.6C510.53 570.38 509.15 572.1 507.31 572.04C503.03 571.92 499.28 571.09 496.38 569.13C494.04 567.55 492.43 565.11 491.7 562.38L486.11 541.34C485.55 539.23 485.57 537.02 486.17 534.92L489.91 521.8C490.64 519.23 490.36 516.47 489.06 514.13C487.59 511.49 485.41 508.86 482.82 506.24C481.21 504.61 481.96 501.85 484.17 501.26L506.96 495.21Z" fill="#F9DC1B"/>
<path d="M506.96 495.21L510.57 508.81C511.05 510.62 510.93 512.53 510.24 514.26L503.24 531.77C502.09 534.65 501.9 537.82 502.69 540.82L510.06 568.6C510.53 570.38 509.15 572.1 507.31 572.05C506.52 572.03 505.74 571.98 504.98 571.9C505.31 571.31 505.42 570.6 505.23 569.88L497.86 542.1C497.07 539.11 497.26 535.93 498.41 533.05L505.41 515.54C506.1 513.81 506.22 511.9 505.74 510.09L502.13 496.49L506.96 495.21Z" fill="#E89F02"/>
<g opacity="0.55">
<path d="M486.81 507.17C489.4 509.79 491.58 512.42 493.05 515.06C494.35 517.39 494.63 520.16 493.9 522.73L490.16 535.85C489.56 537.95 489.54 540.17 490.1 542.27L495.69 563.32C496.41 566.05 498.03 568.49 500.36 570.07C501.39 570.77 502.53 571.32 503.76 571.75C500.95 571.35 498.46 570.53 496.4 569.13C494.07 567.55 492.45 565.11 491.73 562.38L486.14 541.33C485.58 539.22 485.6 537 486.2 534.91L489.94 521.79C490.67 519.22 490.39 516.46 489.09 514.13C487.62 511.49 485.44 508.86 482.85 506.24C481.24 504.61 481.99 501.84 484.2 501.26L506.96 495.21L507.45 497.07L488.15 502.2C485.95 502.78 485.2 505.54 486.81 507.17Z" fill="white"/>
</g>
<path d="M502.5 495.61L502.69 496.34L489.81 499.76L487.45 490.88C487.19 489.89 487.78 488.87 488.77 488.61L490.24 488.22C492.79 492.54 497.48 495.32 502.5 495.61Z" fill="#AFCADC"/>
<path d="M502.93 496.48L489.68 500L487.27 490.93C486.98 489.84 487.63 488.71 488.73 488.42L490.34 487.99L490.41 488.12C492.88 492.33 497.52 495.13 502.51 495.42L502.65 495.43L502.93 496.48ZM489.95 499.53L502.46 496.21L502.35 495.8C497.34 495.46 492.69 492.65 490.16 488.44L488.83 488.79C487.94 489.03 487.41 489.94 487.65 490.83L489.95 499.53Z" fill="#000072"/>
<g opacity="0.55">
<path d="M490.37 488.18C490.57 488.53 490.8 488.87 491.03 489.2L490.9 489.24C489.91 489.5 489.32 490.52 489.58 491.51L491.64 499.28L489.93 499.73L487.57 490.85C487.31 489.86 487.9 488.84 488.89 488.58L490.37 488.18Z" fill="white"/>
</g>
<path d="M499.32 466.42C492.98 468.1 488.69 473.64 488.28 479.84L484.48 478.67L479.81 461.06C479.6 460.29 479.53 459.49 479.59 458.69C480.2 449.56 483.64 441.76 491.23 435.92L495.01 450.16C489 455.21 490.78 464.94 499.32 466.42Z" fill="#AFCADC"/>
<path d="M488.46 480.1L484.33 478.83L479.63 461.12C479.42 460.33 479.34 459.51 479.4 458.68C480.06 448.83 483.89 441.33 491.12 435.77L491.35 435.59L495.23 450.23L495.14 450.31C492.25 452.73 491.04 456.39 491.97 459.85C492.87 463.19 495.63 465.57 499.36 466.22L500.22 466.37L499.37 466.59C493.26 468.21 488.88 473.54 488.48 479.84L488.46 480.1ZM484.64 478.53L488.1 479.6C488.59 473.49 492.72 468.32 498.52 466.46C495.03 465.61 492.46 463.22 491.59 459.97C490.63 456.4 491.86 452.63 494.79 450.11L491.12 436.27C484.13 441.74 480.42 449.09 479.78 458.72C479.73 459.51 479.8 460.29 480 461.03L484.64 478.53Z" fill="#000072"/>
<g opacity="0.3">
<path d="M496.64 467.41C496.69 467.39 496.74 467.36 496.79 467.34C496.81 467.34 496.83 467.35 496.85 467.35C496.79 467.37 496.71 467.39 496.64 467.41Z" fill="#262F6A"/>
<path d="M496.7 467.6L496.55 467.25C496.6 467.22 496.66 467.2 496.71 467.17L496.76 467.15L496.86 467.16L497.66 467.32L496.9 467.53C496.84 467.56 496.77 467.58 496.7 467.6Z" fill="#371A45"/>
</g>
<g opacity="0.3">
<path d="M497.2 465.84C497.79 466.07 497.8 466.9 497.21 467.16C497.07 467.22 496.93 467.28 496.8 467.35C488.31 465.83 485.93 456.03 491.92 451L488.54 438.26C489.37 437.45 490.27 436.68 491.24 435.94L495.02 450.18C489.53 454.76 490.52 463.24 497.2 465.84Z" fill="#262F6A"/>
<path d="M496.82 467.54L496.76 467.53C492.71 466.8 489.7 464.15 488.71 460.43C487.78 456.94 488.92 453.3 491.7 450.92L488.32 438.19L488.4 438.11C489.24 437.3 490.15 436.51 491.11 435.77L491.34 435.59L495.22 450.23L495.13 450.31C492.5 452.52 491.24 455.77 491.78 459.01C492.28 462.07 494.28 464.5 497.27 465.66C497.61 465.8 497.83 466.11 497.84 466.48C497.85 466.86 497.64 467.18 497.29 467.33C497.15 467.39 497.02 467.45 496.88 467.52L496.82 467.54ZM488.75 438.31L492.13 451.06L492.04 451.14C489.31 453.43 488.18 456.95 489.08 460.34C490.03 463.89 492.9 466.43 496.76 467.15C496.88 467.09 497 467.04 497.13 466.98C497.37 466.88 497.45 466.66 497.45 466.49C497.45 466.28 497.33 466.1 497.13 466.02C494.02 464.81 491.93 462.28 491.4 459.08C490.85 455.75 492.12 452.4 494.79 450.11L491.12 436.27C490.28 436.91 489.49 437.6 488.75 438.31Z" fill="#371A45"/>
</g>
<g opacity="0.55">
<path d="M491.23 435.93L491.77 437.98C485.7 443.58 482.87 450.7 482.32 458.9C482.27 459.7 482.34 460.5 482.54 461.27L487.21 478.88L488.32 479.22C488.3 479.43 488.28 479.64 488.27 479.85L484.47 478.68L479.8 461.07C479.59 460.3 479.52 459.5 479.58 458.7C480.2 449.57 483.64 441.77 491.23 435.93Z" fill="white"/>
</g>
<g opacity="0.2">
<path d="M521.31 481.08L523.59 489.69C523.73 490.22 523.44 490.78 522.94 490.97L510.03 494.4C516.28 491.37 519.33 487.06 518.56 481.2L520.99 480.56C521.14 480.69 521.25 480.87 521.31 481.08Z" fill="black"/>
</g>
<path d="M502.5 495.61L502.69 496.34L489.81 499.76L487.45 490.88C487.19 489.89 487.78 488.87 488.77 488.61L490.24 488.22C492.79 492.54 497.48 495.32 502.5 495.61Z" stroke="#0D2232" stroke-width="4" stroke-miterlimit="10" stroke-linecap="round" stroke-linejoin="round"/>
<path d="M506.96 495.21L510.57 508.81C511.05 510.61 512.1 512.22 513.56 513.38L528.32 525.12C530.75 527.05 532.49 529.71 533.28 532.7L540.65 560.48C541.12 562.26 543.17 563.07 544.75 562.11C548.41 559.88 551.25 557.3 552.79 554.16C554.03 551.63 554.23 548.71 553.5 545.98L547.91 524.94C547.35 522.83 546.23 520.92 544.67 519.39L534.91 509.85C533 507.98 531.87 505.44 531.84 502.77C531.81 499.75 532.4 496.39 533.35 492.83C533.94 490.61 531.92 488.58 529.7 489.17L506.96 495.21Z" stroke="#0D2232" stroke-width="4" stroke-miterlimit="10" stroke-linecap="round" stroke-linejoin="round"/>
<path d="M506.96 495.21L510.57 508.81C511.05 510.61 510.93 512.52 510.24 514.26L503.24 531.77C502.09 534.65 501.9 537.82 502.69 540.82L510.06 568.6C510.53 570.38 509.15 572.1 507.31 572.04C503.03 571.92 499.28 571.09 496.38 569.13C494.04 567.55 492.43 565.11 491.7 562.38L486.11 541.34C485.55 539.23 485.57 537.02 486.17 534.92L489.91 521.8C490.64 519.23 490.36 516.47 489.06 514.13C487.59 511.49 485.41 508.86 482.82 506.24C481.21 504.61 481.96 501.85 484.17 501.26L506.96 495.21Z" stroke="#0D2232" stroke-width="4" stroke-miterlimit="10" stroke-linecap="round" stroke-linejoin="round"/>
<path d="M513.62 452.1L518.29 469.71L515.56 472.62C512.29 467.72 506.25 464.99 500.19 466.22C499.9 466.28 499.61 466.35 499.32 466.42C500.57 465.38 501.48 464.2 502.06 462.98C504.6 457.67 501.26 451.31 494.99 450.17L491.21 435.93C500.7 437.24 507.56 442.3 512.61 449.93C513.08 450.6 513.41 451.33 513.62 452.1Z" stroke="#0D2232" stroke-width="4" stroke-miterlimit="10" stroke-linecap="round" stroke-linejoin="round"/>
<path d="M521.31 481.08L523.59 489.69C523.73 490.22 523.44 490.78 522.94 490.97C522.9 490.98 522.87 490.99 522.83 491L507.25 495.14C505.67 495.56 504.07 495.71 502.5 495.62C497.48 495.32 492.79 492.55 490.25 488.22C489.6 487.12 489.09 485.93 488.75 484.64C488.32 483.03 488.18 481.42 488.28 479.85C488.68 473.64 492.97 468.11 499.32 466.43H499.33C499.62 466.35 499.9 466.29 500.2 466.23C506.26 465 512.3 467.73 515.57 472.63C516.53 474.07 517.24 475.69 517.66 477.45C517.93 478.59 518.05 479.73 518.05 480.85L520.01 480.33C520.37 480.23 520.74 480.34 521 480.57C521.14 480.69 521.25 480.87 521.31 481.08Z" stroke="#0D2232" stroke-width="4" stroke-miterlimit="10" stroke-linecap="round" stroke-linejoin="round"/>
<path d="M499.32 466.42C492.98 468.1 488.69 473.64 488.28 479.84L484.48 478.67L479.81 461.06C479.6 460.29 479.53 459.49 479.59 458.69C480.2 449.56 483.64 441.76 491.23 435.92L495.01 450.16C489 455.21 490.78 464.94 499.32 466.42Z" stroke="#0D2232" stroke-width="4" stroke-miterlimit="10" stroke-linecap="round" stroke-linejoin="round"/>
<path d="M503.14 488.7C507.492 488.7 511.02 485.172 511.02 480.82C511.02 476.468 507.492 472.94 503.14 472.94C498.788 472.94 495.26 476.468 495.26 480.82C495.26 485.172 498.788 488.7 503.14 488.7Z" stroke="#0D2232" stroke-width="4" stroke-miterlimit="10" stroke-linecap="round" stroke-linejoin="round"/>
<path d="M555.46 512.67H534.91C532.72 512.67 530.94 510.89 530.94 508.7V507.57C530.94 505.38 532.72 503.6 534.91 503.6H555.46C557.65 503.6 559.43 505.38 559.43 507.57V508.7C559.43 510.9 557.65 512.67 555.46 512.67Z" fill="#F9DC1B"/>
<path d="M553.79 512.67H536.65V519.75H553.79V512.67Z" fill="#F9DC1B"/>
<path d="M546.96 564.23H543.41C536.52 564.23 530.94 558.65 530.94 551.76V523.9C530.94 521.61 532.79 519.76 535.08 519.76H555.29C557.58 519.76 559.43 521.61 559.43 523.9V551.76C559.43 558.64 553.85 564.23 546.96 564.23Z" fill="#F9DC1B"/>
<path d="M559.43 506.65V509.63C559.43 511.31 558.07 512.67 556.39 512.67H551.39C553.07 512.67 554.43 511.31 554.43 509.63V506.65C554.43 504.97 553.07 503.61 551.39 503.61H556.39C558.07 503.61 559.43 504.97 559.43 506.65Z" fill="#E89F02"/>
<path d="M553.8 512.68H548.8V519.76H553.8V512.68Z" fill="#E89F02"/>
<path d="M559.43 522.78V550.4C559.43 558.04 553.24 564.23 545.6 564.23H545.33C550.36 564.23 554.44 560.15 554.44 555.12V522.78C554.44 521.11 553.09 519.76 551.42 519.76H556.42C558.07 519.75 559.43 521.11 559.43 522.78Z" fill="#E89F02"/>
<g opacity="0.55">
<path d="M537.52 512.68H533.99C532.31 512.68 530.95 511.32 530.95 509.64V506.66C530.95 504.98 532.31 503.62 533.99 503.62H537.52C535.84 503.62 534.48 504.98 534.48 506.66V509.64C534.47 511.31 535.84 512.68 537.52 512.68Z" fill="white"/>
</g>
<g opacity="0.55">
<path d="M540.18 512.68H536.65V519.76H540.18V512.68Z" fill="white"/>
</g>
<g opacity="0.55">
<path d="M543.58 564.23H540.05C535.02 564.23 530.94 560.15 530.94 555.12V522.78C530.94 521.11 532.29 519.76 533.96 519.76H537.49C535.82 519.76 534.47 521.11 534.47 522.78V555.12C534.47 560.15 538.55 564.23 543.58 564.23Z" fill="white"/>
</g>
<path d="M555.12 464.9L552.8 472.08H549.82V503.61H540.88V472.08H537.9L535.58 464.9L539.22 444.36H551.48L555.12 464.9Z" fill="#AFCADC"/>
<path d="M549.99 503.77H540.71V472.24H537.77L535.4 464.91L535.41 464.87L539.08 444.19H551.61L555.29 464.91L552.92 472.24H549.98V503.77H549.99ZM541.04 503.44H549.65V471.91H552.68L554.95 464.89L551.34 444.53H539.36L535.75 464.89L538.02 471.91H541.05V503.44H541.04Z" fill="#000072"/>
<g opacity="0.2">
<path d="M549 472.08H549.82V503.61H547.06V474.02C547.06 472.95 547.93 472.08 549 472.08Z" fill="black"/>
</g>
<g opacity="0.2">
<path d="M555.12 464.9L552.8 472.08H550.04L552.36 464.9L548.72 444.36H551.48L555.12 464.9Z" fill="black"/>
</g>
<g opacity="0.55">
<path d="M538.44 464.9L540.75 472.08H538.23L535.91 464.9L539.55 444.36H542.08L538.44 464.9Z" fill="white"/>
</g>
<g opacity="0.55">
<path d="M543.74 473.73V503.61H541.21V472.08H542.09C543 472.08 543.74 472.82 543.74 473.73Z" fill="white"/>
</g>
<g opacity="0.2">
<path d="M544.83 538.77C544.83 542.43 543.29 545.4 541.38 545.4C539.47 545.4 539.45 542.43 539.45 538.77C539.45 535.11 539.48 532.14 541.38 532.14C543.28 532.14 544.83 535.12 544.83 538.77Z" fill="white"/>
</g>
<path d="M555.46 512.67H534.91C532.72 512.67 530.94 510.89 530.94 508.7V507.57C530.94 505.38 532.72 503.6 534.91 503.6H555.46C557.65 503.6 559.43 505.38 559.43 507.57V508.7C559.43 510.9 557.65 512.67 555.46 512.67Z" stroke="#0D2232" stroke-width="4" stroke-miterlimit="10" stroke-linecap="round" stroke-linejoin="round"/>
<path d="M553.79 512.67H536.65V519.75H553.79V512.67Z" stroke="#0D2232" stroke-width="4" stroke-miterlimit="10" stroke-linecap="round" stroke-linejoin="round"/>
<path d="M546.96 564.23H543.41C536.52 564.23 530.94 558.65 530.94 551.76V523.9C530.94 521.61 532.79 519.76 535.08 519.76H555.29C557.58 519.76 559.43 521.61 559.43 523.9V551.76C559.43 558.64 553.85 564.23 546.96 564.23Z" stroke="#0D2232" stroke-width="4" stroke-miterlimit="10" stroke-linecap="round" stroke-linejoin="round"/>
<path d="M555.12 464.9L552.8 472.08H549.82V503.61H540.88V472.08H537.9L535.58 464.9L539.22 444.36H551.48L555.12 464.9Z" stroke="#0D2232" stroke-width="4" stroke-miterlimit="10" stroke-linecap="round" stroke-linejoin="round"/>
<path d="M570.44 506.93V565.09C570.44 565.09 558.85 582.45 536.33 582.45C513.81 582.45 497.71 582.45 497.71 582.45L490.95 573.77C490.95 573.77 485.48 532.95 484.84 517.2C484.84 517.2 546.63 518.85 570.44 506.93Z" fill="#FEC400"/>
<path d="M565.18 509.15V552.81C565.18 560.24 560.98 567.05 554.3 570.31C543.31 575.68 523.28 580.8 490.97 573.78L497.73 582.46L539.73 582.7C539.73 582.7 561.45 579.89 570.46 565.1V506.94L565.18 509.15Z" fill="#E89F02"/>
<path d="M570.44 506.93V561.29C570.44 564 569.41 566.6 567.57 568.58C562.85 573.65 552.36 582.44 536.33 582.44H502.93C499.64 582.44 496.53 580.92 494.51 578.32L492.74 576.05C491.57 574.55 490.82 572.76 490.58 570.88C489.33 561.3 485.39 530.41 484.85 517.19C484.84 517.2 546.63 518.85 570.44 506.93Z" stroke="#0D2232" stroke-width="4" stroke-miterlimit="10" stroke-linecap="round" stroke-linejoin="round"/>
<path d="M570.44 522.02C570.44 522.02 550.72 538.92 486.36 532.49" stroke="#0D2232" stroke-width="4" stroke-miterlimit="10" stroke-linecap="round" stroke-linejoin="round"/>
<path d="M440.81 296.14C445.77 301.26 435.89 319.01 432.45 325.48C429.05 332 428.6 345.52 428.6 345.52L399.91 366.95C396.1 361.83 371.92 351.62 366.8 350.07C361.68 348.55 339.67 345.19 331.48 345.52C323.28 345.85 318.16 343.43 317.63 339.58C317.51 338.56 319.52 337.82 322.63 337.29C331.36 335.69 348.94 335.65 353.24 335.4C359.06 335.07 370.33 329.25 379.55 328.93C388.77 328.56 401.76 328.93 401.76 328.93C401.19 325.04 406.72 320.37 412.62 316.14C417.58 312.62 422.86 309.38 425.04 307.21C429.79 302.41 435.9 291.01 440.81 296.14Z" fill="#FBC6A6"/>
<path opacity="0.16" d="M412.62 316.13C406.72 320.35 401.19 325.02 401.76 328.92C401.76 328.92 388.77 328.55 379.55 328.92C370.33 329.25 359.06 335.07 353.24 335.39C348.94 335.64 331.36 335.68 322.63 337.28C322.63 337.28 320.13 331.58 329.68 331.01C329.68 330.81 329.84 328.51 336.85 327.36C344.19 326.17 360.37 324.82 369.26 322.77C378.16 320.72 412.62 316.13 412.62 316.13Z" fill="black"/>
<path d="M412.62 316.13C406.72 320.35 401.19 325.02 401.76 328.92C401.76 328.92 388.77 328.55 379.55 328.92C370.33 329.25 359.06 335.07 353.24 335.39C348.94 335.64 331.36 335.68 322.63 337.28C322.63 337.28 320.13 331.58 329.68 331.01C329.68 330.81 329.84 328.51 336.85 327.36C344.19 326.17 360.37 324.82 369.26 322.77C378.16 320.72 412.62 316.13 412.62 316.13Z" stroke="#0D2232" stroke-width="6" stroke-miterlimit="10" stroke-linecap="round" stroke-linejoin="round"/>
<path opacity="0.16" d="M424.23 348.78C424.23 348.78 425.02 331.28 428.08 325.47C431.14 319.66 441.72 303.01 436.44 296.13" stroke="black" stroke-width="6" stroke-miterlimit="10"/>
<path opacity="0.16" d="M404.62 364.65C404.62 364.65 389.08 352.41 366.66 346.68C344.24 340.96 324.85 346.45 322.33 337.27" stroke="black" stroke-width="6" stroke-miterlimit="10"/>
<path opacity="0.5" d="M440.57 294.84L414.62 319.13C403.98 326.54 403.76 331.92 403.76 331.92L390.63 331.76C390.63 331.76 378.77 331.46 374.2 332.61C369.62 333.76 345.55 335.63 340.18 335.81" stroke="white" stroke-width="6" stroke-miterlimit="10"/>
<path d="M440.81 296.14C445.77 301.26 435.89 319.01 432.45 325.48C429.05 332 428.6 345.52 428.6 345.52L399.91 366.95C396.1 361.83 371.92 351.62 366.8 350.07C361.68 348.55 339.67 345.19 331.48 345.52C323.28 345.85 318.16 343.43 317.63 339.58C317.51 338.56 319.52 337.82 322.63 337.29C331.36 335.69 348.94 335.65 353.24 335.4C359.06 335.07 370.33 329.25 379.55 328.93C388.77 328.56 401.76 328.93 401.76 328.93C401.19 325.04 406.72 320.37 412.62 316.14C417.58 312.62 422.86 309.38 425.04 307.21C429.79 302.41 435.9 291.01 440.81 296.14Z" stroke="#0D2232" stroke-width="6" stroke-miterlimit="10" stroke-linecap="round" stroke-linejoin="round"/>
<path d="M604.98 251.18C604.98 251.18 635.68 268.5 671.19 251.18" stroke="#0D2232" stroke-width="12" stroke-miterlimit="10" stroke-linecap="round" stroke-linejoin="round"/>
</g>
<defs>
<clipPath id="clip0_344_6469">
<rect width="882" height="715" fill="white"/>
</clipPath>
</defs>
</svg>
