<svg width="1000" height="1000" viewBox="0 0 1000 1000" fill="none" xmlns="http://www.w3.org/2000/svg">
<path d="M249.79 863.94C248.13 863.94 246.79 862.6 246.79 860.94V860C246.79 851.58 253.64 844.72 262.07 844.72H272.66L318.8 823.88V413.52C318.8 411.86 320.14 410.52 321.8 410.52H331.94C333.6 410.52 334.94 411.86 334.94 413.52V824.15L379.52 844.35H390.37C398.79 844.35 405.65 851.2 405.65 859.63V860.58C405.65 862.24 404.31 863.58 402.65 863.58H382.97C382.54 863.58 382.11 863.49 381.72 863.31L326.59 838.1L270.73 863.68C270.34 863.86 269.91 863.95 269.48 863.95H249.79V863.94Z" fill="#253B5A"/>
<path d="M331.94 413.52V826.09L378.89 847.36H390.38C397.16 847.36 402.66 852.85 402.66 859.64V860.59H382.97L326.59 834.81L269.49 860.96H249.8V860C249.8 853.22 255.3 847.72 262.08 847.72H273.32L321.82 825.82V413.52H331.94ZM331.94 407.52H321.8C318.49 407.52 315.8 410.21 315.8 413.52V821.96L272.01 841.73H262.07C251.99 841.73 243.79 849.93 243.79 860.01V860.95C243.79 864.26 246.48 866.95 249.79 866.95H269.48C270.34 866.95 271.19 866.76 271.98 866.41L326.59 841.4L380.47 866.04C381.25 866.4 382.1 866.58 382.96 866.58H402.65C405.96 866.58 408.65 863.89 408.65 860.58V859.63C408.65 849.55 400.45 841.35 390.37 841.35H380.17L337.94 822.21V413.51C337.94 410.2 335.25 407.52 331.94 407.52Z" fill="#0D2232"/>
<path d="M593.23 152.44H59.21V417.38H593.23V152.44Z" fill="white"/>
<path d="M593.23 152.44H59.21V173.26H593.23V152.44Z" fill="#253B5A"/>
<path d="M593.23 395.27H59.21V417.37H593.23V395.27Z" fill="#253B5A"/>
<path d="M593.23 395.27H59.21V417.37H593.23V395.27Z" stroke="#0D2232" stroke-width="6" stroke-miterlimit="10" stroke-linecap="round" stroke-linejoin="round"/>
<path d="M593.23 152.44H59.21V417.38H593.23V152.44Z" stroke="#0D2232" stroke-width="6" stroke-miterlimit="10" stroke-linecap="round" stroke-linejoin="round"/>
<path opacity="0.21" d="M595.59 152.44H59.21V162.85H595.59V152.44Z" fill="white"/>
<path d="M593.23 152.44H59.21V173.26H593.23V152.44Z" stroke="#0D2232" stroke-width="6" stroke-miterlimit="10" stroke-linecap="round" stroke-linejoin="round"/>
<path d="M595.59 395.91H61.5698V416.73H595.59V395.91Z" fill="#253B5A"/>
<path opacity="0.21" d="M59.2113 416.733L595.591 416.733V406.323L59.2113 406.323V416.733Z" fill="white"/>
<path d="M595.59 395.91H61.5698V416.73H595.59V395.91Z" stroke="#0D2232" stroke-width="6" stroke-miterlimit="10" stroke-linecap="round" stroke-linejoin="round"/>
<path d="M471.62 468.13C465.72 472.35 460.19 477.02 460.76 480.92C460.76 480.92 447.77 480.55 438.55 480.92C429.33 481.25 418.06 487.07 412.24 487.39C407.94 487.64 390.36 487.68 381.63 489.28C381.63 489.28 379.13 483.58 388.68 483.01C388.68 482.81 388.84 480.51 395.85 479.36C403.19 478.17 419.37 476.82 428.26 474.77C437.16 472.72 471.62 468.13 471.62 468.13Z" fill="#FBC6A6"/>
<path d="M588.46 492.36L556.55 513.07L487.95 494.6L458.91 518.95C458.91 518.95 543.9 564.28 568.21 564.27L593.22 547.49L588.46 492.36Z" fill="#FBC6A6"/>
<path opacity="0.16" d="M483.23 500.78L556.56 518.67L588.46 497.96" stroke="black" stroke-width="6" stroke-miterlimit="10"/>
<path opacity="0.5" d="M593.23 542.49L568.22 559.27C568.22 559.27 538.57 556.32 507.93 539.62C480.54 524.69 462.27 516.45 462.27 516.45" stroke="white" stroke-width="6" stroke-miterlimit="10"/>
<path d="M588.46 492.36L556.55 513.07L487.6 497.52L458.91 518.95C458.91 518.95 543.9 564.28 568.21 564.27L593.22 547.49L588.46 492.36Z" stroke="#0D2232" stroke-width="6" stroke-miterlimit="10" stroke-linecap="round" stroke-linejoin="round"/>
<path d="M611.39 554.11L585.34 565.85L561.99 517.32L555.68 504.19L580.65 492.03L587.53 505.92L611.39 554.11Z" fill="#435F84"/>
<path opacity="0.21" d="M587.53 505.92L587.49 505.96L561.99 517.32L555.68 504.19L580.65 492.03L587.53 505.92Z" fill="white"/>
<path d="M623.87 475.67V542.37L609.04 549.92L587.49 505.96L583 496.78L623.87 475.67Z" fill="#F9DC1B"/>
<path opacity="0.5" d="M623.87 475.67V487.62L587.49 505.96L583 496.78L623.87 475.67Z" fill="white"/>
<path d="M600.27 532.02L623.87 522.65V542.37L609.04 549.92L600.27 532.02Z" fill="#E89F02"/>
<path d="M580.65 492.03L611.39 554.11L585.34 565.86L555.68 504.19L580.65 492.03Z" stroke="#0D2232" stroke-width="6" stroke-miterlimit="10" stroke-linecap="round" stroke-linejoin="round"/>
<path d="M623.87 475.67L583 496.78L609.04 549.92L623.87 542.37V475.67Z" stroke="#0D2232" stroke-width="6" stroke-miterlimit="10"/>
<path d="M612.504 795.609L685.934 795.609L685.934 774.109L612.504 774.109L612.504 795.609Z" fill="#435F84" stroke="#0D2232" stroke-width="6" stroke-miterlimit="10" stroke-linecap="round" stroke-linejoin="round"/>
<path d="M823.42 734.45V775.39L842.7 795.63L861.35 775.39L861.31 674.57H846.2L823.42 734.45Z" fill="#AFCADC"/>
<path d="M842.38 771.47C846.373 771.47 849.61 768.233 849.61 764.24C849.61 760.247 846.373 757.01 842.38 757.01C838.387 757.01 835.15 760.247 835.15 764.24C835.15 768.233 838.387 771.47 842.38 771.47Z" stroke="#0D2232" stroke-width="4" stroke-miterlimit="10" stroke-linecap="round" stroke-linejoin="round"/>
<path opacity="0.2" d="M861.35 675.66H854.7V771.47L842.77 783.4L830.34 770.97V681.92L823.42 682.38V775.39L843.18 795.15L862.15 776.19L861.35 675.66Z" fill="black"/>
<path d="M823.42 734.45V775.39L842.7 795.63L861.35 775.39V675.66H846.24L823.42 734.45Z" stroke="#0D2232" stroke-width="4" stroke-miterlimit="10" stroke-linecap="round" stroke-linejoin="round"/>
<path d="M843.29 284.08C843.29 284.08 837.31 289.43 810.89 291.63C784.46 293.83 598.5 299.42 598.5 299.42L587.05 293.83C587.05 293.83 560.74 292.38 557.01 284.08C553.28 275.78 647.08 242.87 647.08 242.87L765.59 239.25L792.65 250.02L843.29 284.08Z" fill="#CFB300"/>
<path d="M843.29 284.08C843.29 284.08 837.31 289.43 810.89 291.63C784.46 293.83 598.5 299.42 598.5 299.42L587.05 293.83C587.05 293.83 560.74 292.38 557.01 284.08C553.28 275.78 647.08 242.87 647.08 242.87L765.59 239.25L792.65 250.02L843.29 284.08Z" stroke="#0D2232" stroke-width="6" stroke-miterlimit="10" stroke-linecap="round" stroke-linejoin="round"/>
<path d="M588.09 332.85C588.09 332.85 557.9 336.47 561.67 371.39C565.45 406.31 608.93 399.02 608.93 399.02L605.19 348.89L588.09 332.85Z" fill="#FBC6A6" stroke="#0D2232" stroke-width="6" stroke-miterlimit="10"/>
<path d="M819.69 332.85C819.69 332.85 842.66 336.63 844.39 362.11C846.12 387.59 817.78 410.1 795.61 401.2C773.44 392.3 789.8 354.24 789.8 354.24L819.69 332.85Z" fill="#FBC6A6" stroke="#0D2232" stroke-width="6" stroke-miterlimit="10"/>
<path opacity="0.4" d="M817.65 347.95C817.65 347.95 829.58 354.27 824.49 368.01C817.37 387.26 802.86 381.92 802.86 381.92L807.26 358.01L817.65 347.95Z" fill="black"/>
<path opacity="0.4" d="M583.71 347.95C583.71 347.95 571.78 354.27 576.87 368.01C583.99 387.26 598.5 381.92 598.5 381.92L594.1 358.01L583.71 347.95Z" fill="black"/>
<path d="M806.07 336.62V365.29C806.07 365.29 805.81 370.26 803.99 377.95C799.91 395.19 788 426.11 753.63 445.47C748.74 448.22 743.82 450.51 738.89 452.37C724.57 457.78 710.23 459.61 696.56 458.85C667.11 457.21 640.85 443.54 624.96 427.85C599.16 402.37 597.59 363.53 597.59 363.53V309.25L628.11 272.44L784.86 274.33L804.18 296.98L806.07 336.62Z" fill="#FBC6A6"/>
<path opacity="0.5" d="M644.58 431.89C664.9 446.55 683.95 454.04 698.57 457.86C669.12 456.22 642.86 442.55 626.97 426.86C601.17 401.38 599.6 362.54 599.6 362.54V352.94L608.06 346.32C608.05 346.32 600.53 400.11 644.58 431.89Z" fill="white"/>
<path opacity="0.5" d="M800.99 377.95C796.91 395.19 785 426.11 750.63 445.47C745.74 448.22 740.82 450.51 735.89 452.37C753.38 438.74 781.85 413.61 790.58 388.63C793.54 380.18 797.16 377.31 800.99 377.95Z" fill="white"/>
<path d="M843.29 284.08C843.29 284.08 832.28 279.99 817.49 279.99C802.7 279.99 582.65 279.99 582.65 279.99C582.65 279.99 562.67 279.2 557.01 284.08V270.4C557.01 265.1 561.31 260.8 566.61 260.8H833.7C839 260.8 843.3 265.1 843.3 270.4V284.08H843.29Z" fill="#F9DC1B"/>
<path d="M828.06 260.8C828.06 260.91 828.06 260.96 828.06 260.96H700.02V260.8H571.98C571.98 260.8 571.98 260.77 571.98 260.72C571.94 259.67 571.53 249.23 571.98 244.45C572.45 239.41 576.54 239.26 576.54 239.26C576.54 239.26 583.62 176.5 655.03 155.74C655.03 155.74 654.4 143.15 666.04 141.9C677.68 140.65 700.02 139.07 700.02 139.07V139.23C700.02 139.23 722.35 140.8 733.99 142.06C745.63 143.32 745 155.9 745 155.9C816.41 176.66 823.49 239.42 823.49 239.42C823.49 239.42 827.58 239.58 828.05 244.61C828.5 249.28 828.12 259.41 828.06 260.8Z" fill="#F9DC1B"/>
<path opacity="0.73" d="M828.06 260.8H817.18C817.18 260.8 811.67 196.62 745.14 164.53L745.1 157.27C745.1 157.27 692.93 140.93 654.91 158.55L655.39 168.94C655.39 168.94 596.34 185.29 581.87 260.48L571.98 260.71C571.94 259.66 571.53 249.22 571.98 244.44C572.45 239.4 576.54 239.25 576.54 239.25C576.54 239.25 583.62 176.49 655.03 155.73C655.03 155.73 654.4 143.14 666.04 141.89C677.68 140.64 700.02 139.06 700.02 139.06V139.22C700.02 139.22 722.35 140.79 733.99 142.05C745.63 143.31 745 155.89 745 155.89C816.41 176.65 823.49 239.41 823.49 239.41C823.49 239.41 827.58 239.57 828.05 244.6C828.5 249.28 828.12 259.41 828.06 260.8Z" fill="white"/>
<path d="M828.06 244.6C827.59 239.57 823.5 239.41 823.5 239.41C823.5 239.41 816.42 176.65 745.01 155.89C745.01 155.89 745.64 143.31 734 142.05C722.36 140.79 700.02 139.22 700.02 139.22V139.06C700.02 139.06 677.68 140.63 666.04 141.89C654.4 143.15 655.03 155.73 655.03 155.73C583.62 176.49 576.54 239.25 576.54 239.25C576.54 239.25 572.45 239.41 571.98 244.44C571.51 249.47 571.98 260.8 571.98 260.8H700.02V260.96H828.06C828.06 260.96 828.53 249.64 828.06 244.6Z" stroke="#0D2232" stroke-width="6" stroke-miterlimit="10" stroke-linecap="round" stroke-linejoin="round"/>
<path d="M744.38 468.86H774.71V634.54H624.96V468.86H744.38Z" fill="white"/>
<path d="M748.18 475.67H654.64V576.55H748.18V475.67Z" fill="#F9DC1B"/>
<path d="M774.71 597.73H624.96V634.54H774.71V597.73Z" fill="#F9DC1B"/>
<path d="M726.15 456.8C726.15 456.8 696.77 463.09 676.75 456.8L669.83 487.74L688.08 494.55C688.08 494.55 700.15 499.58 714.83 494.55C729.51 489.52 734.13 474.84 734.13 474.84L726.15 456.8Z" fill="#FBC6A6" stroke="#0D2232" stroke-width="6" stroke-miterlimit="10"/>
<path d="M745.2 490.83C744.41 502.68 742.51 513.64 742.51 513.64L714.82 494.55C714.82 494.55 717.99 487.04 720.6 479.6C722.12 475.25 723.46 470.91 723.84 468.12C724.89 460.57 726.15 456.8 726.15 456.8C726.15 456.8 742.3 455.96 744.81 470.85C745.76 476.41 745.68 483.77 745.2 490.83Z" fill="#435F84"/>
<path d="M745.2 490.83C738.07 490.3 729.77 486.75 725.49 483.71C723.77 482.48 722.09 481.12 720.6 479.6C722.12 475.25 723.46 470.91 723.84 468.12C724.89 460.57 726.15 456.8 726.15 456.8C726.15 456.8 742.3 455.96 744.81 470.85C745.76 476.41 745.68 483.77 745.2 490.83Z" fill="#253B5A"/>
<path d="M726.15 456.8C726.15 456.8 742.3 455.96 744.82 470.85C747.34 485.74 742.51 513.63 742.51 513.63L714.83 494.54C714.83 494.54 722.8 475.66 723.85 468.11C724.9 460.56 726.15 456.8 726.15 456.8Z" stroke="#0D2232" stroke-width="6" stroke-miterlimit="10"/>
<path d="M657.71 490.83C658.5 502.68 660.4 513.64 660.4 513.64L688.09 494.55C688.09 494.55 684.92 487.04 682.31 479.6C680.79 475.25 679.45 470.91 679.07 468.12C678.02 460.57 676.76 456.8 676.76 456.8C676.76 456.8 660.61 455.96 658.1 470.85C657.15 476.41 657.23 483.77 657.71 490.83Z" fill="#435F84"/>
<path d="M657.71 490.83C664.84 490.3 673.14 486.75 677.42 483.71C679.14 482.48 680.82 481.12 682.31 479.6C680.79 475.25 679.45 470.91 679.07 468.12C678.02 460.57 676.76 456.8 676.76 456.8C676.76 456.8 660.61 455.96 658.1 470.85C657.15 476.41 657.23 483.77 657.71 490.83Z" fill="#253B5A"/>
<path d="M676.75 456.8C676.75 456.8 660.6 455.96 658.08 470.85C655.56 485.74 660.39 513.63 660.39 513.63L688.07 494.54C688.07 494.54 680.1 475.66 679.05 468.11C678 460.56 676.75 456.8 676.75 456.8Z" stroke="#0D2232" stroke-width="6" stroke-miterlimit="10"/>
<path d="M679.59 528.31H640.58V563.96H679.59V528.31Z" fill="#F9DC1B" stroke="#0D2232" stroke-width="6" stroke-miterlimit="10"/>
<path d="M679.59 542.37H640.58" stroke="#0D2232" stroke-width="6" stroke-miterlimit="10"/>
<path d="M745 155.89C745 155.89 746.1 166.43 741.85 187.98Z" fill="#F9DC1B"/>
<path d="M745 155.89C745 155.89 746.1 166.43 741.85 187.98" stroke="#0D2232" stroke-width="6" stroke-miterlimit="10" stroke-linecap="round" stroke-linejoin="round"/>
<path d="M823.49 239.41H791.06C787.63 239.41 784.85 242.19 784.85 245.62V260.96" stroke="#0D2232" stroke-width="6" stroke-miterlimit="10" stroke-linecap="round" stroke-linejoin="round"/>
<path d="M655.03 155.73C655.03 155.73 653.93 166.27 658.18 187.82Z" fill="#F9DC1B"/>
<path d="M655.03 155.73C655.03 155.73 653.93 166.27 658.18 187.82" stroke="#0D2232" stroke-width="6" stroke-miterlimit="10" stroke-linecap="round" stroke-linejoin="round"/>
<path d="M576.54 239.25H608.97C612.4 239.25 615.18 242.03 615.18 245.46V260.8" stroke="#0D2232" stroke-width="6" stroke-miterlimit="10" stroke-linecap="round" stroke-linejoin="round"/>
<path opacity="0.74" d="M829.91 270.19C823.45 267.73 816.35 267.78 809.45 267.85C759 268.39 708.55 268.92 658.1 269.46C635.68 269.7 613.27 269.94 590.85 270.18C580.9 270.29 569.74 270.91 563.04 278.25C561.72 279.7 560.43 281.48 558.49 281.77C555.53 282.22 553.34 278.78 553.28 275.79C553.16 270.18 557.48 265.23 562.58 262.87C567.68 260.52 573.46 260.24 579.07 260.05C662.17 257.22 745.51 265.29 828.43 259.16C833.22 258.81 838.88 258.78 841.75 262.64C843.33 264.77 843.59 267.58 843.8 270.23C844 272.9 846.18 282.86 840.81 279.05C839.07 277.82 837.87 275.13 836.07 273.69C834.23 272.22 832.12 270.96 829.91 270.19Z" fill="white"/>
<path d="M843.29 284.08C843.29 284.08 832.28 279.99 817.49 279.99C802.7 279.99 582.65 279.99 582.65 279.99C582.65 279.99 562.67 279.2 557.01 284.08V270.4C557.01 265.1 561.31 260.8 566.61 260.8H833.7C839 260.8 843.3 265.1 843.3 270.4V284.08H843.29Z" stroke="#0D2232" stroke-width="6" stroke-miterlimit="10" stroke-linecap="round" stroke-linejoin="round"/>
<path d="M606.01 314.08C606.01 314.08 605.47 343.07 606.01 351.41C606.55 359.75 600.89 367.3 592.24 361.48C583.59 355.66 585.27 321.06 585.27 321.06C585.27 321.06 594.25 321.47 606.01 314.08Z" fill="#253B5A" stroke="#0D2232" stroke-width="6" stroke-miterlimit="10"/>
<path d="M653.46 368.07C662.319 368.07 669.5 360.889 669.5 352.03C669.5 343.171 662.319 335.99 653.46 335.99C644.601 335.99 637.42 343.171 637.42 352.03C637.42 360.889 644.601 368.07 653.46 368.07Z" fill="#0D2232"/>
<path d="M752.2 368.07C761.059 368.07 768.24 360.889 768.24 352.03C768.24 343.171 761.059 335.99 752.2 335.99C743.342 335.99 736.16 343.171 736.16 352.03C736.16 360.889 743.342 368.07 752.2 368.07Z" fill="#0D2232"/>
<path d="M774.71 634.54H624.96V668.41H774.71V634.54Z" fill="#253B5A" stroke="#0D2232" stroke-width="6" stroke-miterlimit="10"/>
<path d="M725.53 634.54H678.13V668.41H725.53V634.54Z" fill="#C3CDD4" stroke="#0D2232" stroke-width="6" stroke-miterlimit="10"/>
<path d="M843.52 845H846.88C848.5 845 849.82 846.31 849.82 847.94V856.59C849.82 858.99 847.87 860.94 845.47 860.94H769.08L753.46 850.45V860.94H714.7C712.3 860.94 710.35 858.99 710.35 856.59V840.13C710.35 837.84 712.21 835.98 714.5 835.99H715.94L817.57 835.1L843.52 845Z" fill="#484D60" stroke="#0D2232" stroke-width="6" stroke-miterlimit="10" stroke-linecap="round" stroke-linejoin="round"/>
<path d="M845.1 841.23L843.53 845H773.53L755.44 835.98H715.94C715.94 835.98 714.13 827.28 715.65 816.5C716.59 809.81 718.82 802.32 723.56 795.61H783.75L788.47 800.65C788.47 800.65 796.96 800.96 797.59 808.83C797.59 808.83 799.08 808.08 801.65 807.26C806.72 805.64 815.98 803.71 826.22 806.63C841.64 811.03 848.87 830.85 845.1 841.23Z" fill="#E89F02"/>
<path d="M739.08 835.99H715.94C715.94 835.99 714.13 827.29 715.65 816.51C715.74 816.5 715.84 816.5 715.94 816.49C739.04 815.33 739.08 835.99 739.08 835.99Z" fill="#834526"/>
<path opacity="0.75" d="M845.1 841.23L843.53 845H833.46C833.46 845 842.42 812.71 801.66 807.25C806.73 805.63 815.99 803.7 826.23 806.62C841.64 811.03 848.87 830.85 845.1 841.23Z" fill="white"/>
<path d="M783.75 795.61L788.47 800.64C788.47 800.64 796.96 800.95 797.59 808.82C797.59 808.82 810.8 802.21 826.22 806.62C841.64 811.02 848.87 830.84 845.1 841.23L843.53 845.01H773.53L755.44 835.99H715.94C715.94 835.99 711.19 813.13 723.56 795.62H783.75V795.61Z" stroke="#0D2232" stroke-width="6" stroke-miterlimit="10" stroke-linecap="round" stroke-linejoin="round"/>
<path d="M797.59 808.83C797.59 808.83 777.35 815.44 773.52 845.01" stroke="#0D2232" stroke-width="6" stroke-miterlimit="10" stroke-linecap="round" stroke-linejoin="round"/>
<path d="M788.47 800.65C788.47 800.65 774.31 803.48 769.07 816.48" stroke="#0D2232" stroke-width="6" stroke-miterlimit="10" stroke-linecap="round" stroke-linejoin="round"/>
<path d="M788.47 774.12H715.04V795.62H788.47V774.12Z" fill="#435F84" stroke="#0D2232" stroke-width="6" stroke-miterlimit="10" stroke-linecap="round" stroke-linejoin="round"/>
<path d="M781.86 774.12L773.37 668.41H700.49V688.97L710.35 688.34L720.83 774.12H781.86Z" fill="#435F84" stroke="#0D2232" stroke-width="6" stroke-miterlimit="10" stroke-linecap="round" stroke-linejoin="round"/>
<path d="M557.45 845H554.09C552.47 845 551.15 846.31 551.15 847.94V856.59C551.15 858.99 553.1 860.94 555.5 860.94H631.89L647.51 850.45V860.94H686.26C688.66 860.94 690.61 858.99 690.61 856.59V840.13C690.61 837.84 688.75 835.98 686.46 835.99H685.02L583.39 835.1L557.45 845Z" fill="#484D60" stroke="#0D2232" stroke-width="6" stroke-miterlimit="10" stroke-linecap="round" stroke-linejoin="round"/>
<path d="M555.88 841.23L557.45 845H627.45L645.54 835.98H685.04C685.04 835.98 686.85 827.28 685.33 816.5C684.39 809.81 682.16 802.32 677.42 795.61H617.23L612.51 800.65C612.51 800.65 604.02 800.96 603.39 808.83C603.39 808.83 601.9 808.08 599.33 807.26C594.26 805.64 585 803.71 574.76 806.63C559.34 811.03 552.1 830.85 555.88 841.23Z" fill="#E89F02"/>
<path d="M661.9 835.99H685.04C685.04 835.99 686.85 827.29 685.33 816.51C685.24 816.5 685.14 816.5 685.04 816.49C661.94 815.33 661.9 835.99 661.9 835.99Z" fill="#834526"/>
<path opacity="0.75" d="M555.88 841.23L557.45 845H567.52C567.52 845 558.56 812.71 599.32 807.25C594.25 805.63 584.99 803.7 574.75 806.62C559.34 811.03 552.1 830.85 555.88 841.23Z" fill="white"/>
<path d="M617.23 795.61L612.51 800.64C612.51 800.64 604.02 800.95 603.39 808.82C603.39 808.82 590.18 802.21 574.76 806.62C559.34 811.02 552.11 830.84 555.88 841.23L557.45 845.01H627.45L645.54 835.99H685.04C685.04 835.99 689.79 813.13 677.42 795.62H617.23V795.61Z" stroke="#0D2232" stroke-width="6" stroke-miterlimit="10" stroke-linecap="round" stroke-linejoin="round"/>
<path d="M603.38 808.83C603.38 808.83 623.62 815.44 627.45 845.01" stroke="#0D2232" stroke-width="6" stroke-miterlimit="10" stroke-linecap="round" stroke-linejoin="round"/>
<path d="M612.51 800.65C612.51 800.65 626.67 803.48 631.91 816.48" stroke="#0D2232" stroke-width="6" stroke-miterlimit="10" stroke-linecap="round" stroke-linejoin="round"/>
<path d="M619.11 774.12L627.61 668.41H700.49V688.97L690.63 688.34L680.14 774.12H619.11Z" fill="#435F84" stroke="#0D2232" stroke-width="6" stroke-miterlimit="10" stroke-linecap="round" stroke-linejoin="round"/>
<g opacity="0.16">
<path d="M604.88 279.99H806.07L810.89 291.63H598.5L604.88 279.99Z" fill="black"/>
<path d="M585.27 321.06C585.27 321.06 620.89 329.84 656.54 291.64L624.96 286.85L585.27 321.06Z" fill="black"/>
<path d="M672.46 318.37C672.46 318.37 725.61 327.19 759.68 285.81L730.18 286.84L672.46 318.37Z" fill="black"/>
</g>
<path opacity="0.16" d="M802.86 344.43C802.86 344.43 785.56 441.81 682.3 454.33C682.3 454.33 790.43 469.69 803.8 365.24L802.86 344.43Z" fill="black"/>
<path d="M768.68 616.14H630.87V628.43H768.68V616.14Z" fill="#E89F02"/>
<path d="M744.8 468.86H775.24V634.54H624.96V468.86H654.74" stroke="#0D2232" stroke-width="6" stroke-miterlimit="10"/>
<path d="M637.86 279.99C637.86 279.99 610.8 326.24 578.71 320.57C575.8 320.05 573.18 319.47 570.85 318.85C547.5 312.57 551.66 301.44 551.66 301.44C551.66 301.44 571.18 306.8 584.69 281.81C585.01 281.22 585.32 280.62 585.63 280H637.86V279.99Z" fill="#253B5A"/>
<path opacity="0.21" d="M576.54 303.9C567.55 309.4 563.93 309.25 563.93 309.25C563.93 309.25 562.83 313.82 570.85 318.85C547.5 312.57 551.66 301.44 551.66 301.44C551.66 301.44 573.54 304.98 587.05 279.99C587.07 280.33 585.43 298.46 576.54 303.9Z" fill="white"/>
<path d="M850.21 305.79C850.21 305.79 836.85 326.52 813.54 321.81C800.19 319.11 783.57 308.06 764.32 280L821.88 280.12C821.88 280.12 822.06 283.01 823.28 286.85C825.74 294.52 832.38 306 850.21 305.79Z" fill="#253B5A"/>
<path opacity="0.21" d="M850.21 305.79C850.21 305.79 836.85 326.52 813.54 321.81C816.2 321.05 818.78 319.96 821.25 318.73C826.23 316.24 830.89 313.15 835.84 310.6C830.34 310.34 825.44 306.28 823.28 301.21C821.76 297.63 820.7 291.66 822.44 287.97C822.67 287.48 822.97 287.11 823.3 286.86C825.74 294.52 832.38 306 850.21 305.79Z" fill="white"/>
<path d="M821.89 280.11C821.89 280.11 823.47 306.1 850.21 305.79C850.21 305.79 817.18 357.07 764.33 279.99L821.89 280.11Z" stroke="#0D2232" stroke-width="6" stroke-miterlimit="10" stroke-linecap="round" stroke-linejoin="round"/>
<path d="M737.58 279.99C737.58 279.99 725.31 313.34 672.46 318.37C672.46 318.37 681.58 302.01 681.58 279.99H737.58Z" fill="#253B5A" stroke="#0D2232" stroke-width="6" stroke-miterlimit="10" stroke-linecap="round" stroke-linejoin="round"/>
<path d="M637.86 279.99C637.86 279.99 610.8 326.24 578.72 320.57C546.64 314.9 551.66 301.43 551.66 301.43C551.66 301.43 572.11 307.04 585.64 279.98H637.86V279.99Z" stroke="#0D2232" stroke-width="6" stroke-miterlimit="10" stroke-linecap="round" stroke-linejoin="round"/>
<path d="M806.07 365.29C806.07 365.29 803.34 417.47 753.63 445.47C703.92 473.47 650.76 453.33 624.96 427.85C599.16 402.37 597.59 363.53 597.59 363.53" stroke="#0D2232" stroke-width="6" stroke-miterlimit="10"/>
<path d="M819.69 322.5C819.69 322.5 819.22 349.21 818.12 354.4C817.02 359.59 812.46 366.04 803.81 365.25C795.16 364.46 795.47 353.3 795.32 345.43C795.16 337.57 795.32 313.54 795.32 313.54C795.32 313.54 807.11 322.85 819.69 322.5Z" fill="#253B5A" stroke="#0D2232" stroke-width="6" stroke-miterlimit="10" stroke-linecap="round" stroke-linejoin="round"/>
<path d="M718.33 668.41L741.18 795.61H723.56H715.04V774.12H720.83L710.35 685L700.49 688.97V668.41H718.33Z" fill="#253B5A"/>
<path d="M664.33 774.12L660.09 795.61H685.94V774.12H680.14L690.63 685L700.49 688.97V668.41H678.13L664.33 774.12Z" fill="#253B5A"/>
<path d="M710.35 688.34L722.72 686.87" stroke="#0D2232" stroke-width="6" stroke-miterlimit="10" stroke-linecap="round" stroke-linejoin="round"/>
<path d="M690.63 688.34L678.26 686.87" stroke="#0D2232" stroke-width="6" stroke-miterlimit="10" stroke-linecap="round" stroke-linejoin="round"/>
<path d="M773.37 668.41H759.9L769.07 774.12H775.24V795.61H788.47V774.12H781.86L773.37 668.41Z" fill="#C3CDD4"/>
<path d="M628.27 668.41H641.73L632.57 774.12H626.4V795.61H613.17V774.12H619.77L628.27 668.41Z" fill="#C3CDD4"/>
<path d="M788.47 774.12H715.04V795.62H788.47V774.12Z" stroke="#0D2232" stroke-width="6" stroke-miterlimit="10" stroke-linecap="round" stroke-linejoin="round"/>
<path d="M781.86 774.12L773.37 668.41H700.49V688.97L710.35 688.34L720.83 774.12H781.86Z" stroke="#0D2232" stroke-width="6" stroke-miterlimit="10" stroke-linecap="round" stroke-linejoin="round"/>
<path d="M619.11 774.12L627.61 668.41H700.49V688.97L690.63 688.34L680.14 774.12H619.11Z" stroke="#0D2232" stroke-width="6" stroke-miterlimit="10" stroke-linecap="round" stroke-linejoin="round"/>
<path d="M851.35 681.09H834.15V746.23H851.35V681.09Z" fill="#E89F02"/>
<path d="M940.79 660.34V670.68C940.79 673.43 938.55 675.66 935.8 675.66H857.33C854.58 675.66 852.35 673.43 852.35 670.68V660.34C852.35 659.74 852.46 659.16 852.65 658.63C853.34 656.72 855.18 655.35 857.33 655.35H935.8C937.95 655.35 939.79 656.72 940.49 658.63C940.68 659.16 940.79 659.74 940.79 660.34Z" fill="#AFCADC"/>
<path opacity="0.2" d="M852.35 669.58V670.68C852.35 673.43 854.58 675.67 857.33 675.67H935.8C938.55 675.67 940.78 673.44 940.78 670.68V669.58H852.35Z" fill="black"/>
<path opacity="0.7" d="M940.49 658.63H852.65C853.34 656.72 855.18 655.35 857.33 655.35H935.8C937.96 655.35 939.79 656.71 940.49 658.63Z" fill="white"/>
<path d="M940.79 660.34V670.68C940.79 673.43 938.55 675.66 935.8 675.66H857.33C854.58 675.66 852.35 673.43 852.35 670.68V660.34C852.35 659.74 852.46 659.16 852.65 658.63C853.34 656.72 855.18 655.35 857.33 655.35H935.8C937.95 655.35 939.79 656.72 940.49 658.63C940.68 659.16 940.79 659.74 940.79 660.34Z" stroke="#0D2232" stroke-width="4" stroke-miterlimit="10" stroke-linecap="round" stroke-linejoin="round"/>
<path d="M766.85 674.02C766.85 674.02 788.06 690.73 852.35 684.31" stroke="white" stroke-miterlimit="10"/>
<path d="M748.85 634.16V722.88L760.42 734.45H839.49L828.88 726.09L829.52 634.16H748.85Z" fill="#F9DC1B"/>
<path d="M758.49 634.16V717.32L765.24 726.09H846.24L839.49 734.45H760.42L748.85 722.88V634.16H758.49Z" fill="#E89F02"/>
<path d="M761.06 646.52H755.92V651.66H761.06V646.52Z" fill="white"/>
<path d="M761.06 662.93H755.92V668.07H761.06V662.93Z" fill="white"/>
<path d="M761.06 679.35H755.92V684.49H761.06V679.35Z" fill="white"/>
<path d="M761.06 695.76H755.92V700.9H761.06V695.76Z" fill="white"/>
<path d="M761.06 712.17H755.92V717.31H761.06V712.17Z" fill="white"/>
<path d="M829.52 669.2V634.16H748.85V722.88L760.42 734.45H832.42" stroke="#0D2232" stroke-width="4" stroke-miterlimit="10" stroke-linecap="round" stroke-linejoin="round"/>
<path d="M612.504 795.609L685.934 795.609L685.934 774.109L612.504 774.109L612.504 795.609Z" stroke="#0D2232" stroke-width="6" stroke-miterlimit="10" stroke-linecap="round" stroke-linejoin="round"/>
<path d="M841.74 512.55C841.74 512.55 869.38 528.62 863.6 549.84C857.82 571.06 816.67 599.34 816.67 599.34C816.67 599.34 814.74 575.55 785.81 570.41L803.81 552.41L841.74 512.55Z" fill="#FBC6A6"/>
<path d="M785.81 570.4L776.81 575.86V631.79H817.31L816.67 599.33C816.67 599.33 814.1 574.9 785.81 570.4Z" fill="#FBC6A6"/>
<path opacity="0.16" d="M837.69 516.81C837.69 516.81 863.17 529.25 857.52 549.97C851.87 570.7 816.22 592.72 816.22 592.72" stroke="black" stroke-width="6" stroke-miterlimit="10"/>
<path opacity="0.16" d="M813.31 631.8L812.67 586.75" stroke="black" stroke-width="6" stroke-miterlimit="10"/>
<path opacity="0.5" d="M791.98 570.97L847.12 514.05" stroke="white" stroke-width="6" stroke-miterlimit="10"/>
<path opacity="0.5" d="M781.98 572.12V633.36" stroke="white" stroke-width="6" stroke-miterlimit="10"/>
<path d="M841.74 512.55C841.74 512.55 869.38 528.62 863.6 549.84C857.82 571.06 816.67 599.34 816.67 599.34C816.67 599.34 814.74 575.55 785.81 570.41L803.81 552.41L841.74 512.55Z" stroke="#0D2232" stroke-width="6" stroke-miterlimit="10" stroke-linecap="round" stroke-linejoin="round"/>
<path d="M785.81 570.4L776.81 575.86V631.79H817.31L816.67 599.33C816.67 599.33 814.1 574.9 785.81 570.4Z" stroke="#0D2232" stroke-width="6" stroke-miterlimit="10" stroke-linecap="round" stroke-linejoin="round"/>
<path d="M787.5 554.11L813.09 565.85L836.04 517.32L842.24 504.19L817.71 492.03L810.95 505.92L787.5 554.11Z" fill="#435F84"/>
<path opacity="0.21" d="M810.95 505.92L810.98 505.96L836.04 517.32L842.24 504.19L817.71 492.03L810.95 505.92Z" fill="white"/>
<path d="M775.23 475.67V542.37L789.81 549.92L810.98 505.96L815.4 496.78L775.23 475.67Z" fill="#F9DC1B"/>
<path opacity="0.5" d="M775.23 475.67V487.62L810.98 505.96L815.4 496.78L775.23 475.67Z" fill="white"/>
<path d="M798.43 532.02L775.24 522.65V542.37L789.81 549.92L798.43 532.02Z" fill="#E89F02"/>
<path d="M817.71 492.03L787.5 554.11L813.09 565.86L842.24 504.19L817.71 492.03Z" stroke="#0D2232" stroke-width="6" stroke-miterlimit="10" stroke-linecap="round" stroke-linejoin="round"/>
<path d="M775.24 475.67L815.4 496.78L789.81 549.92L775.24 542.37V475.67Z" stroke="#0D2232" stroke-width="6" stroke-miterlimit="10"/>
<path d="M778.41 589.67V606.93C778.41 608.27 777.32 609.36 775.99 609.36H766.62C765.28 609.36 764.19 608.27 764.19 606.93V589.67C764.19 588.33 765.28 587.25 766.62 587.25H775.99C777.32 587.24 778.41 588.33 778.41 589.67Z" fill="#AFCADC"/>
<path d="M775.98 609.53H766.61C765.18 609.53 764.01 608.37 764.01 606.93V589.67C764.01 588.24 765.17 587.08 766.61 587.08H775.98C777.41 587.08 778.57 588.24 778.57 589.67V606.93C778.58 608.36 777.41 609.53 775.98 609.53ZM766.62 587.41C765.38 587.41 764.36 588.42 764.36 589.66V606.92C764.36 608.16 765.37 609.18 766.62 609.18H775.99C777.23 609.18 778.24 608.17 778.24 606.92V589.66C778.24 588.42 777.23 587.41 775.99 587.41H766.62Z" fill="#000072"/>
<g opacity="0.2">
<path d="M778.41 603.1V606.93C778.41 608.27 777.32 609.36 775.99 609.36H766.62C765.28 609.36 764.19 608.27 764.19 606.93V603.1C764.19 604.44 765.28 605.53 766.62 605.53H775.99C777.32 605.52 778.41 604.44 778.41 603.1Z" fill="black"/>
</g>
<g opacity="0.55">
<path d="M778.41 589.67V592.38C778.41 591.04 777.32 589.96 775.99 589.96H766.62C765.28 589.96 764.19 591.05 764.19 592.38V589.67C764.19 588.33 765.28 587.25 766.62 587.25H775.99C777.32 587.24 778.41 588.33 778.41 589.67Z" fill="white"/>
</g>
<path d="M788.86 604.7H778.41V592.43H787.28L788.86 604.7Z" fill="#AFCADC"/>
<path d="M789.05 604.87H778.24V592.26H787.43L789.05 604.87ZM778.58 604.53H788.67L787.13 592.6H778.58V604.53Z" fill="#000072"/>
<path d="M838.02 602.89C837.87 604.64 835.81 605.51 834.48 604.36C827.01 597.94 815.97 601.56 813.72 610.72C813.34 612.25 812 613.33 810.43 613.33H792.96C791.26 613.33 789.82 612.07 789.61 610.38L788.88 604.7L787.3 592.43L786.77 588.29C786.51 586.27 788.09 584.47 790.13 584.47H818.78C830.37 584.48 838.79 593.43 838.02 602.89Z" fill="#AFCADC"/>
<path d="M810.42 613.5H792.95C791.17 613.5 789.65 612.17 789.43 610.4L786.58 588.31C786.45 587.3 786.76 586.28 787.44 585.51C788.11 584.74 789.09 584.3 790.11 584.3H818.76C824.59 584.3 830.06 586.61 833.77 590.63C836.99 594.13 838.57 598.48 838.2 602.89C838.13 603.77 837.57 604.53 836.76 604.86C835.94 605.2 835.05 605.05 834.38 604.47C830.91 601.49 826.34 600.52 822.13 601.86C818.01 603.18 814.93 606.5 813.89 610.74C813.48 612.38 812.06 613.5 810.42 613.5ZM790.1 584.65C789.18 584.65 788.3 585.05 787.69 585.74C787.08 586.43 786.8 587.36 786.92 588.27L789.77 610.36C789.98 611.96 791.35 613.16 792.96 613.16H810.43C811.91 613.16 813.2 612.14 813.56 610.68C814.63 606.32 817.79 602.91 822.02 601.55C826.34 600.17 831.04 601.17 834.59 604.22C835.16 604.71 835.92 604.84 836.62 604.55C837.33 604.26 837.79 603.63 837.85 602.87C838.2 598.55 836.66 594.29 833.5 590.87C829.86 586.92 824.48 584.65 818.74 584.65H790.1Z" fill="#000072"/>
<g opacity="0.2">
<path d="M838.02 602.89C837.87 604.64 835.81 605.51 834.48 604.36C827.01 597.94 815.97 601.56 813.72 610.72C813.34 612.25 812 613.33 810.43 613.33H792.96C791.26 613.33 789.82 612.07 789.61 610.38L789.43 609.02C789.88 609.24 790.37 609.36 790.9 609.36H808.37C809.94 609.36 811.29 608.27 811.66 606.75C813.91 597.59 824.95 593.96 832.42 600.39C833.75 601.54 835.81 600.67 835.96 598.92C836.14 596.76 835.83 594.62 835.12 592.61C837.23 595.63 838.32 599.22 838.02 602.89Z" fill="black"/>
</g>
<g opacity="0.55">
<path d="M833.94 591.11C830.6 588.46 826.18 586.79 821.17 586.79H792.52C790.48 586.79 788.9 588.58 789.16 590.61L789.69 594.75L791.27 607.02L792 612.7C792.02 612.89 792.06 613.07 792.12 613.24C790.79 612.92 789.76 611.8 789.57 610.39L788.84 604.71L787.26 592.44L786.73 588.3C786.47 586.28 788.05 584.48 790.09 584.48H818.74C825.09 584.48 830.48 587.15 833.94 591.11Z" fill="white"/>
</g>
<g opacity="0.55">
<path d="M778.41 592.38H764.76V596.16H778.41V592.38Z" fill="white"/>
</g>
<path d="M810.12 613.33H794.04V654.37H810.12V613.33Z" fill="#435F84" stroke="#0D2232" stroke-width="4" stroke-miterlimit="10" stroke-linecap="round" stroke-linejoin="round"/>
<g opacity="0.2">
<path d="M794.08 620.54C794.55 620.55 794.97 620.72 795.36 620.93C795.75 621.14 796.11 621.41 796.45 621.7C797.13 622.27 797.75 622.91 798.26 623.65C799.28 625.11 799.86 626.76 800.88 628.05C801.38 628.69 802.01 629.21 802.73 629.6C803.45 629.98 804.25 630.24 805.06 630.41C805.88 630.58 806.72 630.68 807.57 630.76C807.99 630.8 808.42 630.83 808.85 630.84C809.28 630.87 809.72 630.93 810.12 631.21C810.18 631.25 810.19 631.33 810.15 631.39C810.14 631.41 810.12 631.42 810.1 631.43H810.09C809.63 631.63 809.22 631.59 808.79 631.56C808.37 631.5 807.94 631.47 807.51 631.43C806.65 631.35 805.78 631.25 804.92 631.07C804.06 630.89 803.2 630.62 802.41 630.2C801.62 629.78 800.9 629.18 800.34 628.47C799.22 627.05 798.65 625.39 797.69 624.04C797.21 623.37 796.65 622.75 795.99 622.25C795.66 622 795.32 621.77 794.97 621.54C794.63 621.31 794.28 621.08 793.97 620.75C793.92 620.7 793.92 620.63 793.97 620.58C794.02 620.55 794.05 620.53 794.08 620.54Z" fill="#371A45"/>
<path d="M810.13 628C809.25 628.48 808.22 628.5 807.25 628.36C806.28 628.22 805.32 627.98 804.44 627.53C803.99 627.32 803.58 627.04 803.19 626.74C802.81 626.42 802.44 626.08 802.15 625.67C801.52 624.88 801.19 623.89 801 622.95C800.81 622 800.72 621.07 800.46 620.21C800.33 619.78 800.16 619.38 799.92 619.01C799.81 618.82 799.67 618.65 799.54 618.48C799.39 618.32 799.25 618.15 799.08 618.01C798.43 617.41 797.61 617 796.75 616.79C796.32 616.68 795.87 616.64 795.44 616.67C795 616.7 794.59 616.77 794.09 616.7H794.08C794.06 616.7 794.03 616.69 794 616.68L793.98 616.67C793.91 616.65 793.87 616.59 793.89 616.52C793.9 616.5 793.91 616.48 793.92 616.46C793.95 616.43 793.97 616.41 794 616.39H793.99C794.39 616.05 794.92 615.94 795.42 615.94C795.92 615.96 796.42 615.99 796.91 616.12C797.88 616.35 798.8 616.82 799.54 617.49C800.29 618.14 800.85 619.06 801.12 620C801.4 620.95 801.49 621.9 801.67 622.8C801.85 623.7 802.14 624.55 802.69 625.24C802.95 625.6 803.28 625.9 803.62 626.19C803.98 626.46 804.35 626.71 804.76 626.9C805.56 627.3 806.45 627.55 807.35 627.64C807.57 627.67 807.8 627.66 808.03 627.68C808.26 627.67 808.48 627.69 808.71 627.68C809.16 627.69 809.61 627.64 810.11 627.75H810.12C810.18 627.76 810.22 627.83 810.21 627.89C810.18 627.96 810.16 627.98 810.13 628Z" fill="#371A45"/>
<path d="M810.14 623.31C809.88 623.56 809.56 623.67 809.23 623.72C809.07 623.75 808.9 623.76 808.73 623.75C808.56 623.74 808.4 623.72 808.24 623.71C807.59 623.62 806.95 623.45 806.36 623.17C805.18 622.62 804.16 621.74 803.45 620.66C802.73 619.58 802.32 618.32 802.17 617.05C802.1 616.41 802.09 615.77 802.14 615.14C802.16 614.82 802.21 614.51 802.24 614.19C802.27 613.87 802.34 613.56 802.58 613.29V613.31C802.62 613.27 802.65 613.22 802.7 613.19C802.77 613.14 802.86 613.16 802.91 613.22L802.92 613.23V613.24C802.95 613.29 802.96 613.33 802.98 613.37V613.39C803.07 613.72 803.01 614.01 802.94 614.3C802.87 614.59 802.84 614.89 802.82 615.19C802.77 615.79 802.78 616.38 802.85 616.98C802.98 618.16 803.37 619.31 804.02 620.29C804.67 621.27 805.59 622.07 806.65 622.56C807.18 622.8 807.74 622.98 808.32 623.01C808.61 623.02 808.89 623.03 809.18 623.02C809.47 623.02 809.75 623.01 810.09 623.09C810.16 623.11 810.2 623.18 810.18 623.25C810.17 623.27 810.16 623.29 810.14 623.31Z" fill="#371A45"/>
<path d="M806.06 613.39C806.11 613.65 806.05 613.85 805.98 614.04C805.91 614.23 805.82 614.4 805.74 614.58C805.58 614.94 805.48 615.31 805.42 615.69C805.32 616.43 805.47 617.22 805.89 617.81C806.1 618.1 806.38 618.33 806.7 618.47C807.02 618.61 807.39 618.67 807.76 618.65C808.13 618.64 808.51 618.56 808.87 618.44C809.05 618.39 809.23 618.28 809.4 618.18C809.58 618.09 809.76 618.02 810.05 618.14H810.06C810.14 618.17 810.18 618.25 810.16 618.33C810.09 618.63 809.89 618.74 809.7 618.83C809.6 618.87 809.5 618.9 809.4 618.95C809.3 619 809.2 619.04 809.1 619.07C808.68 619.21 808.24 619.31 807.79 619.32C807.34 619.34 806.87 619.27 806.43 619.08C806 618.89 805.61 618.57 805.34 618.19C804.8 617.42 804.63 616.47 804.75 615.58C804.81 615.14 804.95 614.71 805.09 614.3C805.16 614.09 805.24 613.89 805.36 613.71C805.47 613.53 805.62 613.36 805.87 613.27C805.95 613.24 806.03 613.28 806.06 613.36C806.06 613.37 806.06 613.38 806.06 613.39Z" fill="#371A45"/>
<path d="M794.06 626.44C794.61 626.37 795.17 626.55 795.63 626.83C796.1 627.1 796.51 627.47 796.87 627.86C797.59 628.65 798.17 629.52 798.72 630.37C799.27 631.22 799.83 632.06 800.52 632.74C801.21 633.42 802.07 633.91 802.97 634.36C803.87 634.81 804.83 635.23 805.7 635.86C806.56 636.49 807.29 637.28 807.87 638.16C808.46 639.03 808.91 639.97 809.31 640.92C809.51 641.4 809.7 641.87 809.9 642.34C810.09 642.82 810.26 643.3 810.21 643.86C810.2 643.93 810.14 643.98 810.08 643.97C810.05 643.97 810.02 643.95 810 643.94C809.59 643.55 809.4 643.07 809.22 642.6C809.06 642.12 808.87 641.65 808.68 641.18C808.29 640.25 807.85 639.35 807.3 638.53C806.76 637.7 806.08 636.98 805.3 636.4C804.51 635.83 803.59 635.42 802.67 634.96C801.75 634.51 800.81 633.98 800.04 633.22C799.28 632.47 798.7 631.59 798.14 630.74C797.58 629.89 797.05 629.04 796.36 628.34C796.01 628 795.64 627.69 795.25 627.42C794.86 627.14 794.46 626.93 794.01 626.66C793.95 626.63 793.93 626.55 793.97 626.5C793.99 626.47 794.02 626.45 794.06 626.44Z" fill="#371A45"/>
<path d="M805.9 633.25C806.08 633.15 806.21 633.17 806.32 633.21C806.43 633.25 806.52 633.32 806.62 633.39C806.81 633.53 807.01 633.64 807.2 633.77C807.58 634.03 807.96 634.3 808.32 634.58C808.68 634.86 809.04 635.16 809.38 635.47C809.55 635.63 809.72 635.79 809.88 635.95C809.96 636.03 810.04 636.12 810.14 636.18C810.22 636.26 810.3 636.35 810.2 636.6C810.17 636.68 810.11 636.73 810.04 636.75C809.79 636.83 809.7 636.76 809.63 636.68C809.57 636.58 809.49 636.51 809.41 636.43C809.25 636.27 809.09 636.12 808.93 635.97C808.6 635.67 808.26 635.38 807.91 635.11C807.56 634.84 807.2 634.58 806.83 634.33C806.64 634.21 806.46 634.08 806.26 633.98C806.16 633.93 806.06 633.89 805.97 633.81C805.88 633.74 805.81 633.64 805.8 633.44C805.78 633.36 805.83 633.29 805.9 633.25Z" fill="#371A45"/>
<path d="M794.11 630.96C794.69 631.2 795.11 631.73 795.4 632.26C795.69 632.8 795.87 633.38 796.03 633.93C796.19 634.49 796.35 635.03 796.57 635.54C796.78 636.05 797.05 636.53 797.4 636.92C797.75 637.31 798.2 637.58 798.7 637.76C799.2 637.93 799.76 638.01 800.32 638.06C800.89 638.11 801.47 638.13 802.06 638.21C802.65 638.29 803.26 638.42 803.83 638.7C804.4 638.98 804.9 639.4 805.27 639.89C805.65 640.38 805.92 640.94 806.14 641.49C806.57 642.61 806.79 643.76 807.09 644.86C807.38 645.96 807.8 647.01 808.36 647.99C808.63 648.48 808.94 648.96 809.29 649.4C809.63 649.85 809.97 650.29 810.19 650.87C810.21 650.93 810.18 651 810.12 651.03C810.09 651.04 810.05 651.04 810.03 651.03C809.45 650.77 809.06 650.31 808.71 649.83C808.38 649.34 808.06 648.84 807.77 648.32C807.19 647.29 806.74 646.18 806.44 645.04C806.13 643.91 805.91 642.78 805.51 641.74C805.31 641.22 805.06 640.73 804.73 640.31C804.41 639.89 804 639.54 803.52 639.31C802.57 638.84 801.41 638.84 800.25 638.74C799.66 638.69 799.06 638.61 798.47 638.41C797.88 638.21 797.31 637.86 796.89 637.38C796.04 636.43 795.71 635.22 795.35 634.14C795.17 633.59 794.98 633.07 794.76 632.57C794.53 632.07 794.28 631.62 793.96 631.13C793.92 631.08 793.94 631 793.99 630.97C794.03 630.94 794.07 630.94 794.11 630.96Z" fill="#371A45"/>
<path d="M794.06 640.69C794.51 640.63 794.9 640.64 795.32 640.65L796.57 640.68C797.42 640.68 798.31 640.65 799.19 640.81C799.63 640.89 800.08 641.01 800.5 641.21C800.92 641.41 801.32 641.69 801.63 642.06C801.95 642.42 802.16 642.86 802.3 643.3C802.44 643.74 802.5 644.19 802.54 644.63C802.6 645.52 802.58 646.36 802.64 647.2C802.69 648.04 802.78 648.88 802.94 649.7C803.1 650.52 803.34 651.32 803.67 652.08C803.84 652.46 804.02 652.83 804.26 653.16C804.48 653.51 804.7 653.84 804.79 654.31C804.8 654.38 804.76 654.45 804.69 654.46C804.67 654.46 804.64 654.46 804.62 654.45C804.15 654.28 803.87 653.91 803.64 653.53C803.43 653.14 803.22 652.75 803.04 652.34C802.69 651.53 802.44 650.68 802.27 649.82C802.1 648.96 802.01 648.1 801.95 647.23C801.89 646.37 801.91 645.5 801.85 644.68C801.79 643.86 801.6 643.06 801.1 642.5C800.61 641.92 799.85 641.61 799.06 641.48C798.26 641.34 797.43 641.34 796.57 641.38C796.14 641.4 795.7 641.41 795.26 641.35C794.82 641.3 794.37 641.19 793.99 640.91C793.94 640.87 793.93 640.79 793.97 640.74C794 640.71 794.03 640.69 794.06 640.69Z" fill="#371A45"/>
<path d="M805.29 648.16C805.5 648.24 805.59 648.36 805.65 648.49C805.72 648.62 805.76 648.75 805.79 648.89C805.87 649.16 805.99 649.43 806.09 649.69C806.31 650.22 806.54 650.74 806.8 651.24C807.06 651.75 807.33 652.25 807.63 652.74C807.78 652.98 807.93 653.22 808.09 653.46C808.17 653.58 808.25 653.7 808.35 653.8C808.44 653.91 808.51 654.04 808.39 654.29C808.36 654.37 808.28 654.41 808.21 654.42C807.93 654.44 807.84 654.33 807.76 654.2C807.7 654.06 807.62 653.94 807.53 653.82C807.37 653.57 807.21 653.33 807.06 653.07C806.76 652.57 806.47 652.05 806.21 651.53C805.95 651.01 805.7 650.47 805.48 649.93C805.36 649.66 805.27 649.38 805.15 649.11C805.09 648.98 805.03 648.84 805 648.7C804.97 648.55 804.97 648.4 805.09 648.21C805.12 648.16 805.21 648.13 805.29 648.16Z" fill="#371A45"/>
<path d="M794.01 644.61C794.27 644.38 794.56 644.29 794.86 644.23C795.16 644.17 795.47 644.17 795.79 644.2C796.41 644.24 797.05 644.36 797.62 644.65C798.2 644.94 798.69 645.38 799.06 645.88C799.43 646.39 799.71 646.95 799.89 647.54C800.27 648.72 800.3 649.98 800.08 651.18C799.97 651.78 799.8 652.37 799.57 652.93L799.21 653.77C799.08 654.04 798.9 654.3 798.55 654.43C798.48 654.46 798.39 654.42 798.37 654.34C798.37 654.33 798.37 654.32 798.36 654.31V654.3C798.3 653.92 798.44 653.69 798.57 653.43C798.72 653.19 798.84 652.93 798.94 652.67C799.15 652.15 799.31 651.6 799.41 651.05C799.61 649.95 799.58 648.8 799.24 647.74C798.91 646.69 798.26 645.72 797.3 645.24C796.83 645 796.29 644.88 795.75 644.88C795.48 644.88 795.2 644.91 794.92 644.91C794.64 644.92 794.36 644.92 794.04 644.81C793.97 644.79 793.94 644.71 793.96 644.64C793.98 644.65 794 644.63 794.01 644.61Z" fill="#371A45"/>
<path d="M794.01 648.32C794.13 648.11 794.33 648.03 794.52 648C794.71 647.97 794.91 647.99 795.09 648.04C795.46 648.13 795.83 648.28 796.13 648.54C796.73 649.05 797.03 649.82 796.99 650.59C796.97 650.97 796.84 651.37 796.64 651.68C796.44 652 796.18 652.27 795.91 652.5C795.64 652.73 795.35 652.92 795.07 653.1C794.93 653.19 794.78 653.28 794.66 653.39C794.52 653.48 794.37 653.56 794.11 653.44C794.03 653.41 793.99 653.33 793.99 653.25C794.01 652.95 794.14 652.86 794.28 652.78C794.43 652.71 794.57 652.63 794.71 652.54C794.98 652.36 795.25 652.18 795.48 651.99C795.96 651.6 796.3 651.12 796.32 650.56C796.35 650.01 796.12 649.42 795.7 649.07C795.49 648.9 795.24 648.77 794.96 648.74C794.82 648.73 794.68 648.73 794.55 648.71C794.41 648.7 794.27 648.67 794.08 648.54L794.07 648.53C793.99 648.48 793.96 648.39 794.01 648.32Z" fill="#371A45"/>
</g>
<g opacity="0.55">
<path d="M796.42 654.37H794.03V618.99H794.37C795.5 618.99 796.42 619.91 796.42 621.04V654.37Z" fill="white"/>
</g>
<g opacity="0.3">
<path d="M810.11 613.33V654.37H806.3V622.84C806.3 620.74 804.6 619.04 802.5 619.04H794.03V613.33H810.11Z" fill="#371A45"/>
</g>
<path d="M813.84 657.76V699.05C813.84 700.92 812.32 702.43 810.46 702.43H793.87C793.31 702.43 792.78 702.29 792.32 702.05C791.23 701.49 790.49 700.35 790.49 699.04V657.75C790.49 655.88 792.01 654.37 793.87 654.37H810.46C812.32 654.37 813.84 655.89 813.84 657.76Z" fill="#F9DC1B"/>
<path d="M810.45 702.61H793.86C793.29 702.61 792.73 702.47 792.23 702.22L792.14 702.17C791.01 701.55 790.31 700.37 790.31 699.06V657.77C790.31 655.81 791.9 654.22 793.86 654.22H810.45C812.41 654.22 814 655.81 814 657.77V699.06C814.01 701.01 812.41 702.61 810.45 702.61ZM792.48 701.96C792.91 702.16 793.38 702.27 793.86 702.27H810.45C812.22 702.27 813.67 700.83 813.67 699.05V657.76C813.67 655.99 812.23 654.54 810.45 654.54H793.86C792.09 654.54 790.64 655.98 790.64 657.76V699.05C790.64 700.26 791.31 701.35 792.38 701.91L792.48 701.96Z" fill="#000072"/>
<path d="M813.84 657.76V699.05C813.84 700.92 812.32 702.43 810.46 702.43H804.95C806.82 702.43 808.33 700.91 808.33 699.05V657.76C808.33 655.89 806.81 654.38 804.95 654.38H810.46C812.32 654.37 813.84 655.89 813.84 657.76Z" fill="#E89F02"/>
<path d="M810.45 702.61H804.94V702.27C806.71 702.27 808.16 700.83 808.16 699.05V657.76C808.16 655.99 806.72 654.54 804.94 654.54V654.2H810.45C812.41 654.2 814 655.79 814 657.75V699.04C814.01 701.01 812.41 702.61 810.45 702.61ZM806.46 702.27H810.45C812.22 702.27 813.67 700.83 813.67 699.05V657.76C813.67 655.99 812.23 654.54 810.45 654.54H806.46C807.67 655.11 808.5 656.34 808.5 657.76V699.05C808.5 700.47 807.66 701.7 806.46 702.27Z" fill="#E89F02"/>
<g opacity="0.55">
<path d="M794.87 702.06C795.33 702.3 795.859 702.44 796.419 702.44H793.859C793.299 702.44 792.77 702.3 792.31 702.06C791.22 701.5 790.479 700.36 790.479 699.05V657.76C790.479 655.89 791.999 654.38 793.859 654.38H796.419C794.549 654.38 793.039 655.9 793.039 657.76V699.05C793.039 700.36 793.78 701.5 794.87 702.06Z" fill="white"/>
</g>
<g opacity="0.2">
<path d="M780.67 592.43L782.92 604.7H778.41V592.43H780.67Z" fill="black"/>
</g>
<g opacity="0.2">
<path d="M803.91 592.98C803.91 594.73 801.7 594.26 798.97 594.26C796.24 594.26 794.03 594.73 794.03 592.98C794.03 591.23 796.24 589.81 798.97 589.81C801.7 589.81 803.91 591.23 803.91 592.98Z" fill="white"/>
</g>
<g opacity="0.2">
<path d="M800.67 674.57C800.67 677.84 799.29 680.49 797.59 680.49C795.89 680.49 795.86 677.84 795.86 674.57C795.86 671.3 795.89 668.65 797.59 668.65C799.29 668.65 800.67 671.3 800.67 674.57Z" fill="white"/>
</g>
<path d="M778.41 589.67V606.93C778.41 608.27 777.32 609.36 775.99 609.36H766.62C765.28 609.36 764.19 608.27 764.19 606.93V589.67C764.19 588.33 765.28 587.25 766.62 587.25H775.99C777.32 587.24 778.41 588.33 778.41 589.67Z" stroke="#0D2232" stroke-width="4" stroke-miterlimit="10" stroke-linecap="round" stroke-linejoin="round"/>
<path d="M788.86 604.7H778.41V592.43H787.28L788.86 604.7Z" stroke="#0D2232" stroke-width="4" stroke-miterlimit="10" stroke-linecap="round" stroke-linejoin="round"/>
<path d="M838.02 602.89C837.87 604.64 835.81 605.51 834.48 604.36C827.01 597.94 815.97 601.56 813.72 610.72C813.34 612.25 812 613.33 810.43 613.33H792.96C791.26 613.33 789.82 612.07 789.61 610.38L788.88 604.7L787.3 592.43L786.77 588.29C786.51 586.27 788.09 584.47 790.13 584.47H818.78C830.37 584.48 838.79 593.43 838.02 602.89Z" stroke="#0D2232" stroke-width="4" stroke-miterlimit="10" stroke-linecap="round" stroke-linejoin="round"/>
<path d="M810.12 613.33H794.04V654.37H810.12V613.33Z" stroke="#0D2232" stroke-width="4" stroke-miterlimit="10" stroke-linecap="round" stroke-linejoin="round"/>
<path d="M813.84 657.76V699.05C813.84 700.92 812.32 702.43 810.46 702.43H793.87C793.31 702.43 792.78 702.29 792.32 702.05C791.23 701.49 790.49 700.35 790.49 699.04V657.75C790.49 655.88 792.01 654.37 793.87 654.37H810.46C812.32 654.37 813.84 655.89 813.84 657.76Z" stroke="#0D2232" stroke-width="4" stroke-miterlimit="10" stroke-linecap="round" stroke-linejoin="round"/>
<path d="M832.25 714.22C832.24 714.17 832.24 714.12 832.24 714.07L834.05 630.01C834.06 629.37 834.59 628.87 835.23 628.88L849.69 629.19C850 629.2 850.29 629.32 850.5 629.55C850.68 629.73 850.79 629.97 850.81 630.22C850.82 630.27 850.82 630.32 850.82 630.37L849.01 714.43C849 715.07 848.47 715.57 847.83 715.56L833.37 715.25C833.06 715.24 832.77 715.12 832.56 714.89C832.39 714.71 832.28 714.47 832.25 714.22Z" fill="#C14854"/>
<path d="M837.852 630.086L836.061 714.15L845.319 714.347L847.11 630.284L837.852 630.086Z" fill="#E8656D"/>
<path opacity="0.5" d="M836.721 626.415L834.846 715.237L835.986 715.261L837.861 626.439L836.721 626.415Z" fill="white"/>
<path d="M829.49 632.14C828.7 631.55 827.94 630.89 827.23 630.19C823.01 626.04 820.65 620.49 820.6 614.56C820.55 608.64 822.81 603.05 826.97 598.83C828.05 597.73 829.24 596.75 830.52 595.9C830.9 595.65 831.39 595.64 831.78 595.89C831.81 595.91 831.83 595.92 831.85 595.94C832.19 596.19 832.36 596.61 832.3 597.03L830.56 608.64L843.51 615.1L853.66 604.78L848.59 595.02C848.37 594.6 848.43 594.09 848.74 593.73C849.05 593.37 849.54 593.24 849.99 593.39C852.18 594.14 854.22 595.22 856.08 596.61C856.87 597.2 857.63 597.86 858.34 598.55C862.56 602.7 864.92 608.25 864.97 614.18C865.02 620.1 862.76 625.69 858.6 629.91C850.84 637.82 838.33 638.77 829.49 632.14Z" fill="#E8656D"/>
<path d="M849.61 594.5L850.41 596.04C851.65 596.82 852.82 597.74 853.91 598.81C862.19 606.95 862.3 620.26 854.16 628.54C849.66 633.12 843.57 635.19 837.63 634.76C844.63 636.52 852.35 634.64 857.77 629.12C865.91 620.84 865.8 607.53 857.52 599.39C855.21 597.12 852.5 595.49 849.61 594.5Z" fill="#C14854"/>
<path opacity="0.5" d="M827.68 625.72C835.63 635.88 846.2 632.41 846.2 632.41C846.2 632.41 838.34 630.59 832.51 624.31C826.42 617.76 824.13 610.8 824.13 610.8C824.13 610.8 821.92 618.36 827.68 625.72Z" fill="white"/>
<path opacity="0.5" d="M829.57 711.9C832.53 708 835.51 708.7 835.51 708.7C835.51 708.7 831.61 712.12 829.44 716.83C827.4 721.26 827.7 728.44 827.7 728.44C827.7 728.44 825.7 723.62 825.98 721.18C826.44 717.2 827.57 714.53 829.57 711.9Z" fill="white"/>
<path d="M832.42 706.08L833.95 634.72" stroke="#0D2232" stroke-width="4" stroke-miterlimit="10" stroke-linecap="round" stroke-linejoin="round"/>
<path d="M850.73 635.11L849.19 706.48" stroke="#0D2232" stroke-width="4" stroke-miterlimit="10" stroke-linecap="round" stroke-linejoin="round"/>
<path d="M829.49 632.14C828.7 631.55 827.94 630.89 827.23 630.19C823.01 626.04 820.65 620.49 820.6 614.56C820.55 608.64 822.81 603.05 826.97 598.83C828.05 597.73 829.24 596.75 830.52 595.9C830.9 595.65 831.39 595.64 831.78 595.89C831.81 595.91 831.83 595.92 831.85 595.94C832.19 596.19 832.36 596.61 832.3 597.03L830.56 608.64L843.51 615.1L853.66 604.78L848.59 595.02C848.37 594.6 848.43 594.09 848.74 593.73C849.05 593.37 849.54 593.24 849.99 593.39C852.18 594.14 854.22 595.22 856.08 596.61C856.87 597.2 857.63 597.86 858.34 598.55C862.56 602.7 864.92 608.25 864.97 614.18C865.02 620.1 862.76 625.69 858.6 629.91C850.84 637.82 838.33 638.77 829.49 632.14Z" stroke="#0D2232" stroke-width="4" stroke-miterlimit="10" stroke-linecap="round" stroke-linejoin="round"/>
<path d="M766.85 658.93V717.09C766.85 717.09 778.42 734.45 800.92 734.45C823.42 734.45 839.49 734.45 839.49 734.45L846.24 725.77C846.24 725.77 851.7 684.95 852.35 669.2C852.35 669.2 790.63 670.85 766.85 658.93Z" fill="#FEC400"/>
<path d="M772.11 661.15V704.81C772.11 712.24 776.31 719.05 782.98 722.31C793.95 727.68 813.96 732.8 846.24 725.78L839.49 734.46L797.54 734.7C797.54 734.7 775.84 731.89 766.84 717.1V658.94L772.11 661.15Z" fill="#E89F02"/>
<path d="M766.85 658.93V712.14C766.85 715.76 768.31 719.22 770.87 721.78C776.02 726.92 786.1 734.45 800.92 734.45H832.42C836.88 734.45 841.09 732.39 843.83 728.87C845.41 726.84 846.42 724.42 846.75 721.87C848.12 711.28 851.82 681.99 852.34 669.2C852.35 669.2 790.63 670.85 766.85 658.93Z" stroke="#0D2232" stroke-width="4" stroke-miterlimit="10" stroke-linecap="round" stroke-linejoin="round"/>
<path d="M766.85 674.02C766.85 674.02 786.55 690.92 850.83 684.49" stroke="#0D2232" stroke-width="4" stroke-miterlimit="10" stroke-linecap="round" stroke-linejoin="round"/>
<path d="M667.36 329.8C655.53 325.76 642.56 326.71 631.44 332.42L627.49 334.45" stroke="#0D2232" stroke-width="12" stroke-miterlimit="10" stroke-linecap="round" stroke-linejoin="round"/>
<path d="M733.43 329.8C745.26 325.76 758.23 326.71 769.35 332.42L773.3 334.45" stroke="#0D2232" stroke-width="12" stroke-miterlimit="10" stroke-linecap="round" stroke-linejoin="round"/>
<path d="M629.27 658.93V718.37C629.27 718.37 604.84 737.01 567.56 734.44C567.56 734.44 552.13 710.01 547.63 669.19C547.63 669.2 611.92 672.78 629.27 658.93Z" stroke="white" stroke-miterlimit="10"/>
<path d="M550.18 685.78C550.18 685.78 603.56 686.24 629.27 674.02" stroke="white" stroke-miterlimit="10"/>
<path d="M563.02 725.81C563.02 725.81 595.199 726.73 613.849 716.45L609.729 666.27L629.28 658.93V718.37C629.28 718.37 607.42 735.73 567.57 734.44L563.02 725.81Z" stroke="white" stroke-miterlimit="10"/>
<path d="M629.44 674.02C629.44 674.02 608.2 690.73 543.84 684.31" stroke="white" stroke-miterlimit="10"/>
<path d="M647.47 634.16V722.88L635.88 734.45H556.71L567.33 726.09L566.69 634.16H647.47Z" fill="#F9DC1B"/>
<path d="M637.81 634.16V717.32L631.05 726.09H549.96L556.71 734.45H635.88L647.47 722.88V634.16H637.81Z" fill="#E89F02"/>
<path d="M635.231 651.667H640.381V646.527H635.231V651.667Z" fill="white"/>
<path d="M635.231 668.082H640.381V662.942H635.231V668.082Z" fill="white"/>
<path d="M635.231 684.488H640.381V679.348H635.231V684.488Z" fill="white"/>
<path d="M635.231 700.903H640.381V695.763H635.231V700.903Z" fill="white"/>
<path d="M635.231 717.319H640.381V712.179H635.231V717.319Z" fill="white"/>
<path d="M566.69 669.2V634.16H647.47V722.88L635.88 734.45L557.78 733.61" stroke="#0D2232" stroke-width="4" stroke-miterlimit="10" stroke-linecap="round" stroke-linejoin="round"/>
<path d="M572.62 604.1L577.29 621.71L574.56 624.62C571.29 619.72 565.25 616.99 559.19 618.22C558.9 618.28 558.61 618.35 558.32 618.42C559.57 617.38 560.48 616.2 561.06 614.98C563.6 609.67 560.26 603.31 553.99 602.17L550.21 587.93C559.7 589.24 566.56 594.3 571.61 601.93C572.08 602.6 572.41 603.33 572.62 604.1Z" fill="#AFCADC"/>
<path d="M574.539 624.93L574.409 624.73C571.109 619.78 565.02 617.24 559.24 618.41C558.97 618.46 558.69 618.53 558.39 618.61L557.549 618.83L558.219 618.27C559.409 617.28 560.319 616.15 560.909 614.89C562.069 612.47 562.019 609.7 560.789 607.29C559.459 604.7 556.979 602.9 553.979 602.35L553.859 602.33L549.979 587.69L550.27 587.73C559.3 588.98 566.35 593.58 571.81 601.81C572.27 602.5 572.61 603.25 572.82 604.04L577.52 621.75L574.539 624.93ZM559.03 618.05C559.07 618.04 559.109 618.03 559.159 618.02C565.009 616.83 571.17 619.35 574.59 624.3L577.08 621.64L572.43 604.14C572.23 603.39 571.909 602.68 571.469 602.02C566.129 593.98 559.27 589.43 550.49 588.15L554.159 601.99C557.219 602.58 559.76 604.44 561.12 607.11C562.41 609.63 562.45 612.52 561.24 615.05C560.73 616.15 559.99 617.16 559.03 618.05Z" fill="#000072"/>
<g opacity="0.55">
<path d="M561.04 617.97C560.43 618.01 559.81 618.1 559.19 618.22C558.9 618.28 558.61 618.35 558.32 618.42C559.57 617.38 560.48 616.2 561.06 614.98C563.6 609.67 560.26 603.31 553.99 602.17L550.21 587.93C551.23 588.07 552.21 588.25 553.16 588.48L556.68 601.73C562.95 602.87 566.29 609.22 563.75 614.54C563.19 615.76 562.29 616.93 561.04 617.97Z" fill="white"/>
</g>
<g opacity="0.55">
<path d="M561.11 617.96L561.02 617.98C561.03 617.97 561.03 617.97 561.04 617.96C561.06 617.96 561.09 617.96 561.11 617.96Z" fill="white"/>
<path d="M561.16 618.15L560.25 618.39L560.99 617.78C561.03 617.77 561.06 617.77 561.08 617.77L562.71 617.73L561.16 618.15Z" fill="#371A45"/>
</g>
<path d="M580.31 633.08L582.59 641.69C582.73 642.22 582.44 642.78 581.94 642.97C581.9 642.98 581.87 642.99 581.83 643L566.25 647.14C564.67 647.56 563.07 647.71 561.5 647.62C556.48 647.32 551.79 644.55 549.25 640.22C548.6 639.12 548.09 637.93 547.75 636.64C547.32 635.03 547.18 633.42 547.28 631.85C547.68 625.64 551.97 620.11 558.32 618.43H558.33C558.62 618.35 558.9 618.29 559.2 618.23C565.26 617 571.3 619.73 574.57 624.63C575.53 626.07 576.24 627.69 576.66 629.45C576.93 630.59 577.05 631.73 577.05 632.85L579.01 632.33C579.37 632.23 579.74 632.34 580 632.57C580.14 632.69 580.25 632.87 580.31 633.08Z" fill="#AFCADC"/>
<path d="M581.88 643.19L566.3 647.33C564.73 647.75 563.11 647.91 561.49 647.81C556.37 647.51 551.62 644.64 549.08 640.32C548.41 639.19 547.9 637.97 547.56 636.7C547.14 635.1 546.98 633.47 547.08 631.84C547.5 625.37 551.99 619.91 558.26 618.24C558.59 618.15 558.87 618.09 559.15 618.03C565.07 616.83 571.33 619.43 574.71 624.51C575.7 626 576.41 627.64 576.82 629.39C577.07 630.44 577.2 631.52 577.21 632.59L578.93 632.13C579.34 632.02 579.78 632.12 580.09 632.41C580.28 632.57 580.41 632.79 580.47 633.03L582.75 641.64C582.92 642.27 582.58 642.92 581.98 643.15C581.96 643.16 581.92 643.17 581.88 643.19ZM558.38 618.6C552.26 620.23 547.88 625.55 547.47 631.85C547.36 633.44 547.52 635.03 547.93 636.58C548.26 637.82 548.76 639.01 549.41 640.11C551.88 644.32 556.52 647.12 561.51 647.41C563.09 647.5 564.67 647.35 566.2 646.94L581.78 642.8C581.81 642.79 581.84 642.78 581.87 642.77C582.29 642.61 582.52 642.16 582.41 641.72L580.13 633.11C580.09 632.94 579.99 632.79 579.86 632.68C579.64 632.48 579.34 632.41 579.05 632.48L576.85 633.06V632.81C576.85 631.69 576.72 630.56 576.46 629.45C576.06 627.74 575.37 626.14 574.4 624.69C571.1 619.74 565.01 617.2 559.23 618.37C558.96 618.46 558.69 618.52 558.38 618.6Z" fill="#000072"/>
<g opacity="0.3">
<path d="M572.62 604.1L577.289 621.71L574.56 624.62C574.38 624.35 574.19 624.08 573.99 623.82C570.62 619.42 564.92 617.05 559.19 618.22C558.9 618.28 558.61 618.35 558.32 618.42C559.57 617.38 560.48 616.2 561.06 614.98C561.14 614.95 561.23 614.93 561.31 614.91H561.33C561.61 614.84 561.9 614.77 562.2 614.71C564.84 614.17 567.47 614.39 569.87 615.21C571.33 615.71 572.749 614.41 572.359 612.92L570.299 605.17C570.099 604.4 569.76 603.67 569.32 603C564.76 596.12 558.73 591.33 550.64 589.5L550.229 587.95C559.719 589.26 566.58 594.32 571.63 601.95C572.08 602.6 572.41 603.33 572.62 604.1Z" fill="black"/>
<path d="M574.54 624.93L574.41 624.73C574.23 624.45 574.04 624.19 573.85 623.95C570.43 619.48 564.7 617.31 559.24 618.42C558.97 618.47 558.69 618.54 558.39 618.62L557.55 618.84L558.22 618.28C559.41 617.29 560.32 616.16 560.91 614.9L560.95 614.82L561.03 614.79C561.43 614.66 561.84 614.58 562.18 614.51C564.76 613.99 567.44 614.16 569.95 615.01C570.57 615.22 571.23 615.08 571.71 614.64C572.18 614.2 572.36 613.58 572.19 612.96L570.13 605.21C569.93 604.47 569.61 603.76 569.17 603.09C564.33 595.79 558.26 591.4 550.6 589.67L550.49 589.64L549.97 587.7L550.26 587.74C559.29 588.99 566.34 593.59 571.8 601.82C572.26 602.51 572.6 603.26 572.81 604.05L577.51 621.76L574.54 624.93ZM559.03 618.05C559.07 618.04 559.11 618.03 559.16 618.02C564.76 616.88 570.64 619.11 574.15 623.7C574.3 623.89 574.45 624.09 574.59 624.31L577.08 621.65L572.43 604.15C572.23 603.4 571.91 602.69 571.47 602.03C566.13 593.99 559.27 589.44 550.49 588.16L550.8 589.32C558.5 591.09 564.61 595.53 569.49 602.88C569.95 603.58 570.29 604.33 570.5 605.11L572.56 612.86C572.76 613.62 572.54 614.39 571.97 614.92C571.39 615.46 570.59 615.63 569.82 615.38C567.38 614.55 564.76 614.38 562.25 614.89C561.98 614.94 561.67 615.01 561.39 615.09C561.33 615.11 561.27 615.12 561.22 615.14C560.69 616.2 559.96 617.18 559.03 618.05Z" fill="#371A45"/>
</g>
<g opacity="0.55">
<path d="M569.21 619.74C566.79 618.9 564.12 618.67 561.45 619.21C561.16 619.27 560.87 619.34 560.58 619.41H560.57C554.23 621.09 549.94 626.63 549.53 632.83C549.43 634.4 549.57 636.02 550 637.62C550.34 638.9 550.85 640.1 551.5 641.2C552.9 643.58 554.94 645.49 557.34 646.77C553.99 645.6 551.07 643.3 549.25 640.2C548.6 639.1 548.09 637.91 547.75 636.62C547.32 635.01 547.18 633.4 547.28 631.83C547.68 625.62 551.97 620.09 558.32 618.41H558.33C558.62 618.33 558.9 618.27 559.2 618.21C562.72 617.5 566.24 618.13 569.21 619.74Z" fill="white"/>
</g>
<path d="M562.14 640.7C566.492 640.7 570.02 637.172 570.02 632.82C570.02 628.468 566.492 624.94 562.14 624.94C557.788 624.94 554.26 628.468 554.26 632.82C554.26 637.172 557.788 640.7 562.14 640.7Z" fill="#CECEDD"/>
<g opacity="0.55">
<path d="M572.23 632.23C573.35 636.44 570.84 640.75 566.64 641.87C564.04 642.56 561.4 641.87 559.49 640.24C560.94 640.76 562.56 640.86 564.17 640.44C568.38 639.32 570.88 635.01 569.76 630.8C569.33 629.2 568.44 627.84 567.27 626.84C569.62 627.68 571.54 629.63 572.23 632.23Z" fill="white"/>
</g>
<g opacity="0.3">
<path d="M566.95 626.57C565.66 626.21 564.26 626.19 562.87 626.56C558.66 627.68 556.16 631.99 557.28 636.2C557.74 637.95 558.76 639.4 560.1 640.42C557.47 639.71 555.29 637.66 554.54 634.84C553.42 630.63 555.93 626.32 560.13 625.2C562.58 624.55 565.08 625.13 566.95 626.57Z" fill="black"/>
<path d="M560.98 640.86L560.04 640.61C557.26 639.86 555.08 637.67 554.34 634.89C553.2 630.59 555.77 626.16 560.07 625.02C562.51 624.37 565.06 624.88 567.06 626.42L567.84 627.02L566.89 626.76C565.6 626.4 564.23 626.4 562.91 626.75C558.81 627.84 556.36 632.06 557.45 636.15C557.89 637.8 558.84 639.23 560.2 640.27L560.98 640.86ZM560.17 625.39C556.07 626.48 553.62 630.7 554.71 634.79C555.33 637.12 557.02 639.02 559.22 639.93C558.19 638.92 557.46 637.67 557.08 636.25C555.94 631.95 558.51 627.52 562.81 626.38C563.86 626.1 564.96 626.04 566.02 626.19C564.27 625.15 562.18 624.85 560.17 625.39Z" fill="#371A45"/>
</g>
<path d="M565.96 647.21L569.57 660.81C570.05 662.61 571.1 664.22 572.56 665.38L587.32 677.12C589.75 679.05 591.49 681.71 592.28 684.7L599.65 712.48C600.12 714.26 602.17 715.07 603.75 714.11C607.41 711.88 610.25 709.3 611.79 706.16C613.03 703.63 613.23 700.71 612.5 697.98L606.91 676.94C606.35 674.83 605.23 672.92 603.67 671.39L593.91 661.85C592 659.98 590.87 657.44 590.84 654.77C590.81 651.75 591.4 648.39 592.35 644.83C592.94 642.61 590.92 640.58 588.7 641.17L565.96 647.21Z" fill="#F9DC1B"/>
<path d="M606.93 676.93L612.52 697.98C613.24 700.71 613.05 703.63 611.81 706.16C610.27 709.3 607.42 711.88 603.76 714.11C602.68 714.77 601.38 714.59 600.52 713.85C603.6 711.8 606 709.45 607.37 706.66C608.61 704.13 608.81 701.21 608.08 698.48L602.49 677.43C601.93 675.32 600.81 673.41 599.25 671.88L589.49 662.34C587.58 660.47 586.46 657.93 586.43 655.26C586.4 652.24 586.99 648.88 587.94 645.32C588.34 643.81 587.53 642.38 586.27 641.82L588.74 641.17C590.96 640.58 592.98 642.61 592.39 644.83C591.44 648.39 590.85 651.75 590.88 654.77C590.91 657.44 592.04 659.98 593.94 661.85L603.7 671.39C605.25 672.91 606.37 674.83 606.93 676.93Z" fill="#E89F02"/>
<g opacity="0.55">
<path d="M602.88 713.61C602.95 713.88 603.06 714.14 603.2 714.36C601.73 714.86 600.08 714.05 599.66 712.47L592.29 684.69C591.5 681.7 589.76 679.04 587.33 677.11L572.57 665.37C571.11 664.21 570.06 662.61 569.58 660.8L565.97 647.2L588.74 641.16C590.03 640.82 591.24 641.36 591.93 642.3L569.19 648.33L572.8 661.93C573.28 663.74 574.33 665.34 575.79 666.5L590.55 678.24C592.97 680.17 594.71 682.83 595.51 685.82L602.88 713.61Z" fill="white"/>
</g>
<path d="M565.96 647.21L569.57 660.81C570.05 662.61 569.93 664.52 569.24 666.26L562.24 683.77C561.09 686.65 560.9 689.82 561.69 692.82L569.06 720.6C569.53 722.38 568.15 724.1 566.31 724.04C562.03 723.92 558.28 723.09 555.38 721.13C553.04 719.55 551.43 717.11 550.7 714.38L545.11 693.34C544.55 691.23 544.57 689.02 545.17 686.92L548.91 673.8C549.64 671.23 549.36 668.47 548.06 666.13C546.59 663.49 544.41 660.86 541.82 658.24C540.21 656.61 540.96 653.85 543.17 653.26L565.96 647.21Z" fill="#F9DC1B"/>
<path d="M565.96 647.21L569.57 660.81C570.05 662.62 569.93 664.53 569.24 666.26L562.24 683.77C561.09 686.65 560.9 689.82 561.69 692.82L569.06 720.6C569.53 722.38 568.15 724.1 566.31 724.05C565.52 724.03 564.74 723.98 563.98 723.9C564.31 723.31 564.42 722.6 564.23 721.88L556.86 694.1C556.07 691.11 556.26 687.93 557.41 685.05L564.41 667.54C565.1 665.81 565.22 663.9 564.74 662.09L561.13 648.49L565.96 647.21Z" fill="#E89F02"/>
<g opacity="0.55">
<path d="M545.81 659.17C548.4 661.79 550.58 664.42 552.05 667.06C553.35 669.39 553.63 672.16 552.9 674.73L549.16 687.85C548.56 689.95 548.54 692.17 549.1 694.27L554.69 715.32C555.41 718.05 557.03 720.49 559.36 722.07C560.39 722.77 561.53 723.32 562.76 723.75C559.95 723.35 557.46 722.53 555.4 721.13C553.07 719.55 551.45 717.11 550.73 714.38L545.14 693.33C544.58 691.22 544.6 689 545.2 686.91L548.94 673.79C549.67 671.22 549.39 668.46 548.09 666.13C546.62 663.49 544.44 660.86 541.85 658.24C540.24 656.61 540.99 653.84 543.2 653.26L565.96 647.21L566.45 649.07L547.15 654.2C544.95 654.78 544.2 657.54 545.81 659.17Z" fill="white"/>
</g>
<path d="M561.5 647.61L561.69 648.34L548.81 651.76L546.45 642.88C546.19 641.89 546.78 640.87 547.77 640.61L549.24 640.22C551.79 644.54 556.48 647.32 561.5 647.61Z" fill="#AFCADC"/>
<path d="M561.93 648.48L548.68 652L546.27 642.93C545.98 641.84 546.63 640.71 547.73 640.42L549.34 639.99L549.41 640.12C551.88 644.33 556.52 647.13 561.51 647.42L561.65 647.43L561.93 648.48ZM548.95 651.53L561.46 648.21L561.35 647.8C556.34 647.46 551.69 644.65 549.16 640.44L547.83 640.79C546.94 641.03 546.41 641.94 546.65 642.83L548.95 651.53Z" fill="#000072"/>
<g opacity="0.55">
<path d="M549.37 640.18C549.57 640.53 549.8 640.87 550.03 641.2L549.9 641.24C548.91 641.5 548.32 642.52 548.58 643.51L550.64 651.28L548.93 651.73L546.57 642.85C546.31 641.86 546.9 640.84 547.89 640.58L549.37 640.18Z" fill="white"/>
</g>
<path d="M558.32 618.42C551.98 620.1 547.69 625.64 547.28 631.84L543.48 630.67L538.81 613.06C538.6 612.29 538.53 611.49 538.59 610.69C539.2 601.56 542.64 593.76 550.23 587.92L554.01 602.16C548 607.21 549.78 616.94 558.32 618.42Z" fill="#AFCADC"/>
<path d="M547.46 632.1L543.33 630.83L538.63 613.12C538.42 612.33 538.34 611.51 538.4 610.68C539.06 600.83 542.89 593.33 550.12 587.77L550.35 587.59L554.23 602.23L554.14 602.31C551.25 604.73 550.04 608.39 550.97 611.85C551.87 615.19 554.63 617.57 558.36 618.22L559.22 618.37L558.37 618.59C552.26 620.21 547.88 625.54 547.48 631.84L547.46 632.1ZM543.64 630.53L547.1 631.6C547.59 625.49 551.72 620.32 557.52 618.46C554.03 617.61 551.46 615.22 550.59 611.97C549.63 608.4 550.86 604.63 553.79 602.11L550.12 588.27C543.13 593.74 539.42 601.09 538.78 610.72C538.73 611.51 538.8 612.29 539 613.03L543.64 630.53Z" fill="#000072"/>
<g opacity="0.3">
<path d="M555.64 619.41C555.69 619.39 555.74 619.36 555.79 619.34C555.81 619.34 555.83 619.35 555.85 619.35C555.79 619.37 555.71 619.39 555.64 619.41Z" fill="#262F6A"/>
<path d="M555.7 619.6L555.55 619.25C555.6 619.22 555.66 619.2 555.71 619.17L555.76 619.15L555.86 619.16L556.66 619.32L555.9 619.53C555.84 619.56 555.77 619.58 555.7 619.6Z" fill="#371A45"/>
</g>
<g opacity="0.3">
<path d="M556.2 617.84C556.79 618.07 556.8 618.9 556.21 619.16C556.07 619.22 555.93 619.28 555.8 619.35C547.31 617.83 544.93 608.03 550.92 603L547.54 590.26C548.37 589.45 549.27 588.68 550.24 587.94L554.02 602.18C548.53 606.76 549.52 615.24 556.2 617.84Z" fill="#262F6A"/>
<path d="M555.82 619.54L555.76 619.53C551.71 618.8 548.7 616.15 547.71 612.43C546.78 608.94 547.92 605.3 550.7 602.92L547.32 590.19L547.4 590.11C548.24 589.3 549.15 588.51 550.11 587.77L550.34 587.59L554.22 602.23L554.13 602.31C551.5 604.52 550.24 607.77 550.78 611.01C551.28 614.07 553.28 616.5 556.27 617.66C556.61 617.8 556.83 618.11 556.84 618.48C556.85 618.86 556.64 619.18 556.29 619.33C556.15 619.39 556.02 619.45 555.88 619.52L555.82 619.54ZM547.75 590.31L551.13 603.06L551.04 603.14C548.31 605.43 547.18 608.95 548.08 612.34C549.03 615.89 551.9 618.43 555.76 619.15C555.88 619.09 556 619.04 556.13 618.98C556.37 618.88 556.45 618.66 556.45 618.49C556.45 618.28 556.33 618.1 556.13 618.02C553.02 616.81 550.93 614.28 550.4 611.08C549.85 607.75 551.12 604.4 553.79 602.11L550.12 588.27C549.28 588.91 548.49 589.6 547.75 590.31Z" fill="#371A45"/>
</g>
<g opacity="0.55">
<path d="M550.23 587.93L550.77 589.98C544.7 595.58 541.87 602.7 541.32 610.9C541.27 611.7 541.34 612.5 541.54 613.27L546.21 630.88L547.32 631.22C547.3 631.43 547.28 631.64 547.27 631.85L543.47 630.68L538.8 613.07C538.59 612.3 538.52 611.5 538.58 610.7C539.2 601.57 542.64 593.77 550.23 587.93Z" fill="white"/>
</g>
<g opacity="0.2">
<path d="M580.31 633.08L582.59 641.69C582.73 642.22 582.44 642.78 581.94 642.97L569.03 646.4C575.28 643.37 578.33 639.06 577.56 633.2L579.99 632.56C580.14 632.69 580.25 632.87 580.31 633.08Z" fill="black"/>
</g>
<path d="M561.5 647.61L561.69 648.34L548.81 651.76L546.45 642.88C546.19 641.89 546.78 640.87 547.77 640.61L549.24 640.22C551.79 644.54 556.48 647.32 561.5 647.61Z" stroke="#0D2232" stroke-width="4" stroke-miterlimit="10" stroke-linecap="round" stroke-linejoin="round"/>
<path d="M565.96 647.21L569.57 660.81C570.05 662.61 571.1 664.22 572.56 665.38L587.32 677.12C589.75 679.05 591.49 681.71 592.28 684.7L599.65 712.48C600.12 714.26 602.17 715.07 603.75 714.11C607.41 711.88 610.25 709.3 611.79 706.16C613.03 703.63 613.23 700.71 612.5 697.98L606.91 676.94C606.35 674.83 605.23 672.92 603.67 671.39L593.91 661.85C592 659.98 590.87 657.44 590.84 654.77C590.81 651.75 591.4 648.39 592.35 644.83C592.94 642.61 590.92 640.58 588.7 641.17L565.96 647.21Z" stroke="#0D2232" stroke-width="4" stroke-miterlimit="10" stroke-linecap="round" stroke-linejoin="round"/>
<path d="M565.96 647.21L569.57 660.81C570.05 662.61 569.93 664.52 569.24 666.26L562.24 683.77C561.09 686.65 560.9 689.82 561.69 692.82L569.06 720.6C569.53 722.38 568.15 724.1 566.31 724.04C562.03 723.92 558.28 723.09 555.38 721.13C553.04 719.55 551.43 717.11 550.7 714.38L545.11 693.34C544.55 691.23 544.57 689.02 545.17 686.92L548.91 673.8C549.64 671.23 549.36 668.47 548.06 666.13C546.59 663.49 544.41 660.86 541.82 658.24C540.21 656.61 540.96 653.85 543.17 653.26L565.96 647.21Z" stroke="#0D2232" stroke-width="4" stroke-miterlimit="10" stroke-linecap="round" stroke-linejoin="round"/>
<path d="M572.62 604.1L577.29 621.71L574.56 624.62C571.29 619.72 565.25 616.99 559.19 618.22C558.9 618.28 558.61 618.35 558.32 618.42C559.57 617.38 560.48 616.2 561.06 614.98C563.6 609.67 560.26 603.31 553.99 602.17L550.21 587.93C559.7 589.24 566.56 594.3 571.61 601.93C572.08 602.6 572.41 603.33 572.62 604.1Z" stroke="#0D2232" stroke-width="4" stroke-miterlimit="10" stroke-linecap="round" stroke-linejoin="round"/>
<path d="M580.31 633.08L582.59 641.69C582.73 642.22 582.44 642.78 581.94 642.97C581.9 642.98 581.87 642.99 581.83 643L566.25 647.14C564.67 647.56 563.07 647.71 561.5 647.62C556.48 647.32 551.79 644.55 549.25 640.22C548.6 639.12 548.09 637.93 547.75 636.64C547.32 635.03 547.18 633.42 547.28 631.85C547.68 625.64 551.97 620.11 558.32 618.43H558.33C558.62 618.35 558.9 618.29 559.2 618.23C565.26 617 571.3 619.73 574.57 624.63C575.53 626.07 576.24 627.69 576.66 629.45C576.93 630.59 577.05 631.73 577.05 632.85L579.01 632.33C579.37 632.23 579.74 632.34 580 632.57C580.14 632.69 580.25 632.87 580.31 633.08Z" stroke="#0D2232" stroke-width="4" stroke-miterlimit="10" stroke-linecap="round" stroke-linejoin="round"/>
<path d="M558.32 618.42C551.98 620.1 547.69 625.64 547.28 631.84L543.48 630.67L538.81 613.06C538.6 612.29 538.53 611.49 538.59 610.69C539.2 601.56 542.64 593.76 550.23 587.92L554.01 602.16C548 607.21 549.78 616.94 558.32 618.42Z" stroke="#0D2232" stroke-width="4" stroke-miterlimit="10" stroke-linecap="round" stroke-linejoin="round"/>
<path d="M562.14 640.7C566.492 640.7 570.02 637.172 570.02 632.82C570.02 628.468 566.492 624.94 562.14 624.94C557.788 624.94 554.26 628.468 554.26 632.82C554.26 637.172 557.788 640.7 562.14 640.7Z" stroke="#0D2232" stroke-width="4" stroke-miterlimit="10" stroke-linecap="round" stroke-linejoin="round"/>
<path d="M614.46 664.67H593.91C591.72 664.67 589.94 662.89 589.94 660.7V659.57C589.94 657.38 591.72 655.6 593.91 655.6H614.46C616.65 655.6 618.43 657.38 618.43 659.57V660.7C618.43 662.9 616.65 664.67 614.46 664.67Z" fill="#F9DC1B"/>
<path d="M612.79 664.67H595.65V671.75H612.79V664.67Z" fill="#F9DC1B"/>
<path d="M605.96 716.23H602.41C595.52 716.23 589.94 710.65 589.94 703.76V675.9C589.94 673.61 591.79 671.76 594.08 671.76H614.29C616.58 671.76 618.43 673.61 618.43 675.9V703.76C618.43 710.64 612.85 716.23 605.96 716.23Z" fill="#F9DC1B"/>
<path d="M618.43 658.65V661.63C618.43 663.31 617.07 664.67 615.39 664.67H610.39C612.07 664.67 613.43 663.31 613.43 661.63V658.65C613.43 656.97 612.07 655.61 610.39 655.61H615.39C617.07 655.61 618.43 656.97 618.43 658.65Z" fill="#E89F02"/>
<path d="M612.8 664.68H607.8V671.76H612.8V664.68Z" fill="#E89F02"/>
<path d="M618.43 674.78V702.4C618.43 710.04 612.24 716.23 604.6 716.23H604.33C609.36 716.23 613.44 712.15 613.44 707.12V674.78C613.44 673.11 612.09 671.76 610.42 671.76H615.42C617.07 671.75 618.43 673.11 618.43 674.78Z" fill="#E89F02"/>
<g opacity="0.55">
<path d="M596.52 664.68H592.99C591.31 664.68 589.95 663.32 589.95 661.64V658.66C589.95 656.98 591.31 655.62 592.99 655.62H596.52C594.84 655.62 593.48 656.98 593.48 658.66V661.64C593.47 663.31 594.84 664.68 596.52 664.68Z" fill="white"/>
</g>
<g opacity="0.55">
<path d="M599.18 664.68H595.65V671.76H599.18V664.68Z" fill="white"/>
</g>
<g opacity="0.55">
<path d="M602.58 716.23H599.05C594.02 716.23 589.94 712.15 589.94 707.12V674.78C589.94 673.11 591.29 671.76 592.96 671.76H596.49C594.82 671.76 593.47 673.11 593.47 674.78V707.12C593.47 712.15 597.55 716.23 602.58 716.23Z" fill="white"/>
</g>
<path d="M614.12 616.9L611.8 624.08H608.82V655.61H599.88V624.08H596.9L594.58 616.9L598.22 596.36H610.48L614.12 616.9Z" fill="#AFCADC"/>
<path d="M608.99 655.77H599.71V624.24H596.77L594.4 616.91L594.41 616.87L598.08 596.19H610.61L614.29 616.91L611.92 624.24H608.98V655.77H608.99ZM600.04 655.44H608.65V623.91H611.68L613.95 616.89L610.34 596.53H598.36L594.75 616.89L597.02 623.91H600.05V655.44H600.04Z" fill="#000072"/>
<g opacity="0.2">
<path d="M608 624.08H608.82V655.61H606.06V626.02C606.06 624.95 606.93 624.08 608 624.08Z" fill="black"/>
</g>
<g opacity="0.2">
<path d="M614.12 616.9L611.8 624.08H609.04L611.36 616.9L607.72 596.36H610.48L614.12 616.9Z" fill="black"/>
</g>
<g opacity="0.55">
<path d="M597.44 616.9L599.75 624.08H597.23L594.91 616.9L598.55 596.36H601.08L597.44 616.9Z" fill="white"/>
</g>
<g opacity="0.55">
<path d="M602.74 625.73V655.61H600.21V624.08H601.09C602 624.08 602.74 624.82 602.74 625.73Z" fill="white"/>
</g>
<g opacity="0.2">
<path d="M603.83 690.77C603.83 694.43 602.29 697.4 600.38 697.4C598.47 697.4 598.45 694.43 598.45 690.77C598.45 687.11 598.48 684.14 600.38 684.14C602.28 684.14 603.83 687.12 603.83 690.77Z" fill="white"/>
</g>
<path d="M614.46 664.67H593.91C591.72 664.67 589.94 662.89 589.94 660.7V659.57C589.94 657.38 591.72 655.6 593.91 655.6H614.46C616.65 655.6 618.43 657.38 618.43 659.57V660.7C618.43 662.9 616.65 664.67 614.46 664.67Z" stroke="#0D2232" stroke-width="4" stroke-miterlimit="10" stroke-linecap="round" stroke-linejoin="round"/>
<path d="M612.79 664.67H595.65V671.75H612.79V664.67Z" stroke="#0D2232" stroke-width="4" stroke-miterlimit="10" stroke-linecap="round" stroke-linejoin="round"/>
<path d="M605.96 716.23H602.41C595.52 716.23 589.94 710.65 589.94 703.76V675.9C589.94 673.61 591.79 671.76 594.08 671.76H614.29C616.58 671.76 618.43 673.61 618.43 675.9V703.76C618.43 710.64 612.85 716.23 605.96 716.23Z" stroke="#0D2232" stroke-width="4" stroke-miterlimit="10" stroke-linecap="round" stroke-linejoin="round"/>
<path d="M614.12 616.9L611.8 624.08H608.82V655.61H599.88V624.08H596.9L594.58 616.9L598.22 596.36H610.48L614.12 616.9Z" stroke="#0D2232" stroke-width="4" stroke-miterlimit="10" stroke-linecap="round" stroke-linejoin="round"/>
<path d="M629.44 658.93V717.09C629.44 717.09 617.85 734.45 595.33 734.45C572.81 734.45 556.71 734.45 556.71 734.45L549.95 725.77C549.95 725.77 544.48 684.95 543.84 669.2C543.84 669.2 605.63 670.85 629.44 658.93Z" fill="#FEC400"/>
<path d="M624.18 661.15V704.81C624.18 712.24 619.98 719.05 613.3 722.31C602.31 727.68 582.28 732.8 549.97 725.78L556.73 734.46L598.73 734.7C598.73 734.7 620.45 731.89 629.46 717.1V658.94L624.18 661.15Z" fill="#E89F02"/>
<path d="M629.44 658.93V713.29C629.44 716 628.41 718.6 626.57 720.58C621.85 725.65 611.36 734.44 595.33 734.44H561.93C558.64 734.44 555.53 732.92 553.51 730.32L551.74 728.05C550.57 726.55 549.82 724.76 549.58 722.88C548.33 713.3 544.39 682.41 543.85 669.19C543.84 669.2 605.63 670.85 629.44 658.93Z" stroke="#0D2232" stroke-width="4" stroke-miterlimit="10" stroke-linecap="round" stroke-linejoin="round"/>
<path d="M629.439 674.02C629.439 674.02 609.719 690.92 545.359 684.49" stroke="#0D2232" stroke-width="4" stroke-miterlimit="10" stroke-linecap="round" stroke-linejoin="round"/>
<path d="M499.81 448.14C504.77 453.26 494.89 471.01 491.45 477.48C488.05 484 487.6 497.52 487.6 497.52L458.91 518.95C455.1 513.83 430.92 503.62 425.8 502.07C420.68 500.55 398.67 497.19 390.48 497.52C382.28 497.85 377.16 495.43 376.63 491.58C376.51 490.56 378.52 489.82 381.63 489.29C390.36 487.69 407.94 487.65 412.24 487.4C418.06 487.07 429.33 481.25 438.55 480.93C447.77 480.56 460.76 480.93 460.76 480.93C460.19 477.04 465.72 472.37 471.62 468.14C476.58 464.62 481.86 461.38 484.04 459.21C488.79 454.41 494.9 443.01 499.81 448.14Z" fill="#FBC6A6"/>
<path opacity="0.16" d="M471.62 468.13C465.72 472.35 460.19 477.02 460.76 480.92C460.76 480.92 447.77 480.55 438.55 480.92C429.33 481.25 418.06 487.07 412.24 487.39C407.94 487.64 390.36 487.68 381.63 489.28C381.63 489.28 379.13 483.58 388.68 483.01C388.68 482.81 388.84 480.51 395.85 479.36C403.19 478.17 419.37 476.82 428.26 474.77C437.16 472.72 471.62 468.13 471.62 468.13Z" fill="black"/>
<path d="M471.62 468.13C465.72 472.35 460.19 477.02 460.76 480.92C460.76 480.92 447.77 480.55 438.55 480.92C429.33 481.25 418.06 487.07 412.24 487.39C407.94 487.64 390.36 487.68 381.63 489.28C381.63 489.28 379.13 483.58 388.68 483.01C388.68 482.81 388.84 480.51 395.85 479.36C403.19 478.17 419.37 476.82 428.26 474.77C437.16 472.72 471.62 468.13 471.62 468.13Z" stroke="#0D2232" stroke-width="6" stroke-miterlimit="10" stroke-linecap="round" stroke-linejoin="round"/>
<path opacity="0.16" d="M483.23 500.78C483.23 500.78 484.02 483.28 487.08 477.47C490.14 471.66 500.72 455.01 495.44 448.13" stroke="black" stroke-width="6" stroke-miterlimit="10"/>
<path opacity="0.16" d="M463.62 516.65C463.62 516.65 448.08 504.41 425.66 498.68C403.24 492.96 383.85 498.45 381.33 489.27" stroke="black" stroke-width="6" stroke-miterlimit="10"/>
<path opacity="0.5" d="M499.57 446.84L473.62 471.13C462.98 478.54 462.76 483.92 462.76 483.92L449.63 483.76C449.63 483.76 437.77 483.46 433.2 484.61C428.62 485.76 404.55 487.63 399.18 487.81" stroke="white" stroke-width="6" stroke-miterlimit="10"/>
<path d="M499.81 448.14C504.77 453.26 494.89 471.01 491.45 477.48C488.05 484 487.6 497.52 487.6 497.52L458.91 518.95C455.1 513.83 430.92 503.62 425.8 502.07C420.68 500.55 398.67 497.19 390.48 497.52C382.28 497.85 377.16 495.43 376.63 491.58C376.51 490.56 378.52 489.82 381.63 489.29C390.36 487.69 407.94 487.65 412.24 487.4C418.06 487.07 429.33 481.25 438.55 480.93C447.77 480.56 460.76 480.93 460.76 480.93C460.19 477.04 465.72 472.37 471.62 468.14C476.58 464.62 481.86 461.38 484.04 459.21C488.79 454.41 494.9 443.01 499.81 448.14Z" stroke="#0D2232" stroke-width="6" stroke-miterlimit="10" stroke-linecap="round" stroke-linejoin="round"/>
<path d="M663.98 403.18C663.98 403.18 694.68 420.5 730.19 403.18" stroke="#0D2232" stroke-width="12" stroke-miterlimit="10" stroke-linecap="round" stroke-linejoin="round"/>
</svg>
