<svg width="458" height="728" viewBox="0 0 458 728" fill="none" xmlns="http://www.w3.org/2000/svg">
<g clip-path="url(#clip0_344_6829)">
<path d="M130.195 656.609L203.625 656.609L203.625 635.109L130.195 635.109L130.195 656.609Z" fill="#435F84" stroke="#0D2232" stroke-width="6" stroke-miterlimit="10" stroke-linecap="round" stroke-linejoin="round"/>
<path d="M341.1 595.45V636.39L360.39 656.63L379.03 636.39L379 535.57H363.89L341.1 595.45Z" fill="#AFCADC"/>
<path d="M360.07 632.47C364.063 632.47 367.3 629.233 367.3 625.24C367.3 621.247 364.063 618.01 360.07 618.01C356.077 618.01 352.84 621.247 352.84 625.24C352.84 629.233 356.077 632.47 360.07 632.47Z" stroke="#0D2232" stroke-width="4" stroke-miterlimit="10" stroke-linecap="round" stroke-linejoin="round"/>
<path opacity="0.2" d="M379.03 536.66H372.39V632.47L360.46 644.4L348.03 631.97V542.92L341.1 543.38V636.39L360.87 656.15L379.83 637.19L379.03 536.66Z" fill="black"/>
<path d="M341.1 595.45V636.39L360.39 656.63L379.03 636.39V536.66H363.92L341.1 595.45Z" stroke="#0D2232" stroke-width="4" stroke-miterlimit="10" stroke-linecap="round" stroke-linejoin="round"/>
<path d="M360.97 145.08C360.97 145.08 354.99 150.43 328.57 152.63C302.14 154.83 116.18 160.42 116.18 160.42L104.73 154.83C104.73 154.83 78.4199 153.38 74.6899 145.08C70.9599 136.78 164.76 103.87 164.76 103.87L283.27 100.25L310.33 111.02L360.97 145.08Z" fill="#CFB300"/>
<path d="M360.97 145.08C360.97 145.08 354.99 150.43 328.57 152.63C302.14 154.83 116.18 160.42 116.18 160.42L104.73 154.83C104.73 154.83 78.4199 153.38 74.6899 145.08C70.9599 136.78 164.76 103.87 164.76 103.87L283.27 100.25L310.33 111.02L360.97 145.08Z" stroke="#0D2232" stroke-width="6" stroke-miterlimit="10" stroke-linecap="round" stroke-linejoin="round"/>
<path d="M105.78 193.85C105.78 193.85 75.59 197.47 79.36 232.39C83.14 267.31 126.62 260.02 126.62 260.02L122.88 209.89L105.78 193.85Z" fill="#FBC6A6" stroke="#0D2232" stroke-width="6" stroke-miterlimit="10"/>
<path d="M337.38 193.85C337.38 193.85 360.35 197.63 362.08 223.11C363.81 248.59 335.47 271.1 313.3 262.2C291.13 253.3 307.49 215.24 307.49 215.24L337.38 193.85Z" fill="#FBC6A6" stroke="#0D2232" stroke-width="6" stroke-miterlimit="10"/>
<path opacity="0.4" d="M335.33 208.95C335.33 208.95 347.26 215.27 342.17 229.01C335.05 248.26 320.54 242.92 320.54 242.92L324.94 219.01L335.33 208.95Z" fill="black"/>
<path opacity="0.4" d="M101.4 208.95C101.4 208.95 89.4701 215.27 94.5601 229.01C101.68 248.26 116.19 242.92 116.19 242.92L111.79 219.01L101.4 208.95Z" fill="black"/>
<path d="M323.75 197.62V226.29C323.75 226.29 323.49 231.26 321.67 238.95C317.59 256.19 305.68 287.11 271.31 306.47C266.42 309.22 261.5 311.51 256.57 313.37C242.25 318.78 227.91 320.61 214.24 319.85C184.79 318.21 158.53 304.54 142.64 288.85C116.84 263.37 115.27 224.53 115.27 224.53V170.25L145.79 133.44L302.54 135.33L321.86 157.98L323.75 197.62Z" fill="#FBC6A6"/>
<path opacity="0.5" d="M162.26 292.89C182.58 307.55 201.63 315.04 216.25 318.86C186.8 317.22 160.54 303.55 144.65 287.86C118.85 262.38 117.28 223.54 117.28 223.54V213.94L125.74 207.32C125.73 207.32 118.22 261.11 162.26 292.89Z" fill="white"/>
<path opacity="0.5" d="M318.67 238.95C314.59 256.19 302.68 287.11 268.31 306.47C263.42 309.22 258.5 311.51 253.57 313.37C271.06 299.74 299.53 274.61 308.26 249.63C311.22 241.18 314.85 238.31 318.67 238.95Z" fill="white"/>
<path d="M360.97 145.08C360.97 145.08 349.96 140.99 335.17 140.99C320.38 140.99 100.33 140.99 100.33 140.99C100.33 140.99 80.3499 140.2 74.6899 145.08V131.4C74.6899 126.1 78.9899 121.8 84.2899 121.8H351.38C356.68 121.8 360.98 126.1 360.98 131.4V145.08H360.97Z" fill="#F9DC1B"/>
<path d="M345.75 121.8C345.75 121.91 345.75 121.96 345.75 121.96H217.7V121.8H89.6599C89.6599 121.8 89.6599 121.77 89.6599 121.72C89.6199 120.67 89.2099 110.23 89.6599 105.45C90.1299 100.41 94.2199 100.26 94.2199 100.26C94.2199 100.26 101.3 37.5001 172.71 16.7401C172.71 16.7401 172.08 4.15005 183.72 2.90005C195.36 1.65005 217.7 0.0700684 217.7 0.0700684V0.230057C217.7 0.230057 240.03 1.80006 251.67 3.06006C263.31 4.32006 262.68 16.9001 262.68 16.9001C334.09 37.6601 341.17 100.42 341.17 100.42C341.17 100.42 345.26 100.58 345.73 105.61C346.18 110.28 345.8 120.41 345.75 121.8Z" fill="#F9DC1B"/>
<path opacity="0.73" d="M345.75 121.8H334.87C334.87 121.8 329.36 57.6201 262.83 25.5301L262.79 18.2701C262.79 18.2701 210.62 1.93006 172.6 19.5501L173.08 29.9401C173.08 29.9401 114.03 46.2901 99.5601 121.48L89.6701 121.71C89.6301 120.66 89.2201 110.22 89.6701 105.44C90.1401 100.4 94.2301 100.25 94.2301 100.25C94.2301 100.25 101.31 37.4901 172.72 16.7301C172.72 16.7301 172.09 4.14006 183.73 2.89006C195.37 1.64006 217.71 0.0600586 217.71 0.0600586V0.220062C217.71 0.220062 240.04 1.79006 251.68 3.05006C263.32 4.31006 262.69 16.8901 262.69 16.8901C334.1 37.6501 341.18 100.41 341.18 100.41C341.18 100.41 345.27 100.57 345.74 105.6C346.18 110.28 345.8 120.41 345.75 121.8Z" fill="white"/>
<path d="M345.74 105.6C345.27 100.57 341.18 100.41 341.18 100.41C341.18 100.41 334.1 37.6501 262.69 16.8901C262.69 16.8901 263.32 4.31006 251.68 3.05006C240.04 1.79006 217.7 0.220062 217.7 0.220062V0.0600586C217.7 0.0600586 195.36 1.63006 183.72 2.89006C172.08 4.15006 172.71 16.7301 172.71 16.7301C101.3 37.4901 94.2201 100.25 94.2201 100.25C94.2201 100.25 90.1301 100.41 89.6601 105.44C89.1901 110.47 89.6601 121.8 89.6601 121.8H217.7V121.96H345.74C345.74 121.96 346.21 110.64 345.74 105.6Z" stroke="#0D2232" stroke-width="6" stroke-miterlimit="10" stroke-linecap="round" stroke-linejoin="round"/>
<path d="M262.07 329.86H292.39V495.54H142.65V329.86H262.07Z" fill="white"/>
<path d="M265.86 336.67H172.32V437.55H265.86V336.67Z" fill="#F9DC1B"/>
<path d="M292.4 458.73H142.65V495.54H292.4V458.73Z" fill="#F9DC1B"/>
<path d="M243.84 317.8C243.84 317.8 214.46 324.09 194.44 317.8L187.52 348.74L205.77 355.55C205.77 355.55 217.84 360.58 232.52 355.55C247.2 350.52 251.82 335.84 251.82 335.84L243.84 317.8Z" fill="#FBC6A6" stroke="#0D2232" stroke-width="6" stroke-miterlimit="10"/>
<path d="M262.89 351.83C262.1 363.68 260.2 374.64 260.2 374.64L232.51 355.55C232.51 355.55 235.68 348.04 238.29 340.6C239.81 336.25 241.15 331.91 241.53 329.12C242.58 321.57 243.84 317.8 243.84 317.8C243.84 317.8 259.99 316.96 262.5 331.85C263.45 337.41 263.36 344.77 262.89 351.83Z" fill="#435F84"/>
<path d="M262.89 351.83C255.76 351.3 247.46 347.75 243.18 344.71C241.46 343.48 239.78 342.12 238.29 340.6C239.81 336.25 241.15 331.91 241.53 329.12C242.58 321.57 243.84 317.8 243.84 317.8C243.84 317.8 259.99 316.96 262.5 331.85C263.45 337.41 263.36 344.77 262.89 351.83Z" fill="#253B5A"/>
<path d="M243.84 317.8C243.84 317.8 259.99 316.96 262.51 331.85C265.03 346.74 260.2 374.63 260.2 374.63L232.52 355.54C232.52 355.54 240.49 336.66 241.54 329.11C242.58 321.57 243.84 317.8 243.84 317.8Z" stroke="#0D2232" stroke-width="6" stroke-miterlimit="10"/>
<path d="M175.39 351.83C176.18 363.68 178.08 374.64 178.08 374.64L205.77 355.55C205.77 355.55 202.6 348.04 199.99 340.6C198.47 336.25 197.13 331.91 196.75 329.12C195.7 321.57 194.44 317.8 194.44 317.8C194.44 317.8 178.29 316.96 175.78 331.85C174.83 337.41 174.92 344.77 175.39 351.83Z" fill="#435F84"/>
<path d="M175.39 351.83C182.52 351.3 190.82 347.75 195.1 344.71C196.82 343.48 198.5 342.12 199.99 340.6C198.47 336.25 197.13 331.91 196.75 329.12C195.7 321.57 194.44 317.8 194.44 317.8C194.44 317.8 178.29 316.96 175.78 331.85C174.83 337.41 174.92 344.77 175.39 351.83Z" fill="#253B5A"/>
<path d="M194.44 317.8C194.44 317.8 178.29 316.96 175.77 331.85C173.25 346.74 178.08 374.63 178.08 374.63L205.76 355.54C205.76 355.54 197.79 336.66 196.74 329.11C195.69 321.56 194.44 317.8 194.44 317.8Z" stroke="#0D2232" stroke-width="6" stroke-miterlimit="10"/>
<path d="M197.28 389.31H158.27V424.96H197.28V389.31Z" fill="#F9DC1B" stroke="#0D2232" stroke-width="6" stroke-miterlimit="10"/>
<path d="M197.28 403.37H158.27" stroke="#0D2232" stroke-width="6" stroke-miterlimit="10"/>
<path d="M262.69 16.89C262.69 16.89 263.79 27.43 259.54 48.98L262.69 16.89Z" fill="#F9DC1B"/>
<path d="M262.69 16.89C262.69 16.89 263.79 27.43 259.54 48.98" stroke="#0D2232" stroke-width="6" stroke-miterlimit="10" stroke-linecap="round" stroke-linejoin="round"/>
<path d="M341.18 100.41H308.75C305.32 100.41 302.54 103.19 302.54 106.62V121.96" stroke="#0D2232" stroke-width="6" stroke-miterlimit="10" stroke-linecap="round" stroke-linejoin="round"/>
<path d="M172.72 16.7301C172.72 16.7301 171.62 27.2701 175.87 48.8201L172.72 16.7301Z" fill="#F9DC1B"/>
<path d="M172.72 16.7301C172.72 16.7301 171.62 27.2701 175.87 48.8201" stroke="#0D2232" stroke-width="6" stroke-miterlimit="10" stroke-linecap="round" stroke-linejoin="round"/>
<path d="M94.2202 100.25H126.65C130.08 100.25 132.86 103.03 132.86 106.46V121.8" stroke="#0D2232" stroke-width="6" stroke-miterlimit="10" stroke-linecap="round" stroke-linejoin="round"/>
<path opacity="0.74" d="M347.6 131.19C341.14 128.73 334.04 128.78 327.14 128.85C276.69 129.39 226.24 129.92 175.79 130.46C153.37 130.7 130.96 130.94 108.54 131.18C98.5902 131.29 87.4302 131.91 80.7302 139.25C79.4102 140.7 78.1202 142.48 76.1802 142.77C73.2202 143.22 71.0302 139.78 70.9702 136.79C70.8502 131.18 75.1702 126.23 80.2702 123.87C85.3702 121.52 91.1502 121.24 96.7602 121.05C179.86 118.22 263.2 126.29 346.12 120.16C350.91 119.81 356.57 119.78 359.44 123.64C361.02 125.77 361.28 128.58 361.49 131.23C361.69 133.9 363.87 143.86 358.5 140.05C356.76 138.82 355.56 136.13 353.76 134.69C351.92 133.22 349.8 131.96 347.6 131.19Z" fill="white"/>
<path d="M360.97 145.08C360.97 145.08 349.96 140.99 335.17 140.99C320.38 140.99 100.33 140.99 100.33 140.99C100.33 140.99 80.3499 140.2 74.6899 145.08V131.4C74.6899 126.1 78.9899 121.8 84.2899 121.8H351.38C356.68 121.8 360.98 126.1 360.98 131.4V145.08H360.97Z" stroke="#0D2232" stroke-width="6" stroke-miterlimit="10" stroke-linecap="round" stroke-linejoin="round"/>
<path d="M123.7 175.08C123.7 175.08 123.16 204.07 123.7 212.41C124.24 220.75 118.58 228.3 109.93 222.48C101.28 216.66 102.96 182.06 102.96 182.06C102.96 182.06 111.93 182.47 123.7 175.08Z" fill="#253B5A" stroke="#0D2232" stroke-width="6" stroke-miterlimit="10"/>
<path d="M171.14 221.47C179.999 221.47 187.18 214.289 187.18 205.43C187.18 196.571 179.999 189.39 171.14 189.39C162.281 189.39 155.1 196.571 155.1 205.43C155.1 214.289 162.281 221.47 171.14 221.47Z" fill="#0D2232"/>
<path d="M265.97 221.47C274.829 221.47 282.01 214.289 282.01 205.43C282.01 196.571 274.829 189.39 265.97 189.39C257.112 189.39 249.93 196.571 249.93 205.43C249.93 214.289 257.112 221.47 265.97 221.47Z" fill="#0D2232"/>
<path d="M286.83 177.19C285.54 177.19 284.25 176.75 283.2 175.84C282.71 175.43 271.93 166.47 256.13 168.94C253.09 169.42 250.24 167.34 249.77 164.3C249.29 161.26 251.37 158.41 254.41 157.94C275.5 154.64 289.89 166.89 290.49 167.42C292.81 169.44 293.06 172.96 291.04 175.28C289.94 176.54 288.39 177.19 286.83 177.19Z" fill="#0D2232"/>
<path d="M150.75 177.19C152.04 177.19 153.33 176.75 154.38 175.84C154.87 175.43 165.65 166.47 181.45 168.94C184.49 169.42 187.34 167.34 187.81 164.3C188.29 161.26 186.21 158.41 183.17 157.94C162.08 154.64 147.69 166.89 147.09 167.42C144.77 169.44 144.52 172.96 146.54 175.28C147.64 176.54 149.19 177.19 150.75 177.19Z" fill="#0D2232"/>
<path d="M268.19 252.87C264 260.56 257.84 268.93 249.04 275.09C241.27 280.53 231.44 284.24 219.09 284.24C205.62 284.24 195.19 279.82 187.17 273.57C179.48 267.58 174.01 259.89 170.2 252.79C166.87 246.56 168.86 239.46 173.73 235.51C176.07 233.61 179.07 232.44 182.46 232.44H255.98C259.37 232.44 262.37 233.61 264.71 235.51C269.6 239.48 271.59 246.64 268.19 252.87Z" fill="#162336"/>
<path d="M247.88 249.64C232.1 249.64 184.7 249.64 184.7 249.64C184.7 249.64 172.07 250.12 173.74 235.51C176.08 233.61 179.08 232.44 182.47 232.44H255.99C259.38 232.44 262.38 233.61 264.72 235.51C264.89 235.66 263.65 249.64 247.88 249.64Z" fill="white"/>
<path d="M249.04 275.09C241.27 280.53 231.44 284.24 219.09 284.24C205.62 284.24 195.19 279.82 187.17 273.57C191.9 263.16 209.41 259.68 227.06 260.65C240.66 261.39 246.56 269.42 249.04 275.09Z" fill="#DD1010"/>
<path d="M182.46 232.44H255.98C266.47 232.44 273.21 243.66 268.19 252.87C260.29 267.36 245.43 284.24 219.09 284.24C192.7 284.24 177.98 267.3 170.2 252.79C165.27 243.58 172.01 232.44 182.46 232.44Z" stroke="#0D2232" stroke-width="6" stroke-miterlimit="10"/>
<path d="M292.4 495.54H142.65V529.41H292.4V495.54Z" fill="#253B5A" stroke="#0D2232" stroke-width="6" stroke-miterlimit="10"/>
<path d="M243.21 495.54H195.81V529.41H243.21V495.54Z" fill="#C3CDD4" stroke="#0D2232" stroke-width="6" stroke-miterlimit="10"/>
<path d="M361.21 706H364.57C366.19 706 367.51 707.31 367.51 708.94V717.59C367.51 719.99 365.56 721.94 363.16 721.94H286.77L271.15 711.45V721.94H232.4C230 721.94 228.05 719.99 228.05 717.59V701.13C228.05 698.84 229.91 696.98 232.2 696.99H233.64L335.27 696.1L361.21 706Z" fill="#484D60" stroke="#0D2232" stroke-width="6" stroke-miterlimit="10" stroke-linecap="round" stroke-linejoin="round"/>
<path d="M362.78 702.23L361.21 706H291.21L273.12 696.98H233.62C233.62 696.98 231.81 688.28 233.33 677.5C234.27 670.81 236.5 663.32 241.24 656.61H301.43L306.15 661.65C306.15 661.65 314.64 661.96 315.27 669.83C315.27 669.83 316.76 669.08 319.33 668.26C324.4 666.64 333.66 664.71 343.9 667.63C359.32 672.03 366.56 691.85 362.78 702.23Z" fill="#E89F02"/>
<path d="M256.76 696.99H233.62C233.62 696.99 231.81 688.29 233.33 677.51C233.42 677.5 233.52 677.5 233.62 677.49C256.73 676.33 256.76 696.99 256.76 696.99Z" fill="#834526"/>
<path opacity="0.75" d="M362.78 702.23L361.21 706H351.14C351.14 706 360.1 673.71 319.34 668.25C324.41 666.63 333.67 664.7 343.91 667.62C359.32 672.03 366.56 691.85 362.78 702.23Z" fill="white"/>
<path d="M301.44 656.61L306.16 661.64C306.16 661.64 314.65 661.95 315.28 669.82C315.28 669.82 328.49 663.21 343.91 667.62C359.33 672.02 366.56 691.84 362.79 702.23L361.22 706.01H291.22L273.13 696.99H233.63C233.63 696.99 228.88 674.13 241.25 656.62H301.44V656.61Z" stroke="#0D2232" stroke-width="6" stroke-miterlimit="10" stroke-linecap="round" stroke-linejoin="round"/>
<path d="M315.28 669.83C315.28 669.83 295.04 676.44 291.21 706.01" stroke="#0D2232" stroke-width="6" stroke-miterlimit="10" stroke-linecap="round" stroke-linejoin="round"/>
<path d="M306.16 661.65C306.16 661.65 292 664.48 286.76 677.48" stroke="#0D2232" stroke-width="6" stroke-miterlimit="10" stroke-linecap="round" stroke-linejoin="round"/>
<path d="M306.16 635.12H232.73V656.62H306.16V635.12Z" fill="#435F84" stroke="#0D2232" stroke-width="6" stroke-miterlimit="10" stroke-linecap="round" stroke-linejoin="round"/>
<path d="M299.55 635.12L291.06 529.41H218.17V549.97L228.03 549.34L238.52 635.12H299.55Z" fill="#435F84" stroke="#0D2232" stroke-width="6" stroke-miterlimit="10" stroke-linecap="round" stroke-linejoin="round"/>
<path d="M75.1399 706H71.7798C70.1598 706 68.8398 707.31 68.8398 708.94V717.59C68.8398 719.99 70.7898 721.94 73.1898 721.94H149.58L165.2 711.45V721.94H203.95C206.35 721.94 208.3 719.99 208.3 717.59V701.13C208.3 698.84 206.44 696.98 204.15 696.99H202.71L101.08 696.1L75.1399 706Z" fill="#484D60" stroke="#0D2232" stroke-width="6" stroke-miterlimit="10" stroke-linecap="round" stroke-linejoin="round"/>
<path d="M73.5601 702.23L75.1301 706H145.13L163.22 696.98H202.72C202.72 696.98 204.53 688.28 203.01 677.5C202.07 670.81 199.84 663.32 195.1 656.61H134.91L130.19 661.65C130.19 661.65 121.7 661.96 121.07 669.83C121.07 669.83 119.58 669.08 117.01 668.26C111.94 666.64 102.68 664.71 92.4401 667.63C77.0301 672.03 69.7901 691.85 73.5601 702.23Z" fill="#E89F02"/>
<path d="M179.59 696.99H202.73C202.73 696.99 204.54 688.29 203.02 677.51C202.93 677.5 202.83 677.5 202.73 677.49C179.62 676.33 179.59 696.99 179.59 696.99Z" fill="#834526"/>
<path opacity="0.75" d="M73.5601 702.23L75.1301 706H85.2001C85.2001 706 76.2401 673.71 117 668.25C111.93 666.63 102.67 664.7 92.4301 667.62C77.0301 672.03 69.7901 691.85 73.5601 702.23Z" fill="white"/>
<path d="M134.91 656.61L130.19 661.64C130.19 661.64 121.7 661.95 121.07 669.82C121.07 669.82 107.86 663.21 92.4399 667.62C77.0199 672.02 69.7899 691.84 73.5599 702.23L75.1299 706.01H145.13L163.22 696.99H202.72C202.72 696.99 207.47 674.13 195.1 656.62H134.91V656.61Z" stroke="#0D2232" stroke-width="6" stroke-miterlimit="10" stroke-linecap="round" stroke-linejoin="round"/>
<path d="M121.07 669.83C121.07 669.83 141.31 676.44 145.14 706.01" stroke="#0D2232" stroke-width="6" stroke-miterlimit="10" stroke-linecap="round" stroke-linejoin="round"/>
<path d="M130.19 661.65C130.19 661.65 144.35 664.48 149.59 677.48" stroke="#0D2232" stroke-width="6" stroke-miterlimit="10" stroke-linecap="round" stroke-linejoin="round"/>
<path d="M136.8 635.12L145.29 529.41H218.17V549.97L208.32 549.34L197.83 635.12H136.8Z" fill="#435F84" stroke="#0D2232" stroke-width="6" stroke-miterlimit="10" stroke-linecap="round" stroke-linejoin="round"/>
<path d="M100.57 417.93C100.57 417.93 87.2799 427.9 62.8699 419.72C38.4599 411.54 31.3799 383.65 31.3799 383.65V376.63L32.5699 376.45L74.0499 370.17H77.9699L91.2699 363.11L97.9599 393.94L98.6899 400.71L100.57 417.93Z" fill="#FBC6A6"/>
<path opacity="0.16" d="M100.57 417.93C100.57 417.93 80.8501 437.94 56.4501 429.75C32.0401 421.57 31.3901 383.64 31.3901 383.64V376.62L32.5801 376.44C39.9301 384.95 48.4701 392.44 57.8601 398.62C60.6101 400.42 63.4401 402.13 66.4901 403.36C74.6901 406.67 83.9101 406.2 92.1901 403.44C94.3201 402.73 96.4101 401.86 98.4201 400.86C98.5101 400.82 98.6001 400.77 98.7001 400.7L100.57 417.93Z" fill="black"/>
<path d="M77.9799 370.16H74.0599L31.3799 376.63L43.0499 381.65C43.0499 381.65 34.9399 404.14 47.1199 417.91C50.0699 421.25 48.8799 427.84 53.6399 429.43C78.0499 437.61 100.57 417.93 100.57 417.93L97.9699 393.93L91.2799 363.1L77.9799 370.16Z" stroke="#0D2232" stroke-width="6" stroke-miterlimit="10" stroke-linecap="round" stroke-linejoin="round"/>
<path d="M130.38 415.11L104.79 426.85L81.8401 378.32L75.6401 365.19L100.17 353.03L106.94 366.92L130.38 415.11Z" fill="#435F84"/>
<path opacity="0.21" d="M106.94 366.92L106.9 366.96L81.8401 378.32L75.6401 365.19L100.17 353.03L106.94 366.92Z" fill="white"/>
<path d="M142.65 336.67V403.37L128.07 410.92L106.9 366.96L102.48 357.78L142.65 336.67Z" fill="#F9DC1B"/>
<path opacity="0.5" d="M142.65 336.67V348.62L106.9 366.96L102.48 357.78L142.65 336.67Z" fill="white"/>
<g opacity="0.16">
<path d="M122.56 140.99H323.75L328.57 152.63H116.18L122.56 140.99Z" fill="black"/>
<path d="M102.95 182.06C102.95 182.06 138.57 190.84 174.22 152.64L142.64 147.85L102.95 182.06Z" fill="black"/>
<path d="M190.15 179.37C190.15 179.37 243.3 188.19 277.37 146.81L247.87 147.84L190.15 179.37Z" fill="black"/>
</g>
<path opacity="0.16" d="M320.55 205.43C320.55 205.43 303.25 302.81 199.99 315.33C199.99 315.33 308.12 330.69 321.49 226.24L320.55 205.43Z" fill="black"/>
<path d="M142.65 373L115.28 384.35L128.07 410.92L142.65 403.37V373Z" fill="#E89F02"/>
<path d="M286.37 477.14H148.56V489.43H286.37V477.14Z" fill="#E89F02"/>
<path d="M262.49 329.86H292.92V495.54H142.65V329.86H172.43" stroke="#0D2232" stroke-width="6" stroke-miterlimit="10"/>
<path d="M100.18 353.03L130.38 415.11L104.79 426.86L75.6401 365.19L100.18 353.03Z" stroke="#0D2232" stroke-width="6" stroke-miterlimit="10" stroke-linecap="round" stroke-linejoin="round"/>
<path d="M155.55 140.99C155.55 140.99 128.49 187.24 96.4001 181.57C93.4901 181.05 90.8701 180.47 88.5401 179.85C65.1901 173.57 69.3501 162.44 69.3501 162.44C69.3501 162.44 88.8701 167.8 102.38 142.81C102.7 142.22 103.01 141.62 103.32 141H155.55V140.99Z" fill="#253B5A"/>
<path opacity="0.21" d="M94.2198 164.9C85.2298 170.4 81.6098 170.25 81.6098 170.25C81.6098 170.25 80.5098 174.82 88.5298 179.85C65.1798 173.57 69.3398 162.44 69.3398 162.44C69.3398 162.44 91.2199 165.98 104.73 140.99C104.75 141.33 103.12 159.46 94.2198 164.9Z" fill="white"/>
<path d="M367.9 166.79C367.9 166.79 354.54 187.52 331.23 182.81C317.88 180.11 301.26 169.06 282.01 141L339.57 141.12C339.57 141.12 339.75 144.01 340.97 147.85C343.42 155.52 350.07 167 367.9 166.79Z" fill="#253B5A"/>
<path opacity="0.21" d="M367.9 166.79C367.9 166.79 354.54 187.52 331.23 182.81C333.89 182.05 336.47 180.96 338.94 179.73C343.92 177.24 348.58 174.15 353.53 171.6C348.03 171.34 343.13 167.28 340.97 162.21C339.45 158.63 338.39 152.66 340.13 148.97C340.36 148.48 340.66 148.11 340.99 147.86C343.42 155.52 350.07 167 367.9 166.79Z" fill="white"/>
<path d="M339.57 141.11C339.57 141.11 341.15 167.1 367.89 166.79C367.89 166.79 334.86 218.07 282.01 140.99L339.57 141.11Z" stroke="#0D2232" stroke-width="6" stroke-miterlimit="10" stroke-linecap="round" stroke-linejoin="round"/>
<path d="M255.27 140.99C255.27 140.99 243 174.34 190.15 179.37C190.15 179.37 199.27 163.01 199.27 140.99H255.27Z" fill="#253B5A" stroke="#0D2232" stroke-width="6" stroke-miterlimit="10" stroke-linecap="round" stroke-linejoin="round"/>
<path d="M155.54 140.99C155.54 140.99 128.48 187.24 96.3999 181.57C64.3199 175.9 69.3399 162.43 69.3399 162.43C69.3399 162.43 89.7899 168.04 103.32 140.98H155.54V140.99Z" stroke="#0D2232" stroke-width="6" stroke-miterlimit="10" stroke-linecap="round" stroke-linejoin="round"/>
<path d="M323.75 226.29C323.75 226.29 321.02 278.47 271.31 306.47C221.6 334.47 168.44 314.33 142.64 288.85C116.84 263.37 115.27 224.53 115.27 224.53" stroke="#0D2232" stroke-width="6" stroke-miterlimit="10"/>
<path d="M337.38 183.5C337.38 183.5 336.91 210.21 335.81 215.4C334.71 220.59 330.15 227.04 321.5 226.25C312.85 225.46 313.16 214.3 313.01 206.43C312.85 198.57 313.01 174.54 313.01 174.54C313.01 174.54 324.79 183.85 337.38 183.5Z" fill="#253B5A" stroke="#0D2232" stroke-width="6" stroke-miterlimit="10" stroke-linecap="round" stroke-linejoin="round"/>
<path d="M236.02 529.41L258.86 656.61H241.24H232.73V635.12H238.52L228.03 546L218.17 549.97V529.41H236.02Z" fill="#253B5A"/>
<path d="M182.02 635.12L177.78 656.61H203.62V635.12H197.83L208.32 546L218.17 549.97V529.41H195.81L182.02 635.12Z" fill="#253B5A"/>
<path d="M228.03 549.34L240.41 547.87" stroke="#0D2232" stroke-width="6" stroke-miterlimit="10" stroke-linecap="round" stroke-linejoin="round"/>
<path d="M208.32 549.34L195.94 547.87" stroke="#0D2232" stroke-width="6" stroke-miterlimit="10" stroke-linecap="round" stroke-linejoin="round"/>
<path d="M291.06 529.41H277.59L286.76 635.12H292.92V656.61H306.16V635.12H299.55L291.06 529.41Z" fill="#C3CDD4"/>
<path d="M145.95 529.41H159.42L150.25 635.12H144.09V656.61H130.85V635.12H137.46L145.95 529.41Z" fill="#C3CDD4"/>
<path d="M306.16 635.12H232.73V656.62H306.16V635.12Z" stroke="#0D2232" stroke-width="6" stroke-miterlimit="10" stroke-linecap="round" stroke-linejoin="round"/>
<path d="M299.55 635.12L291.06 529.41H218.17V549.97L228.03 549.34L238.52 635.12H299.55Z" stroke="#0D2232" stroke-width="6" stroke-miterlimit="10" stroke-linecap="round" stroke-linejoin="round"/>
<path d="M136.8 635.12L145.29 529.41H218.17V549.97L208.32 549.34L197.83 635.12H136.8Z" stroke="#0D2232" stroke-width="6" stroke-miterlimit="10" stroke-linecap="round" stroke-linejoin="round"/>
<path d="M369.03 542.09H351.83V607.23H369.03V542.09Z" fill="#E89F02"/>
<path d="M458.48 521.34V531.68C458.48 534.43 456.24 536.66 453.49 536.66H375.02C372.27 536.66 370.04 534.43 370.04 531.68V521.34C370.04 520.74 370.15 520.16 370.34 519.63C371.03 517.72 372.87 516.35 375.02 516.35H453.49C455.64 516.35 457.48 517.72 458.18 519.63C458.37 520.16 458.48 520.74 458.48 521.34Z" fill="#AFCADC"/>
<path opacity="0.2" d="M370.03 530.58V531.68C370.03 534.43 372.26 536.67 375.01 536.67H453.48C456.23 536.67 458.46 534.44 458.46 531.68V530.58H370.03Z" fill="black"/>
<path opacity="0.7" d="M458.17 519.63H370.33C371.02 517.72 372.86 516.35 375.01 516.35H453.48C455.64 516.35 457.48 517.71 458.17 519.63Z" fill="white"/>
<path d="M458.48 521.34V531.68C458.48 534.43 456.24 536.66 453.49 536.66H375.02C372.27 536.66 370.04 534.43 370.04 531.68V521.34C370.04 520.74 370.15 520.16 370.34 519.63C371.03 517.72 372.87 516.35 375.02 516.35H453.49C455.64 516.35 457.48 517.72 458.18 519.63C458.37 520.16 458.48 520.74 458.48 521.34Z" stroke="#0D2232" stroke-width="4" stroke-miterlimit="10" stroke-linecap="round" stroke-linejoin="round"/>
<path d="M284.53 535.02C284.53 535.02 305.74 551.73 370.03 545.31" stroke="white" stroke-miterlimit="10"/>
<path d="M266.53 495.16V583.88L278.1 595.45H357.17L346.57 587.09L347.21 495.16H266.53Z" fill="#F9DC1B"/>
<path d="M276.17 495.16V578.32L282.92 587.09H363.92L357.17 595.45H278.1L266.53 583.88V495.16H276.17Z" fill="#E89F02"/>
<path d="M278.74 507.52H273.6V512.66H278.74V507.52Z" fill="white"/>
<path d="M278.74 523.93H273.6V529.07H278.74V523.93Z" fill="white"/>
<path d="M278.74 540.35H273.6V545.49H278.74V540.35Z" fill="white"/>
<path d="M278.74 556.76H273.6V561.9H278.74V556.76Z" fill="white"/>
<path d="M278.74 573.17H273.6V578.31H278.74V573.17Z" fill="white"/>
<path d="M347.21 530.2V495.16H266.53V583.88L278.1 595.45H350.11" stroke="#0D2232" stroke-width="4" stroke-miterlimit="10" stroke-linecap="round" stroke-linejoin="round"/>
<path d="M146.96 519.93V579.37C146.96 579.37 122.53 598.01 85.2498 595.44C85.2498 595.44 69.8198 571.01 65.3198 530.19C65.3198 530.2 129.6 533.78 146.96 519.93Z" stroke="white" stroke-miterlimit="10"/>
<path d="M67.8701 546.78C67.8701 546.78 121.25 547.24 146.96 535.02" stroke="white" stroke-miterlimit="10"/>
<path d="M80.7002 586.81C80.7002 586.81 112.88 587.73 131.53 577.45L127.41 527.27L146.96 519.93V579.37C146.96 579.37 125.1 596.73 85.2502 595.44L80.7002 586.81Z" stroke="white" stroke-miterlimit="10"/>
<path d="M147.13 535.02C147.13 535.02 125.89 551.73 61.5298 545.31" stroke="white" stroke-miterlimit="10"/>
<path d="M165.15 495.16V583.88L153.57 595.45H74.3999L85.0199 587.09L84.3799 495.16H165.15Z" fill="#F9DC1B"/>
<path d="M155.5 495.16V578.32L148.74 587.09H67.6401L74.4001 595.45H153.57L165.15 583.88V495.16H155.5Z" fill="#E89F02"/>
<path d="M152.923 512.667H158.073V507.527H152.923V512.667Z" fill="white"/>
<path d="M152.923 529.082H158.073V523.942H152.923V529.082Z" fill="white"/>
<path d="M152.923 545.488H158.073V540.348H152.923V545.488Z" fill="white"/>
<path d="M152.923 561.903H158.073V556.763H152.923V561.903Z" fill="white"/>
<path d="M152.923 578.319H158.073V573.179H152.923V578.319Z" fill="white"/>
<path d="M84.3802 530.2V495.16H165.15V583.88L153.57 595.45L75.4702 594.61" stroke="#0D2232" stroke-width="4" stroke-miterlimit="10" stroke-linecap="round" stroke-linejoin="round"/>
<path d="M90.3001 465.1L94.9701 482.71L92.2401 485.62C88.9701 480.72 82.9301 477.99 76.8701 479.22C76.5801 479.28 76.2901 479.35 76.0001 479.42C77.2501 478.38 78.1601 477.2 78.7401 475.98C81.2801 470.67 77.9401 464.31 71.6701 463.17L67.8901 448.93C77.3801 450.24 84.2401 455.3 89.2901 462.93C89.7601 463.6 90.1001 464.33 90.3001 465.1Z" fill="#AFCADC"/>
<path d="M92.2202 485.93L92.0901 485.73C88.7901 480.78 82.7002 478.24 76.9202 479.41C76.6502 479.46 76.3702 479.53 76.0702 479.61L75.2302 479.83L75.9001 479.27C77.0901 478.28 78.0001 477.15 78.5901 475.89C79.7501 473.47 79.7002 470.7 78.4702 468.29C77.1402 465.7 74.6602 463.9 71.6602 463.35L71.5402 463.33L67.6602 448.69L67.9502 448.73C76.9802 449.98 84.0301 454.58 89.4901 462.81C89.9501 463.5 90.2902 464.25 90.5002 465.04L95.2002 482.75L92.2202 485.93ZM76.7202 479.05C76.7602 479.04 76.8002 479.03 76.8502 479.02C82.7002 477.83 88.8602 480.35 92.2802 485.3L94.7701 482.64L90.1201 465.14C89.9201 464.39 89.6002 463.68 89.1602 463.02C83.8202 454.98 76.9601 450.43 68.1801 449.15L71.8502 462.99C74.9102 463.58 77.4502 465.44 78.8102 468.11C80.1002 470.63 80.1401 473.52 78.9301 476.05C78.4101 477.15 77.6702 478.16 76.7202 479.05Z" fill="#000072"/>
<g opacity="0.55">
<path d="M78.7299 478.97C78.1199 479.01 77.4999 479.1 76.8799 479.22C76.5899 479.28 76.2999 479.35 76.0099 479.42C77.2599 478.38 78.1699 477.2 78.7499 475.98C81.2899 470.67 77.9499 464.31 71.6799 463.17L67.8999 448.93C68.9199 449.07 69.8999 449.25 70.8499 449.48L74.3699 462.73C80.6399 463.87 83.9799 470.22 81.4399 475.54C80.8699 476.76 79.9699 477.93 78.7299 478.97Z" fill="white"/>
</g>
<g opacity="0.55">
<path d="M78.7897 478.96L78.6997 478.98C78.7097 478.97 78.7097 478.97 78.7197 478.96C78.7497 478.96 78.7697 478.96 78.7897 478.96Z" fill="white"/>
<path d="M78.8397 479.15L77.9297 479.39L78.6697 478.78C78.7097 478.77 78.7397 478.77 78.7597 478.77L80.3897 478.73L78.8397 479.15Z" fill="#371A45"/>
</g>
<path d="M97.99 494.08L100.27 502.69C100.41 503.22 100.12 503.78 99.62 503.97C99.58 503.98 99.55 503.99 99.51 504L83.93 508.14C82.35 508.56 80.75 508.71 79.18 508.62C74.16 508.32 69.47 505.55 66.93 501.22C66.28 500.12 65.77 498.93 65.43 497.64C65 496.03 64.86 494.42 64.96 492.85C65.36 486.64 69.65 481.11 76 479.43H76.01C76.3 479.35 76.58 479.29 76.88 479.23C82.94 478 88.98 480.73 92.25 485.63C93.21 487.07 93.92 488.69 94.34 490.45C94.61 491.59 94.73 492.73 94.73 493.85L96.69 493.33C97.05 493.23 97.42 493.34 97.68 493.57C97.82 493.69 97.94 493.87 97.99 494.08Z" fill="#AFCADC"/>
<path d="M99.5701 504.19L83.9901 508.33C82.4201 508.75 80.8001 508.91 79.1801 508.81C74.0601 508.51 69.3101 505.64 66.7701 501.32C66.1001 500.19 65.5901 498.97 65.2501 497.7C64.8301 496.1 64.6701 494.47 64.7701 492.84C65.1901 486.37 69.6801 480.91 75.9501 479.24C76.2801 479.15 76.5601 479.09 76.8401 479.03C82.7601 477.83 89.0201 480.43 92.4001 485.51C93.3901 487 94.1001 488.64 94.5101 490.39C94.7601 491.44 94.8901 492.52 94.9001 493.59L96.6201 493.13C97.0301 493.02 97.4701 493.12 97.7801 493.41C97.9701 493.57 98.1001 493.79 98.1601 494.03L100.44 502.64C100.61 503.27 100.27 503.92 99.6701 504.15C99.6501 504.16 99.6101 504.17 99.5701 504.19ZM76.0701 479.6C69.9501 481.23 65.5701 486.55 65.1601 492.85C65.0501 494.44 65.2101 496.03 65.6201 497.58C65.9501 498.82 66.4501 500.01 67.1001 501.11C69.5701 505.32 74.2101 508.12 79.2001 508.41C80.7801 508.5 82.3601 508.35 83.8901 507.94L99.4701 503.8C99.5001 503.79 99.5301 503.78 99.5601 503.77C99.9801 503.61 100.21 503.16 100.1 502.72L97.8201 494.11C97.7801 493.94 97.6801 493.79 97.5501 493.68C97.3301 493.48 97.0301 493.41 96.7401 493.48L94.5401 494.06V493.81C94.5401 492.69 94.4101 491.56 94.1501 490.45C93.7501 488.74 93.0601 487.14 92.0901 485.69C88.7901 480.74 82.7001 478.2 76.9201 479.37C76.6501 479.46 76.3701 479.52 76.0701 479.6Z" fill="#000072"/>
<g opacity="0.3">
<path d="M90.3001 465.1L94.9702 482.71L92.2401 485.62C92.0601 485.35 91.8702 485.08 91.6702 484.82C88.3002 480.42 82.6001 478.05 76.8701 479.22C76.5801 479.28 76.2902 479.35 76.0002 479.42C77.2502 478.38 78.1601 477.2 78.7401 475.98C78.8201 475.95 78.9101 475.93 78.9901 475.91H79.0102C79.2902 475.84 79.5802 475.77 79.8802 475.71C82.5202 475.17 85.1501 475.39 87.5501 476.21C89.0101 476.71 90.4302 475.41 90.0402 473.92L87.9802 466.17C87.7802 465.4 87.4402 464.67 87.0002 464C82.4402 457.12 76.4102 452.33 68.3202 450.5L67.9102 448.95C77.4002 450.26 84.2602 455.32 89.3102 462.95C89.7602 463.6 90.1001 464.33 90.3001 465.1Z" fill="black"/>
<path d="M92.2199 485.93L92.0899 485.73C91.9099 485.45 91.7199 485.19 91.5299 484.95C88.1099 480.48 82.3799 478.31 76.9199 479.42C76.6499 479.47 76.3699 479.54 76.0699 479.62L75.2299 479.84L75.8999 479.28C77.0899 478.29 77.9999 477.16 78.5899 475.9L78.6299 475.82L78.7099 475.79C79.1099 475.66 79.5199 475.58 79.8599 475.51C82.4399 474.99 85.1199 475.16 87.6299 476.01C88.2499 476.22 88.9099 476.08 89.3899 475.64C89.8599 475.2 90.0399 474.58 89.8699 473.96L87.8099 466.21C87.6099 465.47 87.2899 464.76 86.8499 464.09C82.0099 456.79 75.9399 452.4 68.2799 450.67L68.1699 450.64L67.6499 448.7L67.9399 448.74C76.9699 449.99 84.0199 454.59 89.4799 462.82C89.9399 463.51 90.2799 464.26 90.4899 465.05L95.1899 482.76L92.2199 485.93ZM76.7199 479.05C76.7599 479.04 76.7999 479.03 76.8499 479.02C82.4499 477.88 88.3299 480.11 91.8399 484.7C91.9899 484.89 92.1399 485.09 92.2799 485.31L94.7699 482.65L90.1199 465.15C89.9199 464.4 89.5999 463.69 89.1599 463.03C83.8199 454.99 76.9599 450.44 68.1799 449.16L68.4899 450.32C76.1899 452.09 82.2999 456.53 87.1799 463.88C87.6399 464.58 87.9799 465.33 88.1899 466.11L90.2499 473.86C90.4499 474.62 90.2299 475.39 89.6599 475.92C89.0799 476.46 88.2799 476.63 87.5099 476.38C85.0699 475.55 82.4499 475.38 79.9399 475.89C79.6699 475.94 79.3599 476.01 79.0799 476.09C79.0199 476.11 78.9599 476.12 78.9099 476.14C78.3799 477.2 77.6499 478.18 76.7199 479.05Z" fill="#371A45"/>
</g>
<g opacity="0.55">
<path d="M86.89 480.74C84.47 479.9 81.8 479.67 79.13 480.21C78.84 480.27 78.55 480.34 78.26 480.41H78.25C71.91 482.09 67.62 487.63 67.21 493.83C67.11 495.4 67.25 497.02 67.68 498.62C68.02 499.9 68.53 501.1 69.18 502.2C70.58 504.58 72.62 506.49 75.02 507.77C71.67 506.6 68.75 504.3 66.93 501.2C66.28 500.1 65.77 498.91 65.43 497.62C65 496.01 64.86 494.4 64.96 492.83C65.36 486.62 69.65 481.09 76 479.41H76.01C76.3 479.33 76.58 479.27 76.88 479.21C80.41 478.5 83.92 479.13 86.89 480.74Z" fill="white"/>
</g>
<path d="M79.8302 501.7C84.1822 501.7 87.7102 498.172 87.7102 493.82C87.7102 489.468 84.1822 485.94 79.8302 485.94C75.4782 485.94 71.9502 489.468 71.9502 493.82C71.9502 498.172 75.4782 501.7 79.8302 501.7Z" fill="#CECEDD"/>
<g opacity="0.55">
<path d="M89.9099 493.23C91.0299 497.44 88.5199 501.75 84.3199 502.87C81.7199 503.56 79.0799 502.87 77.1699 501.24C78.6199 501.76 80.2399 501.86 81.8499 501.44C86.0599 500.32 88.5599 496.01 87.4399 491.8C87.0099 490.2 86.1199 488.84 84.9499 487.84C87.3099 488.68 89.2199 490.63 89.9099 493.23Z" fill="white"/>
</g>
<g opacity="0.3">
<path d="M84.6299 487.57C83.3399 487.21 81.9399 487.19 80.5499 487.56C76.3399 488.68 73.8399 492.99 74.9599 497.2C75.4199 498.95 76.4399 500.4 77.7799 501.42C75.1499 500.71 72.9699 498.66 72.2199 495.84C71.0999 491.63 73.6099 487.32 77.8099 486.2C80.2699 485.55 82.7599 486.13 84.6299 487.57Z" fill="black"/>
<path d="M78.6599 501.86L77.7199 501.61C74.9399 500.86 72.7599 498.67 72.0199 495.89C70.8799 491.59 73.4499 487.16 77.7499 486.02C80.1899 485.37 82.7399 485.88 84.7399 487.42L85.5199 488.02L84.5699 487.76C83.2799 487.4 81.9099 487.4 80.5899 487.75C76.4899 488.84 74.0399 493.06 75.1299 497.15C75.5699 498.8 76.5199 500.23 77.8799 501.27L78.6599 501.86ZM77.8599 486.39C73.7599 487.48 71.3099 491.7 72.3999 495.79C73.0199 498.12 74.7099 500.02 76.9099 500.93C75.8799 499.92 75.1499 498.67 74.7699 497.25C73.6299 492.95 76.1999 488.52 80.4999 487.38C81.5499 487.1 82.6499 487.04 83.7099 487.19C81.9499 486.15 79.8699 485.85 77.8599 486.39Z" fill="#371A45"/>
</g>
<path d="M83.6499 508.21L87.2599 521.81C87.7399 523.61 88.7899 525.22 90.2499 526.38L105.01 538.12C107.44 540.05 109.18 542.71 109.97 545.7L117.34 573.48C117.81 575.26 119.86 576.07 121.44 575.11C125.1 572.88 127.94 570.3 129.48 567.16C130.72 564.63 130.92 561.71 130.19 558.98L124.6 537.94C124.04 535.83 122.92 533.92 121.36 532.39L111.6 522.85C109.69 520.98 108.56 518.44 108.53 515.77C108.5 512.75 109.09 509.39 110.04 505.83C110.63 503.61 108.61 501.58 106.39 502.17L83.6499 508.21Z" fill="#F9DC1B"/>
<path d="M124.61 537.93L130.2 558.98C130.92 561.71 130.73 564.63 129.49 567.16C127.95 570.3 125.1 572.88 121.44 575.11C120.36 575.77 119.06 575.59 118.2 574.85C121.28 572.8 123.68 570.45 125.05 567.66C126.29 565.13 126.49 562.21 125.76 559.48L120.17 538.43C119.61 536.32 118.49 534.41 116.93 532.88L107.17 523.34C105.26 521.47 104.13 518.93 104.11 516.26C104.08 513.24 104.67 509.88 105.62 506.32C106.02 504.81 105.21 503.38 103.95 502.82L106.42 502.17C108.64 501.58 110.66 503.61 110.07 505.83C109.12 509.39 108.53 512.75 108.56 515.77C108.59 518.44 109.72 520.98 111.62 522.85L121.38 532.39C122.93 533.91 124.05 535.83 124.61 537.93Z" fill="#E89F02"/>
<g opacity="0.55">
<path d="M120.56 574.61C120.63 574.88 120.74 575.14 120.88 575.36C119.41 575.86 117.76 575.05 117.34 573.47L109.97 545.69C109.18 542.7 107.44 540.04 105.01 538.11L90.2499 526.37C88.7899 525.21 87.7399 523.61 87.2599 521.8L83.6499 508.2L106.42 502.16C107.71 501.82 108.92 502.36 109.61 503.3L86.8699 509.33L90.4799 522.93C90.9599 524.74 92.0099 526.34 93.4699 527.5L108.23 539.24C110.65 541.17 112.39 543.83 113.19 546.82L120.56 574.61Z" fill="white"/>
</g>
<path d="M83.65 508.21L87.26 521.81C87.74 523.61 87.62 525.52 86.93 527.26L79.93 544.77C78.78 547.65 78.59 550.82 79.38 553.82L86.75 581.6C87.22 583.38 85.84 585.1 84 585.04C79.72 584.92 75.97 584.09 73.07 582.13C70.73 580.55 69.12 578.11 68.39 575.38L62.8 554.34C62.24 552.23 62.26 550.02 62.86 547.92L66.6 534.8C67.33 532.23 67.05 529.47 65.75 527.13C64.28 524.49 62.1 521.86 59.51 519.24C57.9 517.61 58.65 514.85 60.86 514.26L83.65 508.21Z" fill="#F9DC1B"/>
<path d="M83.6497 508.21L87.2598 521.81C87.7398 523.62 87.6197 525.53 86.9297 527.26L79.9297 544.77C78.7797 547.65 78.5898 550.82 79.3798 553.82L86.7498 581.6C87.2198 583.38 85.8398 585.1 83.9998 585.05C83.2098 585.03 82.4298 584.98 81.6698 584.9C81.9998 584.31 82.1098 583.6 81.9198 582.88L74.5497 555.1C73.7597 552.11 73.9498 548.93 75.0998 546.05L82.0998 528.54C82.7898 526.81 82.9097 524.9 82.4297 523.09L78.8198 509.49L83.6497 508.21Z" fill="#E89F02"/>
<g opacity="0.55">
<path d="M63.4998 520.17C66.0898 522.79 68.2697 525.42 69.7397 528.06C71.0397 530.39 71.3198 533.16 70.5898 535.73L66.8498 548.85C66.2498 550.95 66.2298 553.17 66.7898 555.27L72.3798 576.32C73.0998 579.05 74.7197 581.49 77.0497 583.07C78.0797 583.77 79.2198 584.32 80.4498 584.75C77.6398 584.35 75.1498 583.53 73.0898 582.13C70.7598 580.55 69.1398 578.11 68.4198 575.38L62.8297 554.33C62.2697 552.22 62.2898 550 62.8898 547.91L66.6298 534.79C67.3598 532.22 67.0798 529.46 65.7798 527.13C64.3098 524.49 62.1298 521.86 59.5398 519.24C57.9298 517.61 58.6798 514.84 60.8898 514.26L83.6498 508.21L84.1398 510.07L64.8398 515.2C62.6298 515.78 61.8798 518.54 63.4998 520.17Z" fill="white"/>
</g>
<path d="M79.1797 508.61L79.3697 509.34L66.4897 512.76L64.1297 503.88C63.8697 502.89 64.4597 501.87 65.4497 501.61L66.9197 501.22C69.4697 505.54 74.1597 508.32 79.1797 508.61Z" fill="#AFCADC"/>
<path d="M79.6099 509.48L66.3599 513L63.9499 503.93C63.6599 502.84 64.3099 501.71 65.4099 501.42L67.0199 500.99L67.0899 501.12C69.5599 505.33 74.1999 508.13 79.1899 508.42L79.3299 508.43L79.6099 509.48ZM66.6299 512.53L79.1399 509.21L79.0299 508.8C74.0199 508.46 69.3699 505.65 66.8399 501.44L65.5099 501.79C64.6199 502.03 64.0899 502.94 64.3299 503.83L66.6299 512.53Z" fill="#000072"/>
<g opacity="0.55">
<path d="M67.0601 501.18C67.2601 501.53 67.4901 501.87 67.7201 502.2L67.5901 502.24C66.6001 502.5 66.0101 503.52 66.2701 504.51L68.3301 512.28L66.6201 512.73L64.2601 503.85C64.0001 502.86 64.5901 501.84 65.5801 501.58L67.0601 501.18Z" fill="white"/>
</g>
<path d="M75.9997 479.42C69.6597 481.1 65.3697 486.64 64.9597 492.84L61.1597 491.67L56.4897 474.06C56.2797 473.29 56.2097 472.49 56.2697 471.69C56.8797 462.56 60.3197 454.76 67.9097 448.92L71.6897 463.16C65.6797 468.21 67.4597 477.94 75.9997 479.42Z" fill="#AFCADC"/>
<path d="M65.14 493.1L61.01 491.83L56.3099 474.12C56.0999 473.33 56.0199 472.51 56.0799 471.68C56.7399 461.83 60.5699 454.33 67.7999 448.77L68.0299 448.59L71.9099 463.23L71.82 463.31C68.93 465.73 67.7199 469.39 68.6499 472.85C69.5499 476.19 72.31 478.57 76.04 479.22L76.8999 479.37L76.0499 479.59C69.9399 481.21 65.5599 486.54 65.1599 492.84L65.14 493.1ZM61.3299 491.53L64.79 492.6C65.28 486.49 69.4099 481.32 75.2099 479.46C71.7199 478.61 69.1499 476.22 68.2799 472.97C67.3199 469.4 68.55 465.63 71.48 463.11L67.8099 449.27C60.8199 454.74 57.1099 462.09 56.4699 471.72C56.4199 472.51 56.4899 473.29 56.6899 474.03L61.3299 491.53Z" fill="#000072"/>
<g opacity="0.3">
<path d="M73.3296 480.41C73.3796 480.39 73.4296 480.36 73.4796 480.34C73.4996 480.34 73.5196 480.35 73.5396 480.35C73.4696 480.37 73.3996 480.39 73.3296 480.41Z" fill="#262F6A"/>
<path d="M73.3898 480.6L73.2397 480.25C73.2897 480.22 73.3497 480.2 73.3997 480.17L73.4498 480.15L73.5497 480.16L74.3498 480.32L73.5898 480.53C73.5198 480.56 73.4598 480.58 73.3898 480.6Z" fill="#371A45"/>
</g>
<g opacity="0.3">
<path d="M73.8797 478.84C74.4697 479.07 74.4797 479.9 73.8897 480.16C73.7497 480.22 73.6097 480.28 73.4797 480.35C64.9897 478.83 62.6097 469.03 68.5997 464L65.2197 451.26C66.0497 450.45 66.9497 449.68 67.9197 448.94L71.6997 463.18C66.2197 467.76 67.2097 476.24 73.8797 478.84Z" fill="#262F6A"/>
<path d="M73.5098 480.54L73.4498 480.53C69.3998 479.8 66.3897 477.15 65.3997 473.43C64.4697 469.94 65.6098 466.3 68.3898 463.92L65.0098 451.19L65.0898 451.11C65.9298 450.3 66.8397 449.51 67.7997 448.77L68.0298 448.59L71.9098 463.23L71.8198 463.31C69.1898 465.52 67.9298 468.77 68.4698 472.01C68.9698 475.07 70.9697 477.5 73.9597 478.66C74.2997 478.8 74.5198 479.11 74.5298 479.48C74.5398 479.86 74.3298 480.18 73.9798 480.33C73.8398 480.39 73.7098 480.45 73.5698 480.52L73.5098 480.54ZM65.4297 451.31L68.8098 464.06L68.7198 464.14C65.9898 466.43 64.8598 469.95 65.7598 473.34C66.7098 476.89 69.5798 479.43 73.4398 480.15C73.5598 480.09 73.6798 480.04 73.8098 479.98C74.0498 479.88 74.1298 479.66 74.1298 479.49C74.1298 479.28 74.0098 479.1 73.8098 479.02C70.6998 477.81 68.6097 475.28 68.0797 472.08C67.5297 468.75 68.7998 465.4 71.4698 463.11L67.7997 449.27C66.9697 449.91 66.1697 450.6 65.4297 451.31Z" fill="#371A45"/>
</g>
<g opacity="0.55">
<path d="M67.9197 448.93L68.4597 450.98C62.3897 456.58 59.5597 463.7 59.0097 471.9C58.9597 472.7 59.0297 473.5 59.2297 474.27L63.8997 491.88L65.0097 492.22C64.9897 492.43 64.9697 492.64 64.9597 492.85L61.1597 491.68L56.4897 474.07C56.2797 473.3 56.2097 472.5 56.2697 471.7C56.8797 462.57 60.3297 454.77 67.9197 448.93Z" fill="white"/>
</g>
<g opacity="0.2">
<path d="M97.99 494.08L100.27 502.69C100.41 503.22 100.12 503.78 99.62 503.97L86.71 507.4C92.96 504.37 96.01 500.06 95.24 494.2L97.67 493.56C97.82 493.69 97.94 493.87 97.99 494.08Z" fill="black"/>
</g>
<path d="M79.1797 508.61L79.3697 509.34L66.4897 512.76L64.1297 503.88C63.8697 502.89 64.4597 501.87 65.4497 501.61L66.9197 501.22C69.4697 505.54 74.1597 508.32 79.1797 508.61Z" stroke="#0D2232" stroke-width="4" stroke-miterlimit="10" stroke-linecap="round" stroke-linejoin="round"/>
<path d="M83.6499 508.21L87.2599 521.81C87.7399 523.61 88.7899 525.22 90.2499 526.38L105.01 538.12C107.44 540.05 109.18 542.71 109.97 545.7L117.34 573.48C117.81 575.26 119.86 576.07 121.44 575.11C125.1 572.88 127.94 570.3 129.48 567.16C130.72 564.63 130.92 561.71 130.19 558.98L124.6 537.94C124.04 535.83 122.92 533.92 121.36 532.39L111.6 522.85C109.69 520.98 108.56 518.44 108.53 515.77C108.5 512.75 109.09 509.39 110.04 505.83C110.63 503.61 108.61 501.58 106.39 502.17L83.6499 508.21Z" stroke="#0D2232" stroke-width="4" stroke-miterlimit="10" stroke-linecap="round" stroke-linejoin="round"/>
<path d="M83.6495 508.21L87.2595 521.81C87.7395 523.61 87.6195 525.52 86.9295 527.26L79.9295 544.77C78.7795 547.65 78.5895 550.82 79.3795 553.82L86.7495 581.6C87.2195 583.38 85.8395 585.1 83.9995 585.04C79.7195 584.92 75.9695 584.09 73.0695 582.13C70.7295 580.55 69.1195 578.11 68.3895 575.38L62.7995 554.34C62.2395 552.23 62.2595 550.02 62.8595 547.92L66.5995 534.8C67.3295 532.23 67.0495 529.47 65.7495 527.13C64.2795 524.49 62.0995 521.86 59.5095 519.24C57.8995 517.61 58.6495 514.85 60.8595 514.26L83.6495 508.21Z" stroke="#0D2232" stroke-width="4" stroke-miterlimit="10" stroke-linecap="round" stroke-linejoin="round"/>
<path d="M90.2996 465.1L94.9696 482.71L92.2396 485.62C88.9696 480.72 82.9296 477.99 76.8696 479.22C76.5796 479.28 76.2896 479.35 75.9996 479.42C77.2496 478.38 78.1596 477.2 78.7396 475.98C81.2796 470.67 77.9396 464.31 71.6696 463.17L67.8896 448.93C77.3796 450.24 84.2396 455.3 89.2896 462.93C89.7596 463.6 90.0996 464.33 90.2996 465.1Z" stroke="#0D2232" stroke-width="4" stroke-miterlimit="10" stroke-linecap="round" stroke-linejoin="round"/>
<path d="M97.9895 494.08L100.27 502.69C100.41 503.22 100.12 503.78 99.6195 503.97C99.5795 503.98 99.5495 503.99 99.5095 504L83.9295 508.14C82.3495 508.56 80.7495 508.71 79.1795 508.62C74.1595 508.32 69.4695 505.55 66.9295 501.22C66.2795 500.12 65.7695 498.93 65.4295 497.64C64.9995 496.03 64.8595 494.42 64.9595 492.85C65.3595 486.64 69.6495 481.11 75.9995 479.43H76.0095C76.2995 479.35 76.5795 479.29 76.8795 479.23C82.9395 478 88.9795 480.73 92.2495 485.63C93.2095 487.07 93.9195 488.69 94.3395 490.45C94.6095 491.59 94.7295 492.73 94.7295 493.85L96.6895 493.33C97.0495 493.23 97.4195 493.34 97.6795 493.57C97.8195 493.69 97.9395 493.87 97.9895 494.08Z" stroke="#0D2232" stroke-width="4" stroke-miterlimit="10" stroke-linecap="round" stroke-linejoin="round"/>
<path d="M75.9997 479.42C69.6597 481.1 65.3697 486.64 64.9597 492.84L61.1597 491.67L56.4897 474.06C56.2797 473.29 56.2097 472.49 56.2697 471.69C56.8797 462.56 60.3197 454.76 67.9097 448.92L71.6897 463.16C65.6797 468.21 67.4597 477.94 75.9997 479.42Z" stroke="#0D2232" stroke-width="4" stroke-miterlimit="10" stroke-linecap="round" stroke-linejoin="round"/>
<path d="M79.8302 501.7C84.1822 501.7 87.7102 498.172 87.7102 493.82C87.7102 489.468 84.1822 485.94 79.8302 485.94C75.4782 485.94 71.9502 489.468 71.9502 493.82C71.9502 498.172 75.4782 501.7 79.8302 501.7Z" stroke="#0D2232" stroke-width="4" stroke-miterlimit="10" stroke-linecap="round" stroke-linejoin="round"/>
<path d="M132.14 525.67H111.59C109.4 525.67 107.62 523.89 107.62 521.7V520.57C107.62 518.38 109.4 516.6 111.59 516.6H132.14C134.33 516.6 136.11 518.38 136.11 520.57V521.7C136.11 523.9 134.34 525.67 132.14 525.67Z" fill="#F9DC1B"/>
<path d="M130.48 525.67H113.34V532.75H130.48V525.67Z" fill="#F9DC1B"/>
<path d="M123.64 577.23H120.09C113.2 577.23 107.62 571.65 107.62 564.76V536.9C107.62 534.61 109.47 532.76 111.76 532.76H131.97C134.26 532.76 136.11 534.61 136.11 536.9V564.76C136.11 571.64 130.53 577.23 123.64 577.23Z" fill="#F9DC1B"/>
<path d="M136.11 519.65V522.63C136.11 524.31 134.75 525.67 133.07 525.67H128.07C129.75 525.67 131.11 524.31 131.11 522.63V519.65C131.11 517.97 129.75 516.61 128.07 516.61H133.07C134.75 516.61 136.11 517.97 136.11 519.65Z" fill="#E89F02"/>
<path d="M130.49 525.68H125.49V532.76H130.49V525.68Z" fill="#E89F02"/>
<path d="M136.11 535.78V563.4C136.11 571.04 129.92 577.23 122.28 577.23H122.01C127.04 577.23 131.12 573.15 131.12 568.12V535.78C131.12 534.11 129.77 532.76 128.1 532.76H133.1C134.76 532.75 136.11 534.11 136.11 535.78Z" fill="#E89F02"/>
<g opacity="0.55">
<path d="M114.2 525.68H110.67C108.99 525.68 107.63 524.32 107.63 522.64V519.66C107.63 517.98 108.99 516.62 110.67 516.62H114.2C112.52 516.62 111.16 517.98 111.16 519.66V522.64C111.16 524.31 112.52 525.68 114.2 525.68Z" fill="white"/>
</g>
<g opacity="0.55">
<path d="M116.87 525.68H113.34V532.76H116.87V525.68Z" fill="white"/>
</g>
<g opacity="0.55">
<path d="M120.27 577.23H116.74C111.71 577.23 107.63 573.15 107.63 568.12V535.78C107.63 534.11 108.98 532.76 110.65 532.76H114.18C112.51 532.76 111.16 534.11 111.16 535.78V568.12C111.16 573.15 115.24 577.23 120.27 577.23Z" fill="white"/>
</g>
<path d="M131.81 477.9L129.49 485.08H126.51V516.61H117.56V485.08H114.58L112.26 477.9L115.91 457.36H128.16L131.81 477.9Z" fill="#AFCADC"/>
<path d="M126.67 516.77H117.39V485.24H114.45L112.08 477.91L112.09 477.87L115.76 457.19H128.29L131.97 477.91L129.6 485.24H126.66V516.77H126.67ZM117.73 516.44H126.34V484.91H129.37L131.64 477.89L128.03 457.53H116.05L112.44 477.89L114.71 484.91H117.74V516.44H117.73Z" fill="#000072"/>
<g opacity="0.2">
<path d="M125.69 485.08H126.51V516.61H123.75V487.02C123.75 485.95 124.62 485.08 125.69 485.08Z" fill="black"/>
</g>
<g opacity="0.2">
<path d="M131.81 477.9L129.49 485.08H126.73L129.05 477.9L125.4 457.36H128.16L131.81 477.9Z" fill="black"/>
</g>
<g opacity="0.55">
<path d="M115.12 477.9L117.44 485.08H114.91L112.59 477.9L116.24 457.36H118.77L115.12 477.9Z" fill="white"/>
</g>
<g opacity="0.55">
<path d="M120.42 486.73V516.61H117.89V485.08H118.77C119.68 485.08 120.42 485.82 120.42 486.73Z" fill="white"/>
</g>
<g opacity="0.2">
<path d="M121.52 551.77C121.52 555.43 119.98 558.4 118.07 558.4C116.17 558.4 116.14 555.43 116.14 551.77C116.14 548.11 116.17 545.14 118.07 545.14C119.97 545.15 121.52 548.12 121.52 551.77Z" fill="white"/>
</g>
<path d="M132.14 525.67H111.59C109.4 525.67 107.62 523.89 107.62 521.7V520.57C107.62 518.38 109.4 516.6 111.59 516.6H132.14C134.33 516.6 136.11 518.38 136.11 520.57V521.7C136.11 523.9 134.34 525.67 132.14 525.67Z" stroke="#0D2232" stroke-width="4" stroke-miterlimit="10" stroke-linecap="round" stroke-linejoin="round"/>
<path d="M130.48 525.67H113.34V532.75H130.48V525.67Z" stroke="#0D2232" stroke-width="4" stroke-miterlimit="10" stroke-linecap="round" stroke-linejoin="round"/>
<path d="M123.64 577.23H120.09C113.2 577.23 107.62 571.65 107.62 564.76V536.9C107.62 534.61 109.47 532.76 111.76 532.76H131.97C134.26 532.76 136.11 534.61 136.11 536.9V564.76C136.11 571.64 130.53 577.23 123.64 577.23Z" stroke="#0D2232" stroke-width="4" stroke-miterlimit="10" stroke-linecap="round" stroke-linejoin="round"/>
<path d="M131.81 477.9L129.49 485.08H126.51V516.61H117.56V485.08H114.58L112.26 477.9L115.91 457.36H128.16L131.81 477.9Z" stroke="#0D2232" stroke-width="4" stroke-miterlimit="10" stroke-linecap="round" stroke-linejoin="round"/>
<path d="M147.13 519.93V578.09C147.13 578.09 135.54 595.45 113.02 595.45C90.4998 595.45 74.3998 595.45 74.3998 595.45L67.6398 586.77C67.6398 586.77 62.1698 545.95 61.5298 530.2C61.5298 530.2 123.32 531.85 147.13 519.93Z" fill="#FEC400"/>
<path d="M141.86 522.15V565.81C141.86 573.24 137.66 580.05 130.98 583.31C119.99 588.68 99.9599 593.8 67.6499 586.78L74.4099 595.46L116.41 595.7C116.41 595.7 138.13 592.89 147.14 578.1V519.94L141.86 522.15Z" fill="#E89F02"/>
<path d="M147.13 519.93V574.29C147.13 577 146.1 579.6 144.26 581.58C139.54 586.65 129.05 595.44 113.02 595.44H79.62C76.33 595.44 73.22 593.92 71.2 591.32L69.43 589.05C68.26 587.55 67.51 585.76 67.27 583.88C66.02 574.3 62.08 543.41 61.54 530.19C61.53 530.2 123.32 531.85 147.13 519.93Z" stroke="#0D2232" stroke-width="4" stroke-miterlimit="10" stroke-linecap="round" stroke-linejoin="round"/>
<path d="M147.13 535.02C147.13 535.02 127.41 551.92 63.0498 545.49" stroke="#0D2232" stroke-width="4" stroke-miterlimit="10" stroke-linecap="round" stroke-linejoin="round"/>
<path d="M130.195 656.609L203.625 656.609L203.625 635.109L130.195 635.109L130.195 656.609Z" stroke="#0D2232" stroke-width="6" stroke-miterlimit="10" stroke-linecap="round" stroke-linejoin="round"/>
<path d="M142.65 336.67L102.48 357.78L128.07 410.92L142.65 403.37V336.67Z" stroke="#0D2232" stroke-width="6" stroke-miterlimit="10"/>
<path d="M359.43 373.55C359.43 373.55 387.07 389.62 381.29 410.84C375.51 432.06 334.36 460.34 334.36 460.34C334.36 460.34 332.43 436.55 303.5 431.41L321.5 413.41L359.43 373.55Z" fill="#FBC6A6"/>
<path d="M303.5 431.4L294.5 436.86V492.79H335L334.36 460.33C334.36 460.33 331.79 435.9 303.5 431.4Z" fill="#FBC6A6"/>
<path opacity="0.16" d="M355.37 377.81C355.37 377.81 380.85 390.25 375.2 410.97C369.55 431.7 333.9 453.72 333.9 453.72" stroke="black" stroke-width="6" stroke-miterlimit="10"/>
<path opacity="0.16" d="M331 492.8L330.36 447.75" stroke="black" stroke-width="6" stroke-miterlimit="10"/>
<path opacity="0.5" d="M309.67 431.97L364.81 375.05" stroke="white" stroke-width="6" stroke-miterlimit="10"/>
<path opacity="0.5" d="M299.67 433.12V494.36" stroke="white" stroke-width="6" stroke-miterlimit="10"/>
<path d="M359.43 373.55C359.43 373.55 387.07 389.62 381.29 410.84C375.51 432.06 334.36 460.34 334.36 460.34C334.36 460.34 332.43 436.55 303.5 431.41L321.5 413.41L359.43 373.55Z" stroke="#0D2232" stroke-width="6" stroke-miterlimit="10" stroke-linecap="round" stroke-linejoin="round"/>
<path d="M303.5 431.4L294.5 436.86V492.79H335L334.36 460.33C334.36 460.33 331.79 435.9 303.5 431.4Z" stroke="#0D2232" stroke-width="6" stroke-miterlimit="10" stroke-linecap="round" stroke-linejoin="round"/>
<path d="M305.19 415.11L330.78 426.85L353.72 378.32L359.93 365.19L335.39 353.03L328.63 366.92L305.19 415.11Z" fill="#435F84"/>
<path opacity="0.21" d="M328.63 366.92L328.67 366.96L353.72 378.32L359.93 365.19L335.39 353.03L328.63 366.92Z" fill="white"/>
<path d="M292.92 336.67V403.37L307.5 410.92L328.67 366.96L333.08 357.78L292.92 336.67Z" fill="#F9DC1B"/>
<path opacity="0.5" d="M292.92 336.67V348.62L328.67 366.96L333.08 357.78L292.92 336.67Z" fill="white"/>
<path d="M316.11 393.02L292.92 383.65V403.37L307.5 410.92L316.11 393.02Z" fill="#E89F02"/>
<path d="M335.39 353.03L305.19 415.11L330.78 426.86L359.93 365.19L335.39 353.03Z" stroke="#0D2232" stroke-width="6" stroke-miterlimit="10" stroke-linecap="round" stroke-linejoin="round"/>
<path d="M292.92 336.67L333.08 357.78L307.5 410.92L292.92 403.37V336.67Z" stroke="#0D2232" stroke-width="6" stroke-miterlimit="10"/>
<path fill-rule="evenodd" clip-rule="evenodd" d="M74.14 426.86C62.36 434.1 54.0499 435.06 44.0299 422.95C35.9899 413.24 28.5199 363.84 27.9399 338.51C42.1799 331.13 52.76 326.17 60.4799 322.83C61.0499 339.94 76.0799 376.41 82.6299 399.69C85.8899 411.33 84.82 420.29 74.14 426.86Z" fill="#F7BB9C"/>
<path opacity="0.16" d="M31.6499 350.36C31.6499 350.36 36.9699 406.22 45.8999 420.32C54.8299 434.42 65.7799 431.56 75.6399 426.74" stroke="black" stroke-width="6" stroke-miterlimit="10"/>
<path opacity="0.5" d="M60.1099 341.98L75.6699 389.94L83.6999 417.91" stroke="white" stroke-width="6" stroke-miterlimit="10"/>
<path fill-rule="evenodd" clip-rule="evenodd" d="M74.14 426.86C62.36 434.1 54.0499 435.06 44.0299 422.95C35.9899 413.24 28.5199 363.84 27.9399 338.51C42.1799 331.13 52.76 326.17 60.4799 322.83C61.0499 339.94 76.0799 376.41 82.6299 399.69C85.8899 411.33 84.82 420.29 74.14 426.86Z" stroke="#0D2232" stroke-width="6" stroke-miterlimit="10" stroke-linecap="round" stroke-linejoin="round"/>
<path d="M79.32 300.65C72.42 298.54 62.54 303.85 58.63 313.13C57.63 314.96 56.71 310.73 56.08 306.21C54.88 297.67 53.54 277.67 49.14 275.4C44.33 272.91 37.54 274.99 37.27 283.14C37.03 290.2 41.4 307.3 40.05 312.34C38.71 317.37 27.26 285.87 22.42 283.07C17.78 280.39 11.09 283.98 12.32 290.42C13.51 296.63 24.25 311.01 24.54 316.36C24.54 316.36 19.48 312.18 14.9 308.46C14.9 308.46 7.83002 301.01 3.77002 301.48C-0.289984 301.96 -3.19999 309.04 3.58001 315.28C8.18001 319.51 16.95 327.35 19.55 331.54C22.15 335.74 22.63 347.55 30.47 350.75C37.4 353.58 55.97 352.87 63.13 341.33C65.52 339.21 67.94 335.95 68.97 331.02C71.27 320.02 75.57 316.31 80.95 314.88C86.32 313.45 86.46 302.83 79.32 300.65Z" fill="#FBC6A6"/>
<path opacity="0.07" d="M56.0802 306.2C54.8802 297.66 53.5402 277.66 49.1402 275.39C46.0602 273.8 42.1902 274.09 39.7202 276.62C40.4902 276.44 41.3602 276.37 42.3802 276.54C47.0902 277.33 48.1802 287.59 48.8002 293.61C49.4202 299.63 50.2602 312.68 51.8502 315.44C53.4302 318.2 56.2602 320.23 58.6402 313.12C57.6302 314.96 56.7102 310.73 56.0802 306.2Z" fill="black"/>
<path opacity="0.07" d="M40.0401 312.33C38.7001 317.36 27.2601 285.86 22.4101 283.06C19.6701 281.48 16.2401 282.09 14.1201 284.17C15.2801 284.07 16.5901 284.19 17.8301 284.84C21.2001 286.6 26.6201 299.42 27.9701 302.52C29.3201 305.62 33.5201 314.75 35.1701 315.72C36.8101 316.69 39.8701 317.03 40.0401 312.33Z" fill="black"/>
<path opacity="0.07" d="M24.5301 316.35C24.5301 316.35 19.4701 312.17 14.8901 308.45C14.8901 308.45 7.8201 301 3.7601 301.47C2.0201 301.67 0.490098 303.1 -0.149902 305.15C0.820098 304.69 1.97009 304.43 3.25009 304.74C6.86009 305.63 16.9001 316.1 18.1501 317.45C19.4101 318.8 23.4301 321.88 24.8801 320.1C26.3301 318.33 24.7301 317.56 24.5301 316.35Z" fill="black"/>
<path opacity="0.07" d="M44.0303 351.85C51.2603 350.96 59.0503 347.91 63.1303 341.33C65.5203 339.21 67.9403 335.95 68.9703 331.02C71.2703 320.02 75.5703 316.31 80.9503 314.88C84.9303 313.83 86.0303 307.75 83.4503 303.76C84.1203 306.14 82.5903 308.39 80.3003 309.44C77.1703 310.88 68.5303 312.71 65.7503 321.67C62.9703 330.62 57.8803 349.33 44.0303 351.85Z" fill="black"/>
<path opacity="0.5" d="M57.7398 346.94C57.7398 346.94 46.2298 350.11 45.4198 350.23C41.6898 350.81 30.7398 351.74 25.9798 343.93C25.9798 343.93 21.9898 331.76 20.6098 329.86L16.6298 325.03L-0.450195 308" stroke="white" stroke-width="6" stroke-miterlimit="10"/>
<path d="M79.32 300.65C72.42 298.54 62.54 303.85 58.63 313.13C57.63 314.96 56.71 310.73 56.08 306.21C54.88 297.67 53.54 277.67 49.14 275.4C44.33 272.91 37.54 274.99 37.27 283.14C37.03 290.2 41.4 307.3 40.05 312.34C38.71 317.37 27.26 285.87 22.42 283.07C17.78 280.39 11.09 283.98 12.32 290.42C13.51 296.63 24.25 311.01 24.54 316.36C24.54 316.36 19.48 312.18 14.9 308.46C14.9 308.46 7.83002 301.01 3.77002 301.48C-0.289984 301.96 -3.19999 309.04 3.58001 315.28C8.18001 319.51 16.95 327.35 19.55 331.54C22.15 335.74 22.63 347.55 30.47 350.75C37.4 353.58 55.97 352.87 63.13 341.33C65.52 339.21 67.94 335.95 68.97 331.02C71.27 320.02 75.57 316.31 80.95 314.88C86.32 313.45 86.46 302.83 79.32 300.65Z" stroke="#0D2232" stroke-width="6" stroke-miterlimit="10" stroke-linecap="round" stroke-linejoin="round"/>
<path d="M286.5 466.49V483.75C286.5 485.09 285.41 486.18 284.08 486.18H274.71C273.37 486.18 272.28 485.09 272.28 483.75V466.49C272.28 465.15 273.37 464.07 274.71 464.07H284.08C285.41 464.06 286.5 465.15 286.5 466.49Z" fill="#AFCADC"/>
<path d="M284.08 486.34H274.71C273.28 486.34 272.11 485.18 272.11 483.74V466.48C272.11 465.05 273.27 463.89 274.71 463.89H284.08C285.51 463.89 286.67 465.05 286.67 466.48V483.74C286.67 485.18 285.51 486.34 284.08 486.34ZM274.71 464.23C273.47 464.23 272.45 465.24 272.45 466.48V483.74C272.45 484.98 273.46 486 274.71 486H284.08C285.32 486 286.33 484.99 286.33 483.74V466.48C286.33 465.24 285.32 464.23 284.08 464.23H274.71Z" fill="#000072"/>
<g opacity="0.2">
<path d="M286.5 479.91V483.74C286.5 485.08 285.41 486.17 284.08 486.17H274.71C273.37 486.17 272.28 485.08 272.28 483.74V479.91C272.28 481.25 273.37 482.34 274.71 482.34H284.08C285.41 482.34 286.5 481.25 286.5 479.91Z" fill="black"/>
</g>
<g opacity="0.55">
<path d="M286.5 466.49V469.2C286.5 467.86 285.41 466.78 284.08 466.78H274.71C273.37 466.78 272.28 467.87 272.28 469.2V466.49C272.28 465.15 273.37 464.07 274.71 464.07H284.08C285.41 464.06 286.5 465.15 286.5 466.49Z" fill="white"/>
</g>
<path d="M296.95 481.52H286.5V469.25H295.37L296.95 481.52Z" fill="#AFCADC"/>
<path d="M297.15 481.69H286.34V469.08H295.53L297.15 481.69ZM286.67 481.35H296.76L295.22 469.42H286.67V481.35Z" fill="#000072"/>
<path d="M346.11 479.71C345.96 481.46 343.9 482.33 342.57 481.18C335.1 474.76 324.06 478.38 321.81 487.54C321.43 489.07 320.09 490.15 318.52 490.15H301.05C299.35 490.15 297.91 488.89 297.7 487.2L296.97 481.52L295.39 469.25L294.86 465.11C294.6 463.09 296.18 461.29 298.22 461.29H326.87C338.46 461.3 346.88 470.25 346.11 479.71Z" fill="#AFCADC"/>
<path d="M318.51 490.32H301.04C299.26 490.32 297.74 488.99 297.52 487.22L294.67 465.13C294.54 464.12 294.85 463.1 295.53 462.33C296.2 461.56 297.18 461.12 298.2 461.12H326.85C332.68 461.12 338.15 463.43 341.86 467.45C345.08 470.95 346.66 475.3 346.29 479.71C346.22 480.59 345.66 481.35 344.85 481.68C344.03 482.02 343.14 481.87 342.47 481.29C339 478.31 334.43 477.34 330.22 478.68C326.1 480 323.02 483.32 321.98 487.56C321.57 489.19 320.15 490.32 318.51 490.32ZM298.19 461.47C297.27 461.47 296.39 461.87 295.78 462.56C295.17 463.25 294.89 464.18 295.01 465.09L297.86 487.18C298.07 488.78 299.44 489.98 301.05 489.98H318.52C320 489.98 321.29 488.96 321.65 487.5C322.72 483.14 325.88 479.73 330.11 478.37C334.43 476.99 339.13 477.99 342.68 481.04C343.25 481.53 344.01 481.66 344.71 481.37C345.42 481.08 345.88 480.45 345.94 479.69C346.29 475.37 344.75 471.11 341.59 467.69C337.95 463.74 332.57 461.47 326.83 461.47H298.19Z" fill="#000072"/>
<g opacity="0.2">
<path d="M346.11 479.71C345.96 481.46 343.9 482.33 342.57 481.18C335.1 474.76 324.06 478.38 321.81 487.54C321.43 489.07 320.09 490.15 318.52 490.15H301.05C299.35 490.15 297.91 488.89 297.7 487.2L297.52 485.84C297.97 486.06 298.46 486.18 298.99 486.18H316.46C318.03 486.18 319.38 485.09 319.75 483.57C322 474.41 333.04 470.78 340.51 477.21C341.84 478.36 343.9 477.49 344.05 475.74C344.23 473.58 343.92 471.44 343.21 469.43C345.32 472.44 346.41 476.04 346.11 479.71Z" fill="black"/>
</g>
<g opacity="0.55">
<path d="M342.04 467.93C338.7 465.28 334.28 463.61 329.27 463.61H300.62C298.58 463.61 297 465.4 297.26 467.43L297.79 471.57L299.37 483.84L300.1 489.52C300.12 489.71 300.16 489.89 300.22 490.06C298.89 489.74 297.86 488.62 297.67 487.21L296.94 481.53L295.36 469.26L294.83 465.12C294.57 463.1 296.15 461.3 298.19 461.3H326.84C333.18 461.3 338.58 463.96 342.04 467.93Z" fill="white"/>
</g>
<g opacity="0.55">
<path d="M286.5 469.19H272.85V472.97H286.5V469.19Z" fill="white"/>
</g>
<path d="M318.21 490.15H302.13V531.19H318.21V490.15Z" fill="#435F84" stroke="#0D2232" stroke-width="4" stroke-miterlimit="10" stroke-linecap="round" stroke-linejoin="round"/>
<g opacity="0.2">
<path d="M302.17 497.35C302.64 497.36 303.06 497.53 303.45 497.74C303.84 497.95 304.2 498.22 304.54 498.51C305.22 499.08 305.84 499.72 306.35 500.46C307.37 501.92 307.95 503.57 308.97 504.86C309.47 505.5 310.1 506.02 310.82 506.41C311.54 506.79 312.34 507.05 313.15 507.22C313.97 507.39 314.81 507.49 315.66 507.57C316.08 507.61 316.51 507.64 316.94 507.65C317.37 507.68 317.81 507.74 318.21 508.02C318.27 508.06 318.28 508.14 318.24 508.2C318.23 508.22 318.21 508.23 318.19 508.24H318.18C317.72 508.44 317.31 508.4 316.88 508.37C316.46 508.31 316.03 508.28 315.6 508.24C314.74 508.16 313.87 508.06 313.01 507.88C312.15 507.7 311.29 507.43 310.5 507.01C309.71 506.59 308.99 505.99 308.43 505.28C307.31 503.86 306.74 502.2 305.78 500.85C305.3 500.18 304.74 499.56 304.08 499.06C303.75 498.81 303.41 498.58 303.06 498.35C302.72 498.12 302.37 497.89 302.06 497.56C302.01 497.51 302.01 497.44 302.06 497.39C302.11 497.36 302.14 497.35 302.17 497.35Z" fill="#371A45"/>
<path d="M318.23 504.82C317.35 505.3 316.32 505.32 315.35 505.18C314.38 505.04 313.42 504.8 312.54 504.35C312.09 504.14 311.68 503.86 311.29 503.56C310.91 503.24 310.54 502.9 310.25 502.49C309.62 501.7 309.29 500.71 309.1 499.77C308.91 498.82 308.82 497.89 308.56 497.03C308.43 496.6 308.26 496.2 308.02 495.83C307.91 495.64 307.77 495.47 307.64 495.3C307.49 495.14 307.35 494.97 307.18 494.83C306.53 494.23 305.71 493.82 304.85 493.61C304.42 493.5 303.97 493.46 303.54 493.49C303.1 493.52 302.69 493.59 302.19 493.52H302.18C302.16 493.52 302.13 493.51 302.1 493.5L302.08 493.49C302.01 493.47 301.97 493.41 301.99 493.34C302 493.32 302.01 493.3 302.02 493.28C302.05 493.25 302.07 493.23 302.1 493.21H302.09C302.49 492.87 303.02 492.76 303.52 492.76C304.02 492.78 304.52 492.81 305.01 492.94C305.98 493.17 306.9 493.64 307.64 494.31C308.39 494.96 308.95 495.88 309.22 496.82C309.5 497.77 309.59 498.72 309.77 499.62C309.95 500.52 310.24 501.37 310.79 502.06C311.05 502.42 311.38 502.72 311.72 503.01C312.08 503.28 312.45 503.53 312.86 503.72C313.66 504.12 314.55 504.37 315.45 504.46C315.67 504.49 315.9 504.48 316.13 504.5C316.36 504.49 316.58 504.51 316.81 504.5C317.26 504.51 317.71 504.46 318.21 504.57H318.22C318.28 504.58 318.32 504.65 318.31 504.71C318.28 504.77 318.26 504.8 318.23 504.82Z" fill="#371A45"/>
<path d="M318.24 500.12C317.98 500.37 317.66 500.48 317.33 500.53C317.17 500.56 317 500.57 316.83 500.56C316.66 500.55 316.5 500.53 316.34 500.52C315.69 500.43 315.05 500.26 314.46 499.98C313.28 499.43 312.26 498.55 311.55 497.47C310.83 496.39 310.42 495.13 310.27 493.86C310.2 493.22 310.19 492.58 310.24 491.95C310.26 491.63 310.31 491.32 310.34 491C310.37 490.68 310.44 490.37 310.68 490.1V490.12C310.72 490.08 310.75 490.03 310.8 490C310.87 489.95 310.96 489.97 311.01 490.03L311.02 490.04V490.05C311.05 490.1 311.06 490.14 311.08 490.18V490.2C311.17 490.53 311.11 490.82 311.04 491.11C310.97 491.4 310.94 491.7 310.92 492C310.87 492.6 310.88 493.19 310.95 493.79C311.08 494.97 311.47 496.12 312.12 497.1C312.77 498.08 313.69 498.88 314.75 499.37C315.28 499.61 315.84 499.79 316.42 499.82C316.71 499.83 316.99 499.84 317.28 499.83C317.57 499.83 317.85 499.82 318.19 499.9C318.26 499.92 318.3 499.99 318.28 500.06C318.26 500.09 318.25 500.11 318.24 500.12Z" fill="#371A45"/>
<path d="M314.16 490.21C314.21 490.47 314.15 490.67 314.08 490.86C314.01 491.05 313.92 491.22 313.84 491.4C313.68 491.76 313.58 492.13 313.52 492.51C313.42 493.25 313.57 494.04 313.99 494.63C314.2 494.92 314.48 495.15 314.8 495.29C315.12 495.43 315.49 495.49 315.86 495.47C316.23 495.46 316.61 495.38 316.97 495.26C317.15 495.21 317.33 495.1 317.5 495C317.68 494.91 317.86 494.84 318.15 494.96H318.16C318.24 494.99 318.28 495.07 318.26 495.15C318.19 495.45 317.99 495.56 317.8 495.65C317.7 495.69 317.6 495.72 317.5 495.77C317.4 495.82 317.3 495.86 317.2 495.9C316.78 496.04 316.34 496.14 315.89 496.15C315.44 496.17 314.97 496.1 314.53 495.91C314.1 495.72 313.71 495.4 313.44 495.02C312.9 494.25 312.73 493.3 312.85 492.41C312.91 491.97 313.05 491.54 313.19 491.13C313.26 490.92 313.34 490.72 313.46 490.54C313.57 490.36 313.72 490.19 313.97 490.1C314.05 490.07 314.13 490.11 314.16 490.19C314.15 490.19 314.16 490.2 314.16 490.21Z" fill="#371A45"/>
<path d="M302.15 503.26C302.7 503.19 303.26 503.37 303.72 503.65C304.19 503.92 304.6 504.29 304.96 504.68C305.68 505.47 306.26 506.34 306.81 507.19C307.36 508.04 307.92 508.88 308.61 509.56C309.3 510.24 310.16 510.73 311.06 511.18C311.96 511.63 312.92 512.05 313.79 512.68C314.65 513.31 315.38 514.1 315.96 514.98C316.55 515.85 317 516.79 317.4 517.74C317.6 518.22 317.79 518.69 317.99 519.16C318.18 519.64 318.35 520.12 318.3 520.68C318.29 520.75 318.23 520.8 318.17 520.79C318.14 520.79 318.11 520.77 318.09 520.76C317.68 520.37 317.49 519.89 317.31 519.42C317.15 518.94 316.96 518.47 316.77 518C316.38 517.07 315.94 516.17 315.39 515.35C314.85 514.52 314.17 513.8 313.39 513.22C312.6 512.65 311.68 512.24 310.76 511.78C309.84 511.33 308.9 510.8 308.13 510.04C307.37 509.29 306.79 508.41 306.23 507.56C305.67 506.71 305.14 505.86 304.45 505.16C304.1 504.82 303.73 504.51 303.34 504.24C302.95 503.96 302.55 503.75 302.1 503.48C302.04 503.45 302.02 503.37 302.06 503.32C302.08 503.29 302.12 503.27 302.15 503.26Z" fill="#371A45"/>
<path d="M313.99 510.07C314.17 509.97 314.3 509.99 314.41 510.03C314.52 510.07 314.61 510.14 314.71 510.21C314.9 510.35 315.1 510.46 315.29 510.59C315.67 510.85 316.05 511.12 316.41 511.4C316.77 511.68 317.13 511.98 317.47 512.29C317.64 512.45 317.81 512.61 317.97 512.77C318.05 512.85 318.13 512.94 318.23 513C318.31 513.08 318.39 513.17 318.29 513.42C318.26 513.5 318.2 513.55 318.13 513.57C317.88 513.65 317.79 513.58 317.72 513.5C317.66 513.4 317.58 513.33 317.5 513.25C317.34 513.09 317.18 512.94 317.02 512.79C316.69 512.49 316.35 512.2 316 511.93C315.65 511.66 315.29 511.4 314.92 511.15C314.73 511.03 314.55 510.9 314.35 510.8C314.25 510.75 314.15 510.71 314.06 510.63C313.97 510.56 313.9 510.46 313.89 510.26C313.88 510.18 313.92 510.11 313.99 510.07Z" fill="#371A45"/>
<path d="M302.2 507.77C302.78 508.01 303.2 508.54 303.49 509.07C303.78 509.61 303.96 510.19 304.12 510.74C304.28 511.3 304.44 511.84 304.66 512.35C304.87 512.86 305.14 513.34 305.49 513.73C305.84 514.12 306.29 514.39 306.79 514.57C307.29 514.74 307.85 514.82 308.41 514.87C308.98 514.92 309.56 514.94 310.15 515.02C310.74 515.1 311.35 515.23 311.92 515.51C312.49 515.79 312.99 516.21 313.36 516.7C313.74 517.19 314.01 517.75 314.23 518.3C314.66 519.42 314.88 520.57 315.18 521.67C315.47 522.77 315.89 523.82 316.45 524.8C316.72 525.29 317.03 525.77 317.38 526.21C317.72 526.66 318.06 527.1 318.28 527.68C318.3 527.74 318.27 527.81 318.21 527.84C318.18 527.85 318.14 527.85 318.12 527.84C317.54 527.58 317.15 527.12 316.8 526.64C316.47 526.15 316.15 525.65 315.86 525.13C315.28 524.1 314.83 522.99 314.53 521.85C314.22 520.72 314 519.59 313.6 518.55C313.4 518.03 313.15 517.54 312.82 517.12C312.5 516.7 312.09 516.35 311.61 516.12C310.66 515.65 309.5 515.65 308.34 515.55C307.75 515.5 307.15 515.42 306.56 515.22C305.97 515.02 305.4 514.67 304.98 514.19C304.13 513.24 303.8 512.03 303.44 510.95C303.26 510.4 303.07 509.88 302.85 509.38C302.62 508.88 302.37 508.43 302.05 507.94C302.01 507.89 302.03 507.81 302.08 507.78C302.12 507.76 302.16 507.76 302.2 507.77Z" fill="#371A45"/>
<path d="M302.16 517.51C302.61 517.45 303 517.46 303.42 517.47L304.67 517.5C305.51 517.5 306.41 517.47 307.29 517.63C307.73 517.71 308.18 517.83 308.6 518.03C309.02 518.23 309.42 518.51 309.73 518.88C310.05 519.24 310.26 519.68 310.4 520.12C310.54 520.56 310.6 521.01 310.64 521.45C310.7 522.34 310.68 523.18 310.74 524.02C310.79 524.86 310.88 525.7 311.04 526.52C311.2 527.34 311.44 528.14 311.77 528.9C311.94 529.28 312.12 529.65 312.36 529.98C312.58 530.33 312.8 530.66 312.89 531.13C312.9 531.2 312.86 531.27 312.79 531.28C312.77 531.28 312.74 531.28 312.72 531.27C312.25 531.1 311.97 530.73 311.74 530.35C311.53 529.96 311.32 529.57 311.14 529.16C310.79 528.35 310.54 527.5 310.37 526.64C310.2 525.78 310.11 524.92 310.05 524.05C309.99 523.19 310.01 522.32 309.95 521.5C309.89 520.68 309.7 519.88 309.2 519.32C308.71 518.74 307.95 518.43 307.16 518.3C306.36 518.16 305.53 518.16 304.67 518.2C304.24 518.22 303.8 518.23 303.36 518.17C302.92 518.12 302.47 518.01 302.09 517.73C302.04 517.69 302.03 517.61 302.07 517.56C302.09 517.53 302.12 517.51 302.16 517.51Z" fill="#371A45"/>
<path d="M313.38 524.98C313.59 525.06 313.68 525.18 313.74 525.31C313.81 525.44 313.85 525.57 313.88 525.71C313.96 525.98 314.08 526.25 314.18 526.51C314.4 527.04 314.63 527.56 314.89 528.06C315.15 528.57 315.42 529.07 315.72 529.56C315.87 529.8 316.02 530.04 316.18 530.28C316.26 530.4 316.34 530.52 316.44 530.62C316.53 530.73 316.6 530.86 316.48 531.11C316.45 531.19 316.37 531.23 316.3 531.24C316.02 531.26 315.93 531.15 315.85 531.02C315.79 530.88 315.71 530.76 315.62 530.64C315.46 530.39 315.3 530.15 315.15 529.89C314.85 529.39 314.56 528.87 314.3 528.35C314.04 527.83 313.79 527.29 313.57 526.75C313.45 526.48 313.36 526.2 313.24 525.93C313.18 525.8 313.12 525.66 313.09 525.52C313.06 525.37 313.06 525.22 313.18 525.03C313.21 524.98 313.3 524.95 313.38 524.98Z" fill="#371A45"/>
<path d="M302.11 521.43C302.37 521.2 302.66 521.11 302.96 521.05C303.26 520.99 303.57 520.99 303.89 521.02C304.51 521.06 305.15 521.18 305.73 521.47C306.31 521.76 306.8 522.2 307.17 522.7C307.54 523.21 307.82 523.77 308 524.36C308.38 525.54 308.41 526.8 308.19 528C308.08 528.6 307.91 529.19 307.68 529.75L307.32 530.59C307.19 530.86 307.01 531.12 306.66 531.25C306.59 531.28 306.5 531.24 306.48 531.16C306.48 531.15 306.48 531.14 306.47 531.13V531.12C306.41 530.74 306.55 530.51 306.68 530.25C306.83 530.01 306.95 529.75 307.05 529.49C307.26 528.97 307.42 528.42 307.52 527.87C307.72 526.77 307.69 525.62 307.35 524.56C307.02 523.51 306.37 522.54 305.41 522.06C304.94 521.82 304.4 521.7 303.86 521.7C303.59 521.7 303.31 521.73 303.03 521.73C302.75 521.74 302.47 521.74 302.15 521.63C302.08 521.61 302.05 521.53 302.07 521.46C302.08 521.46 302.09 521.45 302.11 521.43Z" fill="#371A45"/>
<path d="M302.1 525.13C302.22 524.92 302.42 524.84 302.61 524.81C302.8 524.78 303 524.8 303.18 524.85C303.55 524.94 303.92 525.09 304.22 525.35C304.82 525.86 305.12 526.63 305.08 527.4C305.06 527.78 304.93 528.18 304.73 528.49C304.53 528.81 304.27 529.08 304 529.31C303.73 529.54 303.44 529.73 303.16 529.91C303.02 530 302.87 530.09 302.75 530.2C302.61 530.29 302.46 530.37 302.2 530.25C302.12 530.22 302.08 530.14 302.08 530.06C302.1 529.76 302.23 529.67 302.37 529.59C302.52 529.52 302.66 529.44 302.8 529.35C303.07 529.17 303.34 528.99 303.57 528.8C304.05 528.41 304.39 527.93 304.41 527.37C304.44 526.82 304.21 526.23 303.79 525.88C303.58 525.71 303.33 525.58 303.05 525.55C302.91 525.54 302.78 525.54 302.64 525.52C302.5 525.51 302.36 525.48 302.17 525.35L302.16 525.34C302.08 525.3 302.06 525.2 302.1 525.13Z" fill="#371A45"/>
</g>
<g opacity="0.55">
<path d="M304.52 531.19H302.13V495.81H302.47C303.6 495.81 304.52 496.73 304.52 497.86V531.19Z" fill="white"/>
</g>
<g opacity="0.3">
<path d="M318.21 490.15V531.19H314.4V499.66C314.4 497.56 312.7 495.86 310.6 495.86H302.13V490.15H318.21Z" fill="#371A45"/>
</g>
<path d="M321.93 534.58V575.87C321.93 577.74 320.41 579.25 318.55 579.25H301.96C301.4 579.25 300.87 579.11 300.41 578.87C299.32 578.31 298.58 577.17 298.58 575.86V534.57C298.58 532.7 300.1 531.19 301.96 531.19H318.55C320.41 531.19 321.93 532.71 321.93 534.58Z" fill="#F9DC1B"/>
<path d="M318.54 579.42H301.95C301.38 579.42 300.82 579.28 300.32 579.03L300.23 578.98C299.1 578.36 298.4 577.18 298.4 575.87V534.58C298.4 532.62 299.99 531.03 301.95 531.03H318.54C320.5 531.03 322.09 532.62 322.09 534.58V575.87C322.1 577.83 320.5 579.42 318.54 579.42ZM300.58 578.77C301.01 578.97 301.48 579.08 301.96 579.08H318.55C320.32 579.08 321.77 577.64 321.77 575.86V534.57C321.77 532.8 320.33 531.35 318.55 531.35H301.96C300.19 531.35 298.74 532.79 298.74 534.57V575.86C298.74 577.07 299.41 578.16 300.48 578.72L300.58 578.77Z" fill="#000072"/>
<path d="M321.93 534.58V575.87C321.93 577.74 320.41 579.25 318.55 579.25H313.04C314.91 579.25 316.42 577.73 316.42 575.87V534.58C316.42 532.71 314.9 531.2 313.04 531.2H318.55C320.41 531.19 321.93 532.71 321.93 534.58Z" fill="#E89F02"/>
<path d="M318.54 579.42H313.03V579.08C314.8 579.08 316.25 577.64 316.25 575.86V534.57C316.25 532.8 314.81 531.35 313.03 531.35V531.01H318.54C320.5 531.01 322.09 532.6 322.09 534.56V575.85C322.1 577.83 320.5 579.42 318.54 579.42ZM314.55 579.09H318.54C320.31 579.09 321.76 577.65 321.76 575.87V534.58C321.76 532.81 320.32 531.36 318.54 531.36H314.55C315.76 531.93 316.59 533.16 316.59 534.58V575.87C316.59 577.29 315.76 578.52 314.55 579.09Z" fill="#E89F02"/>
<g opacity="0.55">
<path d="M302.97 578.88C303.43 579.12 303.96 579.26 304.52 579.26H301.96C301.4 579.26 300.87 579.12 300.41 578.88C299.32 578.32 298.58 577.18 298.58 575.87V534.58C298.58 532.71 300.1 531.2 301.96 531.2H304.52C302.65 531.2 301.14 532.72 301.14 534.58V575.87C301.13 577.18 301.88 578.32 302.97 578.88Z" fill="white"/>
</g>
<g opacity="0.2">
<path d="M288.76 469.25L291.01 481.52H286.5V469.25H288.76Z" fill="black"/>
</g>
<g opacity="0.2">
<path d="M312 469.8C312 471.55 309.79 471.08 307.06 471.08C304.33 471.08 302.12 471.55 302.12 469.8C302.12 468.05 304.33 466.63 307.06 466.63C309.79 466.63 312 468.05 312 469.8Z" fill="white"/>
</g>
<g opacity="0.2">
<path d="M308.76 551.39C308.76 554.66 307.38 557.31 305.68 557.31C303.98 557.31 303.95 554.66 303.95 551.39C303.95 548.12 303.98 545.47 305.68 545.47C307.38 545.46 308.76 548.12 308.76 551.39Z" fill="white"/>
</g>
<path d="M286.5 466.49V483.75C286.5 485.09 285.41 486.18 284.08 486.18H274.71C273.37 486.18 272.28 485.09 272.28 483.75V466.49C272.28 465.15 273.37 464.07 274.71 464.07H284.08C285.41 464.06 286.5 465.15 286.5 466.49Z" stroke="#0D2232" stroke-width="4" stroke-miterlimit="10" stroke-linecap="round" stroke-linejoin="round"/>
<path d="M296.95 481.52H286.5V469.25H295.37L296.95 481.52Z" stroke="#0D2232" stroke-width="4" stroke-miterlimit="10" stroke-linecap="round" stroke-linejoin="round"/>
<path d="M346.11 479.71C345.96 481.46 343.9 482.33 342.57 481.18C335.1 474.76 324.06 478.38 321.81 487.54C321.43 489.07 320.09 490.15 318.52 490.15H301.05C299.35 490.15 297.91 488.89 297.7 487.2L296.97 481.52L295.39 469.25L294.86 465.11C294.6 463.09 296.18 461.29 298.22 461.29H326.87C338.46 461.3 346.88 470.25 346.11 479.71Z" stroke="#0D2232" stroke-width="4" stroke-miterlimit="10" stroke-linecap="round" stroke-linejoin="round"/>
<path d="M318.21 490.15H302.13V531.19H318.21V490.15Z" stroke="#0D2232" stroke-width="4" stroke-miterlimit="10" stroke-linecap="round" stroke-linejoin="round"/>
<path d="M321.93 534.58V575.87C321.93 577.74 320.41 579.25 318.55 579.25H301.96C301.4 579.25 300.87 579.11 300.41 578.87C299.32 578.31 298.58 577.17 298.58 575.86V534.57C298.58 532.7 300.1 531.19 301.96 531.19H318.55C320.41 531.19 321.93 532.71 321.93 534.58Z" stroke="#0D2232" stroke-width="4" stroke-miterlimit="10" stroke-linecap="round" stroke-linejoin="round"/>
<path d="M349.54 571.32C349.53 571.27 349.53 571.22 349.53 571.17L351.34 487.11C351.35 486.47 351.88 485.97 352.52 485.98L366.98 486.29C367.29 486.3 367.58 486.42 367.79 486.65C367.97 486.83 368.08 487.07 368.1 487.32C368.11 487.37 368.11 487.42 368.11 487.47L366.3 571.53C366.29 572.17 365.76 572.67 365.12 572.66L350.66 572.35C350.35 572.34 350.06 572.22 349.85 571.99C349.67 571.8 349.57 571.57 349.54 571.32Z" fill="#C14854"/>
<path d="M355.124 487.191L353.333 571.254L362.591 571.451L364.382 487.388L355.124 487.191Z" fill="#E8656D"/>
<path opacity="0.5" d="M354.017 483.509L352.143 572.332L353.282 572.356L355.157 483.533L354.017 483.509Z" fill="white"/>
<path d="M346.78 489.24C345.99 488.65 345.23 487.99 344.52 487.29C340.3 483.14 337.94 477.59 337.89 471.66C337.84 465.73 340.1 460.15 344.26 455.93C345.34 454.83 346.53 453.85 347.81 453C348.19 452.75 348.68 452.74 349.07 452.99C349.1 453.01 349.12 453.02 349.14 453.04C349.48 453.29 349.65 453.71 349.59 454.13L347.85 465.74L360.8 472.2L370.95 461.88L365.88 452.12C365.66 451.7 365.72 451.19 366.03 450.83C366.34 450.47 366.83 450.34 367.28 450.49C369.47 451.24 371.51 452.32 373.37 453.71C374.16 454.3 374.92 454.96 375.63 455.65C379.85 459.8 382.21 465.35 382.26 471.28C382.31 477.2 380.05 482.79 375.89 487.01C368.12 494.92 355.61 495.87 346.78 489.24Z" fill="#E8656D"/>
<path d="M366.9 451.6L367.7 453.14C368.94 453.92 370.11 454.84 371.2 455.91C379.48 464.05 379.59 477.36 371.45 485.64C366.95 490.22 360.86 492.29 354.92 491.86C361.92 493.62 369.64 491.74 375.06 486.22C383.2 477.94 383.09 464.63 374.81 456.49C372.49 454.22 369.78 452.58 366.9 451.6Z" fill="#C14854"/>
<path opacity="0.5" d="M344.96 482.81C352.91 492.97 363.48 489.5 363.48 489.5C363.48 489.5 355.62 487.68 349.79 481.4C343.7 474.85 341.41 467.89 341.41 467.89C341.41 467.89 339.2 475.45 344.96 482.81Z" fill="white"/>
<path opacity="0.5" d="M346.85 568.99C349.81 565.09 352.79 565.79 352.79 565.79C352.79 565.79 348.89 569.21 346.72 573.92C344.68 578.35 344.98 585.53 344.98 585.53C344.98 585.53 342.98 580.71 343.26 578.27C343.73 574.29 344.86 571.62 346.85 568.99Z" fill="white"/>
<path d="M349.7 563.18L351.24 491.81" stroke="#0D2232" stroke-width="4" stroke-miterlimit="10" stroke-linecap="round" stroke-linejoin="round"/>
<path d="M368.01 492.2L366.47 563.57" stroke="#0D2232" stroke-width="4" stroke-miterlimit="10" stroke-linecap="round" stroke-linejoin="round"/>
<path d="M346.78 489.24C345.99 488.65 345.23 487.99 344.52 487.29C340.3 483.14 337.94 477.59 337.89 471.66C337.84 465.73 340.1 460.15 344.26 455.93C345.34 454.83 346.53 453.85 347.81 453C348.19 452.75 348.68 452.74 349.07 452.99C349.1 453.01 349.12 453.02 349.14 453.04C349.48 453.29 349.65 453.71 349.59 454.13L347.85 465.74L360.8 472.2L370.95 461.88L365.88 452.12C365.66 451.7 365.72 451.19 366.03 450.83C366.34 450.47 366.83 450.34 367.28 450.49C369.47 451.24 371.51 452.32 373.37 453.71C374.16 454.3 374.92 454.96 375.63 455.65C379.85 459.8 382.21 465.35 382.26 471.28C382.31 477.2 380.05 482.79 375.89 487.01C368.12 494.92 355.61 495.87 346.78 489.24Z" stroke="#0D2232" stroke-width="4" stroke-miterlimit="10" stroke-linecap="round" stroke-linejoin="round"/>
<path d="M284.53 519.93V578.09C284.53 578.09 296.1 595.45 318.6 595.45C341.1 595.45 357.17 595.45 357.17 595.45L363.92 586.77C363.92 586.77 369.38 545.95 370.03 530.2C370.03 530.2 308.32 531.85 284.53 519.93Z" fill="#FEC400"/>
<path d="M289.79 522.15V565.81C289.79 573.24 293.99 580.05 300.66 583.31C311.63 588.68 331.64 593.8 363.92 586.78L357.17 595.46L315.22 595.7C315.22 595.7 293.52 592.89 284.52 578.1V519.94L289.79 522.15Z" fill="#E89F02"/>
<path d="M284.53 519.93V573.14C284.53 576.76 285.99 580.22 288.55 582.78C293.7 587.92 303.78 595.45 318.6 595.45H350.1C354.56 595.45 358.77 593.39 361.51 589.87C363.09 587.84 364.1 585.42 364.43 582.87C365.8 572.28 369.5 542.99 370.02 530.2C370.03 530.2 308.32 531.85 284.53 519.93Z" stroke="#0D2232" stroke-width="4" stroke-miterlimit="10" stroke-linecap="round" stroke-linejoin="round"/>
<path d="M284.53 535.02C284.53 535.02 304.23 551.92 368.51 545.49" stroke="#0D2232" stroke-width="4" stroke-miterlimit="10" stroke-linecap="round" stroke-linejoin="round"/>
</g>
<defs>
<clipPath id="clip0_344_6829">
<rect width="458" height="728" fill="white"/>
</clipPath>
</defs>
</svg>
