<svg width="1000" height="1000" viewBox="0 0 1000 1000" fill="none" xmlns="http://www.w3.org/2000/svg">
<path d="M401.195 795.609L474.625 795.609L474.625 774.109L401.195 774.109L401.195 795.609Z" fill="#435F84" stroke="#0D2232" stroke-width="6" stroke-miterlimit="10" stroke-linecap="round" stroke-linejoin="round"/>
<path d="M612.1 734.45V775.39L631.39 795.63L650.03 775.39L650 674.57H634.89L612.1 734.45Z" fill="#AFCADC"/>
<path d="M631.07 771.47C635.063 771.47 638.3 768.233 638.3 764.24C638.3 760.247 635.063 757.01 631.07 757.01C627.077 757.01 623.84 760.247 623.84 764.24C623.84 768.233 627.077 771.47 631.07 771.47Z" stroke="#0D2232" stroke-width="4" stroke-miterlimit="10" stroke-linecap="round" stroke-linejoin="round"/>
<path opacity="0.2" d="M650.03 675.66H643.39V771.47L631.46 783.4L619.03 770.97V681.92L612.1 682.38V775.39L631.87 795.15L650.83 776.19L650.03 675.66Z" fill="black"/>
<path d="M612.1 734.45V775.39L631.39 795.63L650.03 775.39V675.66H634.92L612.1 734.45Z" stroke="#0D2232" stroke-width="4" stroke-miterlimit="10" stroke-linecap="round" stroke-linejoin="round"/>
<path d="M631.97 284.08C631.97 284.08 625.99 289.43 599.57 291.63C573.14 293.83 387.18 299.42 387.18 299.42L375.73 293.83C375.73 293.83 349.42 292.38 345.69 284.08C341.96 275.78 435.76 242.87 435.76 242.87L554.27 239.25L581.33 250.02L631.97 284.08Z" fill="#CFB300"/>
<path d="M631.97 284.08C631.97 284.08 625.99 289.43 599.57 291.63C573.14 293.83 387.18 299.42 387.18 299.42L375.73 293.83C375.73 293.83 349.42 292.38 345.69 284.08C341.96 275.78 435.76 242.87 435.76 242.87L554.27 239.25L581.33 250.02L631.97 284.08Z" stroke="#0D2232" stroke-width="6" stroke-miterlimit="10" stroke-linecap="round" stroke-linejoin="round"/>
<path d="M376.78 332.85C376.78 332.85 346.59 336.47 350.36 371.39C354.14 406.31 397.62 399.02 397.62 399.02L393.88 348.89L376.78 332.85Z" fill="#FBC6A6" stroke="#0D2232" stroke-width="6" stroke-miterlimit="10"/>
<path d="M608.38 332.85C608.38 332.85 631.35 336.63 633.08 362.11C634.81 387.59 606.47 410.1 584.3 401.2C562.13 392.3 578.49 354.24 578.49 354.24L608.38 332.85Z" fill="#FBC6A6" stroke="#0D2232" stroke-width="6" stroke-miterlimit="10"/>
<path opacity="0.4" d="M606.33 347.95C606.33 347.95 618.26 354.27 613.17 368.01C606.05 387.26 591.54 381.92 591.54 381.92L595.94 358.01L606.33 347.95Z" fill="black"/>
<path opacity="0.4" d="M372.4 347.95C372.4 347.95 360.47 354.27 365.56 368.01C372.68 387.26 387.19 381.92 387.19 381.92L382.79 358.01L372.4 347.95Z" fill="black"/>
<path d="M594.75 336.62V365.29C594.75 365.29 594.49 370.26 592.67 377.95C588.59 395.19 576.68 426.11 542.31 445.47C537.42 448.22 532.5 450.51 527.57 452.37C513.25 457.78 498.91 459.61 485.24 458.85C455.79 457.21 429.53 443.54 413.64 427.85C387.84 402.37 386.27 363.53 386.27 363.53V309.25L416.79 272.44L573.54 274.33L592.86 296.98L594.75 336.62Z" fill="#FBC6A6"/>
<path opacity="0.5" d="M433.26 431.89C453.58 446.55 472.63 454.04 487.25 457.86C457.8 456.22 431.54 442.55 415.65 426.86C389.85 401.38 388.28 362.54 388.28 362.54V352.94L396.74 346.32C396.73 346.32 389.22 400.11 433.26 431.89Z" fill="white"/>
<path opacity="0.5" d="M589.67 377.95C585.59 395.19 573.68 426.11 539.31 445.47C534.42 448.22 529.5 450.51 524.57 452.37C542.06 438.74 570.53 413.61 579.26 388.63C582.22 380.18 585.85 377.31 589.67 377.95Z" fill="white"/>
<path d="M631.97 284.08C631.97 284.08 620.96 279.99 606.17 279.99C591.38 279.99 371.33 279.99 371.33 279.99C371.33 279.99 351.35 279.2 345.69 284.08V270.4C345.69 265.1 349.99 260.8 355.29 260.8H622.38C627.68 260.8 631.98 265.1 631.98 270.4V284.08H631.97Z" fill="#F9DC1B"/>
<path d="M616.75 260.8C616.75 260.91 616.75 260.96 616.75 260.96H488.7V260.8H360.66C360.66 260.8 360.66 260.77 360.66 260.72C360.62 259.67 360.21 249.23 360.66 244.45C361.13 239.41 365.22 239.26 365.22 239.26C365.22 239.26 372.3 176.5 443.71 155.74C443.71 155.74 443.08 143.15 454.72 141.9C466.36 140.65 488.7 139.07 488.7 139.07V139.23C488.7 139.23 511.03 140.8 522.67 142.06C534.31 143.32 533.68 155.9 533.68 155.9C605.09 176.66 612.17 239.42 612.17 239.42C612.17 239.42 616.26 239.58 616.73 244.61C617.18 249.28 616.8 259.41 616.75 260.8Z" fill="#F9DC1B"/>
<path opacity="0.73" d="M616.75 260.8H605.87C605.87 260.8 600.36 196.62 533.83 164.53L533.79 157.27C533.79 157.27 481.62 140.93 443.6 158.55L444.08 168.94C444.08 168.94 385.03 185.29 370.56 260.48L360.67 260.71C360.63 259.66 360.22 249.22 360.67 244.44C361.14 239.4 365.23 239.25 365.23 239.25C365.23 239.25 372.31 176.49 443.72 155.73C443.72 155.73 443.09 143.14 454.73 141.89C466.37 140.64 488.71 139.06 488.71 139.06V139.22C488.71 139.22 511.04 140.79 522.68 142.05C534.32 143.31 533.69 155.89 533.69 155.89C605.1 176.65 612.18 239.41 612.18 239.41C612.18 239.41 616.27 239.57 616.74 244.6C617.18 249.28 616.8 259.41 616.75 260.8Z" fill="white"/>
<path d="M616.74 244.6C616.27 239.57 612.18 239.41 612.18 239.41C612.18 239.41 605.1 176.65 533.69 155.89C533.69 155.89 534.32 143.31 522.68 142.05C511.04 140.79 488.7 139.22 488.7 139.22V139.06C488.7 139.06 466.36 140.63 454.72 141.89C443.08 143.15 443.71 155.73 443.71 155.73C372.3 176.49 365.22 239.25 365.22 239.25C365.22 239.25 361.13 239.41 360.66 244.44C360.19 249.47 360.66 260.8 360.66 260.8H488.7V260.96H616.74C616.74 260.96 617.21 249.64 616.74 244.6Z" stroke="#0D2232" stroke-width="6" stroke-miterlimit="10" stroke-linecap="round" stroke-linejoin="round"/>
<path d="M533.07 468.86H563.39V634.54H413.65V468.86H533.07Z" fill="white"/>
<path d="M536.86 475.67H443.32V576.55H536.86V475.67Z" fill="#F9DC1B"/>
<path d="M563.4 597.73H413.65V634.54H563.4V597.73Z" fill="#F9DC1B"/>
<path d="M514.84 456.8C514.84 456.8 485.46 463.09 465.44 456.8L458.52 487.74L476.77 494.55C476.77 494.55 488.84 499.58 503.52 494.55C518.2 489.52 522.82 474.84 522.82 474.84L514.84 456.8Z" fill="#FBC6A6" stroke="#0D2232" stroke-width="6" stroke-miterlimit="10"/>
<path d="M533.89 490.83C533.1 502.68 531.2 513.64 531.2 513.64L503.51 494.55C503.51 494.55 506.68 487.04 509.29 479.6C510.81 475.25 512.15 470.91 512.53 468.12C513.58 460.57 514.84 456.8 514.84 456.8C514.84 456.8 530.99 455.96 533.5 470.85C534.45 476.41 534.36 483.77 533.89 490.83Z" fill="#435F84"/>
<path d="M533.89 490.83C526.76 490.3 518.46 486.75 514.18 483.71C512.46 482.48 510.78 481.12 509.29 479.6C510.81 475.25 512.15 470.91 512.53 468.12C513.58 460.57 514.84 456.8 514.84 456.8C514.84 456.8 530.99 455.96 533.5 470.85C534.45 476.41 534.36 483.77 533.89 490.83Z" fill="#253B5A"/>
<path d="M514.84 456.8C514.84 456.8 530.99 455.96 533.51 470.85C536.03 485.74 531.2 513.63 531.2 513.63L503.52 494.54C503.52 494.54 511.49 475.66 512.54 468.11C513.58 460.57 514.84 456.8 514.84 456.8Z" stroke="#0D2232" stroke-width="6" stroke-miterlimit="10"/>
<path d="M446.39 490.83C447.18 502.68 449.08 513.64 449.08 513.64L476.77 494.55C476.77 494.55 473.6 487.04 470.99 479.6C469.47 475.25 468.13 470.91 467.75 468.12C466.7 460.57 465.44 456.8 465.44 456.8C465.44 456.8 449.29 455.96 446.78 470.85C445.83 476.41 445.92 483.77 446.39 490.83Z" fill="#435F84"/>
<path d="M446.39 490.83C453.52 490.3 461.82 486.75 466.1 483.71C467.82 482.48 469.5 481.12 470.99 479.6C469.47 475.25 468.13 470.91 467.75 468.12C466.7 460.57 465.44 456.8 465.44 456.8C465.44 456.8 449.29 455.96 446.78 470.85C445.83 476.41 445.92 483.77 446.39 490.83Z" fill="#253B5A"/>
<path d="M465.44 456.8C465.44 456.8 449.29 455.96 446.77 470.85C444.25 485.74 449.08 513.63 449.08 513.63L476.76 494.54C476.76 494.54 468.79 475.66 467.74 468.11C466.69 460.56 465.44 456.8 465.44 456.8Z" stroke="#0D2232" stroke-width="6" stroke-miterlimit="10"/>
<path d="M468.28 528.31H429.27V563.96H468.28V528.31Z" fill="#F9DC1B" stroke="#0D2232" stroke-width="6" stroke-miterlimit="10"/>
<path d="M468.28 542.37H429.27" stroke="#0D2232" stroke-width="6" stroke-miterlimit="10"/>
<path d="M533.69 155.89C533.69 155.89 534.79 166.43 530.54 187.98Z" fill="#F9DC1B"/>
<path d="M533.69 155.89C533.69 155.89 534.79 166.43 530.54 187.98" stroke="#0D2232" stroke-width="6" stroke-miterlimit="10" stroke-linecap="round" stroke-linejoin="round"/>
<path d="M612.18 239.41H579.75C576.32 239.41 573.54 242.19 573.54 245.62V260.96" stroke="#0D2232" stroke-width="6" stroke-miterlimit="10" stroke-linecap="round" stroke-linejoin="round"/>
<path d="M443.72 155.73C443.72 155.73 442.62 166.27 446.87 187.82Z" fill="#F9DC1B"/>
<path d="M443.72 155.73C443.72 155.73 442.62 166.27 446.87 187.82" stroke="#0D2232" stroke-width="6" stroke-miterlimit="10" stroke-linecap="round" stroke-linejoin="round"/>
<path d="M365.22 239.25H397.65C401.08 239.25 403.86 242.03 403.86 245.46V260.8" stroke="#0D2232" stroke-width="6" stroke-miterlimit="10" stroke-linecap="round" stroke-linejoin="round"/>
<path opacity="0.74" d="M618.6 270.19C612.14 267.73 605.04 267.78 598.14 267.85C547.69 268.39 497.24 268.92 446.79 269.46C424.37 269.7 401.96 269.94 379.54 270.18C369.59 270.29 358.43 270.91 351.73 278.25C350.41 279.7 349.12 281.48 347.18 281.77C344.22 282.22 342.03 278.78 341.97 275.79C341.85 270.18 346.17 265.23 351.27 262.87C356.37 260.52 362.15 260.24 367.76 260.05C450.86 257.22 534.2 265.29 617.12 259.16C621.91 258.81 627.57 258.78 630.44 262.64C632.02 264.77 632.28 267.58 632.49 270.23C632.69 272.9 634.87 282.86 629.5 279.05C627.76 277.82 626.56 275.13 624.76 273.69C622.92 272.22 620.8 270.96 618.6 270.19Z" fill="white"/>
<path d="M631.97 284.08C631.97 284.08 620.96 279.99 606.17 279.99C591.38 279.99 371.33 279.99 371.33 279.99C371.33 279.99 351.35 279.2 345.69 284.08V270.4C345.69 265.1 349.99 260.8 355.29 260.8H622.38C627.68 260.8 631.98 265.1 631.98 270.4V284.08H631.97Z" stroke="#0D2232" stroke-width="6" stroke-miterlimit="10" stroke-linecap="round" stroke-linejoin="round"/>
<path d="M394.7 314.08C394.7 314.08 394.16 343.07 394.7 351.41C395.24 359.75 389.58 367.3 380.93 361.48C372.28 355.66 373.96 321.06 373.96 321.06C373.96 321.06 382.93 321.47 394.7 314.08Z" fill="#253B5A" stroke="#0D2232" stroke-width="6" stroke-miterlimit="10"/>
<path d="M442.14 360.47C450.999 360.47 458.18 353.289 458.18 344.43C458.18 335.571 450.999 328.39 442.14 328.39C433.281 328.39 426.1 335.571 426.1 344.43C426.1 353.289 433.281 360.47 442.14 360.47Z" fill="#0D2232"/>
<path d="M536.97 360.47C545.829 360.47 553.01 353.289 553.01 344.43C553.01 335.571 545.829 328.39 536.97 328.39C528.112 328.39 520.93 335.571 520.93 344.43C520.93 353.289 528.112 360.47 536.97 360.47Z" fill="#0D2232"/>
<path d="M557.83 316.19C556.54 316.19 555.25 315.75 554.2 314.84C553.71 314.43 542.93 305.47 527.13 307.94C524.09 308.42 521.24 306.34 520.77 303.3C520.29 300.26 522.37 297.41 525.41 296.94C546.5 293.64 560.89 305.89 561.49 306.42C563.81 308.44 564.06 311.96 562.04 314.28C560.94 315.54 559.39 316.19 557.83 316.19Z" fill="#0D2232"/>
<path d="M421.75 316.19C423.04 316.19 424.33 315.75 425.38 314.84C425.87 314.43 436.65 305.47 452.45 307.94C455.49 308.42 458.34 306.34 458.81 303.3C459.29 300.26 457.21 297.41 454.17 296.94C433.08 293.64 418.69 305.89 418.09 306.42C415.77 308.44 415.52 311.96 417.54 314.28C418.64 315.54 420.19 316.19 421.75 316.19Z" fill="#0D2232"/>
<path d="M539.19 391.87C535 399.56 528.84 407.93 520.04 414.09C512.27 419.53 502.44 423.24 490.09 423.24C476.62 423.24 466.19 418.82 458.17 412.57C450.48 406.58 445.01 398.89 441.2 391.79C437.87 385.56 439.86 378.46 444.73 374.51C447.07 372.61 450.07 371.44 453.46 371.44H526.98C530.37 371.44 533.37 372.61 535.71 374.51C540.6 378.48 542.59 385.64 539.19 391.87Z" fill="#162336"/>
<path d="M518.88 388.64C503.1 388.64 455.7 388.64 455.7 388.64C455.7 388.64 443.07 389.12 444.74 374.51C447.08 372.61 450.08 371.44 453.47 371.44H526.99C530.38 371.44 533.38 372.61 535.72 374.51C535.89 374.66 534.65 388.64 518.88 388.64Z" fill="white"/>
<path d="M520.04 414.09C512.27 419.53 502.44 423.24 490.09 423.24C476.62 423.24 466.19 418.82 458.17 412.57C462.9 402.16 480.41 398.68 498.06 399.65C511.66 400.39 517.56 408.42 520.04 414.09Z" fill="#DD1010"/>
<path d="M453.46 371.44H526.98C537.47 371.44 544.21 382.66 539.19 391.87C531.29 406.36 516.43 423.24 490.09 423.24C463.7 423.24 448.98 406.3 441.2 391.79C436.27 382.58 443.01 371.44 453.46 371.44Z" stroke="#0D2232" stroke-width="6" stroke-miterlimit="10"/>
<path d="M563.4 634.54H413.65V668.41H563.4V634.54Z" fill="#253B5A" stroke="#0D2232" stroke-width="6" stroke-miterlimit="10"/>
<path d="M514.21 634.54H466.81V668.41H514.21V634.54Z" fill="#C3CDD4" stroke="#0D2232" stroke-width="6" stroke-miterlimit="10"/>
<path d="M632.21 845H635.57C637.19 845 638.51 846.31 638.51 847.94V856.59C638.51 858.99 636.56 860.94 634.16 860.94H557.77L542.15 850.45V860.94H503.4C501 860.94 499.05 858.99 499.05 856.59V840.13C499.05 837.84 500.91 835.98 503.2 835.99H504.64L606.27 835.1L632.21 845Z" fill="#484D60" stroke="#0D2232" stroke-width="6" stroke-miterlimit="10" stroke-linecap="round" stroke-linejoin="round"/>
<path d="M633.78 841.23L632.21 845H562.21L544.12 835.98H504.62C504.62 835.98 502.81 827.28 504.33 816.5C505.27 809.81 507.5 802.32 512.24 795.61H572.43L577.15 800.65C577.15 800.65 585.64 800.96 586.27 808.83C586.27 808.83 587.76 808.08 590.33 807.26C595.4 805.64 604.66 803.71 614.9 806.63C630.32 811.03 637.56 830.85 633.78 841.23Z" fill="#E89F02"/>
<path d="M527.76 835.99H504.62C504.62 835.99 502.81 827.29 504.33 816.51C504.42 816.5 504.52 816.5 504.62 816.49C527.73 815.33 527.76 835.99 527.76 835.99Z" fill="#834526"/>
<path opacity="0.75" d="M633.78 841.23L632.21 845H622.14C622.14 845 631.1 812.71 590.34 807.25C595.41 805.63 604.67 803.7 614.91 806.62C630.32 811.03 637.56 830.85 633.78 841.23Z" fill="white"/>
<path d="M572.44 795.61L577.16 800.64C577.16 800.64 585.65 800.95 586.28 808.82C586.28 808.82 599.49 802.21 614.91 806.62C630.33 811.02 637.56 830.84 633.79 841.23L632.22 845.01H562.22L544.13 835.99H504.63C504.63 835.99 499.88 813.13 512.25 795.62H572.44V795.61Z" stroke="#0D2232" stroke-width="6" stroke-miterlimit="10" stroke-linecap="round" stroke-linejoin="round"/>
<path d="M586.28 808.83C586.28 808.83 566.04 815.44 562.21 845.01" stroke="#0D2232" stroke-width="6" stroke-miterlimit="10" stroke-linecap="round" stroke-linejoin="round"/>
<path d="M577.16 800.65C577.16 800.65 563 803.48 557.76 816.48" stroke="#0D2232" stroke-width="6" stroke-miterlimit="10" stroke-linecap="round" stroke-linejoin="round"/>
<path d="M577.16 774.12H503.73V795.62H577.16V774.12Z" fill="#435F84" stroke="#0D2232" stroke-width="6" stroke-miterlimit="10" stroke-linecap="round" stroke-linejoin="round"/>
<path d="M570.55 774.12L562.06 668.41H489.17V688.97L499.03 688.34L509.52 774.12H570.55Z" fill="#435F84" stroke="#0D2232" stroke-width="6" stroke-miterlimit="10" stroke-linecap="round" stroke-linejoin="round"/>
<path d="M346.14 845H342.78C341.16 845 339.84 846.31 339.84 847.94V856.59C339.84 858.99 341.79 860.94 344.19 860.94H420.58L436.2 850.45V860.94H474.95C477.35 860.94 479.3 858.99 479.3 856.59V840.13C479.3 837.84 477.44 835.98 475.15 835.99H473.71L372.08 835.1L346.14 845Z" fill="#484D60" stroke="#0D2232" stroke-width="6" stroke-miterlimit="10" stroke-linecap="round" stroke-linejoin="round"/>
<path d="M344.56 841.23L346.13 845H416.13L434.22 835.98H473.72C473.72 835.98 475.53 827.28 474.01 816.5C473.07 809.81 470.84 802.32 466.1 795.61H405.91L401.19 800.65C401.19 800.65 392.7 800.96 392.07 808.83C392.07 808.83 390.58 808.08 388.01 807.26C382.94 805.64 373.68 803.71 363.44 806.63C348.03 811.03 340.79 830.85 344.56 841.23Z" fill="#E89F02"/>
<path d="M450.59 835.99H473.73C473.73 835.99 475.54 827.29 474.02 816.51C473.93 816.5 473.83 816.5 473.73 816.49C450.62 815.33 450.59 835.99 450.59 835.99Z" fill="#834526"/>
<path opacity="0.75" d="M344.56 841.23L346.13 845H356.2C356.2 845 347.24 812.71 388 807.25C382.93 805.63 373.67 803.7 363.43 806.62C348.03 811.03 340.79 830.85 344.56 841.23Z" fill="white"/>
<path d="M405.91 795.61L401.19 800.64C401.19 800.64 392.7 800.95 392.07 808.82C392.07 808.82 378.86 802.21 363.44 806.62C348.02 811.02 340.79 830.84 344.56 841.23L346.13 845.01H416.13L434.22 835.99H473.72C473.72 835.99 478.47 813.13 466.1 795.62H405.91V795.61Z" stroke="#0D2232" stroke-width="6" stroke-miterlimit="10" stroke-linecap="round" stroke-linejoin="round"/>
<path d="M392.07 808.83C392.07 808.83 412.31 815.44 416.14 845.01" stroke="#0D2232" stroke-width="6" stroke-miterlimit="10" stroke-linecap="round" stroke-linejoin="round"/>
<path d="M401.19 800.65C401.19 800.65 415.35 803.48 420.59 816.48" stroke="#0D2232" stroke-width="6" stroke-miterlimit="10" stroke-linecap="round" stroke-linejoin="round"/>
<path d="M407.8 774.12L416.29 668.41H489.17V688.97L479.32 688.34L468.83 774.12H407.8Z" fill="#435F84" stroke="#0D2232" stroke-width="6" stroke-miterlimit="10" stroke-linecap="round" stroke-linejoin="round"/>
<path d="M371.57 556.93C371.57 556.93 358.28 566.9 333.87 558.72C309.46 550.54 302.38 522.65 302.38 522.65V515.63L303.57 515.45L345.05 509.17H348.97L362.27 502.11L368.96 532.94L369.69 539.71L371.57 556.93Z" fill="#FBC6A6"/>
<path opacity="0.16" d="M371.57 556.93C371.57 556.93 351.85 576.94 327.45 568.75C303.04 560.57 302.39 522.64 302.39 522.64V515.62L303.58 515.44C310.93 523.95 319.47 531.44 328.86 537.62C331.61 539.42 334.44 541.13 337.49 542.36C345.69 545.67 354.91 545.2 363.19 542.44C365.32 541.73 367.41 540.86 369.42 539.86C369.51 539.82 369.6 539.77 369.7 539.7L371.57 556.93Z" fill="black"/>
<path d="M348.98 509.16H345.06L302.38 515.63L314.05 520.65C314.05 520.65 305.94 543.14 318.12 556.91C321.07 560.25 319.88 566.84 324.64 568.43C349.05 576.61 371.57 556.93 371.57 556.93L368.97 532.93L362.28 502.1L348.98 509.16Z" stroke="#0D2232" stroke-width="6" stroke-miterlimit="10" stroke-linecap="round" stroke-linejoin="round"/>
<path d="M401.38 554.11L375.79 565.85L352.84 517.32L346.64 504.19L371.17 492.03L377.94 505.92L401.38 554.11Z" fill="#435F84"/>
<path opacity="0.21" d="M377.94 505.92L377.9 505.96L352.84 517.32L346.64 504.19L371.17 492.03L377.94 505.92Z" fill="white"/>
<path d="M413.65 475.67V542.37L399.07 549.92L377.9 505.96L373.48 496.78L413.65 475.67Z" fill="#F9DC1B"/>
<path opacity="0.5" d="M413.65 475.67V487.62L377.9 505.96L373.48 496.78L413.65 475.67Z" fill="white"/>
<g opacity="0.16">
<path d="M393.56 279.99H594.75L599.57 291.63H387.18L393.56 279.99Z" fill="black"/>
<path d="M373.95 321.06C373.95 321.06 409.57 329.84 445.22 291.64L413.64 286.85L373.95 321.06Z" fill="black"/>
<path d="M461.15 318.37C461.15 318.37 514.3 327.19 548.37 285.81L518.87 286.84L461.15 318.37Z" fill="black"/>
</g>
<path opacity="0.16" d="M591.55 344.43C591.55 344.43 574.25 441.81 470.99 454.33C470.99 454.33 579.12 469.69 592.49 365.24L591.55 344.43Z" fill="black"/>
<path d="M413.65 512L386.28 523.35L399.07 549.92L413.65 542.37V512Z" fill="#E89F02"/>
<path d="M557.37 616.14H419.56V628.43H557.37V616.14Z" fill="#E89F02"/>
<path d="M533.49 468.86H563.92V634.54H413.65V468.86H443.43" stroke="#0D2232" stroke-width="6" stroke-miterlimit="10"/>
<path d="M371.18 492.03L401.38 554.11L375.79 565.86L346.64 504.19L371.18 492.03Z" stroke="#0D2232" stroke-width="6" stroke-miterlimit="10" stroke-linecap="round" stroke-linejoin="round"/>
<path d="M426.55 279.99C426.55 279.99 399.49 326.24 367.4 320.57C364.49 320.05 361.87 319.47 359.54 318.85C336.19 312.57 340.35 301.44 340.35 301.44C340.35 301.44 359.87 306.8 373.38 281.81C373.7 281.22 374.01 280.62 374.32 280H426.55V279.99Z" fill="#253B5A"/>
<path opacity="0.21" d="M365.22 303.9C356.23 309.4 352.61 309.25 352.61 309.25C352.61 309.25 351.51 313.82 359.53 318.85C336.18 312.57 340.34 301.44 340.34 301.44C340.34 301.44 362.22 304.98 375.73 279.99C375.75 280.33 374.12 298.46 365.22 303.9Z" fill="white"/>
<path d="M638.9 305.79C638.9 305.79 625.54 326.52 602.23 321.81C588.88 319.11 572.26 308.06 553.01 280L610.57 280.12C610.57 280.12 610.75 283.01 611.97 286.85C614.42 294.52 621.07 306 638.9 305.79Z" fill="#253B5A"/>
<path opacity="0.21" d="M638.9 305.79C638.9 305.79 625.54 326.52 602.23 321.81C604.89 321.05 607.47 319.96 609.94 318.73C614.92 316.24 619.58 313.15 624.53 310.6C619.03 310.34 614.13 306.28 611.97 301.21C610.45 297.63 609.39 291.66 611.13 287.97C611.36 287.48 611.66 287.11 611.99 286.86C614.42 294.52 621.07 306 638.9 305.79Z" fill="white"/>
<path d="M610.57 280.11C610.57 280.11 612.15 306.1 638.89 305.79C638.89 305.79 605.86 357.07 553.01 279.99L610.57 280.11Z" stroke="#0D2232" stroke-width="6" stroke-miterlimit="10" stroke-linecap="round" stroke-linejoin="round"/>
<path d="M526.27 279.99C526.27 279.99 514 313.34 461.15 318.37C461.15 318.37 470.27 302.01 470.27 279.99H526.27Z" fill="#253B5A" stroke="#0D2232" stroke-width="6" stroke-miterlimit="10" stroke-linecap="round" stroke-linejoin="round"/>
<path d="M426.54 279.99C426.54 279.99 399.48 326.24 367.4 320.57C335.32 314.9 340.34 301.43 340.34 301.43C340.34 301.43 360.79 307.04 374.32 279.98H426.54V279.99Z" stroke="#0D2232" stroke-width="6" stroke-miterlimit="10" stroke-linecap="round" stroke-linejoin="round"/>
<path d="M594.75 365.29C594.75 365.29 592.02 417.47 542.31 445.47C492.6 473.47 439.44 453.33 413.64 427.85C387.84 402.37 386.27 363.53 386.27 363.53" stroke="#0D2232" stroke-width="6" stroke-miterlimit="10"/>
<path d="M608.38 322.5C608.38 322.5 607.91 349.21 606.81 354.4C605.71 359.59 601.15 366.04 592.5 365.25C583.85 364.46 584.16 353.3 584.01 345.43C583.85 337.57 584.01 313.54 584.01 313.54C584.01 313.54 595.79 322.85 608.38 322.5Z" fill="#253B5A" stroke="#0D2232" stroke-width="6" stroke-miterlimit="10" stroke-linecap="round" stroke-linejoin="round"/>
<path d="M507.02 668.41L529.86 795.61H512.24H503.73V774.12H509.52L499.03 685L489.17 688.97V668.41H507.02Z" fill="#253B5A"/>
<path d="M453.02 774.12L448.78 795.61H474.62V774.12H468.83L479.32 685L489.17 688.97V668.41H466.81L453.02 774.12Z" fill="#253B5A"/>
<path d="M499.03 688.34L511.41 686.87" stroke="#0D2232" stroke-width="6" stroke-miterlimit="10" stroke-linecap="round" stroke-linejoin="round"/>
<path d="M479.32 688.34L466.94 686.87" stroke="#0D2232" stroke-width="6" stroke-miterlimit="10" stroke-linecap="round" stroke-linejoin="round"/>
<path d="M562.06 668.41H548.59L557.76 774.12H563.92V795.61H577.16V774.12H570.55L562.06 668.41Z" fill="#C3CDD4"/>
<path d="M416.95 668.41H430.42L421.25 774.12H415.09V795.61H401.85V774.12H408.46L416.95 668.41Z" fill="#C3CDD4"/>
<path d="M577.16 774.12H503.73V795.62H577.16V774.12Z" stroke="#0D2232" stroke-width="6" stroke-miterlimit="10" stroke-linecap="round" stroke-linejoin="round"/>
<path d="M570.55 774.12L562.06 668.41H489.17V688.97L499.03 688.34L509.52 774.12H570.55Z" stroke="#0D2232" stroke-width="6" stroke-miterlimit="10" stroke-linecap="round" stroke-linejoin="round"/>
<path d="M407.8 774.12L416.29 668.41H489.17V688.97L479.32 688.34L468.83 774.12H407.8Z" stroke="#0D2232" stroke-width="6" stroke-miterlimit="10" stroke-linecap="round" stroke-linejoin="round"/>
<path d="M640.03 681.09H622.83V746.23H640.03V681.09Z" fill="#E89F02"/>
<path d="M729.48 660.34V670.68C729.48 673.43 727.24 675.66 724.49 675.66H646.02C643.27 675.66 641.04 673.43 641.04 670.68V660.34C641.04 659.74 641.15 659.16 641.34 658.63C642.03 656.72 643.87 655.35 646.02 655.35H724.49C726.64 655.35 728.48 656.72 729.18 658.63C729.37 659.16 729.48 659.74 729.48 660.34Z" fill="#AFCADC"/>
<path opacity="0.2" d="M641.03 669.58V670.68C641.03 673.43 643.26 675.67 646.01 675.67H724.48C727.23 675.67 729.46 673.44 729.46 670.68V669.58H641.03Z" fill="black"/>
<path opacity="0.7" d="M729.17 658.63H641.33C642.02 656.72 643.86 655.35 646.01 655.35H724.48C726.64 655.35 728.48 656.71 729.17 658.63Z" fill="white"/>
<path d="M729.48 660.34V670.68C729.48 673.43 727.24 675.66 724.49 675.66H646.02C643.27 675.66 641.04 673.43 641.04 670.68V660.34C641.04 659.74 641.15 659.16 641.34 658.63C642.03 656.72 643.87 655.35 646.02 655.35H724.49C726.64 655.35 728.48 656.72 729.18 658.63C729.37 659.16 729.48 659.74 729.48 660.34Z" stroke="#0D2232" stroke-width="4" stroke-miterlimit="10" stroke-linecap="round" stroke-linejoin="round"/>
<path d="M555.53 674.02C555.53 674.02 576.74 690.73 641.03 684.31" stroke="white" stroke-miterlimit="10"/>
<path d="M537.53 634.16V722.88L549.1 734.45H628.17L617.57 726.09L618.21 634.16H537.53Z" fill="#F9DC1B"/>
<path d="M547.17 634.16V717.32L553.92 726.09H634.92L628.17 734.45H549.1L537.53 722.88V634.16H547.17Z" fill="#E89F02"/>
<path d="M549.74 646.52H544.6V651.66H549.74V646.52Z" fill="white"/>
<path d="M549.74 662.93H544.6V668.07H549.74V662.93Z" fill="white"/>
<path d="M549.74 679.35H544.6V684.49H549.74V679.35Z" fill="white"/>
<path d="M549.74 695.76H544.6V700.9H549.74V695.76Z" fill="white"/>
<path d="M549.74 712.17H544.6V717.31H549.74V712.17Z" fill="white"/>
<path d="M618.21 669.2V634.16H537.53V722.88L549.1 734.45H621.11" stroke="#0D2232" stroke-width="4" stroke-miterlimit="10" stroke-linecap="round" stroke-linejoin="round"/>
<path d="M417.96 658.93V718.37C417.96 718.37 393.53 737.01 356.25 734.44C356.25 734.44 340.82 710.01 336.32 669.19C336.32 669.2 400.6 672.78 417.96 658.93Z" stroke="white" stroke-miterlimit="10"/>
<path d="M338.87 685.78C338.87 685.78 392.25 686.24 417.96 674.02" stroke="white" stroke-miterlimit="10"/>
<path d="M351.7 725.81C351.7 725.81 383.88 726.73 402.53 716.45L398.41 666.27L417.96 658.93V718.37C417.96 718.37 396.1 735.73 356.25 734.44L351.7 725.81Z" stroke="white" stroke-miterlimit="10"/>
<path d="M418.13 674.02C418.13 674.02 396.89 690.73 332.53 684.31" stroke="white" stroke-miterlimit="10"/>
<path d="M436.15 634.16V722.88L424.57 734.45H345.4L356.02 726.09L355.38 634.16H436.15Z" fill="#F9DC1B"/>
<path d="M426.5 634.16V717.32L419.74 726.09H338.64L345.4 734.45H424.57L436.15 722.88V634.16H426.5Z" fill="#E89F02"/>
<path d="M423.923 651.667H429.073V646.527H423.923V651.667Z" fill="white"/>
<path d="M423.923 668.082H429.073V662.942H423.923V668.082Z" fill="white"/>
<path d="M423.923 684.488H429.073V679.348H423.923V684.488Z" fill="white"/>
<path d="M423.923 700.903H429.073V695.763H423.923V700.903Z" fill="white"/>
<path d="M423.923 717.319H429.073V712.179H423.923V717.319Z" fill="white"/>
<path d="M355.38 669.2V634.16H436.15V722.88L424.57 734.45L346.47 733.61" stroke="#0D2232" stroke-width="4" stroke-miterlimit="10" stroke-linecap="round" stroke-linejoin="round"/>
<path d="M361.3 604.1L365.97 621.71L363.24 624.62C359.97 619.72 353.93 616.99 347.87 618.22C347.58 618.28 347.29 618.35 347 618.42C348.25 617.38 349.16 616.2 349.74 614.98C352.28 609.67 348.94 603.31 342.67 602.17L338.89 587.93C348.38 589.24 355.24 594.3 360.29 601.93C360.76 602.6 361.1 603.33 361.3 604.1Z" fill="#AFCADC"/>
<path d="M363.22 624.93L363.09 624.73C359.79 619.78 353.7 617.24 347.92 618.41C347.65 618.46 347.37 618.53 347.07 618.61L346.23 618.83L346.9 618.27C348.09 617.28 349 616.15 349.59 614.89C350.75 612.47 350.7 609.7 349.47 607.29C348.14 604.7 345.66 602.9 342.66 602.35L342.54 602.33L338.66 587.69L338.95 587.73C347.98 588.98 355.03 593.58 360.49 601.81C360.95 602.5 361.29 603.25 361.5 604.04L366.2 621.75L363.22 624.93ZM347.72 618.05C347.76 618.04 347.8 618.03 347.85 618.02C353.7 616.83 359.86 619.35 363.28 624.3L365.77 621.64L361.12 604.14C360.92 603.39 360.6 602.68 360.16 602.02C354.82 593.98 347.96 589.43 339.18 588.15L342.85 601.99C345.91 602.58 348.45 604.44 349.81 607.11C351.1 609.63 351.14 612.52 349.93 615.05C349.41 616.15 348.67 617.16 347.72 618.05Z" fill="#000072"/>
<g opacity="0.55">
<path d="M349.73 617.97C349.12 618.01 348.5 618.1 347.88 618.22C347.59 618.28 347.3 618.35 347.01 618.42C348.26 617.38 349.17 616.2 349.75 614.98C352.29 609.67 348.95 603.31 342.68 602.17L338.9 587.93C339.92 588.07 340.9 588.25 341.85 588.48L345.37 601.73C351.64 602.87 354.98 609.22 352.44 614.54C351.87 615.76 350.97 616.93 349.73 617.97Z" fill="white"/>
</g>
<g opacity="0.55">
<path d="M349.79 617.96L349.7 617.98C349.71 617.97 349.71 617.97 349.72 617.96C349.75 617.96 349.77 617.96 349.79 617.96Z" fill="white"/>
<path d="M349.84 618.15L348.93 618.39L349.67 617.78C349.71 617.77 349.74 617.77 349.76 617.77L351.39 617.73L349.84 618.15Z" fill="#371A45"/>
</g>
<path d="M368.99 633.08L371.27 641.69C371.41 642.22 371.12 642.78 370.62 642.97C370.58 642.98 370.55 642.99 370.51 643L354.93 647.14C353.35 647.56 351.75 647.71 350.18 647.62C345.16 647.32 340.47 644.55 337.93 640.22C337.28 639.12 336.77 637.93 336.43 636.64C336 635.03 335.86 633.42 335.96 631.85C336.36 625.64 340.65 620.11 347 618.43H347.01C347.3 618.35 347.58 618.29 347.88 618.23C353.94 617 359.98 619.73 363.25 624.63C364.21 626.07 364.92 627.69 365.34 629.45C365.61 630.59 365.73 631.73 365.73 632.85L367.69 632.33C368.05 632.23 368.42 632.34 368.68 632.57C368.82 632.69 368.94 632.87 368.99 633.08Z" fill="#AFCADC"/>
<path d="M370.57 643.19L354.99 647.33C353.42 647.75 351.8 647.91 350.18 647.81C345.06 647.51 340.31 644.64 337.77 640.32C337.1 639.19 336.59 637.97 336.25 636.7C335.83 635.1 335.67 633.47 335.77 631.84C336.19 625.37 340.68 619.91 346.95 618.24C347.28 618.15 347.56 618.09 347.84 618.03C353.76 616.83 360.02 619.43 363.4 624.51C364.39 626 365.1 627.64 365.51 629.39C365.76 630.44 365.89 631.52 365.9 632.59L367.62 632.13C368.03 632.02 368.47 632.12 368.78 632.41C368.97 632.57 369.1 632.79 369.16 633.03L371.44 641.64C371.61 642.27 371.27 642.92 370.67 643.15C370.65 643.16 370.61 643.17 370.57 643.19ZM347.07 618.6C340.95 620.23 336.57 625.55 336.16 631.85C336.05 633.44 336.21 635.03 336.62 636.58C336.95 637.82 337.45 639.01 338.1 640.11C340.57 644.32 345.21 647.12 350.2 647.41C351.78 647.5 353.36 647.35 354.89 646.94L370.47 642.8C370.5 642.79 370.53 642.78 370.56 642.77C370.98 642.61 371.21 642.16 371.1 641.72L368.82 633.11C368.78 632.94 368.68 632.79 368.55 632.68C368.33 632.48 368.03 632.41 367.74 632.48L365.54 633.06V632.81C365.54 631.69 365.41 630.56 365.15 629.45C364.75 627.74 364.06 626.14 363.09 624.69C359.79 619.74 353.7 617.2 347.92 618.37C347.65 618.46 347.37 618.52 347.07 618.6Z" fill="#000072"/>
<g opacity="0.3">
<path d="M361.3 604.1L365.97 621.71L363.24 624.62C363.06 624.35 362.87 624.08 362.67 623.82C359.3 619.42 353.6 617.05 347.87 618.22C347.58 618.28 347.29 618.35 347 618.42C348.25 617.38 349.16 616.2 349.74 614.98C349.82 614.95 349.91 614.93 349.99 614.91H350.01C350.29 614.84 350.58 614.77 350.88 614.71C353.52 614.17 356.15 614.39 358.55 615.21C360.01 615.71 361.43 614.41 361.04 612.92L358.98 605.17C358.78 604.4 358.44 603.67 358 603C353.44 596.12 347.41 591.33 339.32 589.5L338.91 587.95C348.4 589.26 355.26 594.32 360.31 601.95C360.76 602.6 361.1 603.33 361.3 604.1Z" fill="black"/>
<path d="M363.22 624.93L363.09 624.73C362.91 624.45 362.72 624.19 362.53 623.95C359.11 619.48 353.38 617.31 347.92 618.42C347.65 618.47 347.37 618.54 347.07 618.62L346.23 618.84L346.9 618.28C348.09 617.29 349 616.16 349.59 614.9L349.63 614.82L349.71 614.79C350.11 614.66 350.52 614.58 350.86 614.51C353.44 613.99 356.12 614.16 358.63 615.01C359.25 615.22 359.91 615.08 360.39 614.64C360.86 614.2 361.04 613.58 360.87 612.96L358.81 605.21C358.61 604.47 358.29 603.76 357.85 603.09C353.01 595.79 346.94 591.4 339.28 589.67L339.17 589.64L338.65 587.7L338.94 587.74C347.97 588.99 355.02 593.59 360.48 601.82C360.94 602.51 361.28 603.26 361.49 604.05L366.19 621.76L363.22 624.93ZM347.72 618.05C347.76 618.04 347.8 618.03 347.85 618.02C353.45 616.88 359.33 619.11 362.84 623.7C362.99 623.89 363.14 624.09 363.28 624.31L365.77 621.65L361.12 604.15C360.92 603.4 360.6 602.69 360.16 602.03C354.82 593.99 347.96 589.44 339.18 588.16L339.49 589.32C347.19 591.09 353.3 595.53 358.18 602.88C358.64 603.58 358.98 604.33 359.19 605.11L361.25 612.86C361.45 613.62 361.23 614.39 360.66 614.92C360.08 615.46 359.28 615.63 358.51 615.38C356.07 614.55 353.45 614.38 350.94 614.89C350.67 614.94 350.36 615.01 350.08 615.09C350.02 615.11 349.96 615.12 349.91 615.14C349.38 616.2 348.65 617.18 347.72 618.05Z" fill="#371A45"/>
</g>
<g opacity="0.55">
<path d="M357.89 619.74C355.47 618.9 352.8 618.67 350.13 619.21C349.84 619.27 349.55 619.34 349.26 619.41H349.25C342.91 621.09 338.62 626.63 338.21 632.83C338.11 634.4 338.25 636.02 338.68 637.62C339.02 638.9 339.53 640.1 340.18 641.2C341.58 643.58 343.62 645.49 346.02 646.77C342.67 645.6 339.75 643.3 337.93 640.2C337.28 639.1 336.77 637.91 336.43 636.62C336 635.01 335.86 633.4 335.96 631.83C336.36 625.62 340.65 620.09 347 618.41H347.01C347.3 618.33 347.58 618.27 347.88 618.21C351.41 617.5 354.92 618.13 357.89 619.74Z" fill="white"/>
</g>
<path d="M350.83 640.7C355.182 640.7 358.71 637.172 358.71 632.82C358.71 628.468 355.182 624.94 350.83 624.94C346.478 624.94 342.95 628.468 342.95 632.82C342.95 637.172 346.478 640.7 350.83 640.7Z" fill="#CECEDD"/>
<g opacity="0.55">
<path d="M360.91 632.23C362.03 636.44 359.52 640.75 355.32 641.87C352.72 642.56 350.08 641.87 348.17 640.24C349.62 640.76 351.24 640.86 352.85 640.44C357.06 639.32 359.56 635.01 358.44 630.8C358.01 629.2 357.12 627.84 355.95 626.84C358.31 627.68 360.22 629.63 360.91 632.23Z" fill="white"/>
</g>
<g opacity="0.3">
<path d="M355.63 626.57C354.34 626.21 352.94 626.19 351.55 626.56C347.34 627.68 344.84 631.99 345.96 636.2C346.42 637.95 347.44 639.4 348.78 640.42C346.15 639.71 343.97 637.66 343.22 634.84C342.1 630.63 344.61 626.32 348.81 625.2C351.27 624.55 353.76 625.13 355.63 626.57Z" fill="black"/>
<path d="M349.66 640.86L348.72 640.61C345.94 639.86 343.76 637.67 343.02 634.89C341.88 630.59 344.45 626.16 348.75 625.02C351.19 624.37 353.74 624.88 355.74 626.42L356.52 627.02L355.57 626.76C354.28 626.4 352.91 626.4 351.59 626.75C347.49 627.84 345.04 632.06 346.13 636.15C346.57 637.8 347.52 639.23 348.88 640.27L349.66 640.86ZM348.86 625.39C344.76 626.48 342.31 630.7 343.4 634.79C344.02 637.12 345.71 639.02 347.91 639.93C346.88 638.92 346.15 637.67 345.77 636.25C344.63 631.95 347.2 627.52 351.5 626.38C352.55 626.1 353.65 626.04 354.71 626.19C352.95 625.15 350.87 624.85 348.86 625.39Z" fill="#371A45"/>
</g>
<path d="M354.65 647.21L358.26 660.81C358.74 662.61 359.79 664.22 361.25 665.38L376.01 677.12C378.44 679.05 380.18 681.71 380.97 684.7L388.34 712.48C388.81 714.26 390.86 715.07 392.44 714.11C396.1 711.88 398.94 709.3 400.48 706.16C401.72 703.63 401.92 700.71 401.19 697.98L395.6 676.94C395.04 674.83 393.92 672.92 392.36 671.39L382.6 661.85C380.69 659.98 379.56 657.44 379.53 654.77C379.5 651.75 380.09 648.39 381.04 644.83C381.63 642.61 379.61 640.58 377.39 641.17L354.65 647.21Z" fill="#F9DC1B"/>
<path d="M395.61 676.93L401.2 697.98C401.92 700.71 401.73 703.63 400.49 706.16C398.95 709.3 396.1 711.88 392.44 714.11C391.36 714.77 390.06 714.59 389.2 713.85C392.28 711.8 394.68 709.45 396.05 706.66C397.29 704.13 397.49 701.21 396.76 698.48L391.17 677.43C390.61 675.32 389.49 673.41 387.93 671.88L378.17 662.34C376.26 660.47 375.13 657.93 375.11 655.26C375.08 652.24 375.67 648.88 376.62 645.32C377.02 643.81 376.21 642.38 374.95 641.82L377.42 641.17C379.64 640.58 381.66 642.61 381.07 644.83C380.12 648.39 379.53 651.75 379.56 654.77C379.59 657.44 380.72 659.98 382.62 661.85L392.38 671.39C393.93 672.91 395.05 674.83 395.61 676.93Z" fill="#E89F02"/>
<g opacity="0.55">
<path d="M391.56 713.61C391.63 713.88 391.74 714.14 391.88 714.36C390.41 714.86 388.76 714.05 388.34 712.47L380.97 684.69C380.18 681.7 378.44 679.04 376.01 677.11L361.25 665.37C359.79 664.21 358.74 662.61 358.26 660.8L354.65 647.2L377.42 641.16C378.71 640.82 379.92 641.36 380.61 642.3L357.87 648.33L361.48 661.93C361.96 663.74 363.01 665.34 364.47 666.5L379.23 678.24C381.65 680.17 383.39 682.83 384.19 685.82L391.56 713.61Z" fill="white"/>
</g>
<path d="M354.65 647.21L358.26 660.81C358.74 662.61 358.62 664.52 357.93 666.26L350.93 683.77C349.78 686.65 349.59 689.82 350.38 692.82L357.75 720.6C358.22 722.38 356.84 724.1 355 724.04C350.72 723.92 346.97 723.09 344.07 721.13C341.73 719.55 340.12 717.11 339.39 714.38L333.8 693.34C333.24 691.23 333.26 689.02 333.86 686.92L337.6 673.8C338.33 671.23 338.05 668.47 336.75 666.13C335.28 663.49 333.1 660.86 330.51 658.24C328.9 656.61 329.65 653.85 331.86 653.26L354.65 647.21Z" fill="#F9DC1B"/>
<path d="M354.65 647.21L358.26 660.81C358.74 662.62 358.62 664.53 357.93 666.26L350.93 683.77C349.78 686.65 349.59 689.82 350.38 692.82L357.75 720.6C358.22 722.38 356.84 724.1 355 724.05C354.21 724.03 353.43 723.98 352.67 723.9C353 723.31 353.11 722.6 352.92 721.88L345.55 694.1C344.76 691.11 344.95 687.93 346.1 685.05L353.1 667.54C353.79 665.81 353.91 663.9 353.43 662.09L349.82 648.49L354.65 647.21Z" fill="#E89F02"/>
<g opacity="0.55">
<path d="M334.5 659.17C337.09 661.79 339.27 664.42 340.74 667.06C342.04 669.39 342.32 672.16 341.59 674.73L337.85 687.85C337.25 689.95 337.23 692.17 337.79 694.27L343.38 715.32C344.1 718.05 345.72 720.49 348.05 722.07C349.08 722.77 350.22 723.32 351.45 723.75C348.64 723.35 346.15 722.53 344.09 721.13C341.76 719.55 340.14 717.11 339.42 714.38L333.83 693.33C333.27 691.22 333.29 689 333.89 686.91L337.63 673.79C338.36 671.22 338.08 668.46 336.78 666.13C335.31 663.49 333.13 660.86 330.54 658.24C328.93 656.61 329.68 653.84 331.89 653.26L354.65 647.21L355.14 649.07L335.84 654.2C333.63 654.78 332.88 657.54 334.5 659.17Z" fill="white"/>
</g>
<path d="M350.18 647.61L350.37 648.34L337.49 651.76L335.13 642.88C334.87 641.89 335.46 640.87 336.45 640.61L337.92 640.22C340.47 644.54 345.16 647.32 350.18 647.61Z" fill="#AFCADC"/>
<path d="M350.61 648.48L337.36 652L334.95 642.93C334.66 641.84 335.31 640.71 336.41 640.42L338.02 639.99L338.09 640.12C340.56 644.33 345.2 647.13 350.19 647.42L350.33 647.43L350.61 648.48ZM337.63 651.53L350.14 648.21L350.03 647.8C345.02 647.46 340.37 644.65 337.84 640.44L336.51 640.79C335.62 641.03 335.09 641.94 335.33 642.83L337.63 651.53Z" fill="#000072"/>
<g opacity="0.55">
<path d="M338.06 640.18C338.26 640.53 338.49 640.87 338.72 641.2L338.59 641.24C337.6 641.5 337.01 642.52 337.27 643.51L339.33 651.28L337.62 651.73L335.26 642.85C335 641.86 335.59 640.84 336.58 640.58L338.06 640.18Z" fill="white"/>
</g>
<path d="M347 618.42C340.66 620.1 336.37 625.64 335.96 631.84L332.16 630.67L327.49 613.06C327.28 612.29 327.21 611.49 327.27 610.69C327.88 601.56 331.32 593.76 338.91 587.92L342.69 602.16C336.68 607.21 338.46 616.94 347 618.42Z" fill="#AFCADC"/>
<path d="M336.14 632.1L332.01 630.83L327.31 613.12C327.1 612.33 327.02 611.51 327.08 610.68C327.74 600.83 331.57 593.33 338.8 587.77L339.03 587.59L342.91 602.23L342.82 602.31C339.93 604.73 338.72 608.39 339.65 611.85C340.55 615.19 343.31 617.57 347.04 618.22L347.9 618.37L347.05 618.59C340.94 620.21 336.56 625.54 336.16 631.84L336.14 632.1ZM332.33 630.53L335.79 631.6C336.28 625.49 340.41 620.32 346.21 618.46C342.72 617.61 340.15 615.22 339.28 611.97C338.32 608.4 339.55 604.63 342.48 602.11L338.81 588.27C331.82 593.74 328.11 601.09 327.47 610.72C327.42 611.51 327.49 612.29 327.69 613.03L332.33 630.53Z" fill="#000072"/>
<g opacity="0.3">
<path d="M344.33 619.41C344.38 619.39 344.43 619.36 344.48 619.34C344.5 619.34 344.52 619.35 344.54 619.35C344.47 619.37 344.4 619.39 344.33 619.41Z" fill="#262F6A"/>
<path d="M344.39 619.6L344.24 619.25C344.29 619.22 344.35 619.2 344.4 619.17L344.45 619.15L344.55 619.16L345.35 619.32L344.59 619.53C344.52 619.56 344.46 619.58 344.39 619.6Z" fill="#371A45"/>
</g>
<g opacity="0.3">
<path d="M344.88 617.84C345.47 618.07 345.48 618.9 344.89 619.16C344.75 619.22 344.61 619.28 344.48 619.35C335.99 617.83 333.61 608.03 339.6 603L336.22 590.26C337.05 589.45 337.95 588.68 338.92 587.94L342.7 602.18C337.22 606.76 338.21 615.24 344.88 617.84Z" fill="#262F6A"/>
<path d="M344.51 619.54L344.45 619.53C340.4 618.8 337.39 616.15 336.4 612.43C335.47 608.94 336.61 605.3 339.39 602.92L336.01 590.19L336.09 590.11C336.93 589.3 337.84 588.51 338.8 587.77L339.03 587.59L342.91 602.23L342.82 602.31C340.19 604.52 338.93 607.77 339.47 611.01C339.97 614.07 341.97 616.5 344.96 617.66C345.3 617.8 345.52 618.11 345.53 618.48C345.54 618.86 345.33 619.18 344.98 619.33C344.84 619.39 344.71 619.45 344.57 619.52L344.51 619.54ZM336.43 590.31L339.81 603.06L339.72 603.14C336.99 605.43 335.86 608.95 336.76 612.34C337.71 615.89 340.58 618.43 344.44 619.15C344.56 619.09 344.68 619.04 344.81 618.98C345.05 618.88 345.13 618.66 345.13 618.49C345.13 618.28 345.01 618.1 344.81 618.02C341.7 616.81 339.61 614.28 339.08 611.08C338.53 607.75 339.8 604.4 342.47 602.11L338.8 588.27C337.97 588.91 337.17 589.6 336.43 590.31Z" fill="#371A45"/>
</g>
<g opacity="0.55">
<path d="M338.92 587.93L339.46 589.98C333.39 595.58 330.56 602.7 330.01 610.9C329.96 611.7 330.03 612.5 330.23 613.27L334.9 630.88L336.01 631.22C335.99 631.43 335.97 631.64 335.96 631.85L332.16 630.68L327.49 613.07C327.28 612.3 327.21 611.5 327.27 610.7C327.88 601.57 331.33 593.77 338.92 587.93Z" fill="white"/>
</g>
<g opacity="0.2">
<path d="M368.99 633.08L371.27 641.69C371.41 642.22 371.12 642.78 370.62 642.97L357.71 646.4C363.96 643.37 367.01 639.06 366.24 633.2L368.67 632.56C368.82 632.69 368.94 632.87 368.99 633.08Z" fill="black"/>
</g>
<path d="M350.18 647.61L350.37 648.34L337.49 651.76L335.13 642.88C334.87 641.89 335.46 640.87 336.45 640.61L337.92 640.22C340.47 644.54 345.16 647.32 350.18 647.61Z" stroke="#0D2232" stroke-width="4" stroke-miterlimit="10" stroke-linecap="round" stroke-linejoin="round"/>
<path d="M354.65 647.21L358.26 660.81C358.74 662.61 359.79 664.22 361.25 665.38L376.01 677.12C378.44 679.05 380.18 681.71 380.97 684.7L388.34 712.48C388.81 714.26 390.86 715.07 392.44 714.11C396.1 711.88 398.94 709.3 400.48 706.16C401.72 703.63 401.92 700.71 401.19 697.98L395.6 676.94C395.04 674.83 393.92 672.92 392.36 671.39L382.6 661.85C380.69 659.98 379.56 657.44 379.53 654.77C379.5 651.75 380.09 648.39 381.04 644.83C381.63 642.61 379.61 640.58 377.39 641.17L354.65 647.21Z" stroke="#0D2232" stroke-width="4" stroke-miterlimit="10" stroke-linecap="round" stroke-linejoin="round"/>
<path d="M354.649 647.21L358.26 660.81C358.74 662.61 358.619 664.52 357.929 666.26L350.929 683.77C349.779 686.65 349.589 689.82 350.379 692.82L357.749 720.6C358.219 722.38 356.839 724.1 354.999 724.04C350.719 723.92 346.97 723.09 344.07 721.13C341.73 719.55 340.12 717.11 339.39 714.38L333.799 693.34C333.239 691.23 333.259 689.02 333.859 686.92L337.599 673.8C338.329 671.23 338.049 668.47 336.749 666.13C335.279 663.49 333.1 660.86 330.51 658.24C328.9 656.61 329.649 653.85 331.859 653.26L354.649 647.21Z" stroke="#0D2232" stroke-width="4" stroke-miterlimit="10" stroke-linecap="round" stroke-linejoin="round"/>
<path d="M361.3 604.1L365.97 621.71L363.24 624.62C359.97 619.72 353.93 616.99 347.87 618.22C347.58 618.28 347.29 618.35 347 618.42C348.25 617.38 349.16 616.2 349.74 614.98C352.28 609.67 348.94 603.31 342.67 602.17L338.89 587.93C348.38 589.24 355.24 594.3 360.29 601.93C360.76 602.6 361.1 603.33 361.3 604.1Z" stroke="#0D2232" stroke-width="4" stroke-miterlimit="10" stroke-linecap="round" stroke-linejoin="round"/>
<path d="M368.99 633.08L371.27 641.69C371.41 642.22 371.12 642.78 370.62 642.97C370.58 642.98 370.55 642.99 370.51 643L354.93 647.14C353.35 647.56 351.75 647.71 350.18 647.62C345.16 647.32 340.47 644.55 337.93 640.22C337.28 639.12 336.77 637.93 336.43 636.64C336 635.03 335.86 633.42 335.96 631.85C336.36 625.64 340.65 620.11 347 618.43H347.01C347.3 618.35 347.58 618.29 347.88 618.23C353.94 617 359.98 619.73 363.25 624.63C364.21 626.07 364.92 627.69 365.34 629.45C365.61 630.59 365.73 631.73 365.73 632.85L367.69 632.33C368.05 632.23 368.42 632.34 368.68 632.57C368.82 632.69 368.94 632.87 368.99 633.08Z" stroke="#0D2232" stroke-width="4" stroke-miterlimit="10" stroke-linecap="round" stroke-linejoin="round"/>
<path d="M347 618.42C340.66 620.1 336.37 625.64 335.96 631.84L332.16 630.67L327.49 613.06C327.28 612.29 327.21 611.49 327.27 610.69C327.88 601.56 331.32 593.76 338.91 587.92L342.69 602.16C336.68 607.21 338.46 616.94 347 618.42Z" stroke="#0D2232" stroke-width="4" stroke-miterlimit="10" stroke-linecap="round" stroke-linejoin="round"/>
<path d="M350.83 640.7C355.182 640.7 358.71 637.172 358.71 632.82C358.71 628.468 355.182 624.94 350.83 624.94C346.478 624.94 342.95 628.468 342.95 632.82C342.95 637.172 346.478 640.7 350.83 640.7Z" stroke="#0D2232" stroke-width="4" stroke-miterlimit="10" stroke-linecap="round" stroke-linejoin="round"/>
<path d="M403.14 664.67H382.59C380.4 664.67 378.62 662.89 378.62 660.7V659.57C378.62 657.38 380.4 655.6 382.59 655.6H403.14C405.33 655.6 407.11 657.38 407.11 659.57V660.7C407.11 662.9 405.34 664.67 403.14 664.67Z" fill="#F9DC1B"/>
<path d="M401.48 664.67H384.34V671.75H401.48V664.67Z" fill="#F9DC1B"/>
<path d="M394.64 716.23H391.09C384.2 716.23 378.62 710.65 378.62 703.76V675.9C378.62 673.61 380.47 671.76 382.76 671.76H402.97C405.26 671.76 407.11 673.61 407.11 675.9V703.76C407.11 710.64 401.53 716.23 394.64 716.23Z" fill="#F9DC1B"/>
<path d="M407.11 658.65V661.63C407.11 663.31 405.75 664.67 404.07 664.67H399.07C400.75 664.67 402.11 663.31 402.11 661.63V658.65C402.11 656.97 400.75 655.61 399.07 655.61H404.07C405.75 655.61 407.11 656.97 407.11 658.65Z" fill="#E89F02"/>
<path d="M401.49 664.68H396.49V671.76H401.49V664.68Z" fill="#E89F02"/>
<path d="M407.11 674.78V702.4C407.11 710.04 400.92 716.23 393.28 716.23H393.01C398.04 716.23 402.12 712.15 402.12 707.12V674.78C402.12 673.11 400.77 671.76 399.1 671.76H404.1C405.76 671.75 407.11 673.11 407.11 674.78Z" fill="#E89F02"/>
<g opacity="0.55">
<path d="M385.2 664.68H381.67C379.99 664.68 378.63 663.32 378.63 661.64V658.66C378.63 656.98 379.99 655.62 381.67 655.62H385.2C383.52 655.62 382.16 656.98 382.16 658.66V661.64C382.16 663.31 383.52 664.68 385.2 664.68Z" fill="white"/>
</g>
<g opacity="0.55">
<path d="M387.87 664.68H384.34V671.76H387.87V664.68Z" fill="white"/>
</g>
<g opacity="0.55">
<path d="M391.27 716.23H387.74C382.71 716.23 378.63 712.15 378.63 707.12V674.78C378.63 673.11 379.98 671.76 381.65 671.76H385.18C383.51 671.76 382.16 673.11 382.16 674.78V707.12C382.16 712.15 386.24 716.23 391.27 716.23Z" fill="white"/>
</g>
<path d="M402.81 616.9L400.49 624.08H397.51V655.61H388.56V624.08H385.58L383.26 616.9L386.91 596.36H399.16L402.81 616.9Z" fill="#AFCADC"/>
<path d="M397.67 655.77H388.39V624.24H385.45L383.08 616.91L383.09 616.87L386.76 596.19H399.29L402.97 616.91L400.6 624.24H397.66V655.77H397.67ZM388.73 655.44H397.34V623.91H400.37L402.64 616.89L399.03 596.53H387.05L383.44 616.89L385.71 623.91H388.74V655.44H388.73Z" fill="#000072"/>
<g opacity="0.2">
<path d="M396.69 624.08H397.51V655.61H394.75V626.02C394.75 624.95 395.62 624.08 396.69 624.08Z" fill="black"/>
</g>
<g opacity="0.2">
<path d="M402.81 616.9L400.49 624.08H397.73L400.05 616.9L396.4 596.36H399.16L402.81 616.9Z" fill="black"/>
</g>
<g opacity="0.55">
<path d="M386.12 616.9L388.44 624.08H385.91L383.59 616.9L387.24 596.36H389.77L386.12 616.9Z" fill="white"/>
</g>
<g opacity="0.55">
<path d="M391.42 625.73V655.61H388.89V624.08H389.77C390.68 624.08 391.42 624.82 391.42 625.73Z" fill="white"/>
</g>
<g opacity="0.2">
<path d="M392.52 690.77C392.52 694.43 390.98 697.4 389.07 697.4C387.17 697.4 387.14 694.43 387.14 690.77C387.14 687.11 387.17 684.14 389.07 684.14C390.97 684.15 392.52 687.12 392.52 690.77Z" fill="white"/>
</g>
<path d="M403.14 664.67H382.59C380.4 664.67 378.62 662.89 378.62 660.7V659.57C378.62 657.38 380.4 655.6 382.59 655.6H403.14C405.33 655.6 407.11 657.38 407.11 659.57V660.7C407.11 662.9 405.34 664.67 403.14 664.67Z" stroke="#0D2232" stroke-width="4" stroke-miterlimit="10" stroke-linecap="round" stroke-linejoin="round"/>
<path d="M401.48 664.67H384.34V671.75H401.48V664.67Z" stroke="#0D2232" stroke-width="4" stroke-miterlimit="10" stroke-linecap="round" stroke-linejoin="round"/>
<path d="M394.64 716.23H391.09C384.2 716.23 378.62 710.65 378.62 703.76V675.9C378.62 673.61 380.47 671.76 382.76 671.76H402.97C405.26 671.76 407.11 673.61 407.11 675.9V703.76C407.11 710.64 401.53 716.23 394.64 716.23Z" stroke="#0D2232" stroke-width="4" stroke-miterlimit="10" stroke-linecap="round" stroke-linejoin="round"/>
<path d="M402.81 616.9L400.49 624.08H397.51V655.61H388.56V624.08H385.58L383.26 616.9L386.91 596.36H399.16L402.81 616.9Z" stroke="#0D2232" stroke-width="4" stroke-miterlimit="10" stroke-linecap="round" stroke-linejoin="round"/>
<path d="M418.13 658.93V717.09C418.13 717.09 406.54 734.45 384.02 734.45C361.5 734.45 345.4 734.45 345.4 734.45L338.64 725.77C338.64 725.77 333.17 684.95 332.53 669.2C332.53 669.2 394.32 670.85 418.13 658.93Z" fill="#FEC400"/>
<path d="M412.86 661.15V704.81C412.86 712.24 408.66 719.05 401.98 722.31C390.99 727.68 370.96 732.8 338.65 725.78L345.41 734.46L387.41 734.7C387.41 734.7 409.13 731.89 418.14 717.1V658.94L412.86 661.15Z" fill="#E89F02"/>
<path d="M418.13 658.93V713.29C418.13 716 417.1 718.6 415.26 720.58C410.54 725.65 400.05 734.44 384.02 734.44H350.62C347.33 734.44 344.22 732.92 342.2 730.32L340.43 728.05C339.26 726.55 338.51 724.76 338.27 722.88C337.02 713.3 333.08 682.41 332.54 669.19C332.53 669.2 394.32 670.85 418.13 658.93Z" stroke="#0D2232" stroke-width="4" stroke-miterlimit="10" stroke-linecap="round" stroke-linejoin="round"/>
<path d="M418.13 674.02C418.13 674.02 398.41 690.92 334.05 684.49" stroke="#0D2232" stroke-width="4" stroke-miterlimit="10" stroke-linecap="round" stroke-linejoin="round"/>
<path d="M401.195 795.609L474.625 795.609L474.625 774.109L401.195 774.109L401.195 795.609Z" stroke="#0D2232" stroke-width="6" stroke-miterlimit="10" stroke-linecap="round" stroke-linejoin="round"/>
<path d="M413.65 475.67L373.48 496.78L399.07 549.92L413.65 542.37V475.67Z" stroke="#0D2232" stroke-width="6" stroke-miterlimit="10"/>
<path d="M630.43 512.55C630.43 512.55 658.07 528.62 652.29 549.84C646.51 571.06 605.36 599.34 605.36 599.34C605.36 599.34 603.43 575.55 574.5 570.41L592.5 552.41L630.43 512.55Z" fill="#FBC6A6"/>
<path d="M574.5 570.4L565.5 575.86V631.79H606L605.36 599.33C605.36 599.33 602.79 574.9 574.5 570.4Z" fill="#FBC6A6"/>
<path opacity="0.16" d="M626.37 516.81C626.37 516.81 651.85 529.25 646.2 549.97C640.55 570.7 604.9 592.72 604.9 592.72" stroke="black" stroke-width="6" stroke-miterlimit="10"/>
<path opacity="0.16" d="M602 631.8L601.36 586.75" stroke="black" stroke-width="6" stroke-miterlimit="10"/>
<path opacity="0.5" d="M580.67 570.97L635.81 514.05" stroke="white" stroke-width="6" stroke-miterlimit="10"/>
<path opacity="0.5" d="M570.67 572.12V633.36" stroke="white" stroke-width="6" stroke-miterlimit="10"/>
<path d="M630.43 512.55C630.43 512.55 658.07 528.62 652.29 549.84C646.51 571.06 605.36 599.34 605.36 599.34C605.36 599.34 603.43 575.55 574.5 570.41L592.5 552.41L630.43 512.55Z" stroke="#0D2232" stroke-width="6" stroke-miterlimit="10" stroke-linecap="round" stroke-linejoin="round"/>
<path d="M574.5 570.4L565.5 575.86V631.79H606L605.36 599.33C605.36 599.33 602.79 574.9 574.5 570.4Z" stroke="#0D2232" stroke-width="6" stroke-miterlimit="10" stroke-linecap="round" stroke-linejoin="round"/>
<path d="M576.19 554.11L601.78 565.85L624.72 517.32L630.93 504.19L606.39 492.03L599.63 505.92L576.19 554.11Z" fill="#435F84"/>
<path opacity="0.21" d="M599.63 505.92L599.67 505.96L624.72 517.32L630.93 504.19L606.39 492.03L599.63 505.92Z" fill="white"/>
<path d="M563.92 475.67V542.37L578.5 549.92L599.67 505.96L604.08 496.78L563.92 475.67Z" fill="#F9DC1B"/>
<path opacity="0.5" d="M563.92 475.67V487.62L599.67 505.96L604.08 496.78L563.92 475.67Z" fill="white"/>
<path d="M587.11 532.02L563.92 522.65V542.37L578.5 549.92L587.11 532.02Z" fill="#E89F02"/>
<path d="M606.39 492.03L576.19 554.11L601.78 565.86L630.93 504.19L606.39 492.03Z" stroke="#0D2232" stroke-width="6" stroke-miterlimit="10" stroke-linecap="round" stroke-linejoin="round"/>
<path d="M563.92 475.67L604.08 496.78L578.5 549.92L563.92 542.37V475.67Z" stroke="#0D2232" stroke-width="6" stroke-miterlimit="10"/>
<path fill-rule="evenodd" clip-rule="evenodd" d="M345.14 565.86C333.36 573.1 325.05 574.06 315.03 561.95C306.99 552.24 299.52 502.84 298.94 477.51C313.18 470.13 323.76 465.17 331.48 461.83C332.05 478.94 347.08 515.41 353.63 538.69C356.89 550.33 355.82 559.29 345.14 565.86Z" fill="#F7BB9C"/>
<path opacity="0.16" d="M302.65 489.36C302.65 489.36 307.97 545.22 316.9 559.32C325.83 573.42 336.78 570.56 346.64 565.74" stroke="black" stroke-width="6" stroke-miterlimit="10"/>
<path opacity="0.5" d="M331.11 480.98L346.67 528.94L354.7 556.91" stroke="white" stroke-width="6" stroke-miterlimit="10"/>
<path fill-rule="evenodd" clip-rule="evenodd" d="M345.14 565.86C333.36 573.1 325.05 574.06 315.03 561.95C306.99 552.24 299.52 502.84 298.94 477.51C313.18 470.13 323.76 465.17 331.48 461.83C332.05 478.94 347.08 515.41 353.63 538.69C356.89 550.33 355.82 559.29 345.14 565.86Z" stroke="#0D2232" stroke-width="6" stroke-miterlimit="10" stroke-linecap="round" stroke-linejoin="round"/>
<path d="M350.32 439.65C343.42 437.54 333.54 442.85 329.63 452.13C328.63 453.96 327.71 449.73 327.08 445.21C325.88 436.67 324.54 416.67 320.14 414.4C315.33 411.91 308.54 413.99 308.27 422.14C308.03 429.2 312.4 446.3 311.05 451.34C309.71 456.37 298.26 424.87 293.42 422.07C288.78 419.39 282.09 422.98 283.32 429.42C284.51 435.63 295.25 450.01 295.54 455.36C295.54 455.36 290.48 451.18 285.9 447.46C285.9 447.46 278.83 440.01 274.77 440.48C270.71 440.96 267.8 448.04 274.58 454.28C279.18 458.51 287.95 466.35 290.55 470.54C293.15 474.74 293.63 486.55 301.47 489.75C308.4 492.58 326.97 491.87 334.13 480.33C336.52 478.21 338.94 474.95 339.97 470.02C342.27 459.02 346.57 455.31 351.95 453.88C357.32 452.45 357.46 441.83 350.32 439.65Z" fill="#FBC6A6"/>
<path opacity="0.07" d="M327.08 445.2C325.88 436.66 324.54 416.66 320.14 414.39C317.06 412.8 313.19 413.09 310.72 415.62C311.49 415.44 312.36 415.37 313.38 415.54C318.09 416.33 319.18 426.59 319.8 432.61C320.42 438.63 321.26 451.68 322.85 454.44C324.43 457.2 327.26 459.23 329.64 452.12C328.63 453.96 327.71 449.73 327.08 445.2Z" fill="black"/>
<path opacity="0.07" d="M311.04 451.33C309.7 456.36 298.26 424.86 293.41 422.06C290.67 420.48 287.24 421.09 285.12 423.17C286.28 423.07 287.59 423.19 288.83 423.84C292.2 425.6 297.62 438.42 298.97 441.52C300.32 444.62 304.52 453.75 306.17 454.72C307.81 455.69 310.87 456.03 311.04 451.33Z" fill="black"/>
<path opacity="0.07" d="M295.53 455.35C295.53 455.35 290.47 451.17 285.89 447.45C285.89 447.45 278.82 440 274.76 440.47C273.02 440.67 271.49 442.1 270.85 444.15C271.82 443.69 272.97 443.43 274.25 443.74C277.86 444.63 287.9 455.1 289.15 456.45C290.41 457.8 294.43 460.88 295.88 459.1C297.33 457.33 295.73 456.56 295.53 455.35Z" fill="black"/>
<path opacity="0.07" d="M315.03 490.85C322.26 489.96 330.05 486.91 334.13 480.33C336.52 478.21 338.94 474.95 339.97 470.02C342.27 459.02 346.57 455.31 351.95 453.88C355.93 452.83 357.03 446.75 354.45 442.76C355.12 445.14 353.59 447.39 351.3 448.44C348.17 449.88 339.53 451.71 336.75 460.67C333.97 469.62 328.88 488.33 315.03 490.85Z" fill="black"/>
<path opacity="0.5" d="M328.74 485.94C328.74 485.94 317.23 489.11 316.42 489.23C312.69 489.81 301.74 490.74 296.98 482.93C296.98 482.93 292.99 470.76 291.61 468.86L287.63 464.03L270.55 447" stroke="white" stroke-width="6" stroke-miterlimit="10"/>
<path d="M350.32 439.65C343.42 437.54 333.54 442.85 329.63 452.13C328.63 453.96 327.71 449.73 327.08 445.21C325.88 436.67 324.54 416.67 320.14 414.4C315.33 411.91 308.54 413.99 308.27 422.14C308.03 429.2 312.4 446.3 311.05 451.34C309.71 456.37 298.26 424.87 293.42 422.07C288.78 419.39 282.09 422.98 283.32 429.42C284.51 435.63 295.25 450.01 295.54 455.36C295.54 455.36 290.48 451.18 285.9 447.46C285.9 447.46 278.83 440.01 274.77 440.48C270.71 440.96 267.8 448.04 274.58 454.28C279.18 458.51 287.95 466.35 290.55 470.54C293.15 474.74 293.63 486.55 301.47 489.75C308.4 492.58 326.97 491.87 334.13 480.33C336.52 478.21 338.94 474.95 339.97 470.02C342.27 459.02 346.57 455.31 351.95 453.88C357.32 452.45 357.46 441.83 350.32 439.65Z" stroke="#0D2232" stroke-width="6" stroke-miterlimit="10" stroke-linecap="round" stroke-linejoin="round"/>
<path d="M557.5 605.49V622.75C557.5 624.09 556.41 625.18 555.08 625.18H545.71C544.37 625.18 543.28 624.09 543.28 622.75V605.49C543.28 604.15 544.37 603.07 545.71 603.07H555.08C556.41 603.06 557.5 604.15 557.5 605.49Z" fill="#AFCADC"/>
<path d="M555.08 625.34H545.71C544.28 625.34 543.11 624.18 543.11 622.74V605.48C543.11 604.05 544.27 602.89 545.71 602.89H555.08C556.51 602.89 557.67 604.05 557.67 605.48V622.74C557.67 624.18 556.51 625.34 555.08 625.34ZM545.71 603.23C544.47 603.23 543.45 604.24 543.45 605.48V622.74C543.45 623.98 544.46 625 545.71 625H555.08C556.32 625 557.33 623.99 557.33 622.74V605.48C557.33 604.24 556.32 603.23 555.08 603.23H545.71Z" fill="#000072"/>
<g opacity="0.2">
<path d="M557.5 618.91V622.74C557.5 624.08 556.41 625.17 555.08 625.17H545.71C544.37 625.17 543.28 624.08 543.28 622.74V618.91C543.28 620.25 544.37 621.34 545.71 621.34H555.08C556.41 621.34 557.5 620.25 557.5 618.91Z" fill="black"/>
</g>
<g opacity="0.55">
<path d="M557.5 605.49V608.2C557.5 606.86 556.41 605.78 555.08 605.78H545.71C544.37 605.78 543.28 606.87 543.28 608.2V605.49C543.28 604.15 544.37 603.07 545.71 603.07H555.08C556.41 603.06 557.5 604.15 557.5 605.49Z" fill="white"/>
</g>
<path d="M567.95 620.52H557.5V608.25H566.37L567.95 620.52Z" fill="#AFCADC"/>
<path d="M568.15 620.69H557.34V608.08H566.53L568.15 620.69ZM557.67 620.35H567.76L566.22 608.42H557.67V620.35Z" fill="#000072"/>
<path d="M617.11 618.71C616.96 620.46 614.9 621.33 613.57 620.18C606.1 613.76 595.06 617.38 592.81 626.54C592.43 628.07 591.09 629.15 589.52 629.15H572.05C570.35 629.15 568.91 627.89 568.7 626.2L567.97 620.52L566.39 608.25L565.86 604.11C565.6 602.09 567.18 600.29 569.22 600.29H597.87C609.46 600.3 617.88 609.25 617.11 618.71Z" fill="#AFCADC"/>
<path d="M589.51 629.32H572.04C570.26 629.32 568.74 627.99 568.52 626.22L565.67 604.13C565.54 603.12 565.85 602.1 566.53 601.33C567.2 600.56 568.18 600.12 569.2 600.12H597.85C603.68 600.12 609.15 602.43 612.86 606.45C616.08 609.95 617.66 614.3 617.29 618.71C617.22 619.59 616.66 620.35 615.85 620.68C615.03 621.02 614.14 620.87 613.47 620.29C610 617.31 605.43 616.34 601.22 617.68C597.1 619 594.02 622.32 592.98 626.56C592.57 628.19 591.15 629.32 589.51 629.32ZM569.19 600.47C568.27 600.47 567.39 600.87 566.78 601.56C566.17 602.25 565.89 603.18 566.01 604.09L568.86 626.18C569.07 627.78 570.44 628.98 572.05 628.98H589.52C591 628.98 592.29 627.96 592.65 626.5C593.72 622.14 596.88 618.73 601.11 617.37C605.43 615.99 610.13 616.99 613.68 620.04C614.25 620.53 615.01 620.66 615.71 620.37C616.42 620.08 616.88 619.45 616.94 618.69C617.29 614.37 615.75 610.11 612.59 606.69C608.95 602.74 603.57 600.47 597.83 600.47H569.19Z" fill="#000072"/>
<g opacity="0.2">
<path d="M617.11 618.71C616.96 620.46 614.9 621.33 613.57 620.18C606.1 613.76 595.06 617.38 592.81 626.54C592.43 628.07 591.09 629.15 589.52 629.15H572.05C570.35 629.15 568.91 627.89 568.7 626.2L568.52 624.84C568.97 625.06 569.46 625.18 569.99 625.18H587.46C589.03 625.18 590.38 624.09 590.75 622.57C593 613.41 604.04 609.78 611.51 616.21C612.84 617.36 614.9 616.49 615.05 614.74C615.23 612.58 614.92 610.44 614.21 608.43C616.32 611.44 617.41 615.04 617.11 618.71Z" fill="black"/>
</g>
<g opacity="0.55">
<path d="M613.04 606.93C609.7 604.28 605.28 602.61 600.27 602.61H571.62C569.58 602.61 568 604.4 568.26 606.43L568.79 610.57L570.37 622.84L571.1 628.52C571.12 628.71 571.16 628.89 571.22 629.06C569.89 628.74 568.86 627.62 568.67 626.21L567.94 620.53L566.36 608.26L565.83 604.12C565.57 602.1 567.15 600.3 569.19 600.3H597.84C604.18 600.3 609.58 602.96 613.04 606.93Z" fill="white"/>
</g>
<g opacity="0.55">
<path d="M557.5 608.19H543.85V611.97H557.5V608.19Z" fill="white"/>
</g>
<path d="M589.21 629.15H573.13V670.19H589.21V629.15Z" fill="#435F84" stroke="#0D2232" stroke-width="4" stroke-miterlimit="10" stroke-linecap="round" stroke-linejoin="round"/>
<g opacity="0.2">
<path d="M573.17 636.35C573.64 636.36 574.06 636.53 574.45 636.74C574.84 636.95 575.2 637.22 575.54 637.51C576.22 638.08 576.84 638.72 577.35 639.46C578.37 640.92 578.95 642.57 579.97 643.86C580.47 644.5 581.1 645.02 581.82 645.41C582.54 645.79 583.34 646.05 584.15 646.22C584.97 646.39 585.81 646.49 586.66 646.57C587.08 646.61 587.51 646.64 587.94 646.65C588.37 646.68 588.81 646.74 589.21 647.02C589.27 647.06 589.28 647.14 589.24 647.2C589.23 647.22 589.21 647.23 589.19 647.24H589.18C588.72 647.44 588.31 647.4 587.88 647.37C587.46 647.31 587.03 647.28 586.6 647.24C585.74 647.16 584.87 647.06 584.01 646.88C583.15 646.7 582.29 646.43 581.5 646.01C580.71 645.59 579.99 644.99 579.43 644.28C578.31 642.86 577.74 641.2 576.78 639.85C576.3 639.18 575.74 638.56 575.08 638.06C574.75 637.81 574.41 637.58 574.06 637.35C573.72 637.12 573.37 636.89 573.06 636.56C573.01 636.51 573.01 636.44 573.06 636.39C573.11 636.36 573.14 636.35 573.17 636.35Z" fill="#371A45"/>
<path d="M589.23 643.82C588.35 644.3 587.32 644.32 586.35 644.18C585.38 644.04 584.42 643.8 583.54 643.35C583.09 643.14 582.68 642.86 582.29 642.56C581.91 642.24 581.54 641.9 581.25 641.49C580.62 640.7 580.29 639.71 580.1 638.77C579.91 637.82 579.82 636.89 579.56 636.03C579.43 635.6 579.26 635.2 579.02 634.83C578.91 634.64 578.77 634.47 578.64 634.3C578.49 634.14 578.35 633.97 578.18 633.83C577.53 633.23 576.71 632.82 575.85 632.61C575.42 632.5 574.97 632.46 574.54 632.49C574.1 632.52 573.69 632.59 573.19 632.52H573.18C573.16 632.52 573.13 632.51 573.1 632.5L573.08 632.49C573.01 632.47 572.97 632.41 572.99 632.34C573 632.32 573.01 632.3 573.02 632.28C573.05 632.25 573.07 632.23 573.1 632.21H573.09C573.49 631.87 574.02 631.76 574.52 631.76C575.02 631.78 575.52 631.81 576.01 631.94C576.98 632.17 577.9 632.64 578.64 633.31C579.39 633.96 579.95 634.88 580.22 635.82C580.5 636.77 580.59 637.72 580.77 638.62C580.95 639.52 581.24 640.37 581.79 641.06C582.05 641.42 582.38 641.72 582.72 642.01C583.08 642.28 583.45 642.53 583.86 642.72C584.66 643.12 585.55 643.37 586.45 643.46C586.67 643.49 586.9 643.48 587.13 643.5C587.36 643.49 587.58 643.51 587.81 643.5C588.26 643.51 588.71 643.46 589.21 643.57H589.22C589.28 643.58 589.32 643.65 589.31 643.71C589.28 643.77 589.26 643.8 589.23 643.82Z" fill="#371A45"/>
<path d="M589.24 639.12C588.98 639.37 588.66 639.48 588.33 639.53C588.17 639.56 588 639.57 587.83 639.56C587.66 639.55 587.5 639.53 587.34 639.52C586.69 639.43 586.05 639.26 585.46 638.98C584.28 638.43 583.26 637.55 582.55 636.47C581.83 635.39 581.42 634.13 581.27 632.86C581.2 632.22 581.19 631.58 581.24 630.95C581.26 630.63 581.31 630.32 581.34 630C581.37 629.68 581.44 629.37 581.68 629.1V629.12C581.72 629.08 581.75 629.03 581.8 629C581.87 628.95 581.96 628.97 582.01 629.03L582.02 629.04V629.05C582.05 629.1 582.06 629.14 582.08 629.18V629.2C582.17 629.53 582.11 629.82 582.04 630.11C581.97 630.4 581.94 630.7 581.92 631C581.87 631.6 581.88 632.19 581.95 632.79C582.08 633.97 582.47 635.12 583.12 636.1C583.77 637.08 584.69 637.88 585.75 638.37C586.28 638.61 586.84 638.79 587.42 638.82C587.71 638.83 587.99 638.84 588.28 638.83C588.57 638.83 588.85 638.82 589.19 638.9C589.26 638.92 589.3 638.99 589.28 639.06C589.26 639.09 589.25 639.11 589.24 639.12Z" fill="#371A45"/>
<path d="M585.16 629.21C585.21 629.47 585.15 629.67 585.08 629.86C585.01 630.05 584.92 630.22 584.84 630.4C584.68 630.76 584.58 631.13 584.52 631.51C584.42 632.25 584.57 633.04 584.99 633.63C585.2 633.92 585.48 634.15 585.8 634.29C586.12 634.43 586.49 634.49 586.86 634.47C587.23 634.46 587.61 634.38 587.97 634.26C588.15 634.21 588.33 634.1 588.5 634C588.68 633.91 588.86 633.84 589.15 633.96H589.16C589.24 633.99 589.28 634.07 589.26 634.15C589.19 634.45 588.99 634.56 588.8 634.65C588.7 634.69 588.6 634.72 588.5 634.77C588.4 634.82 588.3 634.86 588.2 634.9C587.78 635.04 587.34 635.14 586.89 635.15C586.44 635.17 585.97 635.1 585.53 634.91C585.1 634.72 584.71 634.4 584.44 634.02C583.9 633.25 583.73 632.3 583.85 631.41C583.91 630.97 584.05 630.54 584.19 630.13C584.26 629.92 584.34 629.72 584.46 629.54C584.57 629.36 584.72 629.19 584.97 629.1C585.05 629.07 585.13 629.11 585.16 629.19C585.15 629.19 585.16 629.2 585.16 629.21Z" fill="#371A45"/>
<path d="M573.15 642.26C573.7 642.19 574.26 642.37 574.72 642.65C575.19 642.92 575.6 643.29 575.96 643.68C576.68 644.47 577.26 645.34 577.81 646.19C578.36 647.04 578.92 647.88 579.61 648.56C580.3 649.24 581.16 649.73 582.06 650.18C582.96 650.63 583.92 651.05 584.79 651.68C585.65 652.31 586.38 653.1 586.96 653.98C587.55 654.85 588 655.79 588.4 656.74C588.6 657.22 588.79 657.69 588.99 658.16C589.18 658.64 589.35 659.12 589.3 659.68C589.29 659.75 589.23 659.8 589.17 659.79C589.14 659.79 589.11 659.77 589.09 659.76C588.68 659.37 588.49 658.89 588.31 658.42C588.15 657.94 587.96 657.47 587.77 657C587.38 656.07 586.94 655.17 586.39 654.35C585.85 653.52 585.17 652.8 584.39 652.22C583.6 651.65 582.68 651.24 581.76 650.78C580.84 650.33 579.9 649.8 579.13 649.04C578.37 648.29 577.79 647.41 577.23 646.56C576.67 645.71 576.14 644.86 575.45 644.16C575.1 643.82 574.73 643.51 574.34 643.24C573.95 642.96 573.55 642.75 573.1 642.48C573.04 642.45 573.02 642.37 573.06 642.32C573.08 642.29 573.12 642.27 573.15 642.26Z" fill="#371A45"/>
<path d="M584.99 649.07C585.17 648.97 585.3 648.99 585.41 649.03C585.52 649.07 585.61 649.14 585.71 649.21C585.9 649.35 586.1 649.46 586.29 649.59C586.67 649.85 587.05 650.12 587.41 650.4C587.77 650.68 588.13 650.98 588.47 651.29C588.64 651.45 588.81 651.61 588.97 651.77C589.05 651.85 589.13 651.94 589.23 652C589.31 652.08 589.39 652.17 589.29 652.42C589.26 652.5 589.2 652.55 589.13 652.57C588.88 652.65 588.79 652.58 588.72 652.5C588.66 652.4 588.58 652.33 588.5 652.25C588.34 652.09 588.18 651.94 588.02 651.79C587.69 651.49 587.35 651.2 587 650.93C586.65 650.66 586.29 650.4 585.92 650.15C585.73 650.03 585.55 649.9 585.35 649.8C585.25 649.75 585.15 649.71 585.06 649.63C584.97 649.56 584.9 649.46 584.89 649.26C584.88 649.18 584.92 649.11 584.99 649.07Z" fill="#371A45"/>
<path d="M573.2 646.77C573.78 647.01 574.2 647.54 574.49 648.07C574.78 648.61 574.96 649.19 575.12 649.74C575.28 650.3 575.44 650.84 575.66 651.35C575.87 651.86 576.14 652.34 576.49 652.73C576.84 653.12 577.29 653.39 577.79 653.57C578.29 653.74 578.85 653.82 579.41 653.87C579.98 653.92 580.56 653.94 581.15 654.02C581.74 654.1 582.35 654.23 582.92 654.51C583.49 654.79 583.99 655.21 584.36 655.7C584.74 656.19 585.01 656.75 585.23 657.3C585.66 658.42 585.88 659.57 586.18 660.67C586.47 661.77 586.89 662.82 587.45 663.8C587.72 664.29 588.03 664.77 588.38 665.21C588.72 665.66 589.06 666.1 589.28 666.68C589.3 666.74 589.27 666.81 589.21 666.84C589.18 666.85 589.14 666.85 589.12 666.84C588.54 666.58 588.15 666.12 587.8 665.64C587.47 665.15 587.15 664.65 586.86 664.13C586.28 663.1 585.83 661.99 585.53 660.85C585.22 659.72 585 658.59 584.6 657.55C584.4 657.03 584.15 656.54 583.82 656.12C583.5 655.7 583.09 655.35 582.61 655.12C581.66 654.65 580.5 654.65 579.34 654.55C578.75 654.5 578.15 654.42 577.56 654.22C576.97 654.02 576.4 653.67 575.98 653.19C575.13 652.24 574.8 651.03 574.44 649.95C574.26 649.4 574.07 648.88 573.85 648.38C573.62 647.88 573.37 647.43 573.05 646.94C573.01 646.89 573.03 646.81 573.08 646.78C573.12 646.76 573.16 646.76 573.2 646.77Z" fill="#371A45"/>
<path d="M573.16 656.51C573.61 656.45 574 656.46 574.42 656.47L575.67 656.5C576.51 656.5 577.41 656.47 578.29 656.63C578.73 656.71 579.18 656.83 579.6 657.03C580.02 657.23 580.42 657.51 580.73 657.88C581.05 658.24 581.26 658.68 581.4 659.12C581.54 659.56 581.6 660.01 581.64 660.45C581.7 661.34 581.68 662.18 581.74 663.02C581.79 663.86 581.88 664.7 582.04 665.52C582.2 666.34 582.44 667.14 582.77 667.9C582.94 668.28 583.12 668.65 583.36 668.98C583.58 669.33 583.8 669.66 583.89 670.13C583.9 670.2 583.86 670.27 583.79 670.28C583.77 670.28 583.74 670.28 583.72 670.27C583.25 670.1 582.97 669.73 582.74 669.35C582.53 668.96 582.32 668.57 582.14 668.16C581.79 667.35 581.54 666.5 581.37 665.64C581.2 664.78 581.11 663.92 581.05 663.05C580.99 662.19 581.01 661.32 580.95 660.5C580.89 659.68 580.7 658.88 580.2 658.32C579.71 657.74 578.95 657.43 578.16 657.3C577.36 657.16 576.53 657.16 575.67 657.2C575.24 657.22 574.8 657.23 574.36 657.17C573.92 657.12 573.47 657.01 573.09 656.73C573.04 656.69 573.03 656.61 573.07 656.56C573.09 656.53 573.12 656.51 573.16 656.51Z" fill="#371A45"/>
<path d="M584.38 663.98C584.59 664.06 584.68 664.18 584.74 664.31C584.81 664.44 584.85 664.57 584.88 664.71C584.96 664.98 585.08 665.25 585.18 665.51C585.4 666.04 585.63 666.56 585.89 667.06C586.15 667.57 586.42 668.07 586.72 668.56C586.87 668.8 587.02 669.04 587.18 669.28C587.26 669.4 587.34 669.52 587.44 669.62C587.53 669.73 587.6 669.86 587.48 670.11C587.45 670.19 587.37 670.23 587.3 670.24C587.02 670.26 586.93 670.15 586.85 670.02C586.79 669.88 586.71 669.76 586.62 669.64C586.46 669.39 586.3 669.15 586.15 668.89C585.85 668.39 585.56 667.87 585.3 667.35C585.04 666.83 584.79 666.29 584.57 665.75C584.45 665.48 584.36 665.2 584.24 664.93C584.18 664.8 584.12 664.66 584.09 664.52C584.06 664.37 584.06 664.22 584.18 664.03C584.21 663.98 584.3 663.95 584.38 663.98Z" fill="#371A45"/>
<path d="M573.11 660.43C573.37 660.2 573.66 660.11 573.96 660.05C574.26 659.99 574.57 659.99 574.89 660.02C575.51 660.06 576.15 660.18 576.73 660.47C577.31 660.76 577.8 661.2 578.17 661.7C578.54 662.21 578.82 662.77 579 663.36C579.38 664.54 579.41 665.8 579.19 667C579.08 667.6 578.91 668.19 578.68 668.75L578.32 669.59C578.19 669.86 578.01 670.12 577.66 670.25C577.59 670.28 577.5 670.24 577.48 670.16C577.48 670.15 577.48 670.14 577.47 670.13V670.12C577.41 669.74 577.55 669.51 577.68 669.25C577.83 669.01 577.95 668.75 578.05 668.49C578.26 667.97 578.42 667.42 578.52 666.87C578.72 665.77 578.69 664.62 578.35 663.56C578.02 662.51 577.37 661.54 576.41 661.06C575.94 660.82 575.4 660.7 574.86 660.7C574.59 660.7 574.31 660.73 574.03 660.73C573.75 660.74 573.47 660.74 573.15 660.63C573.08 660.61 573.05 660.53 573.07 660.46C573.08 660.46 573.09 660.45 573.11 660.43Z" fill="#371A45"/>
<path d="M573.1 664.13C573.22 663.92 573.42 663.84 573.61 663.81C573.8 663.78 574 663.8 574.18 663.85C574.55 663.94 574.92 664.09 575.22 664.35C575.82 664.86 576.12 665.63 576.08 666.4C576.06 666.78 575.93 667.18 575.73 667.49C575.53 667.81 575.27 668.08 575 668.31C574.73 668.54 574.44 668.73 574.16 668.91C574.02 669 573.87 669.09 573.75 669.2C573.61 669.29 573.46 669.37 573.2 669.25C573.12 669.22 573.08 669.14 573.08 669.06C573.1 668.76 573.23 668.67 573.37 668.59C573.52 668.52 573.66 668.44 573.8 668.35C574.07 668.17 574.34 667.99 574.57 667.8C575.05 667.41 575.39 666.93 575.41 666.37C575.44 665.82 575.21 665.23 574.79 664.88C574.58 664.71 574.33 664.58 574.05 664.55C573.91 664.54 573.78 664.54 573.64 664.52C573.5 664.51 573.36 664.48 573.17 664.35L573.16 664.34C573.08 664.3 573.06 664.2 573.1 664.13Z" fill="#371A45"/>
</g>
<g opacity="0.55">
<path d="M575.52 670.19H573.13V634.81H573.47C574.6 634.81 575.52 635.73 575.52 636.86V670.19Z" fill="white"/>
</g>
<g opacity="0.3">
<path d="M589.21 629.15V670.19H585.4V638.66C585.4 636.56 583.7 634.86 581.6 634.86H573.13V629.15H589.21Z" fill="#371A45"/>
</g>
<path d="M592.93 673.58V714.87C592.93 716.74 591.41 718.25 589.55 718.25H572.96C572.4 718.25 571.87 718.11 571.41 717.87C570.32 717.31 569.58 716.17 569.58 714.86V673.57C569.58 671.7 571.1 670.19 572.96 670.19H589.55C591.41 670.19 592.93 671.71 592.93 673.58Z" fill="#F9DC1B"/>
<path d="M589.54 718.42H572.95C572.38 718.42 571.82 718.28 571.32 718.03L571.23 717.98C570.1 717.36 569.4 716.18 569.4 714.87V673.58C569.4 671.62 570.99 670.03 572.95 670.03H589.54C591.5 670.03 593.09 671.62 593.09 673.58V714.87C593.1 716.83 591.5 718.42 589.54 718.42ZM571.58 717.77C572.01 717.97 572.48 718.08 572.96 718.08H589.55C591.32 718.08 592.77 716.64 592.77 714.86V673.57C592.77 671.8 591.33 670.35 589.55 670.35H572.96C571.19 670.35 569.74 671.79 569.74 673.57V714.86C569.74 716.07 570.41 717.16 571.48 717.72L571.58 717.77Z" fill="#000072"/>
<path d="M592.93 673.58V714.87C592.93 716.74 591.41 718.25 589.55 718.25H584.04C585.91 718.25 587.42 716.73 587.42 714.87V673.58C587.42 671.71 585.9 670.2 584.04 670.2H589.55C591.41 670.19 592.93 671.71 592.93 673.58Z" fill="#E89F02"/>
<path d="M589.54 718.42H584.03V718.08C585.8 718.08 587.25 716.64 587.25 714.86V673.57C587.25 671.8 585.81 670.35 584.03 670.35V670.01H589.54C591.5 670.01 593.09 671.6 593.09 673.56V714.85C593.1 716.83 591.5 718.42 589.54 718.42ZM585.55 718.09H589.54C591.31 718.09 592.76 716.65 592.76 714.87V673.58C592.76 671.81 591.32 670.36 589.54 670.36H585.55C586.76 670.93 587.59 672.16 587.59 673.58V714.87C587.59 716.29 586.76 717.52 585.55 718.09Z" fill="#E89F02"/>
<g opacity="0.55">
<path d="M573.97 717.88C574.43 718.12 574.96 718.26 575.52 718.26H572.96C572.4 718.26 571.87 718.12 571.41 717.88C570.32 717.32 569.58 716.18 569.58 714.87V673.58C569.58 671.71 571.1 670.2 572.96 670.2H575.52C573.65 670.2 572.14 671.72 572.14 673.58V714.87C572.13 716.18 572.88 717.32 573.97 717.88Z" fill="white"/>
</g>
<g opacity="0.2">
<path d="M559.76 608.25L562.01 620.52H557.5V608.25H559.76Z" fill="black"/>
</g>
<g opacity="0.2">
<path d="M583 608.8C583 610.55 580.79 610.08 578.06 610.08C575.33 610.08 573.12 610.55 573.12 608.8C573.12 607.05 575.33 605.63 578.06 605.63C580.79 605.63 583 607.05 583 608.8Z" fill="white"/>
</g>
<g opacity="0.2">
<path d="M579.76 690.39C579.76 693.66 578.38 696.31 576.68 696.31C574.98 696.31 574.95 693.66 574.95 690.39C574.95 687.12 574.98 684.47 576.68 684.47C578.38 684.46 579.76 687.12 579.76 690.39Z" fill="white"/>
</g>
<path d="M557.5 605.49V622.75C557.5 624.09 556.41 625.18 555.08 625.18H545.71C544.37 625.18 543.28 624.09 543.28 622.75V605.49C543.28 604.15 544.37 603.07 545.71 603.07H555.08C556.41 603.06 557.5 604.15 557.5 605.49Z" stroke="#0D2232" stroke-width="4" stroke-miterlimit="10" stroke-linecap="round" stroke-linejoin="round"/>
<path d="M567.95 620.52H557.5V608.25H566.37L567.95 620.52Z" stroke="#0D2232" stroke-width="4" stroke-miterlimit="10" stroke-linecap="round" stroke-linejoin="round"/>
<path d="M617.11 618.71C616.96 620.46 614.9 621.33 613.57 620.18C606.1 613.76 595.06 617.38 592.81 626.54C592.43 628.07 591.09 629.15 589.52 629.15H572.05C570.35 629.15 568.91 627.89 568.7 626.2L567.97 620.52L566.39 608.25L565.86 604.11C565.6 602.09 567.18 600.29 569.22 600.29H597.87C609.46 600.3 617.88 609.25 617.11 618.71Z" stroke="#0D2232" stroke-width="4" stroke-miterlimit="10" stroke-linecap="round" stroke-linejoin="round"/>
<path d="M589.21 629.15H573.13V670.19H589.21V629.15Z" stroke="#0D2232" stroke-width="4" stroke-miterlimit="10" stroke-linecap="round" stroke-linejoin="round"/>
<path d="M592.93 673.58V714.87C592.93 716.74 591.41 718.25 589.55 718.25H572.96C572.4 718.25 571.87 718.11 571.41 717.87C570.32 717.31 569.58 716.17 569.58 714.86V673.57C569.58 671.7 571.1 670.19 572.96 670.19H589.55C591.41 670.19 592.93 671.71 592.93 673.58Z" stroke="#0D2232" stroke-width="4" stroke-miterlimit="10" stroke-linecap="round" stroke-linejoin="round"/>
<path d="M620.54 710.32C620.53 710.27 620.53 710.22 620.53 710.17L622.34 626.11C622.35 625.47 622.88 624.97 623.52 624.98L637.98 625.29C638.29 625.3 638.58 625.42 638.79 625.65C638.97 625.83 639.08 626.07 639.1 626.32C639.11 626.37 639.11 626.42 639.11 626.47L637.3 710.53C637.29 711.17 636.76 711.67 636.12 711.66L621.66 711.35C621.35 711.34 621.06 711.22 620.85 710.99C620.67 710.8 620.57 710.57 620.54 710.32Z" fill="#C14854"/>
<path d="M626.124 626.191L624.333 710.254L633.591 710.451L635.382 626.388L626.124 626.191Z" fill="#E8656D"/>
<path opacity="0.5" d="M625.017 622.509L623.143 711.332L624.282 711.356L626.157 622.533L625.017 622.509Z" fill="white"/>
<path d="M617.78 628.24C616.99 627.65 616.23 626.99 615.52 626.29C611.3 622.14 608.94 616.59 608.89 610.66C608.84 604.73 611.1 599.15 615.26 594.93C616.34 593.83 617.53 592.85 618.81 592C619.19 591.75 619.68 591.74 620.07 591.99C620.1 592.01 620.12 592.02 620.14 592.04C620.48 592.29 620.65 592.71 620.59 593.13L618.85 604.74L631.8 611.2L641.95 600.88L636.88 591.12C636.66 590.7 636.72 590.19 637.03 589.83C637.34 589.47 637.83 589.34 638.28 589.49C640.47 590.24 642.51 591.32 644.37 592.71C645.16 593.3 645.92 593.96 646.63 594.65C650.85 598.8 653.21 604.35 653.26 610.28C653.31 616.2 651.05 621.79 646.89 626.01C639.12 633.92 626.61 634.87 617.78 628.24Z" fill="#E8656D"/>
<path d="M637.9 590.6L638.7 592.14C639.94 592.92 641.11 593.84 642.2 594.91C650.48 603.05 650.59 616.36 642.45 624.64C637.95 629.22 631.86 631.29 625.92 630.86C632.92 632.62 640.64 630.74 646.06 625.22C654.2 616.94 654.09 603.63 645.81 595.49C643.49 593.22 640.78 591.58 637.9 590.6Z" fill="#C14854"/>
<path opacity="0.5" d="M615.96 621.81C623.91 631.97 634.48 628.5 634.48 628.5C634.48 628.5 626.62 626.68 620.79 620.4C614.7 613.85 612.41 606.89 612.41 606.89C612.41 606.89 610.2 614.45 615.96 621.81Z" fill="white"/>
<path opacity="0.5" d="M617.85 707.99C620.81 704.09 623.79 704.79 623.79 704.79C623.79 704.79 619.89 708.21 617.72 712.92C615.68 717.35 615.98 724.53 615.98 724.53C615.98 724.53 613.98 719.71 614.26 717.27C614.73 713.29 615.86 710.62 617.85 707.99Z" fill="white"/>
<path d="M620.7 702.18L622.24 630.81" stroke="#0D2232" stroke-width="4" stroke-miterlimit="10" stroke-linecap="round" stroke-linejoin="round"/>
<path d="M639.01 631.2L637.47 702.57" stroke="#0D2232" stroke-width="4" stroke-miterlimit="10" stroke-linecap="round" stroke-linejoin="round"/>
<path d="M617.78 628.24C616.99 627.65 616.23 626.99 615.52 626.29C611.3 622.14 608.94 616.59 608.89 610.66C608.84 604.73 611.1 599.15 615.26 594.93C616.34 593.83 617.53 592.85 618.81 592C619.19 591.75 619.68 591.74 620.07 591.99C620.1 592.01 620.12 592.02 620.14 592.04C620.48 592.29 620.65 592.71 620.59 593.13L618.85 604.74L631.8 611.2L641.95 600.88L636.88 591.12C636.66 590.7 636.72 590.19 637.03 589.83C637.34 589.47 637.83 589.34 638.28 589.49C640.47 590.24 642.51 591.32 644.37 592.71C645.16 593.3 645.92 593.96 646.63 594.65C650.85 598.8 653.21 604.35 653.26 610.28C653.31 616.2 651.05 621.79 646.89 626.01C639.12 633.92 626.61 634.87 617.78 628.24Z" stroke="#0D2232" stroke-width="4" stroke-miterlimit="10" stroke-linecap="round" stroke-linejoin="round"/>
<path d="M555.53 658.93V717.09C555.53 717.09 567.1 734.45 589.6 734.45C612.1 734.45 628.17 734.45 628.17 734.45L634.92 725.77C634.92 725.77 640.38 684.95 641.03 669.2C641.03 669.2 579.32 670.85 555.53 658.93Z" fill="#FEC400"/>
<path d="M560.79 661.15V704.81C560.79 712.24 564.99 719.05 571.66 722.31C582.63 727.68 602.64 732.8 634.92 725.78L628.17 734.46L586.22 734.7C586.22 734.7 564.52 731.89 555.52 717.1V658.94L560.79 661.15Z" fill="#E89F02"/>
<path d="M555.53 658.93V712.14C555.53 715.76 556.99 719.22 559.55 721.78C564.7 726.92 574.78 734.45 589.6 734.45H621.1C625.56 734.45 629.77 732.39 632.51 728.87C634.09 726.84 635.1 724.42 635.43 721.87C636.8 711.28 640.5 681.99 641.02 669.2C641.03 669.2 579.32 670.85 555.53 658.93Z" stroke="#0D2232" stroke-width="4" stroke-miterlimit="10" stroke-linecap="round" stroke-linejoin="round"/>
<path d="M555.53 674.02C555.53 674.02 575.23 690.92 639.51 684.49" stroke="#0D2232" stroke-width="4" stroke-miterlimit="10" stroke-linecap="round" stroke-linejoin="round"/>
</svg>
