<svg width="554" height="722" viewBox="0 0 554 722" fill="none" xmlns="http://www.w3.org/2000/svg">
<g clip-path="url(#clip0_1242_235)">
<path d="M453.6 373.55C453.6 373.55 481.24 389.62 475.46 410.84C469.68 432.06 428.53 460.34 428.53 460.34C428.53 460.34 426.6 436.55 397.67 431.41L415.67 413.41L453.6 373.55Z" fill="#FBC6A6"/>
<path d="M397.67 431.4L388.67 436.86V492.79H429.17L428.53 460.33C428.53 460.33 425.95 435.9 397.67 431.4Z" fill="#FBC6A6"/>
<path opacity="0.16" d="M449.54 377.81C449.54 377.81 475.02 390.25 469.37 410.97C463.72 431.7 428.07 453.72 428.07 453.72" stroke="black" stroke-width="6" stroke-miterlimit="10"/>
<path opacity="0.16" d="M425.17 492.8L424.53 447.75" stroke="black" stroke-width="6" stroke-miterlimit="10"/>
<path opacity="0.5" d="M403.83 431.97L458.98 375.05" stroke="white" stroke-width="6" stroke-miterlimit="10"/>
<path opacity="0.5" d="M393.83 433.12V494.36" stroke="white" stroke-width="6" stroke-miterlimit="10"/>
<path d="M453.6 373.55C453.6 373.55 481.24 389.62 475.46 410.84C469.68 432.06 428.53 460.34 428.53 460.34C428.53 460.34 426.6 436.55 397.67 431.41L415.67 413.41L453.6 373.55Z" stroke="#0D2232" stroke-width="6" stroke-miterlimit="10" stroke-linecap="round" stroke-linejoin="round"/>
<path d="M397.67 431.4L388.67 436.86V492.79H429.17L428.53 460.33C428.53 460.33 425.95 435.9 397.67 431.4Z" stroke="#0D2232" stroke-width="6" stroke-miterlimit="10" stroke-linecap="round" stroke-linejoin="round"/>
<path d="M211.49 352.03L179.58 372.74L110.98 354.27L91.1101 395.07C91.1101 395.07 166.93 423.95 191.25 423.94L216.26 407.16L211.49 352.03Z" fill="#FBC6A6"/>
<path opacity="0.16" d="M110.98 359.86L179.58 378.33L211.49 357.62" stroke="black" stroke-width="6" stroke-miterlimit="10"/>
<path opacity="0.5" d="M216.25 402.15L191.24 418.93C191.24 418.93 168.05 416.58 138.5 406.58C108.95 396.59 91.1001 390.06 91.1001 390.06" stroke="white" stroke-width="6" stroke-miterlimit="10"/>
<path d="M211.49 352.03L179.58 372.74L111.98 354.54L91.1101 395.07C91.1101 395.07 166.93 423.95 191.25 423.94L216.26 407.16L211.49 352.03Z" stroke="#0D2232" stroke-width="6" stroke-miterlimit="10"/>
<path d="M113.53 349.97C113.53 349.97 113.76 337.03 102.06 331.85C102.06 331.85 105.4 295.82 82.69 298.18C82.69 298.18 67.94 296.94 73.12 331.25C73.12 331.25 71.1 345.43 52.99 343.29C34.88 341.15 -2.78002 323.61 5.16998 361.7C5.16998 361.7 -9.38001 381.62 12.6 390.91C12.6 390.91 8.06998 410.62 30.19 411.15C52.31 411.68 81.43 406.33 93.64 390.77L113.53 349.97Z" fill="#FBC6A6"/>
<path d="M5.15991 361.69L29.3299 365.43L49.4599 360.75" stroke="#0D2232" stroke-width="6" stroke-miterlimit="10" stroke-linecap="round" stroke-linejoin="round"/>
<path d="M12.5901 390.89C12.5901 390.89 11.2701 382.51 44.7401 380.68L61.3201 372" stroke="#0D2232" stroke-width="6" stroke-miterlimit="10" stroke-linecap="round" stroke-linejoin="round"/>
<path opacity="0.16" d="M102.05 331.85C102.05 331.85 102.64 300.73 83.2099 302.14C83.2099 302.14 73.2999 302.01 76.2199 331.45C76.2199 331.45 71.6199 349.39 53.4999 347.24C35.3799 345.1 0.0099268 325.24 7.96993 363.33" stroke="black" stroke-width="6" stroke-miterlimit="10"/>
<path opacity="0.5" d="M98.7001 380.36L92.0001 387.51C92.0001 387.51 70.9301 401.85 53.4701 404.51C36.0101 407.17 15.7801 405.43 12.3501 397.37" stroke="white" stroke-width="6" stroke-miterlimit="10"/>
<path d="M113.53 349.97C113.53 349.97 113.76 337.03 102.06 331.85C102.06 331.85 105.4 295.82 82.69 298.18C82.69 298.18 67.94 296.94 73.12 331.25C73.12 331.25 71.1 345.43 52.99 343.29C34.88 341.15 -2.78002 323.61 5.16998 361.7C5.16998 361.7 -9.38001 381.62 12.6 390.91C12.6 390.91 8.06998 410.62 30.19 411.15C52.31 411.68 81.43 406.33 93.64 390.77L113.53 349.97Z" stroke="#0D2232" stroke-width="6" stroke-miterlimit="10"/>
<path d="M225.278 656.609L298.708 656.609L298.708 635.109L225.278 635.109L225.278 656.609Z" fill="#435F84" stroke="#0D2232" stroke-width="6" stroke-miterlimit="10" stroke-linecap="round" stroke-linejoin="round"/>
<path d="M436.18 595.45V636.39L455.47 656.63L474.11 636.39L474.08 535.57H458.97L436.18 595.45Z" fill="#AFCADC"/>
<path d="M455.15 632.47C459.143 632.47 462.38 629.233 462.38 625.24C462.38 621.247 459.143 618.01 455.15 618.01C451.157 618.01 447.92 621.247 447.92 625.24C447.92 629.233 451.157 632.47 455.15 632.47Z" stroke="#0D2232" stroke-width="4" stroke-miterlimit="10" stroke-linecap="round" stroke-linejoin="round"/>
<path opacity="0.2" d="M474.11 536.66H467.47V632.47L455.54 644.4L443.11 631.97V542.92L436.18 543.38V636.39L455.95 656.15L474.92 637.19L474.11 536.66Z" fill="black"/>
<path d="M436.18 595.45V636.39L455.47 656.63L474.11 636.39V536.66H459.01L436.18 595.45Z" stroke="#0D2232" stroke-width="4" stroke-miterlimit="10" stroke-linecap="round" stroke-linejoin="round"/>
<path d="M456.06 145.08C456.06 145.08 450.08 150.43 423.66 152.63C397.23 154.83 211.27 160.42 211.27 160.42L199.82 154.83C199.82 154.83 173.51 153.38 169.78 145.08C166.05 136.78 259.85 103.87 259.85 103.87L378.36 100.25L405.42 111.02L456.06 145.08Z" fill="#CFB300"/>
<path d="M456.06 145.08C456.06 145.08 450.08 150.43 423.66 152.63C397.23 154.83 211.27 160.42 211.27 160.42L199.82 154.83C199.82 154.83 173.51 153.38 169.78 145.08C166.05 136.78 259.85 103.87 259.85 103.87L378.36 100.25L405.42 111.02L456.06 145.08Z" stroke="#0D2232" stroke-width="6" stroke-miterlimit="10" stroke-linecap="round" stroke-linejoin="round"/>
<path d="M200.86 193.85C200.86 193.85 170.67 197.47 174.44 232.39C178.22 267.31 221.7 260.02 221.7 260.02L217.96 209.89L200.86 193.85Z" fill="#FBC6A6" stroke="#0D2232" stroke-width="6" stroke-miterlimit="10"/>
<path d="M432.46 193.85C432.46 193.85 455.43 197.63 457.16 223.11C458.89 248.59 430.55 271.1 408.38 262.2C386.21 253.3 402.57 215.24 402.57 215.24L432.46 193.85Z" fill="#FBC6A6" stroke="#0D2232" stroke-width="6" stroke-miterlimit="10"/>
<path opacity="0.4" d="M430.42 208.95C430.42 208.95 442.35 215.27 437.26 229.01C430.14 248.26 415.63 242.92 415.63 242.92L420.03 219.01L430.42 208.95Z" fill="black"/>
<path opacity="0.4" d="M196.48 208.95C196.48 208.95 184.55 215.27 189.64 229.01C196.76 248.26 211.27 242.92 211.27 242.92L206.87 219.01L196.48 208.95Z" fill="black"/>
<path d="M418.83 197.62V226.29C418.83 226.29 418.57 231.26 416.75 238.95C412.67 256.19 400.76 287.11 366.39 306.47C361.5 309.22 356.58 311.51 351.65 313.37C337.33 318.78 322.99 320.61 309.32 319.85C279.87 318.21 253.61 304.54 237.72 288.85C211.92 263.37 210.35 224.53 210.35 224.53V170.25L240.87 133.44L397.62 135.33L416.94 157.98L418.83 197.62Z" fill="#FBC6A6"/>
<path opacity="0.5" d="M257.34 292.89C277.66 307.55 296.71 315.04 311.33 318.86C281.88 317.22 255.62 303.55 239.73 287.86C213.93 262.38 212.36 223.54 212.36 223.54V213.94L220.82 207.32C220.82 207.32 213.3 261.11 257.34 292.89Z" fill="white"/>
<path opacity="0.5" d="M413.75 238.95C409.67 256.19 397.76 287.11 363.39 306.47C358.5 309.22 353.58 311.51 348.65 313.37C366.14 299.74 394.61 274.61 403.34 249.63C406.31 241.18 409.93 238.31 413.75 238.95Z" fill="white"/>
<path d="M456.06 145.08C456.06 145.08 445.05 140.99 430.26 140.99C415.47 140.99 195.42 140.99 195.42 140.99C195.42 140.99 175.44 140.2 169.78 145.08V131.4C169.78 126.1 174.08 121.8 179.38 121.8H446.47C451.77 121.8 456.07 126.1 456.07 131.4V145.08H456.06Z" fill="#F9DC1B"/>
<path d="M440.83 121.8C440.83 121.91 440.83 121.96 440.83 121.96H312.79V121.8H184.74C184.74 121.8 184.74 121.77 184.74 121.72C184.7 120.67 184.29 110.23 184.74 105.45C185.21 100.41 189.3 100.26 189.3 100.26C189.3 100.26 196.38 37.5 267.79 16.74C267.79 16.74 267.16 4.14999 278.8 2.89999C290.44 1.63999 312.78 0.0700073 312.78 0.0700073V0.229996C312.78 0.229996 335.11 1.8 346.75 3.06C358.39 4.32 357.76 16.9 357.76 16.9C429.17 37.66 436.25 100.42 436.25 100.42C436.25 100.42 440.34 100.58 440.81 105.61C441.26 110.28 440.89 120.41 440.83 121.8Z" fill="#F9DC1B"/>
<path opacity="0.73" d="M440.83 121.8H429.95C429.95 121.8 424.44 57.62 357.91 25.53L357.87 18.27C357.87 18.27 305.7 1.93 267.68 19.55L268.16 29.94C268.16 29.94 209.11 46.29 194.64 121.48L184.75 121.71C184.71 120.66 184.3 110.22 184.75 105.44C185.22 100.4 189.31 100.25 189.31 100.25C189.31 100.25 196.39 37.49 267.8 16.73C267.8 16.73 267.17 4.14 278.81 2.89C290.45 1.63 312.79 0.0599976 312.79 0.0599976V0.220001C312.79 0.220001 335.12 1.79 346.76 3.05C358.4 4.31 357.77 16.89 357.77 16.89C429.18 37.65 436.26 100.41 436.26 100.41C436.26 100.41 440.35 100.57 440.82 105.6C441.26 110.28 440.89 120.41 440.83 121.8Z" fill="white"/>
<path d="M440.82 105.6C440.35 100.57 436.26 100.41 436.26 100.41C436.26 100.41 429.18 37.65 357.77 16.89C357.77 16.89 358.4 4.31 346.76 3.05C335.12 1.79 312.78 0.220001 312.78 0.220001V0.0599976C312.78 0.0599976 290.44 1.63 278.8 2.89C267.16 4.15 267.79 16.73 267.79 16.73C196.38 37.49 189.3 100.25 189.3 100.25C189.3 100.25 185.21 100.41 184.74 105.44C184.27 110.47 184.74 121.8 184.74 121.8H312.78V121.96H440.82C440.82 121.96 441.3 110.64 440.82 105.6Z" stroke="#0D2232" stroke-width="6" stroke-miterlimit="10" stroke-linecap="round" stroke-linejoin="round"/>
<path d="M357.15 329.86H387.47V495.54H237.73V329.86H357.15Z" fill="white"/>
<path d="M360.94 336.67H267.4V437.55H360.94V336.67Z" fill="#F9DC1B"/>
<path d="M387.48 458.73H237.73V495.54H387.48V458.73Z" fill="#F9DC1B"/>
<path d="M338.92 317.8C338.92 317.8 309.54 324.09 289.52 317.8L282.6 348.74L300.85 355.55C300.85 355.55 312.92 360.58 327.6 355.55C342.28 350.52 346.9 335.84 346.9 335.84L338.92 317.8Z" fill="#FBC6A6" stroke="#0D2232" stroke-width="6" stroke-miterlimit="10"/>
<path d="M357.97 351.83C357.18 363.68 355.28 374.64 355.28 374.64L327.59 355.55C327.59 355.55 330.76 348.04 333.37 340.6C334.89 336.25 336.23 331.91 336.61 329.12C337.66 321.57 338.92 317.8 338.92 317.8C338.92 317.8 355.07 316.96 357.58 331.85C358.53 337.41 358.44 344.77 357.97 351.83Z" fill="#435F84"/>
<path d="M357.97 351.83C350.84 351.3 342.54 347.75 338.26 344.71C336.54 343.48 334.86 342.12 333.37 340.6C334.89 336.25 336.23 331.91 336.61 329.12C337.66 321.57 338.92 317.8 338.92 317.8C338.92 317.8 355.07 316.96 357.58 331.85C358.53 337.41 358.44 344.77 357.97 351.83Z" fill="#253B5A"/>
<path d="M338.92 317.8C338.92 317.8 355.07 316.96 357.59 331.85C360.11 346.74 355.28 374.63 355.28 374.63L327.6 355.54C327.6 355.54 335.57 336.66 336.62 329.11C337.67 321.56 338.92 317.8 338.92 317.8Z" stroke="#0D2232" stroke-width="6" stroke-miterlimit="10"/>
<path d="M270.48 351.83C271.27 363.68 273.17 374.64 273.17 374.64L300.86 355.55C300.86 355.55 297.69 348.04 295.08 340.6C293.56 336.25 292.22 331.91 291.84 329.12C290.79 321.57 289.53 317.8 289.53 317.8C289.53 317.8 273.38 316.96 270.87 331.85C269.91 337.41 270 344.77 270.48 351.83Z" fill="#435F84"/>
<path d="M270.48 351.83C277.61 351.3 285.91 347.75 290.19 344.71C291.91 343.48 293.59 342.12 295.08 340.6C293.56 336.25 292.22 331.91 291.84 329.12C290.79 321.57 289.53 317.8 289.53 317.8C289.53 317.8 273.38 316.96 270.87 331.85C269.91 337.41 270 344.77 270.48 351.83Z" fill="#253B5A"/>
<path d="M289.52 317.8C289.52 317.8 273.37 316.96 270.85 331.85C268.33 346.74 273.16 374.63 273.16 374.63L300.84 355.54C300.84 355.54 292.87 336.66 291.82 329.11C290.77 321.56 289.52 317.8 289.52 317.8Z" stroke="#0D2232" stroke-width="6" stroke-miterlimit="10"/>
<path d="M292.36 389.31H253.35V424.96H292.36V389.31Z" fill="#F9DC1B" stroke="#0D2232" stroke-width="6" stroke-miterlimit="10"/>
<path d="M292.36 403.37H253.35" stroke="#0D2232" stroke-width="6" stroke-miterlimit="10"/>
<path d="M357.77 16.89C357.77 16.89 358.87 27.43 354.62 48.98L357.77 16.89Z" fill="#F9DC1B"/>
<path d="M357.77 16.89C357.77 16.89 358.87 27.43 354.62 48.98" stroke="#0D2232" stroke-width="6" stroke-miterlimit="10" stroke-linecap="round" stroke-linejoin="round"/>
<path d="M436.26 100.41H403.83C400.4 100.41 397.62 103.19 397.62 106.62V121.96" stroke="#0D2232" stroke-width="6" stroke-miterlimit="10" stroke-linecap="round" stroke-linejoin="round"/>
<path d="M267.8 16.73C267.8 16.73 266.7 27.27 270.95 48.82L267.8 16.73Z" fill="#F9DC1B"/>
<path d="M267.8 16.73C267.8 16.73 266.7 27.27 270.95 48.82" stroke="#0D2232" stroke-width="6" stroke-miterlimit="10" stroke-linecap="round" stroke-linejoin="round"/>
<path d="M189.31 100.25H221.74C225.17 100.25 227.95 103.03 227.95 106.46V121.8" stroke="#0D2232" stroke-width="6" stroke-miterlimit="10" stroke-linecap="round" stroke-linejoin="round"/>
<path opacity="0.74" d="M442.68 131.19C436.22 128.73 429.12 128.78 422.22 128.85C371.77 129.39 321.32 129.92 270.87 130.46C248.45 130.7 226.04 130.94 203.62 131.18C193.67 131.29 182.51 131.91 175.81 139.25C174.49 140.7 173.2 142.48 171.26 142.77C168.3 143.22 166.11 139.78 166.05 136.79C165.93 131.18 170.25 126.23 175.35 123.87C180.45 121.52 186.23 121.24 191.84 121.05C274.94 118.22 358.28 126.29 441.2 120.16C445.99 119.81 451.65 119.78 454.52 123.64C456.1 125.77 456.36 128.58 456.57 131.23C456.77 133.9 458.95 143.86 453.58 140.05C451.84 138.82 450.64 136.13 448.84 134.69C447 133.22 444.89 131.96 442.68 131.19Z" fill="white"/>
<path d="M456.06 145.08C456.06 145.08 445.05 140.99 430.26 140.99C415.47 140.99 195.42 140.99 195.42 140.99C195.42 140.99 175.44 140.2 169.78 145.08V131.4C169.78 126.1 174.08 121.8 179.38 121.8H446.47C451.77 121.8 456.07 126.1 456.07 131.4V145.08H456.06Z" stroke="#0D2232" stroke-width="6" stroke-miterlimit="10" stroke-linecap="round" stroke-linejoin="round"/>
<path d="M218.78 175.08C218.78 175.08 218.24 204.07 218.78 212.41C219.32 220.75 213.66 228.3 205.01 222.48C196.36 216.66 198.04 182.06 198.04 182.06C198.04 182.06 207.02 182.47 218.78 175.08Z" fill="#253B5A" stroke="#0D2232" stroke-width="6" stroke-miterlimit="10"/>
<path d="M266.22 221.47C275.079 221.47 282.26 214.289 282.26 205.43C282.26 196.571 275.079 189.39 266.22 189.39C257.361 189.39 250.18 196.571 250.18 205.43C250.18 214.289 257.361 221.47 266.22 221.47Z" fill="#0D2232"/>
<path d="M361.05 221.47C369.909 221.47 377.09 214.289 377.09 205.43C377.09 196.571 369.909 189.39 361.05 189.39C352.191 189.39 345.01 196.571 345.01 205.43C345.01 214.289 352.191 221.47 361.05 221.47Z" fill="#0D2232"/>
<path d="M381.91 177.19C380.62 177.19 379.33 176.75 378.28 175.84C377.79 175.43 367.01 166.47 351.21 168.94C348.17 169.42 345.32 167.34 344.85 164.3C344.37 161.26 346.45 158.41 349.49 157.94C370.58 154.64 384.97 166.89 385.57 167.42C387.89 169.44 388.14 172.96 386.12 175.28C385.02 176.54 383.47 177.19 381.91 177.19Z" fill="#0D2232"/>
<path d="M245.83 177.19C247.12 177.19 248.41 176.75 249.46 175.84C249.95 175.43 260.73 166.47 276.53 168.94C279.57 169.42 282.42 167.34 282.89 164.3C283.37 161.26 281.29 158.41 278.25 157.94C257.16 154.64 242.77 166.89 242.17 167.42C239.85 169.44 239.6 172.96 241.62 175.28C242.72 176.54 244.27 177.19 245.83 177.19Z" fill="#0D2232"/>
<path d="M363.27 252.87C359.08 260.56 352.92 268.93 344.12 275.09C336.35 280.53 326.52 284.24 314.17 284.24C300.7 284.24 290.27 279.82 282.25 273.57C274.56 267.58 269.09 259.89 265.28 252.79C261.95 246.56 263.94 239.46 268.81 235.51C271.15 233.61 274.15 232.44 277.54 232.44H351.06C354.45 232.44 357.45 233.61 359.79 235.51C364.68 239.48 366.67 246.64 363.27 252.87Z" fill="#162336"/>
<path d="M342.96 249.64C327.18 249.64 279.78 249.64 279.78 249.64C279.78 249.64 267.15 250.12 268.82 235.51C271.16 233.61 274.16 232.44 277.55 232.44H351.07C354.46 232.44 357.46 233.61 359.8 235.51C359.97 235.66 358.73 249.64 342.96 249.64Z" fill="white"/>
<path d="M344.13 275.09C336.36 280.53 326.53 284.24 314.18 284.24C300.71 284.24 290.28 279.82 282.26 273.57C286.99 263.16 304.5 259.68 322.15 260.65C335.74 261.39 341.64 269.42 344.13 275.09Z" fill="#DD1010"/>
<path d="M277.54 232.44H351.06C361.55 232.44 368.29 243.66 363.27 252.87C355.37 267.36 340.51 284.24 314.17 284.24C287.78 284.24 273.06 267.3 265.28 252.79C260.35 243.58 267.09 232.44 277.54 232.44Z" stroke="#0D2232" stroke-width="6" stroke-miterlimit="10"/>
<path d="M387.48 495.54H237.73V529.41H387.48V495.54Z" fill="#253B5A" stroke="#0D2232" stroke-width="6" stroke-miterlimit="10"/>
<path d="M338.29 495.54H290.89V529.41H338.29V495.54Z" fill="#C3CDD4" stroke="#0D2232" stroke-width="6" stroke-miterlimit="10"/>
<path d="M456.29 706H459.65C461.27 706 462.59 707.31 462.59 708.94V717.59C462.59 719.99 460.64 721.94 458.24 721.94H381.85L366.23 711.45V721.94H327.48C325.08 721.94 323.13 719.99 323.13 717.59V701.13C323.13 698.84 324.99 696.98 327.28 696.99H328.72L430.35 696.1L456.29 706Z" fill="#484D60" stroke="#0D2232" stroke-width="6" stroke-miterlimit="10" stroke-linecap="round" stroke-linejoin="round"/>
<path d="M457.87 702.23L456.3 706H386.3L368.21 696.98H328.71C328.71 696.98 326.9 688.28 328.42 677.5C329.36 670.81 331.59 663.32 336.33 656.61H396.52L401.24 661.65C401.24 661.65 409.73 661.96 410.36 669.83C410.36 669.83 411.85 669.08 414.42 668.26C419.49 666.64 428.75 664.71 438.99 667.63C454.4 672.03 461.64 691.85 457.87 702.23Z" fill="#E89F02"/>
<path d="M351.84 696.99H328.7C328.7 696.99 326.89 688.29 328.41 677.51C328.5 677.5 328.6 677.5 328.7 677.49C351.81 676.33 351.84 696.99 351.84 696.99Z" fill="#834526"/>
<path opacity="0.75" d="M457.87 702.23L456.3 706H446.23C446.23 706 455.19 673.71 414.43 668.25C419.5 666.63 428.76 664.7 439 667.62C454.4 672.03 461.64 691.85 457.87 702.23Z" fill="white"/>
<path d="M396.52 656.61L401.24 661.64C401.24 661.64 409.73 661.95 410.36 669.82C410.36 669.82 423.57 663.21 438.99 667.62C454.41 672.02 461.64 691.84 457.87 702.23L456.3 706.01H386.3L368.21 696.99H328.71C328.71 696.99 323.96 674.13 336.33 656.62H396.52V656.61Z" stroke="#0D2232" stroke-width="6" stroke-miterlimit="10" stroke-linecap="round" stroke-linejoin="round"/>
<path d="M410.36 669.83C410.36 669.83 390.12 676.44 386.29 706.01" stroke="#0D2232" stroke-width="6" stroke-miterlimit="10" stroke-linecap="round" stroke-linejoin="round"/>
<path d="M401.24 661.65C401.24 661.65 387.08 664.48 381.84 677.48" stroke="#0D2232" stroke-width="6" stroke-miterlimit="10" stroke-linecap="round" stroke-linejoin="round"/>
<path d="M401.24 635.12H327.81V656.62H401.24V635.12Z" fill="#435F84" stroke="#0D2232" stroke-width="6" stroke-miterlimit="10" stroke-linecap="round" stroke-linejoin="round"/>
<path d="M394.63 635.12L386.14 529.41H313.26V549.97L323.11 549.34L333.6 635.12H394.63Z" fill="#435F84" stroke="#0D2232" stroke-width="6" stroke-miterlimit="10" stroke-linecap="round" stroke-linejoin="round"/>
<path d="M170.22 706H166.86C165.24 706 163.92 707.31 163.92 708.94V717.59C163.92 719.99 165.87 721.94 168.27 721.94H244.66L260.28 711.45V721.94H299.03C301.43 721.94 303.38 719.99 303.38 717.59V701.13C303.38 698.84 301.52 696.98 299.23 696.99H297.79L196.16 696.1L170.22 706Z" fill="#484D60" stroke="#0D2232" stroke-width="6" stroke-miterlimit="10" stroke-linecap="round" stroke-linejoin="round"/>
<path d="M168.65 702.23L170.22 706H240.22L258.31 696.98H297.81C297.81 696.98 299.62 688.28 298.1 677.5C297.16 670.81 294.93 663.32 290.19 656.61H230L225.28 661.65C225.28 661.65 216.79 661.96 216.16 669.83C216.16 669.83 214.67 669.08 212.1 668.26C207.03 666.64 197.77 664.71 187.53 667.63C172.11 672.03 164.87 691.85 168.65 702.23Z" fill="#E89F02"/>
<path d="M274.67 696.99H297.81C297.81 696.99 299.62 688.29 298.1 677.51C298.01 677.5 297.91 677.5 297.81 677.49C274.7 676.33 274.67 696.99 274.67 696.99Z" fill="#834526"/>
<path opacity="0.75" d="M168.65 702.23L170.22 706H180.29C180.29 706 171.33 673.71 212.09 668.25C207.02 666.63 197.76 664.7 187.52 667.62C172.11 672.03 164.87 691.85 168.65 702.23Z" fill="white"/>
<path d="M229.99 656.61L225.27 661.64C225.27 661.64 216.78 661.95 216.15 669.82C216.15 669.82 202.94 663.21 187.52 667.62C172.1 672.02 164.87 691.84 168.64 702.23L170.21 706.01H240.21L258.3 696.99H297.8C297.8 696.99 302.55 674.13 290.18 656.62H229.99V656.61Z" stroke="#0D2232" stroke-width="6" stroke-miterlimit="10" stroke-linecap="round" stroke-linejoin="round"/>
<path d="M216.15 669.83C216.15 669.83 236.39 676.44 240.22 706.01" stroke="#0D2232" stroke-width="6" stroke-miterlimit="10" stroke-linecap="round" stroke-linejoin="round"/>
<path d="M225.27 661.65C225.27 661.65 239.43 664.48 244.67 677.48" stroke="#0D2232" stroke-width="6" stroke-miterlimit="10" stroke-linecap="round" stroke-linejoin="round"/>
<path d="M231.88 635.12L240.38 529.41H313.26V549.97L303.4 549.34L292.91 635.12H231.88Z" fill="#435F84" stroke="#0D2232" stroke-width="6" stroke-miterlimit="10" stroke-linecap="round" stroke-linejoin="round"/>
<path d="M225.46 415.11L199.87 426.85L176.93 378.32L170.72 365.19L195.26 353.03L202.02 366.92L225.46 415.11Z" fill="#435F84"/>
<path opacity="0.21" d="M202.02 366.92L201.98 366.96L176.93 378.32L170.72 365.19L195.26 353.03L202.02 366.92Z" fill="white"/>
<path d="M237.73 336.67V403.37L223.15 410.92L201.98 366.96L197.57 357.78L237.73 336.67Z" fill="#F9DC1B"/>
<path opacity="0.5" d="M237.73 336.67V348.62L201.98 366.96L197.57 357.78L237.73 336.67Z" fill="white"/>
<path d="M400.27 415.11L425.86 426.85L448.8 378.32L455.01 365.19L430.47 353.03L423.71 366.92L400.27 415.11Z" fill="#435F84"/>
<path opacity="0.21" d="M423.71 366.92L423.75 366.96L448.8 378.32L455.01 365.19L430.47 353.03L423.71 366.92Z" fill="white"/>
<path d="M388 336.67V403.37L402.58 410.92L423.75 366.96L428.16 357.78L388 336.67Z" fill="#F9DC1B"/>
<path opacity="0.5" d="M388 336.67V348.62L423.75 366.96L428.16 357.78L388 336.67Z" fill="white"/>
<g opacity="0.16">
<path d="M217.65 140.99H418.83L423.65 152.63H211.26L217.65 140.99Z" fill="black"/>
<path d="M198.04 182.06C198.04 182.06 233.66 190.84 269.31 152.64L237.73 147.85L198.04 182.06Z" fill="black"/>
<path d="M285.23 179.37C285.23 179.37 338.38 188.19 372.45 146.81L342.95 147.84L285.23 179.37Z" fill="black"/>
</g>
<path opacity="0.16" d="M415.63 205.43C415.63 205.43 398.33 302.81 295.07 315.33C295.07 315.33 403.2 330.69 416.57 226.24L415.63 205.43Z" fill="black"/>
<path d="M411.2 393.02L388 383.65V403.37L402.58 410.92L411.2 393.02Z" fill="#E89F02"/>
<path d="M237.73 373L210.36 384.35L223.15 410.92L237.73 403.37V373Z" fill="#E89F02"/>
<path d="M381.45 477.14H243.64V489.43H381.45V477.14Z" fill="#E89F02"/>
<path d="M357.57 329.86H388V495.54H237.73V329.86H267.51" stroke="#0D2232" stroke-width="6" stroke-miterlimit="10"/>
<path d="M430.47 353.03L400.27 415.11L425.86 426.86L455.01 365.19L430.47 353.03Z" stroke="#0D2232" stroke-width="6" stroke-miterlimit="10" stroke-linecap="round" stroke-linejoin="round"/>
<path d="M195.26 353.03L225.46 415.11L199.87 426.86L170.72 365.19L195.26 353.03Z" stroke="#0D2232" stroke-width="6" stroke-miterlimit="10" stroke-linecap="round" stroke-linejoin="round"/>
<path d="M250.63 140.99C250.63 140.99 223.57 187.24 191.48 181.57C188.57 181.05 185.95 180.47 183.62 179.85C160.27 173.57 164.43 162.44 164.43 162.44C164.43 162.44 183.95 167.8 197.46 142.81C197.78 142.22 198.09 141.62 198.4 141H250.63V140.99Z" fill="#253B5A"/>
<path opacity="0.21" d="M189.31 164.9C180.32 170.4 176.7 170.25 176.7 170.25C176.7 170.25 175.6 174.82 183.62 179.85C160.27 173.57 164.43 162.44 164.43 162.44C164.43 162.44 186.31 165.98 199.82 140.99C199.84 141.33 198.2 159.46 189.31 164.9Z" fill="white"/>
<path d="M462.98 166.79C462.98 166.79 449.62 187.52 426.31 182.81C412.96 180.11 396.34 169.06 377.09 141L434.65 141.12C434.65 141.12 434.83 144.01 436.05 147.85C438.51 155.52 445.15 167 462.98 166.79Z" fill="#253B5A"/>
<path opacity="0.21" d="M462.98 166.79C462.98 166.79 449.62 187.52 426.31 182.81C428.97 182.05 431.55 180.96 434.02 179.73C439 177.24 443.66 174.15 448.61 171.6C443.11 171.34 438.21 167.28 436.05 162.21C434.53 158.63 433.47 152.66 435.21 148.97C435.44 148.48 435.74 148.11 436.07 147.86C438.51 155.52 445.15 167 462.98 166.79Z" fill="white"/>
<path d="M434.66 141.11C434.66 141.11 436.24 167.1 462.98 166.79C462.98 166.79 429.95 218.07 377.1 140.99L434.66 141.11Z" stroke="#0D2232" stroke-width="6" stroke-miterlimit="10" stroke-linecap="round" stroke-linejoin="round"/>
<path d="M350.35 140.99C350.35 140.99 338.08 174.34 285.23 179.37C285.23 179.37 294.35 163.01 294.35 140.99H350.35Z" fill="#253B5A" stroke="#0D2232" stroke-width="6" stroke-miterlimit="10" stroke-linecap="round" stroke-linejoin="round"/>
<path d="M250.63 140.99C250.63 140.99 223.57 187.24 191.49 181.57C159.41 175.9 164.43 162.43 164.43 162.43C164.43 162.43 184.88 168.04 198.41 140.98H250.63V140.99Z" stroke="#0D2232" stroke-width="6" stroke-miterlimit="10" stroke-linecap="round" stroke-linejoin="round"/>
<path d="M418.83 226.29C418.83 226.29 416.1 278.47 366.39 306.47C316.68 334.47 263.52 314.33 237.72 288.85C211.92 263.37 210.35 224.53 210.35 224.53" stroke="#0D2232" stroke-width="6" stroke-miterlimit="10"/>
<path d="M432.46 183.5C432.46 183.5 431.99 210.21 430.89 215.4C429.79 220.59 425.23 227.04 416.58 226.25C407.93 225.46 408.24 214.3 408.09 206.43C407.93 198.57 408.09 174.54 408.09 174.54C408.09 174.54 419.87 183.85 432.46 183.5Z" fill="#253B5A" stroke="#0D2232" stroke-width="6" stroke-miterlimit="10" stroke-linecap="round" stroke-linejoin="round"/>
<path d="M331.1 529.41L353.94 656.61H336.33H327.81V635.12H333.6L323.11 546L313.26 549.97V529.41H331.1Z" fill="#253B5A"/>
<path d="M277.1 635.12L272.86 656.61H298.7V635.12H292.91L303.4 546L313.26 549.97V529.41H290.89L277.1 635.12Z" fill="#253B5A"/>
<path d="M323.11 549.34L335.49 547.87" stroke="#0D2232" stroke-width="6" stroke-miterlimit="10" stroke-linecap="round" stroke-linejoin="round"/>
<path d="M303.4 549.34L291.02 547.87" stroke="#0D2232" stroke-width="6" stroke-miterlimit="10" stroke-linecap="round" stroke-linejoin="round"/>
<path d="M386.14 529.41H372.67L381.84 635.12H388V656.61H401.24V635.12H394.63L386.14 529.41Z" fill="#C3CDD4"/>
<path d="M241.03 529.41H254.5L245.33 635.12H239.17V656.61H225.93V635.12H232.54L241.03 529.41Z" fill="#C3CDD4"/>
<path d="M401.24 635.12H327.81V656.62H401.24V635.12Z" stroke="#0D2232" stroke-width="6" stroke-miterlimit="10" stroke-linecap="round" stroke-linejoin="round"/>
<path d="M394.63 635.12L386.14 529.41H313.26V549.97L323.11 549.34L333.6 635.12H394.63Z" stroke="#0D2232" stroke-width="6" stroke-miterlimit="10" stroke-linecap="round" stroke-linejoin="round"/>
<path d="M231.88 635.12L240.38 529.41H313.26V549.97L303.4 549.34L292.91 635.12H231.88Z" stroke="#0D2232" stroke-width="6" stroke-miterlimit="10" stroke-linecap="round" stroke-linejoin="round"/>
<path d="M464.12 542.09H446.92V607.23H464.12V542.09Z" fill="#E89F02"/>
<path d="M553.56 521.34V531.68C553.56 534.43 551.32 536.66 548.57 536.66H470.1C467.35 536.66 465.12 534.43 465.12 531.68V521.34C465.12 520.74 465.23 520.16 465.42 519.63C466.11 517.72 467.95 516.35 470.1 516.35H548.57C550.72 516.35 552.56 517.72 553.26 519.63C553.45 520.16 553.56 520.74 553.56 521.34Z" fill="#AFCADC"/>
<path opacity="0.2" d="M465.11 530.58V531.68C465.11 534.43 467.34 536.67 470.09 536.67H548.56C551.31 536.67 553.54 534.44 553.54 531.68V530.58H465.11Z" fill="black"/>
<path opacity="0.7" d="M553.26 519.63H465.42C466.11 517.72 467.95 516.35 470.1 516.35H548.57C550.72 516.35 552.56 517.71 553.26 519.63Z" fill="white"/>
<path d="M553.56 521.34V531.68C553.56 534.43 551.32 536.66 548.57 536.66H470.1C467.35 536.66 465.12 534.43 465.12 531.68V521.34C465.12 520.74 465.23 520.16 465.42 519.63C466.11 517.72 467.95 516.35 470.1 516.35H548.57C550.72 516.35 552.56 517.72 553.26 519.63C553.45 520.16 553.56 520.74 553.56 521.34Z" stroke="#0D2232" stroke-width="4" stroke-miterlimit="10" stroke-linecap="round" stroke-linejoin="round"/>
<path d="M379.61 535.02C379.61 535.02 400.82 551.73 465.11 545.31" stroke="white" stroke-miterlimit="10"/>
<path d="M361.61 495.16V583.88L373.18 595.45H452.26L441.65 587.09L442.29 495.16H361.61Z" fill="#F9DC1B"/>
<path d="M371.26 495.16V578.32L378.01 587.09H459.01L452.26 595.45H373.18L361.61 583.88V495.16H371.26Z" fill="#E89F02"/>
<path d="M373.82 507.52H368.68V512.66H373.82V507.52Z" fill="white"/>
<path d="M373.82 523.93H368.68V529.07H373.82V523.93Z" fill="white"/>
<path d="M373.82 540.35H368.68V545.49H373.82V540.35Z" fill="white"/>
<path d="M373.82 556.76H368.68V561.9H373.82V556.76Z" fill="white"/>
<path d="M373.82 573.17H368.68V578.31H373.82V573.17Z" fill="white"/>
<path d="M442.29 530.2V495.16H361.61V583.88L373.18 595.45H445.19" stroke="#0D2232" stroke-width="4" stroke-miterlimit="10" stroke-linecap="round" stroke-linejoin="round"/>
<path d="M391.18 450.67V467.93C391.18 469.27 390.09 470.36 388.76 470.36H379.39C378.05 470.36 376.96 469.27 376.96 467.93V450.67C376.96 449.33 378.05 448.25 379.39 448.25H388.76C390.09 448.24 391.18 449.33 391.18 450.67Z" fill="#AFCADC"/>
<path d="M388.75 470.53H379.38C377.95 470.53 376.78 469.37 376.78 467.93V450.67C376.78 449.24 377.94 448.08 379.38 448.08H388.75C390.18 448.08 391.34 449.24 391.34 450.67V467.93C391.34 469.36 390.18 470.53 388.75 470.53ZM379.39 448.41C378.15 448.41 377.13 449.42 377.13 450.66V467.92C377.13 469.16 378.14 470.18 379.39 470.18H388.76C390 470.18 391.01 469.17 391.01 467.92V450.66C391.01 449.42 390 448.41 388.76 448.41H379.39Z" fill="#000072"/>
<g opacity="0.2">
<path d="M391.18 464.1V467.93C391.18 469.27 390.09 470.36 388.76 470.36H379.39C378.05 470.36 376.96 469.27 376.96 467.93V464.1C376.96 465.44 378.05 466.53 379.39 466.53H388.76C390.09 466.52 391.18 465.44 391.18 464.1Z" fill="black"/>
</g>
<g opacity="0.55">
<path d="M391.18 450.67V453.38C391.18 452.04 390.09 450.96 388.76 450.96H379.39C378.05 450.96 376.96 452.05 376.96 453.38V450.67C376.96 449.33 378.05 448.25 379.39 448.25H388.76C390.09 448.24 391.18 449.33 391.18 450.67Z" fill="white"/>
</g>
<path d="M401.63 465.7H391.18V453.43H400.04L401.63 465.7Z" fill="#AFCADC"/>
<path d="M401.82 465.87H391.01V453.26H400.2L401.82 465.87ZM391.34 465.53H401.43L399.89 453.6H391.34V465.53Z" fill="#000072"/>
<path d="M450.78 463.89C450.63 465.64 448.57 466.51 447.24 465.36C439.77 458.94 428.73 462.56 426.48 471.72C426.1 473.25 424.76 474.33 423.19 474.33H405.72C404.02 474.33 402.58 473.07 402.37 471.38L401.64 465.7L400.06 453.43L399.53 449.29C399.27 447.27 400.85 445.47 402.89 445.47H431.54C443.13 445.48 451.56 454.43 450.78 463.89Z" fill="#AFCADC"/>
<path d="M423.19 474.5H405.72C403.94 474.5 402.42 473.17 402.2 471.4L399.35 449.31C399.22 448.3 399.53 447.28 400.21 446.51C400.88 445.74 401.86 445.3 402.88 445.3H431.53C437.36 445.3 442.83 447.61 446.54 451.63C449.76 455.13 451.34 459.48 450.97 463.89C450.9 464.77 450.34 465.53 449.53 465.86C448.71 466.2 447.82 466.05 447.15 465.47C443.68 462.49 439.11 461.52 434.9 462.86C430.78 464.18 427.7 467.5 426.66 471.74C426.25 473.38 424.83 474.5 423.19 474.5ZM402.87 445.65C401.95 445.65 401.07 446.05 400.46 446.74C399.85 447.43 399.57 448.36 399.69 449.27L402.54 471.36C402.75 472.96 404.12 474.16 405.73 474.16H423.2C424.68 474.16 425.97 473.14 426.33 471.68C427.4 467.32 430.56 463.91 434.79 462.55C439.11 461.17 443.81 462.17 447.36 465.22C447.93 465.71 448.69 465.84 449.39 465.55C450.1 465.26 450.56 464.63 450.62 463.87C450.97 459.55 449.43 455.29 446.27 451.87C442.63 447.92 437.25 445.65 431.51 445.65H402.87Z" fill="#000072"/>
<g opacity="0.2">
<path d="M450.78 463.89C450.63 465.64 448.57 466.51 447.24 465.36C439.77 458.94 428.73 462.56 426.48 471.72C426.1 473.25 424.76 474.33 423.19 474.33H405.72C404.02 474.33 402.58 473.07 402.37 471.38L402.19 470.02C402.64 470.24 403.13 470.36 403.66 470.36H421.13C422.7 470.36 424.05 469.27 424.42 467.75C426.67 458.59 437.71 454.96 445.18 461.39C446.51 462.54 448.57 461.67 448.72 459.92C448.9 457.76 448.59 455.62 447.88 453.61C450 456.63 451.09 460.22 450.78 463.89Z" fill="black"/>
</g>
<g opacity="0.55">
<path d="M446.71 452.11C443.37 449.46 438.95 447.79 433.94 447.79H405.3C403.26 447.79 401.68 449.58 401.94 451.61L402.47 455.75L404.05 468.02L404.78 473.7C404.8 473.89 404.84 474.07 404.9 474.24C403.57 473.92 402.54 472.8 402.35 471.39L401.62 465.71L400.04 453.44L399.51 449.3C399.25 447.28 400.83 445.48 402.87 445.48H431.52C437.86 445.48 443.25 448.15 446.71 452.11Z" fill="white"/>
</g>
<g opacity="0.55">
<path d="M391.17 453.38H377.52V457.16H391.17V453.38Z" fill="white"/>
</g>
<path d="M422.88 474.33H406.8V515.37H422.88V474.33Z" fill="#435F84" stroke="#0D2232" stroke-width="4" stroke-miterlimit="10" stroke-linecap="round" stroke-linejoin="round"/>
<g opacity="0.2">
<path d="M406.85 481.54C407.32 481.55 407.74 481.72 408.13 481.93C408.52 482.14 408.88 482.41 409.22 482.7C409.9 483.27 410.52 483.91 411.03 484.65C412.05 486.11 412.63 487.76 413.65 489.05C414.15 489.69 414.78 490.21 415.5 490.6C416.22 490.98 417.02 491.24 417.83 491.41C418.65 491.58 419.49 491.68 420.34 491.76C420.76 491.8 421.19 491.83 421.62 491.84C422.05 491.87 422.49 491.93 422.89 492.21C422.95 492.25 422.96 492.33 422.92 492.39C422.91 492.41 422.89 492.42 422.87 492.43H422.86C422.4 492.63 421.99 492.59 421.56 492.56C421.14 492.5 420.71 492.47 420.28 492.43C419.42 492.35 418.55 492.25 417.69 492.07C416.83 491.89 415.97 491.62 415.18 491.2C414.39 490.78 413.67 490.18 413.11 489.47C411.99 488.05 411.42 486.39 410.46 485.04C409.98 484.37 409.42 483.75 408.76 483.25C408.43 483 408.09 482.77 407.74 482.54C407.4 482.31 407.05 482.08 406.74 481.75C406.69 481.7 406.69 481.63 406.74 481.58C406.78 481.55 406.82 481.53 406.85 481.54Z" fill="#371A45"/>
<path d="M422.9 489C422.02 489.48 420.99 489.5 420.02 489.36C419.05 489.22 418.09 488.98 417.21 488.53C416.76 488.32 416.35 488.04 415.96 487.74C415.58 487.42 415.21 487.08 414.92 486.67C414.29 485.88 413.96 484.89 413.77 483.95C413.58 483 413.49 482.07 413.23 481.21C413.1 480.78 412.93 480.38 412.69 480.01C412.58 479.82 412.44 479.65 412.31 479.48C412.16 479.32 412.02 479.15 411.85 479.01C411.2 478.41 410.38 478 409.52 477.79C409.09 477.68 408.64 477.64 408.21 477.67C407.77 477.7 407.36 477.77 406.86 477.7H406.85C406.83 477.7 406.8 477.69 406.77 477.68L406.75 477.67C406.68 477.65 406.64 477.59 406.66 477.52C406.67 477.5 406.68 477.48 406.69 477.46C406.72 477.43 406.74 477.41 406.77 477.39H406.76C407.16 477.05 407.69 476.94 408.19 476.94C408.69 476.96 409.19 476.99 409.68 477.12C410.65 477.35 411.57 477.82 412.31 478.49C413.06 479.14 413.62 480.06 413.89 481C414.17 481.95 414.26 482.9 414.44 483.8C414.62 484.7 414.91 485.55 415.46 486.24C415.72 486.6 416.05 486.9 416.39 487.19C416.75 487.46 417.12 487.71 417.53 487.9C418.33 488.3 419.22 488.55 420.12 488.64C420.34 488.67 420.57 488.66 420.8 488.68C421.03 488.67 421.25 488.69 421.48 488.68C421.93 488.69 422.38 488.64 422.88 488.75H422.89C422.95 488.76 422.99 488.83 422.98 488.89C422.95 488.96 422.93 488.98 422.9 489Z" fill="#371A45"/>
<path d="M422.91 484.31C422.65 484.56 422.33 484.67 422 484.72C421.84 484.75 421.67 484.76 421.5 484.75C421.33 484.74 421.17 484.72 421.01 484.71C420.36 484.62 419.72 484.45 419.13 484.17C417.95 483.62 416.93 482.74 416.22 481.66C415.5 480.58 415.09 479.32 414.94 478.05C414.87 477.41 414.86 476.77 414.91 476.14C414.93 475.82 414.98 475.51 415.01 475.19C415.04 474.87 415.11 474.56 415.35 474.29V474.31C415.39 474.27 415.42 474.22 415.47 474.19C415.54 474.14 415.63 474.16 415.68 474.22L415.69 474.23V474.24C415.72 474.29 415.73 474.33 415.75 474.37V474.39C415.84 474.72 415.78 475.01 415.71 475.3C415.64 475.59 415.61 475.89 415.59 476.19C415.54 476.79 415.55 477.38 415.62 477.98C415.75 479.16 416.14 480.31 416.79 481.29C417.44 482.27 418.36 483.07 419.42 483.56C419.95 483.8 420.51 483.98 421.09 484.01C421.38 484.02 421.66 484.03 421.95 484.02C422.24 484.02 422.52 484.01 422.86 484.09C422.93 484.11 422.97 484.18 422.95 484.25C422.94 484.27 422.93 484.29 422.91 484.31Z" fill="#371A45"/>
<path d="M418.83 474.39C418.88 474.65 418.82 474.85 418.75 475.04C418.68 475.23 418.59 475.4 418.51 475.58C418.35 475.94 418.25 476.31 418.19 476.69C418.09 477.43 418.24 478.22 418.66 478.81C418.87 479.1 419.15 479.33 419.47 479.47C419.79 479.61 420.16 479.67 420.53 479.65C420.9 479.64 421.28 479.56 421.64 479.44C421.82 479.39 422 479.28 422.17 479.18C422.35 479.09 422.53 479.02 422.82 479.14H422.83C422.91 479.17 422.95 479.25 422.93 479.33C422.86 479.63 422.66 479.74 422.47 479.83C422.37 479.87 422.27 479.9 422.17 479.95C422.07 480 421.97 480.04 421.87 480.07C421.45 480.21 421.01 480.31 420.56 480.32C420.11 480.34 419.64 480.27 419.2 480.08C418.77 479.89 418.38 479.57 418.11 479.19C417.57 478.42 417.4 477.47 417.52 476.58C417.58 476.14 417.72 475.71 417.86 475.3C417.93 475.09 418.01 474.89 418.13 474.71C418.24 474.53 418.39 474.36 418.64 474.27C418.72 474.24 418.8 474.28 418.83 474.36C418.83 474.37 418.83 474.38 418.83 474.39Z" fill="#371A45"/>
<path d="M406.83 487.44C407.38 487.37 407.94 487.55 408.4 487.83C408.87 488.1 409.28 488.47 409.64 488.86C410.36 489.65 410.94 490.52 411.49 491.37C412.04 492.22 412.6 493.06 413.29 493.74C413.98 494.42 414.84 494.91 415.74 495.36C416.64 495.81 417.6 496.23 418.47 496.86C419.33 497.49 420.06 498.28 420.64 499.16C421.23 500.03 421.68 500.97 422.08 501.92C422.28 502.4 422.47 502.87 422.67 503.34C422.86 503.82 423.03 504.3 422.98 504.86C422.97 504.93 422.91 504.98 422.85 504.97C422.82 504.97 422.79 504.95 422.77 504.94C422.36 504.55 422.17 504.07 421.99 503.6C421.83 503.12 421.64 502.65 421.45 502.18C421.06 501.25 420.62 500.35 420.07 499.53C419.53 498.7 418.85 497.98 418.07 497.4C417.28 496.83 416.36 496.42 415.44 495.96C414.52 495.51 413.58 494.98 412.81 494.22C412.05 493.47 411.47 492.59 410.91 491.74C410.35 490.89 409.82 490.04 409.13 489.34C408.78 489 408.41 488.69 408.02 488.42C407.63 488.14 407.23 487.93 406.78 487.66C406.72 487.63 406.7 487.55 406.74 487.5C406.76 487.47 406.79 487.45 406.83 487.44Z" fill="#371A45"/>
<path d="M418.67 494.25C418.85 494.15 418.98 494.17 419.09 494.21C419.2 494.25 419.29 494.32 419.39 494.39C419.58 494.53 419.78 494.64 419.97 494.77C420.35 495.03 420.73 495.3 421.09 495.58C421.45 495.86 421.81 496.16 422.15 496.47C422.32 496.63 422.49 496.79 422.65 496.95C422.73 497.03 422.81 497.12 422.91 497.18C422.99 497.26 423.07 497.35 422.97 497.6C422.94 497.68 422.88 497.73 422.81 497.75C422.56 497.83 422.47 497.76 422.4 497.68C422.34 497.58 422.26 497.51 422.18 497.43C422.02 497.27 421.86 497.12 421.7 496.97C421.37 496.67 421.03 496.38 420.68 496.11C420.33 495.84 419.97 495.58 419.6 495.33C419.41 495.21 419.23 495.08 419.03 494.98C418.93 494.93 418.83 494.89 418.74 494.81C418.65 494.74 418.58 494.64 418.57 494.44C418.55 494.36 418.6 494.29 418.67 494.25Z" fill="#371A45"/>
<path d="M406.87 491.96C407.45 492.2 407.87 492.73 408.16 493.26C408.45 493.8 408.63 494.38 408.79 494.93C408.95 495.49 409.11 496.03 409.33 496.54C409.54 497.05 409.81 497.53 410.16 497.92C410.51 498.31 410.96 498.58 411.46 498.76C411.96 498.93 412.52 499.01 413.08 499.06C413.65 499.11 414.23 499.13 414.82 499.21C415.41 499.29 416.02 499.42 416.59 499.7C417.16 499.98 417.66 500.4 418.03 500.89C418.41 501.38 418.68 501.94 418.9 502.49C419.33 503.61 419.55 504.76 419.85 505.86C420.14 506.96 420.56 508.01 421.12 508.99C421.39 509.48 421.7 509.96 422.05 510.4C422.39 510.85 422.73 511.29 422.95 511.87C422.97 511.93 422.94 512 422.88 512.03C422.85 512.04 422.81 512.04 422.79 512.03C422.21 511.77 421.82 511.31 421.47 510.83C421.14 510.34 420.82 509.84 420.53 509.32C419.95 508.29 419.5 507.18 419.2 506.04C418.89 504.91 418.67 503.78 418.27 502.74C418.07 502.22 417.82 501.73 417.49 501.31C417.17 500.89 416.76 500.54 416.28 500.31C415.33 499.84 414.17 499.84 413.01 499.74C412.42 499.69 411.82 499.61 411.23 499.41C410.64 499.21 410.07 498.86 409.65 498.38C408.8 497.43 408.47 496.22 408.11 495.14C407.93 494.59 407.74 494.07 407.52 493.57C407.29 493.07 407.04 492.62 406.72 492.13C406.68 492.08 406.7 492 406.75 491.97C406.8 491.94 406.84 491.94 406.87 491.96Z" fill="#371A45"/>
<path d="M406.83 501.69C407.28 501.63 407.67 501.64 408.09 501.65L409.34 501.68C410.19 501.68 411.08 501.65 411.96 501.81C412.4 501.89 412.85 502.01 413.27 502.21C413.69 502.41 414.09 502.69 414.4 503.06C414.72 503.42 414.93 503.86 415.07 504.3C415.21 504.74 415.27 505.19 415.31 505.63C415.37 506.52 415.35 507.36 415.41 508.2C415.46 509.04 415.55 509.88 415.71 510.7C415.87 511.52 416.11 512.32 416.44 513.08C416.61 513.46 416.79 513.83 417.03 514.16C417.25 514.51 417.47 514.84 417.56 515.31C417.57 515.38 417.53 515.45 417.46 515.46C417.44 515.46 417.41 515.46 417.39 515.45C416.92 515.28 416.64 514.91 416.41 514.53C416.2 514.14 415.99 513.75 415.81 513.34C415.46 512.53 415.21 511.68 415.04 510.82C414.87 509.96 414.78 509.1 414.72 508.23C414.66 507.37 414.68 506.5 414.62 505.68C414.56 504.86 414.37 504.06 413.87 503.5C413.38 502.92 412.62 502.61 411.83 502.48C411.03 502.34 410.2 502.34 409.34 502.38C408.91 502.4 408.47 502.41 408.03 502.35C407.59 502.3 407.14 502.19 406.76 501.91C406.71 501.87 406.7 501.79 406.74 501.74C406.77 501.71 406.8 501.69 406.83 501.69Z" fill="#371A45"/>
<path d="M418.05 509.16C418.26 509.24 418.35 509.36 418.41 509.49C418.48 509.62 418.52 509.75 418.55 509.89C418.63 510.16 418.75 510.43 418.85 510.69C419.07 511.22 419.3 511.74 419.56 512.24C419.82 512.75 420.09 513.25 420.39 513.74C420.54 513.98 420.69 514.22 420.85 514.46C420.93 514.58 421.01 514.7 421.11 514.8C421.2 514.91 421.27 515.04 421.15 515.29C421.12 515.37 421.04 515.41 420.97 515.42C420.69 515.44 420.6 515.33 420.52 515.2C420.46 515.06 420.38 514.94 420.29 514.82C420.13 514.57 419.97 514.33 419.82 514.07C419.52 513.57 419.23 513.05 418.97 512.53C418.71 512.01 418.46 511.47 418.24 510.93C418.12 510.66 418.03 510.38 417.91 510.11C417.85 509.98 417.79 509.84 417.76 509.7C417.73 509.55 417.73 509.4 417.85 509.21C417.88 509.16 417.97 509.13 418.05 509.16Z" fill="#371A45"/>
<path d="M406.78 505.61C407.04 505.38 407.33 505.29 407.63 505.23C407.93 505.17 408.24 505.17 408.56 505.2C409.18 505.24 409.82 505.36 410.4 505.65C410.98 505.94 411.47 506.38 411.84 506.88C412.21 507.39 412.49 507.95 412.67 508.54C413.05 509.72 413.08 510.98 412.86 512.18C412.75 512.78 412.58 513.37 412.35 513.93L411.99 514.77C411.86 515.04 411.68 515.3 411.33 515.43C411.26 515.46 411.17 515.42 411.15 515.34C411.15 515.33 411.15 515.32 411.14 515.31V515.3C411.08 514.92 411.22 514.69 411.35 514.43C411.5 514.19 411.62 513.93 411.72 513.67C411.93 513.15 412.09 512.6 412.19 512.05C412.39 510.95 412.36 509.8 412.02 508.74C411.69 507.69 411.04 506.72 410.08 506.24C409.61 506 409.07 505.88 408.53 505.88C408.26 505.88 407.98 505.91 407.7 505.91C407.42 505.92 407.14 505.92 406.82 505.81C406.75 505.79 406.72 505.71 406.74 505.64C406.75 505.65 406.77 505.63 406.78 505.61Z" fill="#371A45"/>
<path d="M406.77 509.32C406.89 509.11 407.09 509.03 407.28 509C407.47 508.97 407.67 508.99 407.85 509.04C408.22 509.13 408.59 509.28 408.89 509.54C409.49 510.05 409.79 510.82 409.75 511.59C409.73 511.97 409.6 512.37 409.4 512.68C409.2 513 408.94 513.27 408.67 513.5C408.4 513.73 408.11 513.92 407.83 514.1C407.69 514.19 407.54 514.28 407.42 514.39C407.28 514.48 407.13 514.56 406.87 514.44C406.79 514.41 406.75 514.33 406.75 514.25C406.77 513.95 406.9 513.86 407.04 513.78C407.19 513.71 407.33 513.63 407.47 513.54C407.74 513.36 408.01 513.18 408.24 512.99C408.72 512.6 409.06 512.12 409.08 511.56C409.11 511.01 408.88 510.42 408.46 510.07C408.25 509.9 408 509.77 407.72 509.74C407.58 509.73 407.44 509.73 407.31 509.71C407.17 509.7 407.03 509.67 406.84 509.54L406.83 509.53C406.75 509.48 406.73 509.39 406.77 509.32Z" fill="#371A45"/>
</g>
<g opacity="0.55">
<path d="M409.19 515.37H406.8V479.99H407.14C408.27 479.99 409.19 480.91 409.19 482.04V515.37Z" fill="white"/>
</g>
<g opacity="0.3">
<path d="M422.88 474.33V515.37H419.07V483.84C419.07 481.74 417.37 480.04 415.27 480.04H406.8V474.33H422.88Z" fill="#371A45"/>
</g>
<path d="M426.6 518.76V560.05C426.6 561.92 425.08 563.43 423.22 563.43H406.63C406.07 563.43 405.54 563.29 405.08 563.05C403.99 562.49 403.25 561.35 403.25 560.04V518.75C403.25 516.88 404.77 515.37 406.63 515.37H423.22C425.09 515.37 426.6 516.89 426.6 518.76Z" fill="#F9DC1B"/>
<path d="M423.22 563.61H406.63C406.06 563.61 405.5 563.47 405 563.22L404.91 563.17C403.78 562.55 403.08 561.37 403.08 560.06V518.77C403.08 516.81 404.67 515.22 406.63 515.22H423.22C425.18 515.22 426.77 516.81 426.77 518.77V560.06C426.77 562.01 425.18 563.61 423.22 563.61ZM405.25 562.96C405.68 563.16 406.15 563.27 406.63 563.27H423.22C424.99 563.27 426.44 561.83 426.44 560.05V518.76C426.44 516.99 425 515.54 423.22 515.54H406.63C404.86 515.54 403.41 516.98 403.41 518.76V560.05C403.41 561.26 404.08 562.35 405.15 562.91L405.25 562.96Z" fill="#000072"/>
<path d="M426.6 518.76V560.05C426.6 561.92 425.08 563.43 423.22 563.43H417.71C419.58 563.43 421.09 561.91 421.09 560.05V518.76C421.09 516.89 419.57 515.38 417.71 515.38H423.22C425.09 515.37 426.6 516.89 426.6 518.76Z" fill="#E89F02"/>
<path d="M423.22 563.61H417.71V563.27C419.48 563.27 420.93 561.83 420.93 560.05V518.76C420.93 516.99 419.49 515.54 417.71 515.54V515.2H423.22C425.18 515.2 426.77 516.79 426.77 518.75V560.04C426.77 562.01 425.18 563.61 423.22 563.61ZM419.23 563.27H423.22C424.99 563.27 426.44 561.83 426.44 560.05V518.76C426.44 516.99 425 515.54 423.22 515.54H419.23C420.44 516.11 421.27 517.34 421.27 518.76V560.05C421.27 561.47 420.43 562.7 419.23 563.27Z" fill="#E89F02"/>
<g opacity="0.55">
<path d="M407.64 563.06C408.1 563.3 408.63 563.44 409.19 563.44H406.63C406.07 563.44 405.54 563.3 405.08 563.06C403.99 562.5 403.25 561.36 403.25 560.05V518.76C403.25 516.89 404.77 515.38 406.63 515.38H409.19C407.32 515.38 405.81 516.9 405.81 518.76V560.05C405.81 561.36 406.55 562.5 407.64 563.06Z" fill="white"/>
</g>
<g opacity="0.2">
<path d="M393.43 453.43L395.69 465.7H391.18V453.43H393.43Z" fill="black"/>
</g>
<g opacity="0.2">
<path d="M416.67 453.98C416.67 455.73 414.46 455.26 411.73 455.26C409 455.26 406.79 455.73 406.79 453.98C406.79 452.23 409 450.81 411.73 450.81C414.46 450.81 416.67 452.23 416.67 453.98Z" fill="white"/>
</g>
<g opacity="0.2">
<path d="M413.44 535.57C413.44 538.84 412.06 541.49 410.36 541.49C408.66 541.49 408.63 538.84 408.63 535.57C408.63 532.3 408.66 529.65 410.36 529.65C412.06 529.65 413.44 532.3 413.44 535.57Z" fill="white"/>
</g>
<path d="M391.18 450.67V467.93C391.18 469.27 390.09 470.36 388.76 470.36H379.39C378.05 470.36 376.96 469.27 376.96 467.93V450.67C376.96 449.33 378.05 448.25 379.39 448.25H388.76C390.09 448.24 391.18 449.33 391.18 450.67Z" stroke="#0D2232" stroke-width="4" stroke-miterlimit="10" stroke-linecap="round" stroke-linejoin="round"/>
<path d="M401.63 465.7H391.18V453.43H400.04L401.63 465.7Z" stroke="#0D2232" stroke-width="4" stroke-miterlimit="10" stroke-linecap="round" stroke-linejoin="round"/>
<path d="M450.78 463.89C450.63 465.64 448.57 466.51 447.24 465.36C439.77 458.94 428.73 462.56 426.48 471.72C426.1 473.25 424.76 474.33 423.19 474.33H405.72C404.02 474.33 402.58 473.07 402.37 471.38L401.64 465.7L400.06 453.43L399.53 449.29C399.27 447.27 400.85 445.47 402.89 445.47H431.54C443.13 445.48 451.56 454.43 450.78 463.89Z" stroke="#0D2232" stroke-width="4" stroke-miterlimit="10" stroke-linecap="round" stroke-linejoin="round"/>
<path d="M422.88 474.33H406.8V515.37H422.88V474.33Z" stroke="#0D2232" stroke-width="4" stroke-miterlimit="10" stroke-linecap="round" stroke-linejoin="round"/>
<path d="M426.6 518.76V560.05C426.6 561.92 425.08 563.43 423.22 563.43H406.63C406.07 563.43 405.54 563.29 405.08 563.05C403.99 562.49 403.25 561.35 403.25 560.04V518.75C403.25 516.88 404.77 515.37 406.63 515.37H423.22C425.09 515.37 426.6 516.89 426.6 518.76Z" stroke="#0D2232" stroke-width="4" stroke-miterlimit="10" stroke-linecap="round" stroke-linejoin="round"/>
<path d="M445.02 575.22C445.01 575.17 445.01 575.12 445.01 575.07L446.82 491.01C446.83 490.37 447.36 489.87 448 489.88L462.46 490.19C462.77 490.2 463.06 490.32 463.27 490.55C463.45 490.73 463.56 490.97 463.58 491.22C463.59 491.27 463.59 491.32 463.59 491.37L461.78 575.43C461.77 576.07 461.24 576.57 460.6 576.56L446.14 576.25C445.83 576.24 445.54 576.12 445.33 575.89C445.16 575.71 445.05 575.47 445.02 575.22Z" fill="#C14854"/>
<path d="M450.614 491.088L448.823 575.151L458.081 575.349L459.872 491.286L450.614 491.088Z" fill="#E8656D"/>
<path opacity="0.5" d="M449.493 487.416L447.619 576.239L448.758 576.263L450.633 487.44L449.493 487.416Z" fill="white"/>
<path d="M442.26 493.14C441.47 492.55 440.71 491.89 440 491.19C435.78 487.04 433.42 481.49 433.37 475.56C433.32 469.64 435.58 464.05 439.74 459.83C440.82 458.73 442.01 457.75 443.29 456.9C443.67 456.65 444.16 456.64 444.55 456.89C444.58 456.91 444.6 456.92 444.62 456.94C444.96 457.19 445.13 457.61 445.07 458.03L443.33 469.64L456.28 476.1L466.43 465.78L461.36 456.02C461.14 455.6 461.2 455.09 461.51 454.73C461.82 454.37 462.31 454.24 462.76 454.39C464.95 455.14 466.99 456.22 468.85 457.61C469.64 458.2 470.4 458.86 471.11 459.55C475.33 463.7 477.69 469.25 477.74 475.18C477.79 481.1 475.53 486.69 471.37 490.91C463.61 498.82 451.09 499.77 442.26 493.14Z" fill="#E8656D"/>
<path d="M462.38 455.5L463.18 457.04C464.42 457.82 465.59 458.74 466.68 459.81C474.96 467.95 475.07 481.26 466.93 489.54C462.43 494.12 456.34 496.19 450.4 495.76C457.4 497.52 465.12 495.64 470.54 490.12C478.68 481.84 478.57 468.53 470.29 460.39C467.97 458.12 465.26 456.49 462.38 455.5Z" fill="#C14854"/>
<path opacity="0.5" d="M440.45 486.72C448.4 496.88 458.97 493.41 458.97 493.41C458.97 493.41 451.11 491.59 445.28 485.31C439.19 478.76 436.9 471.8 436.9 471.8C436.9 471.8 434.69 479.36 440.45 486.72Z" fill="white"/>
<path opacity="0.5" d="M442.34 572.9C445.3 569 448.28 569.7 448.28 569.7C448.28 569.7 444.38 573.12 442.21 577.83C440.17 582.26 440.47 589.44 440.47 589.44C440.47 589.44 438.47 584.62 438.75 582.18C439.21 578.2 440.34 575.53 442.34 572.9Z" fill="white"/>
<path d="M445.18 567.08L446.72 495.72" stroke="#0D2232" stroke-width="4" stroke-miterlimit="10" stroke-linecap="round" stroke-linejoin="round"/>
<path d="M463.49 496.11L461.96 567.48" stroke="#0D2232" stroke-width="4" stroke-miterlimit="10" stroke-linecap="round" stroke-linejoin="round"/>
<path d="M442.26 493.14C441.47 492.55 440.71 491.89 440 491.19C435.78 487.04 433.42 481.49 433.37 475.56C433.32 469.64 435.58 464.05 439.74 459.83C440.82 458.73 442.01 457.75 443.29 456.9C443.67 456.65 444.16 456.64 444.55 456.89C444.58 456.91 444.6 456.92 444.62 456.94C444.96 457.19 445.13 457.61 445.07 458.03L443.33 469.64L456.28 476.1L466.43 465.78L461.36 456.02C461.14 455.6 461.2 455.09 461.51 454.73C461.82 454.37 462.31 454.24 462.76 454.39C464.95 455.14 466.99 456.22 468.85 457.61C469.64 458.2 470.4 458.86 471.11 459.55C475.33 463.7 477.69 469.25 477.74 475.18C477.79 481.1 475.53 486.69 471.37 490.91C463.61 498.82 451.09 499.77 442.26 493.14Z" stroke="#0D2232" stroke-width="4" stroke-miterlimit="10" stroke-linecap="round" stroke-linejoin="round"/>
<path d="M379.61 519.93V578.09C379.61 578.09 391.18 595.45 413.68 595.45C436.18 595.45 452.25 595.45 452.25 595.45L459 586.77C459 586.77 464.46 545.95 465.11 530.2C465.11 530.2 403.4 531.85 379.61 519.93Z" fill="#FEC400"/>
<path d="M384.88 522.15V565.81C384.88 573.24 389.08 580.05 395.75 583.31C406.72 588.68 426.73 593.8 459.01 586.78L452.26 595.46L410.31 595.7C410.31 595.7 388.61 592.89 379.61 578.1V519.94L384.88 522.15Z" fill="#E89F02"/>
<path d="M379.61 519.93V573.14C379.61 576.76 381.07 580.22 383.63 582.78C388.78 587.92 398.86 595.45 413.68 595.45H445.18C449.64 595.45 453.85 593.39 456.59 589.87C458.17 587.84 459.18 585.42 459.51 582.87C460.88 572.28 464.58 542.99 465.1 530.2C465.11 530.2 403.4 531.85 379.61 519.93Z" stroke="#0D2232" stroke-width="4" stroke-miterlimit="10" stroke-linecap="round" stroke-linejoin="round"/>
<path d="M379.61 535.02C379.61 535.02 399.31 551.92 463.59 545.49" stroke="#0D2232" stroke-width="4" stroke-miterlimit="10" stroke-linecap="round" stroke-linejoin="round"/>
<path d="M242.04 519.93V579.37C242.04 579.37 217.61 598.01 180.33 595.44C180.33 595.44 164.9 571.01 160.4 530.19C160.4 530.2 224.68 533.78 242.04 519.93Z" stroke="white" stroke-miterlimit="10"/>
<path d="M162.95 546.78C162.95 546.78 216.33 547.24 242.04 535.02" stroke="white" stroke-miterlimit="10"/>
<path d="M175.79 586.81C175.79 586.81 207.97 587.73 226.62 577.45L222.5 527.27L242.05 519.93V579.37C242.05 579.37 220.19 596.73 180.34 595.44L175.79 586.81Z" stroke="white" stroke-miterlimit="10"/>
<path d="M242.21 535.02C242.21 535.02 220.97 551.73 156.61 545.31" stroke="white" stroke-miterlimit="10"/>
<path d="M260.23 495.16V583.88L248.65 595.45H169.48L180.1 587.09L179.46 495.16H260.23Z" fill="#F9DC1B"/>
<path d="M250.58 495.16V578.32L243.82 587.09H162.72L169.48 595.45H248.65L260.23 583.88V495.16H250.58Z" fill="#E89F02"/>
<path d="M248.007 512.667H253.156V507.527H248.007V512.667Z" fill="white"/>
<path d="M248.007 529.082H253.156V523.942H248.007V529.082Z" fill="white"/>
<path d="M248.007 545.488H253.156V540.348H248.007V545.488Z" fill="white"/>
<path d="M248.007 561.903H253.156V556.763H248.007V561.903Z" fill="white"/>
<path d="M248.007 578.319H253.156V573.179H248.007V578.319Z" fill="white"/>
<path d="M179.46 530.2V495.16H260.23V583.88L248.65 595.45L170.55 594.61" stroke="#0D2232" stroke-width="4" stroke-miterlimit="10" stroke-linecap="round" stroke-linejoin="round"/>
<path d="M185.38 465.1L190.05 482.71L187.32 485.62C184.05 480.72 178.01 477.99 171.95 479.22C171.66 479.28 171.37 479.35 171.08 479.42C172.33 478.38 173.24 477.2 173.82 475.98C176.36 470.67 173.02 464.31 166.75 463.17L163 448.93C172.49 450.24 179.35 455.3 184.4 462.93C184.85 463.6 185.18 464.33 185.38 465.1Z" fill="#AFCADC"/>
<path d="M187.31 485.93L187.18 485.73C183.88 480.78 177.79 478.24 172.01 479.41C171.74 479.46 171.46 479.53 171.16 479.61L170.32 479.83L170.99 479.27C172.18 478.28 173.09 477.15 173.68 475.89C174.84 473.47 174.79 470.7 173.56 468.29C172.23 465.7 169.75 463.9 166.75 463.35L166.63 463.33L162.75 448.69L163.04 448.73C172.07 449.98 179.12 454.58 184.58 462.81C185.04 463.5 185.38 464.25 185.59 465.04L190.29 482.75L187.31 485.93ZM171.8 479.05C171.84 479.04 171.88 479.03 171.93 479.02C177.78 477.83 183.94 480.35 187.36 485.3L189.85 482.64L185.2 465.14C185 464.39 184.68 463.68 184.24 463.02C178.9 454.98 172.04 450.43 163.26 449.15L166.93 462.99C169.99 463.58 172.53 465.44 173.89 468.11C175.18 470.63 175.22 473.52 174.01 476.05C173.5 477.15 172.75 478.16 171.8 479.05Z" fill="#000072"/>
<g opacity="0.55">
<path d="M173.81 478.97C173.2 479.01 172.58 479.1 171.96 479.22C171.67 479.28 171.38 479.35 171.09 479.42C172.34 478.38 173.25 477.2 173.83 475.98C176.37 470.67 173.03 464.31 166.76 463.17L163 448.93C164.02 449.07 165 449.25 165.95 449.48L169.47 462.73C175.74 463.87 179.08 470.22 176.54 475.54C175.95 476.76 175.05 477.93 173.81 478.97Z" fill="white"/>
</g>
<g opacity="0.55">
<path d="M173.88 478.96L173.79 478.98C173.8 478.97 173.8 478.97 173.81 478.96C173.83 478.96 173.85 478.96 173.88 478.96Z" fill="white"/>
<path d="M173.93 479.15L173.02 479.39L173.76 478.78C173.8 478.77 173.83 478.77 173.85 478.77L175.48 478.73L173.93 479.15Z" fill="#371A45"/>
</g>
<path d="M193.08 494.08L195.36 502.69C195.5 503.22 195.21 503.78 194.71 503.97C194.67 503.98 194.64 503.99 194.6 504L179.02 508.14C177.44 508.56 175.84 508.71 174.27 508.62C169.25 508.32 164.56 505.55 162.02 501.22C161.37 500.12 160.86 498.93 160.52 497.64C160.09 496.03 159.95 494.42 160.05 492.85C160.45 486.64 164.74 481.11 171.09 479.43H171.1C171.39 479.35 171.67 479.29 171.97 479.23C178.03 478 184.07 480.73 187.34 485.63C188.3 487.07 189.01 488.69 189.43 490.45C189.7 491.59 189.82 492.73 189.82 493.85L191.78 493.33C192.14 493.23 192.51 493.34 192.77 493.57C192.9 493.69 193.02 493.87 193.08 494.08Z" fill="#AFCADC"/>
<path d="M194.65 504.19L179.07 508.33C177.5 508.75 175.88 508.91 174.26 508.81C169.14 508.51 164.39 505.64 161.85 501.32C161.18 500.19 160.67 498.97 160.33 497.7C159.91 496.1 159.75 494.47 159.85 492.84C160.27 486.37 164.76 480.91 171.03 479.24C171.36 479.15 171.64 479.09 171.92 479.03C177.84 477.83 184.1 480.43 187.48 485.51C188.47 487 189.18 488.64 189.59 490.39C189.84 491.44 189.97 492.52 189.98 493.59L191.7 493.13C192.11 493.02 192.55 493.12 192.86 493.41C193.05 493.57 193.18 493.79 193.24 494.03L195.52 502.64C195.69 503.27 195.35 503.92 194.75 504.15C194.73 504.16 194.69 504.17 194.65 504.19ZM171.15 479.6C165.03 481.23 160.65 486.55 160.24 492.85C160.13 494.44 160.29 496.03 160.7 497.58C161.03 498.82 161.53 500.01 162.18 501.11C164.65 505.32 169.29 508.12 174.28 508.41C175.86 508.5 177.44 508.35 178.97 507.94L194.55 503.8C194.58 503.79 194.61 503.78 194.64 503.77C195.06 503.61 195.29 503.16 195.18 502.72L192.9 494.11C192.86 493.94 192.76 493.79 192.63 493.68C192.41 493.48 192.11 493.41 191.82 493.48L189.62 494.06V493.81C189.62 492.69 189.49 491.56 189.23 490.45C188.83 488.74 188.14 487.14 187.17 485.69C183.87 480.74 177.78 478.2 172 479.37C171.73 479.46 171.45 479.52 171.15 479.6Z" fill="#000072"/>
<g opacity="0.3">
<path d="M185.38 465.1L190.05 482.71L187.32 485.62C187.14 485.35 186.95 485.08 186.75 484.82C183.38 480.42 177.68 478.05 171.95 479.22C171.66 479.28 171.37 479.35 171.08 479.42C172.33 478.38 173.24 477.2 173.82 475.98C173.9 475.95 173.99 475.93 174.07 475.91H174.09C174.37 475.84 174.66 475.77 174.96 475.71C177.6 475.17 180.23 475.39 182.63 476.21C184.09 476.71 185.51 475.41 185.12 473.92L183.06 466.17C182.86 465.4 182.52 464.67 182.08 464C177.52 457.12 171.49 452.33 163.4 450.5L162.99 448.95C172.48 450.26 179.34 455.32 184.39 462.95C184.85 463.6 185.18 464.33 185.38 465.1Z" fill="black"/>
<path d="M187.3 485.93L187.17 485.73C186.99 485.45 186.8 485.19 186.61 484.95C183.19 480.48 177.46 478.31 172 479.42C171.73 479.47 171.45 479.54 171.15 479.62L170.31 479.84L170.98 479.28C172.17 478.29 173.08 477.16 173.67 475.9L173.71 475.82L173.79 475.79C174.19 475.66 174.6 475.58 174.94 475.51C177.52 474.99 180.2 475.16 182.71 476.01C183.33 476.22 183.99 476.08 184.47 475.64C184.94 475.2 185.12 474.58 184.95 473.96L182.89 466.21C182.69 465.47 182.37 464.76 181.93 464.09C177.09 456.79 171.02 452.4 163.36 450.67L163.25 450.64L162.73 448.7L163.02 448.74C172.05 449.99 179.1 454.59 184.56 462.82C185.02 463.51 185.36 464.26 185.57 465.05L190.27 482.76L187.3 485.93ZM171.8 479.05C171.84 479.04 171.88 479.03 171.93 479.02C177.53 477.88 183.41 480.11 186.92 484.7C187.07 484.89 187.22 485.09 187.36 485.31L189.85 482.65L185.2 465.15C185 464.4 184.68 463.69 184.24 463.03C178.9 454.99 172.04 450.44 163.26 449.16L163.57 450.32C171.27 452.09 177.38 456.53 182.26 463.88C182.72 464.58 183.06 465.33 183.27 466.11L185.33 473.86C185.53 474.62 185.31 475.39 184.74 475.92C184.16 476.46 183.36 476.63 182.59 476.38C180.15 475.55 177.53 475.38 175.02 475.89C174.75 475.94 174.44 476.01 174.16 476.09C174.1 476.11 174.04 476.12 173.99 476.14C173.46 477.2 172.73 478.18 171.8 479.05Z" fill="#371A45"/>
</g>
<g opacity="0.55">
<path d="M181.97 480.74C179.55 479.9 176.88 479.67 174.21 480.21C173.92 480.27 173.63 480.34 173.34 480.41H173.33C166.99 482.09 162.7 487.63 162.29 493.83C162.19 495.4 162.33 497.02 162.76 498.62C163.1 499.9 163.61 501.1 164.26 502.2C165.66 504.58 167.7 506.49 170.1 507.77C166.75 506.6 163.83 504.3 162.01 501.2C161.36 500.1 160.85 498.91 160.51 497.62C160.08 496.01 159.94 494.4 160.04 492.83C160.44 486.62 164.73 481.09 171.08 479.41H171.09C171.38 479.33 171.66 479.27 171.96 479.21C175.49 478.5 179.01 479.13 181.97 480.74Z" fill="white"/>
</g>
<path d="M174.91 501.7C179.262 501.7 182.79 498.172 182.79 493.82C182.79 489.468 179.262 485.94 174.91 485.94C170.558 485.94 167.03 489.468 167.03 493.82C167.03 498.172 170.558 501.7 174.91 501.7Z" fill="#CECEDD"/>
<g opacity="0.55">
<path d="M185 493.23C186.12 497.44 183.61 501.75 179.41 502.87C176.81 503.56 174.17 502.87 172.26 501.24C173.71 501.76 175.33 501.86 176.94 501.44C181.15 500.32 183.65 496.01 182.53 491.8C182.1 490.2 181.21 488.84 180.04 487.84C182.39 488.68 184.31 490.63 185 493.23Z" fill="white"/>
</g>
<g opacity="0.3">
<path d="M179.71 487.57C178.42 487.21 177.02 487.19 175.63 487.56C171.42 488.68 168.92 492.99 170.04 497.2C170.5 498.95 171.52 500.4 172.86 501.42C170.23 500.71 168.05 498.66 167.3 495.84C166.18 491.63 168.69 487.32 172.89 486.2C175.35 485.55 177.84 486.13 179.71 487.57Z" fill="black"/>
<path d="M173.74 501.86L172.8 501.61C170.02 500.86 167.84 498.67 167.1 495.89C165.96 491.59 168.53 487.16 172.83 486.02C175.27 485.37 177.82 485.88 179.82 487.42L180.6 488.02L179.65 487.76C178.36 487.4 176.99 487.4 175.67 487.75C171.57 488.84 169.12 493.06 170.21 497.15C170.65 498.8 171.6 500.23 172.96 501.27L173.74 501.86ZM172.94 486.39C168.84 487.48 166.39 491.7 167.48 495.79C168.1 498.12 169.79 500.02 171.99 500.93C170.96 499.92 170.23 498.67 169.85 497.25C168.71 492.95 171.28 488.52 175.58 487.38C176.63 487.1 177.73 487.04 178.79 487.19C177.04 486.15 174.95 485.85 172.94 486.39Z" fill="#371A45"/>
</g>
<path d="M178.73 508.21L182.34 521.81C182.82 523.61 183.87 525.22 185.33 526.38L200.09 538.12C202.52 540.05 204.26 542.71 205.05 545.7L212.42 573.48C212.89 575.26 214.94 576.07 216.52 575.11C220.18 572.88 223.02 570.3 224.56 567.16C225.8 564.63 226 561.71 225.27 558.98L219.68 537.94C219.12 535.83 218 533.92 216.44 532.39L206.68 522.85C204.77 520.98 203.64 518.44 203.61 515.77C203.58 512.75 204.17 509.39 205.12 505.83C205.71 503.61 203.69 501.58 201.47 502.17L178.73 508.21Z" fill="#F9DC1B"/>
<path d="M219.7 537.93L225.29 558.98C226.01 561.71 225.82 564.63 224.58 567.16C223.04 570.3 220.19 572.88 216.53 575.11C215.45 575.77 214.15 575.59 213.29 574.85C216.37 572.8 218.77 570.45 220.14 567.66C221.38 565.13 221.58 562.21 220.85 559.48L215.26 538.43C214.7 536.32 213.58 534.41 212.02 532.88L202.26 523.34C200.35 521.47 199.23 518.93 199.2 516.26C199.17 513.24 199.76 509.88 200.71 506.32C201.11 504.81 200.3 503.38 199.04 502.82L201.51 502.17C203.73 501.58 205.75 503.61 205.16 505.83C204.21 509.39 203.62 512.75 203.65 515.77C203.68 518.44 204.81 520.98 206.71 522.85L216.47 532.39C218.02 533.91 219.14 535.83 219.7 537.93Z" fill="#E89F02"/>
<g opacity="0.55">
<path d="M215.64 574.61C215.71 574.88 215.82 575.14 215.96 575.36C214.49 575.86 212.84 575.05 212.42 573.47L205.05 545.69C204.26 542.7 202.52 540.04 200.09 538.11L185.33 526.37C183.87 525.21 182.82 523.61 182.34 521.8L178.73 508.2L201.5 502.16C202.79 501.82 204 502.36 204.69 503.3L181.95 509.33L185.56 522.93C186.04 524.74 187.09 526.34 188.55 527.5L203.31 539.24C205.73 541.17 207.47 543.83 208.27 546.82L215.64 574.61Z" fill="white"/>
</g>
<path d="M178.73 508.21L182.34 521.81C182.82 523.61 182.7 525.52 182.01 527.26L175.01 544.77C173.86 547.65 173.67 550.82 174.46 553.82L181.83 581.6C182.3 583.38 180.92 585.1 179.08 585.04C174.8 584.92 171.05 584.09 168.15 582.13C165.81 580.55 164.2 578.11 163.47 575.38L157.88 554.34C157.32 552.23 157.34 550.02 157.94 547.92L161.68 534.8C162.41 532.23 162.13 529.47 160.83 527.13C159.36 524.49 157.18 521.86 154.59 519.24C152.98 517.61 153.73 514.85 155.94 514.26L178.73 508.21Z" fill="#F9DC1B"/>
<path d="M178.73 508.21L182.34 521.81C182.82 523.62 182.7 525.53 182.01 527.26L175.01 544.77C173.86 547.65 173.67 550.82 174.46 553.82L181.83 581.6C182.3 583.38 180.92 585.1 179.08 585.05C178.29 585.03 177.51 584.98 176.75 584.9C177.08 584.31 177.19 583.6 177 582.88L169.63 555.1C168.84 552.11 169.03 548.93 170.18 546.05L177.18 528.54C177.87 526.81 177.99 524.9 177.51 523.09L173.9 509.49L178.73 508.21Z" fill="#E89F02"/>
<g opacity="0.55">
<path d="M158.58 520.17C161.17 522.79 163.35 525.42 164.82 528.06C166.12 530.39 166.4 533.16 165.67 535.73L161.93 548.85C161.33 550.95 161.31 553.17 161.87 555.27L167.46 576.32C168.18 579.05 169.8 581.49 172.13 583.07C173.16 583.77 174.3 584.32 175.53 584.75C172.72 584.35 170.23 583.53 168.17 582.13C165.84 580.55 164.22 578.11 163.5 575.38L157.91 554.33C157.35 552.22 157.37 550 157.97 547.91L161.71 534.79C162.44 532.22 162.16 529.46 160.86 527.13C159.39 524.49 157.21 521.86 154.62 519.24C153.01 517.61 153.76 514.84 155.97 514.26L178.73 508.21L179.22 510.07L159.92 515.2C157.71 515.78 156.96 518.54 158.58 520.17Z" fill="white"/>
</g>
<path d="M174.27 508.61L174.46 509.34L161.58 512.76L159.22 503.88C158.96 502.89 159.55 501.87 160.54 501.61L162.01 501.22C164.56 505.54 169.24 508.32 174.27 508.61Z" fill="#AFCADC"/>
<path d="M174.7 509.48L161.44 513L159.03 503.93C158.74 502.84 159.39 501.71 160.49 501.42L162.1 500.99L162.17 501.12C164.64 505.33 169.28 508.13 174.27 508.42L174.41 508.43L174.7 509.48ZM161.72 512.53L174.23 509.21L174.12 508.8C169.11 508.46 164.46 505.65 161.93 501.44L160.6 501.79C159.71 502.03 159.18 502.94 159.42 503.83L161.72 512.53Z" fill="#000072"/>
<g opacity="0.55">
<path d="M162.14 501.18C162.34 501.53 162.57 501.87 162.8 502.2L162.67 502.24C161.68 502.5 161.09 503.52 161.35 504.51L163.41 512.28L161.7 512.73L159.34 503.85C159.08 502.86 159.67 501.84 160.66 501.58L162.14 501.18Z" fill="white"/>
</g>
<path d="M171.08 479.42C164.74 481.1 160.45 486.64 160.04 492.84L156.24 491.67L151.57 474.06C151.36 473.29 151.29 472.49 151.35 471.69C151.96 462.56 155.4 454.76 162.99 448.92L166.77 463.16C160.76 468.21 162.55 477.94 171.08 479.42Z" fill="#AFCADC"/>
<path d="M160.22 493.1L156.09 491.83L151.39 474.12C151.18 473.33 151.1 472.51 151.16 471.68C151.82 461.83 155.65 454.33 162.88 448.77L163.11 448.59L166.99 463.23L166.9 463.31C164.01 465.73 162.8 469.39 163.73 472.85C164.63 476.19 167.39 478.57 171.12 479.22L171.98 479.37L171.13 479.59C165.02 481.21 160.64 486.54 160.24 492.84L160.22 493.1ZM156.41 491.53L159.87 492.6C160.36 486.49 164.49 481.32 170.29 479.46C166.8 478.61 164.23 476.22 163.36 472.97C162.4 469.4 163.63 465.63 166.56 463.11L162.89 449.27C155.9 454.74 152.19 462.09 151.55 471.72C151.5 472.51 151.57 473.29 151.77 474.03L156.41 491.53Z" fill="#000072"/>
<g opacity="0.3">
<path d="M168.41 480.41C168.46 480.39 168.51 480.36 168.56 480.34C168.58 480.34 168.6 480.35 168.62 480.35C168.55 480.37 168.48 480.39 168.41 480.41Z" fill="#262F6A"/>
<path d="M168.47 480.6L168.32 480.25C168.37 480.22 168.43 480.2 168.48 480.17L168.53 480.15L168.63 480.16L169.43 480.32L168.67 480.53C168.6 480.56 168.54 480.58 168.47 480.6Z" fill="#371A45"/>
</g>
<g opacity="0.3">
<path d="M168.96 478.84C169.55 479.07 169.56 479.9 168.97 480.16C168.83 480.22 168.69 480.28 168.56 480.35C160.07 478.83 157.69 469.03 163.68 464L160.3 451.26C161.13 450.45 162.03 449.68 163 448.94L166.78 463.18C161.3 467.76 162.29 476.24 168.96 478.84Z" fill="#262F6A"/>
<path d="M168.59 480.54L168.53 480.53C164.48 479.8 161.47 477.15 160.48 473.43C159.55 469.94 160.69 466.3 163.47 463.92L160.09 451.19L160.17 451.11C161.01 450.3 161.92 449.51 162.88 448.77L163.11 448.59L166.99 463.23L166.9 463.31C164.27 465.52 163.01 468.77 163.55 472.01C164.05 475.07 166.05 477.5 169.04 478.66C169.38 478.8 169.6 479.11 169.61 479.48C169.62 479.86 169.41 480.18 169.06 480.33C168.92 480.39 168.79 480.45 168.65 480.52L168.59 480.54ZM160.52 451.31L163.9 464.06L163.81 464.14C161.08 466.43 159.95 469.95 160.85 473.34C161.8 476.89 164.67 479.43 168.53 480.15C168.65 480.09 168.77 480.04 168.9 479.98C169.14 479.88 169.22 479.66 169.22 479.49C169.22 479.28 169.1 479.1 168.9 479.02C165.79 477.81 163.7 475.28 163.17 472.08C162.62 468.75 163.89 465.4 166.56 463.11L162.89 449.27C162.05 449.91 161.26 450.6 160.52 451.31Z" fill="#371A45"/>
</g>
<g opacity="0.55">
<path d="M163 448.93L163.54 450.98C157.47 456.58 154.64 463.7 154.09 471.9C154.04 472.7 154.11 473.5 154.31 474.27L158.98 491.88L160.09 492.22C160.07 492.43 160.05 492.64 160.04 492.85L156.24 491.68L151.57 474.07C151.36 473.3 151.29 472.5 151.35 471.7C151.97 462.57 155.41 454.77 163 448.93Z" fill="white"/>
</g>
<g opacity="0.2">
<path d="M193.08 494.08L195.36 502.69C195.5 503.22 195.21 503.78 194.71 503.97L181.8 507.4C188.05 504.37 191.1 500.06 190.33 494.2L192.76 493.56C192.9 493.69 193.02 493.87 193.08 494.08Z" fill="black"/>
</g>
<path d="M174.27 508.61L174.46 509.34L161.58 512.76L159.22 503.88C158.96 502.89 159.55 501.87 160.54 501.61L162.01 501.22C164.56 505.54 169.24 508.32 174.27 508.61Z" stroke="#0D2232" stroke-width="4" stroke-miterlimit="10" stroke-linecap="round" stroke-linejoin="round"/>
<path d="M178.73 508.21L182.34 521.81C182.82 523.61 183.87 525.22 185.33 526.38L200.09 538.12C202.52 540.05 204.26 542.71 205.05 545.7L212.42 573.48C212.89 575.26 214.94 576.07 216.52 575.11C220.18 572.88 223.02 570.3 224.56 567.16C225.8 564.63 226 561.71 225.27 558.98L219.68 537.94C219.12 535.83 218 533.92 216.44 532.39L206.68 522.85C204.77 520.98 203.64 518.44 203.61 515.77C203.58 512.75 204.17 509.39 205.12 505.83C205.71 503.61 203.69 501.58 201.47 502.17L178.73 508.21Z" stroke="#0D2232" stroke-width="4" stroke-miterlimit="10" stroke-linecap="round" stroke-linejoin="round"/>
<path d="M178.73 508.21L182.34 521.81C182.82 523.61 182.7 525.52 182.01 527.26L175.01 544.77C173.86 547.65 173.67 550.82 174.46 553.82L181.83 581.6C182.3 583.38 180.92 585.1 179.08 585.04C174.8 584.92 171.05 584.09 168.15 582.13C165.81 580.55 164.2 578.11 163.47 575.38L157.88 554.34C157.32 552.23 157.34 550.02 157.94 547.92L161.68 534.8C162.41 532.23 162.13 529.47 160.83 527.13C159.36 524.49 157.18 521.86 154.59 519.24C152.98 517.61 153.73 514.85 155.94 514.26L178.73 508.21Z" stroke="#0D2232" stroke-width="4" stroke-miterlimit="10" stroke-linecap="round" stroke-linejoin="round"/>
<path d="M185.38 465.1L190.05 482.71L187.32 485.62C184.05 480.72 178.01 477.99 171.95 479.22C171.66 479.28 171.37 479.35 171.08 479.42C172.33 478.38 173.24 477.2 173.82 475.98C176.36 470.67 173.02 464.31 166.75 463.17L163 448.93C172.49 450.24 179.35 455.3 184.4 462.93C184.85 463.6 185.18 464.33 185.38 465.1Z" stroke="#0D2232" stroke-width="4" stroke-miterlimit="10" stroke-linecap="round" stroke-linejoin="round"/>
<path d="M193.08 494.08L195.36 502.69C195.5 503.22 195.21 503.78 194.71 503.97C194.67 503.98 194.64 503.99 194.6 504L179.02 508.14C177.44 508.56 175.84 508.71 174.27 508.62C169.25 508.32 164.56 505.55 162.02 501.22C161.37 500.12 160.86 498.93 160.52 497.64C160.09 496.03 159.95 494.42 160.05 492.85C160.45 486.64 164.74 481.11 171.09 479.43H171.1C171.39 479.35 171.67 479.29 171.97 479.23C178.03 478 184.07 480.73 187.34 485.63C188.3 487.07 189.01 488.69 189.43 490.45C189.7 491.59 189.82 492.73 189.82 493.85L191.78 493.33C192.14 493.23 192.51 493.34 192.77 493.57C192.9 493.69 193.02 493.87 193.08 494.08Z" stroke="#0D2232" stroke-width="4" stroke-miterlimit="10" stroke-linecap="round" stroke-linejoin="round"/>
<path d="M171.08 479.42C164.74 481.1 160.45 486.64 160.04 492.84L156.24 491.67L151.57 474.06C151.36 473.29 151.29 472.49 151.35 471.69C151.96 462.56 155.4 454.76 162.99 448.92L166.77 463.16C160.76 468.21 162.55 477.94 171.08 479.42Z" stroke="#0D2232" stroke-width="4" stroke-miterlimit="10" stroke-linecap="round" stroke-linejoin="round"/>
<path d="M174.91 501.7C179.262 501.7 182.79 498.172 182.79 493.82C182.79 489.468 179.262 485.94 174.91 485.94C170.558 485.94 167.03 489.468 167.03 493.82C167.03 498.172 170.558 501.7 174.91 501.7Z" stroke="#0D2232" stroke-width="4" stroke-miterlimit="10" stroke-linecap="round" stroke-linejoin="round"/>
<path d="M227.23 525.67H206.68C204.49 525.67 202.71 523.89 202.71 521.7V520.57C202.71 518.38 204.49 516.6 206.68 516.6H227.23C229.42 516.6 231.2 518.38 231.2 520.57V521.7C231.2 523.9 229.42 525.67 227.23 525.67Z" fill="#F9DC1B"/>
<path d="M225.56 525.67H208.42V532.75H225.56V525.67Z" fill="#F9DC1B"/>
<path d="M218.73 577.23H215.18C208.29 577.23 202.71 571.65 202.71 564.76V536.9C202.71 534.61 204.56 532.76 206.85 532.76H227.06C229.35 532.76 231.2 534.61 231.2 536.9V564.76C231.2 571.64 225.61 577.23 218.73 577.23Z" fill="#F9DC1B"/>
<path d="M231.2 519.65V522.63C231.2 524.31 229.84 525.67 228.16 525.67H223.16C224.84 525.67 226.2 524.31 226.2 522.63V519.65C226.2 517.97 224.84 516.61 223.16 516.61H228.16C229.83 516.61 231.2 517.97 231.2 519.65Z" fill="#E89F02"/>
<path d="M225.57 525.68H220.57V532.76H225.57V525.68Z" fill="#E89F02"/>
<path d="M231.2 535.78V563.4C231.2 571.04 225.01 577.23 217.37 577.23H217.1C222.13 577.23 226.21 573.15 226.21 568.12V535.78C226.21 534.11 224.86 532.76 223.19 532.76H228.19C229.84 532.75 231.2 534.11 231.2 535.78Z" fill="#E89F02"/>
<g opacity="0.55">
<path d="M209.29 525.68H205.76C204.08 525.68 202.72 524.32 202.72 522.64V519.66C202.72 517.98 204.08 516.62 205.76 516.62H209.29C207.61 516.62 206.25 517.98 206.25 519.66V522.64C206.24 524.31 207.6 525.68 209.29 525.68Z" fill="white"/>
</g>
<g opacity="0.55">
<path d="M211.95 525.68H208.42V532.76H211.95V525.68Z" fill="white"/>
</g>
<g opacity="0.55">
<path d="M215.35 577.23H211.82C206.79 577.23 202.71 573.15 202.71 568.12V535.78C202.71 534.11 204.06 532.76 205.73 532.76H209.26C207.59 532.76 206.24 534.11 206.24 535.78V568.12C206.24 573.15 210.32 577.23 215.35 577.23Z" fill="white"/>
</g>
<path d="M226.89 477.9L224.57 485.08H221.59V516.61H212.64V485.08H209.66L207.34 477.9L210.99 457.36H223.25L226.89 477.9Z" fill="#AFCADC"/>
<path d="M221.75 516.77H212.47V485.24H209.53L207.16 477.91L207.17 477.87L210.84 457.19H223.37L227.05 477.91L224.68 485.24H221.74V516.77H221.75ZM212.81 516.44H221.42V484.91H224.45L226.72 477.89L223.11 457.53H211.13L207.52 477.89L209.79 484.91H212.82V516.44H212.81Z" fill="#000072"/>
<g opacity="0.2">
<path d="M220.77 485.08H221.59V516.61H218.83V487.02C218.83 485.95 219.7 485.08 220.77 485.08Z" fill="black"/>
</g>
<g opacity="0.2">
<path d="M226.89 477.9L224.57 485.08H221.81L224.13 477.9L220.49 457.36H223.25L226.89 477.9Z" fill="black"/>
</g>
<g opacity="0.55">
<path d="M210.2 477.9L212.52 485.08H209.99L207.68 477.9L211.32 457.36H213.85L210.2 477.9Z" fill="white"/>
</g>
<g opacity="0.55">
<path d="M215.5 486.73V516.61H212.97V485.08H213.85C214.77 485.08 215.5 485.82 215.5 486.73Z" fill="white"/>
</g>
<g opacity="0.2">
<path d="M216.6 551.77C216.6 555.43 215.06 558.4 213.15 558.4C211.24 558.4 211.22 555.43 211.22 551.77C211.22 548.11 211.25 545.14 213.15 545.14C215.05 545.14 216.6 548.12 216.6 551.77Z" fill="white"/>
</g>
<path d="M227.23 525.67H206.68C204.49 525.67 202.71 523.89 202.71 521.7V520.57C202.71 518.38 204.49 516.6 206.68 516.6H227.23C229.42 516.6 231.2 518.38 231.2 520.57V521.7C231.2 523.9 229.42 525.67 227.23 525.67Z" stroke="#0D2232" stroke-width="4" stroke-miterlimit="10" stroke-linecap="round" stroke-linejoin="round"/>
<path d="M225.56 525.67H208.42V532.75H225.56V525.67Z" stroke="#0D2232" stroke-width="4" stroke-miterlimit="10" stroke-linecap="round" stroke-linejoin="round"/>
<path d="M218.73 577.23H215.18C208.29 577.23 202.71 571.65 202.71 564.76V536.9C202.71 534.61 204.56 532.76 206.85 532.76H227.06C229.35 532.76 231.2 534.61 231.2 536.9V564.76C231.2 571.64 225.61 577.23 218.73 577.23Z" stroke="#0D2232" stroke-width="4" stroke-miterlimit="10" stroke-linecap="round" stroke-linejoin="round"/>
<path d="M226.89 477.9L224.57 485.08H221.59V516.61H212.64V485.08H209.66L207.34 477.9L210.99 457.36H223.25L226.89 477.9Z" stroke="#0D2232" stroke-width="4" stroke-miterlimit="10" stroke-linecap="round" stroke-linejoin="round"/>
<path d="M242.21 519.93V578.09C242.21 578.09 230.62 595.45 208.1 595.45C185.58 595.45 169.48 595.45 169.48 595.45L162.72 586.77C162.72 586.77 157.25 545.95 156.61 530.2C156.61 530.2 218.4 531.85 242.21 519.93Z" fill="#FEC400"/>
<path d="M236.94 522.15V565.81C236.94 573.24 232.74 580.05 226.06 583.31C215.07 588.68 195.04 593.8 162.73 586.78L169.49 595.46L211.49 595.7C211.49 595.7 233.21 592.89 242.22 578.1V519.94L236.94 522.15Z" fill="#E89F02"/>
<path d="M242.21 519.93V574.29C242.21 577 241.18 579.6 239.34 581.58C234.62 586.65 224.13 595.44 208.1 595.44H174.7C171.41 595.44 168.3 593.92 166.28 591.32L164.51 589.05C163.34 587.55 162.59 585.76 162.35 583.88C161.1 574.3 157.16 543.41 156.62 530.19C156.61 530.2 218.4 531.85 242.21 519.93Z" stroke="#0D2232" stroke-width="4" stroke-miterlimit="10" stroke-linecap="round" stroke-linejoin="round"/>
<path d="M242.21 535.02C242.21 535.02 222.49 551.92 158.13 545.49" stroke="#0D2232" stroke-width="4" stroke-miterlimit="10" stroke-linecap="round" stroke-linejoin="round"/>
<path d="M225.278 656.609L298.708 656.609L298.708 635.109L225.278 635.109L225.278 656.609Z" stroke="#0D2232" stroke-width="6" stroke-miterlimit="10" stroke-linecap="round" stroke-linejoin="round"/>
<path d="M388 336.67L428.17 357.78L402.58 410.92L388 403.37V336.67Z" stroke="#0D2232" stroke-width="6" stroke-miterlimit="10"/>
<path d="M237.73 336.67L197.56 357.78L223.15 410.92L237.73 403.37V336.67Z" stroke="#0D2232" stroke-width="6" stroke-miterlimit="10"/>
</g>
<defs>
<clipPath id="clip0_1242_235">
<rect width="554" height="722" fill="white"/>
</clipPath>
</defs>
</svg>
