<svg width="559" height="728" viewBox="0 0 559 728" fill="none" xmlns="http://www.w3.org/2000/svg">
<path d="M456.6 376.55C456.6 376.55 484.24 392.62 478.46 413.84C472.68 435.06 431.53 463.34 431.53 463.34C431.53 463.34 429.6 439.55 400.67 434.41L418.67 416.41L456.6 376.55Z" fill="#FBC6A6"/>
<path d="M400.67 434.4L391.67 439.86V495.79H432.17L431.53 463.33C431.53 463.33 428.95 438.9 400.67 434.4Z" fill="#FBC6A6"/>
<path opacity="0.16" d="M452.54 380.81C452.54 380.81 478.02 393.25 472.37 413.97C466.72 434.7 431.07 456.72 431.07 456.72" stroke="black" stroke-width="6" stroke-miterlimit="10"/>
<path opacity="0.16" d="M428.17 495.8L427.53 450.75" stroke="black" stroke-width="6" stroke-miterlimit="10"/>
<path opacity="0.5" d="M406.83 434.97L461.98 378.05" stroke="white" stroke-width="6" stroke-miterlimit="10"/>
<path opacity="0.5" d="M396.83 436.12V497.36" stroke="white" stroke-width="6" stroke-miterlimit="10"/>
<path d="M456.6 376.55C456.6 376.55 484.24 392.62 478.46 413.84C472.68 435.06 431.53 463.34 431.53 463.34C431.53 463.34 429.6 439.55 400.67 434.41L418.67 416.41L456.6 376.55Z" stroke="#0D2232" stroke-width="6" stroke-miterlimit="10" stroke-linecap="round" stroke-linejoin="round"/>
<path d="M400.67 434.4L391.67 439.86V495.79H432.17L431.53 463.33C431.53 463.33 428.95 438.9 400.67 434.4Z" stroke="#0D2232" stroke-width="6" stroke-miterlimit="10" stroke-linecap="round" stroke-linejoin="round"/>
<path d="M214.49 355.03L182.58 375.74L113.98 357.27L94.1099 398.07C94.1099 398.07 169.93 426.95 194.25 426.94L219.26 410.16L214.49 355.03Z" fill="#FBC6A6"/>
<path opacity="0.16" d="M113.98 362.86L182.58 381.33L214.49 360.62" stroke="black" stroke-width="6" stroke-miterlimit="10"/>
<path opacity="0.5" d="M219.25 405.15L194.24 421.93C194.24 421.93 171.05 419.58 141.5 409.58C111.95 399.59 94.1001 393.06 94.1001 393.06" stroke="white" stroke-width="6" stroke-miterlimit="10"/>
<path d="M214.49 355.03L182.58 375.74L114.98 357.54L94.1099 398.07C94.1099 398.07 169.93 426.95 194.25 426.94L219.26 410.16L214.49 355.03Z" stroke="#0D2232" stroke-width="6" stroke-miterlimit="10"/>
<path d="M116.53 352.97C116.53 352.97 116.76 340.03 105.06 334.85C105.06 334.85 108.4 298.82 85.69 301.18C85.69 301.18 70.94 299.94 76.12 334.25C76.12 334.25 74.1 348.43 55.99 346.29C37.88 344.15 0.21998 326.61 8.16998 364.7C8.16998 364.7 -6.38001 384.62 15.6 393.91C15.6 393.91 11.07 413.62 33.19 414.15C55.31 414.68 84.43 409.33 96.64 393.77L116.53 352.97Z" fill="#FBC6A6"/>
<path d="M8.16016 364.69L32.3302 368.43L52.4601 363.75" stroke="#0D2232" stroke-width="6" stroke-miterlimit="10" stroke-linecap="round" stroke-linejoin="round"/>
<path d="M15.5901 393.89C15.5901 393.89 14.2701 385.51 47.7401 383.68L64.3201 375" stroke="#0D2232" stroke-width="6" stroke-miterlimit="10" stroke-linecap="round" stroke-linejoin="round"/>
<path opacity="0.16" d="M105.05 334.85C105.05 334.85 105.64 303.73 86.2102 305.14C86.2102 305.14 76.3002 305.01 79.2202 334.45C79.2202 334.45 74.6202 352.39 56.5002 350.24C38.3802 348.1 3.01017 328.24 10.9702 366.33" stroke="black" stroke-width="6" stroke-miterlimit="10"/>
<path opacity="0.5" d="M101.7 383.36L95.0001 390.51C95.0001 390.51 73.9301 404.85 56.4701 407.51C39.0101 410.17 18.7801 408.43 15.3501 400.37" stroke="white" stroke-width="6" stroke-miterlimit="10"/>
<path d="M116.53 352.97C116.53 352.97 116.76 340.03 105.06 334.85C105.06 334.85 108.4 298.82 85.69 301.18C85.69 301.18 70.94 299.94 76.12 334.25C76.12 334.25 74.1 348.43 55.99 346.29C37.88 344.15 0.21998 326.61 8.16998 364.7C8.16998 364.7 -6.38001 384.62 15.6 393.91C15.6 393.91 11.07 413.62 33.19 414.15C55.31 414.68 84.43 409.33 96.64 393.77L116.53 352.97Z" stroke="#0D2232" stroke-width="6" stroke-miterlimit="10"/>
<path d="M228.278 659.609L301.708 659.609L301.708 638.109L228.278 638.109L228.278 659.609Z" fill="#435F84" stroke="#0D2232" stroke-width="6" stroke-miterlimit="10" stroke-linecap="round" stroke-linejoin="round"/>
<path d="M439.18 598.45V639.39L458.47 659.63L477.11 639.39L477.08 538.57H461.97L439.18 598.45Z" fill="#AFCADC"/>
<path d="M458.15 635.47C462.143 635.47 465.38 632.233 465.38 628.24C465.38 624.247 462.143 621.01 458.15 621.01C454.157 621.01 450.92 624.247 450.92 628.24C450.92 632.233 454.157 635.47 458.15 635.47Z" stroke="#0D2232" stroke-width="4" stroke-miterlimit="10" stroke-linecap="round" stroke-linejoin="round"/>
<path opacity="0.2" d="M477.11 539.66H470.47V635.47L458.54 647.4L446.11 634.97V545.92L439.18 546.38V639.39L458.95 659.15L477.92 640.19L477.11 539.66Z" fill="black"/>
<path d="M439.18 598.45V639.39L458.47 659.63L477.11 639.39V539.66H462.01L439.18 598.45Z" stroke="#0D2232" stroke-width="4" stroke-miterlimit="10" stroke-linecap="round" stroke-linejoin="round"/>
<path d="M459.06 148.08C459.06 148.08 453.08 153.43 426.66 155.63C400.23 157.83 214.27 163.42 214.27 163.42L202.82 157.83C202.82 157.83 176.51 156.38 172.78 148.08C169.05 139.78 262.85 106.87 262.85 106.87L381.36 103.25L408.42 114.02L459.06 148.08Z" fill="#CFB300"/>
<path d="M459.06 148.08C459.06 148.08 453.08 153.43 426.66 155.63C400.23 157.83 214.27 163.42 214.27 163.42L202.82 157.83C202.82 157.83 176.51 156.38 172.78 148.08C169.05 139.78 262.85 106.87 262.85 106.87L381.36 103.25L408.42 114.02L459.06 148.08Z" stroke="#0D2232" stroke-width="6" stroke-miterlimit="10" stroke-linecap="round" stroke-linejoin="round"/>
<path d="M203.86 196.85C203.86 196.85 173.67 200.47 177.44 235.39C181.22 270.31 224.7 263.02 224.7 263.02L220.96 212.89L203.86 196.85Z" fill="#FBC6A6" stroke="#0D2232" stroke-width="6" stroke-miterlimit="10"/>
<path d="M435.46 196.85C435.46 196.85 458.43 200.63 460.16 226.11C461.89 251.59 433.55 274.1 411.38 265.2C389.21 256.3 405.57 218.24 405.57 218.24L435.46 196.85Z" fill="#FBC6A6" stroke="#0D2232" stroke-width="6" stroke-miterlimit="10"/>
<path opacity="0.4" d="M433.42 211.95C433.42 211.95 445.35 218.27 440.26 232.01C433.14 251.26 418.63 245.92 418.63 245.92L423.03 222.01L433.42 211.95Z" fill="black"/>
<path opacity="0.4" d="M199.48 211.95C199.48 211.95 187.55 218.27 192.64 232.01C199.76 251.26 214.27 245.92 214.27 245.92L209.87 222.01L199.48 211.95Z" fill="black"/>
<path d="M421.83 200.62V229.29C421.83 229.29 421.57 234.26 419.75 241.95C415.67 259.19 403.76 290.11 369.39 309.47C364.5 312.22 359.58 314.51 354.65 316.37C340.33 321.78 325.99 323.61 312.32 322.85C282.87 321.21 256.61 307.54 240.72 291.85C214.92 266.37 213.35 227.53 213.35 227.53V173.25L243.87 136.44L400.62 138.33L419.94 160.98L421.83 200.62Z" fill="#FBC6A6"/>
<path opacity="0.5" d="M260.34 295.89C280.66 310.55 299.71 318.04 314.33 321.86C284.88 320.22 258.62 306.55 242.73 290.86C216.93 265.38 215.36 226.54 215.36 226.54V216.94L223.82 210.32C223.82 210.32 216.3 264.11 260.34 295.89Z" fill="white"/>
<path opacity="0.5" d="M416.75 241.95C412.67 259.19 400.76 290.11 366.39 309.47C361.5 312.22 356.58 314.51 351.65 316.37C369.14 302.74 397.61 277.61 406.34 252.63C409.31 244.18 412.93 241.31 416.75 241.95Z" fill="white"/>
<path d="M459.06 148.08C459.06 148.08 448.05 143.99 433.26 143.99C418.47 143.99 198.42 143.99 198.42 143.99C198.42 143.99 178.44 143.2 172.78 148.08V134.4C172.78 129.1 177.08 124.8 182.38 124.8H449.47C454.77 124.8 459.07 129.1 459.07 134.4V148.08H459.06Z" fill="#F9DC1B"/>
<path d="M443.83 124.8C443.83 124.91 443.83 124.96 443.83 124.96H315.79V124.8H187.74C187.74 124.8 187.74 124.77 187.74 124.72C187.7 123.67 187.29 113.23 187.74 108.45C188.21 103.41 192.3 103.26 192.3 103.26C192.3 103.26 199.38 40.5 270.79 19.74C270.79 19.74 270.16 7.14999 281.8 5.89999C293.44 4.63999 315.78 3.07001 315.78 3.07001V3.23C315.78 3.23 338.11 4.8 349.75 6.06C361.39 7.32 360.76 19.9 360.76 19.9C432.17 40.66 439.25 103.42 439.25 103.42C439.25 103.42 443.34 103.58 443.81 108.61C444.26 113.28 443.89 123.41 443.83 124.8Z" fill="#F9DC1B"/>
<path opacity="0.73" d="M443.83 124.8H432.95C432.95 124.8 427.44 60.62 360.91 28.53L360.87 21.27C360.87 21.27 308.7 4.93 270.68 22.55L271.16 32.94C271.16 32.94 212.11 49.29 197.64 124.48L187.75 124.71C187.71 123.66 187.3 113.22 187.75 108.44C188.22 103.4 192.31 103.25 192.31 103.25C192.31 103.25 199.39 40.49 270.8 19.73C270.8 19.73 270.17 7.14 281.81 5.89C293.45 4.63 315.79 3.06 315.79 3.06V3.22C315.79 3.22 338.12 4.79 349.76 6.05C361.4 7.31 360.77 19.89 360.77 19.89C432.18 40.65 439.26 103.41 439.26 103.41C439.26 103.41 443.35 103.57 443.82 108.6C444.26 113.28 443.89 123.41 443.83 124.8Z" fill="white"/>
<path d="M443.82 108.6C443.35 103.57 439.26 103.41 439.26 103.41C439.26 103.41 432.18 40.65 360.77 19.89C360.77 19.89 361.4 7.31 349.76 6.05C338.12 4.79 315.78 3.22 315.78 3.22V3.06C315.78 3.06 293.44 4.63 281.8 5.89C270.16 7.15 270.79 19.73 270.79 19.73C199.38 40.49 192.3 103.25 192.3 103.25C192.3 103.25 188.21 103.41 187.74 108.44C187.27 113.47 187.74 124.8 187.74 124.8H315.78V124.96H443.82C443.82 124.96 444.3 113.64 443.82 108.6Z" stroke="#0D2232" stroke-width="6" stroke-miterlimit="10" stroke-linecap="round" stroke-linejoin="round"/>
<path d="M360.15 332.86H390.47V498.54H240.73V332.86H360.15Z" fill="white"/>
<path d="M363.94 339.67H270.4V440.55H363.94V339.67Z" fill="#F9DC1B"/>
<path d="M390.48 461.73H240.73V498.54H390.48V461.73Z" fill="#F9DC1B"/>
<path d="M341.92 320.8C341.92 320.8 312.54 327.09 292.52 320.8L285.6 351.74L303.85 358.55C303.85 358.55 315.92 363.58 330.6 358.55C345.28 353.52 349.9 338.84 349.9 338.84L341.92 320.8Z" fill="#FBC6A6" stroke="#0D2232" stroke-width="6" stroke-miterlimit="10"/>
<path d="M360.97 354.83C360.18 366.68 358.28 377.64 358.28 377.64L330.59 358.55C330.59 358.55 333.76 351.04 336.37 343.6C337.89 339.25 339.23 334.91 339.61 332.12C340.66 324.57 341.92 320.8 341.92 320.8C341.92 320.8 358.07 319.96 360.58 334.85C361.53 340.41 361.44 347.77 360.97 354.83Z" fill="#435F84"/>
<path d="M360.97 354.83C353.84 354.3 345.54 350.75 341.26 347.71C339.54 346.48 337.86 345.12 336.37 343.6C337.89 339.25 339.23 334.91 339.61 332.12C340.66 324.57 341.92 320.8 341.92 320.8C341.92 320.8 358.07 319.96 360.58 334.85C361.53 340.41 361.44 347.77 360.97 354.83Z" fill="#253B5A"/>
<path d="M341.92 320.8C341.92 320.8 358.07 319.96 360.59 334.85C363.11 349.74 358.28 377.63 358.28 377.63L330.6 358.54C330.6 358.54 338.57 339.66 339.62 332.11C340.67 324.56 341.92 320.8 341.92 320.8Z" stroke="#0D2232" stroke-width="6" stroke-miterlimit="10"/>
<path d="M273.48 354.83C274.27 366.68 276.17 377.64 276.17 377.64L303.86 358.55C303.86 358.55 300.69 351.04 298.08 343.6C296.56 339.25 295.22 334.91 294.84 332.12C293.79 324.57 292.53 320.8 292.53 320.8C292.53 320.8 276.38 319.96 273.87 334.85C272.91 340.41 273 347.77 273.48 354.83Z" fill="#435F84"/>
<path d="M273.48 354.83C280.61 354.3 288.91 350.75 293.19 347.71C294.91 346.48 296.59 345.12 298.08 343.6C296.56 339.25 295.22 334.91 294.84 332.12C293.79 324.57 292.53 320.8 292.53 320.8C292.53 320.8 276.38 319.96 273.87 334.85C272.91 340.41 273 347.77 273.48 354.83Z" fill="#253B5A"/>
<path d="M292.52 320.8C292.52 320.8 276.37 319.96 273.85 334.85C271.33 349.74 276.16 377.63 276.16 377.63L303.84 358.54C303.84 358.54 295.87 339.66 294.82 332.11C293.77 324.56 292.52 320.8 292.52 320.8Z" stroke="#0D2232" stroke-width="6" stroke-miterlimit="10"/>
<path d="M295.36 392.31H256.35V427.96H295.36V392.31Z" fill="#F9DC1B" stroke="#0D2232" stroke-width="6" stroke-miterlimit="10"/>
<path d="M295.36 406.37H256.35" stroke="#0D2232" stroke-width="6" stroke-miterlimit="10"/>
<path d="M360.77 19.89C360.77 19.89 361.87 30.43 357.62 51.98Z" fill="#F9DC1B"/>
<path d="M360.77 19.89C360.77 19.89 361.87 30.43 357.62 51.98" stroke="#0D2232" stroke-width="6" stroke-miterlimit="10" stroke-linecap="round" stroke-linejoin="round"/>
<path d="M439.26 103.41H406.83C403.4 103.41 400.62 106.19 400.62 109.62V124.96" stroke="#0D2232" stroke-width="6" stroke-miterlimit="10" stroke-linecap="round" stroke-linejoin="round"/>
<path d="M270.8 19.73C270.8 19.73 269.7 30.27 273.95 51.82Z" fill="#F9DC1B"/>
<path d="M270.8 19.73C270.8 19.73 269.7 30.27 273.95 51.82" stroke="#0D2232" stroke-width="6" stroke-miterlimit="10" stroke-linecap="round" stroke-linejoin="round"/>
<path d="M192.31 103.25H224.74C228.17 103.25 230.95 106.03 230.95 109.46V124.8" stroke="#0D2232" stroke-width="6" stroke-miterlimit="10" stroke-linecap="round" stroke-linejoin="round"/>
<path opacity="0.74" d="M445.68 134.19C439.22 131.73 432.12 131.78 425.22 131.85C374.77 132.39 324.32 132.92 273.87 133.46C251.45 133.7 229.04 133.94 206.62 134.18C196.67 134.29 185.51 134.91 178.81 142.25C177.49 143.7 176.2 145.48 174.26 145.77C171.3 146.22 169.11 142.78 169.05 139.79C168.93 134.18 173.25 129.23 178.35 126.87C183.45 124.52 189.23 124.24 194.84 124.05C277.94 121.22 361.28 129.29 444.2 123.16C448.99 122.81 454.65 122.78 457.52 126.64C459.1 128.77 459.36 131.58 459.57 134.23C459.77 136.9 461.95 146.86 456.58 143.05C454.84 141.82 453.64 139.13 451.84 137.69C450 136.22 447.89 134.96 445.68 134.19Z" fill="white"/>
<path d="M459.06 148.08C459.06 148.08 448.05 143.99 433.26 143.99C418.47 143.99 198.42 143.99 198.42 143.99C198.42 143.99 178.44 143.2 172.78 148.08V134.4C172.78 129.1 177.08 124.8 182.38 124.8H449.47C454.77 124.8 459.07 129.1 459.07 134.4V148.08H459.06Z" stroke="#0D2232" stroke-width="6" stroke-miterlimit="10" stroke-linecap="round" stroke-linejoin="round"/>
<path d="M221.78 178.08C221.78 178.08 221.24 207.07 221.78 215.41C222.32 223.75 216.66 231.3 208.01 225.48C199.36 219.66 201.04 185.06 201.04 185.06C201.04 185.06 210.02 185.47 221.78 178.08Z" fill="#253B5A" stroke="#0D2232" stroke-width="6" stroke-miterlimit="10"/>
<path d="M269.22 224.47C278.079 224.47 285.26 217.289 285.26 208.43C285.26 199.571 278.079 192.39 269.22 192.39C260.362 192.39 253.18 199.571 253.18 208.43C253.18 217.289 260.362 224.47 269.22 224.47Z" fill="#0D2232"/>
<path d="M364.05 224.47C372.908 224.47 380.09 217.289 380.09 208.43C380.09 199.571 372.908 192.39 364.05 192.39C355.191 192.39 348.01 199.571 348.01 208.43C348.01 217.289 355.191 224.47 364.05 224.47Z" fill="#0D2232"/>
<path d="M384.91 180.19C383.62 180.19 382.33 179.75 381.28 178.84C380.79 178.43 370.01 169.47 354.21 171.94C351.17 172.42 348.32 170.34 347.85 167.3C347.37 164.26 349.45 161.41 352.49 160.94C373.58 157.64 387.97 169.89 388.57 170.42C390.89 172.44 391.14 175.96 389.12 178.28C388.02 179.54 386.47 180.19 384.91 180.19Z" fill="#0D2232"/>
<path d="M248.83 180.19C250.12 180.19 251.41 179.75 252.46 178.84C252.95 178.43 263.73 169.47 279.53 171.94C282.57 172.42 285.42 170.34 285.89 167.3C286.37 164.26 284.29 161.41 281.25 160.94C260.16 157.64 245.77 169.89 245.17 170.42C242.85 172.44 242.6 175.96 244.62 178.28C245.72 179.54 247.27 180.19 248.83 180.19Z" fill="#0D2232"/>
<path d="M366.27 255.87C362.08 263.56 355.92 271.93 347.12 278.09C339.35 283.53 329.52 287.24 317.17 287.24C303.7 287.24 293.27 282.82 285.25 276.57C277.56 270.58 272.09 262.89 268.28 255.79C264.95 249.56 266.94 242.46 271.81 238.51C274.15 236.61 277.15 235.44 280.54 235.44H354.06C357.45 235.44 360.45 236.61 362.79 238.51C367.68 242.48 369.67 249.64 366.27 255.87Z" fill="#162336"/>
<path d="M345.96 252.64C330.18 252.64 282.78 252.64 282.78 252.64C282.78 252.64 270.15 253.12 271.82 238.51C274.16 236.61 277.16 235.44 280.55 235.44H354.07C357.46 235.44 360.46 236.61 362.8 238.51C362.97 238.66 361.73 252.64 345.96 252.64Z" fill="white"/>
<path d="M347.13 278.09C339.36 283.53 329.53 287.24 317.18 287.24C303.71 287.24 293.28 282.82 285.26 276.57C289.99 266.16 307.5 262.68 325.15 263.65C338.74 264.39 344.64 272.42 347.13 278.09Z" fill="#DD1010"/>
<path d="M280.54 235.44H354.06C364.55 235.44 371.29 246.66 366.27 255.87C358.37 270.36 343.51 287.24 317.17 287.24C290.78 287.24 276.06 270.3 268.28 255.79C263.35 246.58 270.09 235.44 280.54 235.44Z" stroke="#0D2232" stroke-width="6" stroke-miterlimit="10"/>
<path d="M390.48 498.54H240.73V532.41H390.48V498.54Z" fill="#253B5A" stroke="#0D2232" stroke-width="6" stroke-miterlimit="10"/>
<path d="M341.29 498.54H293.89V532.41H341.29V498.54Z" fill="#C3CDD4" stroke="#0D2232" stroke-width="6" stroke-miterlimit="10"/>
<path d="M459.29 709H462.65C464.27 709 465.59 710.31 465.59 711.94V720.59C465.59 722.99 463.64 724.94 461.24 724.94H384.85L369.23 714.45V724.94H330.48C328.08 724.94 326.13 722.99 326.13 720.59V704.13C326.13 701.84 327.99 699.98 330.28 699.99H331.72L433.35 699.1L459.29 709Z" fill="#484D60" stroke="#0D2232" stroke-width="6" stroke-miterlimit="10" stroke-linecap="round" stroke-linejoin="round"/>
<path d="M460.87 705.23L459.3 709H389.3L371.21 699.98H331.71C331.71 699.98 329.9 691.28 331.42 680.5C332.36 673.81 334.59 666.32 339.33 659.61H399.52L404.24 664.65C404.24 664.65 412.73 664.96 413.36 672.83C413.36 672.83 414.85 672.08 417.42 671.26C422.49 669.64 431.75 667.71 441.99 670.63C457.4 675.03 464.64 694.85 460.87 705.23Z" fill="#E89F02"/>
<path d="M354.84 699.99H331.7C331.7 699.99 329.89 691.29 331.41 680.51C331.5 680.5 331.6 680.5 331.7 680.49C354.81 679.33 354.84 699.99 354.84 699.99Z" fill="#834526"/>
<path opacity="0.75" d="M460.87 705.23L459.3 709H449.23C449.23 709 458.19 676.71 417.43 671.25C422.5 669.63 431.76 667.7 442 670.62C457.4 675.03 464.64 694.85 460.87 705.23Z" fill="white"/>
<path d="M399.52 659.61L404.24 664.64C404.24 664.64 412.73 664.95 413.36 672.82C413.36 672.82 426.57 666.21 441.99 670.62C457.41 675.02 464.64 694.84 460.87 705.23L459.3 709.01H389.3L371.21 699.99H331.71C331.71 699.99 326.96 677.13 339.33 659.62H399.52V659.61Z" stroke="#0D2232" stroke-width="6" stroke-miterlimit="10" stroke-linecap="round" stroke-linejoin="round"/>
<path d="M413.36 672.83C413.36 672.83 393.12 679.44 389.29 709.01" stroke="#0D2232" stroke-width="6" stroke-miterlimit="10" stroke-linecap="round" stroke-linejoin="round"/>
<path d="M404.24 664.65C404.24 664.65 390.08 667.48 384.84 680.48" stroke="#0D2232" stroke-width="6" stroke-miterlimit="10" stroke-linecap="round" stroke-linejoin="round"/>
<path d="M404.24 638.12H330.81V659.62H404.24V638.12Z" fill="#435F84" stroke="#0D2232" stroke-width="6" stroke-miterlimit="10" stroke-linecap="round" stroke-linejoin="round"/>
<path d="M397.63 638.12L389.14 532.41H316.26V552.97L326.11 552.34L336.6 638.12H397.63Z" fill="#435F84" stroke="#0D2232" stroke-width="6" stroke-miterlimit="10" stroke-linecap="round" stroke-linejoin="round"/>
<path d="M173.22 709H169.86C168.24 709 166.92 710.31 166.92 711.94V720.59C166.92 722.99 168.87 724.94 171.27 724.94H247.66L263.28 714.45V724.94H302.03C304.43 724.94 306.38 722.99 306.38 720.59V704.13C306.38 701.84 304.52 699.98 302.23 699.99H300.79L199.16 699.1L173.22 709Z" fill="#484D60" stroke="#0D2232" stroke-width="6" stroke-miterlimit="10" stroke-linecap="round" stroke-linejoin="round"/>
<path d="M171.65 705.23L173.22 709H243.22L261.31 699.98H300.81C300.81 699.98 302.62 691.28 301.1 680.5C300.16 673.81 297.93 666.32 293.19 659.61H233L228.28 664.65C228.28 664.65 219.79 664.96 219.16 672.83C219.16 672.83 217.67 672.08 215.1 671.26C210.03 669.64 200.77 667.71 190.53 670.63C175.11 675.03 167.87 694.85 171.65 705.23Z" fill="#E89F02"/>
<path d="M277.67 699.99H300.81C300.81 699.99 302.62 691.29 301.1 680.51C301.01 680.5 300.91 680.5 300.81 680.49C277.7 679.33 277.67 699.99 277.67 699.99Z" fill="#834526"/>
<path opacity="0.75" d="M171.65 705.23L173.22 709H183.29C183.29 709 174.33 676.71 215.09 671.25C210.02 669.63 200.76 667.7 190.52 670.62C175.11 675.03 167.87 694.85 171.65 705.23Z" fill="white"/>
<path d="M232.99 659.61L228.27 664.64C228.27 664.64 219.78 664.95 219.15 672.82C219.15 672.82 205.94 666.21 190.52 670.62C175.1 675.02 167.87 694.84 171.64 705.23L173.21 709.01H243.21L261.3 699.99H300.8C300.8 699.99 305.55 677.13 293.18 659.62H232.99V659.61Z" stroke="#0D2232" stroke-width="6" stroke-miterlimit="10" stroke-linecap="round" stroke-linejoin="round"/>
<path d="M219.15 672.83C219.15 672.83 239.39 679.44 243.22 709.01" stroke="#0D2232" stroke-width="6" stroke-miterlimit="10" stroke-linecap="round" stroke-linejoin="round"/>
<path d="M228.27 664.65C228.27 664.65 242.43 667.48 247.67 680.48" stroke="#0D2232" stroke-width="6" stroke-miterlimit="10" stroke-linecap="round" stroke-linejoin="round"/>
<path d="M234.88 638.12L243.38 532.41H316.26V552.97L306.4 552.34L295.91 638.12H234.88Z" fill="#435F84" stroke="#0D2232" stroke-width="6" stroke-miterlimit="10" stroke-linecap="round" stroke-linejoin="round"/>
<path d="M228.46 418.11L202.87 429.85L179.93 381.32L173.72 368.19L198.26 356.03L205.02 369.92L228.46 418.11Z" fill="#435F84"/>
<path opacity="0.21" d="M205.02 369.92L204.98 369.96L179.93 381.32L173.72 368.19L198.26 356.03L205.02 369.92Z" fill="white"/>
<path d="M240.73 339.67V406.37L226.15 413.92L204.98 369.96L200.57 360.78L240.73 339.67Z" fill="#F9DC1B"/>
<path opacity="0.5" d="M240.73 339.67V351.62L204.98 369.96L200.57 360.78L240.73 339.67Z" fill="white"/>
<path d="M403.27 418.11L428.86 429.85L451.8 381.32L458.01 368.19L433.47 356.03L426.71 369.92L403.27 418.11Z" fill="#435F84"/>
<path opacity="0.21" d="M426.71 369.92L426.75 369.96L451.8 381.32L458.01 368.19L433.47 356.03L426.71 369.92Z" fill="white"/>
<path d="M391 339.67V406.37L405.58 413.92L426.75 369.96L431.16 360.78L391 339.67Z" fill="#F9DC1B"/>
<path opacity="0.5" d="M391 339.67V351.62L426.75 369.96L431.16 360.78L391 339.67Z" fill="white"/>
<g opacity="0.16">
<path d="M220.65 143.99H421.83L426.65 155.63H214.26L220.65 143.99Z" fill="black"/>
<path d="M201.04 185.06C201.04 185.06 236.66 193.84 272.31 155.64L240.73 150.85L201.04 185.06Z" fill="black"/>
<path d="M288.23 182.37C288.23 182.37 341.38 191.19 375.45 149.81L345.95 150.84L288.23 182.37Z" fill="black"/>
</g>
<path opacity="0.16" d="M418.63 208.43C418.63 208.43 401.33 305.81 298.07 318.33C298.07 318.33 406.2 333.69 419.57 229.24L418.63 208.43Z" fill="black"/>
<path d="M414.2 396.02L391 386.65V406.37L405.58 413.92L414.2 396.02Z" fill="#E89F02"/>
<path d="M240.73 376L213.36 387.35L226.15 413.92L240.73 406.37V376Z" fill="#E89F02"/>
<path d="M384.45 480.14H246.64V492.43H384.45V480.14Z" fill="#E89F02"/>
<path d="M360.57 332.86H391V498.54H240.73V332.86H270.51" stroke="#0D2232" stroke-width="6" stroke-miterlimit="10"/>
<path d="M433.47 356.03L403.27 418.11L428.86 429.86L458.01 368.19L433.47 356.03Z" stroke="#0D2232" stroke-width="6" stroke-miterlimit="10" stroke-linecap="round" stroke-linejoin="round"/>
<path d="M198.26 356.03L228.46 418.11L202.87 429.86L173.72 368.19L198.26 356.03Z" stroke="#0D2232" stroke-width="6" stroke-miterlimit="10" stroke-linecap="round" stroke-linejoin="round"/>
<path d="M253.63 143.99C253.63 143.99 226.57 190.24 194.48 184.57C191.57 184.05 188.95 183.47 186.62 182.85C163.27 176.57 167.43 165.44 167.43 165.44C167.43 165.44 186.95 170.8 200.46 145.81C200.78 145.22 201.09 144.62 201.4 144H253.63V143.99Z" fill="#253B5A"/>
<path opacity="0.21" d="M192.31 167.9C183.32 173.4 179.7 173.25 179.7 173.25C179.7 173.25 178.6 177.82 186.62 182.85C163.27 176.57 167.43 165.44 167.43 165.44C167.43 165.44 189.31 168.98 202.82 143.99C202.84 144.33 201.2 162.46 192.31 167.9Z" fill="white"/>
<path d="M465.98 169.79C465.98 169.79 452.62 190.52 429.31 185.81C415.96 183.11 399.34 172.06 380.09 144L437.65 144.12C437.65 144.12 437.83 147.01 439.05 150.85C441.51 158.52 448.15 170 465.98 169.79Z" fill="#253B5A"/>
<path opacity="0.21" d="M465.98 169.79C465.98 169.79 452.62 190.52 429.31 185.81C431.97 185.05 434.55 183.96 437.02 182.73C442 180.24 446.66 177.15 451.61 174.6C446.11 174.34 441.21 170.28 439.05 165.21C437.53 161.63 436.47 155.66 438.21 151.97C438.44 151.48 438.74 151.11 439.07 150.86C441.51 158.52 448.15 170 465.98 169.79Z" fill="white"/>
<path d="M437.66 144.11C437.66 144.11 439.24 170.1 465.98 169.79C465.98 169.79 432.95 221.07 380.1 143.99L437.66 144.11Z" stroke="#0D2232" stroke-width="6" stroke-miterlimit="10" stroke-linecap="round" stroke-linejoin="round"/>
<path d="M353.35 143.99C353.35 143.99 341.08 177.34 288.23 182.37C288.23 182.37 297.35 166.01 297.35 143.99H353.35Z" fill="#253B5A" stroke="#0D2232" stroke-width="6" stroke-miterlimit="10" stroke-linecap="round" stroke-linejoin="round"/>
<path d="M253.63 143.99C253.63 143.99 226.57 190.24 194.49 184.57C162.41 178.9 167.43 165.43 167.43 165.43C167.43 165.43 187.88 171.04 201.41 143.98H253.63V143.99Z" stroke="#0D2232" stroke-width="6" stroke-miterlimit="10" stroke-linecap="round" stroke-linejoin="round"/>
<path d="M421.83 229.29C421.83 229.29 419.1 281.47 369.39 309.47C319.68 337.47 266.52 317.33 240.72 291.85C214.92 266.37 213.35 227.53 213.35 227.53" stroke="#0D2232" stroke-width="6" stroke-miterlimit="10"/>
<path d="M435.46 186.5C435.46 186.5 434.99 213.21 433.89 218.4C432.79 223.59 428.23 230.04 419.58 229.25C410.93 228.46 411.24 217.3 411.09 209.43C410.93 201.57 411.09 177.54 411.09 177.54C411.09 177.54 422.87 186.85 435.46 186.5Z" fill="#253B5A" stroke="#0D2232" stroke-width="6" stroke-miterlimit="10" stroke-linecap="round" stroke-linejoin="round"/>
<path d="M334.1 532.41L356.94 659.61H339.33H330.81V638.12H336.6L326.11 549L316.26 552.97V532.41H334.1Z" fill="#253B5A"/>
<path d="M280.1 638.12L275.86 659.61H301.7V638.12H295.91L306.4 549L316.26 552.97V532.41H293.89L280.1 638.12Z" fill="#253B5A"/>
<path d="M326.11 552.34L338.49 550.87" stroke="#0D2232" stroke-width="6" stroke-miterlimit="10" stroke-linecap="round" stroke-linejoin="round"/>
<path d="M306.4 552.34L294.02 550.87" stroke="#0D2232" stroke-width="6" stroke-miterlimit="10" stroke-linecap="round" stroke-linejoin="round"/>
<path d="M389.14 532.41H375.67L384.84 638.12H391V659.61H404.24V638.12H397.63L389.14 532.41Z" fill="#C3CDD4"/>
<path d="M244.03 532.41H257.5L248.33 638.12H242.17V659.61H228.93V638.12H235.54L244.03 532.41Z" fill="#C3CDD4"/>
<path d="M404.24 638.12H330.81V659.62H404.24V638.12Z" stroke="#0D2232" stroke-width="6" stroke-miterlimit="10" stroke-linecap="round" stroke-linejoin="round"/>
<path d="M397.63 638.12L389.14 532.41H316.26V552.97L326.11 552.34L336.6 638.12H397.63Z" stroke="#0D2232" stroke-width="6" stroke-miterlimit="10" stroke-linecap="round" stroke-linejoin="round"/>
<path d="M234.88 638.12L243.38 532.41H316.26V552.97L306.4 552.34L295.91 638.12H234.88Z" stroke="#0D2232" stroke-width="6" stroke-miterlimit="10" stroke-linecap="round" stroke-linejoin="round"/>
<path d="M467.12 545.09H449.92V610.23H467.12V545.09Z" fill="#E89F02"/>
<path d="M556.56 524.34V534.68C556.56 537.43 554.32 539.66 551.57 539.66H473.1C470.35 539.66 468.12 537.43 468.12 534.68V524.34C468.12 523.74 468.23 523.16 468.42 522.63C469.11 520.72 470.95 519.35 473.1 519.35H551.57C553.72 519.35 555.56 520.72 556.26 522.63C556.45 523.16 556.56 523.74 556.56 524.34Z" fill="#AFCADC"/>
<path opacity="0.2" d="M468.11 533.58V534.68C468.11 537.43 470.34 539.67 473.09 539.67H551.56C554.31 539.67 556.54 537.44 556.54 534.68V533.58H468.11Z" fill="black"/>
<path opacity="0.7" d="M556.26 522.63H468.42C469.11 520.72 470.95 519.35 473.1 519.35H551.57C553.72 519.35 555.56 520.71 556.26 522.63Z" fill="white"/>
<path d="M556.56 524.34V534.68C556.56 537.43 554.32 539.66 551.57 539.66H473.1C470.35 539.66 468.12 537.43 468.12 534.68V524.34C468.12 523.74 468.23 523.16 468.42 522.63C469.11 520.72 470.95 519.35 473.1 519.35H551.57C553.72 519.35 555.56 520.72 556.26 522.63C556.45 523.16 556.56 523.74 556.56 524.34Z" stroke="#0D2232" stroke-width="4" stroke-miterlimit="10" stroke-linecap="round" stroke-linejoin="round"/>
<path d="M382.61 538.02C382.61 538.02 403.82 554.73 468.11 548.31" stroke="white" stroke-miterlimit="10"/>
<path d="M364.61 498.16V586.88L376.18 598.45H455.26L444.65 590.09L445.29 498.16H364.61Z" fill="#F9DC1B"/>
<path d="M374.26 498.16V581.32L381.01 590.09H462.01L455.26 598.45H376.18L364.61 586.88V498.16H374.26Z" fill="#E89F02"/>
<path d="M376.82 510.52H371.68V515.66H376.82V510.52Z" fill="white"/>
<path d="M376.82 526.93H371.68V532.07H376.82V526.93Z" fill="white"/>
<path d="M376.82 543.35H371.68V548.49H376.82V543.35Z" fill="white"/>
<path d="M376.82 559.76H371.68V564.9H376.82V559.76Z" fill="white"/>
<path d="M376.82 576.17H371.68V581.31H376.82V576.17Z" fill="white"/>
<path d="M445.29 533.2V498.16H364.61V586.88L376.18 598.45H448.19" stroke="#0D2232" stroke-width="4" stroke-miterlimit="10" stroke-linecap="round" stroke-linejoin="round"/>
<path d="M394.18 453.67V470.93C394.18 472.27 393.09 473.36 391.76 473.36H382.39C381.05 473.36 379.96 472.27 379.96 470.93V453.67C379.96 452.33 381.05 451.25 382.39 451.25H391.76C393.09 451.24 394.18 452.33 394.18 453.67Z" fill="#AFCADC"/>
<path d="M391.75 473.53H382.38C380.95 473.53 379.78 472.37 379.78 470.93V453.67C379.78 452.24 380.94 451.08 382.38 451.08H391.75C393.18 451.08 394.34 452.24 394.34 453.67V470.93C394.34 472.36 393.18 473.53 391.75 473.53ZM382.39 451.41C381.15 451.41 380.13 452.42 380.13 453.66V470.92C380.13 472.16 381.14 473.18 382.39 473.18H391.76C393 473.18 394.01 472.17 394.01 470.92V453.66C394.01 452.42 393 451.41 391.76 451.41H382.39Z" fill="#000072"/>
<g opacity="0.2">
<path d="M394.18 467.1V470.93C394.18 472.27 393.09 473.36 391.76 473.36H382.39C381.05 473.36 379.96 472.27 379.96 470.93V467.1C379.96 468.44 381.05 469.53 382.39 469.53H391.76C393.09 469.52 394.18 468.44 394.18 467.1Z" fill="black"/>
</g>
<g opacity="0.55">
<path d="M394.18 453.67V456.38C394.18 455.04 393.09 453.96 391.76 453.96H382.39C381.05 453.96 379.96 455.05 379.96 456.38V453.67C379.96 452.33 381.05 451.25 382.39 451.25H391.76C393.09 451.24 394.18 452.33 394.18 453.67Z" fill="white"/>
</g>
<path d="M404.63 468.7H394.18V456.43H403.04L404.63 468.7Z" fill="#AFCADC"/>
<path d="M404.82 468.87H394.01V456.26H403.2L404.82 468.87ZM394.34 468.53H404.43L402.89 456.6H394.34V468.53Z" fill="#000072"/>
<path d="M453.78 466.89C453.63 468.64 451.57 469.51 450.24 468.36C442.77 461.94 431.73 465.56 429.48 474.72C429.1 476.25 427.76 477.33 426.19 477.33H408.72C407.02 477.33 405.58 476.07 405.37 474.38L404.64 468.7L403.06 456.43L402.53 452.29C402.27 450.27 403.85 448.47 405.89 448.47H434.54C446.13 448.48 454.56 457.43 453.78 466.89Z" fill="#AFCADC"/>
<path d="M426.19 477.5H408.72C406.94 477.5 405.42 476.17 405.2 474.4L402.35 452.31C402.22 451.3 402.53 450.28 403.21 449.51C403.88 448.74 404.86 448.3 405.88 448.3H434.53C440.36 448.3 445.83 450.61 449.54 454.63C452.76 458.13 454.34 462.48 453.97 466.89C453.9 467.77 453.34 468.53 452.53 468.86C451.71 469.2 450.82 469.05 450.15 468.47C446.68 465.49 442.11 464.52 437.9 465.86C433.78 467.18 430.7 470.5 429.66 474.74C429.25 476.38 427.83 477.5 426.19 477.5ZM405.87 448.65C404.95 448.65 404.07 449.05 403.46 449.74C402.85 450.43 402.57 451.36 402.69 452.27L405.54 474.36C405.75 475.96 407.12 477.16 408.73 477.16H426.2C427.68 477.16 428.97 476.14 429.33 474.68C430.4 470.32 433.56 466.91 437.79 465.55C442.11 464.17 446.81 465.17 450.36 468.22C450.93 468.71 451.69 468.84 452.39 468.55C453.1 468.26 453.56 467.63 453.62 466.87C453.97 462.55 452.43 458.29 449.27 454.87C445.63 450.92 440.25 448.65 434.51 448.65H405.87Z" fill="#000072"/>
<g opacity="0.2">
<path d="M453.78 466.89C453.63 468.64 451.57 469.51 450.24 468.36C442.77 461.94 431.73 465.56 429.48 474.72C429.1 476.25 427.76 477.33 426.19 477.33H408.72C407.02 477.33 405.58 476.07 405.37 474.38L405.19 473.02C405.64 473.24 406.13 473.36 406.66 473.36H424.13C425.7 473.36 427.05 472.27 427.42 470.75C429.67 461.59 440.71 457.96 448.18 464.39C449.51 465.54 451.57 464.67 451.72 462.92C451.9 460.76 451.59 458.62 450.88 456.61C453 459.63 454.09 463.22 453.78 466.89Z" fill="black"/>
</g>
<g opacity="0.55">
<path d="M449.71 455.11C446.37 452.46 441.95 450.79 436.94 450.79H408.3C406.26 450.79 404.68 452.58 404.94 454.61L405.47 458.75L407.05 471.02L407.781 476.7C407.801 476.89 407.84 477.07 407.9 477.24C406.57 476.92 405.54 475.8 405.35 474.39L404.62 468.71L403.04 456.44L402.51 452.3C402.25 450.28 403.83 448.48 405.87 448.48H434.52C440.86 448.48 446.25 451.15 449.71 455.11Z" fill="white"/>
</g>
<g opacity="0.55">
<path d="M394.17 456.38H380.521V460.16H394.17V456.38Z" fill="white"/>
</g>
<path d="M425.88 477.33H409.8V518.37H425.88V477.33Z" fill="#435F84" stroke="#0D2232" stroke-width="4" stroke-miterlimit="10" stroke-linecap="round" stroke-linejoin="round"/>
<g opacity="0.2">
<path d="M409.851 484.54C410.321 484.55 410.741 484.72 411.131 484.93C411.521 485.14 411.881 485.41 412.221 485.7C412.901 486.27 413.521 486.91 414.031 487.65C415.051 489.11 415.631 490.76 416.651 492.05C417.151 492.69 417.781 493.21 418.501 493.6C419.221 493.98 420.021 494.24 420.831 494.41C421.651 494.58 422.491 494.68 423.341 494.76C423.761 494.8 424.191 494.83 424.621 494.84C425.051 494.87 425.491 494.93 425.891 495.21C425.951 495.25 425.961 495.33 425.921 495.39C425.911 495.41 425.891 495.42 425.871 495.43H425.861C425.401 495.63 424.991 495.59 424.561 495.56C424.141 495.5 423.711 495.47 423.281 495.43C422.421 495.35 421.551 495.25 420.691 495.07C419.831 494.89 418.971 494.62 418.181 494.2C417.391 493.78 416.671 493.18 416.111 492.47C414.991 491.05 414.421 489.39 413.461 488.04C412.981 487.37 412.421 486.75 411.761 486.25C411.431 486 411.091 485.77 410.741 485.54C410.401 485.31 410.051 485.08 409.741 484.75C409.691 484.7 409.691 484.63 409.741 484.58C409.781 484.55 409.821 484.53 409.851 484.54Z" fill="#371A45"/>
<path d="M425.9 492C425.02 492.48 423.99 492.5 423.02 492.36C422.05 492.22 421.09 491.98 420.21 491.53C419.76 491.32 419.35 491.04 418.96 490.74C418.58 490.42 418.21 490.08 417.92 489.67C417.29 488.88 416.96 487.89 416.77 486.95C416.58 486 416.49 485.07 416.23 484.21C416.1 483.78 415.93 483.38 415.69 483.01C415.58 482.82 415.44 482.65 415.31 482.48C415.16 482.32 415.02 482.15 414.85 482.01C414.2 481.41 413.38 481 412.52 480.79C412.09 480.68 411.64 480.64 411.21 480.67C410.77 480.7 410.36 480.77 409.86 480.7H409.85C409.83 480.7 409.8 480.69 409.77 480.68L409.75 480.67C409.68 480.65 409.64 480.59 409.66 480.52C409.67 480.5 409.68 480.48 409.69 480.46C409.72 480.43 409.74 480.41 409.77 480.39H409.76C410.16 480.05 410.69 479.94 411.19 479.94C411.69 479.96 412.19 479.99 412.68 480.12C413.65 480.35 414.57 480.82 415.31 481.49C416.06 482.14 416.62 483.06 416.89 484C417.17 484.95 417.26 485.9 417.44 486.8C417.62 487.7 417.91 488.55 418.46 489.24C418.72 489.6 419.05 489.9 419.39 490.19C419.75 490.46 420.12 490.71 420.53 490.9C421.33 491.3 422.22 491.55 423.12 491.64C423.34 491.67 423.57 491.66 423.8 491.68C424.03 491.67 424.25 491.69 424.48 491.68C424.93 491.69 425.38 491.64 425.88 491.75H425.89C425.95 491.76 425.99 491.83 425.98 491.89C425.95 491.96 425.93 491.98 425.9 492Z" fill="#371A45"/>
<path d="M425.91 487.31C425.65 487.56 425.33 487.67 425 487.72C424.84 487.75 424.67 487.76 424.5 487.75C424.33 487.74 424.17 487.72 424.01 487.71C423.36 487.62 422.72 487.45 422.13 487.17C420.95 486.62 419.93 485.74 419.22 484.66C418.5 483.58 418.09 482.32 417.94 481.05C417.87 480.41 417.86 479.77 417.91 479.14C417.93 478.82 417.98 478.51 418.01 478.19C418.04 477.87 418.11 477.56 418.35 477.29V477.31C418.39 477.27 418.42 477.22 418.47 477.19C418.54 477.14 418.63 477.16 418.68 477.22L418.69 477.23V477.24C418.72 477.29 418.73 477.33 418.75 477.37V477.39C418.84 477.72 418.78 478.01 418.71 478.3C418.64 478.59 418.61 478.89 418.59 479.19C418.54 479.79 418.55 480.38 418.62 480.98C418.75 482.16 419.14 483.31 419.79 484.29C420.44 485.27 421.36 486.07 422.42 486.56C422.95 486.8 423.51 486.98 424.09 487.01C424.38 487.02 424.66 487.03 424.95 487.02C425.24 487.02 425.52 487.01 425.86 487.09C425.93 487.11 425.97 487.18 425.95 487.25C425.94 487.27 425.93 487.29 425.91 487.31Z" fill="#371A45"/>
<path d="M421.83 477.39C421.88 477.65 421.82 477.85 421.75 478.04C421.68 478.23 421.59 478.4 421.51 478.58C421.35 478.94 421.25 479.31 421.19 479.69C421.09 480.43 421.24 481.22 421.66 481.81C421.87 482.1 422.15 482.33 422.47 482.47C422.79 482.61 423.16 482.67 423.53 482.65C423.9 482.64 424.28 482.56 424.64 482.44C424.82 482.39 425 482.28 425.17 482.18C425.35 482.09 425.53 482.02 425.82 482.14H425.83C425.91 482.17 425.95 482.25 425.93 482.33C425.86 482.63 425.66 482.74 425.47 482.83C425.37 482.87 425.27 482.9 425.17 482.95C425.07 483 424.97 483.04 424.87 483.07C424.45 483.21 424.01 483.31 423.56 483.32C423.11 483.34 422.64 483.27 422.2 483.08C421.77 482.89 421.38 482.57 421.11 482.19C420.57 481.42 420.4 480.47 420.52 479.58C420.58 479.14 420.72 478.71 420.86 478.3C420.93 478.09 421.01 477.89 421.13 477.71C421.24 477.53 421.39 477.36 421.64 477.27C421.72 477.24 421.8 477.28 421.83 477.36C421.83 477.37 421.83 477.38 421.83 477.39Z" fill="#371A45"/>
<path d="M409.831 490.44C410.381 490.37 410.941 490.55 411.401 490.83C411.871 491.1 412.281 491.47 412.641 491.86C413.361 492.65 413.941 493.52 414.491 494.37C415.041 495.22 415.601 496.06 416.291 496.74C416.981 497.42 417.841 497.91 418.741 498.36C419.641 498.81 420.601 499.23 421.471 499.86C422.331 500.49 423.061 501.28 423.641 502.16C424.231 503.03 424.681 503.97 425.081 504.92C425.281 505.4 425.471 505.87 425.671 506.34C425.861 506.82 426.031 507.3 425.981 507.86C425.971 507.93 425.911 507.98 425.851 507.97C425.821 507.97 425.791 507.95 425.771 507.94C425.361 507.55 425.171 507.07 424.991 506.6C424.831 506.12 424.641 505.65 424.451 505.18C424.061 504.25 423.621 503.35 423.071 502.53C422.531 501.7 421.851 500.98 421.071 500.4C420.281 499.83 419.361 499.42 418.441 498.96C417.521 498.51 416.581 497.98 415.811 497.22C415.051 496.47 414.471 495.59 413.911 494.74C413.351 493.89 412.821 493.04 412.131 492.34C411.781 492 411.411 491.69 411.021 491.42C410.631 491.14 410.231 490.93 409.781 490.66C409.721 490.63 409.701 490.55 409.741 490.5C409.761 490.47 409.791 490.45 409.831 490.44Z" fill="#371A45"/>
<path d="M421.67 497.25C421.85 497.15 421.98 497.17 422.09 497.21C422.2 497.25 422.29 497.32 422.39 497.39C422.58 497.53 422.78 497.64 422.97 497.77C423.35 498.03 423.73 498.3 424.09 498.58C424.45 498.86 424.81 499.16 425.15 499.47C425.32 499.63 425.49 499.79 425.65 499.95C425.73 500.03 425.81 500.12 425.91 500.18C425.99 500.26 426.07 500.35 425.97 500.6C425.94 500.68 425.88 500.73 425.81 500.75C425.56 500.83 425.47 500.76 425.4 500.68C425.34 500.58 425.26 500.51 425.18 500.43C425.02 500.27 424.86 500.12 424.7 499.97C424.37 499.67 424.03 499.38 423.68 499.11C423.33 498.84 422.97 498.58 422.6 498.33C422.41 498.21 422.23 498.08 422.03 497.98C421.93 497.93 421.83 497.89 421.74 497.81C421.65 497.74 421.58 497.64 421.57 497.44C421.55 497.36 421.6 497.29 421.67 497.25Z" fill="#371A45"/>
<path d="M409.871 494.96C410.451 495.2 410.87 495.73 411.16 496.26C411.45 496.8 411.63 497.38 411.79 497.93C411.95 498.49 412.111 499.03 412.331 499.54C412.541 500.05 412.81 500.53 413.16 500.92C413.51 501.31 413.961 501.58 414.461 501.76C414.961 501.93 415.521 502.01 416.081 502.06C416.651 502.11 417.231 502.13 417.821 502.21C418.411 502.29 419.021 502.42 419.591 502.7C420.161 502.98 420.661 503.4 421.031 503.89C421.411 504.38 421.681 504.94 421.901 505.49C422.331 506.61 422.55 507.76 422.85 508.86C423.14 509.96 423.561 511.01 424.121 511.99C424.391 512.48 424.701 512.96 425.051 513.4C425.391 513.85 425.731 514.29 425.951 514.87C425.971 514.93 425.941 515 425.881 515.03C425.851 515.04 425.81 515.04 425.79 515.03C425.21 514.77 424.82 514.31 424.47 513.83C424.14 513.34 423.821 512.84 423.531 512.32C422.951 511.29 422.501 510.18 422.201 509.04C421.891 507.91 421.671 506.78 421.271 505.74C421.071 505.22 420.821 504.73 420.491 504.31C420.171 503.89 419.761 503.54 419.281 503.31C418.331 502.84 417.171 502.84 416.011 502.74C415.421 502.69 414.82 502.61 414.23 502.41C413.64 502.21 413.071 501.86 412.651 501.38C411.801 500.43 411.471 499.22 411.111 498.14C410.931 497.59 410.741 497.07 410.521 496.57C410.291 496.07 410.04 495.62 409.72 495.13C409.68 495.08 409.701 495 409.751 494.97C409.801 494.94 409.841 494.94 409.871 494.96Z" fill="#371A45"/>
<path d="M409.831 504.69C410.281 504.63 410.671 504.64 411.091 504.65L412.341 504.68C413.191 504.68 414.081 504.65 414.961 504.81C415.401 504.89 415.851 505.01 416.271 505.21C416.691 505.41 417.091 505.69 417.401 506.06C417.721 506.42 417.931 506.86 418.071 507.3C418.211 507.74 418.271 508.19 418.311 508.63C418.371 509.52 418.35 510.36 418.41 511.2C418.46 512.04 418.551 512.88 418.711 513.7C418.871 514.52 419.111 515.32 419.441 516.08C419.611 516.46 419.791 516.83 420.031 517.16C420.251 517.51 420.471 517.84 420.561 518.31C420.571 518.38 420.531 518.45 420.461 518.46C420.441 518.46 420.411 518.46 420.391 518.45C419.921 518.28 419.64 517.91 419.41 517.53C419.2 517.14 418.991 516.75 418.811 516.34C418.461 515.53 418.21 514.68 418.04 513.82C417.87 512.96 417.78 512.1 417.72 511.23C417.66 510.37 417.68 509.5 417.62 508.68C417.56 507.86 417.37 507.06 416.87 506.5C416.38 505.92 415.621 505.61 414.831 505.48C414.031 505.34 413.201 505.34 412.341 505.38C411.911 505.4 411.471 505.41 411.031 505.35C410.591 505.3 410.141 505.19 409.761 504.91C409.711 504.87 409.7 504.79 409.74 504.74C409.77 504.71 409.801 504.69 409.831 504.69Z" fill="#371A45"/>
<path d="M421.05 512.16C421.26 512.24 421.35 512.36 421.41 512.49C421.48 512.62 421.52 512.75 421.55 512.89C421.63 513.16 421.75 513.43 421.85 513.69C422.07 514.22 422.3 514.74 422.56 515.24C422.82 515.75 423.09 516.25 423.39 516.74C423.54 516.98 423.69 517.22 423.85 517.46C423.93 517.58 424.01 517.7 424.11 517.8C424.2 517.91 424.27 518.04 424.15 518.29C424.12 518.37 424.04 518.41 423.97 518.42C423.69 518.44 423.6 518.33 423.52 518.2C423.46 518.06 423.38 517.94 423.29 517.82C423.13 517.57 422.97 517.33 422.82 517.07C422.52 516.57 422.23 516.05 421.97 515.53C421.71 515.01 421.46 514.47 421.24 513.93C421.12 513.66 421.03 513.38 420.91 513.11C420.85 512.98 420.79 512.84 420.76 512.7C420.73 512.55 420.73 512.4 420.85 512.21C420.88 512.16 420.97 512.13 421.05 512.16Z" fill="#371A45"/>
<path d="M409.78 508.61C410.04 508.38 410.33 508.29 410.63 508.23C410.93 508.17 411.24 508.17 411.56 508.2C412.18 508.24 412.82 508.36 413.4 508.65C413.98 508.94 414.47 509.38 414.84 509.88C415.21 510.39 415.49 510.95 415.67 511.54C416.05 512.72 416.08 513.98 415.86 515.18C415.75 515.78 415.58 516.37 415.35 516.93L414.99 517.77C414.86 518.04 414.68 518.3 414.33 518.43C414.26 518.46 414.17 518.42 414.15 518.34C414.15 518.33 414.15 518.32 414.14 518.31V518.3C414.08 517.92 414.22 517.69 414.35 517.43C414.5 517.19 414.62 516.93 414.72 516.67C414.93 516.15 415.09 515.6 415.19 515.05C415.39 513.95 415.36 512.8 415.02 511.74C414.69 510.69 414.04 509.72 413.08 509.24C412.61 509 412.07 508.88 411.53 508.88C411.26 508.88 410.98 508.91 410.7 508.91C410.42 508.92 410.14 508.92 409.82 508.81C409.75 508.79 409.72 508.71 409.74 508.64C409.75 508.65 409.77 508.63 409.78 508.61Z" fill="#371A45"/>
<path d="M409.771 512.32C409.891 512.11 410.091 512.03 410.281 512C410.471 511.97 410.67 511.99 410.85 512.04C411.22 512.13 411.591 512.28 411.891 512.54C412.491 513.05 412.79 513.82 412.75 514.59C412.73 514.97 412.601 515.37 412.401 515.68C412.201 516 411.94 516.27 411.67 516.5C411.4 516.73 411.111 516.92 410.831 517.1C410.691 517.19 410.54 517.28 410.42 517.39C410.28 517.48 410.13 517.56 409.87 517.44C409.79 517.41 409.75 517.33 409.75 517.25C409.77 516.95 409.9 516.86 410.04 516.78C410.19 516.71 410.33 516.63 410.47 516.54C410.74 516.36 411.01 516.18 411.24 515.99C411.72 515.6 412.061 515.12 412.081 514.56C412.111 514.01 411.881 513.42 411.461 513.07C411.251 512.9 411 512.77 410.72 512.74C410.58 512.73 410.44 512.73 410.31 512.71C410.17 512.7 410.031 512.67 409.841 512.54L409.831 512.53C409.751 512.48 409.731 512.39 409.771 512.32Z" fill="#371A45"/>
</g>
<g opacity="0.55">
<path d="M412.19 518.37H409.8V482.99H410.14C411.27 482.99 412.19 483.91 412.19 485.04V518.37Z" fill="white"/>
</g>
<g opacity="0.3">
<path d="M425.88 477.33V518.37H422.07V486.84C422.07 484.74 420.37 483.04 418.27 483.04H409.8V477.33H425.88Z" fill="#371A45"/>
</g>
<path d="M429.6 521.76V563.05C429.6 564.92 428.08 566.43 426.22 566.43H409.63C409.07 566.43 408.54 566.29 408.08 566.05C406.99 565.49 406.25 564.35 406.25 563.04V521.75C406.25 519.88 407.77 518.37 409.63 518.37H426.22C428.09 518.37 429.6 519.89 429.6 521.76Z" fill="#F9DC1B"/>
<path d="M426.22 566.61H409.63C409.06 566.61 408.5 566.47 408 566.22L407.91 566.17C406.78 565.55 406.08 564.37 406.08 563.06V521.77C406.08 519.81 407.67 518.22 409.63 518.22H426.22C428.18 518.22 429.77 519.81 429.77 521.77V563.06C429.77 565.01 428.18 566.61 426.22 566.61ZM408.25 565.96C408.68 566.16 409.15 566.27 409.63 566.27H426.22C427.99 566.27 429.44 564.83 429.44 563.05V521.76C429.44 519.99 428 518.54 426.22 518.54H409.63C407.86 518.54 406.41 519.98 406.41 521.76V563.05C406.41 564.26 407.08 565.35 408.15 565.91L408.25 565.96Z" fill="#000072"/>
<path d="M429.6 521.76V563.05C429.6 564.92 428.08 566.43 426.22 566.43H420.71C422.58 566.43 424.09 564.91 424.09 563.05V521.76C424.09 519.89 422.57 518.38 420.71 518.38H426.22C428.09 518.37 429.6 519.89 429.6 521.76Z" fill="#E89F02"/>
<path d="M426.22 566.61H420.71V566.27C422.48 566.27 423.93 564.83 423.93 563.05V521.76C423.93 519.99 422.49 518.54 420.71 518.54V518.2H426.22C428.18 518.2 429.77 519.79 429.77 521.75V563.04C429.77 565.01 428.18 566.61 426.22 566.61ZM422.23 566.27H426.22C427.99 566.27 429.44 564.83 429.44 563.05V521.76C429.44 519.99 428 518.54 426.22 518.54H422.23C423.44 519.11 424.27 520.34 424.27 521.76V563.05C424.27 564.47 423.43 565.7 422.23 566.27Z" fill="#E89F02"/>
<g opacity="0.55">
<path d="M410.64 566.06C411.1 566.3 411.63 566.44 412.19 566.44H409.63C409.07 566.44 408.54 566.3 408.08 566.06C406.99 565.5 406.25 564.36 406.25 563.05V521.76C406.25 519.89 407.77 518.38 409.63 518.38H412.19C410.32 518.38 408.81 519.9 408.81 521.76V563.05C408.81 564.36 409.55 565.5 410.64 566.06Z" fill="white"/>
</g>
<g opacity="0.2">
<path d="M396.43 456.43L398.69 468.7H394.18V456.43H396.43Z" fill="black"/>
</g>
<g opacity="0.2">
<path d="M419.67 456.98C419.67 458.73 417.46 458.26 414.73 458.26C412 458.26 409.79 458.73 409.79 456.98C409.79 455.23 412 453.81 414.73 453.81C417.46 453.81 419.67 455.23 419.67 456.98Z" fill="white"/>
</g>
<g opacity="0.2">
<path d="M416.44 538.57C416.44 541.84 415.06 544.49 413.36 544.49C411.66 544.49 411.63 541.84 411.63 538.57C411.63 535.3 411.66 532.65 413.36 532.65C415.06 532.65 416.44 535.3 416.44 538.57Z" fill="white"/>
</g>
<path d="M394.18 453.67V470.93C394.18 472.27 393.09 473.36 391.76 473.36H382.39C381.05 473.36 379.96 472.27 379.96 470.93V453.67C379.96 452.33 381.05 451.25 382.39 451.25H391.76C393.09 451.24 394.18 452.33 394.18 453.67Z" stroke="#0D2232" stroke-width="4" stroke-miterlimit="10" stroke-linecap="round" stroke-linejoin="round"/>
<path d="M404.63 468.7H394.18V456.43H403.04L404.63 468.7Z" stroke="#0D2232" stroke-width="4" stroke-miterlimit="10" stroke-linecap="round" stroke-linejoin="round"/>
<path d="M453.78 466.89C453.63 468.64 451.57 469.51 450.24 468.36C442.77 461.94 431.73 465.56 429.48 474.72C429.1 476.25 427.76 477.33 426.19 477.33H408.72C407.02 477.33 405.58 476.07 405.37 474.38L404.64 468.7L403.06 456.43L402.53 452.29C402.27 450.27 403.85 448.47 405.89 448.47H434.54C446.13 448.48 454.56 457.43 453.78 466.89Z" stroke="#0D2232" stroke-width="4" stroke-miterlimit="10" stroke-linecap="round" stroke-linejoin="round"/>
<path d="M425.88 477.33H409.8V518.37H425.88V477.33Z" stroke="#0D2232" stroke-width="4" stroke-miterlimit="10" stroke-linecap="round" stroke-linejoin="round"/>
<path d="M429.6 521.76V563.05C429.6 564.92 428.08 566.43 426.22 566.43H409.63C409.07 566.43 408.54 566.29 408.08 566.05C406.99 565.49 406.25 564.35 406.25 563.04V521.75C406.25 519.88 407.77 518.37 409.63 518.37H426.22C428.09 518.37 429.6 519.89 429.6 521.76Z" stroke="#0D2232" stroke-width="4" stroke-miterlimit="10" stroke-linecap="round" stroke-linejoin="round"/>
<path d="M448.02 578.22C448.01 578.17 448.01 578.12 448.01 578.07L449.82 494.01C449.83 493.37 450.36 492.87 451 492.88L465.46 493.19C465.77 493.2 466.06 493.32 466.27 493.55C466.45 493.73 466.56 493.97 466.58 494.22C466.59 494.27 466.59 494.32 466.59 494.37L464.78 578.43C464.77 579.07 464.24 579.57 463.6 579.56L449.14 579.25C448.83 579.24 448.54 579.12 448.33 578.89C448.16 578.71 448.05 578.47 448.02 578.22Z" fill="#C14854"/>
<path d="M453.614 494.088L451.823 578.151L461.081 578.349L462.872 494.286L453.614 494.088Z" fill="#E8656D"/>
<path opacity="0.5" d="M452.493 490.416L450.619 579.239L451.758 579.263L453.633 490.44L452.493 490.416Z" fill="white"/>
<path d="M445.26 496.14C444.47 495.55 443.71 494.89 443 494.19C438.78 490.04 436.42 484.49 436.37 478.56C436.32 472.64 438.58 467.05 442.74 462.83C443.82 461.73 445.01 460.75 446.29 459.9C446.67 459.65 447.16 459.64 447.55 459.89C447.58 459.91 447.6 459.92 447.62 459.94C447.96 460.19 448.13 460.61 448.07 461.03L446.33 472.64L459.28 479.1L469.43 468.78L464.36 459.02C464.14 458.6 464.2 458.09 464.51 457.73C464.82 457.37 465.31 457.24 465.76 457.39C467.95 458.14 469.99 459.22 471.85 460.61C472.64 461.2 473.4 461.86 474.11 462.55C478.33 466.7 480.69 472.25 480.74 478.18C480.79 484.1 478.53 489.69 474.37 493.91C466.61 501.82 454.09 502.77 445.26 496.14Z" fill="#E8656D"/>
<path d="M465.38 458.5L466.18 460.04C467.42 460.82 468.59 461.74 469.68 462.81C477.96 470.95 478.07 484.26 469.93 492.54C465.43 497.12 459.34 499.19 453.4 498.76C460.4 500.52 468.12 498.64 473.54 493.12C481.68 484.84 481.57 471.53 473.29 463.39C470.97 461.12 468.26 459.49 465.38 458.5Z" fill="#C14854"/>
<path opacity="0.5" d="M443.45 489.72C451.4 499.88 461.97 496.41 461.97 496.41C461.97 496.41 454.11 494.59 448.28 488.31C442.19 481.76 439.9 474.8 439.9 474.8C439.9 474.8 437.69 482.36 443.45 489.72Z" fill="white"/>
<path opacity="0.5" d="M445.34 575.9C448.3 572 451.28 572.7 451.28 572.7C451.28 572.7 447.38 576.12 445.21 580.83C443.17 585.26 443.47 592.44 443.47 592.44C443.47 592.44 441.47 587.62 441.75 585.18C442.21 581.2 443.34 578.53 445.34 575.9Z" fill="white"/>
<path d="M448.18 570.08L449.72 498.72" stroke="#0D2232" stroke-width="4" stroke-miterlimit="10" stroke-linecap="round" stroke-linejoin="round"/>
<path d="M466.49 499.11L464.96 570.48" stroke="#0D2232" stroke-width="4" stroke-miterlimit="10" stroke-linecap="round" stroke-linejoin="round"/>
<path d="M445.26 496.14C444.47 495.55 443.71 494.89 443 494.19C438.78 490.04 436.42 484.49 436.37 478.56C436.32 472.64 438.58 467.05 442.74 462.83C443.82 461.73 445.01 460.75 446.29 459.9C446.67 459.65 447.16 459.64 447.55 459.89C447.58 459.91 447.6 459.92 447.62 459.94C447.96 460.19 448.13 460.61 448.07 461.03L446.33 472.64L459.28 479.1L469.43 468.78L464.36 459.02C464.14 458.6 464.2 458.09 464.51 457.73C464.82 457.37 465.31 457.24 465.76 457.39C467.95 458.14 469.99 459.22 471.85 460.61C472.64 461.2 473.4 461.86 474.11 462.55C478.33 466.7 480.69 472.25 480.74 478.18C480.79 484.1 478.53 489.69 474.37 493.91C466.61 501.82 454.09 502.77 445.26 496.14Z" stroke="#0D2232" stroke-width="4" stroke-miterlimit="10" stroke-linecap="round" stroke-linejoin="round"/>
<path d="M382.61 522.93V581.09C382.61 581.09 394.18 598.45 416.68 598.45C439.18 598.45 455.25 598.45 455.25 598.45L462 589.77C462 589.77 467.46 548.95 468.11 533.2C468.11 533.2 406.4 534.85 382.61 522.93Z" fill="#FEC400"/>
<path d="M387.88 525.15V568.81C387.88 576.24 392.08 583.05 398.75 586.31C409.72 591.68 429.73 596.8 462.01 589.78L455.26 598.46L413.31 598.7C413.31 598.7 391.61 595.89 382.61 581.1V522.94L387.88 525.15Z" fill="#E89F02"/>
<path d="M382.61 522.93V576.14C382.61 579.76 384.07 583.22 386.63 585.78C391.78 590.92 401.86 598.45 416.68 598.45H448.18C452.64 598.45 456.85 596.39 459.59 592.87C461.17 590.84 462.18 588.42 462.51 585.87C463.88 575.28 467.58 545.99 468.1 533.2C468.11 533.2 406.4 534.85 382.61 522.93Z" stroke="#0D2232" stroke-width="4" stroke-miterlimit="10" stroke-linecap="round" stroke-linejoin="round"/>
<path d="M382.61 538.02C382.61 538.02 402.31 554.92 466.59 548.49" stroke="#0D2232" stroke-width="4" stroke-miterlimit="10" stroke-linecap="round" stroke-linejoin="round"/>
<path d="M245.04 522.93V582.37C245.04 582.37 220.61 601.01 183.33 598.44C183.33 598.44 167.9 574.01 163.4 533.19C163.4 533.2 227.68 536.78 245.04 522.93Z" stroke="white" stroke-miterlimit="10"/>
<path d="M165.95 549.78C165.95 549.78 219.33 550.24 245.04 538.02" stroke="white" stroke-miterlimit="10"/>
<path d="M178.79 589.81C178.79 589.81 210.97 590.73 229.62 580.45L225.5 530.27L245.05 522.93V582.37C245.05 582.37 223.19 599.73 183.34 598.44L178.79 589.81Z" stroke="white" stroke-miterlimit="10"/>
<path d="M245.21 538.02C245.21 538.02 223.97 554.73 159.61 548.31" stroke="white" stroke-miterlimit="10"/>
<path d="M263.23 498.16V586.88L251.65 598.45H172.48L183.1 590.09L182.46 498.16H263.23Z" fill="#F9DC1B"/>
<path d="M253.58 498.16V581.32L246.82 590.09H165.72L172.48 598.45H251.65L263.23 586.88V498.16H253.58Z" fill="#E89F02"/>
<path d="M251.007 515.667H256.157V510.527H251.007V515.667Z" fill="white"/>
<path d="M251.007 532.082H256.157V526.942H251.007V532.082Z" fill="white"/>
<path d="M251.007 548.488H256.157V543.348H251.007V548.488Z" fill="white"/>
<path d="M251.007 564.903H256.157V559.763H251.007V564.903Z" fill="white"/>
<path d="M251.007 581.319H256.157V576.179H251.007V581.319Z" fill="white"/>
<path d="M182.46 533.2V498.16H263.23V586.88L251.65 598.45L173.55 597.61" stroke="#0D2232" stroke-width="4" stroke-miterlimit="10" stroke-linecap="round" stroke-linejoin="round"/>
<path d="M188.38 468.1L193.05 485.71L190.32 488.62C187.05 483.72 181.01 480.99 174.95 482.22C174.66 482.28 174.37 482.35 174.08 482.42C175.33 481.38 176.24 480.2 176.82 478.98C179.36 473.67 176.02 467.31 169.75 466.17L166 451.93C175.49 453.24 182.35 458.3 187.4 465.93C187.85 466.6 188.18 467.33 188.38 468.1Z" fill="#AFCADC"/>
<path d="M190.31 488.93L190.18 488.73C186.88 483.78 180.79 481.24 175.01 482.41C174.74 482.46 174.46 482.53 174.16 482.61L173.32 482.83L173.99 482.27C175.18 481.28 176.09 480.15 176.68 478.89C177.84 476.47 177.79 473.7 176.56 471.29C175.23 468.7 172.75 466.9 169.75 466.35L169.63 466.33L165.75 451.69L166.04 451.73C175.07 452.98 182.12 457.58 187.58 465.81C188.04 466.5 188.38 467.25 188.59 468.04L193.29 485.75L190.31 488.93ZM174.8 482.05C174.84 482.04 174.88 482.03 174.93 482.02C180.78 480.83 186.94 483.35 190.36 488.3L192.85 485.64L188.2 468.14C188 467.39 187.68 466.68 187.24 466.02C181.9 457.98 175.04 453.43 166.26 452.15L169.93 465.99C172.99 466.58 175.53 468.44 176.89 471.11C178.18 473.63 178.22 476.52 177.01 479.05C176.5 480.15 175.75 481.16 174.8 482.05Z" fill="#000072"/>
<g opacity="0.55">
<path d="M176.81 481.97C176.2 482.01 175.58 482.1 174.96 482.22C174.67 482.28 174.38 482.35 174.09 482.42C175.34 481.38 176.25 480.2 176.83 478.98C179.37 473.67 176.03 467.31 169.76 466.17L166 451.93C167.02 452.07 168 452.25 168.95 452.48L172.47 465.73C178.74 466.87 182.08 473.22 179.54 478.54C178.95 479.76 178.05 480.93 176.81 481.97Z" fill="white"/>
</g>
<g opacity="0.55">
<path d="M176.88 481.96L176.79 481.98C176.8 481.97 176.8 481.97 176.81 481.96C176.83 481.96 176.85 481.96 176.88 481.96Z" fill="white"/>
<path d="M176.93 482.15L176.02 482.39L176.76 481.78C176.8 481.77 176.83 481.77 176.85 481.77L178.48 481.73L176.93 482.15Z" fill="#371A45"/>
</g>
<path d="M196.08 497.08L198.36 505.69C198.5 506.22 198.21 506.78 197.71 506.97C197.67 506.98 197.64 506.99 197.6 507L182.02 511.14C180.44 511.56 178.84 511.71 177.27 511.62C172.25 511.32 167.56 508.55 165.02 504.22C164.37 503.12 163.86 501.93 163.52 500.64C163.09 499.03 162.95 497.42 163.05 495.85C163.45 489.64 167.74 484.11 174.09 482.43H174.1C174.39 482.35 174.67 482.29 174.97 482.23C181.03 481 187.07 483.73 190.34 488.63C191.3 490.07 192.01 491.69 192.43 493.45C192.7 494.59 192.82 495.73 192.82 496.85L194.78 496.33C195.14 496.23 195.51 496.34 195.77 496.57C195.9 496.69 196.02 496.87 196.08 497.08Z" fill="#AFCADC"/>
<path d="M197.65 507.19L182.07 511.33C180.5 511.75 178.88 511.91 177.26 511.81C172.14 511.51 167.39 508.64 164.85 504.32C164.18 503.19 163.67 501.97 163.33 500.7C162.91 499.1 162.75 497.47 162.85 495.84C163.27 489.37 167.76 483.91 174.03 482.24C174.36 482.15 174.64 482.09 174.92 482.03C180.84 480.83 187.1 483.43 190.48 488.51C191.47 490 192.18 491.64 192.59 493.39C192.84 494.44 192.97 495.52 192.98 496.59L194.7 496.13C195.11 496.02 195.55 496.12 195.86 496.41C196.05 496.57 196.18 496.79 196.24 497.03L198.52 505.64C198.69 506.27 198.35 506.92 197.75 507.15C197.73 507.16 197.69 507.17 197.65 507.19ZM174.15 482.6C168.03 484.23 163.65 489.55 163.24 495.85C163.13 497.44 163.29 499.03 163.7 500.58C164.03 501.82 164.53 503.01 165.18 504.11C167.65 508.32 172.29 511.12 177.28 511.41C178.86 511.5 180.44 511.35 181.97 510.94L197.55 506.8C197.58 506.79 197.61 506.78 197.64 506.77C198.06 506.61 198.29 506.16 198.18 505.72L195.9 497.11C195.86 496.94 195.76 496.79 195.63 496.68C195.41 496.48 195.11 496.41 194.82 496.48L192.62 497.06V496.81C192.62 495.69 192.49 494.56 192.23 493.45C191.83 491.74 191.14 490.14 190.17 488.69C186.87 483.74 180.78 481.2 175 482.37C174.73 482.46 174.45 482.52 174.15 482.6Z" fill="#000072"/>
<g opacity="0.3">
<path d="M188.38 468.1L193.05 485.71L190.32 488.62C190.14 488.35 189.95 488.08 189.75 487.82C186.38 483.42 180.68 481.05 174.95 482.22C174.66 482.28 174.37 482.35 174.08 482.42C175.33 481.38 176.24 480.2 176.82 478.98C176.9 478.95 176.99 478.93 177.07 478.91H177.09C177.37 478.84 177.66 478.77 177.96 478.71C180.6 478.17 183.23 478.39 185.63 479.21C187.09 479.71 188.51 478.41 188.12 476.92L186.06 469.17C185.86 468.4 185.52 467.67 185.08 467C180.52 460.12 174.49 455.33 166.4 453.5L165.99 451.95C175.48 453.26 182.34 458.32 187.39 465.95C187.85 466.6 188.18 467.33 188.38 468.1Z" fill="black"/>
<path d="M190.3 488.93L190.17 488.73C189.99 488.45 189.8 488.19 189.61 487.95C186.19 483.48 180.46 481.31 175 482.42C174.73 482.47 174.45 482.54 174.15 482.62L173.31 482.84L173.98 482.28C175.17 481.29 176.08 480.16 176.67 478.9L176.71 478.82L176.79 478.79C177.19 478.66 177.6 478.58 177.94 478.51C180.52 477.99 183.2 478.16 185.71 479.01C186.33 479.22 186.99 479.08 187.47 478.64C187.94 478.2 188.12 477.58 187.95 476.96L185.89 469.21C185.69 468.47 185.37 467.76 184.93 467.09C180.09 459.79 174.02 455.4 166.36 453.67L166.25 453.64L165.73 451.7L166.02 451.74C175.05 452.99 182.1 457.59 187.56 465.82C188.02 466.51 188.36 467.26 188.57 468.05L193.27 485.76L190.3 488.93ZM174.8 482.05C174.84 482.04 174.88 482.03 174.93 482.02C180.53 480.88 186.41 483.11 189.92 487.7C190.07 487.89 190.22 488.09 190.36 488.31L192.85 485.65L188.2 468.15C188 467.4 187.68 466.69 187.24 466.03C181.9 457.99 175.04 453.44 166.26 452.16L166.57 453.32C174.27 455.09 180.38 459.53 185.26 466.88C185.72 467.58 186.06 468.33 186.27 469.11L188.33 476.86C188.53 477.62 188.31 478.39 187.74 478.92C187.16 479.46 186.36 479.63 185.59 479.38C183.15 478.55 180.53 478.38 178.02 478.89C177.75 478.94 177.44 479.01 177.16 479.09C177.1 479.11 177.04 479.12 176.99 479.14C176.46 480.2 175.73 481.18 174.8 482.05Z" fill="#371A45"/>
</g>
<g opacity="0.55">
<path d="M184.97 483.74C182.55 482.9 179.88 482.67 177.21 483.21C176.92 483.27 176.63 483.34 176.34 483.41H176.33C169.99 485.09 165.7 490.63 165.29 496.83C165.19 498.4 165.33 500.02 165.76 501.62C166.1 502.9 166.61 504.1 167.26 505.2C168.66 507.58 170.7 509.49 173.1 510.77C169.75 509.6 166.83 507.3 165.01 504.2C164.36 503.1 163.85 501.91 163.51 500.62C163.08 499.01 162.94 497.4 163.04 495.83C163.44 489.62 167.73 484.09 174.08 482.41H174.09C174.38 482.33 174.66 482.27 174.96 482.21C178.49 481.5 182.01 482.13 184.97 483.74Z" fill="white"/>
</g>
<path d="M177.91 504.7C182.262 504.7 185.79 501.172 185.79 496.82C185.79 492.468 182.262 488.94 177.91 488.94C173.558 488.94 170.03 492.468 170.03 496.82C170.03 501.172 173.558 504.7 177.91 504.7Z" fill="#CECEDD"/>
<g opacity="0.55">
<path d="M188 496.23C189.12 500.44 186.61 504.75 182.41 505.87C179.81 506.56 177.17 505.87 175.26 504.24C176.71 504.76 178.33 504.86 179.94 504.44C184.15 503.32 186.65 499.01 185.53 494.8C185.1 493.2 184.21 491.84 183.04 490.84C185.39 491.68 187.31 493.63 188 496.23Z" fill="white"/>
</g>
<g opacity="0.3">
<path d="M182.71 490.57C181.42 490.21 180.02 490.19 178.63 490.56C174.42 491.68 171.92 495.99 173.04 500.2C173.5 501.95 174.52 503.4 175.86 504.42C173.23 503.71 171.05 501.66 170.3 498.84C169.18 494.63 171.69 490.32 175.89 489.2C178.35 488.55 180.84 489.13 182.71 490.57Z" fill="black"/>
<path d="M176.74 504.86L175.8 504.61C173.02 503.86 170.84 501.67 170.1 498.89C168.96 494.59 171.53 490.16 175.83 489.02C178.27 488.37 180.82 488.88 182.82 490.42L183.6 491.02L182.65 490.76C181.36 490.4 179.99 490.4 178.67 490.75C174.57 491.84 172.12 496.06 173.21 500.15C173.65 501.8 174.6 503.23 175.96 504.27L176.74 504.86ZM175.94 489.39C171.84 490.48 169.39 494.7 170.48 498.79C171.1 501.12 172.79 503.02 174.99 503.93C173.96 502.92 173.23 501.67 172.85 500.25C171.71 495.95 174.28 491.52 178.58 490.38C179.63 490.1 180.73 490.04 181.79 490.19C180.04 489.15 177.95 488.85 175.94 489.39Z" fill="#371A45"/>
</g>
<path d="M181.73 511.21L185.34 524.81C185.82 526.61 186.87 528.22 188.33 529.38L203.09 541.12C205.52 543.05 207.26 545.71 208.05 548.7L215.42 576.48C215.89 578.26 217.94 579.07 219.52 578.11C223.18 575.88 226.02 573.3 227.56 570.16C228.8 567.63 229 564.71 228.27 561.98L222.68 540.94C222.12 538.83 221 536.92 219.44 535.39L209.68 525.85C207.77 523.98 206.64 521.44 206.61 518.77C206.58 515.75 207.17 512.39 208.12 508.83C208.71 506.61 206.69 504.58 204.47 505.17L181.73 511.21Z" fill="#F9DC1B"/>
<path d="M222.7 540.93L228.29 561.98C229.01 564.71 228.82 567.63 227.58 570.16C226.04 573.3 223.19 575.88 219.53 578.11C218.45 578.77 217.15 578.59 216.29 577.85C219.37 575.8 221.77 573.45 223.14 570.66C224.38 568.13 224.58 565.21 223.85 562.48L218.26 541.43C217.7 539.32 216.58 537.41 215.02 535.88L205.26 526.34C203.35 524.47 202.23 521.93 202.2 519.26C202.17 516.24 202.76 512.88 203.71 509.32C204.11 507.81 203.3 506.38 202.04 505.82L204.51 505.17C206.73 504.58 208.75 506.61 208.16 508.83C207.21 512.39 206.62 515.75 206.65 518.77C206.68 521.44 207.81 523.98 209.71 525.85L219.47 535.39C221.02 536.91 222.14 538.83 222.7 540.93Z" fill="#E89F02"/>
<g opacity="0.55">
<path d="M218.64 577.61C218.71 577.88 218.82 578.14 218.96 578.36C217.49 578.86 215.84 578.05 215.42 576.47L208.05 548.69C207.26 545.7 205.52 543.04 203.09 541.11L188.33 529.37C186.87 528.21 185.82 526.61 185.34 524.8L181.73 511.2L204.5 505.16C205.79 504.82 207 505.36 207.69 506.3L184.95 512.33L188.56 525.93C189.04 527.74 190.09 529.34 191.55 530.5L206.31 542.24C208.73 544.17 210.47 546.83 211.27 549.82L218.64 577.61Z" fill="white"/>
</g>
<path d="M181.73 511.21L185.34 524.81C185.82 526.61 185.7 528.52 185.01 530.26L178.01 547.77C176.86 550.65 176.67 553.82 177.46 556.82L184.83 584.6C185.3 586.38 183.92 588.1 182.08 588.04C177.8 587.92 174.05 587.09 171.15 585.13C168.81 583.55 167.2 581.11 166.47 578.38L160.88 557.34C160.32 555.23 160.34 553.02 160.94 550.92L164.68 537.8C165.41 535.23 165.13 532.47 163.83 530.13C162.36 527.49 160.18 524.86 157.59 522.24C155.98 520.61 156.73 517.85 158.94 517.26L181.73 511.21Z" fill="#F9DC1B"/>
<path d="M181.73 511.21L185.34 524.81C185.82 526.62 185.7 528.53 185.01 530.26L178.01 547.77C176.86 550.65 176.67 553.82 177.46 556.82L184.83 584.6C185.3 586.38 183.92 588.1 182.08 588.05C181.29 588.03 180.51 587.98 179.75 587.9C180.08 587.31 180.19 586.6 180 585.88L172.63 558.1C171.84 555.11 172.03 551.93 173.18 549.05L180.18 531.54C180.87 529.81 180.99 527.9 180.51 526.09L176.9 512.49L181.73 511.21Z" fill="#E89F02"/>
<g opacity="0.55">
<path d="M161.58 523.17C164.17 525.79 166.35 528.42 167.82 531.06C169.12 533.39 169.4 536.16 168.67 538.73L164.93 551.85C164.33 553.95 164.31 556.17 164.87 558.27L170.46 579.32C171.18 582.05 172.8 584.49 175.13 586.07C176.16 586.77 177.3 587.32 178.53 587.75C175.72 587.35 173.23 586.53 171.17 585.13C168.84 583.55 167.22 581.11 166.5 578.38L160.91 557.33C160.35 555.22 160.37 553 160.97 550.91L164.71 537.79C165.44 535.22 165.16 532.46 163.86 530.13C162.39 527.49 160.21 524.86 157.62 522.24C156.01 520.61 156.76 517.84 158.97 517.26L181.73 511.21L182.22 513.07L162.92 518.2C160.71 518.78 159.96 521.54 161.58 523.17Z" fill="white"/>
</g>
<path d="M177.27 511.61L177.46 512.34L164.58 515.76L162.22 506.88C161.96 505.89 162.55 504.87 163.54 504.61L165.01 504.22C167.56 508.54 172.24 511.32 177.27 511.61Z" fill="#AFCADC"/>
<path d="M177.7 512.48L164.44 516L162.03 506.93C161.74 505.84 162.39 504.71 163.49 504.42L165.1 503.99L165.17 504.12C167.64 508.33 172.28 511.13 177.27 511.42L177.41 511.43L177.7 512.48ZM164.72 515.53L177.23 512.21L177.12 511.8C172.11 511.46 167.46 508.65 164.93 504.44L163.6 504.79C162.71 505.03 162.18 505.94 162.42 506.83L164.72 515.53Z" fill="#000072"/>
<g opacity="0.55">
<path d="M165.14 504.18C165.34 504.53 165.57 504.87 165.8 505.2L165.67 505.24C164.68 505.5 164.09 506.52 164.35 507.51L166.41 515.28L164.7 515.73L162.34 506.85C162.08 505.86 162.67 504.84 163.66 504.58L165.14 504.18Z" fill="white"/>
</g>
<path d="M174.08 482.42C167.74 484.1 163.45 489.64 163.04 495.84L159.24 494.67L154.57 477.06C154.36 476.29 154.29 475.49 154.35 474.69C154.96 465.56 158.4 457.76 165.99 451.92L169.77 466.16C163.76 471.21 165.55 480.94 174.08 482.42Z" fill="#AFCADC"/>
<path d="M163.22 496.1L159.09 494.83L154.39 477.12C154.18 476.33 154.1 475.51 154.16 474.68C154.82 464.83 158.65 457.33 165.88 451.77L166.11 451.59L169.99 466.23L169.9 466.31C167.01 468.73 165.8 472.39 166.73 475.85C167.63 479.19 170.39 481.57 174.12 482.22L174.98 482.37L174.13 482.59C168.02 484.21 163.64 489.54 163.24 495.84L163.22 496.1ZM159.41 494.53L162.87 495.6C163.36 489.49 167.49 484.32 173.29 482.46C169.8 481.61 167.23 479.22 166.36 475.97C165.4 472.4 166.63 468.63 169.56 466.11L165.89 452.27C158.9 457.74 155.19 465.09 154.55 474.72C154.5 475.51 154.57 476.29 154.77 477.03L159.41 494.53Z" fill="#000072"/>
<g opacity="0.3">
<path d="M171.41 483.41C171.46 483.39 171.51 483.36 171.56 483.34C171.58 483.34 171.6 483.35 171.62 483.35C171.55 483.37 171.48 483.39 171.41 483.41Z" fill="#262F6A"/>
<path d="M171.47 483.6L171.32 483.25C171.37 483.22 171.43 483.2 171.48 483.17L171.53 483.15L171.63 483.16L172.43 483.32L171.67 483.53C171.6 483.56 171.54 483.58 171.47 483.6Z" fill="#371A45"/>
</g>
<g opacity="0.3">
<path d="M171.96 481.84C172.55 482.07 172.56 482.9 171.97 483.16C171.83 483.22 171.69 483.28 171.56 483.35C163.07 481.83 160.69 472.03 166.68 467L163.3 454.26C164.13 453.45 165.03 452.68 166 451.94L169.78 466.18C164.3 470.76 165.29 479.24 171.96 481.84Z" fill="#262F6A"/>
<path d="M171.59 483.54L171.53 483.53C167.48 482.8 164.47 480.15 163.48 476.43C162.55 472.94 163.69 469.3 166.47 466.92L163.09 454.19L163.17 454.11C164.01 453.3 164.92 452.51 165.88 451.77L166.11 451.59L169.99 466.23L169.9 466.31C167.27 468.52 166.01 471.77 166.55 475.01C167.05 478.07 169.05 480.5 172.04 481.66C172.38 481.8 172.6 482.11 172.61 482.48C172.62 482.86 172.41 483.18 172.06 483.33C171.92 483.39 171.79 483.45 171.65 483.52L171.59 483.54ZM163.52 454.31L166.9 467.06L166.81 467.14C164.08 469.43 162.95 472.95 163.85 476.34C164.8 479.89 167.67 482.43 171.53 483.15C171.65 483.09 171.77 483.04 171.9 482.98C172.14 482.88 172.22 482.66 172.22 482.49C172.22 482.28 172.1 482.1 171.9 482.02C168.79 480.81 166.7 478.28 166.17 475.08C165.62 471.75 166.89 468.4 169.56 466.11L165.89 452.27C165.05 452.91 164.26 453.6 163.52 454.31Z" fill="#371A45"/>
</g>
<g opacity="0.55">
<path d="M166 451.93L166.54 453.98C160.47 459.58 157.64 466.7 157.09 474.9C157.04 475.7 157.11 476.5 157.31 477.27L161.98 494.88L163.09 495.22C163.07 495.43 163.05 495.64 163.04 495.85L159.24 494.68L154.57 477.07C154.36 476.3 154.29 475.5 154.35 474.7C154.97 465.57 158.41 457.77 166 451.93Z" fill="white"/>
</g>
<g opacity="0.2">
<path d="M196.08 497.08L198.36 505.69C198.5 506.22 198.21 506.78 197.71 506.97L184.8 510.4C191.05 507.37 194.1 503.06 193.33 497.2L195.76 496.56C195.9 496.69 196.02 496.87 196.08 497.08Z" fill="black"/>
</g>
<path d="M177.27 511.61L177.46 512.34L164.58 515.76L162.22 506.88C161.96 505.89 162.55 504.87 163.54 504.61L165.01 504.22C167.56 508.54 172.24 511.32 177.27 511.61Z" stroke="#0D2232" stroke-width="4" stroke-miterlimit="10" stroke-linecap="round" stroke-linejoin="round"/>
<path d="M181.73 511.21L185.34 524.81C185.82 526.61 186.87 528.22 188.33 529.38L203.09 541.12C205.52 543.05 207.26 545.71 208.05 548.7L215.42 576.48C215.89 578.26 217.94 579.07 219.52 578.11C223.18 575.88 226.02 573.3 227.56 570.16C228.8 567.63 229 564.71 228.27 561.98L222.68 540.94C222.12 538.83 221 536.92 219.44 535.39L209.68 525.85C207.77 523.98 206.64 521.44 206.61 518.77C206.58 515.75 207.17 512.39 208.12 508.83C208.71 506.61 206.69 504.58 204.47 505.17L181.73 511.21Z" stroke="#0D2232" stroke-width="4" stroke-miterlimit="10" stroke-linecap="round" stroke-linejoin="round"/>
<path d="M181.73 511.21L185.34 524.81C185.82 526.61 185.7 528.52 185.01 530.26L178.01 547.77C176.86 550.65 176.67 553.82 177.46 556.82L184.83 584.6C185.3 586.38 183.92 588.1 182.08 588.04C177.8 587.92 174.05 587.09 171.15 585.13C168.81 583.55 167.2 581.11 166.47 578.38L160.88 557.34C160.32 555.23 160.34 553.02 160.94 550.92L164.68 537.8C165.41 535.23 165.13 532.47 163.83 530.13C162.36 527.49 160.18 524.86 157.59 522.24C155.98 520.61 156.73 517.85 158.94 517.26L181.73 511.21Z" stroke="#0D2232" stroke-width="4" stroke-miterlimit="10" stroke-linecap="round" stroke-linejoin="round"/>
<path d="M188.38 468.1L193.05 485.71L190.32 488.62C187.05 483.72 181.01 480.99 174.95 482.22C174.66 482.28 174.37 482.35 174.08 482.42C175.33 481.38 176.24 480.2 176.82 478.98C179.36 473.67 176.02 467.31 169.75 466.17L166 451.93C175.49 453.24 182.35 458.3 187.4 465.93C187.85 466.6 188.18 467.33 188.38 468.1Z" stroke="#0D2232" stroke-width="4" stroke-miterlimit="10" stroke-linecap="round" stroke-linejoin="round"/>
<path d="M196.08 497.08L198.36 505.69C198.5 506.22 198.21 506.78 197.71 506.97C197.67 506.98 197.64 506.99 197.6 507L182.02 511.14C180.44 511.56 178.84 511.71 177.27 511.62C172.25 511.32 167.56 508.55 165.02 504.22C164.37 503.12 163.86 501.93 163.52 500.64C163.09 499.03 162.95 497.42 163.05 495.85C163.45 489.64 167.74 484.11 174.09 482.43H174.1C174.39 482.35 174.67 482.29 174.97 482.23C181.03 481 187.07 483.73 190.34 488.63C191.3 490.07 192.01 491.69 192.43 493.45C192.7 494.59 192.82 495.73 192.82 496.85L194.78 496.33C195.14 496.23 195.51 496.34 195.77 496.57C195.9 496.69 196.02 496.87 196.08 497.08Z" stroke="#0D2232" stroke-width="4" stroke-miterlimit="10" stroke-linecap="round" stroke-linejoin="round"/>
<path d="M174.08 482.42C167.74 484.1 163.45 489.64 163.04 495.84L159.24 494.67L154.57 477.06C154.36 476.29 154.29 475.49 154.35 474.69C154.96 465.56 158.4 457.76 165.99 451.92L169.77 466.16C163.76 471.21 165.55 480.94 174.08 482.42Z" stroke="#0D2232" stroke-width="4" stroke-miterlimit="10" stroke-linecap="round" stroke-linejoin="round"/>
<path d="M177.91 504.7C182.262 504.7 185.79 501.172 185.79 496.82C185.79 492.468 182.262 488.94 177.91 488.94C173.558 488.94 170.03 492.468 170.03 496.82C170.03 501.172 173.558 504.7 177.91 504.7Z" stroke="#0D2232" stroke-width="4" stroke-miterlimit="10" stroke-linecap="round" stroke-linejoin="round"/>
<path d="M230.23 528.67H209.68C207.49 528.67 205.71 526.89 205.71 524.7V523.57C205.71 521.38 207.49 519.6 209.68 519.6H230.23C232.42 519.6 234.2 521.38 234.2 523.57V524.7C234.2 526.9 232.42 528.67 230.23 528.67Z" fill="#F9DC1B"/>
<path d="M228.56 528.67H211.42V535.75H228.56V528.67Z" fill="#F9DC1B"/>
<path d="M221.73 580.23H218.18C211.29 580.23 205.71 574.65 205.71 567.76V539.9C205.71 537.61 207.56 535.76 209.85 535.76H230.06C232.35 535.76 234.2 537.61 234.2 539.9V567.76C234.2 574.64 228.61 580.23 221.73 580.23Z" fill="#F9DC1B"/>
<path d="M234.2 522.65V525.63C234.2 527.31 232.84 528.67 231.16 528.67H226.16C227.84 528.67 229.2 527.31 229.2 525.63V522.65C229.2 520.97 227.84 519.61 226.16 519.61H231.16C232.83 519.61 234.2 520.97 234.2 522.65Z" fill="#E89F02"/>
<path d="M228.57 528.68H223.57V535.76H228.57V528.68Z" fill="#E89F02"/>
<path d="M234.2 538.78V566.4C234.2 574.04 228.01 580.23 220.37 580.23H220.1C225.13 580.23 229.21 576.15 229.21 571.12V538.78C229.21 537.11 227.86 535.76 226.19 535.76H231.19C232.84 535.75 234.2 537.11 234.2 538.78Z" fill="#E89F02"/>
<g opacity="0.55">
<path d="M212.29 528.68H208.76C207.08 528.68 205.72 527.32 205.72 525.64V522.66C205.72 520.98 207.08 519.62 208.76 519.62H212.29C210.61 519.62 209.25 520.98 209.25 522.66V525.64C209.24 527.31 210.6 528.68 212.29 528.68Z" fill="white"/>
</g>
<g opacity="0.55">
<path d="M214.95 528.68H211.42V535.76H214.95V528.68Z" fill="white"/>
</g>
<g opacity="0.55">
<path d="M218.35 580.23H214.82C209.79 580.23 205.71 576.15 205.71 571.12V538.78C205.71 537.11 207.06 535.76 208.73 535.76H212.26C210.59 535.76 209.24 537.11 209.24 538.78V571.12C209.24 576.15 213.32 580.23 218.35 580.23Z" fill="white"/>
</g>
<path d="M229.89 480.9L227.57 488.08H224.59V519.61H215.64V488.08H212.66L210.34 480.9L213.99 460.36H226.25L229.89 480.9Z" fill="#AFCADC"/>
<path d="M224.75 519.77H215.47V488.24H212.53L210.16 480.91L210.17 480.87L213.84 460.19H226.37L230.05 480.91L227.68 488.24H224.74V519.77H224.75ZM215.81 519.44H224.42V487.91H227.45L229.72 480.89L226.11 460.53H214.13L210.52 480.89L212.79 487.91H215.82V519.44H215.81Z" fill="#000072"/>
<g opacity="0.2">
<path d="M223.77 488.08H224.59V519.61H221.83V490.02C221.83 488.95 222.7 488.08 223.77 488.08Z" fill="black"/>
</g>
<g opacity="0.2">
<path d="M229.89 480.9L227.57 488.08H224.81L227.13 480.9L223.49 460.36H226.25L229.89 480.9Z" fill="black"/>
</g>
<g opacity="0.55">
<path d="M213.2 480.9L215.52 488.08H212.99L210.68 480.9L214.32 460.36H216.85L213.2 480.9Z" fill="white"/>
</g>
<g opacity="0.55">
<path d="M218.5 489.73V519.61H215.97V488.08H216.85C217.77 488.08 218.5 488.82 218.5 489.73Z" fill="white"/>
</g>
<g opacity="0.2">
<path d="M219.6 554.77C219.6 558.43 218.06 561.4 216.15 561.4C214.24 561.4 214.22 558.43 214.22 554.77C214.22 551.11 214.25 548.14 216.15 548.14C218.05 548.14 219.6 551.12 219.6 554.77Z" fill="white"/>
</g>
<path d="M230.23 528.67H209.68C207.49 528.67 205.71 526.89 205.71 524.7V523.57C205.71 521.38 207.49 519.6 209.68 519.6H230.23C232.42 519.6 234.2 521.38 234.2 523.57V524.7C234.2 526.9 232.42 528.67 230.23 528.67Z" stroke="#0D2232" stroke-width="4" stroke-miterlimit="10" stroke-linecap="round" stroke-linejoin="round"/>
<path d="M228.56 528.67H211.42V535.75H228.56V528.67Z" stroke="#0D2232" stroke-width="4" stroke-miterlimit="10" stroke-linecap="round" stroke-linejoin="round"/>
<path d="M221.73 580.23H218.18C211.29 580.23 205.71 574.65 205.71 567.76V539.9C205.71 537.61 207.56 535.76 209.85 535.76H230.06C232.35 535.76 234.2 537.61 234.2 539.9V567.76C234.2 574.64 228.61 580.23 221.73 580.23Z" stroke="#0D2232" stroke-width="4" stroke-miterlimit="10" stroke-linecap="round" stroke-linejoin="round"/>
<path d="M229.89 480.9L227.57 488.08H224.59V519.61H215.64V488.08H212.66L210.34 480.9L213.99 460.36H226.25L229.89 480.9Z" stroke="#0D2232" stroke-width="4" stroke-miterlimit="10" stroke-linecap="round" stroke-linejoin="round"/>
<path d="M245.21 522.93V581.09C245.21 581.09 233.62 598.45 211.1 598.45C188.58 598.45 172.48 598.45 172.48 598.45L165.72 589.77C165.72 589.77 160.25 548.95 159.61 533.2C159.61 533.2 221.4 534.85 245.21 522.93Z" fill="#FEC400"/>
<path d="M239.94 525.15V568.81C239.94 576.24 235.74 583.05 229.06 586.31C218.07 591.68 198.04 596.8 165.73 589.78L172.49 598.46L214.49 598.7C214.49 598.7 236.21 595.89 245.22 581.1V522.94L239.94 525.15Z" fill="#E89F02"/>
<path d="M245.21 522.93V577.29C245.21 580 244.18 582.6 242.34 584.58C237.62 589.65 227.13 598.44 211.1 598.44H177.7C174.41 598.44 171.3 596.92 169.28 594.32L167.51 592.05C166.34 590.55 165.59 588.76 165.35 586.88C164.1 577.3 160.16 546.41 159.62 533.19C159.61 533.2 221.4 534.85 245.21 522.93Z" stroke="#0D2232" stroke-width="4" stroke-miterlimit="10" stroke-linecap="round" stroke-linejoin="round"/>
<path d="M245.21 538.02C245.21 538.02 225.49 554.92 161.13 548.49" stroke="#0D2232" stroke-width="4" stroke-miterlimit="10" stroke-linecap="round" stroke-linejoin="round"/>
<path d="M228.278 659.609L301.708 659.609L301.708 638.109L228.278 638.109L228.278 659.609Z" stroke="#0D2232" stroke-width="6" stroke-miterlimit="10" stroke-linecap="round" stroke-linejoin="round"/>
<path d="M391 339.67L431.17 360.78L405.58 413.92L391 406.37V339.67Z" stroke="#0D2232" stroke-width="6" stroke-miterlimit="10"/>
<path d="M240.73 339.67L200.56 360.78L226.15 413.92L240.73 406.37V339.67Z" stroke="#0D2232" stroke-width="6" stroke-miterlimit="10"/>
</svg>
