<svg width="1000" height="1000" viewBox="0 0 1000 1000" fill="none" xmlns="http://www.w3.org/2000/svg">
<path d="M412.47 549.09L395.29 571.39L352.4 539.11L340.79 530.38L356.85 508.2L369.3 517.34L412.47 549.09Z" fill="#435F84"/>
<path opacity="0.21" d="M369.3 517.34L369.29 517.39L352.4 539.11L340.79 530.38L356.85 508.2L369.3 517.34Z" fill="white"/>
<path d="M407.18 470.35L417.87 532.98L408.48 546.45L369.29 517.39L361.11 511.33L407.18 470.35Z" fill="#F9DC1B"/>
<path opacity="0.5" d="M407.18 470.35L417.87 480.69L369.29 517.39L361.11 511.33L407.18 470.35Z" fill="white"/>
<path d="M417.87 500.94L384.79 528.89L408.48 546.45L417.87 532.98V500.94Z" fill="#E89F02"/>
<path d="M356.85 508.19L412.47 549.09L395.29 571.39L340.79 530.38L356.85 508.19Z" stroke="#0D2232" stroke-width="6" stroke-miterlimit="10" stroke-linecap="round" stroke-linejoin="round"/>
<path d="M407.18 470.35L361.11 511.33L408.48 546.45L417.87 532.98L407.18 470.35Z" stroke="#0D2232" stroke-width="6" stroke-miterlimit="10" stroke-linejoin="round"/>
<path opacity="0.5" d="M341.96 500.2L391.89 436.63" stroke="white" stroke-width="6" stroke-miterlimit="10" stroke-linejoin="round"/>
<path d="M394.5 438.39C394.5 438.39 364.7 426.6 362.46 406.77C360.22 386.94 418.49 363.53 418.49 363.53C418.49 363.53 445.82 460.29 394.5 438.39Z" stroke="#0D2232" stroke-width="6" stroke-miterlimit="10" stroke-linecap="round" stroke-linejoin="round"/>
<path d="M412.09 417.9H447.96" stroke="#0D2232" stroke-width="6" stroke-miterlimit="10" stroke-linecap="round" stroke-linejoin="round"/>
<path d="M439.81 392.35V373.08C439.81 364.38 432.76 357.34 424.07 357.34C415.37 357.34 408.33 364.39 408.33 373.08V392.15L439.81 392.35Z" fill="#FBC6A6"/>
<path d="M393.123 795.609L466.553 795.609L466.553 774.109L393.123 774.109L393.123 795.609Z" fill="#435F84" stroke="#0D2232" stroke-width="6" stroke-miterlimit="10" stroke-linecap="round" stroke-linejoin="round"/>
<path d="M604.04 734.45V775.39L623.32 795.63L641.97 775.39L641.93 674.57H626.82L604.04 734.45Z" fill="#AFCADC"/>
<path d="M623 771.47C626.993 771.47 630.23 768.233 630.23 764.24C630.23 760.247 626.993 757.01 623 757.01C619.007 757.01 615.77 760.247 615.77 764.24C615.77 768.233 619.007 771.47 623 771.47Z" stroke="#0D2232" stroke-width="4" stroke-miterlimit="10" stroke-linecap="round" stroke-linejoin="round"/>
<path opacity="0.2" d="M641.97 675.66H635.32V771.47L623.39 783.4L610.96 770.97V681.92L604.04 682.38V775.39L623.8 795.15L642.77 776.19L641.97 675.66Z" fill="black"/>
<path d="M604.04 734.45V775.39L623.32 795.63L641.97 775.39V675.66H626.86L604.04 734.45Z" stroke="#0D2232" stroke-width="4" stroke-miterlimit="10" stroke-linecap="round" stroke-linejoin="round"/>
<path d="M623.91 284.08C623.91 284.08 617.93 289.43 591.51 291.63C565.08 293.83 379.12 299.42 379.12 299.42L367.67 293.83C367.67 293.83 341.36 292.38 337.63 284.08C333.9 275.78 427.7 242.87 427.7 242.87L546.21 239.25L573.27 250.02L623.91 284.08Z" fill="#CFB300"/>
<path d="M623.91 284.08C623.91 284.08 617.93 289.43 591.51 291.63C565.08 293.83 379.12 299.42 379.12 299.42L367.67 293.83C367.67 293.83 341.36 292.38 337.63 284.08C333.9 275.78 427.7 242.87 427.7 242.87L546.21 239.25L573.27 250.02L623.91 284.08Z" stroke="#0D2232" stroke-width="6" stroke-miterlimit="10" stroke-linecap="round" stroke-linejoin="round"/>
<path d="M368.71 332.85C368.71 332.85 338.52 336.47 342.29 371.39C346.07 406.31 389.55 399.02 389.55 399.02L385.81 348.89L368.71 332.85Z" fill="#FBC6A6" stroke="#0D2232" stroke-width="6" stroke-miterlimit="10"/>
<path d="M600.31 332.85C600.31 332.85 623.28 336.63 625.01 362.11C626.74 387.59 598.4 410.1 576.23 401.2C554.06 392.3 570.42 354.24 570.42 354.24L600.31 332.85Z" fill="#FBC6A6" stroke="#0D2232" stroke-width="6" stroke-miterlimit="10"/>
<path opacity="0.4" d="M598.27 347.95C598.27 347.95 610.2 354.27 605.11 368.01C597.99 387.26 583.48 381.92 583.48 381.92L587.88 358.01L598.27 347.95Z" fill="black"/>
<path opacity="0.4" d="M364.33 347.95C364.33 347.95 352.4 354.27 357.49 368.01C364.61 387.26 379.12 381.92 379.12 381.92L374.72 358.01L364.33 347.95Z" fill="black"/>
<path d="M586.69 336.62V365.29C586.69 365.29 586.43 370.26 584.61 377.95C580.53 395.19 568.62 426.11 534.25 445.47C529.36 448.22 524.44 450.51 519.51 452.37C505.19 457.78 490.85 459.61 477.18 458.85C447.73 457.21 421.47 443.54 405.58 427.85C379.78 402.37 378.21 363.53 378.21 363.53V309.25L408.73 272.44L565.48 274.33L584.8 296.98L586.69 336.62Z" fill="#FBC6A6"/>
<path opacity="0.5" d="M425.19 431.89C445.51 446.55 464.56 454.04 479.18 457.86C449.73 456.22 423.47 442.55 407.58 426.86C381.78 401.38 380.21 362.54 380.21 362.54V352.94L388.67 346.32C388.67 346.32 381.15 400.11 425.19 431.89Z" fill="white"/>
<path opacity="0.5" d="M581.6 377.95C577.52 395.19 565.61 426.11 531.24 445.47C526.35 448.22 521.43 450.51 516.5 452.37C533.99 438.74 562.46 413.61 571.19 388.63C574.16 380.18 577.78 377.31 581.6 377.95Z" fill="white"/>
<path d="M623.91 284.08C623.91 284.08 612.9 279.99 598.11 279.99C583.32 279.99 363.27 279.99 363.27 279.99C363.27 279.99 343.29 279.2 337.63 284.08V270.4C337.63 265.1 341.93 260.8 347.23 260.8H614.32C619.62 260.8 623.92 265.1 623.92 270.4V284.08H623.91Z" fill="#F9DC1B"/>
<path d="M608.68 260.8C608.68 260.91 608.68 260.96 608.68 260.96H480.64V260.8H352.6C352.6 260.8 352.6 260.77 352.6 260.72C352.56 259.67 352.15 249.23 352.6 244.45C353.07 239.41 357.16 239.26 357.16 239.26C357.16 239.26 364.24 176.5 435.65 155.74C435.65 155.74 435.02 143.15 446.66 141.9C458.3 140.64 480.64 139.07 480.64 139.07V139.23C480.64 139.23 502.97 140.8 514.61 142.06C526.25 143.32 525.62 155.9 525.62 155.9C597.03 176.66 604.11 239.42 604.11 239.42C604.11 239.42 608.2 239.58 608.67 244.61C609.12 249.28 608.74 259.41 608.68 260.8Z" fill="#F9DC1B"/>
<path opacity="0.73" d="M608.68 260.8H597.8C597.8 260.8 592.29 196.62 525.76 164.53L525.72 157.27C525.72 157.27 473.55 140.93 435.53 158.55L436.01 168.94C436.01 168.94 376.96 185.29 362.49 260.48L352.6 260.71C352.56 259.66 352.15 249.22 352.6 244.44C353.07 239.4 357.16 239.25 357.16 239.25C357.16 239.25 364.24 176.49 435.65 155.73C435.65 155.73 435.02 143.14 446.66 141.89C458.3 140.63 480.64 139.06 480.64 139.06V139.22C480.64 139.22 502.97 140.79 514.61 142.05C526.25 143.31 525.62 155.89 525.62 155.89C597.03 176.65 604.11 239.41 604.11 239.41C604.11 239.41 608.2 239.57 608.67 244.6C609.12 249.28 608.74 259.41 608.68 260.8Z" fill="white"/>
<path d="M608.68 244.6C608.21 239.57 604.12 239.41 604.12 239.41C604.12 239.41 597.04 176.65 525.63 155.89C525.63 155.89 526.26 143.31 514.62 142.05C502.98 140.79 480.64 139.22 480.64 139.22V139.06C480.64 139.06 458.3 140.63 446.66 141.89C435.02 143.15 435.65 155.73 435.65 155.73C364.24 176.49 357.16 239.25 357.16 239.25C357.16 239.25 353.07 239.41 352.6 244.44C352.13 249.47 352.6 260.8 352.6 260.8H480.64V260.96H608.68C608.68 260.96 609.15 249.64 608.68 244.6Z" stroke="#0D2232" stroke-width="6" stroke-miterlimit="10" stroke-linecap="round" stroke-linejoin="round"/>
<path d="M525 468.86H555.33V634.54H405.58V468.86H525Z" fill="white"/>
<path d="M528.8 475.67H435.26V576.55H528.8V475.67Z" fill="#F9DC1B"/>
<path d="M555.33 597.73H405.58V634.54H555.33V597.73Z" fill="#F9DC1B"/>
<path d="M506.77 456.8C506.77 456.8 477.39 463.09 457.37 456.8L450.45 487.74L468.7 494.55C468.7 494.55 480.77 499.58 495.45 494.55C510.13 489.52 514.75 474.84 514.75 474.84L506.77 456.8Z" fill="#FBC6A6" stroke="#0D2232" stroke-width="6" stroke-miterlimit="10"/>
<path d="M525.82 490.83C525.03 502.68 523.13 513.64 523.13 513.64L495.44 494.55C495.44 494.55 498.61 487.04 501.22 479.6C502.74 475.25 504.08 470.91 504.46 468.12C505.51 460.57 506.77 456.8 506.77 456.8C506.77 456.8 522.92 455.96 525.43 470.85C526.38 476.41 526.3 483.77 525.82 490.83Z" fill="#435F84"/>
<path d="M525.82 490.83C518.69 490.3 510.39 486.75 506.11 483.71C504.39 482.48 502.71 481.12 501.22 479.6C502.74 475.25 504.08 470.91 504.46 468.12C505.51 460.57 506.77 456.8 506.77 456.8C506.77 456.8 522.92 455.96 525.43 470.85C526.38 476.41 526.3 483.77 525.82 490.83Z" fill="#253B5A"/>
<path d="M506.77 456.8C506.77 456.8 522.92 455.96 525.44 470.85C527.96 485.74 523.13 513.63 523.13 513.63L495.45 494.54C495.45 494.54 503.42 475.66 504.47 468.11C505.52 460.56 506.77 456.8 506.77 456.8Z" stroke="#0D2232" stroke-width="6" stroke-miterlimit="10"/>
<path d="M438.33 490.83C439.12 502.68 441.02 513.64 441.02 513.64L468.71 494.55C468.71 494.55 465.54 487.04 462.93 479.6C461.41 475.25 460.07 470.91 459.69 468.12C458.64 460.57 457.38 456.8 457.38 456.8C457.38 456.8 441.23 455.96 438.72 470.85C437.77 476.41 437.85 483.77 438.33 490.83Z" fill="#435F84"/>
<path d="M438.33 490.83C445.46 490.3 453.76 486.75 458.04 483.71C459.76 482.48 461.44 481.12 462.93 479.6C461.41 475.25 460.07 470.91 459.69 468.12C458.64 460.57 457.38 456.8 457.38 456.8C457.38 456.8 441.23 455.96 438.72 470.85C437.77 476.41 437.85 483.77 438.33 490.83Z" fill="#253B5A"/>
<path d="M457.37 456.8C457.37 456.8 441.22 455.96 438.7 470.85C436.18 485.74 441.01 513.63 441.01 513.63L468.69 494.54C468.69 494.54 460.72 475.66 459.67 468.11C458.62 460.56 457.37 456.8 457.37 456.8Z" stroke="#0D2232" stroke-width="6" stroke-miterlimit="10"/>
<path d="M460.21 528.31H421.2V563.96H460.21V528.31Z" fill="#F9DC1B" stroke="#0D2232" stroke-width="6" stroke-miterlimit="10"/>
<path d="M460.21 542.37H421.2" stroke="#0D2232" stroke-width="6" stroke-miterlimit="10"/>
<path d="M525.62 155.89C525.62 155.89 526.72 166.43 522.47 187.98Z" fill="#F9DC1B"/>
<path d="M525.62 155.89C525.62 155.89 526.72 166.43 522.47 187.98" stroke="#0D2232" stroke-width="6" stroke-miterlimit="10" stroke-linecap="round" stroke-linejoin="round"/>
<path d="M604.11 239.41H571.68C568.25 239.41 565.47 242.19 565.47 245.62V260.96" stroke="#0D2232" stroke-width="6" stroke-miterlimit="10" stroke-linecap="round" stroke-linejoin="round"/>
<path d="M435.65 155.73C435.65 155.73 434.55 166.27 438.8 187.82Z" fill="#F9DC1B"/>
<path d="M435.65 155.73C435.65 155.73 434.55 166.27 438.8 187.82" stroke="#0D2232" stroke-width="6" stroke-miterlimit="10" stroke-linecap="round" stroke-linejoin="round"/>
<path d="M357.16 239.25H389.59C393.02 239.25 395.8 242.03 395.8 245.46V260.8" stroke="#0D2232" stroke-width="6" stroke-miterlimit="10" stroke-linecap="round" stroke-linejoin="round"/>
<path opacity="0.74" d="M610.53 270.19C604.07 267.73 596.97 267.78 590.07 267.85C539.62 268.39 489.17 268.92 438.72 269.46C416.3 269.7 393.89 269.94 371.47 270.18C361.52 270.29 350.36 270.91 343.66 278.25C342.34 279.7 341.05 281.48 339.11 281.77C336.15 282.22 333.96 278.78 333.9 275.79C333.78 270.18 338.1 265.23 343.2 262.87C348.3 260.52 354.08 260.24 359.69 260.05C442.79 257.22 526.13 265.29 609.05 259.16C613.84 258.81 619.5 258.78 622.37 262.64C623.95 264.77 624.21 267.58 624.42 270.23C624.62 272.9 626.8 282.86 621.43 279.05C619.69 277.82 618.49 275.13 616.69 273.69C614.85 272.22 612.74 270.96 610.53 270.19Z" fill="white"/>
<path d="M623.91 284.08C623.91 284.08 612.9 279.99 598.11 279.99C583.32 279.99 363.27 279.99 363.27 279.99C363.27 279.99 343.29 279.2 337.63 284.08V270.4C337.63 265.1 341.93 260.8 347.23 260.8H614.32C619.62 260.8 623.92 265.1 623.92 270.4V284.08H623.91Z" stroke="#0D2232" stroke-width="6" stroke-miterlimit="10" stroke-linecap="round" stroke-linejoin="round"/>
<path d="M386.63 314.08C386.63 314.08 386.09 343.07 386.63 351.41C387.17 359.75 381.51 367.3 372.86 361.48C364.21 355.66 365.89 321.06 365.89 321.06C365.89 321.06 374.87 321.47 386.63 314.08Z" fill="#253B5A" stroke="#0D2232" stroke-width="6" stroke-miterlimit="10"/>
<path d="M434.08 360.47C442.939 360.47 450.12 353.289 450.12 344.43C450.12 335.571 442.939 328.39 434.08 328.39C425.221 328.39 418.04 335.571 418.04 344.43C418.04 353.289 425.221 360.47 434.08 360.47Z" fill="#0D2232"/>
<path d="M528.9 370.89C537.759 370.89 544.94 363.709 544.94 354.85C544.94 345.991 537.759 338.81 528.9 338.81C520.041 338.81 512.86 345.991 512.86 354.85C512.86 363.709 520.041 370.89 528.9 370.89Z" fill="#0D2232"/>
<path d="M555.33 634.54H405.58V668.41H555.33V634.54Z" fill="#253B5A" stroke="#0D2232" stroke-width="6" stroke-miterlimit="10"/>
<path d="M506.15 634.54H458.75V668.41H506.15V634.54Z" fill="#C3CDD4" stroke="#0D2232" stroke-width="6" stroke-miterlimit="10"/>
<path d="M624.14 845H627.5C629.12 845 630.44 846.31 630.44 847.94V856.59C630.44 858.99 628.49 860.94 626.09 860.94H549.7L534.08 850.45V860.94H495.33C492.93 860.94 490.98 858.99 490.98 856.59V840.13C490.98 837.84 492.84 835.98 495.13 835.99H496.57L598.2 835.1L624.14 845Z" fill="#484D60" stroke="#0D2232" stroke-width="6" stroke-miterlimit="10" stroke-linecap="round" stroke-linejoin="round"/>
<path d="M625.72 841.23L624.15 845H554.15L536.06 835.98H496.56C496.56 835.98 494.75 827.28 496.27 816.5C497.21 809.81 499.44 802.32 504.18 795.61H564.37L569.09 800.65C569.09 800.65 577.58 800.96 578.21 808.83C578.21 808.83 579.7 808.08 582.27 807.26C587.34 805.64 596.6 803.71 606.84 806.63C622.26 811.03 629.49 830.85 625.72 841.23Z" fill="#E89F02"/>
<path d="M519.7 835.99H496.56C496.56 835.99 494.75 827.29 496.27 816.51C496.36 816.5 496.46 816.5 496.56 816.49C519.66 815.33 519.7 835.99 519.7 835.99Z" fill="#834526"/>
<path opacity="0.75" d="M625.72 841.23L624.15 845H614.08C614.08 845 623.04 812.71 582.28 807.25C587.35 805.63 596.61 803.7 606.85 806.62C622.26 811.03 629.49 830.85 625.72 841.23Z" fill="white"/>
<path d="M564.37 795.61L569.09 800.64C569.09 800.64 577.58 800.95 578.21 808.82C578.21 808.82 591.42 802.21 606.84 806.62C622.26 811.02 629.49 830.84 625.72 841.23L624.15 845.01H554.15L536.06 835.99H496.56C496.56 835.99 491.81 813.13 504.18 795.62H564.37V795.61Z" stroke="#0D2232" stroke-width="6" stroke-miterlimit="10" stroke-linecap="round" stroke-linejoin="round"/>
<path d="M578.21 808.83C578.21 808.83 557.97 815.44 554.14 845.01" stroke="#0D2232" stroke-width="6" stroke-miterlimit="10" stroke-linecap="round" stroke-linejoin="round"/>
<path d="M569.09 800.65C569.09 800.65 554.93 803.48 549.69 816.48" stroke="#0D2232" stroke-width="6" stroke-miterlimit="10" stroke-linecap="round" stroke-linejoin="round"/>
<path d="M569.09 774.12H495.66V795.62H569.09V774.12Z" fill="#435F84" stroke="#0D2232" stroke-width="6" stroke-miterlimit="10" stroke-linecap="round" stroke-linejoin="round"/>
<path d="M562.48 774.12L553.99 668.41H481.11V688.97L490.97 688.34L501.45 774.12H562.48Z" fill="#435F84" stroke="#0D2232" stroke-width="6" stroke-miterlimit="10" stroke-linecap="round" stroke-linejoin="round"/>
<path d="M338.07 845H334.71C333.09 845 331.77 846.31 331.77 847.94V856.59C331.77 858.99 333.72 860.94 336.12 860.94H412.51L428.13 850.45V860.94H466.88C469.28 860.94 471.23 858.99 471.23 856.59V840.13C471.23 837.84 469.37 835.98 467.08 835.99H465.64L364.01 835.1L338.07 845Z" fill="#484D60" stroke="#0D2232" stroke-width="6" stroke-miterlimit="10" stroke-linecap="round" stroke-linejoin="round"/>
<path d="M336.5 841.23L338.07 845H408.07L426.16 835.98H465.66C465.66 835.98 467.47 827.28 465.95 816.5C465.01 809.81 462.78 802.32 458.04 795.61H397.85L393.13 800.65C393.13 800.65 384.64 800.96 384.01 808.83C384.01 808.83 382.52 808.08 379.95 807.26C374.88 805.64 365.62 803.71 355.38 806.63C339.96 811.03 332.72 830.85 336.5 841.23Z" fill="#E89F02"/>
<path d="M442.52 835.99H465.66C465.66 835.99 467.47 827.29 465.95 816.51C465.86 816.5 465.76 816.5 465.66 816.49C442.56 815.33 442.52 835.99 442.52 835.99Z" fill="#834526"/>
<path opacity="0.75" d="M336.5 841.23L338.07 845H348.14C348.14 845 339.18 812.71 379.94 807.25C374.87 805.63 365.61 803.7 355.37 806.62C339.96 811.03 332.72 830.85 336.5 841.23Z" fill="white"/>
<path d="M397.85 795.61L393.13 800.64C393.13 800.64 384.64 800.95 384.01 808.82C384.01 808.82 370.8 802.21 355.38 806.62C339.96 811.02 332.73 830.84 336.5 841.23L338.07 845.01H408.07L426.16 835.99H465.66C465.66 835.99 470.41 813.13 458.04 795.62H397.85V795.61Z" stroke="#0D2232" stroke-width="6" stroke-miterlimit="10" stroke-linecap="round" stroke-linejoin="round"/>
<path d="M384 808.83C384 808.83 404.24 815.44 408.07 845.01" stroke="#0D2232" stroke-width="6" stroke-miterlimit="10" stroke-linecap="round" stroke-linejoin="round"/>
<path d="M393.13 800.65C393.13 800.65 407.29 803.48 412.53 816.48" stroke="#0D2232" stroke-width="6" stroke-miterlimit="10" stroke-linecap="round" stroke-linejoin="round"/>
<path d="M399.73 774.12L408.23 668.41H481.11V688.97L471.25 688.34L460.76 774.12H399.73Z" fill="#435F84" stroke="#0D2232" stroke-width="6" stroke-miterlimit="10" stroke-linecap="round" stroke-linejoin="round"/>
<g opacity="0.16">
<path d="M385.5 279.99H586.69L591.5 291.63H379.12L385.5 279.99Z" fill="black"/>
<path d="M365.89 321.06C365.89 321.06 401.51 329.84 437.16 291.64L405.58 286.85L365.89 321.06Z" fill="black"/>
<path d="M453.08 318.37C453.08 318.37 506.23 327.19 540.3 285.81L510.8 286.84L453.08 318.37Z" fill="black"/>
</g>
<path opacity="0.16" d="M583.48 344.43C583.48 344.43 566.18 441.81 462.92 454.33C462.92 454.33 571.05 469.69 584.42 365.24L583.48 344.43Z" fill="black"/>
<path d="M549.3 616.14H411.49V628.43H549.3V616.14Z" fill="#E89F02"/>
<path d="M525.42 468.86H555.85V634.54H405.58V468.86H435.36" stroke="#0D2232" stroke-width="6" stroke-miterlimit="10"/>
<path d="M418.48 279.99C418.48 279.99 391.42 326.24 359.33 320.57C356.42 320.05 353.8 319.47 351.47 318.85C328.12 312.57 332.28 301.44 332.28 301.44C332.28 301.44 351.8 306.8 365.31 281.81C365.63 281.22 365.94 280.62 366.25 280H418.48V279.99Z" fill="#253B5A"/>
<path opacity="0.21" d="M357.16 303.9C348.17 309.4 344.55 309.25 344.55 309.25C344.55 309.25 343.45 313.82 351.47 318.85C328.12 312.57 332.28 301.44 332.28 301.44C332.28 301.44 354.16 304.98 367.67 279.99C367.69 280.33 366.05 298.46 357.16 303.9Z" fill="white"/>
<path d="M630.83 305.79C630.83 305.79 617.47 326.52 594.16 321.81C580.81 319.11 564.19 308.06 544.94 280L602.5 280.12C602.5 280.12 602.68 283.01 603.9 286.85C606.36 294.52 613 306 630.83 305.79Z" fill="#253B5A"/>
<path opacity="0.21" d="M630.83 305.79C630.83 305.79 617.47 326.52 594.16 321.81C596.82 321.05 599.4 319.96 601.87 318.73C606.85 316.24 611.51 313.15 616.46 310.6C610.96 310.34 606.06 306.28 603.9 301.21C602.38 297.63 601.32 291.66 603.06 287.97C603.29 287.48 603.59 287.11 603.92 286.86C606.36 294.52 613 306 630.83 305.79Z" fill="white"/>
<path d="M602.51 280.11C602.51 280.11 604.09 306.1 630.83 305.79C630.83 305.79 597.8 357.07 544.95 279.99L602.51 280.11Z" stroke="#0D2232" stroke-width="6" stroke-miterlimit="10" stroke-linecap="round" stroke-linejoin="round"/>
<path d="M518.2 279.99C518.2 279.99 505.93 313.34 453.08 318.37C453.08 318.37 462.2 302.01 462.2 279.99H518.2Z" fill="#253B5A" stroke="#0D2232" stroke-width="6" stroke-miterlimit="10" stroke-linecap="round" stroke-linejoin="round"/>
<path d="M418.48 279.99C418.48 279.99 391.42 326.24 359.34 320.57C327.26 314.9 332.28 301.43 332.28 301.43C332.28 301.43 352.73 307.04 366.26 279.98H418.48V279.99Z" stroke="#0D2232" stroke-width="6" stroke-miterlimit="10" stroke-linecap="round" stroke-linejoin="round"/>
<path d="M586.69 365.29C586.69 365.29 583.96 417.47 534.25 445.47C484.54 473.47 431.38 453.33 405.58 427.85C379.78 402.37 378.21 363.53 378.21 363.53" stroke="#0D2232" stroke-width="6" stroke-miterlimit="10"/>
<path d="M600.31 322.5C600.31 322.5 599.84 349.21 598.74 354.4C597.64 359.59 593.08 366.04 584.43 365.25C575.78 364.46 576.09 353.3 575.94 345.43C575.78 337.57 575.94 313.54 575.94 313.54C575.94 313.54 587.73 322.85 600.31 322.5Z" fill="#253B5A" stroke="#0D2232" stroke-width="6" stroke-miterlimit="10" stroke-linecap="round" stroke-linejoin="round"/>
<path d="M498.95 668.41L521.8 795.61H504.18H495.66V774.12H501.45L490.97 685L481.11 688.97V668.41H498.95Z" fill="#253B5A"/>
<path d="M444.95 774.12L440.71 795.61H466.56V774.12H460.76L471.25 685L481.11 688.97V668.41H458.75L444.95 774.12Z" fill="#253B5A"/>
<path d="M490.97 688.34L503.34 686.87" stroke="#0D2232" stroke-width="6" stroke-miterlimit="10" stroke-linecap="round" stroke-linejoin="round"/>
<path d="M471.25 688.34L458.88 686.87" stroke="#0D2232" stroke-width="6" stroke-miterlimit="10" stroke-linecap="round" stroke-linejoin="round"/>
<path d="M553.99 668.41H540.52L549.69 774.12H555.85V795.61H569.09V774.12H562.48L553.99 668.41Z" fill="#C3CDD4"/>
<path d="M408.89 668.41H422.35L413.19 774.12H407.02V795.61H393.79V774.12H400.39L408.89 668.41Z" fill="#C3CDD4"/>
<path d="M569.09 774.12H495.66V795.62H569.09V774.12Z" stroke="#0D2232" stroke-width="6" stroke-miterlimit="10" stroke-linecap="round" stroke-linejoin="round"/>
<path d="M562.48 774.12L553.99 668.41H481.11V688.97L490.97 688.34L501.45 774.12H562.48Z" stroke="#0D2232" stroke-width="6" stroke-miterlimit="10" stroke-linecap="round" stroke-linejoin="round"/>
<path d="M399.73 774.12L408.23 668.41H481.11V688.97L471.25 688.34L460.76 774.12H399.73Z" stroke="#0D2232" stroke-width="6" stroke-miterlimit="10" stroke-linecap="round" stroke-linejoin="round"/>
<path d="M631.97 681.09H614.77V746.23H631.97V681.09Z" fill="#E89F02"/>
<path d="M721.41 660.34V670.68C721.41 673.43 719.17 675.66 716.42 675.66H637.95C635.2 675.66 632.97 673.43 632.97 670.68V660.34C632.97 659.74 633.08 659.16 633.27 658.63C633.96 656.72 635.8 655.35 637.95 655.35H716.42C718.57 655.35 720.41 656.72 721.11 658.63C721.3 659.16 721.41 659.74 721.41 660.34Z" fill="#AFCADC"/>
<path opacity="0.2" d="M632.97 669.58V670.68C632.97 673.43 635.2 675.67 637.95 675.67H716.42C719.17 675.67 721.4 673.44 721.4 670.68V669.58H632.97Z" fill="black"/>
<path opacity="0.7" d="M721.109 658.63H633.27C633.96 656.72 635.8 655.35 637.95 655.35H716.419C718.579 655.35 720.409 656.71 721.109 658.63Z" fill="white"/>
<path d="M721.41 660.34V670.68C721.41 673.43 719.17 675.66 716.42 675.66H637.95C635.2 675.66 632.97 673.43 632.97 670.68V660.34C632.97 659.74 633.08 659.16 633.27 658.63C633.96 656.72 635.8 655.35 637.95 655.35H716.42C718.57 655.35 720.41 656.72 721.11 658.63C721.3 659.16 721.41 659.74 721.41 660.34Z" stroke="#0D2232" stroke-width="4" stroke-miterlimit="10" stroke-linecap="round" stroke-linejoin="round"/>
<path d="M547.47 674.02C547.47 674.02 568.68 690.73 632.97 684.31" stroke="white" stroke-miterlimit="10"/>
<path d="M529.47 634.16V722.88L541.04 734.45H620.11L609.5 726.09L610.14 634.16H529.47Z" fill="#F9DC1B"/>
<path d="M539.11 634.16V717.32L545.86 726.09H626.86L620.11 734.45H541.04L529.47 722.88V634.16H539.11Z" fill="#E89F02"/>
<path d="M541.68 646.52H536.54V651.66H541.68V646.52Z" fill="white"/>
<path d="M541.68 662.93H536.54V668.07H541.68V662.93Z" fill="white"/>
<path d="M541.68 679.35H536.54V684.49H541.68V679.35Z" fill="white"/>
<path d="M541.68 695.76H536.54V700.9H541.68V695.76Z" fill="white"/>
<path d="M541.68 712.17H536.54V717.31H541.68V712.17Z" fill="white"/>
<path d="M610.14 669.2V634.16H529.47V722.88L541.04 734.45H613.04" stroke="#0D2232" stroke-width="4" stroke-miterlimit="10" stroke-linecap="round" stroke-linejoin="round"/>
<path d="M393.123 795.609L466.553 795.609L466.553 774.109L393.123 774.109L393.123 795.609Z" stroke="#0D2232" stroke-width="6" stroke-miterlimit="10" stroke-linecap="round" stroke-linejoin="round"/>
<path d="M622.36 512.55C622.36 512.55 650 528.62 644.22 549.84C638.44 571.06 597.29 599.34 597.29 599.34C597.29 599.34 595.36 575.55 566.43 570.41L584.43 552.41L622.36 512.55Z" fill="#FBC6A6"/>
<path d="M566.43 570.4L557.43 575.86V631.79H597.93L597.29 599.33C597.29 599.33 594.72 574.9 566.43 570.4Z" fill="#FBC6A6"/>
<path opacity="0.16" d="M618.31 516.81C618.31 516.81 643.79 529.25 638.14 549.97C632.49 570.7 596.84 592.72 596.84 592.72" stroke="black" stroke-width="6" stroke-miterlimit="10"/>
<path opacity="0.16" d="M593.93 631.8L593.29 586.75" stroke="black" stroke-width="6" stroke-miterlimit="10"/>
<path opacity="0.5" d="M572.6 570.97L627.74 514.05" stroke="white" stroke-width="6" stroke-miterlimit="10"/>
<path opacity="0.5" d="M562.6 572.12V633.36" stroke="white" stroke-width="6" stroke-miterlimit="10"/>
<path d="M622.36 512.55C622.36 512.55 650 528.62 644.22 549.84C638.44 571.06 597.29 599.34 597.29 599.34C597.29 599.34 595.36 575.55 566.43 570.41L584.43 552.41L622.36 512.55Z" stroke="#0D2232" stroke-width="6" stroke-miterlimit="10" stroke-linecap="round" stroke-linejoin="round"/>
<path d="M566.43 570.4L557.43 575.86V631.79H597.93L597.29 599.33C597.29 599.33 594.72 574.9 566.43 570.4Z" stroke="#0D2232" stroke-width="6" stroke-miterlimit="10" stroke-linecap="round" stroke-linejoin="round"/>
<path d="M568.12 554.11L593.71 565.85L616.66 517.32L622.86 504.19L598.33 492.03L591.56 505.92L568.12 554.11Z" fill="#435F84"/>
<path opacity="0.21" d="M591.56 505.92L591.6 505.96L616.66 517.32L622.86 504.19L598.33 492.03L591.56 505.92Z" fill="white"/>
<path d="M555.85 475.67V542.37L570.43 549.92L591.6 505.96L596.02 496.78L555.85 475.67Z" fill="#F9DC1B"/>
<path opacity="0.5" d="M555.85 475.67V487.62L591.6 505.96L596.02 496.78L555.85 475.67Z" fill="white"/>
<path d="M579.05 532.02L555.85 522.65V542.37L570.43 549.92L579.05 532.02Z" fill="#E89F02"/>
<path d="M598.33 492.03L568.12 554.11L593.71 565.86L622.86 504.19L598.33 492.03Z" stroke="#0D2232" stroke-width="6" stroke-miterlimit="10" stroke-linecap="round" stroke-linejoin="round"/>
<path d="M555.85 475.67L596.02 496.78L570.43 549.92L555.85 542.37V475.67Z" stroke="#0D2232" stroke-width="6" stroke-miterlimit="10"/>
<path d="M559.03 589.67V606.93C559.03 608.27 557.94 609.36 556.61 609.36H547.24C545.9 609.36 544.81 608.27 544.81 606.93V589.67C544.81 588.33 545.9 587.25 547.24 587.25H556.61C557.94 587.24 559.03 588.33 559.03 589.67Z" fill="#AFCADC"/>
<path d="M556.6 609.53H547.23C545.8 609.53 544.63 608.37 544.63 606.93V589.67C544.63 588.24 545.79 587.08 547.23 587.08H556.6C558.03 587.08 559.19 588.24 559.19 589.67V606.93C559.2 608.36 558.03 609.53 556.6 609.53ZM547.24 587.41C546 587.41 544.98 588.42 544.98 589.66V606.92C544.98 608.16 545.99 609.18 547.24 609.18H556.61C557.85 609.18 558.86 608.17 558.86 606.92V589.66C558.86 588.42 557.85 587.41 556.61 587.41H547.24Z" fill="#000072"/>
<g opacity="0.2">
<path d="M559.03 603.1V606.93C559.03 608.27 557.94 609.36 556.61 609.36H547.24C545.9 609.36 544.81 608.27 544.81 606.93V603.1C544.81 604.44 545.9 605.53 547.24 605.53H556.61C557.94 605.52 559.03 604.44 559.03 603.1Z" fill="black"/>
</g>
<g opacity="0.55">
<path d="M559.03 589.67V592.38C559.03 591.04 557.94 589.96 556.61 589.96H547.24C545.9 589.96 544.81 591.05 544.81 592.38V589.67C544.81 588.33 545.9 587.25 547.24 587.25H556.61C557.94 587.24 559.03 588.33 559.03 589.67Z" fill="white"/>
</g>
<path d="M569.48 604.7H559.03V592.43H567.9L569.48 604.7Z" fill="#AFCADC"/>
<path d="M569.67 604.87H558.86V592.26H568.05L569.67 604.87ZM559.2 604.53H569.29L567.75 592.6H559.2V604.53Z" fill="#000072"/>
<path d="M618.64 602.89C618.49 604.64 616.43 605.51 615.1 604.36C607.63 597.94 596.59 601.56 594.34 610.72C593.96 612.25 592.62 613.33 591.05 613.33H573.58C571.88 613.33 570.44 612.07 570.23 610.38L569.5 604.7L567.92 592.43L567.39 588.29C567.13 586.27 568.71 584.47 570.75 584.47H599.4C610.99 584.48 619.41 593.43 618.64 602.89Z" fill="#AFCADC"/>
<path d="M591.04 613.5H573.57C571.79 613.5 570.27 612.17 570.05 610.4L567.2 588.31C567.07 587.3 567.38 586.28 568.06 585.51C568.73 584.74 569.71 584.3 570.73 584.3H599.38C605.21 584.3 610.68 586.61 614.39 590.63C617.61 594.13 619.19 598.48 618.82 602.89C618.75 603.77 618.19 604.53 617.38 604.86C616.56 605.2 615.67 605.05 615 604.47C611.53 601.49 606.96 600.52 602.75 601.86C598.63 603.18 595.55 606.5 594.51 610.74C594.1 612.38 592.68 613.5 591.04 613.5ZM570.72 584.65C569.8 584.65 568.92 585.05 568.31 585.74C567.7 586.43 567.42 587.36 567.54 588.27L570.39 610.36C570.6 611.96 571.97 613.16 573.58 613.16H591.05C592.53 613.16 593.82 612.14 594.18 610.68C595.25 606.32 598.41 602.91 602.64 601.55C606.96 600.17 611.66 601.17 615.21 604.22C615.78 604.71 616.54 604.84 617.24 604.55C617.95 604.26 618.41 603.63 618.47 602.87C618.82 598.55 617.28 594.29 614.12 590.87C610.48 586.92 605.1 584.65 599.36 584.65H570.72Z" fill="#000072"/>
<g opacity="0.2">
<path d="M618.64 602.89C618.49 604.64 616.43 605.51 615.1 604.36C607.63 597.94 596.59 601.56 594.34 610.72C593.96 612.25 592.62 613.33 591.05 613.33H573.58C571.88 613.33 570.44 612.07 570.23 610.38L570.05 609.02C570.5 609.24 570.99 609.36 571.52 609.36H588.99C590.56 609.36 591.91 608.27 592.28 606.75C594.53 597.59 605.57 593.96 613.04 600.39C614.37 601.54 616.43 600.67 616.58 598.92C616.76 596.76 616.45 594.62 615.74 592.61C617.85 595.63 618.94 599.22 618.64 602.89Z" fill="black"/>
</g>
<g opacity="0.55">
<path d="M614.56 591.11C611.22 588.46 606.8 586.79 601.79 586.79H573.14C571.1 586.79 569.52 588.58 569.78 590.61L570.31 594.75L571.89 607.02L572.62 612.7C572.64 612.89 572.68 613.07 572.74 613.24C571.41 612.92 570.38 611.8 570.19 610.39L569.46 604.71L567.88 592.44L567.35 588.3C567.09 586.28 568.67 584.48 570.71 584.48H599.36C605.71 584.48 611.1 587.15 614.56 591.11Z" fill="white"/>
</g>
<g opacity="0.55">
<path d="M559.03 592.38H545.38V596.16H559.03V592.38Z" fill="white"/>
</g>
<path d="M590.73 613.33H574.65V654.37H590.73V613.33Z" fill="#435F84" stroke="#0D2232" stroke-width="4" stroke-miterlimit="10" stroke-linecap="round" stroke-linejoin="round"/>
<g opacity="0.2">
<path d="M574.7 620.54C575.17 620.55 575.59 620.72 575.98 620.93C576.37 621.14 576.73 621.41 577.07 621.7C577.75 622.27 578.37 622.91 578.88 623.65C579.9 625.11 580.48 626.76 581.5 628.05C582 628.69 582.63 629.21 583.35 629.6C584.07 629.98 584.87 630.24 585.68 630.41C586.5 630.58 587.34 630.68 588.19 630.76C588.61 630.8 589.04 630.83 589.47 630.84C589.9 630.87 590.34 630.93 590.74 631.21C590.8 631.25 590.81 631.33 590.77 631.39C590.76 631.41 590.74 631.42 590.72 631.43H590.71C590.25 631.63 589.84 631.59 589.41 631.56C588.99 631.5 588.56 631.47 588.13 631.43C587.27 631.35 586.4 631.25 585.54 631.07C584.68 630.89 583.82 630.62 583.03 630.2C582.24 629.78 581.52 629.18 580.96 628.47C579.84 627.05 579.27 625.39 578.31 624.04C577.83 623.37 577.27 622.75 576.61 622.25C576.28 622 575.94 621.77 575.59 621.54C575.25 621.31 574.9 621.08 574.59 620.75C574.54 620.7 574.54 620.63 574.59 620.58C574.64 620.55 574.67 620.53 574.7 620.54Z" fill="#371A45"/>
<path d="M590.75 628C589.87 628.48 588.84 628.5 587.87 628.36C586.9 628.22 585.94 627.98 585.06 627.53C584.61 627.32 584.2 627.04 583.81 626.74C583.43 626.42 583.06 626.08 582.77 625.67C582.14 624.88 581.81 623.89 581.62 622.95C581.43 622 581.34 621.07 581.08 620.21C580.95 619.78 580.78 619.38 580.54 619.01C580.43 618.82 580.29 618.65 580.16 618.48C580.01 618.32 579.87 618.15 579.7 618.01C579.05 617.41 578.23 617 577.37 616.79C576.94 616.68 576.49 616.64 576.06 616.67C575.62 616.7 575.21 616.77 574.71 616.7H574.7C574.68 616.7 574.65 616.69 574.62 616.68L574.6 616.67C574.53 616.65 574.49 616.59 574.51 616.52C574.52 616.5 574.53 616.48 574.54 616.46C574.57 616.43 574.59 616.41 574.62 616.39H574.61C575.01 616.05 575.54 615.94 576.04 615.94C576.54 615.96 577.04 615.99 577.53 616.12C578.5 616.35 579.42 616.82 580.16 617.49C580.91 618.14 581.47 619.06 581.74 620C582.02 620.95 582.11 621.9 582.29 622.8C582.47 623.7 582.76 624.55 583.31 625.24C583.57 625.6 583.9 625.9 584.24 626.19C584.6 626.46 584.97 626.71 585.38 626.9C586.18 627.3 587.07 627.55 587.97 627.64C588.19 627.67 588.42 627.66 588.65 627.68C588.88 627.67 589.1 627.69 589.33 627.68C589.78 627.69 590.23 627.64 590.73 627.75H590.74C590.8 627.76 590.84 627.83 590.83 627.89C590.8 627.96 590.78 627.98 590.75 628Z" fill="#371A45"/>
<path d="M590.76 623.31C590.5 623.56 590.18 623.67 589.85 623.72C589.69 623.75 589.52 623.76 589.35 623.75C589.18 623.74 589.02 623.72 588.86 623.71C588.21 623.62 587.57 623.45 586.98 623.17C585.8 622.62 584.78 621.74 584.07 620.66C583.35 619.58 582.94 618.32 582.79 617.05C582.72 616.41 582.71 615.77 582.76 615.14C582.78 614.82 582.83 614.51 582.86 614.19C582.89 613.87 582.96 613.56 583.2 613.29V613.31C583.24 613.27 583.27 613.22 583.32 613.19C583.39 613.14 583.48 613.16 583.53 613.22L583.54 613.23V613.24C583.57 613.29 583.58 613.33 583.6 613.37V613.39C583.69 613.72 583.63 614.01 583.56 614.3C583.49 614.59 583.46 614.89 583.44 615.19C583.39 615.79 583.4 616.38 583.47 616.98C583.6 618.16 583.99 619.31 584.64 620.29C585.29 621.27 586.21 622.07 587.27 622.56C587.8 622.8 588.36 622.98 588.94 623.01C589.23 623.02 589.51 623.03 589.8 623.02C590.09 623.02 590.37 623.01 590.71 623.09C590.78 623.11 590.82 623.18 590.8 623.25C590.79 623.27 590.78 623.29 590.76 623.31Z" fill="#371A45"/>
<path d="M586.68 613.39C586.73 613.65 586.67 613.85 586.6 614.04C586.53 614.23 586.44 614.4 586.36 614.58C586.2 614.94 586.1 615.31 586.04 615.69C585.94 616.43 586.09 617.22 586.51 617.81C586.72 618.1 587 618.33 587.32 618.47C587.64 618.61 588.01 618.67 588.38 618.65C588.75 618.64 589.13 618.56 589.49 618.44C589.67 618.39 589.85 618.28 590.02 618.18C590.2 618.09 590.38 618.02 590.67 618.14H590.68C590.76 618.17 590.8 618.25 590.78 618.33C590.71 618.63 590.51 618.74 590.32 618.83C590.22 618.87 590.12 618.9 590.02 618.95C589.92 619 589.82 619.04 589.72 619.07C589.3 619.21 588.86 619.31 588.41 619.32C587.96 619.34 587.49 619.27 587.05 619.08C586.62 618.89 586.23 618.57 585.96 618.19C585.42 617.42 585.25 616.47 585.37 615.58C585.43 615.14 585.57 614.71 585.71 614.3C585.78 614.09 585.86 613.89 585.98 613.71C586.09 613.53 586.24 613.36 586.49 613.27C586.57 613.24 586.65 613.28 586.68 613.36C586.68 613.37 586.68 613.38 586.68 613.39Z" fill="#371A45"/>
<path d="M574.68 626.44C575.23 626.37 575.79 626.55 576.25 626.83C576.72 627.1 577.13 627.47 577.49 627.86C578.21 628.65 578.79 629.52 579.34 630.37C579.89 631.22 580.45 632.06 581.14 632.74C581.83 633.42 582.69 633.91 583.59 634.36C584.49 634.81 585.45 635.23 586.32 635.86C587.18 636.49 587.91 637.28 588.49 638.16C589.08 639.03 589.53 639.97 589.93 640.92C590.13 641.4 590.32 641.87 590.52 642.34C590.71 642.82 590.88 643.3 590.83 643.86C590.82 643.93 590.76 643.98 590.7 643.97C590.67 643.97 590.64 643.95 590.62 643.94C590.21 643.55 590.02 643.07 589.84 642.6C589.68 642.12 589.49 641.65 589.3 641.18C588.91 640.25 588.47 639.35 587.92 638.53C587.38 637.7 586.7 636.98 585.92 636.4C585.13 635.83 584.21 635.42 583.29 634.96C582.37 634.51 581.43 633.98 580.66 633.22C579.9 632.47 579.32 631.59 578.76 630.74C578.2 629.89 577.67 629.04 576.98 628.34C576.63 628 576.26 627.69 575.87 627.42C575.48 627.14 575.08 626.93 574.63 626.66C574.57 626.63 574.55 626.55 574.59 626.5C574.61 626.47 574.64 626.45 574.68 626.44Z" fill="#371A45"/>
<path d="M586.52 633.25C586.7 633.15 586.83 633.17 586.94 633.21C587.05 633.25 587.14 633.32 587.24 633.39C587.43 633.53 587.63 633.64 587.82 633.77C588.2 634.03 588.58 634.3 588.94 634.58C589.3 634.86 589.66 635.16 590 635.47C590.17 635.63 590.34 635.79 590.5 635.95C590.58 636.03 590.66 636.12 590.76 636.18C590.84 636.26 590.92 636.35 590.82 636.6C590.79 636.68 590.73 636.73 590.66 636.75C590.41 636.83 590.32 636.76 590.25 636.68C590.19 636.58 590.11 636.51 590.03 636.43C589.87 636.27 589.71 636.12 589.55 635.97C589.22 635.67 588.88 635.38 588.53 635.11C588.18 634.84 587.82 634.58 587.45 634.33C587.26 634.21 587.08 634.08 586.88 633.98C586.78 633.93 586.68 633.89 586.59 633.81C586.5 633.74 586.43 633.64 586.42 633.44C586.4 633.36 586.45 633.29 586.52 633.25Z" fill="#371A45"/>
<path d="M574.73 630.96C575.31 631.2 575.73 631.73 576.02 632.26C576.31 632.8 576.49 633.38 576.65 633.93C576.81 634.49 576.97 635.03 577.19 635.54C577.4 636.05 577.67 636.53 578.02 636.92C578.37 637.31 578.82 637.58 579.32 637.76C579.82 637.93 580.38 638.01 580.94 638.06C581.51 638.11 582.09 638.13 582.68 638.21C583.27 638.29 583.88 638.42 584.45 638.7C585.02 638.98 585.52 639.4 585.89 639.89C586.27 640.38 586.54 640.94 586.76 641.49C587.19 642.61 587.41 643.76 587.71 644.86C588 645.96 588.42 647.01 588.98 647.99C589.25 648.48 589.56 648.96 589.91 649.4C590.25 649.85 590.59 650.29 590.81 650.87C590.83 650.93 590.8 651 590.74 651.03C590.71 651.04 590.67 651.04 590.65 651.03C590.07 650.77 589.68 650.31 589.33 649.83C589 649.34 588.68 648.84 588.39 648.32C587.81 647.29 587.36 646.18 587.06 645.04C586.75 643.91 586.53 642.78 586.13 641.74C585.93 641.22 585.68 640.73 585.35 640.31C585.03 639.89 584.62 639.54 584.14 639.31C583.19 638.84 582.03 638.84 580.87 638.74C580.28 638.69 579.68 638.61 579.09 638.41C578.5 638.21 577.93 637.86 577.51 637.38C576.66 636.43 576.33 635.22 575.97 634.14C575.79 633.59 575.6 633.07 575.38 632.57C575.15 632.07 574.9 631.62 574.58 631.13C574.54 631.08 574.56 631 574.61 630.97C574.65 630.94 574.69 630.94 574.73 630.96Z" fill="#371A45"/>
<path d="M574.68 640.69C575.13 640.63 575.52 640.64 575.94 640.65L577.19 640.68C578.04 640.68 578.93 640.65 579.81 640.81C580.25 640.89 580.7 641.01 581.12 641.21C581.54 641.41 581.94 641.69 582.25 642.06C582.57 642.42 582.78 642.86 582.92 643.3C583.06 643.74 583.12 644.19 583.16 644.63C583.22 645.52 583.2 646.36 583.26 647.2C583.31 648.04 583.4 648.88 583.56 649.7C583.72 650.52 583.96 651.32 584.29 652.08C584.46 652.46 584.64 652.83 584.88 653.16C585.1 653.51 585.32 653.84 585.41 654.31C585.42 654.38 585.38 654.45 585.31 654.46C585.29 654.46 585.26 654.46 585.24 654.45C584.77 654.28 584.49 653.91 584.26 653.53C584.05 653.14 583.84 652.75 583.66 652.34C583.31 651.53 583.06 650.68 582.89 649.82C582.72 648.96 582.63 648.1 582.57 647.23C582.51 646.37 582.53 645.5 582.47 644.68C582.41 643.86 582.22 643.06 581.72 642.5C581.23 641.92 580.47 641.61 579.68 641.48C578.88 641.34 578.05 641.34 577.19 641.38C576.76 641.4 576.32 641.41 575.88 641.35C575.44 641.3 574.99 641.19 574.61 640.91C574.56 640.87 574.55 640.79 574.59 640.74C574.62 640.71 574.65 640.69 574.68 640.69Z" fill="#371A45"/>
<path d="M585.9 648.16C586.11 648.24 586.2 648.36 586.26 648.49C586.33 648.62 586.37 648.75 586.4 648.89C586.48 649.16 586.6 649.43 586.7 649.69C586.92 650.22 587.15 650.74 587.41 651.24C587.67 651.75 587.94 652.25 588.24 652.74C588.39 652.98 588.54 653.22 588.7 653.46C588.78 653.58 588.86 653.7 588.96 653.8C589.05 653.91 589.12 654.04 589 654.29C588.97 654.37 588.89 654.41 588.82 654.42C588.54 654.44 588.45 654.33 588.37 654.2C588.31 654.06 588.23 653.94 588.14 653.82C587.98 653.57 587.82 653.33 587.67 653.07C587.37 652.57 587.08 652.05 586.82 651.53C586.56 651.01 586.31 650.47 586.09 649.93C585.97 649.66 585.88 649.38 585.76 649.11C585.7 648.98 585.64 648.84 585.61 648.7C585.58 648.55 585.58 648.4 585.7 648.21C585.74 648.16 585.83 648.13 585.9 648.16Z" fill="#371A45"/>
<path d="M574.63 644.61C574.89 644.38 575.18 644.29 575.48 644.23C575.78 644.17 576.09 644.17 576.41 644.2C577.03 644.24 577.67 644.36 578.24 644.65C578.82 644.94 579.31 645.38 579.68 645.88C580.05 646.39 580.33 646.95 580.51 647.54C580.89 648.72 580.92 649.98 580.7 651.18C580.59 651.78 580.42 652.37 580.19 652.93L579.83 653.77C579.7 654.04 579.52 654.3 579.17 654.43C579.1 654.46 579.01 654.42 578.99 654.34C578.99 654.33 578.99 654.32 578.98 654.31V654.3C578.92 653.92 579.06 653.69 579.19 653.43C579.34 653.19 579.46 652.93 579.56 652.67C579.77 652.15 579.93 651.6 580.03 651.05C580.23 649.95 580.2 648.8 579.86 647.74C579.53 646.69 578.88 645.72 577.92 645.24C577.45 645 576.91 644.88 576.37 644.88C576.1 644.88 575.82 644.91 575.54 644.91C575.26 644.92 574.98 644.92 574.66 644.81C574.59 644.79 574.56 644.71 574.58 644.64C574.6 644.65 574.62 644.63 574.63 644.61Z" fill="#371A45"/>
<path d="M574.62 648.32C574.74 648.11 574.94 648.03 575.13 648C575.32 647.97 575.52 647.99 575.7 648.04C576.07 648.13 576.44 648.28 576.74 648.54C577.34 649.05 577.64 649.82 577.6 650.59C577.58 650.97 577.45 651.37 577.25 651.68C577.05 652 576.79 652.27 576.52 652.5C576.25 652.73 575.96 652.92 575.68 653.1C575.54 653.19 575.39 653.28 575.27 653.39C575.13 653.48 574.98 653.56 574.72 653.44C574.64 653.41 574.6 653.33 574.6 653.25C574.62 652.95 574.75 652.86 574.89 652.78C575.04 652.71 575.18 652.63 575.32 652.54C575.59 652.36 575.86 652.18 576.09 651.99C576.57 651.6 576.91 651.12 576.93 650.56C576.96 650.01 576.73 649.42 576.31 649.07C576.1 648.9 575.85 648.77 575.57 648.74C575.43 648.73 575.29 648.73 575.16 648.71C575.02 648.7 574.88 648.67 574.69 648.54L574.68 648.53C574.61 648.48 574.58 648.39 574.62 648.32Z" fill="#371A45"/>
</g>
<g opacity="0.55">
<path d="M577.04 654.37H574.65V618.99H575C576.13 618.99 577.05 619.91 577.05 621.04V654.37H577.04Z" fill="white"/>
</g>
<g opacity="0.3">
<path d="M590.73 613.33V654.37H586.92V622.84C586.92 620.74 585.22 619.04 583.12 619.04H574.65V613.33H590.73Z" fill="#371A45"/>
</g>
<path d="M594.46 657.76V699.05C594.46 700.92 592.94 702.43 591.08 702.43H574.49C573.93 702.43 573.4 702.29 572.94 702.05C571.85 701.49 571.11 700.35 571.11 699.04V657.75C571.11 655.88 572.63 654.37 574.49 654.37H591.08C592.94 654.37 594.46 655.89 594.46 657.76Z" fill="#F9DC1B"/>
<path d="M591.07 702.61H574.48C573.91 702.61 573.35 702.47 572.85 702.22L572.76 702.17C571.63 701.55 570.93 700.37 570.93 699.06V657.77C570.93 655.81 572.52 654.22 574.48 654.22H591.07C593.03 654.22 594.62 655.81 594.62 657.77V699.06C594.62 701.01 593.03 702.61 591.07 702.61ZM573.1 701.96C573.53 702.16 574 702.27 574.48 702.27H591.07C592.84 702.27 594.29 700.83 594.29 699.05V657.76C594.29 655.99 592.85 654.54 591.07 654.54H574.48C572.71 654.54 571.26 655.98 571.26 657.76V699.05C571.26 700.26 571.93 701.35 573 701.91L573.1 701.96Z" fill="#000072"/>
<path d="M594.46 657.76V699.05C594.46 700.92 592.94 702.43 591.08 702.43H585.57C587.44 702.43 588.95 700.91 588.95 699.05V657.76C588.95 655.89 587.43 654.38 585.57 654.38H591.08C592.94 654.37 594.46 655.89 594.46 657.76Z" fill="#E89F02"/>
<path d="M591.07 702.61H585.56V702.27C587.33 702.27 588.78 700.83 588.78 699.05V657.76C588.78 655.99 587.34 654.54 585.56 654.54V654.2H591.07C593.03 654.2 594.62 655.79 594.62 657.75V699.04C594.62 701.01 593.03 702.61 591.07 702.61ZM587.08 702.27H591.07C592.84 702.27 594.29 700.83 594.29 699.05V657.76C594.29 655.99 592.85 654.54 591.07 654.54H587.08C588.29 655.11 589.12 656.34 589.12 657.76V699.05C589.12 700.47 588.28 701.7 587.08 702.27Z" fill="#E89F02"/>
<g opacity="0.55">
<path d="M575.49 702.06C575.95 702.3 576.48 702.44 577.04 702.44H574.48C573.92 702.44 573.39 702.3 572.93 702.06C571.84 701.5 571.1 700.36 571.1 699.05V657.76C571.1 655.89 572.62 654.38 574.48 654.38H577.04C575.17 654.38 573.66 655.9 573.66 657.76V699.05C573.66 700.36 574.4 701.5 575.49 702.06Z" fill="white"/>
</g>
<g opacity="0.2">
<path d="M561.29 592.43L563.54 604.7H559.03V592.43H561.29Z" fill="black"/>
</g>
<g opacity="0.2">
<path d="M584.53 592.98C584.53 594.73 582.32 594.26 579.59 594.26C576.86 594.26 574.65 594.73 574.65 592.98C574.65 591.23 576.86 589.81 579.59 589.81C582.32 589.81 584.53 591.23 584.53 592.98Z" fill="white"/>
</g>
<g opacity="0.2">
<path d="M581.29 674.57C581.29 677.84 579.91 680.49 578.21 680.49C576.51 680.49 576.48 677.84 576.48 674.57C576.48 671.3 576.51 668.65 578.21 668.65C579.91 668.65 581.29 671.3 581.29 674.57Z" fill="white"/>
</g>
<path d="M559.03 589.67V606.93C559.03 608.27 557.94 609.36 556.61 609.36H547.24C545.9 609.36 544.81 608.27 544.81 606.93V589.67C544.81 588.33 545.9 587.25 547.24 587.25H556.61C557.94 587.24 559.03 588.33 559.03 589.67Z" stroke="#0D2232" stroke-width="4" stroke-miterlimit="10" stroke-linecap="round" stroke-linejoin="round"/>
<path d="M569.48 604.7H559.03V592.43H567.9L569.48 604.7Z" stroke="#0D2232" stroke-width="4" stroke-miterlimit="10" stroke-linecap="round" stroke-linejoin="round"/>
<path d="M618.64 602.89C618.49 604.64 616.43 605.51 615.1 604.36C607.63 597.94 596.59 601.56 594.34 610.72C593.96 612.25 592.62 613.33 591.05 613.33H573.58C571.88 613.33 570.44 612.07 570.23 610.38L569.5 604.7L567.92 592.43L567.39 588.29C567.13 586.27 568.71 584.47 570.75 584.47H599.4C610.99 584.48 619.41 593.43 618.64 602.89Z" stroke="#0D2232" stroke-width="4" stroke-miterlimit="10" stroke-linecap="round" stroke-linejoin="round"/>
<path d="M590.73 613.33H574.65V654.37H590.73V613.33Z" stroke="#0D2232" stroke-width="4" stroke-miterlimit="10" stroke-linecap="round" stroke-linejoin="round"/>
<path d="M594.46 657.76V699.05C594.46 700.92 592.94 702.43 591.08 702.43H574.49C573.93 702.43 573.4 702.29 572.94 702.05C571.85 701.49 571.11 700.35 571.11 699.04V657.75C571.11 655.88 572.63 654.37 574.49 654.37H591.08C592.94 654.37 594.46 655.89 594.46 657.76Z" stroke="#0D2232" stroke-width="4" stroke-miterlimit="10" stroke-linecap="round" stroke-linejoin="round"/>
<path d="M612.87 714.22C612.86 714.17 612.86 714.12 612.86 714.07L614.67 630.01C614.68 629.37 615.21 628.87 615.85 628.88L630.31 629.19C630.62 629.2 630.91 629.32 631.12 629.55C631.3 629.73 631.41 629.97 631.43 630.22C631.44 630.27 631.44 630.32 631.44 630.37L629.63 714.43C629.62 715.07 629.09 715.57 628.45 715.56L613.99 715.25C613.68 715.24 613.39 715.12 613.18 714.89C613.01 714.71 612.9 714.47 612.87 714.22Z" fill="#C14854"/>
<path d="M618.464 630.092L616.673 714.155L625.931 714.352L627.722 630.289L618.464 630.092Z" fill="#E8656D"/>
<path opacity="0.5" d="M617.347 626.42L615.473 715.242L616.612 715.266L618.487 626.444L617.347 626.42Z" fill="white"/>
<path d="M610.11 632.14C609.32 631.55 608.56 630.89 607.85 630.19C603.63 626.04 601.27 620.49 601.22 614.56C601.17 608.64 603.43 603.05 607.59 598.83C608.67 597.73 609.86 596.75 611.14 595.9C611.52 595.65 612.01 595.64 612.4 595.89C612.43 595.91 612.45 595.92 612.47 595.94C612.81 596.19 612.98 596.61 612.92 597.03L611.18 608.64L624.13 615.1L634.28 604.78L629.21 595.02C628.99 594.6 629.05 594.09 629.36 593.73C629.67 593.37 630.16 593.24 630.61 593.39C632.8 594.14 634.84 595.22 636.7 596.61C637.49 597.2 638.25 597.86 638.96 598.55C643.18 602.7 645.54 608.25 645.59 614.18C645.64 620.1 643.38 625.69 639.22 629.91C631.46 637.82 618.95 638.77 610.11 632.14Z" fill="#E8656D"/>
<path d="M630.23 594.5L631.03 596.04C632.27 596.82 633.44 597.74 634.53 598.81C642.81 606.95 642.92 620.26 634.78 628.54C630.28 633.12 624.19 635.19 618.25 634.76C625.25 636.52 632.97 634.64 638.39 629.12C646.53 620.84 646.42 607.53 638.14 599.39C635.83 597.12 633.12 595.49 630.23 594.5Z" fill="#C14854"/>
<path opacity="0.5" d="M608.3 625.72C616.25 635.88 626.82 632.41 626.82 632.41C626.82 632.41 618.96 630.59 613.13 624.31C607.04 617.76 604.75 610.8 604.75 610.8C604.75 610.8 602.54 618.36 608.3 625.72Z" fill="white"/>
<path opacity="0.5" d="M610.19 711.9C613.15 708 616.13 708.7 616.13 708.7C616.13 708.7 612.23 712.12 610.06 716.83C608.02 721.26 608.32 728.44 608.32 728.44C608.32 728.44 606.32 723.62 606.6 721.18C607.06 717.2 608.19 714.53 610.19 711.9Z" fill="white"/>
<path d="M613.04 706.08L614.57 634.72" stroke="#0D2232" stroke-width="4" stroke-miterlimit="10" stroke-linecap="round" stroke-linejoin="round"/>
<path d="M631.35 635.11L629.81 706.48" stroke="#0D2232" stroke-width="4" stroke-miterlimit="10" stroke-linecap="round" stroke-linejoin="round"/>
<path d="M610.11 632.14C609.32 631.55 608.56 630.89 607.85 630.19C603.63 626.04 601.27 620.49 601.22 614.56C601.17 608.64 603.43 603.05 607.59 598.83C608.67 597.73 609.86 596.75 611.14 595.9C611.52 595.65 612.01 595.64 612.4 595.89C612.43 595.91 612.45 595.92 612.47 595.94C612.81 596.19 612.98 596.61 612.92 597.03L611.18 608.64L624.13 615.1L634.28 604.78L629.21 595.02C628.99 594.6 629.05 594.09 629.36 593.73C629.67 593.37 630.16 593.24 630.61 593.39C632.8 594.14 634.84 595.22 636.7 596.61C637.49 597.2 638.25 597.86 638.96 598.55C643.18 602.7 645.54 608.25 645.59 614.18C645.64 620.1 643.38 625.69 639.22 629.91C631.46 637.82 618.95 638.77 610.11 632.14Z" stroke="#0D2232" stroke-width="4" stroke-miterlimit="10" stroke-linecap="round" stroke-linejoin="round"/>
<path d="M547.47 658.93V717.09C547.47 717.09 559.04 734.45 581.54 734.45C604.04 734.45 620.11 734.45 620.11 734.45L626.86 725.77C626.86 725.77 632.32 684.95 632.97 669.2C632.97 669.2 571.25 670.85 547.47 658.93Z" fill="#FEC400"/>
<path d="M552.73 661.15V704.81C552.73 712.24 556.93 719.05 563.6 722.31C574.57 727.68 594.58 732.8 626.86 725.78L620.11 734.46L578.16 734.7C578.16 734.7 556.46 731.89 547.46 717.1V658.94L552.73 661.15Z" fill="#E89F02"/>
<path d="M547.47 658.93V712.14C547.47 715.76 548.93 719.22 551.49 721.78C556.64 726.92 566.72 734.45 581.54 734.45H613.04C617.5 734.45 621.71 732.39 624.45 728.87C626.03 726.84 627.04 724.42 627.37 721.87C628.74 711.28 632.44 681.99 632.96 669.2C632.97 669.2 571.25 670.85 547.47 658.93Z" stroke="#0D2232" stroke-width="4" stroke-miterlimit="10" stroke-linecap="round" stroke-linejoin="round"/>
<path d="M547.47 674.02C547.47 674.02 567.17 690.92 631.45 684.49" stroke="#0D2232" stroke-width="4" stroke-miterlimit="10" stroke-linecap="round" stroke-linejoin="round"/>
<path d="M509.53 336.24C509.53 336.24 526.24 324.21 548.07 332.18" stroke="#0D2232" stroke-width="12" stroke-miterlimit="10" stroke-linecap="round" stroke-linejoin="round"/>
<path d="M445.12 316.11C445.12 316.11 423.1 307.99 406.39 323.7" stroke="#0D2232" stroke-width="12" stroke-miterlimit="10" stroke-linecap="round" stroke-linejoin="round"/>
<path d="M455.98 402.55C455.98 402.55 483.05 388.19 502.39 399.24" stroke="#0D2232" stroke-width="12" stroke-miterlimit="10" stroke-linecap="round" stroke-linejoin="round"/>
<path d="M628.433 197.322C625.189 197.322 622.391 196.227 620.039 194.037C617.768 191.766 616.632 188.887 616.632 185.399C616.632 181.911 617.768 179.113 620.039 177.004C622.391 174.814 625.189 173.72 628.433 173.72C631.759 173.72 634.557 174.814 636.828 177.004C639.099 179.113 640.234 181.911 640.234 185.399C640.234 188.887 639.099 191.766 636.828 194.037C634.557 196.227 631.759 197.322 628.433 197.322ZM660.274 197.322C657.03 197.322 654.232 196.227 651.88 194.037C649.609 191.766 648.473 188.887 648.473 185.399C648.473 181.911 649.609 179.113 651.88 177.004C654.232 174.814 657.03 173.72 660.274 173.72C663.6 173.72 666.398 174.814 668.669 177.004C670.94 179.113 672.075 181.911 672.075 185.399C672.075 188.887 670.94 191.766 668.669 194.037C666.398 196.227 663.6 197.322 660.274 197.322ZM692.115 197.322C688.871 197.322 686.073 196.227 683.721 194.037C681.45 191.766 680.314 188.887 680.314 185.399C680.314 181.911 681.45 179.113 683.721 177.004C686.073 174.814 688.871 173.72 692.115 173.72C695.441 173.72 698.239 174.814 700.51 177.004C702.781 179.113 703.916 181.911 703.916 185.399C703.916 188.887 702.781 191.766 700.51 194.037C698.239 196.227 695.441 197.322 692.115 197.322ZM723.956 197.322C720.712 197.322 717.914 196.227 715.562 194.037C713.291 191.766 712.155 188.887 712.155 185.399C712.155 181.911 713.291 179.113 715.562 177.004C717.914 174.814 720.712 173.72 723.956 173.72C727.282 173.72 730.08 174.814 732.351 177.004C734.622 179.113 735.758 181.911 735.758 185.399C735.758 188.887 734.622 191.766 732.351 194.037C730.08 196.227 727.282 197.322 723.956 197.322Z" fill="#253B5A"/>
<path d="M620.039 194.037L617.917 196.158C617.943 196.184 617.968 196.208 617.994 196.233L620.039 194.037ZM620.039 177.004L622.08 179.203L622.083 179.2L620.039 177.004ZM636.828 177.004L634.745 179.164C634.759 179.177 634.773 179.19 634.787 179.203L636.828 177.004ZM636.828 194.037L638.91 196.196C638.923 196.184 638.936 196.171 638.949 196.158L636.828 194.037ZM628.433 194.322C625.94 194.322 623.874 193.509 622.083 191.841L617.994 196.233C620.908 198.945 624.438 200.322 628.433 200.322V194.322ZM622.16 191.916C620.503 190.258 619.632 188.166 619.632 185.399H613.632C613.632 189.607 615.033 193.273 617.917 196.158L622.16 191.916ZM619.632 185.399C619.632 182.63 620.5 180.67 622.08 179.203L617.997 174.806C615.035 177.557 613.632 181.193 613.632 185.399H619.632ZM622.083 179.2C623.874 177.533 625.94 176.72 628.433 176.72V170.72C624.438 170.72 620.908 172.096 617.994 174.809L622.083 179.2ZM628.433 176.72C631.028 176.72 633.066 177.545 634.745 179.164L638.91 174.845C636.048 172.084 632.489 170.72 628.433 170.72V176.72ZM634.787 179.203C636.366 180.67 637.234 182.63 637.234 185.399H643.234C643.234 181.193 641.831 177.557 638.869 174.806L634.787 179.203ZM637.234 185.399C637.234 188.166 636.364 190.258 634.707 191.916L638.949 196.158C641.834 193.273 643.234 189.607 643.234 185.399H637.234ZM634.745 191.877C633.066 193.497 631.028 194.322 628.433 194.322V200.322C632.489 200.322 636.048 198.957 638.91 196.196L634.745 191.877ZM651.88 194.037L649.758 196.158C649.784 196.184 649.809 196.208 649.835 196.233L651.88 194.037ZM651.88 177.004L653.921 179.203L653.924 179.2L651.88 177.004ZM668.669 177.004L666.587 179.164C666.6 179.177 666.614 179.19 666.628 179.203L668.669 177.004ZM668.669 194.037L670.751 196.196C670.764 196.184 670.777 196.171 670.79 196.158L668.669 194.037ZM660.274 194.322C657.781 194.322 655.715 193.509 653.924 191.841L649.835 196.233C652.749 198.945 656.279 200.322 660.274 200.322V194.322ZM654.001 191.916C652.344 190.258 651.473 188.166 651.473 185.399H645.473C645.473 189.607 646.874 193.273 649.758 196.158L654.001 191.916ZM651.473 185.399C651.473 182.63 652.341 180.67 653.921 179.203L649.838 174.806C646.876 177.557 645.473 181.193 645.473 185.399H651.473ZM653.924 179.2C655.715 177.533 657.781 176.72 660.274 176.72V170.72C656.279 170.72 652.749 172.096 649.835 174.809L653.924 179.2ZM660.274 176.72C662.869 176.72 664.907 177.545 666.587 179.164L670.751 174.845C667.889 172.084 664.33 170.72 660.274 170.72V176.72ZM666.628 179.203C668.207 180.67 669.075 182.63 669.075 185.399H675.075C675.075 181.193 673.672 177.557 670.71 174.806L666.628 179.203ZM669.075 185.399C669.075 188.166 668.205 190.258 666.548 191.916L670.79 196.158C673.675 193.273 675.075 189.607 675.075 185.399H669.075ZM666.587 191.877C664.907 193.497 662.869 194.322 660.274 194.322V200.322C664.33 200.322 667.889 198.957 670.751 196.196L666.587 191.877ZM683.721 194.037L681.599 196.158C681.625 196.184 681.65 196.208 681.676 196.233L683.721 194.037ZM683.721 177.004L685.762 179.203L685.765 179.2L683.721 177.004ZM700.51 177.004L698.428 179.164C698.441 179.177 698.455 179.19 698.469 179.203L700.51 177.004ZM700.51 194.037L702.592 196.196C702.605 196.184 702.618 196.171 702.631 196.158L700.51 194.037ZM692.115 194.322C689.622 194.322 687.556 193.509 685.765 191.841L681.676 196.233C684.59 198.945 688.12 200.322 692.115 200.322V194.322ZM685.842 191.916C684.185 190.258 683.314 188.166 683.314 185.399H677.314C677.314 189.607 678.715 193.273 681.599 196.158L685.842 191.916ZM683.314 185.399C683.314 182.63 684.182 180.67 685.762 179.203L681.679 174.806C678.717 177.557 677.314 181.193 677.314 185.399H683.314ZM685.765 179.2C687.556 177.533 689.622 176.72 692.115 176.72V170.72C688.12 170.72 684.59 172.096 681.676 174.809L685.765 179.2ZM692.115 176.72C694.71 176.72 696.748 177.545 698.428 179.164L702.592 174.845C699.73 172.084 696.171 170.72 692.115 170.72V176.72ZM698.469 179.203C700.049 180.67 700.916 182.63 700.916 185.399H706.916C706.916 181.193 705.513 177.557 702.551 174.806L698.469 179.203ZM700.916 185.399C700.916 188.166 700.046 190.258 698.389 191.916L702.631 196.158C705.516 193.273 706.916 189.607 706.916 185.399H700.916ZM698.428 191.877C696.748 193.497 694.71 194.322 692.115 194.322V200.322C696.171 200.322 699.73 198.957 702.592 196.196L698.428 191.877ZM715.562 194.037L713.44 196.158C713.466 196.184 713.491 196.208 713.517 196.233L715.562 194.037ZM715.562 177.004L717.603 179.203L717.606 179.2L715.562 177.004ZM732.351 177.004L730.269 179.164C730.282 179.177 730.296 179.19 730.31 179.203L732.351 177.004ZM732.351 194.037L734.433 196.196C734.446 196.184 734.459 196.171 734.472 196.158L732.351 194.037ZM723.956 194.322C721.463 194.322 719.397 193.509 717.606 191.841L713.517 196.233C716.431 198.945 719.961 200.322 723.956 200.322V194.322ZM717.683 191.916C716.026 190.258 715.155 188.166 715.155 185.399H709.155C709.155 189.607 710.556 193.273 713.44 196.158L717.683 191.916ZM715.155 185.399C715.155 182.63 716.023 180.67 717.603 179.203L713.52 174.806C710.558 177.557 709.155 181.193 709.155 185.399H715.155ZM717.606 179.2C719.397 177.533 721.463 176.72 723.956 176.72V170.72C719.961 170.72 716.431 172.096 713.517 174.809L717.606 179.2ZM723.956 176.72C726.551 176.72 728.589 177.545 730.269 179.164L734.433 174.845C731.571 172.084 728.012 170.72 723.956 170.72V176.72ZM730.31 179.203C731.89 180.67 732.758 182.63 732.758 185.399H738.758C738.758 181.193 737.354 177.557 734.392 174.806L730.31 179.203ZM732.758 185.399C732.758 188.166 731.887 190.258 730.23 191.916L734.472 196.158C737.357 193.273 738.758 189.607 738.758 185.399H732.758ZM730.269 191.877C728.589 193.497 726.551 194.322 723.956 194.322V200.322C728.012 200.322 731.571 198.957 734.433 196.196L730.269 191.877Z" fill="#0D2232"/>
<path d="M496.69 462.32C496.69 462.32 486.16 503.53 465.06 540.06C465.05 540.08 465.05 540.09 465.04 540.11C450.28 574.76 429.36 593.11 412.6 602.75C396.23 612.17 376.31 612.68 359.52 604.04C352.76 600.56 347.55 596.69 343.55 592.66C327.74 576.7 329.6 550.41 347.08 536.29L361.5 544.91L388.34 560.94C397.12 555.36 404.73 549.14 411.32 542.58C448.22 505.9 453.08 459.03 453.08 459.03L496.69 462.32Z" fill="#FBC6A6"/>
<path opacity="0.16" d="M459.13 461.5C459.13 461.5 445.75 538.01 388.34 560.93" stroke="black" stroke-width="6" stroke-miterlimit="10"/>
<path opacity="0.5" d="M394.57 609.85C394.57 609.85 322.56 601.65 339.59 543.05" stroke="white" stroke-width="6" stroke-miterlimit="10" stroke-linejoin="round"/>
<path d="M496.69 462.32C496.69 462.32 486.16 503.53 465.06 540.06C465.05 540.08 465.05 540.09 465.04 540.11C436.5 607.09 384.97 613.15 384.97 613.15C364.52 608.17 351.58 600.76 343.55 592.65C327.74 576.69 329.6 550.4 347.08 536.28L361.5 544.9L388.34 560.93C397.12 555.35 404.73 549.13 411.32 542.57C448.22 505.89 453.08 459.02 453.08 459.02L496.69 462.32Z" stroke="#0D2232" stroke-width="6" stroke-miterlimit="10" stroke-linecap="round" stroke-linejoin="round"/>
<path d="M502.65 476.83C501.62 479.78 499.87 482.56 498.2 485.18C494.97 490.25 491.13 494.76 486.94 499.06C483.87 502.2 480.9 505.33 478.42 508.91L473.39 506.62L447.68 494.91C447.49 492.81 447.12 490.69 446.55 488.54C445.2 483.43 442.98 478.51 442.23 473.26C441.44 467.71 443.29 463.5 445.95 458.84C448.45 454.47 450.09 449.98 450.03 444.88C450.02 444.01 449.7 442.79 449.82 441.94C450.01 440.42 450.55 439.16 451.54 438.81C451.63 438.78 451.72 438.75 451.82 438.73C451.83 438.73 451.83 438.73 451.84 438.73C452.25 438.66 452.72 438.73 453.26 438.98C453.4 439.04 453.54 439.11 453.69 439.2C457.99 441.7 456.4 449.62 455.37 453.36C454.77 455.54 454.41 457.83 453.47 459.9C453.6 460.01 453.8 460.06 453.98 460.02C454.13 460 454.27 459.9 454.34 459.73C456.71 454.11 459.27 448.43 462.69 443.35C464.65 440.43 468.03 437.75 471.44 440.24C474.37 442.37 474.79 445.89 474.04 449.17C473.95 449.57 472.54 453.07 473.93 452.34C474.93 451.82 476.07 447.14 476.81 446.21C478.28 444.36 480.55 443.15 482.91 444C486.95 445.46 487.4 450 485.89 453.46C485.5 454.35 483.51 456.62 485.16 457.13C486.21 457.44 487.15 456.33 487.87 455.79C488.91 455.01 490.05 454.34 491.26 453.88C493.69 452.96 496.41 453.02 498.31 454.98C499.87 456.58 500.03 458.68 499.26 460.7C498.86 461.76 498.26 462.75 497.61 463.68C497.02 464.53 496.03 465.32 495.64 466.26C494.32 469.44 497.56 466.64 500.09 468.05C501.15 468.65 502.16 469.34 502.74 470.36V470.35C502.77 470.41 502.81 470.47 502.85 470.53C502.89 470.59 502.92 470.65 502.95 470.71C503.81 472.65 503.31 474.94 502.65 476.83Z" fill="#FBC6A6"/>
<path opacity="0.16" d="M453.47 459.9C453.61 460.02 453.8 460.06 453.98 460.02C453.71 460.41 453.38 460.72 453.01 460.77C451.16 461.04 452.75 455.52 452.96 454.79C453.29 453.61 453.71 452.44 453.94 451.24C454.26 449.54 454.25 447.69 454.1 445.97C453.86 443.39 453.04 440.88 451.55 438.81C452.12 438.6 452.83 438.69 453.71 439.2C458.01 441.7 456.41 449.61 455.38 453.35C454.77 455.54 454.41 457.83 453.47 459.9Z" fill="black"/>
<path opacity="0.16" d="M470.51 452.01C470.24 452.87 469.91 453.69 469.5 454.48C468.79 454.44 468.25 454.02 468.12 453.13C467.93 451.78 468.26 450.36 468.44 449.03C468.69 447.12 468.89 445.2 468.84 443.26C468.81 442.01 468.6 440.83 468.26 439.71C468.33 439.76 468.4 439.79 468.47 439.85C471.4 441.98 471.81 445.5 471.06 448.78C470.99 449.11 469.96 451.7 470.51 452.01Z" fill="black"/>
<path opacity="0.16" d="M482.74 457.71C482.09 458.77 481.34 459.84 480.46 460.77C480.3 460.78 480.15 460.79 479.98 460.78C478.92 460.69 478.8 459.62 478.78 458.72C478.71 455.96 479.81 453.22 480.09 450.49C480.3 448.48 480.24 446.37 479.62 444.5C480.01 444.53 480.4 444.6 480.79 444.74C484.83 446.19 485.28 450.74 483.77 454.19C483.41 455.01 481.7 457.01 482.74 457.71Z" fill="black"/>
<path opacity="0.16" d="M495.37 465.4C494.87 466.12 494.12 466.79 493.65 467.55C493.38 467.82 493.08 468.11 492.7 468.43C491.79 469.2 491.01 469.75 490.06 470.16C489.85 470.25 489.64 470.33 489.43 470.4C489.37 470.42 489.32 470.44 489.26 470.45C489.24 470.45 489.25 470.45 489.23 470.46C489.13 470.48 489.02 470.51 488.92 470.53C488.77 470.56 488.63 470.56 488.48 470.58C488.28 470.03 488.41 469.16 488.51 468.67C488.8 467.14 489.57 465.8 490.25 464.42C490.97 462.94 491.58 461.41 492.01 459.82C492.44 458.24 492.63 456.61 492.43 455.07C493.77 455.16 495.05 455.65 496.09 456.71C497.65 458.31 497.81 460.41 497.04 462.44C496.61 463.49 496.01 464.47 495.37 465.4Z" fill="black"/>
<path opacity="0.16" d="M502.65 476.83C501.62 479.78 499.87 482.56 498.2 485.18C494.97 490.25 491.13 494.76 486.94 499.06C483.87 502.2 480.9 505.33 478.42 508.91L473.39 506.62C476.86 502.32 480.76 498.39 484.77 494.59C489.29 490.31 494.27 486.33 497.97 481.28C500.43 477.94 502.02 474.28 502.74 470.35C502.77 470.41 502.81 470.47 502.85 470.53C502.89 470.59 502.92 470.65 502.95 470.71C503.81 472.65 503.31 474.94 502.65 476.83Z" fill="black"/>
<path d="M502.65 476.83C501.62 479.78 499.87 482.56 498.2 485.18C494.97 490.25 491.13 494.76 486.94 499.06C483.87 502.2 480.9 505.33 478.42 508.91L473.39 506.62L447.68 494.91C447.49 492.81 447.12 490.69 446.55 488.54C445.2 483.43 442.98 478.51 442.23 473.26C441.44 467.71 443.29 463.5 445.95 458.84C448.45 454.47 450.09 449.98 450.03 444.88C450.02 444.01 449.7 442.79 449.82 441.94C450.01 440.42 450.55 439.16 451.54 438.81C451.63 438.78 451.72 438.75 451.82 438.73C451.83 438.73 451.83 438.73 451.84 438.73C452.25 438.66 452.72 438.73 453.26 438.98C453.4 439.04 453.54 439.11 453.69 439.2C457.99 441.7 456.4 449.62 455.37 453.36C454.77 455.54 454.41 457.83 453.47 459.9C453.6 460.01 453.8 460.06 453.98 460.02C454.13 460 454.27 459.9 454.34 459.73C456.71 454.11 459.27 448.43 462.69 443.35C464.65 440.43 468.03 437.75 471.44 440.24C474.37 442.37 474.79 445.89 474.04 449.17C473.95 449.57 472.54 453.07 473.93 452.34C474.93 451.82 476.07 447.14 476.81 446.21C478.28 444.36 480.55 443.15 482.91 444C486.95 445.46 487.4 450 485.89 453.46C485.5 454.35 483.51 456.62 485.16 457.13C486.21 457.44 487.15 456.33 487.87 455.79C488.91 455.01 490.05 454.34 491.26 453.88C493.69 452.96 496.41 453.02 498.31 454.98C499.87 456.58 500.03 458.68 499.26 460.7C498.86 461.76 498.26 462.75 497.61 463.68C497.02 464.53 496.03 465.32 495.64 466.26C494.32 469.44 497.56 466.64 500.09 468.05C501.15 468.65 502.16 469.34 502.74 470.36V470.35C502.77 470.41 502.81 470.47 502.85 470.53C502.89 470.59 502.92 470.65 502.95 470.71C503.81 472.65 503.31 474.94 502.65 476.83Z" stroke="#0D2232" stroke-width="6" stroke-miterlimit="10" stroke-linecap="round" stroke-linejoin="round"/>
<path d="M409.89 658.93V718.37C409.89 718.37 385.46 737.01 348.18 734.44C348.18 734.44 332.75 710.01 328.25 669.19C328.25 669.2 392.54 672.78 409.89 658.93Z" stroke="white" stroke-miterlimit="10"/>
<path d="M330.8 685.78C330.8 685.78 384.18 686.24 409.89 674.02" stroke="white" stroke-miterlimit="10"/>
<path d="M343.64 725.81C343.64 725.81 375.82 726.73 394.47 716.45L390.35 666.27L409.9 658.93V718.37C409.9 718.37 388.04 735.73 348.19 734.44L343.64 725.81Z" stroke="white" stroke-miterlimit="10"/>
<path d="M410.06 674.02C410.06 674.02 388.82 690.73 324.46 684.31" stroke="white" stroke-miterlimit="10"/>
<path d="M428.08 634.16V722.88L416.5 734.45H337.33L347.95 726.09L347.31 634.16H428.08Z" fill="#F9DC1B"/>
<path d="M418.43 634.16V717.32L411.67 726.09H330.58L337.33 734.45H416.5L428.08 722.88V634.16H418.43Z" fill="#E89F02"/>
<path d="M415.851 651.667H421.001V646.527H415.851V651.667Z" fill="white"/>
<path d="M415.851 668.082H421.001V662.942H415.851V668.082Z" fill="white"/>
<path d="M415.851 684.488H421.001V679.348H415.851V684.488Z" fill="white"/>
<path d="M415.851 700.903H421.001V695.763H415.851V700.903Z" fill="white"/>
<path d="M415.851 717.319H421.001V712.179H415.851V717.319Z" fill="white"/>
<path d="M347.31 669.2V634.16H428.08V722.88L416.5 734.45L338.4 733.61" stroke="#0D2232" stroke-width="4" stroke-miterlimit="10" stroke-linecap="round" stroke-linejoin="round"/>
<path d="M353.24 604.1L357.91 621.71L355.18 624.62C351.91 619.72 345.87 616.99 339.81 618.22C339.52 618.28 339.23 618.35 338.94 618.42C340.19 617.38 341.1 616.2 341.68 614.98C344.22 609.67 340.88 603.31 334.61 602.17L330.83 587.93C340.32 589.24 347.18 594.3 352.23 601.93C352.7 602.6 353.03 603.33 353.24 604.1Z" fill="#AFCADC"/>
<path d="M355.16 624.93L355.03 624.73C351.73 619.78 345.64 617.24 339.86 618.41C339.59 618.46 339.31 618.53 339.01 618.61L338.17 618.83L338.84 618.27C340.03 617.28 340.94 616.15 341.53 614.89C342.69 612.47 342.64 609.7 341.41 607.29C340.08 604.7 337.6 602.9 334.6 602.35L334.48 602.33L330.6 587.69L330.89 587.73C339.92 588.98 346.97 593.58 352.43 601.81C352.89 602.5 353.23 603.25 353.44 604.04L358.14 621.75L355.16 624.93ZM339.65 618.05C339.69 618.04 339.73 618.03 339.78 618.02C345.63 616.83 351.79 619.35 355.21 624.3L357.7 621.64L353.05 604.14C352.85 603.39 352.53 602.68 352.09 602.02C346.75 593.98 339.89 589.43 331.11 588.15L334.78 601.99C337.84 602.58 340.38 604.44 341.74 607.11C343.03 609.63 343.07 612.52 341.86 615.05C341.35 616.15 340.61 617.16 339.65 618.05Z" fill="#000072"/>
<g opacity="0.55">
<path d="M341.66 617.97C341.05 618.01 340.43 618.1 339.81 618.22C339.52 618.28 339.23 618.35 338.94 618.42C340.19 617.38 341.1 616.2 341.68 614.98C344.22 609.67 340.88 603.31 334.61 602.17L330.83 587.93C331.85 588.07 332.83 588.25 333.78 588.48L337.3 601.73C343.57 602.87 346.91 609.22 344.37 614.54C343.81 615.76 342.91 616.93 341.66 617.97Z" fill="white"/>
</g>
<g opacity="0.55">
<path d="M341.73 617.96L341.64 617.98C341.65 617.97 341.65 617.97 341.66 617.96C341.68 617.96 341.71 617.96 341.73 617.96Z" fill="white"/>
<path d="M341.78 618.15L340.87 618.39L341.61 617.78C341.65 617.77 341.68 617.77 341.7 617.77L343.33 617.73L341.78 618.15Z" fill="#371A45"/>
</g>
<path d="M360.93 633.08L363.21 641.69C363.35 642.22 363.06 642.78 362.56 642.97C362.52 642.98 362.49 642.99 362.45 643L346.87 647.14C345.29 647.56 343.69 647.71 342.12 647.62C337.1 647.32 332.41 644.55 329.87 640.22C329.22 639.12 328.71 637.93 328.37 636.64C327.94 635.03 327.8 633.42 327.9 631.85C328.3 625.64 332.59 620.11 338.94 618.43H338.95C339.24 618.35 339.52 618.29 339.82 618.23C345.88 617 351.92 619.73 355.19 624.63C356.15 626.07 356.86 627.69 357.28 629.45C357.55 630.59 357.67 631.73 357.67 632.85L359.63 632.33C359.99 632.23 360.36 632.34 360.62 632.57C360.76 632.69 360.87 632.87 360.93 633.08Z" fill="#AFCADC"/>
<path d="M362.5 643.19L346.92 647.33C345.35 647.75 343.73 647.91 342.11 647.81C336.99 647.51 332.24 644.64 329.7 640.32C329.03 639.19 328.52 637.97 328.18 636.7C327.76 635.1 327.6 633.47 327.7 631.84C328.12 625.37 332.61 619.91 338.88 618.24C339.21 618.15 339.49 618.09 339.77 618.03C345.69 616.83 351.95 619.43 355.33 624.51C356.32 626 357.03 627.64 357.44 629.39C357.69 630.44 357.82 631.52 357.83 632.59L359.55 632.13C359.96 632.02 360.4 632.12 360.71 632.41C360.9 632.57 361.03 632.79 361.09 633.03L363.37 641.64C363.54 642.27 363.2 642.92 362.6 643.15C362.58 643.16 362.54 643.17 362.5 643.19ZM339 618.6C332.88 620.23 328.5 625.55 328.09 631.85C327.98 633.44 328.14 635.03 328.55 636.58C328.88 637.82 329.38 639.01 330.03 640.11C332.5 644.32 337.14 647.12 342.13 647.41C343.71 647.5 345.29 647.35 346.82 646.94L362.4 642.8C362.43 642.79 362.46 642.78 362.49 642.77C362.91 642.61 363.14 642.16 363.03 641.72L360.75 633.11C360.71 632.94 360.61 632.79 360.48 632.68C360.26 632.48 359.96 632.41 359.67 632.48L357.47 633.06V632.81C357.47 631.69 357.34 630.56 357.08 629.45C356.68 627.74 355.99 626.14 355.02 624.69C351.72 619.74 345.63 617.2 339.85 618.37C339.58 618.46 339.31 618.52 339 618.6Z" fill="#000072"/>
<g opacity="0.3">
<path d="M353.24 604.1L357.91 621.71L355.18 624.62C355 624.35 354.81 624.08 354.61 623.82C351.24 619.42 345.54 617.05 339.81 618.22C339.52 618.28 339.23 618.35 338.94 618.42C340.19 617.38 341.1 616.2 341.68 614.98C341.76 614.95 341.85 614.93 341.93 614.91H341.95C342.23 614.84 342.52 614.77 342.82 614.71C345.46 614.17 348.09 614.39 350.49 615.21C351.95 615.71 353.37 614.41 352.98 612.92L350.92 605.17C350.72 604.4 350.38 603.67 349.94 603C345.38 596.12 339.35 591.33 331.26 589.5L330.85 587.95C340.34 589.26 347.2 594.32 352.25 601.95C352.7 602.6 353.03 603.33 353.24 604.1Z" fill="black"/>
<path d="M355.16 624.93L355.03 624.73C354.85 624.45 354.66 624.19 354.47 623.95C351.05 619.48 345.32 617.31 339.86 618.42C339.59 618.47 339.31 618.54 339.01 618.62L338.17 618.84L338.84 618.28C340.03 617.29 340.94 616.16 341.53 614.9L341.57 614.82L341.65 614.79C342.05 614.66 342.46 614.58 342.8 614.51C345.38 613.99 348.06 614.16 350.57 615.01C351.19 615.22 351.85 615.08 352.33 614.64C352.8 614.2 352.98 613.58 352.81 612.96L350.75 605.21C350.55 604.47 350.23 603.76 349.79 603.09C344.95 595.79 338.88 591.4 331.22 589.67L331.11 589.64L330.59 587.7L330.88 587.74C339.91 588.99 346.96 593.59 352.42 601.82C352.88 602.51 353.22 603.26 353.43 604.05L358.13 621.76L355.16 624.93ZM339.65 618.05C339.69 618.04 339.73 618.03 339.78 618.02C345.38 616.88 351.26 619.11 354.77 623.7C354.92 623.89 355.07 624.09 355.21 624.31L357.7 621.65L353.05 604.15C352.85 603.4 352.53 602.69 352.09 602.03C346.75 593.99 339.89 589.44 331.11 588.16L331.42 589.32C339.12 591.09 345.23 595.53 350.11 602.88C350.57 603.58 350.91 604.33 351.12 605.11L353.18 612.86C353.38 613.62 353.16 614.39 352.59 614.92C352.01 615.46 351.21 615.63 350.44 615.38C348 614.55 345.38 614.38 342.87 614.89C342.6 614.94 342.29 615.01 342.01 615.09C341.95 615.11 341.89 615.12 341.84 615.14C341.31 616.2 340.58 617.18 339.65 618.05Z" fill="#371A45"/>
</g>
<g opacity="0.55">
<path d="M349.83 619.74C347.41 618.9 344.74 618.67 342.07 619.21C341.78 619.27 341.49 619.34 341.2 619.41H341.19C334.85 621.09 330.56 626.63 330.15 632.83C330.05 634.4 330.19 636.02 330.62 637.62C330.96 638.9 331.47 640.1 332.12 641.2C333.52 643.58 335.56 645.49 337.96 646.77C334.61 645.6 331.69 643.3 329.87 640.2C329.22 639.1 328.71 637.91 328.37 636.62C327.94 635.01 327.8 633.4 327.9 631.83C328.3 625.62 332.59 620.09 338.94 618.41H338.95C339.24 618.33 339.52 618.27 339.82 618.21C343.34 617.5 346.86 618.13 349.83 619.74Z" fill="white"/>
</g>
<path d="M342.76 640.7C347.112 640.7 350.64 637.172 350.64 632.82C350.64 628.468 347.112 624.94 342.76 624.94C338.408 624.94 334.88 628.468 334.88 632.82C334.88 637.172 338.408 640.7 342.76 640.7Z" fill="#CECEDD"/>
<g opacity="0.55">
<path d="M352.85 632.23C353.97 636.44 351.46 640.75 347.26 641.87C344.66 642.56 342.02 641.87 340.11 640.24C341.56 640.76 343.18 640.86 344.79 640.44C349 639.32 351.5 635.01 350.38 630.8C349.95 629.2 349.06 627.84 347.89 626.84C350.24 627.68 352.16 629.63 352.85 632.23Z" fill="white"/>
</g>
<g opacity="0.3">
<path d="M347.57 626.57C346.28 626.21 344.88 626.19 343.49 626.56C339.28 627.68 336.78 631.99 337.9 636.2C338.36 637.95 339.38 639.4 340.72 640.42C338.09 639.71 335.91 637.66 335.16 634.84C334.04 630.63 336.55 626.32 340.75 625.2C343.2 624.55 345.7 625.13 347.57 626.57Z" fill="black"/>
<path d="M341.6 640.86L340.66 640.61C337.88 639.86 335.7 637.67 334.96 634.89C333.82 630.59 336.39 626.16 340.69 625.02C343.13 624.37 345.68 624.88 347.68 626.42L348.46 627.02L347.51 626.76C346.22 626.4 344.85 626.4 343.53 626.75C339.43 627.84 336.98 632.06 338.07 636.15C338.51 637.8 339.46 639.23 340.82 640.27L341.6 640.86ZM340.79 625.39C336.69 626.48 334.24 630.7 335.33 634.79C335.95 637.12 337.64 639.02 339.84 639.93C338.81 638.92 338.08 637.67 337.7 636.25C336.56 631.95 339.13 627.52 343.43 626.38C344.48 626.1 345.58 626.04 346.64 626.19C344.89 625.15 342.8 624.85 340.79 625.39Z" fill="#371A45"/>
</g>
<path d="M346.58 647.21L350.19 660.81C350.67 662.61 351.72 664.22 353.18 665.38L367.94 677.12C370.37 679.05 372.11 681.71 372.9 684.7L380.27 712.48C380.74 714.26 382.79 715.07 384.37 714.11C388.03 711.88 390.87 709.3 392.41 706.16C393.65 703.63 393.85 700.71 393.12 697.98L387.53 676.94C386.97 674.83 385.85 672.92 384.29 671.39L374.53 661.85C372.62 659.98 371.49 657.44 371.46 654.77C371.43 651.75 372.02 648.39 372.97 644.83C373.56 642.61 371.54 640.58 369.32 641.17L346.58 647.21Z" fill="#F9DC1B"/>
<path d="M387.55 676.93L393.14 697.98C393.86 700.71 393.67 703.63 392.43 706.16C390.89 709.3 388.04 711.88 384.38 714.11C383.3 714.77 382 714.59 381.14 713.85C384.22 711.8 386.62 709.45 387.99 706.66C389.23 704.13 389.43 701.21 388.7 698.48L383.11 677.43C382.55 675.32 381.43 673.41 379.87 671.88L370.11 662.34C368.2 660.47 367.07 657.93 367.05 655.26C367.02 652.24 367.61 648.88 368.56 645.32C368.96 643.81 368.15 642.38 366.89 641.82L369.36 641.17C371.58 640.58 373.6 642.61 373.01 644.83C372.06 648.39 371.47 651.75 371.5 654.77C371.53 657.44 372.66 659.98 374.56 661.85L384.32 671.39C385.87 672.91 386.99 674.83 387.55 676.93Z" fill="#E89F02"/>
<g opacity="0.55">
<path d="M383.5 713.61C383.57 713.88 383.68 714.14 383.82 714.36C382.35 714.86 380.7 714.05 380.28 712.47L372.91 684.69C372.12 681.7 370.38 679.04 367.95 677.11L353.19 665.37C351.73 664.21 350.68 662.61 350.2 660.8L346.59 647.2L369.36 641.16C370.65 640.82 371.86 641.36 372.55 642.3L349.81 648.33L353.42 661.93C353.9 663.74 354.95 665.34 356.41 666.5L371.17 678.24C373.59 680.17 375.33 682.83 376.13 685.82L383.5 713.61Z" fill="white"/>
</g>
<path d="M346.58 647.21L350.19 660.81C350.67 662.61 350.55 664.52 349.86 666.26L342.86 683.77C341.71 686.65 341.52 689.82 342.31 692.82L349.68 720.6C350.15 722.38 348.77 724.1 346.93 724.04C342.65 723.92 338.9 723.09 336 721.13C333.66 719.55 332.05 717.11 331.32 714.38L325.73 693.34C325.17 691.23 325.19 689.02 325.79 686.92L329.53 673.8C330.26 671.23 329.98 668.47 328.68 666.13C327.21 663.49 325.03 660.86 322.44 658.24C320.83 656.61 321.58 653.85 323.79 653.26L346.58 647.21Z" fill="#F9DC1B"/>
<path d="M346.58 647.21L350.19 660.81C350.67 662.62 350.55 664.53 349.86 666.26L342.86 683.77C341.71 686.65 341.52 689.82 342.31 692.82L349.68 720.6C350.15 722.38 348.77 724.1 346.93 724.05C346.14 724.03 345.36 723.98 344.6 723.9C344.93 723.31 345.04 722.6 344.85 721.88L337.48 694.1C336.69 691.11 336.88 687.93 338.03 685.05L345.03 667.54C345.72 665.81 345.84 663.9 345.36 662.09L341.75 648.49L346.58 647.21Z" fill="#E89F02"/>
<g opacity="0.55">
<path d="M326.43 659.17C329.02 661.79 331.2 664.42 332.67 667.06C333.97 669.39 334.25 672.16 333.52 674.73L329.78 687.85C329.18 689.95 329.16 692.17 329.72 694.27L335.31 715.32C336.03 718.05 337.65 720.49 339.98 722.07C341.01 722.77 342.15 723.32 343.38 723.75C340.57 723.35 338.08 722.53 336.02 721.13C333.69 719.55 332.07 717.11 331.35 714.38L325.76 693.33C325.2 691.22 325.22 689 325.82 686.91L329.56 673.79C330.29 671.22 330.01 668.46 328.71 666.13C327.24 663.49 325.06 660.86 322.47 658.24C320.86 656.61 321.61 653.84 323.82 653.26L346.58 647.21L347.07 649.07L327.77 654.2C325.57 654.78 324.82 657.54 326.43 659.17Z" fill="white"/>
</g>
<path d="M342.12 647.61L342.31 648.34L329.43 651.76L327.07 642.88C326.81 641.89 327.4 640.87 328.39 640.61L329.86 640.22C332.41 644.54 337.1 647.32 342.12 647.61Z" fill="#AFCADC"/>
<path d="M342.55 648.48L329.3 652L326.89 642.93C326.6 641.84 327.25 640.71 328.35 640.42L329.96 639.99L330.03 640.12C332.5 644.33 337.14 647.13 342.13 647.42L342.27 647.43L342.55 648.48ZM329.57 651.53L342.08 648.21L341.97 647.8C336.96 647.46 332.31 644.65 329.78 640.44L328.45 640.79C327.56 641.03 327.03 641.94 327.27 642.83L329.57 651.53Z" fill="#000072"/>
<g opacity="0.55">
<path d="M329.99 640.18C330.19 640.53 330.42 640.87 330.65 641.2L330.52 641.24C329.53 641.5 328.94 642.52 329.2 643.51L331.26 651.28L329.55 651.73L327.19 642.85C326.93 641.86 327.52 640.84 328.51 640.58L329.99 640.18Z" fill="white"/>
</g>
<path d="M338.94 618.42C332.6 620.1 328.31 625.64 327.9 631.84L324.1 630.67L319.43 613.06C319.22 612.29 319.15 611.49 319.21 610.69C319.82 601.56 323.26 593.76 330.85 587.92L334.63 602.16C328.62 607.21 330.4 616.94 338.94 618.42Z" fill="#AFCADC"/>
<path d="M328.08 632.1L323.95 630.83L319.25 613.12C319.04 612.33 318.96 611.51 319.02 610.68C319.68 600.83 323.51 593.33 330.74 587.77L330.97 587.59L334.85 602.23L334.76 602.31C331.87 604.73 330.66 608.39 331.59 611.85C332.49 615.19 335.25 617.57 338.98 618.22L339.84 618.37L338.99 618.59C332.88 620.21 328.5 625.54 328.1 631.84L328.08 632.1ZM324.26 630.53L327.72 631.6C328.21 625.49 332.34 620.32 338.14 618.46C334.65 617.61 332.08 615.22 331.21 611.97C330.25 608.4 331.48 604.63 334.41 602.11L330.74 588.27C323.75 593.74 320.04 601.09 319.4 610.72C319.35 611.51 319.42 612.29 319.62 613.03L324.26 630.53Z" fill="#000072"/>
<g opacity="0.3">
<path d="M336.26 619.41C336.31 619.39 336.36 619.36 336.41 619.34C336.43 619.34 336.45 619.35 336.47 619.35C336.4 619.37 336.33 619.39 336.26 619.41Z" fill="#262F6A"/>
<path d="M336.32 619.6L336.17 619.25C336.22 619.22 336.28 619.2 336.33 619.17L336.38 619.15L336.48 619.16L337.28 619.32L336.52 619.53C336.46 619.56 336.39 619.58 336.32 619.6Z" fill="#371A45"/>
</g>
<g opacity="0.3">
<path d="M336.82 617.84C337.41 618.07 337.42 618.9 336.83 619.16C336.69 619.22 336.55 619.28 336.42 619.35C327.93 617.83 325.55 608.03 331.54 603L328.16 590.26C328.99 589.45 329.89 588.68 330.86 587.94L334.64 602.18C329.15 606.76 330.14 615.24 336.82 617.84Z" fill="#262F6A"/>
<path d="M336.44 619.54L336.38 619.53C332.33 618.8 329.32 616.15 328.33 612.43C327.4 608.94 328.54 605.3 331.32 602.92L327.94 590.19L328.02 590.11C328.86 589.3 329.77 588.51 330.73 587.77L330.96 587.59L334.84 602.23L334.75 602.31C332.12 604.52 330.86 607.77 331.4 611.01C331.9 614.07 333.9 616.5 336.89 617.66C337.23 617.8 337.45 618.11 337.46 618.48C337.47 618.86 337.26 619.18 336.91 619.33C336.77 619.39 336.64 619.45 336.5 619.52L336.44 619.54ZM328.37 590.31L331.75 603.06L331.66 603.14C328.93 605.43 327.8 608.95 328.7 612.34C329.65 615.89 332.52 618.43 336.38 619.15C336.5 619.09 336.62 619.04 336.75 618.98C336.99 618.88 337.07 618.66 337.07 618.49C337.07 618.28 336.95 618.1 336.75 618.02C333.64 616.81 331.55 614.28 331.02 611.08C330.47 607.75 331.74 604.4 334.41 602.11L330.74 588.27C329.9 588.91 329.11 589.6 328.37 590.31Z" fill="#371A45"/>
</g>
<g opacity="0.55">
<path d="M330.85 587.93L331.39 589.98C325.32 595.58 322.49 602.7 321.94 610.9C321.89 611.7 321.96 612.5 322.16 613.27L326.83 630.88L327.94 631.22C327.92 631.43 327.9 631.64 327.89 631.85L324.09 630.68L319.42 613.07C319.21 612.3 319.14 611.5 319.2 610.7C319.82 601.57 323.26 593.77 330.85 587.93Z" fill="white"/>
</g>
<g opacity="0.2">
<path d="M360.93 633.08L363.21 641.69C363.35 642.22 363.06 642.78 362.56 642.97L349.65 646.4C355.9 643.37 358.95 639.06 358.18 633.2L360.61 632.56C360.76 632.69 360.87 632.87 360.93 633.08Z" fill="black"/>
</g>
<path d="M342.12 647.61L342.31 648.34L329.43 651.76L327.07 642.88C326.81 641.89 327.4 640.87 328.39 640.61L329.86 640.22C332.41 644.54 337.1 647.32 342.12 647.61Z" stroke="#0D2232" stroke-width="4" stroke-miterlimit="10" stroke-linecap="round" stroke-linejoin="round"/>
<path d="M346.58 647.21L350.19 660.81C350.67 662.61 351.72 664.22 353.18 665.38L367.94 677.12C370.37 679.05 372.11 681.71 372.9 684.7L380.27 712.48C380.74 714.26 382.79 715.07 384.37 714.11C388.03 711.88 390.87 709.3 392.41 706.16C393.65 703.63 393.85 700.71 393.12 697.98L387.53 676.94C386.97 674.83 385.85 672.92 384.29 671.39L374.53 661.85C372.62 659.98 371.49 657.44 371.46 654.77C371.43 651.75 372.02 648.39 372.97 644.83C373.56 642.61 371.54 640.58 369.32 641.17L346.58 647.21Z" stroke="#0D2232" stroke-width="4" stroke-miterlimit="10" stroke-linecap="round" stroke-linejoin="round"/>
<path d="M346.58 647.21L350.19 660.81C350.67 662.61 350.55 664.52 349.86 666.26L342.86 683.77C341.71 686.65 341.52 689.82 342.31 692.82L349.68 720.6C350.15 722.38 348.77 724.1 346.93 724.04C342.65 723.92 338.9 723.09 336 721.13C333.66 719.55 332.05 717.11 331.32 714.38L325.73 693.34C325.17 691.23 325.19 689.02 325.79 686.92L329.53 673.8C330.26 671.23 329.98 668.47 328.68 666.13C327.21 663.49 325.03 660.86 322.44 658.24C320.83 656.61 321.58 653.85 323.79 653.26L346.58 647.21Z" stroke="#0D2232" stroke-width="4" stroke-miterlimit="10" stroke-linecap="round" stroke-linejoin="round"/>
<path d="M353.24 604.1L357.91 621.71L355.18 624.62C351.91 619.72 345.87 616.99 339.81 618.22C339.52 618.28 339.23 618.35 338.94 618.42C340.19 617.38 341.1 616.2 341.68 614.98C344.22 609.67 340.88 603.31 334.61 602.17L330.83 587.93C340.32 589.24 347.18 594.3 352.23 601.93C352.7 602.6 353.03 603.33 353.24 604.1Z" stroke="#0D2232" stroke-width="4" stroke-miterlimit="10" stroke-linecap="round" stroke-linejoin="round"/>
<path d="M360.93 633.08L363.21 641.69C363.35 642.22 363.06 642.78 362.56 642.97C362.52 642.98 362.49 642.99 362.45 643L346.87 647.14C345.29 647.56 343.69 647.71 342.12 647.62C337.1 647.32 332.41 644.55 329.87 640.22C329.22 639.12 328.71 637.93 328.37 636.64C327.94 635.03 327.8 633.42 327.9 631.85C328.3 625.64 332.59 620.11 338.94 618.43H338.95C339.24 618.35 339.52 618.29 339.82 618.23C345.88 617 351.92 619.73 355.19 624.63C356.15 626.07 356.86 627.69 357.28 629.45C357.55 630.59 357.67 631.73 357.67 632.85L359.63 632.33C359.99 632.23 360.36 632.34 360.62 632.57C360.76 632.69 360.87 632.87 360.93 633.08Z" stroke="#0D2232" stroke-width="4" stroke-miterlimit="10" stroke-linecap="round" stroke-linejoin="round"/>
<path d="M338.94 618.42C332.6 620.1 328.31 625.64 327.9 631.84L324.1 630.67L319.43 613.06C319.22 612.29 319.15 611.49 319.21 610.69C319.82 601.56 323.26 593.76 330.85 587.92L334.63 602.16C328.62 607.21 330.4 616.94 338.94 618.42Z" stroke="#0D2232" stroke-width="4" stroke-miterlimit="10" stroke-linecap="round" stroke-linejoin="round"/>
<path d="M342.76 640.7C347.112 640.7 350.64 637.172 350.64 632.82C350.64 628.468 347.112 624.94 342.76 624.94C338.408 624.94 334.88 628.468 334.88 632.82C334.88 637.172 338.408 640.7 342.76 640.7Z" stroke="#0D2232" stroke-width="4" stroke-miterlimit="10" stroke-linecap="round" stroke-linejoin="round"/>
<path d="M395.08 664.67H374.53C372.34 664.67 370.56 662.89 370.56 660.7V659.57C370.56 657.38 372.34 655.6 374.53 655.6H395.08C397.27 655.6 399.05 657.38 399.05 659.57V660.7C399.05 662.9 397.27 664.67 395.08 664.67Z" fill="#F9DC1B"/>
<path d="M393.41 664.67H376.27V671.75H393.41V664.67Z" fill="#F9DC1B"/>
<path d="M386.58 716.23H383.03C376.14 716.23 370.56 710.65 370.56 703.76V675.9C370.56 673.61 372.41 671.76 374.7 671.76H394.91C397.2 671.76 399.05 673.61 399.05 675.9V703.76C399.05 710.64 393.46 716.23 386.58 716.23Z" fill="#F9DC1B"/>
<path d="M399.05 658.65V661.63C399.05 663.31 397.69 664.67 396.01 664.67H391.01C392.69 664.67 394.05 663.31 394.05 661.63V658.65C394.05 656.97 392.69 655.61 391.01 655.61H396.01C397.69 655.61 399.05 656.97 399.05 658.65Z" fill="#E89F02"/>
<path d="M393.42 664.68H388.42V671.76H393.42V664.68Z" fill="#E89F02"/>
<path d="M399.05 674.78V702.4C399.05 710.04 392.86 716.23 385.22 716.23H384.95C389.98 716.23 394.06 712.15 394.06 707.12V674.78C394.06 673.11 392.71 671.76 391.04 671.76H396.04C397.69 671.75 399.05 673.11 399.05 674.78Z" fill="#E89F02"/>
<g opacity="0.55">
<path d="M377.14 664.68H373.61C371.93 664.68 370.57 663.32 370.57 661.64V658.66C370.57 656.98 371.93 655.62 373.61 655.62H377.14C375.46 655.62 374.1 656.98 374.1 658.66V661.64C374.09 663.31 375.46 664.68 377.14 664.68Z" fill="white"/>
</g>
<g opacity="0.55">
<path d="M379.8 664.68H376.27V671.76H379.8V664.68Z" fill="white"/>
</g>
<g opacity="0.55">
<path d="M383.2 716.23H379.67C374.64 716.23 370.56 712.15 370.56 707.12V674.78C370.56 673.11 371.91 671.76 373.58 671.76H377.11C375.44 671.76 374.09 673.11 374.09 674.78V707.12C374.09 712.15 378.17 716.23 383.2 716.23Z" fill="white"/>
</g>
<path d="M394.74 616.9L392.42 624.08H389.44V655.61H380.5V624.08H377.52L375.2 616.9L378.84 596.36H391.1L394.74 616.9Z" fill="#AFCADC"/>
<path d="M389.61 655.77H380.33V624.24H377.39L375.02 616.91L375.03 616.87L378.7 596.19H391.23L394.91 616.91L392.54 624.24H389.6V655.77H389.61ZM380.66 655.44H389.27V623.91H392.3L394.57 616.89L390.96 596.53H378.98L375.37 616.89L377.64 623.91H380.67V655.44H380.66Z" fill="#000072"/>
<g opacity="0.2">
<path d="M388.62 624.08H389.44V655.61H386.68V626.02C386.68 624.95 387.55 624.08 388.62 624.08Z" fill="black"/>
</g>
<g opacity="0.2">
<path d="M394.74 616.9L392.42 624.08H389.66L391.98 616.9L388.34 596.36H391.1L394.74 616.9Z" fill="black"/>
</g>
<g opacity="0.55">
<path d="M378.06 616.9L380.37 624.08H377.85L375.53 616.9L379.17 596.36H381.7L378.06 616.9Z" fill="white"/>
</g>
<g opacity="0.55">
<path d="M383.36 625.73V655.61H380.83V624.08H381.71C382.62 624.08 383.36 624.82 383.36 625.73Z" fill="white"/>
</g>
<g opacity="0.2">
<path d="M384.45 690.77C384.45 694.43 382.91 697.4 381 697.4C379.1 697.4 379.07 694.43 379.07 690.77C379.07 687.11 379.1 684.14 381 684.14C382.91 684.15 384.45 687.12 384.45 690.77Z" fill="white"/>
</g>
<path d="M395.08 664.67H374.53C372.34 664.67 370.56 662.89 370.56 660.7V659.57C370.56 657.38 372.34 655.6 374.53 655.6H395.08C397.27 655.6 399.05 657.38 399.05 659.57V660.7C399.05 662.9 397.27 664.67 395.08 664.67Z" stroke="#0D2232" stroke-width="4" stroke-miterlimit="10" stroke-linecap="round" stroke-linejoin="round"/>
<path d="M393.41 664.67H376.27V671.75H393.41V664.67Z" stroke="#0D2232" stroke-width="4" stroke-miterlimit="10" stroke-linecap="round" stroke-linejoin="round"/>
<path d="M386.58 716.23H383.03C376.14 716.23 370.56 710.65 370.56 703.76V675.9C370.56 673.61 372.41 671.76 374.7 671.76H394.91C397.2 671.76 399.05 673.61 399.05 675.9V703.76C399.05 710.64 393.46 716.23 386.58 716.23Z" stroke="#0D2232" stroke-width="4" stroke-miterlimit="10" stroke-linecap="round" stroke-linejoin="round"/>
<path d="M394.74 616.9L392.42 624.08H389.44V655.61H380.5V624.08H377.52L375.2 616.9L378.84 596.36H391.1L394.74 616.9Z" stroke="#0D2232" stroke-width="4" stroke-miterlimit="10" stroke-linecap="round" stroke-linejoin="round"/>
<path d="M410.06 658.93V717.09C410.06 717.09 398.47 734.45 375.95 734.45C353.43 734.45 337.33 734.45 337.33 734.45L330.57 725.77C330.57 725.77 325.1 684.95 324.46 669.2C324.46 669.2 386.25 670.85 410.06 658.93Z" fill="#FEC400"/>
<path d="M404.8 661.15V704.81C404.8 712.24 400.6 719.05 393.92 722.31C382.93 727.68 362.9 732.8 330.59 725.78L337.35 734.46L379.35 734.7C379.35 734.7 401.07 731.89 410.08 717.1V658.94L404.8 661.15Z" fill="#E89F02"/>
<path d="M410.06 658.93V713.29C410.06 716 409.03 718.6 407.19 720.58C402.47 725.65 391.98 734.44 375.95 734.44H342.55C339.26 734.44 336.15 732.92 334.13 730.32L332.36 728.05C331.19 726.55 330.44 724.76 330.2 722.88C328.95 713.3 325.01 682.41 324.47 669.19C324.46 669.2 386.25 670.85 410.06 658.93Z" stroke="#0D2232" stroke-width="4" stroke-miterlimit="10" stroke-linecap="round" stroke-linejoin="round"/>
<path d="M410.059 674.02C410.059 674.02 390.339 690.92 325.979 684.49" stroke="#0D2232" stroke-width="4" stroke-miterlimit="10" stroke-linecap="round" stroke-linejoin="round"/>
</svg>
