<svg width="421" height="722" viewBox="0 0 421 722" fill="none" xmlns="http://www.w3.org/2000/svg">
<g clip-path="url(#clip0_344_4031)">
<path d="M93.47 410.09L76.29 432.39L33.4 400.11L21.79 391.38L37.85 369.2L50.3 378.34L93.47 410.09Z" fill="#435F84"/>
<path opacity="0.21" d="M50.3 378.34L50.29 378.39L33.4 400.11L21.79 391.38L37.85 369.2L50.3 378.34Z" fill="white"/>
<path d="M88.1799 331.35L98.8699 393.98L89.4799 407.45L50.2899 378.39L42.1099 372.33L88.1799 331.35Z" fill="#F9DC1B"/>
<path opacity="0.5" d="M88.1799 331.35L98.8699 341.69L50.2899 378.39L42.1099 372.33L88.1799 331.35Z" fill="white"/>
<path d="M98.87 361.94L65.79 389.89L89.48 407.45L98.87 393.98V361.94Z" fill="#E89F02"/>
<path d="M37.85 369.19L93.47 410.09L76.29 432.39L21.79 391.38L37.85 369.19Z" stroke="#0D2232" stroke-width="6" stroke-miterlimit="10" stroke-linecap="round" stroke-linejoin="round"/>
<path d="M88.1799 331.35L42.1099 372.33L89.4799 407.45L98.8699 393.98L88.1799 331.35Z" stroke="#0D2232" stroke-width="6" stroke-miterlimit="10" stroke-linejoin="round"/>
<path opacity="0.5" d="M22.96 361.2L72.89 297.63" stroke="white" stroke-width="6" stroke-miterlimit="10" stroke-linejoin="round"/>
<path d="M75.4999 299.39C75.4999 299.39 45.6999 287.6 43.4599 267.77C41.2199 247.94 99.4899 224.53 99.4899 224.53C99.4899 224.53 126.82 321.29 75.4999 299.39Z" stroke="#0D2232" stroke-width="6" stroke-miterlimit="10" stroke-linecap="round" stroke-linejoin="round"/>
<path d="M93.0898 278.9H128.96" stroke="#0D2232" stroke-width="6" stroke-miterlimit="10" stroke-linecap="round" stroke-linejoin="round"/>
<path d="M120.81 253.35V234.08C120.81 225.38 113.76 218.34 105.07 218.34C96.3701 218.34 89.3301 225.39 89.3301 234.08V253.15L120.81 253.35Z" fill="#FBC6A6"/>
<path d="M74.1232 656.609L147.553 656.609L147.553 635.109L74.1232 635.109L74.1232 656.609Z" fill="#435F84" stroke="#0D2232" stroke-width="6" stroke-miterlimit="10" stroke-linecap="round" stroke-linejoin="round"/>
<path d="M285.04 595.45V636.39L304.32 656.63L322.97 636.39L322.93 535.57H307.82L285.04 595.45Z" fill="#AFCADC"/>
<path d="M304 632.47C307.993 632.47 311.23 629.233 311.23 625.24C311.23 621.247 307.993 618.01 304 618.01C300.007 618.01 296.77 621.247 296.77 625.24C296.77 629.233 300.007 632.47 304 632.47Z" stroke="#0D2232" stroke-width="4" stroke-miterlimit="10" stroke-linecap="round" stroke-linejoin="round"/>
<path opacity="0.2" d="M322.97 536.66H316.32V632.47L304.39 644.4L291.96 631.97V542.92L285.04 543.38V636.39L304.8 656.15L323.77 637.19L322.97 536.66Z" fill="black"/>
<path d="M285.04 595.45V636.39L304.32 656.63L322.97 636.39V536.66H307.86L285.04 595.45Z" stroke="#0D2232" stroke-width="4" stroke-miterlimit="10" stroke-linecap="round" stroke-linejoin="round"/>
<path d="M304.91 145.08C304.91 145.08 298.93 150.43 272.51 152.63C246.08 154.83 60.1198 160.42 60.1198 160.42L48.6699 154.83C48.6699 154.83 22.3599 153.38 18.6299 145.08C14.8999 136.78 108.7 103.87 108.7 103.87L227.21 100.25L254.27 111.02L304.91 145.08Z" fill="#CFB300"/>
<path d="M304.91 145.08C304.91 145.08 298.93 150.43 272.51 152.63C246.08 154.83 60.1198 160.42 60.1198 160.42L48.6699 154.83C48.6699 154.83 22.3599 153.38 18.6299 145.08C14.8999 136.78 108.7 103.87 108.7 103.87L227.21 100.25L254.27 111.02L304.91 145.08Z" stroke="#0D2232" stroke-width="6" stroke-miterlimit="10" stroke-linecap="round" stroke-linejoin="round"/>
<path d="M49.7102 193.85C49.7102 193.85 19.5202 197.47 23.2902 232.39C27.0702 267.31 70.5502 260.02 70.5502 260.02L66.8102 209.89L49.7102 193.85Z" fill="#FBC6A6" stroke="#0D2232" stroke-width="6" stroke-miterlimit="10"/>
<path d="M281.31 193.85C281.31 193.85 304.28 197.63 306.01 223.11C307.74 248.59 279.4 271.1 257.23 262.2C235.06 253.3 251.42 215.24 251.42 215.24L281.31 193.85Z" fill="#FBC6A6" stroke="#0D2232" stroke-width="6" stroke-miterlimit="10"/>
<path opacity="0.4" d="M279.27 208.95C279.27 208.95 291.2 215.27 286.11 229.01C278.99 248.26 264.48 242.92 264.48 242.92L268.88 219.01L279.27 208.95Z" fill="black"/>
<path opacity="0.4" d="M45.3298 208.95C45.3298 208.95 33.3998 215.27 38.4898 229.01C45.6098 248.26 60.1198 242.92 60.1198 242.92L55.7198 219.01L45.3298 208.95Z" fill="black"/>
<path d="M267.69 197.62V226.29C267.69 226.29 267.43 231.26 265.61 238.95C261.53 256.19 249.62 287.11 215.25 306.47C210.36 309.22 205.44 311.51 200.51 313.37C186.19 318.78 171.85 320.61 158.18 319.85C128.73 318.21 102.47 304.54 86.58 288.85C60.78 263.37 59.21 224.53 59.21 224.53V170.25L89.73 133.44L246.48 135.33L265.8 157.98L267.69 197.62Z" fill="#FBC6A6"/>
<path opacity="0.5" d="M106.19 292.89C126.51 307.55 145.56 315.04 160.18 318.86C130.73 317.22 104.47 303.55 88.58 287.86C62.78 262.38 61.21 223.54 61.21 223.54V213.94L69.67 207.32C69.67 207.32 62.15 261.11 106.19 292.89Z" fill="white"/>
<path opacity="0.5" d="M262.6 238.95C258.52 256.19 246.61 287.11 212.24 306.47C207.35 309.22 202.43 311.51 197.5 313.37C214.99 299.74 243.46 274.61 252.19 249.63C255.16 241.18 258.78 238.31 262.6 238.95Z" fill="white"/>
<path d="M304.91 145.08C304.91 145.08 293.9 140.99 279.11 140.99C264.32 140.99 44.2699 140.99 44.2699 140.99C44.2699 140.99 24.2899 140.2 18.6299 145.08V131.4C18.6299 126.1 22.9299 121.8 28.2299 121.8H295.32C300.62 121.8 304.92 126.1 304.92 131.4V145.08H304.91Z" fill="#F9DC1B"/>
<path d="M289.68 121.8C289.68 121.91 289.68 121.96 289.68 121.96H161.64V121.8H33.5998C33.5998 121.8 33.5998 121.77 33.5998 121.72C33.5598 120.67 33.1498 110.23 33.5998 105.45C34.0698 100.41 38.1598 100.26 38.1598 100.26C38.1598 100.26 45.2398 37.5 116.65 16.74C116.65 16.74 116.02 4.14999 127.66 2.89999C139.3 1.63999 161.64 0.0700073 161.64 0.0700073V0.229996C161.64 0.229996 183.97 1.8 195.61 3.06C207.25 4.32 206.62 16.9 206.62 16.9C278.03 37.66 285.11 100.42 285.11 100.42C285.11 100.42 289.2 100.58 289.67 105.61C290.12 110.28 289.74 120.41 289.68 121.8Z" fill="#F9DC1B"/>
<path opacity="0.73" d="M289.68 121.8H278.8C278.8 121.8 273.29 57.62 206.76 25.53L206.72 18.27C206.72 18.27 154.55 1.93 116.53 19.55L117.01 29.94C117.01 29.94 57.9598 46.29 43.4898 121.48L33.5998 121.71C33.5598 120.66 33.1498 110.22 33.5998 105.44C34.0698 100.4 38.1598 100.25 38.1598 100.25C38.1598 100.25 45.2398 37.49 116.65 16.73C116.65 16.73 116.02 4.14 127.66 2.89C139.3 1.63 161.64 0.0599976 161.64 0.0599976V0.220001C161.64 0.220001 183.97 1.79 195.61 3.05C207.25 4.31 206.62 16.89 206.62 16.89C278.03 37.65 285.11 100.41 285.11 100.41C285.11 100.41 289.2 100.57 289.67 105.6C290.12 110.28 289.74 120.41 289.68 121.8Z" fill="white"/>
<path d="M289.68 105.6C289.21 100.57 285.12 100.41 285.12 100.41C285.12 100.41 278.04 37.65 206.63 16.89C206.63 16.89 207.26 4.31 195.62 3.05C183.98 1.79 161.64 0.220001 161.64 0.220001V0.0599976C161.64 0.0599976 139.3 1.63 127.66 2.89C116.02 4.15 116.65 16.73 116.65 16.73C45.24 37.49 38.16 100.25 38.16 100.25C38.16 100.25 34.07 100.41 33.6 105.44C33.13 110.47 33.6 121.8 33.6 121.8H161.64V121.96H289.68C289.68 121.96 290.15 110.64 289.68 105.6Z" stroke="#0D2232" stroke-width="6" stroke-miterlimit="10" stroke-linecap="round" stroke-linejoin="round"/>
<path d="M206 329.86H236.33V495.54H86.5801V329.86H206Z" fill="white"/>
<path d="M209.8 336.67H116.26V437.55H209.8V336.67Z" fill="#F9DC1B"/>
<path d="M236.33 458.73H86.5801V495.54H236.33V458.73Z" fill="#F9DC1B"/>
<path d="M187.77 317.8C187.77 317.8 158.39 324.09 138.37 317.8L131.45 348.74L149.7 355.55C149.7 355.55 161.77 360.58 176.45 355.55C191.13 350.52 195.75 335.84 195.75 335.84L187.77 317.8Z" fill="#FBC6A6" stroke="#0D2232" stroke-width="6" stroke-miterlimit="10"/>
<path d="M206.82 351.83C206.03 363.68 204.13 374.64 204.13 374.64L176.44 355.55C176.44 355.55 179.61 348.04 182.22 340.6C183.74 336.25 185.08 331.91 185.46 329.12C186.51 321.57 187.77 317.8 187.77 317.8C187.77 317.8 203.92 316.96 206.43 331.85C207.38 337.41 207.3 344.77 206.82 351.83Z" fill="#435F84"/>
<path d="M206.82 351.83C199.69 351.3 191.39 347.75 187.11 344.71C185.39 343.48 183.71 342.12 182.22 340.6C183.74 336.25 185.08 331.91 185.46 329.12C186.51 321.57 187.77 317.8 187.77 317.8C187.77 317.8 203.92 316.96 206.43 331.85C207.38 337.41 207.3 344.77 206.82 351.83Z" fill="#253B5A"/>
<path d="M187.77 317.8C187.77 317.8 203.92 316.96 206.44 331.85C208.96 346.74 204.13 374.63 204.13 374.63L176.45 355.54C176.45 355.54 184.42 336.66 185.47 329.11C186.52 321.56 187.77 317.8 187.77 317.8Z" stroke="#0D2232" stroke-width="6" stroke-miterlimit="10"/>
<path d="M119.33 351.83C120.12 363.68 122.02 374.64 122.02 374.64L149.71 355.55C149.71 355.55 146.54 348.04 143.93 340.6C142.41 336.25 141.07 331.91 140.69 329.12C139.64 321.57 138.38 317.8 138.38 317.8C138.38 317.8 122.23 316.96 119.72 331.85C118.77 337.41 118.85 344.77 119.33 351.83Z" fill="#435F84"/>
<path d="M119.33 351.83C126.46 351.3 134.76 347.75 139.04 344.71C140.76 343.48 142.44 342.12 143.93 340.6C142.41 336.25 141.07 331.91 140.69 329.12C139.64 321.57 138.38 317.8 138.38 317.8C138.38 317.8 122.23 316.96 119.72 331.85C118.77 337.41 118.85 344.77 119.33 351.83Z" fill="#253B5A"/>
<path d="M138.37 317.8C138.37 317.8 122.22 316.96 119.7 331.85C117.18 346.74 122.01 374.63 122.01 374.63L149.69 355.54C149.69 355.54 141.72 336.66 140.67 329.11C139.62 321.56 138.37 317.8 138.37 317.8Z" stroke="#0D2232" stroke-width="6" stroke-miterlimit="10"/>
<path d="M141.21 389.31H102.2V424.96H141.21V389.31Z" fill="#F9DC1B" stroke="#0D2232" stroke-width="6" stroke-miterlimit="10"/>
<path d="M141.21 403.37H102.2" stroke="#0D2232" stroke-width="6" stroke-miterlimit="10"/>
<path d="M206.62 16.89C206.62 16.89 207.72 27.43 203.47 48.98L206.62 16.89Z" fill="#F9DC1B"/>
<path d="M206.62 16.89C206.62 16.89 207.72 27.43 203.47 48.98" stroke="#0D2232" stroke-width="6" stroke-miterlimit="10" stroke-linecap="round" stroke-linejoin="round"/>
<path d="M285.11 100.41H252.68C249.25 100.41 246.47 103.19 246.47 106.62V121.96" stroke="#0D2232" stroke-width="6" stroke-miterlimit="10" stroke-linecap="round" stroke-linejoin="round"/>
<path d="M116.65 16.73C116.65 16.73 115.55 27.27 119.8 48.82L116.65 16.73Z" fill="#F9DC1B"/>
<path d="M116.65 16.73C116.65 16.73 115.55 27.27 119.8 48.82" stroke="#0D2232" stroke-width="6" stroke-miterlimit="10" stroke-linecap="round" stroke-linejoin="round"/>
<path d="M38.1602 100.25H70.5901C74.0201 100.25 76.8001 103.03 76.8001 106.46V121.8" stroke="#0D2232" stroke-width="6" stroke-miterlimit="10" stroke-linecap="round" stroke-linejoin="round"/>
<path opacity="0.74" d="M291.53 131.19C285.07 128.73 277.97 128.78 271.07 128.85C220.62 129.39 170.17 129.92 119.72 130.46C97.2999 130.7 74.8899 130.94 52.4699 131.18C42.5199 131.29 31.3599 131.91 24.6599 139.25C23.3399 140.7 22.0499 142.48 20.1099 142.77C17.1499 143.22 14.9599 139.78 14.8999 136.79C14.7799 131.18 19.0999 126.23 24.1999 123.87C29.2999 121.52 35.0799 121.24 40.6899 121.05C123.79 118.22 207.13 126.29 290.05 120.16C294.84 119.81 300.5 119.78 303.37 123.64C304.95 125.77 305.21 128.58 305.42 131.23C305.62 133.9 307.8 143.86 302.43 140.05C300.69 138.82 299.49 136.13 297.69 134.69C295.85 133.22 293.74 131.96 291.53 131.19Z" fill="white"/>
<path d="M304.91 145.08C304.91 145.08 293.9 140.99 279.11 140.99C264.32 140.99 44.2699 140.99 44.2699 140.99C44.2699 140.99 24.2899 140.2 18.6299 145.08V131.4C18.6299 126.1 22.9299 121.8 28.2299 121.8H295.32C300.62 121.8 304.92 126.1 304.92 131.4V145.08H304.91Z" stroke="#0D2232" stroke-width="6" stroke-miterlimit="10" stroke-linecap="round" stroke-linejoin="round"/>
<path d="M67.6298 175.08C67.6298 175.08 67.0898 204.07 67.6298 212.41C68.1698 220.75 62.5098 228.3 53.8598 222.48C45.2098 216.66 46.8898 182.06 46.8898 182.06C46.8898 182.06 55.8698 182.47 67.6298 175.08Z" fill="#253B5A" stroke="#0D2232" stroke-width="6" stroke-miterlimit="10"/>
<path d="M115.08 221.47C123.939 221.47 131.12 214.289 131.12 205.43C131.12 196.571 123.939 189.39 115.08 189.39C106.221 189.39 99.04 196.571 99.04 205.43C99.04 214.289 106.221 221.47 115.08 221.47Z" fill="#0D2232"/>
<path d="M209.9 231.89C218.759 231.89 225.94 224.709 225.94 215.85C225.94 206.991 218.759 199.81 209.9 199.81C201.041 199.81 193.86 206.991 193.86 215.85C193.86 224.709 201.041 231.89 209.9 231.89Z" fill="#0D2232"/>
<path d="M236.33 495.54H86.5801V529.41H236.33V495.54Z" fill="#253B5A" stroke="#0D2232" stroke-width="6" stroke-miterlimit="10"/>
<path d="M187.15 495.54H139.75V529.41H187.15V495.54Z" fill="#C3CDD4" stroke="#0D2232" stroke-width="6" stroke-miterlimit="10"/>
<path d="M305.14 706H308.5C310.12 706 311.44 707.31 311.44 708.94V717.59C311.44 719.99 309.49 721.94 307.09 721.94H230.7L215.08 711.45V721.94H176.33C173.93 721.94 171.98 719.99 171.98 717.59V701.13C171.98 698.84 173.84 696.98 176.13 696.99H177.57L279.2 696.1L305.14 706Z" fill="#484D60" stroke="#0D2232" stroke-width="6" stroke-miterlimit="10" stroke-linecap="round" stroke-linejoin="round"/>
<path d="M306.72 702.23L305.15 706H235.15L217.06 696.98H177.56C177.56 696.98 175.75 688.28 177.27 677.5C178.21 670.81 180.44 663.32 185.18 656.61H245.37L250.09 661.65C250.09 661.65 258.58 661.96 259.21 669.83C259.21 669.83 260.7 669.08 263.27 668.26C268.34 666.64 277.6 664.71 287.84 667.63C303.26 672.03 310.49 691.85 306.72 702.23Z" fill="#E89F02"/>
<path d="M200.7 696.99H177.56C177.56 696.99 175.75 688.29 177.27 677.51C177.36 677.5 177.46 677.5 177.56 677.49C200.66 676.33 200.7 696.99 200.7 696.99Z" fill="#834526"/>
<path opacity="0.75" d="M306.72 702.23L305.15 706H295.08C295.08 706 304.04 673.71 263.28 668.25C268.35 666.63 277.61 664.7 287.85 667.62C303.26 672.03 310.49 691.85 306.72 702.23Z" fill="white"/>
<path d="M245.37 656.61L250.09 661.64C250.09 661.64 258.58 661.95 259.21 669.82C259.21 669.82 272.42 663.21 287.84 667.62C303.26 672.02 310.49 691.84 306.72 702.23L305.15 706.01H235.15L217.06 696.99H177.56C177.56 696.99 172.81 674.13 185.18 656.62H245.37V656.61Z" stroke="#0D2232" stroke-width="6" stroke-miterlimit="10" stroke-linecap="round" stroke-linejoin="round"/>
<path d="M259.21 669.83C259.21 669.83 238.97 676.44 235.14 706.01" stroke="#0D2232" stroke-width="6" stroke-miterlimit="10" stroke-linecap="round" stroke-linejoin="round"/>
<path d="M250.09 661.65C250.09 661.65 235.93 664.48 230.69 677.48" stroke="#0D2232" stroke-width="6" stroke-miterlimit="10" stroke-linecap="round" stroke-linejoin="round"/>
<path d="M250.09 635.12H176.66V656.62H250.09V635.12Z" fill="#435F84" stroke="#0D2232" stroke-width="6" stroke-miterlimit="10" stroke-linecap="round" stroke-linejoin="round"/>
<path d="M243.48 635.12L234.99 529.41H162.11V549.97L171.97 549.34L182.45 635.12H243.48Z" fill="#435F84" stroke="#0D2232" stroke-width="6" stroke-miterlimit="10" stroke-linecap="round" stroke-linejoin="round"/>
<path d="M19.07 706H15.71C14.09 706 12.77 707.31 12.77 708.94V717.59C12.77 719.99 14.72 721.94 17.12 721.94H93.51L109.13 711.45V721.94H147.88C150.28 721.94 152.23 719.99 152.23 717.59V701.13C152.23 698.84 150.37 696.98 148.08 696.99H146.64L45.01 696.1L19.07 706Z" fill="#484D60" stroke="#0D2232" stroke-width="6" stroke-miterlimit="10" stroke-linecap="round" stroke-linejoin="round"/>
<path d="M17.5 702.23L19.07 706H89.07L107.16 696.98H146.66C146.66 696.98 148.47 688.28 146.95 677.5C146.01 670.81 143.78 663.32 139.04 656.61H78.85L74.13 661.65C74.13 661.65 65.64 661.96 65.01 669.83C65.01 669.83 63.52 669.08 60.95 668.26C55.88 666.64 46.62 664.71 36.38 667.63C20.96 672.03 13.72 691.85 17.5 702.23Z" fill="#E89F02"/>
<path d="M123.52 696.99H146.66C146.66 696.99 148.47 688.29 146.95 677.51C146.86 677.5 146.76 677.5 146.66 677.49C123.56 676.33 123.52 696.99 123.52 696.99Z" fill="#834526"/>
<path opacity="0.75" d="M17.5 702.23L19.07 706H29.14C29.14 706 20.18 673.71 60.94 668.25C55.87 666.63 46.61 664.7 36.37 667.62C20.96 672.03 13.72 691.85 17.5 702.23Z" fill="white"/>
<path d="M78.8498 656.61L74.1298 661.64C74.1298 661.64 65.6398 661.95 65.0098 669.82C65.0098 669.82 51.7998 663.21 36.3798 667.62C20.9598 672.02 13.7298 691.84 17.4998 702.23L19.0698 706.01H89.0698L107.16 696.99H146.66C146.66 696.99 151.41 674.13 139.04 656.62H78.8498V656.61Z" stroke="#0D2232" stroke-width="6" stroke-miterlimit="10" stroke-linecap="round" stroke-linejoin="round"/>
<path d="M65 669.83C65 669.83 85.24 676.44 89.07 706.01" stroke="#0D2232" stroke-width="6" stroke-miterlimit="10" stroke-linecap="round" stroke-linejoin="round"/>
<path d="M74.1299 661.65C74.1299 661.65 88.2899 664.48 93.5299 677.48" stroke="#0D2232" stroke-width="6" stroke-miterlimit="10" stroke-linecap="round" stroke-linejoin="round"/>
<path d="M80.73 635.12L89.23 529.41H162.11V549.97L152.25 549.34L141.76 635.12H80.73Z" fill="#435F84" stroke="#0D2232" stroke-width="6" stroke-miterlimit="10" stroke-linecap="round" stroke-linejoin="round"/>
<g opacity="0.16">
<path d="M66.5001 140.99H267.69L272.5 152.63H60.1201L66.5001 140.99Z" fill="black"/>
<path d="M46.8901 182.06C46.8901 182.06 82.5101 190.84 118.16 152.64L86.5801 147.85L46.8901 182.06Z" fill="black"/>
<path d="M134.08 179.37C134.08 179.37 187.23 188.19 221.3 146.81L191.8 147.84L134.08 179.37Z" fill="black"/>
</g>
<path opacity="0.16" d="M264.48 205.43C264.48 205.43 247.18 302.81 143.92 315.33C143.92 315.33 252.05 330.69 265.42 226.24L264.48 205.43Z" fill="black"/>
<path d="M230.3 477.14H92.4902V489.43H230.3V477.14Z" fill="#E89F02"/>
<path d="M206.42 329.86H236.85V495.54H86.5801V329.86H116.36" stroke="#0D2232" stroke-width="6" stroke-miterlimit="10"/>
<path d="M99.4798 140.99C99.4798 140.99 72.4198 187.24 40.3298 181.57C37.4198 181.05 34.7998 180.47 32.4698 179.85C9.11979 173.57 13.2798 162.44 13.2798 162.44C13.2798 162.44 32.7998 167.8 46.3098 142.81C46.6298 142.22 46.9398 141.62 47.2498 141H99.4798V140.99Z" fill="#253B5A"/>
<path opacity="0.21" d="M38.1598 164.9C29.1698 170.4 25.5498 170.25 25.5498 170.25C25.5498 170.25 24.4498 174.82 32.4698 179.85C9.11979 173.57 13.2798 162.44 13.2798 162.44C13.2798 162.44 35.1598 165.98 48.6698 140.99C48.6898 141.33 47.0498 159.46 38.1598 164.9Z" fill="white"/>
<path d="M311.83 166.79C311.83 166.79 298.47 187.52 275.16 182.81C261.81 180.11 245.19 169.06 225.94 141L283.5 141.12C283.5 141.12 283.68 144.01 284.9 147.85C287.36 155.52 294 167 311.83 166.79Z" fill="#253B5A"/>
<path opacity="0.21" d="M311.83 166.79C311.83 166.79 298.47 187.52 275.16 182.81C277.82 182.05 280.4 180.96 282.87 179.73C287.85 177.24 292.51 174.15 297.46 171.6C291.96 171.34 287.06 167.28 284.9 162.21C283.38 158.63 282.32 152.66 284.06 148.97C284.29 148.48 284.59 148.11 284.92 147.86C287.36 155.52 294 167 311.83 166.79Z" fill="white"/>
<path d="M283.51 141.11C283.51 141.11 285.09 167.1 311.83 166.79C311.83 166.79 278.8 218.07 225.95 140.99L283.51 141.11Z" stroke="#0D2232" stroke-width="6" stroke-miterlimit="10" stroke-linecap="round" stroke-linejoin="round"/>
<path d="M199.2 140.99C199.2 140.99 186.93 174.34 134.08 179.37C134.08 179.37 143.2 163.01 143.2 140.99H199.2Z" fill="#253B5A" stroke="#0D2232" stroke-width="6" stroke-miterlimit="10" stroke-linecap="round" stroke-linejoin="round"/>
<path d="M99.4799 140.99C99.4799 140.99 72.4199 187.24 40.3399 181.57C8.25986 175.9 13.2799 162.43 13.2799 162.43C13.2799 162.43 33.7299 168.04 47.2599 140.98H99.4799V140.99Z" stroke="#0D2232" stroke-width="6" stroke-miterlimit="10" stroke-linecap="round" stroke-linejoin="round"/>
<path d="M267.69 226.29C267.69 226.29 264.96 278.47 215.25 306.47C165.54 334.47 112.38 314.33 86.58 288.85C60.78 263.37 59.21 224.53 59.21 224.53" stroke="#0D2232" stroke-width="6" stroke-miterlimit="10"/>
<path d="M281.31 183.5C281.31 183.5 280.84 210.21 279.74 215.4C278.64 220.59 274.08 227.04 265.43 226.25C256.78 225.46 257.09 214.3 256.94 206.43C256.78 198.57 256.94 174.54 256.94 174.54C256.94 174.54 268.73 183.85 281.31 183.5Z" fill="#253B5A" stroke="#0D2232" stroke-width="6" stroke-miterlimit="10" stroke-linecap="round" stroke-linejoin="round"/>
<path d="M179.95 529.41L202.8 656.61H185.18H176.66V635.12H182.45L171.97 546L162.11 549.97V529.41H179.95Z" fill="#253B5A"/>
<path d="M125.95 635.12L121.71 656.61H147.56V635.12H141.76L152.25 546L162.11 549.97V529.41H139.75L125.95 635.12Z" fill="#253B5A"/>
<path d="M171.97 549.34L184.34 547.87" stroke="#0D2232" stroke-width="6" stroke-miterlimit="10" stroke-linecap="round" stroke-linejoin="round"/>
<path d="M152.25 549.34L139.88 547.87" stroke="#0D2232" stroke-width="6" stroke-miterlimit="10" stroke-linecap="round" stroke-linejoin="round"/>
<path d="M234.99 529.41H221.52L230.69 635.12H236.85V656.61H250.09V635.12H243.48L234.99 529.41Z" fill="#C3CDD4"/>
<path d="M89.89 529.41H103.35L94.19 635.12H88.02V656.61H74.79V635.12H81.39L89.89 529.41Z" fill="#C3CDD4"/>
<path d="M250.09 635.12H176.66V656.62H250.09V635.12Z" stroke="#0D2232" stroke-width="6" stroke-miterlimit="10" stroke-linecap="round" stroke-linejoin="round"/>
<path d="M243.48 635.12L234.99 529.41H162.11V549.97L171.97 549.34L182.45 635.12H243.48Z" stroke="#0D2232" stroke-width="6" stroke-miterlimit="10" stroke-linecap="round" stroke-linejoin="round"/>
<path d="M80.73 635.12L89.23 529.41H162.11V549.97L152.25 549.34L141.76 635.12H80.73Z" stroke="#0D2232" stroke-width="6" stroke-miterlimit="10" stroke-linecap="round" stroke-linejoin="round"/>
<path d="M312.97 542.09H295.77V607.23H312.97V542.09Z" fill="#E89F02"/>
<path d="M402.41 521.34V531.68C402.41 534.43 400.17 536.66 397.42 536.66H318.95C316.2 536.66 313.97 534.43 313.97 531.68V521.34C313.97 520.74 314.08 520.16 314.27 519.63C314.96 517.72 316.8 516.35 318.95 516.35H397.42C399.57 516.35 401.41 517.72 402.11 519.63C402.3 520.16 402.41 520.74 402.41 521.34Z" fill="#AFCADC"/>
<path opacity="0.2" d="M313.97 530.58V531.68C313.97 534.43 316.2 536.67 318.95 536.67H397.42C400.17 536.67 402.4 534.44 402.4 531.68V530.58H313.97Z" fill="black"/>
<path opacity="0.7" d="M402.109 519.63H314.27C314.96 517.72 316.8 516.35 318.95 516.35H397.419C399.579 516.35 401.41 517.71 402.109 519.63Z" fill="white"/>
<path d="M402.41 521.34V531.68C402.41 534.43 400.17 536.66 397.42 536.66H318.95C316.2 536.66 313.97 534.43 313.97 531.68V521.34C313.97 520.74 314.08 520.16 314.27 519.63C314.96 517.72 316.8 516.35 318.95 516.35H397.42C399.57 516.35 401.41 517.72 402.11 519.63C402.3 520.16 402.41 520.74 402.41 521.34Z" stroke="#0D2232" stroke-width="4" stroke-miterlimit="10" stroke-linecap="round" stroke-linejoin="round"/>
<path d="M228.47 535.02C228.47 535.02 249.68 551.73 313.97 545.31" stroke="white" stroke-miterlimit="10"/>
<path d="M210.47 495.16V583.88L222.04 595.45H301.11L290.5 587.09L291.14 495.16H210.47Z" fill="#F9DC1B"/>
<path d="M220.11 495.16V578.32L226.86 587.09H307.86L301.11 595.45H222.04L210.47 583.88V495.16H220.11Z" fill="#E89F02"/>
<path d="M222.68 507.52H217.54V512.66H222.68V507.52Z" fill="white"/>
<path d="M222.68 523.93H217.54V529.07H222.68V523.93Z" fill="white"/>
<path d="M222.68 540.35H217.54V545.49H222.68V540.35Z" fill="white"/>
<path d="M222.68 556.76H217.54V561.9H222.68V556.76Z" fill="white"/>
<path d="M222.68 573.17H217.54V578.31H222.68V573.17Z" fill="white"/>
<path d="M291.14 530.2V495.16H210.47V583.88L222.04 595.45H294.04" stroke="#0D2232" stroke-width="4" stroke-miterlimit="10" stroke-linecap="round" stroke-linejoin="round"/>
<path d="M74.1232 656.609L147.553 656.609L147.553 635.109L74.1232 635.109L74.1232 656.609Z" stroke="#0D2232" stroke-width="6" stroke-miterlimit="10" stroke-linecap="round" stroke-linejoin="round"/>
<path d="M303.36 373.55C303.36 373.55 331 389.62 325.22 410.84C319.44 432.06 278.29 460.34 278.29 460.34C278.29 460.34 276.36 436.55 247.43 431.41L265.43 413.41L303.36 373.55Z" fill="#FBC6A6"/>
<path d="M247.43 431.4L238.43 436.86V492.79H278.93L278.29 460.33C278.29 460.33 275.72 435.9 247.43 431.4Z" fill="#FBC6A6"/>
<path opacity="0.16" d="M299.31 377.81C299.31 377.81 324.79 390.25 319.14 410.97C313.49 431.7 277.84 453.72 277.84 453.72" stroke="black" stroke-width="6" stroke-miterlimit="10"/>
<path opacity="0.16" d="M274.93 492.8L274.29 447.75" stroke="black" stroke-width="6" stroke-miterlimit="10"/>
<path opacity="0.5" d="M253.6 431.97L308.74 375.05" stroke="white" stroke-width="6" stroke-miterlimit="10"/>
<path opacity="0.5" d="M243.6 433.12V494.36" stroke="white" stroke-width="6" stroke-miterlimit="10"/>
<path d="M303.36 373.55C303.36 373.55 331 389.62 325.22 410.84C319.44 432.06 278.29 460.34 278.29 460.34C278.29 460.34 276.36 436.55 247.43 431.41L265.43 413.41L303.36 373.55Z" stroke="#0D2232" stroke-width="6" stroke-miterlimit="10" stroke-linecap="round" stroke-linejoin="round"/>
<path d="M247.43 431.4L238.43 436.86V492.79H278.93L278.29 460.33C278.29 460.33 275.72 435.9 247.43 431.4Z" stroke="#0D2232" stroke-width="6" stroke-miterlimit="10" stroke-linecap="round" stroke-linejoin="round"/>
<path d="M249.12 415.11L274.71 426.85L297.66 378.32L303.86 365.19L279.33 353.03L272.56 366.92L249.12 415.11Z" fill="#435F84"/>
<path opacity="0.21" d="M272.56 366.92L272.6 366.96L297.66 378.32L303.86 365.19L279.33 353.03L272.56 366.92Z" fill="white"/>
<path d="M236.85 336.67V403.37L251.43 410.92L272.6 366.96L277.02 357.78L236.85 336.67Z" fill="#F9DC1B"/>
<path opacity="0.5" d="M236.85 336.67V348.62L272.6 366.96L277.02 357.78L236.85 336.67Z" fill="white"/>
<path d="M260.05 393.02L236.85 383.65V403.37L251.43 410.92L260.05 393.02Z" fill="#E89F02"/>
<path d="M279.33 353.03L249.12 415.11L274.71 426.86L303.86 365.19L279.33 353.03Z" stroke="#0D2232" stroke-width="6" stroke-miterlimit="10" stroke-linecap="round" stroke-linejoin="round"/>
<path d="M236.85 336.67L277.02 357.78L251.43 410.92L236.85 403.37V336.67Z" stroke="#0D2232" stroke-width="6" stroke-miterlimit="10"/>
<path d="M240.03 450.67V467.93C240.03 469.27 238.94 470.36 237.61 470.36H228.24C226.9 470.36 225.81 469.27 225.81 467.93V450.67C225.81 449.33 226.9 448.25 228.24 448.25H237.61C238.94 448.24 240.03 449.33 240.03 450.67Z" fill="#AFCADC"/>
<path d="M237.6 470.53H228.23C226.8 470.53 225.63 469.37 225.63 467.93V450.67C225.63 449.24 226.79 448.08 228.23 448.08H237.6C239.03 448.08 240.19 449.24 240.19 450.67V467.93C240.2 469.36 239.03 470.53 237.6 470.53ZM228.24 448.41C227 448.41 225.98 449.42 225.98 450.66V467.92C225.98 469.16 226.99 470.18 228.24 470.18H237.61C238.85 470.18 239.86 469.17 239.86 467.92V450.66C239.86 449.42 238.85 448.41 237.61 448.41H228.24Z" fill="#000072"/>
<g opacity="0.2">
<path d="M240.03 464.1V467.93C240.03 469.27 238.94 470.36 237.61 470.36H228.24C226.9 470.36 225.81 469.27 225.81 467.93V464.1C225.81 465.44 226.9 466.53 228.24 466.53H237.61C238.94 466.52 240.03 465.44 240.03 464.1Z" fill="black"/>
</g>
<g opacity="0.55">
<path d="M240.03 450.67V453.38C240.03 452.04 238.94 450.96 237.61 450.96H228.24C226.9 450.96 225.81 452.05 225.81 453.38V450.67C225.81 449.33 226.9 448.25 228.24 448.25H237.61C238.94 448.24 240.03 449.33 240.03 450.67Z" fill="white"/>
</g>
<path d="M250.48 465.7H240.03V453.43H248.9L250.48 465.7Z" fill="#AFCADC"/>
<path d="M250.67 465.87H239.86V453.26H249.05L250.67 465.87ZM240.2 465.53H250.29L248.75 453.6H240.2V465.53Z" fill="#000072"/>
<path d="M299.64 463.89C299.49 465.64 297.43 466.51 296.1 465.36C288.63 458.94 277.59 462.56 275.34 471.72C274.96 473.25 273.62 474.33 272.05 474.33H254.58C252.88 474.33 251.44 473.07 251.23 471.38L250.5 465.7L248.92 453.43L248.39 449.29C248.13 447.27 249.71 445.47 251.75 445.47H280.4C291.99 445.48 300.41 454.43 299.64 463.89Z" fill="#AFCADC"/>
<path d="M272.04 474.5H254.57C252.79 474.5 251.27 473.17 251.05 471.4L248.2 449.31C248.07 448.3 248.38 447.28 249.06 446.51C249.73 445.74 250.71 445.3 251.73 445.3H280.38C286.21 445.3 291.68 447.61 295.39 451.63C298.61 455.13 300.19 459.48 299.82 463.89C299.75 464.77 299.19 465.53 298.38 465.86C297.56 466.2 296.67 466.05 296 465.47C292.53 462.49 287.96 461.52 283.75 462.86C279.63 464.18 276.55 467.5 275.51 471.74C275.1 473.38 273.68 474.5 272.04 474.5ZM251.72 445.65C250.8 445.65 249.92 446.05 249.31 446.74C248.7 447.43 248.42 448.36 248.54 449.27L251.39 471.36C251.6 472.96 252.97 474.16 254.58 474.16H272.05C273.53 474.16 274.82 473.14 275.18 471.68C276.25 467.32 279.41 463.91 283.64 462.55C287.96 461.17 292.66 462.17 296.21 465.22C296.78 465.71 297.54 465.84 298.24 465.55C298.95 465.26 299.41 464.63 299.47 463.87C299.82 459.55 298.28 455.29 295.12 451.87C291.48 447.92 286.1 445.65 280.36 445.65H251.72Z" fill="#000072"/>
<g opacity="0.2">
<path d="M299.64 463.89C299.49 465.64 297.43 466.51 296.1 465.36C288.63 458.94 277.59 462.56 275.34 471.72C274.96 473.25 273.62 474.33 272.05 474.33H254.58C252.88 474.33 251.44 473.07 251.23 471.38L251.05 470.02C251.5 470.24 251.99 470.36 252.52 470.36H269.99C271.56 470.36 272.91 469.27 273.28 467.75C275.53 458.59 286.57 454.96 294.04 461.39C295.37 462.54 297.43 461.67 297.58 459.92C297.76 457.76 297.45 455.62 296.74 453.61C298.85 456.63 299.94 460.22 299.64 463.89Z" fill="black"/>
</g>
<g opacity="0.55">
<path d="M295.56 452.11C292.22 449.46 287.8 447.79 282.79 447.79H254.14C252.1 447.79 250.52 449.58 250.78 451.61L251.31 455.75L252.89 468.02L253.62 473.7C253.64 473.89 253.68 474.07 253.74 474.24C252.41 473.92 251.38 472.8 251.19 471.39L250.46 465.71L248.88 453.44L248.35 449.3C248.09 447.28 249.67 445.48 251.71 445.48H280.36C286.71 445.48 292.1 448.15 295.56 452.11Z" fill="white"/>
</g>
<g opacity="0.55">
<path d="M240.03 453.38H226.38V457.16H240.03V453.38Z" fill="white"/>
</g>
<path d="M271.73 474.33H255.65V515.37H271.73V474.33Z" fill="#435F84" stroke="#0D2232" stroke-width="4" stroke-miterlimit="10" stroke-linecap="round" stroke-linejoin="round"/>
<g opacity="0.2">
<path d="M255.7 481.54C256.17 481.55 256.59 481.72 256.98 481.93C257.37 482.14 257.73 482.41 258.07 482.7C258.75 483.27 259.37 483.91 259.88 484.65C260.9 486.11 261.48 487.76 262.5 489.05C263 489.69 263.63 490.21 264.35 490.6C265.07 490.98 265.87 491.24 266.68 491.41C267.5 491.58 268.34 491.68 269.19 491.76C269.61 491.8 270.04 491.83 270.47 491.84C270.9 491.87 271.34 491.93 271.74 492.21C271.8 492.25 271.81 492.33 271.77 492.39C271.76 492.41 271.74 492.42 271.72 492.43H271.71C271.25 492.63 270.84 492.59 270.41 492.56C269.99 492.5 269.56 492.47 269.13 492.43C268.27 492.35 267.4 492.25 266.54 492.07C265.68 491.89 264.82 491.62 264.03 491.2C263.24 490.78 262.52 490.18 261.96 489.47C260.84 488.05 260.27 486.39 259.31 485.04C258.83 484.37 258.27 483.75 257.61 483.25C257.28 483 256.94 482.77 256.59 482.54C256.25 482.31 255.9 482.08 255.59 481.75C255.54 481.7 255.54 481.63 255.59 481.58C255.64 481.55 255.67 481.53 255.7 481.54Z" fill="#371A45"/>
<path d="M271.75 489C270.87 489.48 269.84 489.5 268.87 489.36C267.9 489.22 266.94 488.98 266.06 488.53C265.61 488.32 265.2 488.04 264.81 487.74C264.43 487.42 264.06 487.08 263.77 486.67C263.14 485.88 262.81 484.89 262.62 483.95C262.43 483 262.34 482.07 262.08 481.21C261.95 480.78 261.78 480.38 261.54 480.01C261.43 479.82 261.29 479.65 261.16 479.48C261.01 479.32 260.87 479.15 260.7 479.01C260.05 478.41 259.23 478 258.37 477.79C257.94 477.68 257.49 477.64 257.06 477.67C256.62 477.7 256.21 477.77 255.71 477.7H255.7C255.68 477.7 255.65 477.69 255.62 477.68L255.6 477.67C255.53 477.65 255.49 477.59 255.51 477.52C255.52 477.5 255.53 477.48 255.54 477.46C255.57 477.43 255.59 477.41 255.62 477.39H255.61C256.01 477.05 256.54 476.94 257.04 476.94C257.54 476.96 258.04 476.99 258.53 477.12C259.5 477.35 260.42 477.82 261.16 478.49C261.91 479.14 262.47 480.06 262.74 481C263.02 481.95 263.11 482.9 263.29 483.8C263.47 484.7 263.76 485.55 264.31 486.24C264.57 486.6 264.9 486.9 265.24 487.19C265.6 487.46 265.97 487.71 266.38 487.9C267.18 488.3 268.07 488.55 268.97 488.64C269.19 488.67 269.42 488.66 269.65 488.68C269.88 488.67 270.1 488.69 270.33 488.68C270.78 488.69 271.23 488.64 271.73 488.75H271.74C271.8 488.76 271.84 488.83 271.83 488.89C271.8 488.96 271.78 488.98 271.75 489Z" fill="#371A45"/>
<path d="M271.76 484.31C271.5 484.56 271.18 484.67 270.85 484.72C270.69 484.75 270.52 484.76 270.35 484.75C270.18 484.74 270.02 484.72 269.86 484.71C269.21 484.62 268.57 484.45 267.98 484.17C266.8 483.62 265.78 482.74 265.07 481.66C264.35 480.58 263.94 479.32 263.79 478.05C263.72 477.41 263.71 476.77 263.76 476.14C263.78 475.82 263.83 475.51 263.86 475.19C263.89 474.87 263.96 474.56 264.2 474.29V474.31C264.24 474.27 264.27 474.22 264.32 474.19C264.39 474.14 264.48 474.16 264.53 474.22L264.54 474.23V474.24C264.57 474.29 264.58 474.33 264.6 474.37V474.39C264.69 474.72 264.63 475.01 264.56 475.3C264.49 475.59 264.46 475.89 264.44 476.19C264.39 476.79 264.4 477.38 264.47 477.98C264.6 479.16 264.99 480.31 265.64 481.29C266.29 482.27 267.21 483.07 268.27 483.56C268.8 483.8 269.36 483.98 269.94 484.01C270.23 484.02 270.51 484.03 270.8 484.02C271.09 484.02 271.37 484.01 271.71 484.09C271.78 484.11 271.82 484.18 271.8 484.25C271.79 484.27 271.78 484.29 271.76 484.31Z" fill="#371A45"/>
<path d="M267.68 474.39C267.73 474.65 267.67 474.85 267.6 475.04C267.53 475.23 267.44 475.4 267.36 475.58C267.2 475.94 267.1 476.31 267.04 476.69C266.94 477.43 267.09 478.22 267.51 478.81C267.72 479.1 268 479.33 268.32 479.47C268.64 479.61 269.01 479.67 269.38 479.65C269.75 479.64 270.13 479.56 270.49 479.44C270.67 479.39 270.85 479.28 271.02 479.18C271.2 479.09 271.38 479.02 271.67 479.14H271.68C271.76 479.17 271.8 479.25 271.78 479.33C271.71 479.63 271.51 479.74 271.32 479.83C271.22 479.87 271.12 479.9 271.02 479.95C270.92 480 270.82 480.04 270.72 480.07C270.3 480.21 269.86 480.31 269.41 480.32C268.96 480.34 268.49 480.27 268.05 480.08C267.62 479.89 267.23 479.57 266.96 479.19C266.42 478.42 266.25 477.47 266.37 476.58C266.43 476.14 266.57 475.71 266.71 475.3C266.78 475.09 266.86 474.89 266.98 474.71C267.09 474.53 267.24 474.36 267.49 474.27C267.57 474.24 267.65 474.28 267.68 474.36C267.68 474.37 267.68 474.38 267.68 474.39Z" fill="#371A45"/>
<path d="M255.68 487.44C256.23 487.37 256.79 487.55 257.25 487.83C257.72 488.1 258.13 488.47 258.49 488.86C259.21 489.65 259.79 490.52 260.34 491.37C260.89 492.22 261.45 493.06 262.14 493.74C262.83 494.42 263.69 494.91 264.59 495.36C265.49 495.81 266.45 496.23 267.32 496.86C268.18 497.49 268.91 498.28 269.49 499.16C270.08 500.03 270.53 500.97 270.93 501.92C271.13 502.4 271.32 502.87 271.52 503.34C271.71 503.82 271.88 504.3 271.83 504.86C271.82 504.93 271.76 504.98 271.7 504.97C271.67 504.97 271.64 504.95 271.62 504.94C271.21 504.55 271.02 504.07 270.84 503.6C270.68 503.12 270.49 502.65 270.3 502.18C269.91 501.25 269.47 500.35 268.92 499.53C268.38 498.7 267.7 497.98 266.92 497.4C266.13 496.83 265.21 496.42 264.29 495.96C263.37 495.51 262.43 494.98 261.66 494.22C260.9 493.47 260.32 492.59 259.76 491.74C259.2 490.89 258.67 490.04 257.98 489.34C257.63 489 257.26 488.69 256.87 488.42C256.48 488.14 256.08 487.93 255.63 487.66C255.57 487.63 255.55 487.55 255.59 487.5C255.61 487.47 255.64 487.45 255.68 487.44Z" fill="#371A45"/>
<path d="M267.52 494.25C267.7 494.15 267.83 494.17 267.94 494.21C268.05 494.25 268.14 494.32 268.24 494.39C268.43 494.53 268.63 494.64 268.82 494.77C269.2 495.03 269.58 495.3 269.94 495.58C270.3 495.86 270.66 496.16 271 496.47C271.17 496.63 271.34 496.79 271.5 496.95C271.58 497.03 271.66 497.12 271.76 497.18C271.84 497.26 271.92 497.35 271.82 497.6C271.79 497.68 271.73 497.73 271.66 497.75C271.41 497.83 271.32 497.76 271.25 497.68C271.19 497.58 271.11 497.51 271.03 497.43C270.87 497.27 270.71 497.12 270.55 496.97C270.22 496.67 269.88 496.38 269.53 496.11C269.18 495.84 268.82 495.58 268.45 495.33C268.26 495.21 268.08 495.08 267.88 494.98C267.78 494.93 267.68 494.89 267.59 494.81C267.5 494.74 267.43 494.64 267.42 494.44C267.4 494.36 267.45 494.29 267.52 494.25Z" fill="#371A45"/>
<path d="M255.73 491.96C256.31 492.2 256.73 492.73 257.02 493.26C257.31 493.8 257.49 494.38 257.65 494.93C257.81 495.49 257.97 496.03 258.19 496.54C258.4 497.05 258.67 497.53 259.02 497.92C259.37 498.31 259.82 498.58 260.32 498.76C260.82 498.93 261.38 499.01 261.94 499.06C262.51 499.11 263.09 499.13 263.68 499.21C264.27 499.29 264.88 499.42 265.45 499.7C266.02 499.98 266.52 500.4 266.89 500.89C267.27 501.38 267.54 501.94 267.76 502.49C268.19 503.61 268.41 504.76 268.71 505.86C269 506.96 269.42 508.01 269.98 508.99C270.25 509.48 270.56 509.96 270.91 510.4C271.25 510.85 271.59 511.29 271.81 511.87C271.83 511.93 271.8 512 271.74 512.03C271.71 512.04 271.67 512.04 271.65 512.03C271.07 511.77 270.68 511.31 270.33 510.83C270 510.34 269.68 509.84 269.39 509.32C268.81 508.29 268.36 507.18 268.06 506.04C267.75 504.91 267.53 503.78 267.13 502.74C266.93 502.22 266.68 501.73 266.35 501.31C266.03 500.89 265.62 500.54 265.14 500.31C264.19 499.84 263.03 499.84 261.87 499.74C261.28 499.69 260.68 499.61 260.09 499.41C259.5 499.21 258.93 498.86 258.51 498.38C257.66 497.43 257.33 496.22 256.97 495.14C256.79 494.59 256.6 494.07 256.38 493.57C256.15 493.07 255.9 492.62 255.58 492.13C255.54 492.08 255.56 492 255.61 491.97C255.65 491.94 255.69 491.94 255.73 491.96Z" fill="#371A45"/>
<path d="M255.68 501.69C256.13 501.63 256.52 501.64 256.94 501.65L258.19 501.68C259.04 501.68 259.93 501.65 260.81 501.81C261.25 501.89 261.7 502.01 262.12 502.21C262.54 502.41 262.94 502.69 263.25 503.06C263.57 503.42 263.78 503.86 263.92 504.3C264.06 504.74 264.12 505.19 264.16 505.63C264.22 506.52 264.2 507.36 264.26 508.2C264.31 509.04 264.4 509.88 264.56 510.7C264.72 511.52 264.96 512.32 265.29 513.08C265.46 513.46 265.64 513.83 265.88 514.16C266.1 514.51 266.32 514.84 266.41 515.31C266.42 515.38 266.38 515.45 266.31 515.46C266.29 515.46 266.26 515.46 266.24 515.45C265.77 515.28 265.49 514.91 265.26 514.53C265.05 514.14 264.84 513.75 264.66 513.34C264.31 512.53 264.06 511.68 263.89 510.82C263.72 509.96 263.63 509.1 263.57 508.23C263.51 507.37 263.53 506.5 263.47 505.68C263.41 504.86 263.22 504.06 262.72 503.5C262.23 502.92 261.47 502.61 260.68 502.48C259.88 502.34 259.05 502.34 258.19 502.38C257.76 502.4 257.32 502.41 256.88 502.35C256.44 502.3 255.99 502.19 255.61 501.91C255.56 501.87 255.55 501.79 255.59 501.74C255.62 501.71 255.65 501.69 255.68 501.69Z" fill="#371A45"/>
<path d="M266.9 509.16C267.11 509.24 267.2 509.36 267.26 509.49C267.33 509.62 267.37 509.75 267.4 509.89C267.48 510.16 267.6 510.43 267.7 510.69C267.92 511.22 268.15 511.74 268.41 512.24C268.67 512.75 268.94 513.25 269.24 513.74C269.39 513.98 269.54 514.22 269.7 514.46C269.78 514.58 269.86 514.7 269.96 514.8C270.05 514.91 270.12 515.04 270 515.29C269.97 515.37 269.89 515.41 269.82 515.42C269.54 515.44 269.45 515.33 269.37 515.2C269.31 515.06 269.23 514.94 269.14 514.82C268.98 514.57 268.82 514.33 268.67 514.07C268.37 513.57 268.08 513.05 267.82 512.53C267.56 512.01 267.31 511.47 267.09 510.93C266.97 510.66 266.88 510.38 266.76 510.11C266.7 509.98 266.64 509.84 266.61 509.7C266.58 509.55 266.58 509.4 266.7 509.21C266.74 509.16 266.83 509.13 266.9 509.16Z" fill="#371A45"/>
<path d="M255.63 505.61C255.89 505.38 256.18 505.29 256.48 505.23C256.78 505.17 257.09 505.17 257.41 505.2C258.03 505.24 258.67 505.36 259.24 505.65C259.82 505.94 260.31 506.38 260.68 506.88C261.05 507.39 261.33 507.95 261.51 508.54C261.89 509.72 261.92 510.98 261.7 512.18C261.59 512.78 261.42 513.37 261.19 513.93L260.83 514.77C260.7 515.04 260.52 515.3 260.17 515.43C260.1 515.46 260.01 515.42 259.99 515.34C259.99 515.33 259.99 515.32 259.98 515.31V515.3C259.92 514.92 260.06 514.69 260.19 514.43C260.34 514.19 260.46 513.93 260.56 513.67C260.77 513.15 260.93 512.6 261.03 512.05C261.23 510.95 261.2 509.8 260.86 508.74C260.53 507.69 259.88 506.72 258.92 506.24C258.45 506 257.91 505.88 257.37 505.88C257.1 505.88 256.82 505.91 256.54 505.91C256.26 505.92 255.98 505.92 255.66 505.81C255.59 505.79 255.56 505.71 255.58 505.64C255.6 505.65 255.62 505.63 255.63 505.61Z" fill="#371A45"/>
<path d="M255.62 509.32C255.74 509.11 255.94 509.03 256.13 509C256.32 508.97 256.52 508.99 256.7 509.04C257.07 509.13 257.44 509.28 257.74 509.54C258.34 510.05 258.64 510.82 258.6 511.59C258.58 511.97 258.45 512.37 258.25 512.68C258.05 513 257.79 513.27 257.52 513.5C257.25 513.73 256.96 513.92 256.68 514.1C256.54 514.19 256.39 514.28 256.27 514.39C256.13 514.48 255.98 514.56 255.72 514.44C255.64 514.41 255.6 514.33 255.6 514.25C255.62 513.95 255.75 513.86 255.89 513.78C256.04 513.71 256.18 513.63 256.32 513.54C256.59 513.36 256.86 513.18 257.09 512.99C257.57 512.6 257.91 512.12 257.93 511.56C257.96 511.01 257.73 510.42 257.31 510.07C257.1 509.9 256.85 509.77 256.57 509.74C256.43 509.73 256.29 509.73 256.16 509.71C256.02 509.7 255.88 509.67 255.69 509.54L255.68 509.53C255.61 509.48 255.58 509.39 255.62 509.32Z" fill="#371A45"/>
</g>
<g opacity="0.55">
<path d="M258.04 515.37H255.65V479.99H256C257.13 479.99 258.05 480.91 258.05 482.04V515.37H258.04Z" fill="white"/>
</g>
<g opacity="0.3">
<path d="M271.73 474.33V515.37H267.92V483.84C267.92 481.74 266.22 480.04 264.12 480.04H255.65V474.33H271.73Z" fill="#371A45"/>
</g>
<path d="M275.46 518.76V560.05C275.46 561.92 273.94 563.43 272.08 563.43H255.49C254.93 563.43 254.4 563.29 253.94 563.05C252.85 562.49 252.11 561.35 252.11 560.04V518.75C252.11 516.88 253.63 515.37 255.49 515.37H272.08C273.94 515.37 275.46 516.89 275.46 518.76Z" fill="#F9DC1B"/>
<path d="M272.07 563.61H255.48C254.91 563.61 254.35 563.47 253.85 563.22L253.76 563.17C252.63 562.55 251.93 561.37 251.93 560.06V518.77C251.93 516.81 253.52 515.22 255.48 515.22H272.07C274.03 515.22 275.62 516.81 275.62 518.77V560.06C275.62 562.01 274.03 563.61 272.07 563.61ZM254.1 562.96C254.53 563.16 255 563.27 255.48 563.27H272.07C273.84 563.27 275.29 561.83 275.29 560.05V518.76C275.29 516.99 273.85 515.54 272.07 515.54H255.48C253.71 515.54 252.26 516.98 252.26 518.76V560.05C252.26 561.26 252.93 562.35 254 562.91L254.1 562.96Z" fill="#000072"/>
<path d="M275.46 518.76V560.05C275.46 561.92 273.94 563.43 272.08 563.43H266.57C268.44 563.43 269.95 561.91 269.95 560.05V518.76C269.95 516.89 268.43 515.38 266.57 515.38H272.08C273.94 515.37 275.46 516.89 275.46 518.76Z" fill="#E89F02"/>
<path d="M272.07 563.61H266.56V563.27C268.33 563.27 269.78 561.83 269.78 560.05V518.76C269.78 516.99 268.34 515.54 266.56 515.54V515.2H272.07C274.03 515.2 275.62 516.79 275.62 518.75V560.04C275.62 562.01 274.03 563.61 272.07 563.61ZM268.08 563.27H272.07C273.84 563.27 275.29 561.83 275.29 560.05V518.76C275.29 516.99 273.85 515.54 272.07 515.54H268.08C269.29 516.11 270.12 517.34 270.12 518.76V560.05C270.12 561.47 269.28 562.7 268.08 563.27Z" fill="#E89F02"/>
<g opacity="0.55">
<path d="M256.49 563.06C256.95 563.3 257.48 563.44 258.04 563.44H255.48C254.92 563.44 254.39 563.3 253.93 563.06C252.84 562.5 252.1 561.36 252.1 560.05V518.76C252.1 516.89 253.62 515.38 255.48 515.38H258.04C256.17 515.38 254.66 516.9 254.66 518.76V560.05C254.66 561.36 255.4 562.5 256.49 563.06Z" fill="white"/>
</g>
<g opacity="0.2">
<path d="M242.29 453.43L244.54 465.7H240.03V453.43H242.29Z" fill="black"/>
</g>
<g opacity="0.2">
<path d="M265.53 453.98C265.53 455.73 263.32 455.26 260.59 455.26C257.86 455.26 255.65 455.73 255.65 453.98C255.65 452.23 257.86 450.81 260.59 450.81C263.32 450.81 265.53 452.23 265.53 453.98Z" fill="white"/>
</g>
<g opacity="0.2">
<path d="M262.29 535.57C262.29 538.84 260.91 541.49 259.21 541.49C257.51 541.49 257.48 538.84 257.48 535.57C257.48 532.3 257.51 529.65 259.21 529.65C260.91 529.65 262.29 532.3 262.29 535.57Z" fill="white"/>
</g>
<path d="M240.03 450.67V467.93C240.03 469.27 238.94 470.36 237.61 470.36H228.24C226.9 470.36 225.81 469.27 225.81 467.93V450.67C225.81 449.33 226.9 448.25 228.24 448.25H237.61C238.94 448.24 240.03 449.33 240.03 450.67Z" stroke="#0D2232" stroke-width="4" stroke-miterlimit="10" stroke-linecap="round" stroke-linejoin="round"/>
<path d="M250.48 465.7H240.03V453.43H248.9L250.48 465.7Z" stroke="#0D2232" stroke-width="4" stroke-miterlimit="10" stroke-linecap="round" stroke-linejoin="round"/>
<path d="M299.64 463.89C299.49 465.64 297.43 466.51 296.1 465.36C288.63 458.94 277.59 462.56 275.34 471.72C274.96 473.25 273.62 474.33 272.05 474.33H254.58C252.88 474.33 251.44 473.07 251.23 471.38L250.5 465.7L248.92 453.43L248.39 449.29C248.13 447.27 249.71 445.47 251.75 445.47H280.4C291.99 445.48 300.41 454.43 299.64 463.89Z" stroke="#0D2232" stroke-width="4" stroke-miterlimit="10" stroke-linecap="round" stroke-linejoin="round"/>
<path d="M271.73 474.33H255.65V515.37H271.73V474.33Z" stroke="#0D2232" stroke-width="4" stroke-miterlimit="10" stroke-linecap="round" stroke-linejoin="round"/>
<path d="M275.46 518.76V560.05C275.46 561.92 273.94 563.43 272.08 563.43H255.49C254.93 563.43 254.4 563.29 253.94 563.05C252.85 562.49 252.11 561.35 252.11 560.04V518.75C252.11 516.88 253.63 515.37 255.49 515.37H272.08C273.94 515.37 275.46 516.89 275.46 518.76Z" stroke="#0D2232" stroke-width="4" stroke-miterlimit="10" stroke-linecap="round" stroke-linejoin="round"/>
<path d="M293.87 575.22C293.86 575.17 293.86 575.12 293.86 575.07L295.67 491.01C295.68 490.37 296.21 489.87 296.85 489.88L311.31 490.19C311.62 490.2 311.91 490.32 312.12 490.55C312.3 490.73 312.41 490.97 312.43 491.22C312.44 491.27 312.44 491.32 312.44 491.37L310.63 575.43C310.62 576.07 310.09 576.57 309.45 576.56L294.99 576.25C294.68 576.24 294.39 576.12 294.18 575.89C294.01 575.71 293.9 575.47 293.87 575.22Z" fill="#C14854"/>
<path d="M299.464 491.092L297.673 575.155L306.931 575.352L308.722 491.289L299.464 491.092Z" fill="#E8656D"/>
<path opacity="0.5" d="M298.347 487.42L296.473 576.242L297.612 576.266L299.487 487.444L298.347 487.42Z" fill="white"/>
<path d="M291.11 493.14C290.32 492.55 289.56 491.89 288.85 491.19C284.63 487.04 282.27 481.49 282.22 475.56C282.17 469.64 284.43 464.05 288.59 459.83C289.67 458.73 290.86 457.75 292.14 456.9C292.52 456.65 293.01 456.64 293.4 456.89C293.43 456.91 293.45 456.92 293.47 456.94C293.81 457.19 293.98 457.61 293.92 458.03L292.18 469.64L305.13 476.1L315.28 465.78L310.21 456.02C309.99 455.6 310.05 455.09 310.36 454.73C310.67 454.37 311.16 454.24 311.61 454.39C313.8 455.14 315.84 456.22 317.7 457.61C318.49 458.2 319.25 458.86 319.96 459.55C324.18 463.7 326.54 469.25 326.59 475.18C326.64 481.1 324.38 486.69 320.22 490.91C312.46 498.82 299.95 499.77 291.11 493.14Z" fill="#E8656D"/>
<path d="M311.23 455.5L312.03 457.04C313.27 457.82 314.44 458.74 315.53 459.81C323.81 467.95 323.92 481.26 315.78 489.54C311.28 494.12 305.19 496.19 299.25 495.76C306.25 497.52 313.97 495.64 319.39 490.12C327.53 481.84 327.42 468.53 319.14 460.39C316.83 458.12 314.12 456.49 311.23 455.5Z" fill="#C14854"/>
<path opacity="0.5" d="M289.3 486.72C297.25 496.88 307.82 493.41 307.82 493.41C307.82 493.41 299.96 491.59 294.13 485.31C288.04 478.76 285.75 471.8 285.75 471.8C285.75 471.8 283.54 479.36 289.3 486.72Z" fill="white"/>
<path opacity="0.5" d="M291.19 572.9C294.15 569 297.13 569.7 297.13 569.7C297.13 569.7 293.23 573.12 291.06 577.83C289.02 582.26 289.32 589.44 289.32 589.44C289.32 589.44 287.32 584.62 287.6 582.18C288.06 578.2 289.19 575.53 291.19 572.9Z" fill="white"/>
<path d="M294.04 567.08L295.57 495.72" stroke="#0D2232" stroke-width="4" stroke-miterlimit="10" stroke-linecap="round" stroke-linejoin="round"/>
<path d="M312.35 496.11L310.81 567.48" stroke="#0D2232" stroke-width="4" stroke-miterlimit="10" stroke-linecap="round" stroke-linejoin="round"/>
<path d="M291.11 493.14C290.32 492.55 289.56 491.89 288.85 491.19C284.63 487.04 282.27 481.49 282.22 475.56C282.17 469.64 284.43 464.05 288.59 459.83C289.67 458.73 290.86 457.75 292.14 456.9C292.52 456.65 293.01 456.64 293.4 456.89C293.43 456.91 293.45 456.92 293.47 456.94C293.81 457.19 293.98 457.61 293.92 458.03L292.18 469.64L305.13 476.1L315.28 465.78L310.21 456.02C309.99 455.6 310.05 455.09 310.36 454.73C310.67 454.37 311.16 454.24 311.61 454.39C313.8 455.14 315.84 456.22 317.7 457.61C318.49 458.2 319.25 458.86 319.96 459.55C324.18 463.7 326.54 469.25 326.59 475.18C326.64 481.1 324.38 486.69 320.22 490.91C312.46 498.82 299.95 499.77 291.11 493.14Z" stroke="#0D2232" stroke-width="4" stroke-miterlimit="10" stroke-linecap="round" stroke-linejoin="round"/>
<path d="M228.47 519.93V578.09C228.47 578.09 240.04 595.45 262.54 595.45C285.04 595.45 301.11 595.45 301.11 595.45L307.86 586.77C307.86 586.77 313.32 545.95 313.97 530.2C313.97 530.2 252.25 531.85 228.47 519.93Z" fill="#FEC400"/>
<path d="M233.73 522.15V565.81C233.73 573.24 237.93 580.05 244.6 583.31C255.57 588.68 275.58 593.8 307.86 586.78L301.11 595.46L259.16 595.7C259.16 595.7 237.46 592.89 228.46 578.1V519.94L233.73 522.15Z" fill="#E89F02"/>
<path d="M228.47 519.93V573.14C228.47 576.76 229.93 580.22 232.49 582.78C237.64 587.92 247.72 595.45 262.54 595.45H294.04C298.5 595.45 302.71 593.39 305.45 589.87C307.03 587.84 308.04 585.42 308.37 582.87C309.74 572.28 313.44 542.99 313.96 530.2C313.97 530.2 252.25 531.85 228.47 519.93Z" stroke="#0D2232" stroke-width="4" stroke-miterlimit="10" stroke-linecap="round" stroke-linejoin="round"/>
<path d="M228.47 535.02C228.47 535.02 248.17 551.92 312.45 545.49" stroke="#0D2232" stroke-width="4" stroke-miterlimit="10" stroke-linecap="round" stroke-linejoin="round"/>
<path d="M190.53 197.24C190.53 197.24 207.24 185.21 229.07 193.18" stroke="#0D2232" stroke-width="12" stroke-miterlimit="10" stroke-linecap="round" stroke-linejoin="round"/>
<path d="M126.12 177.11C126.12 177.11 104.1 168.99 87.3901 184.7" stroke="#0D2232" stroke-width="12" stroke-miterlimit="10" stroke-linecap="round" stroke-linejoin="round"/>
<path d="M136.98 263.55C136.98 263.55 164.05 249.19 183.39 260.24" stroke="#0D2232" stroke-width="12" stroke-miterlimit="10" stroke-linecap="round" stroke-linejoin="round"/>
<path d="M309.433 58.3218C306.189 58.3218 303.391 57.2268 301.039 55.0369C298.768 52.7659 297.632 49.8866 297.632 46.399C297.632 42.9114 298.768 40.1132 301.039 38.0044C303.391 35.8145 306.189 34.7195 309.433 34.7195C312.759 34.7195 315.557 35.8145 317.828 38.0044C320.099 40.1132 321.234 42.9114 321.234 46.399C321.234 49.8866 320.099 52.7659 317.828 55.0369C315.557 57.2268 312.759 58.3218 309.433 58.3218ZM341.274 58.3218C338.03 58.3218 335.232 57.2268 332.88 55.0369C330.609 52.7659 329.473 49.8866 329.473 46.399C329.473 42.9114 330.609 40.1132 332.88 38.0044C335.232 35.8145 338.03 34.7195 341.274 34.7195C344.6 34.7195 347.398 35.8145 349.669 38.0044C351.94 40.1132 353.075 42.9114 353.075 46.399C353.075 49.8866 351.94 52.7659 349.669 55.0369C347.398 57.2268 344.6 58.3218 341.274 58.3218ZM373.115 58.3218C369.871 58.3218 367.073 57.2268 364.721 55.0369C362.45 52.7659 361.314 49.8866 361.314 46.399C361.314 42.9114 362.45 40.1132 364.721 38.0044C367.073 35.8145 369.871 34.7195 373.115 34.7195C376.441 34.7195 379.239 35.8145 381.51 38.0044C383.781 40.1132 384.916 42.9114 384.916 46.399C384.916 49.8866 383.781 52.7659 381.51 55.0369C379.239 57.2268 376.441 58.3218 373.115 58.3218ZM404.956 58.3218C401.712 58.3218 398.914 57.2268 396.562 55.0369C394.291 52.7659 393.155 49.8866 393.155 46.399C393.155 42.9114 394.291 40.1132 396.562 38.0044C398.914 35.8145 401.712 34.7195 404.956 34.7195C408.282 34.7195 411.08 35.8145 413.351 38.0044C415.622 40.1132 416.758 42.9114 416.758 46.399C416.758 49.8866 415.622 52.7659 413.351 55.0369C411.08 57.2268 408.282 58.3218 404.956 58.3218Z" fill="#253B5A"/>
<path d="M301.039 55.0369L298.917 57.1583C298.943 57.1835 298.968 57.2083 298.994 57.2326L301.039 55.0369ZM301.039 38.0044L303.08 40.2027L303.083 40.2L301.039 38.0044ZM317.828 38.0044L315.745 40.1639C315.759 40.177 315.773 40.1899 315.787 40.2027L317.828 38.0044ZM317.828 55.0369L319.91 57.1965C319.923 57.1839 319.936 57.1711 319.949 57.1583L317.828 55.0369ZM309.433 55.3218C306.94 55.3218 304.874 54.5088 303.083 52.8413L298.994 57.2326C301.908 59.9449 305.438 61.3218 309.433 61.3218V55.3218ZM303.16 52.9156C301.503 51.2584 300.632 49.1663 300.632 46.399H294.632C294.632 50.6069 296.033 54.2735 298.917 57.1583L303.16 52.9156ZM300.632 46.399C300.632 43.6301 301.5 41.6698 303.08 40.2027L298.997 35.806C296.035 38.5565 294.632 42.1927 294.632 46.399H300.632ZM303.083 40.2C304.874 38.5325 306.94 37.7195 309.433 37.7195V31.7195C305.438 31.7195 301.908 33.0964 298.994 35.8087L303.083 40.2ZM309.433 37.7195C312.028 37.7195 314.066 38.5446 315.745 40.1639L319.91 35.8448C317.048 33.0844 313.489 31.7195 309.433 31.7195V37.7195ZM315.787 40.2027C317.366 41.6698 318.234 43.6301 318.234 46.399H324.234C324.234 42.1927 322.831 38.5565 319.869 35.806L315.787 40.2027ZM318.234 46.399C318.234 49.1663 317.364 51.2584 315.707 52.9156L319.949 57.1583C322.834 54.2735 324.234 50.6069 324.234 46.399H318.234ZM315.745 52.8774C314.066 54.4967 312.028 55.3218 309.433 55.3218V61.3218C313.489 61.3218 317.048 59.9569 319.91 57.1965L315.745 52.8774ZM332.88 55.0369L330.758 57.1583C330.784 57.1835 330.809 57.2083 330.835 57.2326L332.88 55.0369ZM332.88 38.0044L334.921 40.2027L334.924 40.2L332.88 38.0044ZM349.669 38.0044L347.587 40.1639C347.6 40.177 347.614 40.1899 347.628 40.2027L349.669 38.0044ZM349.669 55.0369L351.751 57.1965C351.764 57.1839 351.777 57.1711 351.79 57.1583L349.669 55.0369ZM341.274 55.3218C338.781 55.3218 336.715 54.5088 334.924 52.8413L330.835 57.2326C333.749 59.9449 337.279 61.3218 341.274 61.3218V55.3218ZM335.001 52.9156C333.344 51.2584 332.473 49.1663 332.473 46.399H326.473C326.473 50.6069 327.874 54.2735 330.758 57.1583L335.001 52.9156ZM332.473 46.399C332.473 43.6301 333.341 41.6698 334.921 40.2027L330.838 35.806C327.876 38.5565 326.473 42.1927 326.473 46.399H332.473ZM334.924 40.2C336.715 38.5325 338.781 37.7195 341.274 37.7195V31.7195C337.279 31.7195 333.749 33.0964 330.835 35.8087L334.924 40.2ZM341.274 37.7195C343.869 37.7195 345.907 38.5446 347.587 40.1639L351.751 35.8448C348.889 33.0844 345.33 31.7195 341.274 31.7195V37.7195ZM347.628 40.2027C349.207 41.6698 350.075 43.6301 350.075 46.399H356.075C356.075 42.1927 354.672 38.5565 351.71 35.806L347.628 40.2027ZM350.075 46.399C350.075 49.1663 349.205 51.2584 347.548 52.9156L351.79 57.1583C354.675 54.2735 356.075 50.6069 356.075 46.399H350.075ZM347.587 52.8774C345.907 54.4967 343.869 55.3218 341.274 55.3218V61.3218C345.33 61.3218 348.889 59.9569 351.751 57.1965L347.587 52.8774ZM364.721 55.0369L362.599 57.1583C362.625 57.1835 362.65 57.2083 362.676 57.2326L364.721 55.0369ZM364.721 38.0044L366.762 40.2027L366.765 40.2L364.721 38.0044ZM381.51 38.0044L379.428 40.1639C379.441 40.177 379.455 40.1899 379.469 40.2027L381.51 38.0044ZM381.51 55.0369L383.592 57.1965C383.605 57.1839 383.618 57.1711 383.631 57.1583L381.51 55.0369ZM373.115 55.3218C370.622 55.3218 368.556 54.5088 366.765 52.8413L362.676 57.2326C365.59 59.9449 369.12 61.3218 373.115 61.3218V55.3218ZM366.842 52.9156C365.185 51.2584 364.314 49.1663 364.314 46.399H358.314C358.314 50.6069 359.715 54.2735 362.599 57.1583L366.842 52.9156ZM364.314 46.399C364.314 43.6301 365.182 41.6698 366.762 40.2027L362.679 35.806C359.717 38.5565 358.314 42.1927 358.314 46.399H364.314ZM366.765 40.2C368.556 38.5325 370.622 37.7195 373.115 37.7195V31.7195C369.12 31.7195 365.59 33.0964 362.676 35.8087L366.765 40.2ZM373.115 37.7195C375.71 37.7195 377.748 38.5446 379.428 40.1639L383.592 35.8448C380.73 33.0844 377.171 31.7195 373.115 31.7195V37.7195ZM379.469 40.2027C381.049 41.6698 381.916 43.6301 381.916 46.399H387.916C387.916 42.1927 386.513 38.5565 383.551 35.806L379.469 40.2027ZM381.916 46.399C381.916 49.1663 381.046 51.2584 379.389 52.9156L383.631 57.1583C386.516 54.2735 387.916 50.6069 387.916 46.399H381.916ZM379.428 52.8774C377.748 54.4967 375.71 55.3218 373.115 55.3218V61.3218C377.171 61.3218 380.73 59.9569 383.592 57.1965L379.428 52.8774ZM396.562 55.0369L394.44 57.1583C394.466 57.1835 394.491 57.2083 394.517 57.2326L396.562 55.0369ZM396.562 38.0044L398.603 40.2027L398.606 40.2L396.562 38.0044ZM413.351 38.0044L411.269 40.1639C411.282 40.177 411.296 40.1899 411.31 40.2027L413.351 38.0044ZM413.351 55.0369L415.433 57.1965C415.446 57.1839 415.459 57.1711 415.472 57.1583L413.351 55.0369ZM404.956 55.3218C402.463 55.3218 400.397 54.5088 398.606 52.8413L394.517 57.2326C397.431 59.9449 400.961 61.3218 404.956 61.3218V55.3218ZM398.683 52.9156C397.026 51.2584 396.155 49.1663 396.155 46.399H390.155C390.155 50.6069 391.556 54.2735 394.44 57.1583L398.683 52.9156ZM396.155 46.399C396.155 43.6301 397.023 41.6698 398.603 40.2027L394.52 35.806C391.558 38.5565 390.155 42.1927 390.155 46.399H396.155ZM398.606 40.2C400.397 38.5325 402.463 37.7195 404.956 37.7195V31.7195C400.961 31.7195 397.431 33.0964 394.517 35.8087L398.606 40.2ZM404.956 37.7195C407.551 37.7195 409.589 38.5446 411.269 40.1639L415.433 35.8448C412.571 33.0844 409.012 31.7195 404.956 31.7195V37.7195ZM411.31 40.2027C412.89 41.6698 413.758 43.6301 413.758 46.399H419.758C419.758 42.1927 418.354 38.5565 415.392 35.806L411.31 40.2027ZM413.758 46.399C413.758 49.1663 412.887 51.2584 411.23 52.9156L415.472 57.1583C418.357 54.2735 419.758 50.6069 419.758 46.399H413.758ZM411.269 52.8774C409.589 54.4967 407.551 55.3218 404.956 55.3218V61.3218C409.012 61.3218 412.571 59.9569 415.433 57.1965L411.269 52.8774Z" fill="#0D2232"/>
<path d="M177.69 323.32C177.69 323.32 167.16 364.53 146.06 401.06C146.05 401.08 146.05 401.09 146.04 401.11C131.28 435.76 110.36 454.11 93.6 463.75C77.23 473.17 57.3099 473.68 40.5199 465.04C33.7599 461.56 28.5499 457.69 24.5499 453.66C8.73994 437.7 10.5999 411.41 28.0799 397.29L42.5 405.91L69.34 421.94C78.1199 416.36 85.73 410.14 92.32 403.58C129.22 366.9 134.08 320.03 134.08 320.03L177.69 323.32Z" fill="#FBC6A6"/>
<path opacity="0.16" d="M140.13 322.5C140.13 322.5 126.75 399.01 69.3398 421.93" stroke="black" stroke-width="6" stroke-miterlimit="10"/>
<path opacity="0.5" d="M75.5699 470.85C75.5699 470.85 3.55989 462.65 20.5899 404.05" stroke="white" stroke-width="6" stroke-miterlimit="10" stroke-linejoin="round"/>
<path d="M177.69 323.32C177.69 323.32 167.16 364.53 146.06 401.06C146.05 401.08 146.05 401.09 146.04 401.11C117.5 468.09 65.97 474.15 65.97 474.15C45.52 469.17 32.5799 461.76 24.5499 453.65C8.73994 437.69 10.5999 411.4 28.0799 397.28L42.5 405.9L69.34 421.93C78.12 416.35 85.73 410.13 92.32 403.57C129.22 366.89 134.08 320.02 134.08 320.02L177.69 323.32Z" stroke="#0D2232" stroke-width="6" stroke-miterlimit="10" stroke-linecap="round" stroke-linejoin="round"/>
<path d="M184.604 337.126C183.574 340.076 181.824 342.856 180.154 345.476C176.924 350.546 173.084 355.056 168.894 359.356C165.824 362.496 162.854 365.626 160.374 369.206L155.344 366.916L129.634 355.206C129.444 353.106 129.074 350.986 128.504 348.836C127.154 343.726 124.934 338.806 124.184 333.556C123.394 328.006 125.244 323.796 127.904 319.136C130.404 314.766 132.044 310.276 131.984 305.176C131.974 304.306 131.654 303.086 131.774 302.236C131.964 300.716 132.504 299.456 133.494 299.106C133.584 299.076 133.674 299.046 133.774 299.026C133.784 299.026 133.784 299.026 133.794 299.026C134.204 298.956 134.674 299.026 135.214 299.276C135.354 299.336 135.494 299.406 135.644 299.496C139.944 301.996 138.354 309.916 137.324 313.656C136.724 315.836 136.364 318.126 135.424 320.196C135.554 320.306 135.754 320.356 135.934 320.316C136.084 320.296 136.224 320.196 136.294 320.026C138.664 314.406 141.224 308.726 144.644 303.646C146.604 300.726 149.984 298.046 153.394 300.536C156.324 302.666 156.744 306.186 155.994 309.466C155.904 309.866 154.494 313.366 155.884 312.636C156.884 312.116 158.024 307.436 158.764 306.506C160.234 304.656 162.504 303.446 164.864 304.296C168.904 305.756 169.354 310.296 167.844 313.756C167.454 314.646 165.464 316.916 167.114 317.426C168.164 317.736 169.104 316.626 169.824 316.086C170.864 315.306 172.004 314.636 173.214 314.176C175.644 313.256 178.364 313.316 180.264 315.276C181.824 316.876 181.984 318.976 181.214 320.996C180.814 322.056 180.214 323.046 179.564 323.976C178.974 324.826 177.984 325.616 177.594 326.556C176.274 329.736 179.514 326.936 182.044 328.346C183.104 328.946 184.114 329.636 184.694 330.656V330.646C184.724 330.706 184.764 330.766 184.804 330.826C184.844 330.886 184.874 330.946 184.904 331.006C185.764 332.946 185.264 335.236 184.604 337.126Z" fill="#FBC6A6"/>
<path opacity="0.16" d="M135.424 320.196C135.564 320.316 135.754 320.356 135.934 320.316C135.664 320.706 135.334 321.016 134.964 321.066C133.114 321.336 134.704 315.816 134.914 315.086C135.244 313.906 135.664 312.736 135.894 311.536C136.214 309.836 136.204 307.986 136.054 306.266C135.814 303.686 134.994 301.176 133.504 299.106C134.074 298.896 134.784 298.986 135.664 299.496C139.964 301.996 138.364 309.906 137.334 313.646C136.724 315.836 136.364 318.126 135.424 320.196Z" fill="black"/>
<path opacity="0.16" d="M152.464 312.306C152.194 313.166 151.864 313.986 151.454 314.776C150.744 314.736 150.204 314.316 150.074 313.426C149.884 312.076 150.214 310.656 150.394 309.326C150.644 307.416 150.844 305.496 150.794 303.556C150.764 302.306 150.554 301.126 150.214 300.006C150.284 300.056 150.354 300.086 150.424 300.146C153.354 302.276 153.764 305.796 153.014 309.076C152.944 309.406 151.914 311.996 152.464 312.306Z" fill="black"/>
<path opacity="0.16" d="M164.694 318.006C164.044 319.066 163.294 320.136 162.414 321.066C162.254 321.076 162.104 321.086 161.934 321.076C160.874 320.986 160.754 319.916 160.734 319.016C160.664 316.256 161.764 313.516 162.044 310.786C162.254 308.776 162.194 306.666 161.574 304.796C161.964 304.826 162.354 304.896 162.744 305.036C166.784 306.486 167.234 311.036 165.724 314.486C165.364 315.306 163.654 317.306 164.694 318.006Z" fill="black"/>
<path opacity="0.16" d="M177.324 325.696C176.824 326.416 176.074 327.086 175.604 327.846C175.334 328.116 175.034 328.406 174.654 328.726C173.744 329.496 172.964 330.046 172.014 330.456C171.804 330.546 171.594 330.626 171.384 330.696C171.324 330.716 171.274 330.736 171.214 330.746C171.194 330.746 171.204 330.746 171.184 330.756C171.084 330.776 170.974 330.806 170.874 330.826C170.724 330.856 170.584 330.856 170.434 330.876C170.234 330.326 170.364 329.456 170.464 328.966C170.754 327.436 171.524 326.096 172.204 324.716C172.924 323.236 173.534 321.706 173.964 320.116C174.394 318.536 174.584 316.906 174.384 315.366C175.724 315.456 177.004 315.946 178.044 317.006C179.604 318.606 179.764 320.706 178.994 322.736C178.564 323.786 177.964 324.766 177.324 325.696Z" fill="black"/>
<path opacity="0.16" d="M184.604 337.126C183.574 340.076 181.824 342.856 180.154 345.476C176.924 350.546 173.084 355.056 168.894 359.356C165.824 362.496 162.854 365.626 160.374 369.206L155.344 366.916C158.814 362.616 162.714 358.686 166.724 354.886C171.244 350.606 176.224 346.626 179.924 341.576C182.384 338.236 183.974 334.576 184.694 330.646C184.724 330.706 184.764 330.766 184.804 330.826C184.844 330.886 184.874 330.946 184.904 331.006C185.764 332.946 185.264 335.236 184.604 337.126Z" fill="black"/>
<path d="M184.604 337.126C183.574 340.076 181.824 342.856 180.154 345.476C176.924 350.546 173.084 355.056 168.894 359.356C165.824 362.496 162.854 365.626 160.374 369.206L155.344 366.916L129.634 355.206C129.444 353.106 129.074 350.986 128.504 348.836C127.154 343.726 124.934 338.806 124.184 333.556C123.394 328.006 125.244 323.796 127.904 319.136C130.404 314.766 132.044 310.276 131.984 305.176C131.974 304.306 131.654 303.086 131.774 302.236C131.964 300.716 132.504 299.456 133.494 299.106C133.584 299.076 133.674 299.046 133.774 299.026C133.784 299.026 133.784 299.026 133.794 299.026C134.204 298.956 134.674 299.026 135.214 299.276C135.354 299.336 135.494 299.406 135.644 299.496C139.944 301.996 138.354 309.916 137.324 313.656C136.724 315.836 136.364 318.126 135.424 320.196C135.554 320.306 135.754 320.356 135.934 320.316C136.084 320.296 136.224 320.196 136.294 320.026C138.664 314.406 141.224 308.726 144.644 303.646C146.604 300.726 149.984 298.046 153.394 300.536C156.324 302.666 156.744 306.186 155.994 309.466C155.904 309.866 154.494 313.366 155.884 312.636C156.884 312.116 158.024 307.436 158.764 306.506C160.234 304.656 162.504 303.446 164.864 304.296C168.904 305.756 169.354 310.296 167.844 313.756C167.454 314.646 165.464 316.916 167.114 317.426C168.164 317.736 169.104 316.626 169.824 316.086C170.864 315.306 172.004 314.636 173.214 314.176C175.644 313.256 178.364 313.316 180.264 315.276C181.824 316.876 181.984 318.976 181.214 320.996C180.814 322.056 180.214 323.046 179.564 323.976C178.974 324.826 177.984 325.616 177.594 326.556C176.274 329.736 179.514 326.936 182.044 328.346C183.104 328.946 184.114 329.636 184.694 330.656V330.646C184.724 330.706 184.764 330.766 184.804 330.826C184.844 330.886 184.874 330.946 184.904 331.006C185.764 332.946 185.264 335.236 184.604 337.126Z" stroke="#0D2232" stroke-width="6" stroke-miterlimit="10" stroke-linecap="round" stroke-linejoin="round"/>
<path d="M90.89 519.93V579.37C90.89 579.37 66.46 598.01 29.18 595.44C29.18 595.44 13.75 571.01 9.25 530.19C9.25 530.2 73.54 533.78 90.89 519.93Z" stroke="white" stroke-miterlimit="10"/>
<path d="M11.7998 546.78C11.7998 546.78 65.1798 547.24 90.8898 535.02" stroke="white" stroke-miterlimit="10"/>
<path d="M24.6396 586.81C24.6396 586.81 56.8196 587.73 75.4696 577.45L71.3496 527.27L90.8996 519.93V579.37C90.8996 579.37 69.0396 596.73 29.1896 595.44L24.6396 586.81Z" stroke="white" stroke-miterlimit="10"/>
<path d="M91.06 535.02C91.06 535.02 69.82 551.73 5.45996 545.31" stroke="white" stroke-miterlimit="10"/>
<path d="M109.08 495.16V583.88L97.5001 595.45H18.3301L28.9501 587.09L28.3101 495.16H109.08Z" fill="#F9DC1B"/>
<path d="M99.4301 495.16V578.32L92.6701 587.09H11.5801L18.3301 595.45H97.5001L109.08 583.88V495.16H99.4301Z" fill="#E89F02"/>
<path d="M96.851 512.667H102.001V507.527H96.851V512.667Z" fill="white"/>
<path d="M96.851 529.082H102.001V523.942H96.851V529.082Z" fill="white"/>
<path d="M96.851 545.488H102.001V540.348H96.851V545.488Z" fill="white"/>
<path d="M96.851 561.903H102.001V556.763H96.851V561.903Z" fill="white"/>
<path d="M96.851 578.319H102.001V573.179H96.851V578.319Z" fill="white"/>
<path d="M28.3099 530.2V495.16H109.08V583.88L97.4999 595.45L19.3999 594.61" stroke="#0D2232" stroke-width="4" stroke-miterlimit="10" stroke-linecap="round" stroke-linejoin="round"/>
<path d="M34.2401 465.1L38.9101 482.71L36.1801 485.62C32.9101 480.72 26.8701 477.99 20.8101 479.22C20.5201 479.28 20.2301 479.35 19.9401 479.42C21.1901 478.38 22.1001 477.2 22.6801 475.98C25.2201 470.67 21.8801 464.31 15.6101 463.17L11.8301 448.93C21.3201 450.24 28.1801 455.3 33.2301 462.93C33.7001 463.6 34.0301 464.33 34.2401 465.1Z" fill="#AFCADC"/>
<path d="M36.1601 485.93L36.0301 485.73C32.7301 480.78 26.6401 478.24 20.8601 479.41C20.5901 479.46 20.3101 479.53 20.0101 479.61L19.1701 479.83L19.8401 479.27C21.0301 478.28 21.9401 477.15 22.5301 475.89C23.6901 473.47 23.6401 470.7 22.4101 468.29C21.0801 465.7 18.6001 463.9 15.6001 463.35L15.4801 463.33L11.6001 448.69L11.8901 448.73C20.9201 449.98 27.9701 454.58 33.4301 462.81C33.8901 463.5 34.2301 464.25 34.4401 465.04L39.1401 482.75L36.1601 485.93ZM20.6501 479.05C20.6901 479.04 20.7301 479.03 20.7801 479.02C26.6301 477.83 32.7901 480.35 36.2101 485.3L38.7001 482.64L34.0501 465.14C33.8501 464.39 33.5301 463.68 33.0901 463.02C27.7501 454.98 20.8901 450.43 12.1101 449.15L15.7801 462.99C18.8401 463.58 21.3801 465.44 22.7401 468.11C24.0301 470.63 24.0701 473.52 22.8601 476.05C22.3501 477.15 21.6101 478.16 20.6501 479.05Z" fill="#000072"/>
<g opacity="0.55">
<path d="M22.6601 478.97C22.0501 479.01 21.4301 479.1 20.8101 479.22C20.5201 479.28 20.2301 479.35 19.9401 479.42C21.1901 478.38 22.1001 477.2 22.6801 475.98C25.2201 470.67 21.8801 464.31 15.6101 463.17L11.8301 448.93C12.8501 449.07 13.8301 449.25 14.7801 449.48L18.3001 462.73C24.5701 463.87 27.9101 470.22 25.3701 475.54C24.8101 476.76 23.9101 477.93 22.6601 478.97Z" fill="white"/>
</g>
<g opacity="0.55">
<path d="M22.7301 478.96L22.6401 478.98C22.6501 478.97 22.6501 478.97 22.6601 478.96C22.6801 478.96 22.7101 478.96 22.7301 478.96Z" fill="white"/>
<path d="M22.7801 479.15L21.8701 479.39L22.6101 478.78C22.6501 478.77 22.6801 478.77 22.7001 478.77L24.3301 478.73L22.7801 479.15Z" fill="#371A45"/>
</g>
<path d="M41.93 494.08L44.2099 502.69C44.3499 503.22 44.06 503.78 43.56 503.97C43.52 503.98 43.49 503.99 43.45 504L27.87 508.14C26.29 508.56 24.69 508.71 23.12 508.62C18.1 508.32 13.41 505.55 10.87 501.22C10.22 500.12 9.70995 498.93 9.36995 497.64C8.93995 496.03 8.79995 494.42 8.89995 492.85C9.29995 486.64 13.59 481.11 19.94 479.43H19.95C20.24 479.35 20.52 479.29 20.82 479.23C26.88 478 32.92 480.73 36.19 485.63C37.15 487.07 37.86 488.69 38.28 490.45C38.55 491.59 38.67 492.73 38.67 493.85L40.63 493.33C40.99 493.23 41.36 493.34 41.62 493.57C41.76 493.69 41.8699 493.87 41.93 494.08Z" fill="#AFCADC"/>
<path d="M43.4997 504.19L27.9197 508.33C26.3497 508.75 24.7297 508.91 23.1097 508.81C17.9897 508.51 13.2397 505.64 10.6997 501.32C10.0297 500.19 9.51973 498.97 9.17973 497.7C8.75973 496.1 8.59975 494.47 8.69975 492.84C9.11975 486.37 13.6097 480.91 19.8797 479.24C20.2097 479.15 20.4897 479.09 20.7697 479.03C26.6897 477.83 32.9497 480.43 36.3297 485.51C37.3197 487 38.0297 488.64 38.4397 490.39C38.6897 491.44 38.8197 492.52 38.8297 493.59L40.5497 493.13C40.9597 493.02 41.3997 493.12 41.7097 493.41C41.8997 493.57 42.0297 493.79 42.0897 494.03L44.3697 502.64C44.5397 503.27 44.1997 503.92 43.5997 504.15C43.5797 504.16 43.5397 504.17 43.4997 504.19ZM19.9997 479.6C13.8797 481.23 9.49973 486.55 9.08973 492.85C8.97973 494.44 9.13972 496.03 9.54972 497.58C9.87972 498.82 10.3797 500.01 11.0297 501.11C13.4997 505.32 18.1397 508.12 23.1297 508.41C24.7097 508.5 26.2897 508.35 27.8197 507.94L43.3997 503.8C43.4297 503.79 43.4597 503.78 43.4897 503.77C43.9097 503.61 44.1397 503.16 44.0297 502.72L41.7497 494.11C41.7097 493.94 41.6097 493.79 41.4797 493.68C41.2597 493.48 40.9597 493.41 40.6697 493.48L38.4697 494.06V493.81C38.4697 492.69 38.3397 491.56 38.0797 490.45C37.6797 488.74 36.9897 487.14 36.0197 485.69C32.7197 480.74 26.6297 478.2 20.8497 479.37C20.5797 479.46 20.3097 479.52 19.9997 479.6Z" fill="#000072"/>
<g opacity="0.3">
<path d="M34.2396 465.1L38.9096 482.71L36.1796 485.62C35.9996 485.35 35.8096 485.08 35.6096 484.82C32.2396 480.42 26.5396 478.05 20.8096 479.22C20.5196 479.28 20.2296 479.35 19.9396 479.42C21.1896 478.38 22.0996 477.2 22.6796 475.98C22.7596 475.95 22.8496 475.93 22.9296 475.91H22.9496C23.2296 475.84 23.5196 475.77 23.8196 475.71C26.4596 475.17 29.0896 475.39 31.4896 476.21C32.9496 476.71 34.3696 475.41 33.9796 473.92L31.9196 466.17C31.7196 465.4 31.3796 464.67 30.9396 464C26.3796 457.12 20.3496 452.33 12.2596 450.5L11.8496 448.95C21.3396 450.26 28.1996 455.32 33.2496 462.95C33.6996 463.6 34.0296 464.33 34.2396 465.1Z" fill="black"/>
<path d="M36.1599 485.93L36.0298 485.73C35.8498 485.45 35.6598 485.19 35.4698 484.95C32.0498 480.48 26.3198 478.31 20.8598 479.42C20.5898 479.47 20.3099 479.54 20.0099 479.62L19.1699 479.84L19.8398 479.28C21.0298 478.29 21.9398 477.16 22.5298 475.9L22.5699 475.82L22.6498 475.79C23.0498 475.66 23.4598 475.58 23.7998 475.51C26.3798 474.99 29.0599 475.16 31.5699 476.01C32.1899 476.22 32.8498 476.08 33.3298 475.64C33.7998 475.2 33.9798 474.58 33.8098 473.96L31.7498 466.21C31.5498 465.47 31.2299 464.76 30.7899 464.09C25.9499 456.79 19.8798 452.4 12.2198 450.67L12.1098 450.64L11.5898 448.7L11.8799 448.74C20.9099 449.99 27.9599 454.59 33.4199 462.82C33.8799 463.51 34.2198 464.26 34.4298 465.05L39.1299 482.76L36.1599 485.93ZM20.6498 479.05C20.6898 479.04 20.7298 479.03 20.7798 479.02C26.3798 477.88 32.2598 480.11 35.7698 484.7C35.9198 484.89 36.0698 485.09 36.2098 485.31L38.6999 482.65L34.0498 465.15C33.8498 464.4 33.5298 463.69 33.0898 463.03C27.7498 454.99 20.8898 450.44 12.1098 449.16L12.4199 450.32C20.1199 452.09 26.2298 456.53 31.1098 463.88C31.5698 464.58 31.9098 465.33 32.1198 466.11L34.1798 473.86C34.3798 474.62 34.1598 475.39 33.5898 475.92C33.0098 476.46 32.2099 476.63 31.4398 476.38C28.9998 475.55 26.3798 475.38 23.8698 475.89C23.5998 475.94 23.2899 476.01 23.0099 476.09C22.9499 476.11 22.8898 476.12 22.8398 476.14C22.3098 477.2 21.5798 478.18 20.6498 479.05Z" fill="#371A45"/>
</g>
<g opacity="0.55">
<path d="M30.8299 480.74C28.4099 479.9 25.74 479.67 23.07 480.21C22.78 480.27 22.49 480.34 22.2 480.41H22.19C15.85 482.09 11.56 487.63 11.15 493.83C11.05 495.4 11.19 497.02 11.62 498.62C11.96 499.9 12.47 501.1 13.12 502.2C14.52 504.58 16.56 506.49 18.96 507.77C15.61 506.6 12.69 504.3 10.87 501.2C10.22 500.1 9.70995 498.91 9.36995 497.62C8.93995 496.01 8.79995 494.4 8.89995 492.83C9.29995 486.62 13.59 481.09 19.94 479.41H19.95C20.24 479.33 20.52 479.27 20.82 479.21C24.34 478.5 27.8599 479.13 30.8299 480.74Z" fill="white"/>
</g>
<path d="M23.7599 501.7C28.1119 501.7 31.6399 498.172 31.6399 493.82C31.6399 489.468 28.1119 485.94 23.7599 485.94C19.4079 485.94 15.8799 489.468 15.8799 493.82C15.8799 498.172 19.4079 501.7 23.7599 501.7Z" fill="#CECEDD"/>
<g opacity="0.55">
<path d="M33.8499 493.23C34.9699 497.44 32.4599 501.75 28.2599 502.87C25.6599 503.56 23.0199 502.87 21.1099 501.24C22.5599 501.76 24.1799 501.86 25.7899 501.44C29.9999 500.32 32.4999 496.01 31.3799 491.8C30.9499 490.2 30.0599 488.84 28.8899 487.84C31.2399 488.68 33.1599 490.63 33.8499 493.23Z" fill="white"/>
</g>
<g opacity="0.3">
<path d="M28.5698 487.57C27.2798 487.21 25.8798 487.19 24.4898 487.56C20.2798 488.68 17.7798 492.99 18.8998 497.2C19.3598 498.95 20.3798 500.4 21.7198 501.42C19.0898 500.71 16.9098 498.66 16.1598 495.84C15.0398 491.63 17.5498 487.32 21.7498 486.2C24.1998 485.55 26.6998 486.13 28.5698 487.57Z" fill="black"/>
<path d="M22.5999 501.86L21.6598 501.61C18.8798 500.86 16.6998 498.67 15.9598 495.89C14.8198 491.59 17.3898 487.16 21.6898 486.02C24.1298 485.37 26.6798 485.88 28.6798 487.42L29.4598 488.02L28.5099 487.76C27.2199 487.4 25.8498 487.4 24.5298 487.75C20.4298 488.84 17.9799 493.06 19.0699 497.15C19.5099 498.8 20.4599 500.23 21.8199 501.27L22.5999 501.86ZM21.7899 486.39C17.6899 487.48 15.2398 491.7 16.3298 495.79C16.9498 498.12 18.6398 500.02 20.8398 500.93C19.8098 499.92 19.0799 498.67 18.6999 497.25C17.5599 492.95 20.1298 488.52 24.4298 487.38C25.4798 487.1 26.5799 487.04 27.6399 487.19C25.8899 486.15 23.7999 485.85 21.7899 486.39Z" fill="#371A45"/>
</g>
<path d="M27.5801 508.21L31.1901 521.81C31.6701 523.61 32.7201 525.22 34.1801 526.38L48.9401 538.12C51.3701 540.05 53.1101 542.71 53.9001 545.7L61.2701 573.48C61.7401 575.26 63.7901 576.07 65.3701 575.11C69.0301 572.88 71.8701 570.3 73.4101 567.16C74.6501 564.63 74.8501 561.71 74.1201 558.98L68.5301 537.94C67.9701 535.83 66.8501 533.92 65.2901 532.39L55.5301 522.85C53.6201 520.98 52.4901 518.44 52.4601 515.77C52.4301 512.75 53.0201 509.39 53.9701 505.83C54.5601 503.61 52.5401 501.58 50.3201 502.17L27.5801 508.21Z" fill="#F9DC1B"/>
<path d="M68.5496 537.93L74.1396 558.98C74.8596 561.71 74.6696 564.63 73.4296 567.16C71.8896 570.3 69.0396 572.88 65.3796 575.11C64.2996 575.77 62.9996 575.59 62.1396 574.85C65.2196 572.8 67.6196 570.45 68.9896 567.66C70.2296 565.13 70.4296 562.21 69.6996 559.48L64.1096 538.43C63.5496 536.32 62.4296 534.41 60.8696 532.88L51.1096 523.34C49.1996 521.47 48.0696 518.93 48.0496 516.26C48.0196 513.24 48.6096 509.88 49.5596 506.32C49.9596 504.81 49.1496 503.38 47.8896 502.82L50.3596 502.17C52.5796 501.58 54.5996 503.61 54.0096 505.83C53.0596 509.39 52.4696 512.75 52.4996 515.77C52.5296 518.44 53.6596 520.98 55.5596 522.85L65.3196 532.39C66.8696 533.91 67.9896 535.83 68.5496 537.93Z" fill="#E89F02"/>
<g opacity="0.55">
<path d="M64.4998 574.61C64.5698 574.88 64.6799 575.14 64.8199 575.36C63.3499 575.86 61.6998 575.05 61.2798 573.47L53.9099 545.69C53.1199 542.7 51.3799 540.04 48.9499 538.11L34.1898 526.37C32.7298 525.21 31.6799 523.61 31.1999 521.8L27.5898 508.2L50.3598 502.16C51.6498 501.82 52.8598 502.36 53.5498 503.3L30.8098 509.33L34.4199 522.93C34.8999 524.74 35.9499 526.34 37.4099 527.5L52.1699 539.24C54.5899 541.17 56.3299 543.83 57.1299 546.82L64.4998 574.61Z" fill="white"/>
</g>
<path d="M27.5797 508.21L31.1897 521.81C31.6697 523.61 31.5497 525.52 30.8597 527.26L23.8597 544.77C22.7097 547.65 22.5197 550.82 23.3097 553.82L30.6797 581.6C31.1497 583.38 29.7697 585.1 27.9297 585.04C23.6497 584.92 19.8997 584.09 16.9997 582.13C14.6597 580.55 13.0497 578.11 12.3197 575.38L6.72968 554.34C6.16968 552.23 6.18968 550.02 6.78968 547.92L10.5297 534.8C11.2597 532.23 10.9797 529.47 9.67966 527.13C8.20966 524.49 6.02967 521.86 3.43967 519.24C1.82967 517.61 2.57968 514.85 4.78968 514.26L27.5797 508.21Z" fill="#F9DC1B"/>
<path d="M27.5799 508.21L31.1899 521.81C31.6699 523.62 31.5499 525.53 30.8599 527.26L23.8599 544.77C22.7099 547.65 22.5199 550.82 23.3099 553.82L30.6799 581.6C31.1499 583.38 29.7699 585.1 27.9299 585.05C27.1399 585.03 26.3599 584.98 25.5999 584.9C25.9299 584.31 26.0399 583.6 25.8499 582.88L18.4799 555.1C17.6899 552.11 17.8799 548.93 19.0299 546.05L26.0299 528.54C26.7199 526.81 26.8399 524.9 26.3599 523.09L22.7499 509.49L27.5799 508.21Z" fill="#E89F02"/>
<g opacity="0.55">
<path d="M7.42993 520.17C10.0199 522.79 12.2 525.42 13.67 528.06C14.97 530.39 15.2499 533.16 14.5199 535.73L10.7799 548.85C10.1799 550.95 10.1599 553.17 10.7199 555.27L16.3099 576.32C17.0299 579.05 18.65 581.49 20.98 583.07C22.01 583.77 23.1499 584.32 24.3799 584.75C21.5699 584.35 19.0799 583.53 17.0199 582.13C14.6899 580.55 13.0699 578.11 12.3499 575.38L6.75995 554.33C6.19995 552.22 6.21995 550 6.81995 547.91L10.5599 534.79C11.2899 532.22 11.0099 529.46 9.70993 527.13C8.23993 524.49 6.05994 521.86 3.46994 519.24C1.85994 517.61 2.60995 514.84 4.81995 514.26L27.5799 508.21L28.07 510.07L8.76993 515.2C6.56993 515.78 5.81993 518.54 7.42993 520.17Z" fill="white"/>
</g>
<path d="M23.1197 508.61L23.3097 509.34L10.4296 512.76L8.06966 503.88C7.80966 502.89 8.39967 501.87 9.38967 501.61L10.8596 501.22C13.4096 505.54 18.0997 508.32 23.1197 508.61Z" fill="#AFCADC"/>
<path d="M23.5498 509.48L10.2998 513L7.88982 503.93C7.59982 502.84 8.24981 501.71 9.34981 501.42L10.9598 500.99L11.0298 501.12C13.4998 505.33 18.1398 508.13 23.1298 508.42L23.2698 508.43L23.5498 509.48ZM10.5698 512.53L23.0798 509.21L22.9698 508.8C17.9598 508.46 13.3098 505.65 10.7798 501.44L9.44982 501.79C8.55982 502.03 8.02979 502.94 8.26979 503.83L10.5698 512.53Z" fill="#000072"/>
<g opacity="0.55">
<path d="M10.9898 501.18C11.1898 501.53 11.4198 501.87 11.6498 502.2L11.5198 502.24C10.5298 502.5 9.93979 503.52 10.1998 504.51L12.2598 512.28L10.5498 512.73L8.18978 503.85C7.92978 502.86 8.51979 501.84 9.50979 501.58L10.9898 501.18Z" fill="white"/>
</g>
<path d="M19.9401 479.42C13.6001 481.1 9.3101 486.64 8.9001 492.84L5.10012 491.67L0.430102 474.06C0.220102 473.29 0.150101 472.49 0.210101 471.69C0.820101 462.56 4.26012 454.76 11.8501 448.92L15.6301 463.16C9.62011 468.21 11.4001 477.94 19.9401 479.42Z" fill="#AFCADC"/>
<path d="M9.07987 493.1L4.9499 491.83L0.249883 474.12C0.0398832 473.33 -0.0401278 472.51 0.0198722 471.68C0.679872 461.83 4.50987 454.33 11.7399 448.77L11.9699 448.59L15.8499 463.23L15.7599 463.31C12.8699 465.73 11.6599 469.39 12.5899 472.85C13.4899 476.19 16.2499 478.57 19.9799 479.22L20.8399 479.37L19.9899 479.59C13.8799 481.21 9.49989 486.54 9.09989 492.84L9.07987 493.1ZM5.25989 491.53L8.71988 492.6C9.20988 486.49 13.3399 481.32 19.1399 479.46C15.6499 478.61 13.0799 476.22 12.2099 472.97C11.2499 469.4 12.4799 465.63 15.4099 463.11L11.7399 449.27C4.74987 454.74 1.03988 462.09 0.399877 471.72C0.349877 472.51 0.419878 473.29 0.619878 474.03L5.25989 491.53Z" fill="#000072"/>
<g opacity="0.3">
<path d="M17.2598 480.41C17.3098 480.39 17.3598 480.36 17.4098 480.34C17.4298 480.34 17.4498 480.35 17.4698 480.35C17.3998 480.37 17.3298 480.39 17.2598 480.41Z" fill="#262F6A"/>
<path d="M17.3199 480.6L17.1699 480.25C17.2199 480.22 17.2799 480.2 17.3299 480.17L17.3799 480.15L17.4799 480.16L18.2799 480.32L17.5199 480.53C17.4599 480.56 17.3899 480.58 17.3199 480.6Z" fill="#371A45"/>
</g>
<g opacity="0.3">
<path d="M17.8202 478.84C18.4102 479.07 18.4201 479.9 17.8301 480.16C17.6901 480.22 17.5502 480.28 17.4202 480.35C8.93017 478.83 6.55016 469.03 12.5402 464L9.16016 451.26C9.99016 450.45 10.8901 449.68 11.8601 448.94L15.6402 463.18C10.1502 467.76 11.1402 476.24 17.8202 478.84Z" fill="#262F6A"/>
<path d="M17.4399 480.54L17.3799 480.53C13.3299 479.8 10.3199 477.15 9.32993 473.43C8.39993 469.94 9.53995 466.3 12.3199 463.92L8.93994 451.19L9.01993 451.11C9.85993 450.3 10.7699 449.51 11.7299 448.77L11.9599 448.59L15.8399 463.23L15.7499 463.31C13.1199 465.52 11.8599 468.77 12.3999 472.01C12.8999 475.07 14.9 477.5 17.89 478.66C18.23 478.8 18.4499 479.11 18.4599 479.48C18.4699 479.86 18.2599 480.18 17.9099 480.33C17.7699 480.39 17.6399 480.45 17.4999 480.52L17.4399 480.54ZM9.36993 451.31L12.7499 464.06L12.6599 464.14C9.92994 466.43 8.79995 469.95 9.69995 473.34C10.65 476.89 13.5199 479.43 17.3799 480.15C17.4999 480.09 17.6199 480.04 17.7499 479.98C17.9899 479.88 18.0699 479.66 18.0699 479.49C18.0699 479.28 17.9499 479.1 17.7499 479.02C14.6399 477.81 12.5499 475.28 12.0199 472.08C11.4699 468.75 12.7399 465.4 15.4099 463.11L11.7399 449.27C10.8999 449.91 10.1099 450.6 9.36993 451.31Z" fill="#371A45"/>
</g>
<g opacity="0.55">
<path d="M11.8498 448.93L12.3898 450.98C6.31985 456.58 3.48984 463.7 2.93984 471.9C2.88984 472.7 2.95984 473.5 3.15984 474.27L7.82982 491.88L8.93984 492.22C8.91984 492.43 8.89985 492.64 8.88985 492.85L5.08983 491.68L0.419848 474.07C0.209848 473.3 0.139847 472.5 0.199847 471.7C0.819847 462.57 4.25984 454.77 11.8498 448.93Z" fill="white"/>
</g>
<g opacity="0.2">
<path d="M41.9299 494.08L44.2099 502.69C44.3499 503.22 44.0599 503.78 43.5599 503.97L30.6499 507.4C36.8999 504.37 39.9499 500.06 39.1799 494.2L41.6099 493.56C41.7599 493.69 41.8699 493.87 41.9299 494.08Z" fill="black"/>
</g>
<path d="M23.1197 508.61L23.3097 509.34L10.4296 512.76L8.06966 503.88C7.80966 502.89 8.39967 501.87 9.38967 501.61L10.8596 501.22C13.4096 505.54 18.0997 508.32 23.1197 508.61Z" stroke="#0D2232" stroke-width="4" stroke-miterlimit="10" stroke-linecap="round" stroke-linejoin="round"/>
<path d="M27.5801 508.21L31.1901 521.81C31.6701 523.61 32.7201 525.22 34.1801 526.38L48.9401 538.12C51.3701 540.05 53.1101 542.71 53.9001 545.7L61.2701 573.48C61.7401 575.26 63.7901 576.07 65.3701 575.11C69.0301 572.88 71.8701 570.3 73.4101 567.16C74.6501 564.63 74.8501 561.71 74.1201 558.98L68.5301 537.94C67.9701 535.83 66.8501 533.92 65.2901 532.39L55.5301 522.85C53.6201 520.98 52.4901 518.44 52.4601 515.77C52.4301 512.75 53.0201 509.39 53.9701 505.83C54.5601 503.61 52.5401 501.58 50.3201 502.17L27.5801 508.21Z" stroke="#0D2232" stroke-width="4" stroke-miterlimit="10" stroke-linecap="round" stroke-linejoin="round"/>
<path d="M27.5801 508.21L31.1902 521.81C31.6702 523.61 31.5501 525.52 30.8601 527.26L23.8601 544.77C22.7101 547.65 22.5202 550.82 23.3102 553.82L30.6801 581.6C31.1501 583.38 29.7701 585.1 27.9301 585.04C23.6501 584.92 19.9002 584.09 17.0002 582.13C14.6602 580.55 13.0502 578.11 12.3202 575.38L6.73017 554.34C6.17017 552.23 6.19016 550.02 6.79016 547.92L10.5302 534.8C11.2602 532.23 10.9801 529.47 9.68015 527.13C8.21015 524.49 6.03016 521.86 3.44016 519.24C1.83016 517.61 2.58016 514.85 4.79016 514.26L27.5801 508.21Z" stroke="#0D2232" stroke-width="4" stroke-miterlimit="10" stroke-linecap="round" stroke-linejoin="round"/>
<path d="M34.2401 465.1L38.9101 482.71L36.1801 485.62C32.9101 480.72 26.8701 477.99 20.8101 479.22C20.5201 479.28 20.2301 479.35 19.9401 479.42C21.1901 478.38 22.1001 477.2 22.6801 475.98C25.2201 470.67 21.8801 464.31 15.6101 463.17L11.8301 448.93C21.3201 450.24 28.1801 455.3 33.2301 462.93C33.7001 463.6 34.0301 464.33 34.2401 465.1Z" stroke="#0D2232" stroke-width="4" stroke-miterlimit="10" stroke-linecap="round" stroke-linejoin="round"/>
<path d="M41.93 494.08L44.2099 502.69C44.3499 503.22 44.06 503.78 43.56 503.97C43.52 503.98 43.49 503.99 43.45 504L27.87 508.14C26.29 508.56 24.69 508.71 23.12 508.62C18.1 508.32 13.41 505.55 10.87 501.22C10.22 500.12 9.70995 498.93 9.36995 497.64C8.93995 496.03 8.79995 494.42 8.89995 492.85C9.29995 486.64 13.59 481.11 19.94 479.43H19.95C20.24 479.35 20.52 479.29 20.82 479.23C26.88 478 32.92 480.73 36.19 485.63C37.15 487.07 37.86 488.69 38.28 490.45C38.55 491.59 38.67 492.73 38.67 493.85L40.63 493.33C40.99 493.23 41.36 493.34 41.62 493.57C41.76 493.69 41.87 493.87 41.93 494.08Z" stroke="#0D2232" stroke-width="4" stroke-miterlimit="10" stroke-linecap="round" stroke-linejoin="round"/>
<path d="M19.9401 479.42C13.6001 481.1 9.3101 486.64 8.9001 492.84L5.10012 491.67L0.430102 474.06C0.220102 473.29 0.150101 472.49 0.210101 471.69C0.820101 462.56 4.26012 454.76 11.8501 448.92L15.6301 463.16C9.62011 468.21 11.4001 477.94 19.9401 479.42Z" stroke="#0D2232" stroke-width="4" stroke-miterlimit="10" stroke-linecap="round" stroke-linejoin="round"/>
<path d="M23.7599 501.7C28.1119 501.7 31.6399 498.172 31.6399 493.82C31.6399 489.468 28.1119 485.94 23.7599 485.94C19.4079 485.94 15.8799 489.468 15.8799 493.82C15.8799 498.172 19.4079 501.7 23.7599 501.7Z" stroke="#0D2232" stroke-width="4" stroke-miterlimit="10" stroke-linecap="round" stroke-linejoin="round"/>
<path d="M76.08 525.67H55.5301C53.3401 525.67 51.5601 523.89 51.5601 521.7V520.57C51.5601 518.38 53.3401 516.6 55.5301 516.6H76.08C78.27 516.6 80.05 518.38 80.05 520.57V521.7C80.05 523.9 78.27 525.67 76.08 525.67Z" fill="#F9DC1B"/>
<path d="M74.41 525.67H57.27V532.75H74.41V525.67Z" fill="#F9DC1B"/>
<path d="M67.58 577.23H64.0301C57.1401 577.23 51.5601 571.65 51.5601 564.76V536.9C51.5601 534.61 53.4101 532.76 55.7001 532.76H75.9101C78.2001 532.76 80.05 534.61 80.05 536.9V564.76C80.05 571.64 74.46 577.23 67.58 577.23Z" fill="#F9DC1B"/>
<path d="M80.0502 519.65V522.63C80.0502 524.31 78.6903 525.67 77.0103 525.67H72.0103C73.6903 525.67 75.0502 524.31 75.0502 522.63V519.65C75.0502 517.97 73.6903 516.61 72.0103 516.61H77.0103C78.6903 516.61 80.0502 517.97 80.0502 519.65Z" fill="#E89F02"/>
<path d="M74.4199 525.68H69.4199V532.76H74.4199V525.68Z" fill="#E89F02"/>
<path d="M80.0502 535.78V563.4C80.0502 571.04 73.8602 577.23 66.2202 577.23H65.9502C70.9802 577.23 75.0602 573.15 75.0602 568.12V535.78C75.0602 534.11 73.7102 532.76 72.0402 532.76H77.0402C78.6902 532.75 80.0502 534.11 80.0502 535.78Z" fill="#E89F02"/>
<g opacity="0.55">
<path d="M58.1403 525.68H54.6103C52.9303 525.68 51.5703 524.32 51.5703 522.64V519.66C51.5703 517.98 52.9303 516.62 54.6103 516.62H58.1403C56.4603 516.62 55.1003 517.98 55.1003 519.66V522.64C55.0903 524.31 56.4603 525.68 58.1403 525.68Z" fill="white"/>
</g>
<g opacity="0.55">
<path d="M60.8 525.68H57.27V532.76H60.8V525.68Z" fill="white"/>
</g>
<g opacity="0.55">
<path d="M64.2001 577.23H60.6701C55.6401 577.23 51.5601 573.15 51.5601 568.12V535.78C51.5601 534.11 52.91 532.76 54.58 532.76H58.11C56.44 532.76 55.0901 534.11 55.0901 535.78V568.12C55.0901 573.15 59.1701 577.23 64.2001 577.23Z" fill="white"/>
</g>
<path d="M75.7402 477.9L73.4202 485.08H70.4402V516.61H61.5002V485.08H58.5202L56.2002 477.9L59.8402 457.36H72.1002L75.7402 477.9Z" fill="#AFCADC"/>
<path d="M70.61 516.77H61.33V485.24H58.39L56.02 477.91L56.03 477.87L59.7 457.19H72.23L75.91 477.91L73.54 485.24H70.6V516.77H70.61ZM61.66 516.44H70.27V484.91H73.3L75.57 477.89L71.96 457.53H59.98L56.37 477.89L58.64 484.91H61.67V516.44H61.66Z" fill="#000072"/>
<g opacity="0.2">
<path d="M69.6202 485.08H70.4402V516.61H67.6802V487.02C67.6802 485.95 68.5502 485.08 69.6202 485.08Z" fill="black"/>
</g>
<g opacity="0.2">
<path d="M75.7398 477.9L73.4199 485.08H70.6599L72.9799 477.9L69.3398 457.36H72.0999L75.7398 477.9Z" fill="black"/>
</g>
<g opacity="0.55">
<path d="M59.0603 477.9L61.3703 485.08H58.8503L56.5303 477.9L60.1703 457.36H62.7003L59.0603 477.9Z" fill="white"/>
</g>
<g opacity="0.55">
<path d="M64.3601 486.73V516.61H61.8301V485.08H62.7101C63.6201 485.08 64.3601 485.82 64.3601 486.73Z" fill="white"/>
</g>
<g opacity="0.2">
<path d="M65.4503 551.77C65.4503 555.43 63.9103 558.4 62.0003 558.4C60.1003 558.4 60.0703 555.43 60.0703 551.77C60.0703 548.11 60.1003 545.14 62.0003 545.14C63.9103 545.15 65.4503 548.12 65.4503 551.77Z" fill="white"/>
</g>
<path d="M76.08 525.67H55.5301C53.3401 525.67 51.5601 523.89 51.5601 521.7V520.57C51.5601 518.38 53.3401 516.6 55.5301 516.6H76.08C78.27 516.6 80.05 518.38 80.05 520.57V521.7C80.05 523.9 78.27 525.67 76.08 525.67Z" stroke="#0D2232" stroke-width="4" stroke-miterlimit="10" stroke-linecap="round" stroke-linejoin="round"/>
<path d="M74.41 525.67H57.27V532.75H74.41V525.67Z" stroke="#0D2232" stroke-width="4" stroke-miterlimit="10" stroke-linecap="round" stroke-linejoin="round"/>
<path d="M67.58 577.23H64.0301C57.1401 577.23 51.5601 571.65 51.5601 564.76V536.9C51.5601 534.61 53.4101 532.76 55.7001 532.76H75.9101C78.2001 532.76 80.05 534.61 80.05 536.9V564.76C80.05 571.64 74.46 577.23 67.58 577.23Z" stroke="#0D2232" stroke-width="4" stroke-miterlimit="10" stroke-linecap="round" stroke-linejoin="round"/>
<path d="M75.7402 477.9L73.4202 485.08H70.4402V516.61H61.5002V485.08H58.5202L56.2002 477.9L59.8402 457.36H72.1002L75.7402 477.9Z" stroke="#0D2232" stroke-width="4" stroke-miterlimit="10" stroke-linecap="round" stroke-linejoin="round"/>
<path d="M91.06 519.93V578.09C91.06 578.09 79.47 595.45 56.95 595.45C34.43 595.45 18.33 595.45 18.33 595.45L11.57 586.77C11.57 586.77 6.09996 545.95 5.45996 530.2C5.45996 530.2 67.25 531.85 91.06 519.93Z" fill="#FEC400"/>
<path d="M85.7998 522.15V565.81C85.7998 573.24 81.5999 580.05 74.9199 583.31C63.9299 588.68 43.8998 593.8 11.5898 586.78L18.3499 595.46L60.3499 595.7C60.3499 595.7 82.0698 592.89 91.0798 578.1V519.94L85.7998 522.15Z" fill="#E89F02"/>
<path d="M91.0597 519.93V574.29C91.0597 577 90.0297 579.6 88.1897 581.58C83.4697 586.65 72.9797 595.44 56.9497 595.44H23.5497C20.2597 595.44 17.1497 593.92 15.1297 591.32L13.3597 589.05C12.1897 587.55 11.4397 585.76 11.1997 583.88C9.94974 574.3 6.00973 543.41 5.46973 530.19C5.45973 530.2 67.2497 531.85 91.0597 519.93Z" stroke="#0D2232" stroke-width="4" stroke-miterlimit="10" stroke-linecap="round" stroke-linejoin="round"/>
<path d="M91.0595 535.02C91.0595 535.02 71.3395 551.92 6.97949 545.49" stroke="#0D2232" stroke-width="4" stroke-miterlimit="10" stroke-linecap="round" stroke-linejoin="round"/>
</g>
<defs>
<clipPath id="clip0_344_4031">
<rect width="421" height="722" fill="white"/>
</clipPath>
</defs>
</svg>
