<svg width="455" height="722" viewBox="0 0 455 722" fill="none" xmlns="http://www.w3.org/2000/svg">
<g clip-path="url(#clip0_344_5433)">
<path d="M126.532 656.609L199.962 656.609L199.962 635.109L126.532 635.109L126.532 656.609Z" fill="#435F84" stroke="#0D2232" stroke-width="6" stroke-miterlimit="10" stroke-linecap="round" stroke-linejoin="round"/>
<path d="M337.439 595.45V636.39L356.729 656.63L375.369 636.39L375.329 535.57H360.229L337.439 595.45Z" fill="#AFCADC"/>
<path d="M356.41 632.47C360.403 632.47 363.64 629.233 363.64 625.24C363.64 621.247 360.403 618.01 356.41 618.01C352.417 618.01 349.18 621.247 349.18 625.24C349.18 629.233 352.417 632.47 356.41 632.47Z" stroke="#0D2232" stroke-width="4" stroke-miterlimit="10" stroke-linecap="round" stroke-linejoin="round"/>
<path opacity="0.2" d="M375.369 536.66H368.729V632.47L356.789 644.4L344.369 631.97V542.92L337.439 543.38V636.39L357.209 656.15L376.169 637.19L375.369 536.66Z" fill="black"/>
<path d="M337.439 595.45V636.39L356.729 656.63L375.369 636.39V536.66H360.259L337.439 595.45Z" stroke="#0D2232" stroke-width="4" stroke-miterlimit="10" stroke-linecap="round" stroke-linejoin="round"/>
<path d="M357.31 145.08C357.31 145.08 351.33 150.43 324.91 152.63C298.48 154.83 112.52 160.42 112.52 160.42L101.07 154.83C101.07 154.83 74.7598 153.38 71.0298 145.08C67.2998 136.78 161.1 103.87 161.1 103.87L279.61 100.25L306.67 111.02L357.31 145.08Z" fill="#CFB300"/>
<path d="M357.31 145.08C357.31 145.08 351.33 150.43 324.91 152.63C298.48 154.83 112.52 160.42 112.52 160.42L101.07 154.83C101.07 154.83 74.7598 153.38 71.0298 145.08C67.2998 136.78 161.1 103.87 161.1 103.87L279.61 100.25L306.67 111.02L357.31 145.08Z" stroke="#0D2232" stroke-width="6" stroke-miterlimit="10" stroke-linecap="round" stroke-linejoin="round"/>
<path d="M102.11 193.85C102.11 193.85 71.9196 197.47 75.6896 232.39C79.4696 267.31 122.95 260.02 122.95 260.02L119.21 209.89L102.11 193.85Z" fill="#FBC6A6" stroke="#0D2232" stroke-width="6" stroke-miterlimit="10"/>
<path d="M333.72 193.85C333.72 193.85 356.69 197.63 358.42 223.11C360.15 248.59 331.81 271.1 309.64 262.2C287.47 253.3 303.83 215.24 303.83 215.24L333.72 193.85Z" fill="#FBC6A6" stroke="#0D2232" stroke-width="6" stroke-miterlimit="10"/>
<path opacity="0.4" d="M331.67 208.95C331.67 208.95 343.6 215.27 338.51 229.01C331.39 248.26 316.88 242.92 316.88 242.92L321.28 219.01L331.67 208.95Z" fill="black"/>
<path opacity="0.4" d="M97.7297 208.95C97.7297 208.95 85.7997 215.27 90.8897 229.01C98.0097 248.26 112.52 242.92 112.52 242.92L108.12 219.01L97.7297 208.95Z" fill="black"/>
<path d="M320.089 197.62V226.29C320.089 226.29 319.829 231.26 318.009 238.95C313.929 256.19 302.019 287.11 267.649 306.47C262.759 309.22 257.839 311.51 252.909 313.37C238.589 318.78 224.249 320.61 210.579 319.85C181.129 318.21 154.869 304.54 138.979 288.85C113.179 263.37 111.609 224.53 111.609 224.53V170.25L142.129 133.44L298.879 135.33L318.199 157.98L320.089 197.62Z" fill="#FBC6A6"/>
<path opacity="0.5" d="M158.6 292.89C178.92 307.55 197.97 315.04 212.59 318.86C183.14 317.22 156.88 303.55 140.99 287.86C115.19 262.38 113.62 223.54 113.62 223.54V213.94L122.08 207.32C122.07 207.32 114.56 261.11 158.6 292.89Z" fill="white"/>
<path opacity="0.5" d="M315.01 238.95C310.93 256.19 299.02 287.11 264.65 306.47C259.76 309.22 254.84 311.51 249.91 313.37C267.4 299.74 295.87 274.61 304.6 249.63C307.56 241.18 311.19 238.31 315.01 238.95Z" fill="white"/>
<path d="M357.31 145.08C357.31 145.08 346.3 140.99 331.51 140.99C316.72 140.99 96.6698 140.99 96.6698 140.99C96.6698 140.99 76.6898 140.2 71.0298 145.08V131.4C71.0298 126.1 75.3298 121.8 80.6298 121.8H347.72C353.02 121.8 357.32 126.1 357.32 131.4V145.08H357.31Z" fill="#F9DC1B"/>
<path d="M342.08 121.8C342.08 121.91 342.08 121.96 342.08 121.96H214.04V121.8H85.9997C85.9997 121.8 85.9997 121.77 85.9997 121.72C85.9597 120.67 85.5497 110.23 85.9997 105.45C86.4697 100.41 90.5597 100.26 90.5597 100.26C90.5597 100.26 97.6397 37.5001 169.05 16.7401C169.05 16.7401 168.42 4.15005 180.06 2.90005C191.7 1.64005 214.04 0.0700684 214.04 0.0700684V0.230057C214.04 0.230057 236.37 1.80006 248.01 3.06006C259.65 4.32006 259.02 16.9001 259.02 16.9001C330.43 37.6601 337.51 100.42 337.51 100.42C337.51 100.42 341.6 100.58 342.07 105.61C342.52 110.28 342.14 120.41 342.08 121.8Z" fill="#F9DC1B"/>
<path opacity="0.73" d="M342.08 121.8H331.2C331.2 121.8 325.69 57.6201 259.16 25.5301L259.12 18.2701C259.12 18.2701 206.95 1.93006 168.93 19.5501L169.41 29.9401C169.41 29.9401 110.36 46.2901 95.8897 121.48L85.9997 121.71C85.9597 120.66 85.5497 110.22 85.9997 105.44C86.4697 100.4 90.5597 100.25 90.5597 100.25C90.5597 100.25 97.6397 37.4901 169.05 16.7301C169.05 16.7301 168.42 4.14006 180.06 2.89006C191.7 1.63006 214.04 0.0600586 214.04 0.0600586V0.220062C214.04 0.220062 236.37 1.79006 248.01 3.05006C259.65 4.31006 259.02 16.8901 259.02 16.8901C330.43 37.6501 337.51 100.41 337.51 100.41C337.51 100.41 341.6 100.57 342.07 105.6C342.52 110.28 342.14 120.41 342.08 121.8Z" fill="white"/>
<path d="M342.08 105.6C341.61 100.57 337.52 100.41 337.52 100.41C337.52 100.41 330.44 37.6501 259.03 16.8901C259.03 16.8901 259.66 4.31006 248.02 3.05006C236.38 1.79006 214.04 0.220062 214.04 0.220062V0.0600586C214.04 0.0600586 191.7 1.63006 180.06 2.89006C168.42 4.15006 169.05 16.7301 169.05 16.7301C97.6399 37.4901 90.5599 100.25 90.5599 100.25C90.5599 100.25 86.4699 100.41 85.9999 105.44C85.5299 110.47 85.9999 121.8 85.9999 121.8H214.04V121.96H342.08C342.08 121.96 342.55 110.64 342.08 105.6Z" stroke="#0D2232" stroke-width="6" stroke-miterlimit="10" stroke-linecap="round" stroke-linejoin="round"/>
<path d="M258.4 329.86H288.729V495.54H138.979V329.86H258.4Z" fill="white"/>
<path d="M262.2 336.67H168.66V437.55H262.2V336.67Z" fill="#F9DC1B"/>
<path d="M288.729 458.73H138.979V495.54H288.729V458.73Z" fill="#F9DC1B"/>
<path d="M240.179 317.8C240.179 317.8 210.799 324.09 190.779 317.8L183.859 348.74L202.109 355.55C202.109 355.55 214.179 360.58 228.859 355.55C243.539 350.52 248.159 335.84 248.159 335.84L240.179 317.8Z" fill="#FBC6A6" stroke="#0D2232" stroke-width="6" stroke-miterlimit="10"/>
<path d="M259.22 351.83C258.43 363.68 256.53 374.64 256.53 374.64L228.84 355.55C228.84 355.55 232.01 348.04 234.62 340.6C236.14 336.25 237.48 331.91 237.86 329.12C238.91 321.57 240.17 317.8 240.17 317.8C240.17 317.8 256.32 316.96 258.83 331.85C259.79 337.41 259.7 344.77 259.22 351.83Z" fill="#435F84"/>
<path d="M259.22 351.83C252.09 351.3 243.79 347.75 239.51 344.71C237.79 343.48 236.11 342.12 234.62 340.6C236.14 336.25 237.48 331.91 237.86 329.12C238.91 321.57 240.17 317.8 240.17 317.8C240.17 317.8 256.32 316.96 258.83 331.85C259.79 337.41 259.7 344.77 259.22 351.83Z" fill="#253B5A"/>
<path d="M240.179 317.8C240.179 317.8 256.329 316.96 258.849 331.85C261.369 346.74 256.539 374.63 256.539 374.63L228.859 355.54C228.859 355.54 236.829 336.66 237.879 329.11C238.919 321.57 240.179 317.8 240.179 317.8Z" stroke="#0D2232" stroke-width="6" stroke-miterlimit="10"/>
<path d="M171.73 351.83C172.52 363.68 174.42 374.64 174.42 374.64L202.11 355.55C202.11 355.55 198.94 348.04 196.33 340.6C194.81 336.25 193.47 331.91 193.09 329.12C192.04 321.57 190.78 317.8 190.78 317.8C190.78 317.8 174.63 316.96 172.12 331.85C171.17 337.41 171.26 344.77 171.73 351.83Z" fill="#435F84"/>
<path d="M171.73 351.83C178.86 351.3 187.16 347.75 191.44 344.71C193.16 343.48 194.84 342.12 196.33 340.6C194.81 336.25 193.47 331.91 193.09 329.12C192.04 321.57 190.78 317.8 190.78 317.8C190.78 317.8 174.63 316.96 172.12 331.85C171.17 337.41 171.26 344.77 171.73 351.83Z" fill="#253B5A"/>
<path d="M190.78 317.8C190.78 317.8 174.63 316.96 172.11 331.85C169.59 346.74 174.42 374.63 174.42 374.63L202.1 355.54C202.1 355.54 194.13 336.66 193.08 329.11C192.03 321.56 190.78 317.8 190.78 317.8Z" stroke="#0D2232" stroke-width="6" stroke-miterlimit="10"/>
<path d="M193.619 389.31H154.609V424.96H193.619V389.31Z" fill="#F9DC1B" stroke="#0D2232" stroke-width="6" stroke-miterlimit="10"/>
<path d="M193.619 403.37H154.609" stroke="#0D2232" stroke-width="6" stroke-miterlimit="10"/>
<path d="M259.03 16.89C259.03 16.89 260.13 27.43 255.88 48.98Z" fill="#F9DC1B"/>
<path d="M259.03 16.89C259.03 16.89 260.13 27.43 255.88 48.98" stroke="#0D2232" stroke-width="6" stroke-miterlimit="10" stroke-linecap="round" stroke-linejoin="round"/>
<path d="M337.52 100.41H305.09C301.66 100.41 298.88 103.19 298.88 106.62V121.96" stroke="#0D2232" stroke-width="6" stroke-miterlimit="10" stroke-linecap="round" stroke-linejoin="round"/>
<path d="M169.05 16.73C169.05 16.73 167.95 27.27 172.2 48.82Z" fill="#F9DC1B"/>
<path d="M169.05 16.73C169.05 16.73 167.95 27.27 172.2 48.82" stroke="#0D2232" stroke-width="6" stroke-miterlimit="10" stroke-linecap="round" stroke-linejoin="round"/>
<path d="M90.5596 100.25H122.99C126.42 100.25 129.2 103.03 129.2 106.46V121.8" stroke="#0D2232" stroke-width="6" stroke-miterlimit="10" stroke-linecap="round" stroke-linejoin="round"/>
<path opacity="0.74" d="M343.94 131.19C337.48 128.73 330.38 128.78 323.48 128.85C273.03 129.39 222.58 129.92 172.13 130.46C149.71 130.7 127.3 130.94 104.88 131.18C94.9296 131.29 83.7696 131.91 77.0696 139.25C75.7496 140.7 74.4596 142.48 72.5196 142.77C69.5596 143.22 67.3696 139.78 67.3096 136.79C67.1896 131.18 71.5096 126.23 76.6096 123.87C81.7096 121.52 87.4896 121.24 93.0996 121.05C176.2 118.22 259.54 126.29 342.46 120.16C347.25 119.81 352.91 119.78 355.78 123.64C357.36 125.77 357.62 128.58 357.83 131.23C358.03 133.9 360.21 143.86 354.84 140.05C353.1 138.82 351.9 136.13 350.1 134.69C348.26 133.22 346.14 131.96 343.94 131.19Z" fill="white"/>
<path d="M357.31 145.08C357.31 145.08 346.3 140.99 331.51 140.99C316.72 140.99 96.6698 140.99 96.6698 140.99C96.6698 140.99 76.6898 140.2 71.0298 145.08V131.4C71.0298 126.1 75.3298 121.8 80.6298 121.8H347.72C353.02 121.8 357.32 126.1 357.32 131.4V145.08H357.31Z" stroke="#0D2232" stroke-width="6" stroke-miterlimit="10" stroke-linecap="round" stroke-linejoin="round"/>
<path d="M120.039 175.08C120.039 175.08 119.499 204.07 120.039 212.41C120.579 220.75 114.919 228.3 106.269 222.48C97.6195 216.66 99.2995 182.06 99.2995 182.06C99.2995 182.06 108.269 182.47 120.039 175.08Z" fill="#253B5A" stroke="#0D2232" stroke-width="6" stroke-miterlimit="10"/>
<path d="M167.479 221.47C176.338 221.47 183.519 214.289 183.519 205.43C183.519 196.571 176.338 189.39 167.479 189.39C158.621 189.39 151.439 196.571 151.439 205.43C151.439 214.289 158.621 221.47 167.479 221.47Z" fill="#0D2232"/>
<path d="M262.3 221.47C271.158 221.47 278.34 214.289 278.34 205.43C278.34 196.571 271.158 189.39 262.3 189.39C253.441 189.39 246.26 196.571 246.26 205.43C246.26 214.289 253.441 221.47 262.3 221.47Z" fill="#0D2232"/>
<path d="M283.17 177.19C281.88 177.19 280.59 176.75 279.54 175.84C279.05 175.43 268.27 166.47 252.47 168.94C249.43 169.42 246.58 167.34 246.11 164.3C245.63 161.26 247.71 158.41 250.75 157.94C271.84 154.64 286.23 166.89 286.83 167.42C289.15 169.44 289.4 172.96 287.38 175.28C286.28 176.54 284.73 177.19 283.17 177.19Z" fill="#0D2232"/>
<path d="M147.09 177.19C148.38 177.19 149.67 176.75 150.72 175.84C151.21 175.43 161.99 166.47 177.79 168.94C180.83 169.42 183.68 167.34 184.15 164.3C184.63 161.26 182.55 158.41 179.51 157.94C158.42 154.64 144.03 166.89 143.43 167.42C141.11 169.44 140.86 172.96 142.88 175.28C143.98 176.54 145.53 177.19 147.09 177.19Z" fill="#0D2232"/>
<path d="M264.53 252.87C260.34 260.56 254.18 268.93 245.38 275.09C237.61 280.53 227.78 284.24 215.43 284.24C201.96 284.24 191.53 279.82 183.51 273.57C175.82 267.58 170.35 259.89 166.54 252.79C163.21 246.56 165.2 239.46 170.07 235.51C172.41 233.61 175.41 232.44 178.8 232.44H252.32C255.71 232.44 258.71 233.61 261.05 235.51C265.94 239.48 267.93 246.64 264.53 252.87Z" fill="#162336"/>
<path d="M244.21 249.64C228.43 249.64 181.03 249.64 181.03 249.64C181.03 249.64 168.4 250.12 170.07 235.51C172.41 233.61 175.41 232.44 178.8 232.44H252.32C255.71 232.44 258.71 233.61 261.05 235.51C261.23 235.66 259.99 249.64 244.21 249.64Z" fill="white"/>
<path d="M245.38 275.09C237.61 280.53 227.78 284.24 215.43 284.24C201.96 284.24 191.53 279.82 183.51 273.57C188.24 263.16 205.75 259.68 223.4 260.65C236.99 261.39 242.9 269.42 245.38 275.09Z" fill="#DD1010"/>
<path d="M178.8 232.44H252.32C262.81 232.44 269.55 243.66 264.53 252.87C256.63 267.36 241.77 284.24 215.43 284.24C189.04 284.24 174.32 267.3 166.54 252.79C161.61 243.58 168.35 232.44 178.8 232.44Z" stroke="#0D2232" stroke-width="6" stroke-miterlimit="10"/>
<path d="M288.729 495.54H138.979V529.41H288.729V495.54Z" fill="#253B5A" stroke="#0D2232" stroke-width="6" stroke-miterlimit="10"/>
<path d="M239.549 495.54H192.149V529.41H239.549V495.54Z" fill="#C3CDD4" stroke="#0D2232" stroke-width="6" stroke-miterlimit="10"/>
<path d="M357.55 706H360.91C362.53 706 363.85 707.31 363.85 708.94V717.59C363.85 719.99 361.9 721.94 359.5 721.94H283.11L267.49 711.45V721.94H228.74C226.34 721.94 224.39 719.99 224.39 717.59V701.13C224.39 698.84 226.25 696.98 228.54 696.99H229.98L331.61 696.1L357.55 706Z" fill="#484D60" stroke="#0D2232" stroke-width="6" stroke-miterlimit="10" stroke-linecap="round" stroke-linejoin="round"/>
<path d="M359.12 702.23L357.55 706H287.55L269.46 696.98H229.96C229.96 696.98 228.15 688.28 229.67 677.5C230.61 670.81 232.84 663.32 237.58 656.61H297.77L302.49 661.65C302.49 661.65 310.98 661.96 311.61 669.83C311.61 669.83 313.1 669.08 315.67 668.26C320.74 666.64 330 664.71 340.24 667.63C355.66 672.03 362.9 691.85 359.12 702.23Z" fill="#E89F02"/>
<path d="M253.1 696.99H229.96C229.96 696.99 228.15 688.29 229.67 677.51C229.76 677.5 229.86 677.5 229.96 677.49C253.07 676.33 253.1 696.99 253.1 696.99Z" fill="#834526"/>
<path opacity="0.75" d="M359.12 702.23L357.55 706H347.48C347.48 706 356.44 673.71 315.68 668.25C320.75 666.63 330.01 664.7 340.25 667.62C355.66 672.03 362.9 691.85 359.12 702.23Z" fill="white"/>
<path d="M297.78 656.61L302.5 661.64C302.5 661.64 310.99 661.95 311.62 669.82C311.62 669.82 324.83 663.21 340.25 667.62C355.67 672.02 362.9 691.84 359.13 702.23L357.56 706.01H287.56L269.469 696.99H229.97C229.97 696.99 225.22 674.13 237.59 656.62H297.78V656.61Z" stroke="#0D2232" stroke-width="6" stroke-miterlimit="10" stroke-linecap="round" stroke-linejoin="round"/>
<path d="M311.62 669.83C311.62 669.83 291.38 676.44 287.55 706.01" stroke="#0D2232" stroke-width="6" stroke-miterlimit="10" stroke-linecap="round" stroke-linejoin="round"/>
<path d="M302.49 661.65C302.49 661.65 288.33 664.48 283.09 677.48" stroke="#0D2232" stroke-width="6" stroke-miterlimit="10" stroke-linecap="round" stroke-linejoin="round"/>
<path d="M302.5 635.12H229.07V656.62H302.5V635.12Z" fill="#435F84" stroke="#0D2232" stroke-width="6" stroke-miterlimit="10" stroke-linecap="round" stroke-linejoin="round"/>
<path d="M295.89 635.12L287.39 529.41H214.51V549.97L224.37 549.34L234.86 635.12H295.89Z" fill="#435F84" stroke="#0D2232" stroke-width="6" stroke-miterlimit="10" stroke-linecap="round" stroke-linejoin="round"/>
<path d="M71.4797 706H68.1197C66.4997 706 65.1797 707.31 65.1797 708.94V717.59C65.1797 719.99 67.1297 721.94 69.5297 721.94H145.92L161.54 711.45V721.94H200.29C202.69 721.94 204.64 719.99 204.64 717.59V701.13C204.64 698.84 202.78 696.98 200.49 696.99H199.05L97.4197 696.1L71.4797 706Z" fill="#484D60" stroke="#0D2232" stroke-width="6" stroke-miterlimit="10" stroke-linecap="round" stroke-linejoin="round"/>
<path d="M69.8999 702.23L71.4699 706H141.47L159.56 696.98H199.06C199.06 696.98 200.87 688.28 199.35 677.5C198.41 670.81 196.18 663.32 191.44 656.61H131.25L126.53 661.65C126.53 661.65 118.04 661.96 117.41 669.83C117.41 669.83 115.92 669.08 113.35 668.26C108.28 666.64 99.0199 664.71 88.7799 667.63C73.3699 672.03 66.1299 691.85 69.8999 702.23Z" fill="#E89F02"/>
<path d="M175.92 696.99H199.06C199.06 696.99 200.87 688.29 199.35 677.51C199.26 677.5 199.16 677.5 199.06 677.49C175.96 676.33 175.92 696.99 175.92 696.99Z" fill="#834526"/>
<path opacity="0.75" d="M69.9 702.23L71.47 706H81.54C81.54 706 72.58 673.71 113.34 668.25C108.27 666.63 99.01 664.7 88.77 667.62C73.37 672.03 66.13 691.85 69.9 702.23Z" fill="white"/>
<path d="M131.25 656.61L126.53 661.64C126.53 661.64 118.04 661.95 117.41 669.82C117.41 669.82 104.2 663.21 88.7797 667.62C73.3597 672.02 66.1297 691.84 69.8997 702.23L71.4697 706.01H141.47L159.56 696.99H199.06C199.06 696.99 203.81 674.13 191.44 656.62H131.25V656.61Z" stroke="#0D2232" stroke-width="6" stroke-miterlimit="10" stroke-linecap="round" stroke-linejoin="round"/>
<path d="M117.41 669.83C117.41 669.83 137.65 676.44 141.48 706.01" stroke="#0D2232" stroke-width="6" stroke-miterlimit="10" stroke-linecap="round" stroke-linejoin="round"/>
<path d="M126.53 661.65C126.53 661.65 140.69 664.48 145.93 677.48" stroke="#0D2232" stroke-width="6" stroke-miterlimit="10" stroke-linecap="round" stroke-linejoin="round"/>
<path d="M133.14 635.12L141.63 529.41H214.51V549.97L204.66 549.34L194.17 635.12H133.14Z" fill="#435F84" stroke="#0D2232" stroke-width="6" stroke-miterlimit="10" stroke-linecap="round" stroke-linejoin="round"/>
<path d="M96.9097 417.93C96.9097 417.93 83.6197 427.9 59.2097 419.72C34.7997 411.54 27.7197 383.65 27.7197 383.65V376.63L28.9097 376.45L70.3897 370.17H74.3097L87.6097 363.11L94.2997 393.94L95.0297 400.71L96.9097 417.93Z" fill="#FBC6A6"/>
<path opacity="0.16" d="M96.9097 417.93C96.9097 417.93 83.6197 427.9 59.2097 419.72C34.7997 411.54 27.7197 383.65 27.7197 383.65V376.63L28.9097 376.45C36.2597 384.96 44.7997 392.45 54.1897 398.63C56.9397 400.43 59.7697 402.14 62.8197 403.37C71.0197 406.68 80.2397 406.21 88.5197 403.45C90.6497 402.74 92.7397 401.87 94.7497 400.87C94.8397 400.83 94.9297 400.78 95.0297 400.71L96.9097 417.93Z" fill="black"/>
<path d="M74.3197 370.16H70.3997L27.7197 376.63V383.66C27.7197 383.66 34.7997 411.55 59.2097 419.73C83.6197 427.91 96.9097 417.94 96.9097 417.94L94.3097 393.94L87.6197 363.11L74.3197 370.16Z" stroke="#0D2232" stroke-width="6" stroke-miterlimit="10" stroke-linecap="round" stroke-linejoin="round"/>
<path d="M126.72 415.11L101.13 426.85L78.1797 378.32L71.9697 365.19L96.5097 353.03L103.27 366.92L126.72 415.11Z" fill="#435F84"/>
<path opacity="0.21" d="M103.27 366.92L103.24 366.96L78.1797 378.32L71.9697 365.19L96.5097 353.03L103.27 366.92Z" fill="white"/>
<path d="M138.99 336.67V403.37L124.41 410.92L103.24 366.96L98.8198 357.78L138.99 336.67Z" fill="#F9DC1B"/>
<path opacity="0.5" d="M138.99 336.67V348.62L103.24 366.96L98.8198 357.78L138.99 336.67Z" fill="white"/>
<path d="M66.9397 351.82C66.9397 351.82 76.1697 361.85 70.5097 374.64C70.5097 374.64 68.1997 383.66 53.9397 383.66H25.3097C21.3097 383.66 17.5597 382.6 14.3197 380.74C7.6697 376.93 3.17969 369.75 3.17969 361.54V325.04C3.17969 312.82 13.0897 302.92 25.3097 302.92H56.2397C56.2397 302.92 71.9697 302.5 73.6497 315.5C73.6497 315.5 76.3697 325.78 67.3597 328.71C67.3597 328.7 83.2997 340.74 66.9397 351.82Z" fill="#FBC6A6"/>
<path opacity="0.5" d="M73.6497 315.49C73.6497 315.49 67.5697 311.72 50.9997 311.72C34.4297 311.72 30.2397 311.72 30.2397 311.72C30.2397 311.72 14.0897 310.46 14.2997 324.93C14.4597 336.13 14.3697 367.24 14.3197 380.73C7.6697 376.92 3.17969 369.74 3.17969 361.53V325.03C3.17969 312.81 13.0897 302.91 25.3097 302.91H56.2397C56.2497 302.91 71.9697 302.48 73.6497 315.49Z" fill="white"/>
<path d="M66.9397 351.82C66.9397 351.82 76.1697 361.85 70.5097 374.64C70.5097 374.64 68.1997 383.66 53.9397 383.66H25.3097C13.0897 383.66 3.17969 373.75 3.17969 361.53V325.04C3.17969 312.82 13.0897 302.91 25.3097 302.91H56.2497C56.2497 302.91 71.9797 302.49 73.6597 315.49C73.6597 315.49 76.3897 325.77 67.3697 328.7C67.3597 328.7 83.2997 340.74 66.9397 351.82Z" stroke="#0D2232" stroke-width="6" stroke-miterlimit="10" stroke-linecap="round" stroke-linejoin="round"/>
<path d="M31.5 328.65H67.36" stroke="#0D2232" stroke-width="6" stroke-miterlimit="10" stroke-linecap="round" stroke-linejoin="round"/>
<path d="M31.5 351.82H67.36" stroke="#0D2232" stroke-width="6" stroke-miterlimit="10" stroke-linecap="round" stroke-linejoin="round"/>
<path d="M59.2095 303.1V283.83C59.2095 275.13 52.1595 268.09 43.4695 268.09C34.7695 268.09 27.7295 275.14 27.7295 283.83V302.9L59.2095 303.1Z" fill="#FBC6A6"/>
<path d="M59.2095 303.1V283.83C59.2095 275.13 52.1595 268.09 43.4695 268.09C34.7695 268.09 27.7295 275.14 27.7295 283.83V302.9L59.2095 303.1Z" stroke="#0D2232" stroke-width="6" stroke-miterlimit="10" stroke-linecap="round" stroke-linejoin="round"/>
<g opacity="0.16">
<path d="M118.9 140.99H320.09L324.91 152.63H112.52L118.9 140.99Z" fill="black"/>
<path d="M99.2896 182.06C99.2896 182.06 134.91 190.84 170.56 152.64L138.98 147.85L99.2896 182.06Z" fill="black"/>
<path d="M186.49 179.37C186.49 179.37 239.64 188.19 273.71 146.81L244.21 147.84L186.49 179.37Z" fill="black"/>
</g>
<path opacity="0.16" d="M316.89 205.43C316.89 205.43 299.59 302.81 196.33 315.33C196.33 315.33 304.46 330.69 317.83 226.24L316.89 205.43Z" fill="black"/>
<path d="M138.979 373L111.609 384.35L124.409 410.92L138.979 403.37V373Z" fill="#E89F02"/>
<path d="M282.709 477.14H144.899V489.43H282.709V477.14Z" fill="#E89F02"/>
<path d="M258.829 329.86H289.259V495.54H138.979V329.86H168.769" stroke="#0D2232" stroke-width="6" stroke-miterlimit="10"/>
<path d="M96.5095 353.03L126.709 415.11L101.129 426.86L71.9795 365.19L96.5095 353.03Z" stroke="#0D2232" stroke-width="6" stroke-miterlimit="10" stroke-linecap="round" stroke-linejoin="round"/>
<path d="M151.88 140.99C151.88 140.99 124.82 187.24 92.7297 181.57C89.8197 181.05 87.1997 180.47 84.8697 179.85C61.5197 173.57 65.6797 162.44 65.6797 162.44C65.6797 162.44 85.1997 167.8 98.7097 142.81C99.0297 142.22 99.3397 141.62 99.6497 141H151.88V140.99Z" fill="#253B5A"/>
<path opacity="0.21" d="M90.5597 164.9C81.5697 170.4 77.9497 170.25 77.9497 170.25C77.9497 170.25 76.8497 174.82 84.8697 179.85C61.5197 173.57 65.6797 162.44 65.6797 162.44C65.6797 162.44 87.5597 165.98 101.07 140.99C101.09 141.33 99.4597 159.46 90.5597 164.9Z" fill="white"/>
<path d="M364.23 166.79C364.23 166.79 350.87 187.52 327.56 182.81C314.21 180.11 297.59 169.06 278.34 141L335.9 141.12C335.9 141.12 336.08 144.01 337.3 147.85C339.76 155.52 346.41 167 364.23 166.79Z" fill="#253B5A"/>
<path opacity="0.21" d="M364.23 166.79C364.23 166.79 350.87 187.52 327.56 182.81C330.22 182.05 332.8 180.96 335.27 179.73C340.25 177.24 344.91 174.15 349.86 171.6C344.36 171.34 339.46 167.28 337.3 162.21C335.78 158.63 334.72 152.66 336.46 148.97C336.69 148.48 336.99 148.11 337.32 147.86C339.76 155.52 346.41 167 364.23 166.79Z" fill="white"/>
<path d="M335.91 141.11C335.91 141.11 337.49 167.1 364.23 166.79C364.23 166.79 331.2 218.07 278.35 140.99L335.91 141.11Z" stroke="#0D2232" stroke-width="6" stroke-miterlimit="10" stroke-linecap="round" stroke-linejoin="round"/>
<path d="M251.61 140.99C251.61 140.99 239.34 174.34 186.49 179.37C186.49 179.37 195.61 163.01 195.61 140.99H251.61Z" fill="#253B5A" stroke="#0D2232" stroke-width="6" stroke-miterlimit="10" stroke-linecap="round" stroke-linejoin="round"/>
<path d="M151.88 140.99C151.88 140.99 124.82 187.24 92.7398 181.57C60.6598 175.9 65.6798 162.43 65.6798 162.43C65.6798 162.43 86.1298 168.04 99.6598 140.98H151.88V140.99Z" stroke="#0D2232" stroke-width="6" stroke-miterlimit="10" stroke-linecap="round" stroke-linejoin="round"/>
<path d="M320.089 226.29C320.089 226.29 317.359 278.47 267.649 306.47C217.939 334.47 164.779 314.33 138.979 288.85C113.179 263.37 111.609 224.53 111.609 224.53" stroke="#0D2232" stroke-width="6" stroke-miterlimit="10"/>
<path d="M333.719 183.5C333.719 183.5 333.249 210.21 332.149 215.4C331.049 220.59 326.489 227.04 317.839 226.25C309.189 225.46 309.499 214.3 309.349 206.43C309.189 198.57 309.349 174.54 309.349 174.54C309.349 174.54 321.129 183.85 333.719 183.5Z" fill="#253B5A" stroke="#0D2232" stroke-width="6" stroke-miterlimit="10" stroke-linecap="round" stroke-linejoin="round"/>
<path d="M232.35 529.41L255.2 656.61H237.58H229.07V635.12H234.86L224.37 546L214.51 549.97V529.41H232.35Z" fill="#253B5A"/>
<path d="M178.349 635.12L174.109 656.61H199.959V635.12H194.169L204.659 546L214.509 549.97V529.41H192.149L178.349 635.12Z" fill="#253B5A"/>
<path d="M224.37 549.34L236.74 547.87" stroke="#0D2232" stroke-width="6" stroke-miterlimit="10" stroke-linecap="round" stroke-linejoin="round"/>
<path d="M204.66 549.34L192.28 547.87" stroke="#0D2232" stroke-width="6" stroke-miterlimit="10" stroke-linecap="round" stroke-linejoin="round"/>
<path d="M287.39 529.41H273.93L283.09 635.12H289.26V656.61H302.49V635.12H295.89L287.39 529.41Z" fill="#C3CDD4"/>
<path d="M142.289 529.41H155.759L146.589 635.12H140.429V656.61H127.189V635.12H133.799L142.289 529.41Z" fill="#C3CDD4"/>
<path d="M302.5 635.12H229.07V656.62H302.5V635.12Z" stroke="#0D2232" stroke-width="6" stroke-miterlimit="10" stroke-linecap="round" stroke-linejoin="round"/>
<path d="M295.89 635.12L287.39 529.41H214.51V549.97L224.37 549.34L234.86 635.12H295.89Z" stroke="#0D2232" stroke-width="6" stroke-miterlimit="10" stroke-linecap="round" stroke-linejoin="round"/>
<path d="M133.14 635.12L141.63 529.41H214.51V549.97L204.66 549.34L194.17 635.12H133.14Z" stroke="#0D2232" stroke-width="6" stroke-miterlimit="10" stroke-linecap="round" stroke-linejoin="round"/>
<path d="M365.37 542.09H348.17V607.23H365.37V542.09Z" fill="#E89F02"/>
<path d="M454.82 521.34V531.68C454.82 534.43 452.58 536.66 449.83 536.66H371.36C368.61 536.66 366.38 534.43 366.38 531.68V521.34C366.38 520.74 366.49 520.16 366.68 519.63C367.37 517.72 369.21 516.35 371.36 516.35H449.83C451.98 516.35 453.82 517.72 454.52 519.63C454.71 520.16 454.82 520.74 454.82 521.34Z" fill="#AFCADC"/>
<path opacity="0.2" d="M366.37 530.58V531.68C366.37 534.43 368.6 536.67 371.35 536.67H449.82C452.57 536.67 454.8 534.44 454.8 531.68V530.58H366.37Z" fill="black"/>
<path opacity="0.7" d="M454.509 519.63H366.669C367.359 517.72 369.199 516.35 371.349 516.35H449.819C451.979 516.35 453.809 517.71 454.509 519.63Z" fill="white"/>
<path d="M454.82 521.34V531.68C454.82 534.43 452.58 536.66 449.83 536.66H371.36C368.61 536.66 366.38 534.43 366.38 531.68V521.34C366.38 520.74 366.49 520.16 366.68 519.63C367.37 517.72 369.21 516.35 371.36 516.35H449.83C451.98 516.35 453.82 517.72 454.52 519.63C454.71 520.16 454.82 520.74 454.82 521.34Z" stroke="#0D2232" stroke-width="4" stroke-miterlimit="10" stroke-linecap="round" stroke-linejoin="round"/>
<path d="M280.87 535.02C280.87 535.02 302.08 551.73 366.37 545.31" stroke="white" stroke-miterlimit="10"/>
<path d="M262.87 495.16V583.88L274.44 595.45H353.51L342.91 587.09L343.55 495.16H262.87Z" fill="#F9DC1B"/>
<path d="M272.51 495.16V578.32L279.26 587.09H360.26L353.51 595.45H274.44L262.87 583.88V495.16H272.51Z" fill="#E89F02"/>
<path d="M275.079 507.52H269.939V512.66H275.079V507.52Z" fill="white"/>
<path d="M275.079 523.93H269.939V529.07H275.079V523.93Z" fill="white"/>
<path d="M275.079 540.35H269.939V545.49H275.079V540.35Z" fill="white"/>
<path d="M275.079 556.76H269.939V561.9H275.079V556.76Z" fill="white"/>
<path d="M275.079 573.17H269.939V578.31H275.079V573.17Z" fill="white"/>
<path d="M343.55 530.2V495.16H262.87V583.88L274.44 595.45H346.44" stroke="#0D2232" stroke-width="4" stroke-miterlimit="10" stroke-linecap="round" stroke-linejoin="round"/>
<path d="M143.3 519.93V579.37C143.3 579.37 118.87 598.01 81.5897 595.44C81.5897 595.44 66.1597 571.01 61.6597 530.19C61.6597 530.2 125.94 533.78 143.3 519.93Z" stroke="white" stroke-miterlimit="10"/>
<path d="M64.21 546.78C64.21 546.78 117.59 547.24 143.3 535.02" stroke="white" stroke-miterlimit="10"/>
<path d="M77.0396 586.81C77.0396 586.81 109.22 587.73 127.87 577.45L123.75 527.27L143.3 519.93V579.37C143.3 579.37 121.44 596.73 81.5895 595.44L77.0396 586.81Z" stroke="white" stroke-miterlimit="10"/>
<path d="M143.47 535.02C143.47 535.02 122.23 551.73 57.8696 545.31" stroke="white" stroke-miterlimit="10"/>
<path d="M161.49 495.16V583.88L149.9 595.45H70.7397L81.3597 587.09L80.7198 495.16H161.49Z" fill="#F9DC1B"/>
<path d="M151.83 495.16V578.32L145.08 587.09H63.98L70.74 595.45H149.9L161.49 583.88V495.16H151.83Z" fill="#E89F02"/>
<path d="M149.26 512.667H154.41V507.527H149.26V512.667Z" fill="white"/>
<path d="M149.26 529.082H154.41V523.942H149.26V529.082Z" fill="white"/>
<path d="M149.26 545.488H154.41V540.348H149.26V545.488Z" fill="white"/>
<path d="M149.26 561.903H154.41V556.763H149.26V561.903Z" fill="white"/>
<path d="M149.26 578.319H154.41V573.179H149.26V578.319Z" fill="white"/>
<path d="M80.7201 530.2V495.16H161.49V583.88L149.9 595.45L71.8101 594.61" stroke="#0D2232" stroke-width="4" stroke-miterlimit="10" stroke-linecap="round" stroke-linejoin="round"/>
<path d="M86.64 465.1L91.31 482.71L88.58 485.62C85.31 480.72 79.27 477.99 73.21 479.22C72.92 479.28 72.63 479.35 72.34 479.42C73.59 478.38 74.5 477.2 75.08 475.98C77.62 470.67 74.28 464.31 68.01 463.17L64.23 448.93C73.72 450.24 80.58 455.3 85.63 462.93C86.1 463.6 86.44 464.33 86.64 465.1Z" fill="#AFCADC"/>
<path d="M88.56 485.93L88.43 485.73C85.13 480.78 79.04 478.24 73.26 479.41C72.99 479.46 72.71 479.53 72.41 479.61L71.57 479.83L72.24 479.27C73.43 478.28 74.34 477.15 74.93 475.89C76.09 473.47 76.04 470.7 74.81 468.29C73.48 465.7 71 463.9 68 463.35L67.88 463.33L64 448.7L64.29 448.74C73.32 449.99 80.37 454.59 85.83 462.82C86.29 463.51 86.63 464.26 86.84 465.05L91.54 482.76L88.56 485.93ZM73.06 479.05C73.1 479.04 73.14 479.03 73.19 479.02C79.04 477.83 85.2 480.35 88.62 485.3L91.11 482.64L86.46 465.14C86.26 464.39 85.94 463.68 85.5 463.02C80.16 454.98 73.3 450.43 64.52 449.15L68.19 462.99C71.25 463.58 73.79 465.44 75.15 468.11C76.44 470.63 76.48 473.52 75.27 476.05C74.75 477.15 74.01 478.16 73.06 479.05Z" fill="#000072"/>
<g opacity="0.55">
<path d="M75.0698 478.97C74.4598 479.01 73.8398 479.1 73.2198 479.22C72.9298 479.28 72.6398 479.35 72.3498 479.42C73.5998 478.38 74.5098 477.2 75.0898 475.98C77.6298 470.67 74.2897 464.31 68.0197 463.17L64.2397 448.93C65.2597 449.07 66.2398 449.25 67.1898 449.48L70.7097 462.73C76.9797 463.87 80.3198 470.22 77.7798 475.54C77.2098 476.76 76.3098 477.93 75.0698 478.97Z" fill="white"/>
</g>
<g opacity="0.55">
<path d="M75.1295 478.96L75.0396 478.98C75.0496 478.97 75.0495 478.97 75.0595 478.96C75.0895 478.96 75.1095 478.96 75.1295 478.96Z" fill="white"/>
<path d="M75.1795 479.15L74.2695 479.39L75.0096 478.78C75.0496 478.77 75.0795 478.77 75.0995 478.77L76.7296 478.73L75.1795 479.15Z" fill="#371A45"/>
</g>
<path d="M94.3299 494.08L96.6099 502.69C96.7499 503.22 96.4599 503.78 95.9599 503.97C95.9199 503.98 95.8899 503.99 95.8499 504L80.2699 508.14C78.6899 508.56 77.0899 508.71 75.5199 508.62C70.4999 508.32 65.8099 505.55 63.2699 501.22C62.6199 500.12 62.1099 498.93 61.7699 497.64C61.3399 496.03 61.1999 494.42 61.2999 492.85C61.6999 486.64 65.9899 481.11 72.3399 479.43H72.3499C72.6399 479.35 72.9199 479.29 73.2199 479.23C79.2799 478 85.3199 480.73 88.5899 485.63C89.5499 487.07 90.2599 488.69 90.6799 490.45C90.9499 491.59 91.0699 492.73 91.0699 493.85L93.0299 493.33C93.3899 493.23 93.7599 493.34 94.0199 493.57C94.1599 493.69 94.2799 493.87 94.3299 494.08Z" fill="#AFCADC"/>
<path d="M95.9099 504.19L80.3299 508.33C78.7599 508.75 77.1399 508.91 75.5199 508.81C70.3999 508.51 65.6499 505.64 63.1099 501.32C62.4399 500.19 61.9299 498.97 61.5899 497.7C61.1699 496.1 61.0099 494.47 61.1099 492.84C61.5299 486.37 66.0199 480.91 72.2899 479.24C72.6199 479.15 72.8999 479.09 73.1799 479.03C79.0999 477.83 85.3599 480.43 88.7399 485.51C89.7299 487 90.4399 488.64 90.8499 490.39C91.0999 491.44 91.2299 492.52 91.2399 493.59L92.9599 493.13C93.3699 493.02 93.8099 493.12 94.1199 493.41C94.3099 493.57 94.4399 493.79 94.4999 494.03L96.7799 502.64C96.9499 503.27 96.6099 503.92 96.0099 504.15C95.9899 504.16 95.9499 504.17 95.9099 504.19ZM72.4099 479.6C66.2899 481.23 61.9099 486.55 61.4999 492.85C61.3899 494.44 61.5499 496.03 61.9599 497.58C62.2899 498.82 62.7899 500.01 63.4399 501.11C65.9099 505.32 70.5499 508.12 75.5399 508.41C77.1199 508.5 78.6999 508.35 80.2299 507.94L95.8099 503.8C95.8399 503.79 95.8699 503.78 95.8999 503.77C96.3199 503.61 96.5499 503.16 96.4399 502.72L94.1599 494.11C94.1199 493.94 94.0199 493.79 93.8899 493.68C93.6699 493.48 93.3699 493.41 93.0799 493.48L90.8799 494.06V493.81C90.8799 492.69 90.7499 491.56 90.4899 490.45C90.0899 488.74 89.3999 487.14 88.4299 485.69C85.1299 480.74 79.0399 478.2 73.2599 479.37C72.9899 479.46 72.7099 479.52 72.4099 479.6Z" fill="#000072"/>
<g opacity="0.3">
<path d="M86.64 465.1L91.31 482.71L88.58 485.62C88.4 485.35 88.21 485.08 88.01 484.82C84.64 480.42 78.94 478.05 73.21 479.22C72.92 479.28 72.63 479.35 72.34 479.42C73.59 478.38 74.5 477.2 75.08 475.98C75.16 475.95 75.25 475.93 75.33 475.91H75.35C75.63 475.84 75.92 475.77 76.22 475.71C78.86 475.17 81.49 475.39 83.89 476.21C85.35 476.71 86.77 475.41 86.38 473.92L84.32 466.17C84.12 465.4 83.78 464.67 83.34 464C78.78 457.12 72.75 452.33 64.66 450.5L64.25 448.95C73.74 450.26 80.6 455.32 85.65 462.95C86.1 463.6 86.44 464.33 86.64 465.1Z" fill="black"/>
<path d="M88.56 485.93L88.43 485.73C88.25 485.45 88.06 485.19 87.87 484.95C84.45 480.48 78.72 478.31 73.26 479.42C72.99 479.47 72.71 479.54 72.41 479.62L71.57 479.84L72.24 479.28C73.43 478.29 74.34 477.16 74.93 475.9L74.97 475.82L75.05 475.79C75.45 475.66 75.86 475.58 76.2 475.51C78.78 474.99 81.46 475.16 83.97 476.01C84.59 476.22 85.25 476.08 85.73 475.64C86.2 475.2 86.38 474.58 86.21 473.96L84.15 466.21C83.95 465.47 83.63 464.76 83.19 464.09C78.35 456.79 72.28 452.4 64.62 450.67L64.51 450.64L64 448.7L64.29 448.74C73.32 449.99 80.37 454.59 85.83 462.82C86.29 463.51 86.63 464.26 86.84 465.05L91.54 482.76L88.56 485.93ZM73.06 479.05C73.1 479.04 73.14 479.03 73.19 479.02C78.79 477.88 84.67 480.11 88.18 484.7C88.33 484.89 88.48 485.09 88.62 485.31L91.11 482.65L86.46 465.15C86.26 464.4 85.94 463.69 85.5 463.03C80.16 454.99 73.3 450.44 64.52 449.16L64.83 450.32C72.53 452.09 78.64 456.53 83.52 463.88C83.98 464.58 84.32 465.33 84.53 466.11L86.59 473.86C86.79 474.62 86.57 475.39 86 475.92C85.42 476.46 84.62 476.63 83.85 476.38C81.41 475.55 78.79 475.38 76.28 475.89C76.01 475.94 75.7 476.01 75.42 476.09C75.36 476.11 75.3 476.12 75.25 476.14C74.72 477.2 73.99 478.18 73.06 479.05Z" fill="#371A45"/>
</g>
<g opacity="0.55">
<path d="M83.2299 480.74C80.8099 479.9 78.1399 479.67 75.4699 480.21C75.1799 480.27 74.8899 480.34 74.5999 480.41H74.5899C68.2499 482.09 63.9599 487.63 63.5499 493.83C63.4499 495.4 63.5899 497.02 64.0199 498.62C64.3599 499.9 64.8699 501.1 65.5199 502.2C66.9199 504.58 68.9599 506.49 71.3599 507.77C68.0099 506.6 65.0899 504.3 63.2699 501.2C62.6199 500.1 62.1099 498.91 61.7699 497.62C61.3399 496.01 61.1999 494.4 61.2999 492.83C61.6999 486.62 65.9899 481.09 72.3399 479.41H72.3499C72.6399 479.33 72.9199 479.27 73.2199 479.21C76.7399 478.5 80.2599 479.13 83.2299 480.74Z" fill="white"/>
</g>
<path d="M76.1696 501.7C80.5216 501.7 84.0495 498.172 84.0495 493.82C84.0495 489.468 80.5216 485.94 76.1696 485.94C71.8176 485.94 68.2896 489.468 68.2896 493.82C68.2896 498.172 71.8176 501.7 76.1696 501.7Z" fill="#CECEDD"/>
<g opacity="0.55">
<path d="M86.2498 493.23C87.3698 497.44 84.8598 501.75 80.6598 502.87C78.0598 503.56 75.4198 502.87 73.5098 501.24C74.9598 501.76 76.5798 501.86 78.1898 501.44C82.3998 500.32 84.8998 496.01 83.7798 491.8C83.3498 490.2 82.4598 488.84 81.2898 487.84C83.6498 488.68 85.5598 490.63 86.2498 493.23Z" fill="white"/>
</g>
<g opacity="0.3">
<path d="M80.9697 487.57C79.6797 487.21 78.2798 487.19 76.8898 487.56C72.6798 488.68 70.1797 492.99 71.2997 497.2C71.7597 498.95 72.7797 500.4 74.1197 501.42C71.4897 500.71 69.3097 498.66 68.5597 495.84C67.4397 491.63 69.9497 487.32 74.1497 486.2C76.6097 485.55 79.0997 486.13 80.9697 487.57Z" fill="black"/>
<path d="M74.9998 501.86L74.0598 501.61C71.2798 500.86 69.0997 498.67 68.3597 495.89C67.2197 491.59 69.7898 487.16 74.0898 486.02C76.5298 485.37 79.0797 485.88 81.0797 487.42L81.8597 488.02L80.9098 487.76C79.6198 487.4 78.2497 487.4 76.9297 487.75C72.8297 488.84 70.3798 493.06 71.4698 497.15C71.9098 498.8 72.8598 500.23 74.2198 501.27L74.9998 501.86ZM74.1998 486.39C70.0998 487.48 67.6497 491.7 68.7397 495.79C69.3597 498.12 71.0498 500.02 73.2498 500.93C72.2198 499.92 71.4897 498.67 71.1097 497.25C69.9697 492.95 72.5398 488.52 76.8398 487.38C77.8898 487.1 78.9897 487.04 80.0497 487.19C78.2897 486.15 76.2098 485.85 74.1998 486.39Z" fill="#371A45"/>
</g>
<path d="M79.9897 508.21L83.5998 521.81C84.0798 523.61 85.1298 525.22 86.5898 526.38L101.35 538.12C103.78 540.05 105.52 542.71 106.31 545.7L113.68 573.48C114.15 575.26 116.2 576.07 117.78 575.11C121.44 572.88 124.28 570.3 125.82 567.16C127.06 564.63 127.26 561.71 126.53 558.98L120.94 537.94C120.38 535.83 119.26 533.92 117.7 532.39L107.94 522.85C106.03 520.98 104.9 518.44 104.87 515.77C104.84 512.75 105.43 509.39 106.38 505.83C106.97 503.61 104.95 501.58 102.73 502.17L79.9897 508.21Z" fill="#F9DC1B"/>
<path d="M120.95 537.93L126.54 558.98C127.26 561.71 127.07 564.63 125.83 567.16C124.29 570.3 121.44 572.88 117.78 575.11C116.7 575.77 115.4 575.59 114.54 574.85C117.62 572.8 120.02 570.45 121.39 567.66C122.63 565.13 122.83 562.21 122.1 559.48L116.51 538.43C115.95 536.32 114.83 534.41 113.27 532.88L103.51 523.34C101.6 521.47 100.48 518.93 100.45 516.26C100.42 513.24 101.01 509.88 101.96 506.32C102.36 504.81 101.55 503.38 100.29 502.82L102.76 502.17C104.98 501.58 107 503.61 106.41 505.83C105.46 509.39 104.87 512.75 104.9 515.77C104.93 518.44 106.06 520.98 107.96 522.85L117.72 532.39C119.27 533.91 120.39 535.83 120.95 537.93Z" fill="#E89F02"/>
<g opacity="0.55">
<path d="M116.9 574.61C116.97 574.88 117.08 575.14 117.22 575.36C115.75 575.86 114.1 575.05 113.68 573.47L106.31 545.69C105.52 542.7 103.78 540.04 101.35 538.11L86.5898 526.37C85.1298 525.21 84.0798 523.61 83.5998 521.8L79.9897 508.2L102.76 502.16C104.05 501.82 105.26 502.36 105.95 503.3L83.2097 509.33L86.8198 522.93C87.2998 524.74 88.3498 526.34 89.8098 527.5L104.57 539.24C106.99 541.17 108.73 543.83 109.53 546.82L116.9 574.61Z" fill="white"/>
</g>
<path d="M79.9898 508.21L83.5998 521.81C84.0798 523.61 83.9598 525.52 83.2698 527.26L76.2698 544.77C75.1198 547.65 74.9298 550.82 75.7198 553.82L83.0898 581.6C83.5598 583.38 82.1798 585.1 80.3398 585.04C76.0598 584.92 72.3098 584.09 69.4098 582.13C67.0698 580.55 65.4598 578.11 64.7298 575.38L59.1398 554.34C58.5798 552.23 58.5998 550.02 59.1998 547.92L62.9398 534.8C63.6698 532.23 63.3898 529.47 62.0898 527.13C60.6198 524.49 58.4398 521.86 55.8498 519.24C54.2398 517.61 54.9898 514.85 57.1998 514.26L79.9898 508.21Z" fill="#F9DC1B"/>
<path d="M79.9896 508.21L83.5996 521.81C84.0796 523.62 83.9596 525.53 83.2696 527.26L76.2696 544.77C75.1196 547.65 74.9296 550.82 75.7196 553.82L83.0896 581.6C83.5596 583.38 82.1796 585.1 80.3396 585.05C79.5496 585.03 78.7696 584.98 78.0096 584.9C78.3396 584.31 78.4496 583.6 78.2596 582.88L70.8896 555.1C70.0996 552.11 70.2896 548.93 71.4396 546.05L78.4396 528.54C79.1296 526.81 79.2496 524.9 78.7696 523.09L75.1596 509.49L79.9896 508.21Z" fill="#E89F02"/>
<g opacity="0.55">
<path d="M59.8298 520.17C62.4198 522.79 64.5999 525.42 66.0699 528.06C67.3699 530.39 67.6499 533.16 66.9199 535.73L63.1798 548.85C62.5798 550.95 62.5598 553.17 63.1198 555.27L68.7098 576.32C69.4298 579.05 71.0499 581.49 73.3799 583.07C74.4099 583.77 75.5498 584.32 76.7799 584.75C73.9699 584.35 71.4799 583.53 69.4199 582.13C67.0899 580.55 65.4699 578.11 64.7499 575.38L59.1599 554.33C58.5999 552.22 58.6199 550 59.2199 547.91L62.9598 534.79C63.6898 532.22 63.4098 529.46 62.1098 527.13C60.6398 524.49 58.4598 521.86 55.8698 519.24C54.2598 517.61 55.0099 514.84 57.2199 514.26L79.9799 508.21L80.4699 510.07L61.1699 515.2C58.9699 515.78 58.2198 518.54 59.8298 520.17Z" fill="white"/>
</g>
<path d="M75.5196 508.61L75.7096 509.34L62.8296 512.76L60.4696 503.88C60.2096 502.89 60.7996 501.87 61.7896 501.61L63.2596 501.22C65.8096 505.54 70.4996 508.32 75.5196 508.61Z" fill="#AFCADC"/>
<path d="M75.9497 509.48L62.6997 513L60.2897 503.93C59.9997 502.84 60.6497 501.71 61.7497 501.42L63.3597 500.99L63.4297 501.12C65.8997 505.33 70.5397 508.13 75.5297 508.42L75.6697 508.43L75.9497 509.48ZM62.9697 512.53L75.4797 509.21L75.3697 508.8C70.3597 508.46 65.7097 505.65 63.1797 501.44L61.8497 501.79C60.9597 502.03 60.4297 502.94 60.6697 503.83L62.9697 512.53Z" fill="#000072"/>
<g opacity="0.55">
<path d="M63.3999 501.18C63.5999 501.53 63.8299 501.87 64.0599 502.2L63.9299 502.24C62.9399 502.5 62.3499 503.52 62.6099 504.51L64.6699 512.28L62.9599 512.73L60.5999 503.85C60.3399 502.86 60.9299 501.84 61.9199 501.58L63.3999 501.18Z" fill="white"/>
</g>
<path d="M72.3395 479.42C65.9995 481.1 61.7095 486.64 61.2995 492.84L57.4995 491.67L52.8295 474.06C52.6195 473.29 52.5495 472.49 52.6095 471.69C53.2195 462.56 56.6595 454.76 64.2495 448.92L68.0295 463.16C62.0195 468.21 63.7995 477.94 72.3395 479.42Z" fill="#AFCADC"/>
<path d="M61.4798 493.1L57.3498 491.83L52.6498 474.12C52.4398 473.33 52.3598 472.51 52.4198 471.68C53.0798 461.83 56.9098 454.33 64.1398 448.77L64.3698 448.59L68.2498 463.23L68.1598 463.31C65.2698 465.73 64.0598 469.39 64.9898 472.85C65.8898 476.19 68.6498 478.57 72.3798 479.22L73.2398 479.37L72.3898 479.59C66.2798 481.21 61.8998 486.54 61.4998 492.84L61.4798 493.1ZM57.6698 491.53L61.1298 492.6C61.6198 486.49 65.7498 481.32 71.5498 479.46C68.0598 478.61 65.4898 476.22 64.6198 472.97C63.6598 469.4 64.8898 465.63 67.8198 463.11L64.1498 449.27C57.1598 454.74 53.4498 462.09 52.8098 471.72C52.7598 472.51 52.8298 473.29 53.0298 474.03L57.6698 491.53Z" fill="#000072"/>
<g opacity="0.3">
<path d="M69.6694 480.41C69.7194 480.39 69.7694 480.36 69.8194 480.34C69.8394 480.34 69.8594 480.35 69.8794 480.35C69.8094 480.37 69.7394 480.39 69.6694 480.41Z" fill="#262F6A"/>
<path d="M69.7296 480.6L69.5796 480.25C69.6296 480.22 69.6896 480.2 69.7396 480.17L69.7896 480.15L69.8896 480.16L70.6896 480.32L69.9296 480.53C69.8596 480.56 69.7896 480.58 69.7296 480.6Z" fill="#371A45"/>
</g>
<g opacity="0.3">
<path d="M70.2196 478.84C70.8096 479.07 70.8196 479.9 70.2296 480.16C70.0896 480.22 69.9496 480.28 69.8196 480.35C61.3296 478.83 58.9496 469.03 64.9396 464L61.5596 451.26C62.3896 450.45 63.2896 449.68 64.2596 448.94L68.0396 463.18C62.5596 467.76 63.5496 476.24 70.2196 478.84Z" fill="#262F6A"/>
<path d="M69.8496 480.54L69.7896 480.53C65.7396 479.8 62.7296 477.15 61.7396 473.43C60.8096 469.94 61.9496 466.3 64.7296 463.92L61.3496 451.19L61.4296 451.11C62.2696 450.3 63.1796 449.51 64.1396 448.77L64.3696 448.59L68.2496 463.23L68.1596 463.31C65.5296 465.52 64.2696 468.77 64.8096 472.01C65.3096 475.07 67.3096 477.5 70.2996 478.66C70.6396 478.8 70.8596 479.11 70.8696 479.48C70.8796 479.86 70.6696 480.18 70.3196 480.33C70.1796 480.39 70.0496 480.45 69.9096 480.52L69.8496 480.54ZM61.7696 451.31L65.1496 464.06L65.0596 464.14C62.3296 466.43 61.1996 469.95 62.0996 473.34C63.0496 476.89 65.9196 479.43 69.7796 480.15C69.8996 480.09 70.0196 480.04 70.1496 479.98C70.3896 479.88 70.4696 479.66 70.4696 479.49C70.4696 479.28 70.3496 479.1 70.1496 479.02C67.0396 477.81 64.9496 475.28 64.4196 472.08C63.8696 468.75 65.1396 465.4 67.8096 463.11L64.1396 449.27C63.3096 449.91 62.5096 450.6 61.7696 451.31Z" fill="#371A45"/>
</g>
<g opacity="0.55">
<path d="M64.2595 448.93L64.7995 450.98C58.7295 456.58 55.8995 463.7 55.3495 471.9C55.2995 472.7 55.3695 473.5 55.5695 474.27L60.2395 491.88L61.3495 492.22C61.3295 492.43 61.3095 492.64 61.2995 492.85L57.4995 491.68L52.8295 474.07C52.6195 473.3 52.5495 472.5 52.6095 471.7C53.2195 462.57 56.6595 454.77 64.2595 448.93Z" fill="white"/>
</g>
<g opacity="0.2">
<path d="M94.3298 494.08L96.6098 502.69C96.7498 503.22 96.4598 503.78 95.9598 503.97L83.0498 507.4C89.2998 504.37 92.3498 500.06 91.5798 494.2L94.0098 493.56C94.1598 493.69 94.2798 493.87 94.3298 494.08Z" fill="black"/>
</g>
<path d="M75.5196 508.61L75.7096 509.34L62.8296 512.76L60.4696 503.88C60.2096 502.89 60.7996 501.87 61.7896 501.61L63.2596 501.22C65.8096 505.54 70.4996 508.32 75.5196 508.61Z" stroke="#0D2232" stroke-width="4" stroke-miterlimit="10" stroke-linecap="round" stroke-linejoin="round"/>
<path d="M79.9897 508.21L83.5998 521.81C84.0798 523.61 85.1298 525.22 86.5898 526.38L101.35 538.12C103.78 540.05 105.52 542.71 106.31 545.7L113.68 573.48C114.15 575.26 116.2 576.07 117.78 575.11C121.44 572.88 124.28 570.3 125.82 567.16C127.06 564.63 127.26 561.71 126.53 558.98L120.94 537.94C120.38 535.83 119.26 533.92 117.7 532.39L107.94 522.85C106.03 520.98 104.9 518.44 104.87 515.77C104.84 512.75 105.43 509.39 106.38 505.83C106.97 503.61 104.95 501.58 102.73 502.17L79.9897 508.21Z" stroke="#0D2232" stroke-width="4" stroke-miterlimit="10" stroke-linecap="round" stroke-linejoin="round"/>
<path d="M79.9893 508.21L83.5993 521.81C84.0793 523.61 83.9593 525.52 83.2693 527.26L76.2693 544.77C75.1193 547.65 74.9293 550.82 75.7193 553.82L83.0893 581.6C83.5593 583.38 82.1793 585.1 80.3393 585.04C76.0593 584.92 72.3093 584.09 69.4093 582.13C67.0693 580.55 65.4593 578.11 64.7293 575.38L59.1393 554.34C58.5793 552.23 58.5993 550.02 59.1993 547.92L62.9393 534.8C63.6693 532.23 63.3893 529.47 62.0893 527.13C60.6193 524.49 58.4393 521.86 55.8493 519.24C54.2393 517.61 54.9893 514.85 57.1993 514.26L79.9893 508.21Z" stroke="#0D2232" stroke-width="4" stroke-miterlimit="10" stroke-linecap="round" stroke-linejoin="round"/>
<path d="M86.6395 465.1L91.3095 482.71L88.5795 485.62C85.3095 480.72 79.2695 477.99 73.2095 479.22C72.9195 479.28 72.6295 479.35 72.3395 479.42C73.5895 478.38 74.4995 477.2 75.0795 475.98C77.6195 470.67 74.2795 464.31 68.0095 463.17L64.2295 448.93C73.7195 450.24 80.5795 455.3 85.6295 462.93C86.0995 463.6 86.4395 464.33 86.6395 465.1Z" stroke="#0D2232" stroke-width="4" stroke-miterlimit="10" stroke-linecap="round" stroke-linejoin="round"/>
<path d="M94.3294 494.08L96.6094 502.69C96.7494 503.22 96.4594 503.78 95.9594 503.97C95.9194 503.98 95.8894 503.99 95.8494 504L80.2694 508.14C78.6894 508.56 77.0894 508.71 75.5194 508.62C70.4994 508.32 65.8094 505.55 63.2694 501.22C62.6194 500.12 62.1094 498.93 61.7694 497.64C61.3394 496.03 61.1994 494.42 61.2994 492.85C61.6994 486.64 65.9894 481.11 72.3394 479.43H72.3494C72.6394 479.35 72.9194 479.29 73.2194 479.23C79.2794 478 85.3194 480.73 88.5894 485.63C89.5494 487.07 90.2594 488.69 90.6794 490.45C90.9494 491.59 91.0694 492.73 91.0694 493.85L93.0294 493.33C93.3894 493.23 93.7594 493.34 94.0194 493.57C94.1594 493.69 94.2794 493.87 94.3294 494.08Z" stroke="#0D2232" stroke-width="4" stroke-miterlimit="10" stroke-linecap="round" stroke-linejoin="round"/>
<path d="M72.3395 479.42C65.9995 481.1 61.7095 486.64 61.2995 492.84L57.4995 491.67L52.8295 474.06C52.6195 473.29 52.5495 472.49 52.6095 471.69C53.2195 462.56 56.6595 454.76 64.2495 448.92L68.0295 463.16C62.0195 468.21 63.7995 477.94 72.3395 479.42Z" stroke="#0D2232" stroke-width="4" stroke-miterlimit="10" stroke-linecap="round" stroke-linejoin="round"/>
<path d="M76.1696 501.7C80.5216 501.7 84.0495 498.172 84.0495 493.82C84.0495 489.468 80.5216 485.94 76.1696 485.94C71.8176 485.94 68.2896 489.468 68.2896 493.82C68.2896 498.172 71.8176 501.7 76.1696 501.7Z" stroke="#0D2232" stroke-width="4" stroke-miterlimit="10" stroke-linecap="round" stroke-linejoin="round"/>
<path d="M128.48 525.67H107.93C105.74 525.67 103.96 523.89 103.96 521.7V520.57C103.96 518.38 105.74 516.6 107.93 516.6H128.48C130.67 516.6 132.45 518.38 132.45 520.57V521.7C132.45 523.9 130.68 525.67 128.48 525.67Z" fill="#F9DC1B"/>
<path d="M126.82 525.67H109.68V532.75H126.82V525.67Z" fill="#F9DC1B"/>
<path d="M119.98 577.23H116.43C109.54 577.23 103.96 571.65 103.96 564.76V536.9C103.96 534.61 105.81 532.76 108.1 532.76H128.31C130.6 532.76 132.45 534.61 132.45 536.9V564.76C132.45 571.64 126.87 577.23 119.98 577.23Z" fill="#F9DC1B"/>
<path d="M132.45 519.65V522.63C132.45 524.31 131.09 525.67 129.41 525.67H124.41C126.09 525.67 127.45 524.31 127.45 522.63V519.65C127.45 517.97 126.09 516.61 124.41 516.61H129.41C131.09 516.61 132.45 517.97 132.45 519.65Z" fill="#E89F02"/>
<path d="M126.83 525.68H121.83V532.76H126.83V525.68Z" fill="#E89F02"/>
<path d="M132.45 535.78V563.4C132.45 571.04 126.26 577.23 118.62 577.23H118.35C123.38 577.23 127.46 573.15 127.46 568.12V535.78C127.46 534.11 126.11 532.76 124.44 532.76H129.44C131.1 532.75 132.45 534.11 132.45 535.78Z" fill="#E89F02"/>
<g opacity="0.55">
<path d="M110.54 525.68H107.01C105.33 525.68 103.97 524.32 103.97 522.64V519.66C103.97 517.98 105.33 516.62 107.01 516.62H110.54C108.86 516.62 107.5 517.98 107.5 519.66V522.64C107.5 524.31 108.86 525.68 110.54 525.68Z" fill="white"/>
</g>
<g opacity="0.55">
<path d="M113.21 525.68H109.68V532.76H113.21V525.68Z" fill="white"/>
</g>
<g opacity="0.55">
<path d="M116.61 577.23H113.08C108.05 577.23 103.97 573.15 103.97 568.12V535.78C103.97 534.11 105.32 532.76 106.99 532.76H110.52C108.85 532.76 107.5 534.11 107.5 535.78V568.12C107.5 573.15 111.58 577.23 116.61 577.23Z" fill="white"/>
</g>
<path d="M128.15 477.9L125.83 485.08H122.85V516.61H113.9V485.08H110.92L108.6 477.9L112.25 457.36H124.5L128.15 477.9Z" fill="#AFCADC"/>
<path d="M123.01 516.77H113.73V485.24H110.79L108.42 477.91L108.43 477.87L112.1 457.19H124.63L128.31 477.91L125.94 485.24H123V516.77H123.01ZM114.07 516.44H122.68V484.91H125.71L127.98 477.89L124.37 457.53H112.39L108.78 477.89L111.05 484.91H114.08V516.44H114.07Z" fill="#000072"/>
<g opacity="0.2">
<path d="M122.03 485.08H122.85V516.61H120.09V487.02C120.09 485.95 120.95 485.08 122.03 485.08Z" fill="black"/>
</g>
<g opacity="0.2">
<path d="M128.15 477.9L125.83 485.08H123.07L125.39 477.9L121.74 457.36H124.5L128.15 477.9Z" fill="black"/>
</g>
<g opacity="0.55">
<path d="M111.46 477.9L113.78 485.08H111.25L108.93 477.9L112.58 457.36H115.1L111.46 477.9Z" fill="white"/>
</g>
<g opacity="0.55">
<path d="M116.76 486.73V516.61H114.23V485.08H115.11C116.02 485.08 116.76 485.82 116.76 486.73Z" fill="white"/>
</g>
<g opacity="0.2">
<path d="M117.86 551.77C117.86 555.43 116.32 558.4 114.41 558.4C112.5 558.4 112.48 555.43 112.48 551.77C112.48 548.11 112.51 545.14 114.41 545.14C116.31 545.14 117.86 548.12 117.86 551.77Z" fill="white"/>
</g>
<path d="M128.48 525.67H107.93C105.74 525.67 103.96 523.89 103.96 521.7V520.57C103.96 518.38 105.74 516.6 107.93 516.6H128.48C130.67 516.6 132.45 518.38 132.45 520.57V521.7C132.45 523.9 130.68 525.67 128.48 525.67Z" stroke="#0D2232" stroke-width="4" stroke-miterlimit="10" stroke-linecap="round" stroke-linejoin="round"/>
<path d="M126.82 525.67H109.68V532.75H126.82V525.67Z" stroke="#0D2232" stroke-width="4" stroke-miterlimit="10" stroke-linecap="round" stroke-linejoin="round"/>
<path d="M119.98 577.23H116.43C109.54 577.23 103.96 571.65 103.96 564.76V536.9C103.96 534.61 105.81 532.76 108.1 532.76H128.31C130.6 532.76 132.45 534.61 132.45 536.9V564.76C132.45 571.64 126.87 577.23 119.98 577.23Z" stroke="#0D2232" stroke-width="4" stroke-miterlimit="10" stroke-linecap="round" stroke-linejoin="round"/>
<path d="M128.15 477.9L125.83 485.08H122.85V516.61H113.9V485.08H110.92L108.6 477.9L112.25 457.36H124.5L128.15 477.9Z" stroke="#0D2232" stroke-width="4" stroke-miterlimit="10" stroke-linecap="round" stroke-linejoin="round"/>
<path d="M143.47 519.93V578.09C143.47 578.09 131.88 595.45 109.36 595.45C86.8296 595.45 70.7396 595.45 70.7396 595.45L63.9796 586.77C63.9796 586.77 58.5096 545.95 57.8696 530.2C57.8696 530.2 119.65 531.85 143.47 519.93Z" fill="#FEC400"/>
<path d="M138.2 522.15V565.81C138.2 573.24 134 580.05 127.32 583.31C116.33 588.68 96.2997 593.8 63.9897 586.78L70.7498 595.46L112.75 595.7C112.75 595.7 134.47 592.89 143.48 578.1V519.94L138.2 522.15Z" fill="#E89F02"/>
<path d="M143.47 519.93V574.29C143.47 577 142.44 579.6 140.6 581.58C135.88 586.65 125.39 595.44 109.36 595.44H75.9599C72.6699 595.44 69.5599 593.92 67.5399 591.32L65.7699 589.05C64.5999 587.55 63.8499 585.76 63.6099 583.88C62.3599 574.3 58.4199 543.41 57.8799 530.19C57.8699 530.2 119.65 531.85 143.47 519.93Z" stroke="#0D2232" stroke-width="4" stroke-miterlimit="10" stroke-linecap="round" stroke-linejoin="round"/>
<path d="M143.47 535.02C143.47 535.02 123.75 551.92 59.3896 545.49" stroke="#0D2232" stroke-width="4" stroke-miterlimit="10" stroke-linecap="round" stroke-linejoin="round"/>
<path d="M126.532 656.609L199.962 656.609L199.962 635.109L126.532 635.109L126.532 656.609Z" stroke="#0D2232" stroke-width="6" stroke-miterlimit="10" stroke-linecap="round" stroke-linejoin="round"/>
<path d="M138.98 336.67L98.8198 357.78L124.41 410.92L138.98 403.37V336.67Z" stroke="#0D2232" stroke-width="6" stroke-miterlimit="10"/>
<path d="M355.77 373.55C355.77 373.55 383.41 389.62 377.63 410.84C371.84 432.05 330.7 460.34 330.7 460.34C330.7 460.34 328.77 436.55 299.84 431.41L317.84 413.41L355.77 373.55Z" fill="#FBC6A6"/>
<path d="M299.84 431.4L290.84 436.86V492.79H331.34L330.7 460.33C330.7 460.33 328.12 435.9 299.84 431.4Z" fill="#FBC6A6"/>
<path opacity="0.16" d="M351.71 377.81C351.71 377.81 377.19 390.25 371.54 410.97C365.89 431.7 330.24 453.72 330.24 453.72" stroke="black" stroke-width="6" stroke-miterlimit="10"/>
<path opacity="0.16" d="M327.34 492.8L326.7 447.75" stroke="black" stroke-width="6" stroke-miterlimit="10"/>
<path opacity="0.5" d="M306 431.97L361.15 375.05" stroke="white" stroke-width="6" stroke-miterlimit="10"/>
<path opacity="0.5" d="M296 433.12V494.36" stroke="white" stroke-width="6" stroke-miterlimit="10"/>
<path d="M355.77 373.55C355.77 373.55 383.41 389.62 377.63 410.84C371.84 432.05 330.7 460.34 330.7 460.34C330.7 460.34 328.77 436.55 299.84 431.41L317.84 413.41L355.77 373.55Z" stroke="#0D2232" stroke-width="6" stroke-miterlimit="10" stroke-linecap="round" stroke-linejoin="round"/>
<path d="M299.84 431.4L290.84 436.86V492.79H331.34L330.7 460.33C330.7 460.33 328.12 435.9 299.84 431.4Z" stroke="#0D2232" stroke-width="6" stroke-miterlimit="10" stroke-linecap="round" stroke-linejoin="round"/>
<path d="M301.53 415.11L327.12 426.85L350.06 378.32L356.27 365.19L331.73 353.03L324.97 366.92L301.53 415.11Z" fill="#435F84"/>
<path opacity="0.21" d="M324.97 366.92L325 366.96L350.06 378.32L356.27 365.19L331.73 353.03L324.97 366.92Z" fill="white"/>
<path d="M289.26 336.67V403.37L303.84 410.92L325 366.96L329.42 357.78L289.26 336.67Z" fill="#F9DC1B"/>
<path opacity="0.5" d="M289.26 336.67V348.62L325 366.96L329.42 357.78L289.26 336.67Z" fill="white"/>
<path d="M312.45 393.02L289.26 383.65V403.37L303.84 410.92L312.45 393.02Z" fill="#E89F02"/>
<path d="M331.73 353.03L301.53 415.11L327.12 426.86L356.27 365.19L331.73 353.03Z" stroke="#0D2232" stroke-width="6" stroke-miterlimit="10" stroke-linecap="round" stroke-linejoin="round"/>
<path d="M289.26 336.67L329.42 357.78L303.84 410.92L289.26 403.37V336.67Z" stroke="#0D2232" stroke-width="6" stroke-miterlimit="10"/>
<path d="M292.429 450.67V467.93C292.429 469.27 291.339 470.36 290.009 470.36H280.639C279.299 470.36 278.209 469.27 278.209 467.93V450.67C278.209 449.33 279.299 448.25 280.639 448.25H290.009C291.349 448.24 292.429 449.33 292.429 450.67Z" fill="#AFCADC"/>
<path d="M290.01 470.53H280.64C279.21 470.53 278.04 469.37 278.04 467.93V450.67C278.04 449.24 279.2 448.08 280.64 448.08H290.01C291.44 448.08 292.6 449.24 292.6 450.67V467.93C292.6 469.36 291.44 470.53 290.01 470.53ZM280.64 448.41C279.4 448.41 278.38 449.42 278.38 450.66V467.92C278.38 469.16 279.39 470.18 280.64 470.18H290.01C291.25 470.18 292.26 469.17 292.26 467.92V450.66C292.26 449.42 291.25 448.41 290.01 448.41H280.64Z" fill="#000072"/>
<g opacity="0.2">
<path d="M292.429 464.1V467.93C292.429 469.27 291.339 470.36 290.009 470.36H280.639C279.299 470.36 278.209 469.27 278.209 467.93V464.1C278.209 465.44 279.299 466.53 280.639 466.53H290.009C291.349 466.52 292.429 465.44 292.429 464.1Z" fill="black"/>
</g>
<g opacity="0.55">
<path d="M292.429 450.67V453.38C292.429 452.04 291.339 450.96 290.009 450.96H280.639C279.299 450.96 278.209 452.05 278.209 453.38V450.67C278.209 449.33 279.299 448.25 280.639 448.25H290.009C291.349 448.24 292.429 449.33 292.429 450.67Z" fill="white"/>
</g>
<path d="M302.88 465.7H292.43V453.43H301.3L302.88 465.7Z" fill="#AFCADC"/>
<path d="M303.08 465.87H292.27V453.26H301.46L303.08 465.87ZM292.599 465.53H302.69L301.15 453.6H292.599V465.53Z" fill="#000072"/>
<path d="M352.04 463.89C351.89 465.64 349.83 466.51 348.5 465.36C341.03 458.94 329.99 462.56 327.74 471.72C327.36 473.25 326.02 474.33 324.45 474.33H306.98C305.28 474.33 303.84 473.07 303.63 471.38L302.9 465.7L301.32 453.43L300.79 449.29C300.53 447.27 302.11 445.47 304.15 445.47H332.8C344.39 445.48 352.82 454.43 352.04 463.89Z" fill="#AFCADC"/>
<path d="M324.45 474.5H306.98C305.2 474.5 303.68 473.17 303.46 471.4L300.61 449.31C300.48 448.3 300.79 447.28 301.47 446.51C302.14 445.74 303.12 445.3 304.14 445.3H332.79C338.62 445.3 344.09 447.61 347.8 451.63C351.02 455.13 352.6 459.48 352.23 463.89C352.16 464.77 351.6 465.53 350.79 465.86C349.97 466.2 349.08 466.05 348.41 465.47C344.94 462.49 340.37 461.52 336.16 462.86C332.04 464.18 328.96 467.5 327.92 471.74C327.51 473.38 326.08 474.5 324.45 474.5ZM304.12 445.65C303.2 445.65 302.32 446.05 301.71 446.74C301.1 447.43 300.82 448.36 300.94 449.27L303.79 471.36C304 472.96 305.37 474.16 306.98 474.16H324.45C325.93 474.16 327.22 473.14 327.58 471.68C328.65 467.32 331.81 463.91 336.04 462.55C340.36 461.17 345.06 462.17 348.61 465.22C349.18 465.71 349.94 465.84 350.64 465.55C351.35 465.26 351.81 464.63 351.87 463.87C352.22 459.55 350.68 455.29 347.52 451.87C343.88 447.92 338.5 445.65 332.76 445.65H304.12Z" fill="#000072"/>
<g opacity="0.2">
<path d="M352.04 463.89C351.89 465.64 349.83 466.51 348.5 465.36C341.03 458.94 329.99 462.56 327.74 471.72C327.36 473.25 326.02 474.33 324.45 474.33H306.98C305.28 474.33 303.84 473.07 303.63 471.38L303.45 470.02C303.9 470.24 304.39 470.36 304.92 470.36H322.39C323.96 470.36 325.31 469.27 325.68 467.75C327.93 458.59 338.97 454.96 346.44 461.39C347.77 462.54 349.83 461.67 349.98 459.92C350.16 457.76 349.85 455.62 349.14 453.61C351.26 456.63 352.34 460.22 352.04 463.89Z" fill="black"/>
</g>
<g opacity="0.55">
<path d="M347.969 452.11C344.629 449.46 340.21 447.79 335.2 447.79H306.549C304.509 447.79 302.929 449.58 303.189 451.61L303.719 455.75L305.299 468.02L306.03 473.7C306.05 473.89 306.09 474.07 306.15 474.24C304.82 473.92 303.789 472.8 303.599 471.39L302.869 465.71L301.289 453.44L300.76 449.3C300.5 447.28 302.079 445.48 304.119 445.48H332.77C339.11 445.48 344.509 448.15 347.969 452.11Z" fill="white"/>
</g>
<g opacity="0.55">
<path d="M292.43 453.38H278.78V457.16H292.43V453.38Z" fill="white"/>
</g>
<path d="M324.14 474.33H308.06V515.37H324.14V474.33Z" fill="#435F84" stroke="#0D2232" stroke-width="4" stroke-miterlimit="10" stroke-linecap="round" stroke-linejoin="round"/>
<g opacity="0.2">
<path d="M308.1 481.54C308.57 481.55 308.99 481.72 309.38 481.93C309.77 482.14 310.13 482.41 310.47 482.7C311.15 483.27 311.77 483.91 312.28 484.65C313.3 486.11 313.88 487.76 314.9 489.05C315.4 489.69 316.03 490.21 316.75 490.6C317.47 490.98 318.27 491.24 319.08 491.41C319.9 491.58 320.74 491.68 321.59 491.76C322.01 491.8 322.44 491.83 322.87 491.84C323.3 491.87 323.74 491.93 324.14 492.21C324.2 492.25 324.21 492.33 324.17 492.39C324.16 492.41 324.14 492.42 324.12 492.43H324.11C323.65 492.63 323.24 492.59 322.81 492.56C322.39 492.5 321.96 492.47 321.53 492.43C320.67 492.35 319.8 492.25 318.94 492.07C318.08 491.89 317.22 491.62 316.43 491.2C315.64 490.78 314.92 490.18 314.36 489.47C313.24 488.05 312.67 486.39 311.71 485.04C311.23 484.37 310.67 483.75 310.01 483.25C309.68 483 309.34 482.77 308.99 482.54C308.65 482.31 308.3 482.08 307.99 481.75C307.94 481.7 307.94 481.63 307.99 481.58C308.04 481.55 308.07 481.53 308.1 481.54Z" fill="#371A45"/>
<path d="M324.16 489C323.28 489.48 322.25 489.5 321.28 489.36C320.31 489.22 319.35 488.98 318.47 488.53C318.02 488.32 317.61 488.04 317.22 487.74C316.84 487.42 316.47 487.08 316.18 486.67C315.55 485.88 315.22 484.89 315.03 483.95C314.84 483 314.75 482.07 314.49 481.21C314.36 480.78 314.19 480.38 313.95 480.01C313.84 479.82 313.7 479.65 313.57 479.48C313.42 479.32 313.28 479.15 313.11 479.01C312.46 478.41 311.64 478 310.78 477.79C310.35 477.68 309.9 477.64 309.47 477.67C309.03 477.7 308.62 477.77 308.12 477.7H308.11C308.09 477.7 308.06 477.69 308.03 477.68L308.01 477.67C307.94 477.65 307.9 477.59 307.92 477.52C307.93 477.5 307.94 477.48 307.95 477.46C307.98 477.43 308 477.41 308.03 477.39H308.02C308.42 477.05 308.95 476.94 309.45 476.94C309.95 476.96 310.45 476.99 310.94 477.12C311.91 477.35 312.83 477.82 313.57 478.49C314.32 479.14 314.88 480.06 315.15 481C315.43 481.95 315.52 482.9 315.7 483.8C315.88 484.7 316.17 485.55 316.72 486.24C316.98 486.6 317.31 486.9 317.65 487.19C318.01 487.46 318.38 487.71 318.79 487.9C319.59 488.3 320.48 488.55 321.38 488.64C321.6 488.67 321.83 488.66 322.06 488.68C322.29 488.67 322.51 488.69 322.74 488.68C323.19 488.69 323.64 488.64 324.14 488.75H324.15C324.21 488.76 324.25 488.83 324.24 488.89C324.21 488.96 324.19 488.98 324.16 489Z" fill="#371A45"/>
<path d="M324.17 484.31C323.91 484.56 323.59 484.67 323.26 484.72C323.1 484.75 322.93 484.76 322.76 484.75C322.59 484.74 322.43 484.72 322.27 484.71C321.62 484.62 320.98 484.45 320.39 484.17C319.21 483.62 318.19 482.74 317.48 481.66C316.76 480.58 316.35 479.32 316.2 478.05C316.13 477.41 316.12 476.77 316.17 476.14C316.19 475.82 316.24 475.51 316.27 475.19C316.3 474.87 316.37 474.56 316.61 474.29V474.31C316.65 474.27 316.68 474.22 316.73 474.19C316.8 474.14 316.89 474.16 316.94 474.22L316.95 474.23V474.24C316.98 474.29 316.99 474.33 317.01 474.37V474.39C317.1 474.72 317.04 475.01 316.97 475.3C316.9 475.59 316.87 475.89 316.85 476.19C316.8 476.79 316.81 477.38 316.88 477.98C317.01 479.16 317.4 480.31 318.05 481.29C318.7 482.27 319.62 483.07 320.68 483.56C321.21 483.8 321.77 483.98 322.35 484.01C322.64 484.02 322.92 484.03 323.21 484.02C323.5 484.02 323.78 484.01 324.12 484.09C324.19 484.11 324.23 484.18 324.21 484.25C324.2 484.27 324.18 484.29 324.17 484.31Z" fill="#371A45"/>
<path d="M320.09 474.39C320.14 474.65 320.08 474.85 320.01 475.04C319.94 475.23 319.85 475.4 319.77 475.58C319.61 475.94 319.51 476.31 319.45 476.69C319.35 477.43 319.5 478.22 319.92 478.81C320.13 479.1 320.41 479.33 320.73 479.47C321.05 479.61 321.42 479.67 321.79 479.65C322.16 479.64 322.54 479.56 322.9 479.44C323.08 479.39 323.26 479.28 323.43 479.18C323.61 479.09 323.79 479.02 324.08 479.14H324.09C324.17 479.17 324.21 479.25 324.19 479.33C324.12 479.63 323.92 479.74 323.73 479.83C323.63 479.87 323.53 479.9 323.43 479.95C323.33 480 323.23 480.04 323.13 480.07C322.71 480.21 322.27 480.31 321.82 480.32C321.37 480.34 320.9 480.27 320.46 480.08C320.03 479.89 319.64 479.57 319.37 479.19C318.83 478.42 318.66 477.47 318.78 476.58C318.84 476.14 318.98 475.71 319.12 475.3C319.19 475.09 319.27 474.89 319.39 474.71C319.5 474.53 319.65 474.36 319.9 474.27C319.98 474.24 320.06 474.28 320.09 474.36C320.08 474.37 320.09 474.38 320.09 474.39Z" fill="#371A45"/>
<path d="M308.08 487.44C308.63 487.37 309.19 487.55 309.65 487.83C310.12 488.1 310.53 488.47 310.89 488.86C311.61 489.65 312.19 490.52 312.74 491.37C313.29 492.22 313.85 493.06 314.54 493.74C315.23 494.42 316.09 494.91 316.99 495.36C317.89 495.81 318.85 496.23 319.72 496.86C320.58 497.49 321.31 498.28 321.89 499.16C322.48 500.03 322.93 500.97 323.33 501.92C323.53 502.4 323.72 502.87 323.92 503.34C324.11 503.82 324.28 504.3 324.23 504.86C324.22 504.93 324.16 504.98 324.1 504.97C324.07 504.97 324.04 504.95 324.02 504.94C323.61 504.55 323.42 504.07 323.24 503.6C323.08 503.12 322.89 502.65 322.7 502.18C322.31 501.25 321.87 500.35 321.32 499.53C320.78 498.7 320.1 497.98 319.32 497.4C318.53 496.83 317.61 496.42 316.69 495.96C315.77 495.51 314.83 494.98 314.06 494.22C313.3 493.47 312.72 492.59 312.16 491.74C311.6 490.89 311.07 490.04 310.38 489.34C310.03 489 309.66 488.69 309.27 488.42C308.88 488.14 308.48 487.93 308.03 487.66C307.97 487.63 307.95 487.55 307.99 487.5C308.01 487.47 308.05 487.45 308.08 487.44Z" fill="#371A45"/>
<path d="M319.92 494.25C320.1 494.15 320.23 494.17 320.34 494.21C320.45 494.25 320.54 494.32 320.64 494.39C320.83 494.53 321.03 494.64 321.22 494.77C321.6 495.03 321.98 495.3 322.34 495.58C322.7 495.86 323.06 496.16 323.4 496.47C323.57 496.63 323.74 496.79 323.9 496.95C323.98 497.03 324.06 497.12 324.16 497.18C324.24 497.26 324.32 497.35 324.22 497.6C324.19 497.68 324.13 497.73 324.06 497.75C323.81 497.83 323.72 497.76 323.65 497.68C323.59 497.58 323.51 497.51 323.43 497.43C323.27 497.27 323.11 497.12 322.95 496.97C322.62 496.67 322.28 496.38 321.93 496.11C321.58 495.84 321.22 495.58 320.85 495.33C320.66 495.21 320.48 495.08 320.28 494.98C320.18 494.93 320.08 494.89 319.99 494.81C319.9 494.74 319.83 494.64 319.82 494.44C319.81 494.36 319.85 494.29 319.92 494.25Z" fill="#371A45"/>
<path d="M308.13 491.96C308.71 492.2 309.13 492.73 309.42 493.26C309.71 493.8 309.89 494.38 310.05 494.93C310.21 495.49 310.37 496.03 310.59 496.54C310.8 497.05 311.07 497.53 311.42 497.92C311.77 498.31 312.22 498.58 312.72 498.76C313.22 498.93 313.78 499.01 314.34 499.06C314.91 499.11 315.49 499.13 316.08 499.21C316.67 499.29 317.28 499.42 317.85 499.7C318.42 499.98 318.92 500.4 319.29 500.89C319.67 501.38 319.94 501.94 320.16 502.49C320.59 503.61 320.81 504.76 321.11 505.86C321.4 506.96 321.82 508.01 322.38 508.99C322.65 509.48 322.96 509.96 323.31 510.4C323.65 510.85 323.99 511.29 324.21 511.87C324.23 511.93 324.2 512 324.14 512.03C324.11 512.04 324.07 512.04 324.05 512.03C323.47 511.77 323.08 511.31 322.73 510.83C322.4 510.34 322.08 509.84 321.79 509.32C321.21 508.29 320.76 507.18 320.46 506.04C320.15 504.91 319.93 503.78 319.53 502.74C319.33 502.22 319.08 501.73 318.75 501.31C318.43 500.89 318.02 500.54 317.54 500.31C316.59 499.84 315.43 499.84 314.27 499.74C313.68 499.69 313.08 499.61 312.49 499.41C311.9 499.21 311.33 498.86 310.91 498.38C310.06 497.43 309.73 496.22 309.37 495.14C309.19 494.59 309 494.07 308.78 493.57C308.55 493.07 308.3 492.62 307.98 492.13C307.94 492.08 307.96 492 308.01 491.97C308.05 491.94 308.1 491.94 308.13 491.96Z" fill="#371A45"/>
<path d="M308.09 501.69C308.54 501.63 308.93 501.64 309.35 501.65L310.6 501.68C311.45 501.68 312.34 501.65 313.22 501.81C313.66 501.89 314.11 502.01 314.53 502.21C314.95 502.41 315.35 502.69 315.66 503.06C315.98 503.42 316.19 503.86 316.33 504.3C316.47 504.74 316.53 505.19 316.57 505.63C316.63 506.52 316.61 507.36 316.67 508.2C316.72 509.04 316.81 509.88 316.97 510.7C317.13 511.52 317.37 512.32 317.7 513.08C317.87 513.46 318.05 513.83 318.29 514.16C318.51 514.51 318.73 514.84 318.82 515.31C318.83 515.38 318.79 515.45 318.72 515.46C318.7 515.46 318.67 515.46 318.65 515.45C318.18 515.28 317.9 514.91 317.67 514.53C317.46 514.14 317.25 513.75 317.07 513.34C316.72 512.53 316.47 511.68 316.3 510.82C316.13 509.96 316.04 509.1 315.98 508.23C315.92 507.37 315.94 506.5 315.88 505.68C315.82 504.86 315.63 504.06 315.13 503.5C314.64 502.92 313.88 502.61 313.09 502.48C312.29 502.34 311.46 502.34 310.6 502.38C310.17 502.4 309.73 502.41 309.29 502.35C308.85 502.3 308.4 502.19 308.02 501.91C307.97 501.87 307.96 501.79 308 501.74C308.03 501.71 308.05 501.69 308.09 501.69Z" fill="#371A45"/>
<path d="M319.31 509.16C319.52 509.24 319.61 509.36 319.67 509.49C319.74 509.62 319.78 509.75 319.81 509.89C319.89 510.16 320.01 510.43 320.11 510.69C320.33 511.22 320.56 511.74 320.82 512.24C321.08 512.75 321.35 513.25 321.65 513.74C321.8 513.98 321.95 514.22 322.11 514.46C322.19 514.58 322.27 514.7 322.37 514.8C322.46 514.91 322.53 515.04 322.41 515.29C322.38 515.37 322.3 515.41 322.23 515.42C321.95 515.44 321.86 515.33 321.78 515.2C321.72 515.06 321.64 514.94 321.55 514.82C321.39 514.57 321.23 514.33 321.08 514.07C320.78 513.57 320.49 513.05 320.23 512.53C319.97 512.01 319.72 511.47 319.5 510.93C319.38 510.66 319.29 510.38 319.17 510.11C319.11 509.98 319.05 509.84 319.02 509.7C318.99 509.55 318.99 509.4 319.11 509.21C319.14 509.16 319.23 509.13 319.31 509.16Z" fill="#371A45"/>
<path d="M308.04 505.61C308.3 505.38 308.59 505.29 308.89 505.23C309.19 505.17 309.5 505.17 309.82 505.2C310.44 505.24 311.08 505.36 311.66 505.65C312.24 505.94 312.73 506.38 313.1 506.88C313.47 507.39 313.75 507.95 313.93 508.54C314.31 509.72 314.34 510.98 314.12 512.18C314.01 512.78 313.84 513.37 313.61 513.93L313.25 514.77C313.12 515.04 312.94 515.3 312.59 515.43C312.52 515.46 312.43 515.42 312.41 515.34C312.41 515.33 312.4 515.32 312.4 515.31V515.3C312.34 514.92 312.48 514.69 312.61 514.43C312.76 514.19 312.88 513.93 312.98 513.67C313.19 513.15 313.35 512.6 313.45 512.05C313.65 510.95 313.62 509.8 313.28 508.74C312.95 507.69 312.3 506.72 311.34 506.24C310.87 506 310.33 505.88 309.79 505.88C309.52 505.88 309.24 505.91 308.96 505.91C308.68 505.92 308.4 505.92 308.08 505.81C308.01 505.79 307.98 505.71 308 505.64C308.01 505.65 308.02 505.63 308.04 505.61Z" fill="#371A45"/>
<path d="M308.03 509.32C308.15 509.11 308.35 509.03 308.54 509C308.73 508.97 308.93 508.99 309.11 509.04C309.48 509.13 309.85 509.28 310.15 509.54C310.75 510.05 311.05 510.82 311.01 511.59C310.99 511.97 310.86 512.37 310.66 512.68C310.46 513 310.2 513.27 309.93 513.5C309.66 513.73 309.37 513.92 309.09 514.1C308.95 514.19 308.8 514.28 308.68 514.39C308.54 514.48 308.39 514.56 308.13 514.44C308.05 514.41 308.01 514.33 308.01 514.25C308.03 513.95 308.16 513.86 308.3 513.78C308.45 513.71 308.59 513.63 308.73 513.54C309 513.36 309.27 513.18 309.5 512.99C309.98 512.6 310.32 512.12 310.34 511.56C310.37 511.01 310.14 510.42 309.72 510.07C309.51 509.9 309.26 509.77 308.98 509.74C308.84 509.73 308.7 509.73 308.57 509.71C308.43 509.7 308.29 509.67 308.1 509.54L308.09 509.53C308.01 509.48 307.99 509.39 308.03 509.32Z" fill="#371A45"/>
</g>
<g opacity="0.55">
<path d="M310.45 515.37H308.06V479.99H308.4C309.53 479.99 310.45 480.91 310.45 482.04V515.37Z" fill="white"/>
</g>
<g opacity="0.3">
<path d="M324.14 474.33V515.37H320.33V483.84C320.33 481.74 318.63 480.04 316.53 480.04H308.06V474.33H324.14Z" fill="#371A45"/>
</g>
<path d="M327.86 518.76V560.05C327.86 561.92 326.34 563.43 324.48 563.43H307.89C307.33 563.43 306.8 563.29 306.34 563.05C305.25 562.49 304.51 561.35 304.51 560.04V518.75C304.51 516.88 306.03 515.37 307.89 515.37H324.48C326.34 515.37 327.86 516.89 327.86 518.76Z" fill="#F9DC1B"/>
<path d="M324.48 563.61H307.89C307.32 563.61 306.76 563.47 306.26 563.22L306.17 563.17C305.04 562.55 304.34 561.37 304.34 560.06V518.77C304.34 516.81 305.93 515.22 307.89 515.22H324.48C326.44 515.22 328.03 516.81 328.03 518.77V560.06C328.03 562.01 326.44 563.61 324.48 563.61ZM306.51 562.96C306.94 563.16 307.41 563.27 307.89 563.27H324.48C326.25 563.27 327.7 561.83 327.7 560.05V518.76C327.7 516.99 326.26 515.54 324.48 515.54H307.89C306.12 515.54 304.67 516.98 304.67 518.76V560.05C304.67 561.26 305.34 562.35 306.41 562.91L306.51 562.96Z" fill="#000072"/>
<path d="M327.86 518.76V560.05C327.86 561.92 326.34 563.43 324.48 563.43H318.97C320.84 563.43 322.35 561.91 322.35 560.05V518.76C322.35 516.89 320.83 515.38 318.97 515.38H324.48C326.34 515.37 327.86 516.89 327.86 518.76Z" fill="#E89F02"/>
<path d="M324.48 563.61H318.97V563.27C320.74 563.27 322.19 561.83 322.19 560.05V518.76C322.19 516.99 320.75 515.54 318.97 515.54V515.2H324.48C326.44 515.2 328.03 516.79 328.03 518.75V560.04C328.03 562.01 326.44 563.61 324.48 563.61ZM320.48 563.27H324.47C326.24 563.27 327.69 561.83 327.69 560.05V518.76C327.69 516.99 326.25 515.54 324.47 515.54H320.48C321.69 516.11 322.52 517.34 322.52 518.76V560.05C322.52 561.47 321.69 562.7 320.48 563.27Z" fill="#E89F02"/>
<g opacity="0.55">
<path d="M308.9 563.06C309.36 563.3 309.89 563.44 310.45 563.44H307.89C307.33 563.44 306.8 563.3 306.34 563.06C305.25 562.5 304.51 561.36 304.51 560.05V518.76C304.51 516.89 306.03 515.38 307.89 515.38H310.45C308.58 515.38 307.07 516.9 307.07 518.76V560.05C307.06 561.36 307.81 562.5 308.9 563.06Z" fill="white"/>
</g>
<g opacity="0.2">
<path d="M294.69 453.43L296.95 465.7H292.43V453.43H294.69Z" fill="black"/>
</g>
<g opacity="0.2">
<path d="M317.93 453.98C317.93 455.73 315.72 455.26 312.99 455.26C310.26 455.26 308.05 455.73 308.05 453.98C308.05 452.23 310.26 450.81 312.99 450.81C315.72 450.81 317.93 452.23 317.93 453.98Z" fill="white"/>
</g>
<g opacity="0.2">
<path d="M314.7 535.57C314.7 538.84 313.32 541.49 311.62 541.49C309.92 541.49 309.89 538.84 309.89 535.57C309.89 532.3 309.92 529.65 311.62 529.65C313.32 529.65 314.7 532.3 314.7 535.57Z" fill="white"/>
</g>
<path d="M292.429 450.67V467.93C292.429 469.27 291.339 470.36 290.009 470.36H280.639C279.299 470.36 278.209 469.27 278.209 467.93V450.67C278.209 449.33 279.299 448.25 280.639 448.25H290.009C291.349 448.24 292.429 449.33 292.429 450.67Z" stroke="#0D2232" stroke-width="4" stroke-miterlimit="10" stroke-linecap="round" stroke-linejoin="round"/>
<path d="M302.88 465.7H292.43V453.43H301.3L302.88 465.7Z" stroke="#0D2232" stroke-width="4" stroke-miterlimit="10" stroke-linecap="round" stroke-linejoin="round"/>
<path d="M352.04 463.89C351.89 465.64 349.83 466.51 348.5 465.36C341.03 458.94 329.99 462.56 327.74 471.72C327.36 473.25 326.02 474.33 324.45 474.33H306.98C305.28 474.33 303.84 473.07 303.63 471.38L302.9 465.7L301.32 453.43L300.79 449.29C300.53 447.27 302.11 445.47 304.15 445.47H332.8C344.39 445.48 352.82 454.43 352.04 463.89Z" stroke="#0D2232" stroke-width="4" stroke-miterlimit="10" stroke-linecap="round" stroke-linejoin="round"/>
<path d="M324.14 474.33H308.06V515.37H324.14V474.33Z" stroke="#0D2232" stroke-width="4" stroke-miterlimit="10" stroke-linecap="round" stroke-linejoin="round"/>
<path d="M327.86 518.76V560.05C327.86 561.92 326.34 563.43 324.48 563.43H307.89C307.33 563.43 306.8 563.29 306.34 563.05C305.25 562.49 304.51 561.35 304.51 560.04V518.75C304.51 516.88 306.03 515.37 307.89 515.37H324.48C326.34 515.37 327.86 516.89 327.86 518.76Z" stroke="#0D2232" stroke-width="4" stroke-miterlimit="10" stroke-linecap="round" stroke-linejoin="round"/>
<path d="M346.28 575.22C346.27 575.17 346.27 575.12 346.27 575.07L348.08 491.01C348.09 490.37 348.62 489.87 349.26 489.88L363.719 490.19C364.029 490.2 364.32 490.32 364.53 490.55C364.71 490.73 364.82 490.97 364.84 491.22C364.85 491.27 364.849 491.32 364.849 491.37L363.039 575.43C363.029 576.07 362.499 576.57 361.859 576.56L347.4 576.25C347.09 576.24 346.8 576.12 346.59 575.89C346.41 575.71 346.3 575.47 346.28 575.22Z" fill="#C14854"/>
<path d="M351.868 491.096L350.077 575.159L359.335 575.357L361.126 491.294L351.868 491.096Z" fill="#E8656D"/>
<path opacity="0.5" d="M350.751 487.414L348.877 576.236L350.017 576.26L351.891 487.438L350.751 487.414Z" fill="white"/>
<path d="M343.52 493.14C342.73 492.55 341.97 491.89 341.26 491.19C337.04 487.04 334.68 481.49 334.63 475.56C334.58 469.64 336.84 464.05 341 459.83C342.08 458.73 343.27 457.75 344.55 456.9C344.93 456.65 345.42 456.64 345.81 456.89C345.84 456.91 345.86 456.92 345.88 456.94C346.22 457.19 346.39 457.61 346.33 458.03L344.59 469.64L357.54 476.1L367.69 465.78L362.62 456.02C362.4 455.6 362.46 455.09 362.77 454.73C363.08 454.37 363.57 454.24 364.02 454.39C366.21 455.14 368.25 456.22 370.11 457.61C370.9 458.2 371.66 458.86 372.37 459.55C376.59 463.7 378.95 469.25 379 475.18C379.05 481.1 376.79 486.69 372.63 490.91C364.86 498.82 352.35 499.77 343.52 493.14Z" fill="#E8656D"/>
<path d="M363.64 455.5L364.44 457.04C365.68 457.82 366.85 458.74 367.94 459.81C376.22 467.95 376.33 481.26 368.19 489.54C363.69 494.12 357.6 496.19 351.66 495.76C358.66 497.52 366.38 495.64 371.8 490.12C379.94 481.84 379.83 468.53 371.55 460.39C369.23 458.12 366.52 456.49 363.64 455.5Z" fill="#C14854"/>
<path opacity="0.5" d="M341.7 486.72C349.65 496.88 360.219 493.41 360.219 493.41C360.219 493.41 352.36 491.59 346.53 485.31C340.44 478.76 338.15 471.8 338.15 471.8C338.15 471.8 335.94 479.36 341.7 486.72Z" fill="white"/>
<path opacity="0.5" d="M343.59 572.9C346.55 569 349.53 569.7 349.53 569.7C349.53 569.7 345.63 573.12 343.46 577.83C341.42 582.26 341.72 589.44 341.72 589.44C341.72 589.44 339.72 584.62 340 582.18C340.47 578.2 341.6 575.53 343.59 572.9Z" fill="white"/>
<path d="M346.439 567.08L347.979 495.72" stroke="#0D2232" stroke-width="4" stroke-miterlimit="10" stroke-linecap="round" stroke-linejoin="round"/>
<path d="M364.75 496.11L363.21 567.48" stroke="#0D2232" stroke-width="4" stroke-miterlimit="10" stroke-linecap="round" stroke-linejoin="round"/>
<path d="M343.52 493.14C342.73 492.55 341.97 491.89 341.26 491.19C337.04 487.04 334.68 481.49 334.63 475.56C334.58 469.64 336.84 464.05 341 459.83C342.08 458.73 343.27 457.75 344.55 456.9C344.93 456.65 345.42 456.64 345.81 456.89C345.84 456.91 345.86 456.92 345.88 456.94C346.22 457.19 346.39 457.61 346.33 458.03L344.59 469.64L357.54 476.1L367.69 465.78L362.62 456.02C362.4 455.6 362.46 455.09 362.77 454.73C363.08 454.37 363.57 454.24 364.02 454.39C366.21 455.14 368.25 456.22 370.11 457.61C370.9 458.2 371.66 458.86 372.37 459.55C376.59 463.7 378.95 469.25 379 475.18C379.05 481.1 376.79 486.69 372.63 490.91C364.86 498.82 352.35 499.77 343.52 493.14Z" stroke="#0D2232" stroke-width="4" stroke-miterlimit="10" stroke-linecap="round" stroke-linejoin="round"/>
<path d="M280.869 519.93V578.09C280.869 578.09 292.439 595.45 314.939 595.45C337.439 595.45 353.509 595.45 353.509 595.45L360.259 586.77C360.259 586.77 365.719 545.95 366.369 530.2C366.369 530.2 304.659 531.85 280.869 519.93Z" fill="#FEC400"/>
<path d="M286.129 522.15V565.81C286.129 573.24 290.329 580.05 296.999 583.31C307.969 588.68 327.979 593.8 360.259 586.78L353.509 595.46L311.559 595.7C311.559 595.7 289.859 592.89 280.859 578.1V519.94L286.129 522.15Z" fill="#E89F02"/>
<path d="M280.869 519.93V573.14C280.869 576.76 282.329 580.22 284.889 582.78C290.039 587.92 300.119 595.45 314.939 595.45H346.439C350.899 595.45 355.109 593.39 357.849 589.87C359.429 587.84 360.439 585.42 360.769 582.87C362.139 572.28 365.839 542.99 366.359 530.2C366.369 530.2 304.659 531.85 280.869 519.93Z" stroke="#0D2232" stroke-width="4" stroke-miterlimit="10" stroke-linecap="round" stroke-linejoin="round"/>
<path d="M280.869 535.02C280.869 535.02 300.569 551.92 364.849 545.49" stroke="#0D2232" stroke-width="4" stroke-miterlimit="10" stroke-linecap="round" stroke-linejoin="round"/>
</g>
<defs>
<clipPath id="clip0_344_5433">
<rect width="455" height="722" fill="white"/>
</clipPath>
</defs>
</svg>
