<svg width="1000" height="1000" viewBox="0 0 1000 1000" fill="none" xmlns="http://www.w3.org/2000/svg">
<path d="M397.532 795.609L470.962 795.609L470.962 774.109L397.532 774.109L397.532 795.609Z" fill="#435F84" stroke="#0D2232" stroke-width="6" stroke-miterlimit="10" stroke-linecap="round" stroke-linejoin="round"/>
<path d="M608.439 734.45V775.39L627.729 795.63L646.369 775.39L646.329 674.57H631.229L608.439 734.45Z" fill="#AFCADC"/>
<path d="M627.41 771.47C631.403 771.47 634.64 768.233 634.64 764.24C634.64 760.247 631.403 757.01 627.41 757.01C623.417 757.01 620.18 760.247 620.18 764.24C620.18 768.233 623.417 771.47 627.41 771.47Z" stroke="#0D2232" stroke-width="4" stroke-miterlimit="10" stroke-linecap="round" stroke-linejoin="round"/>
<path opacity="0.2" d="M646.369 675.66H639.729V771.47L627.789 783.4L615.369 770.97V681.92L608.439 682.38V775.39L628.209 795.15L647.169 776.19L646.369 675.66Z" fill="black"/>
<path d="M608.439 734.45V775.39L627.729 795.63L646.369 775.39V675.66H631.259L608.439 734.45Z" stroke="#0D2232" stroke-width="4" stroke-miterlimit="10" stroke-linecap="round" stroke-linejoin="round"/>
<path d="M628.31 284.08C628.31 284.08 622.33 289.43 595.91 291.63C569.48 293.83 383.52 299.42 383.52 299.42L372.07 293.83C372.07 293.83 345.76 292.38 342.03 284.08C338.3 275.78 432.1 242.87 432.1 242.87L550.61 239.25L577.67 250.02L628.31 284.08Z" fill="#CFB300"/>
<path d="M628.31 284.08C628.31 284.08 622.33 289.43 595.91 291.63C569.48 293.83 383.52 299.42 383.52 299.42L372.07 293.83C372.07 293.83 345.76 292.38 342.03 284.08C338.3 275.78 432.1 242.87 432.1 242.87L550.61 239.25L577.67 250.02L628.31 284.08Z" stroke="#0D2232" stroke-width="6" stroke-miterlimit="10" stroke-linecap="round" stroke-linejoin="round"/>
<path d="M373.11 332.85C373.11 332.85 342.92 336.47 346.69 371.39C350.47 406.31 393.95 399.02 393.95 399.02L390.21 348.89L373.11 332.85Z" fill="#FBC6A6" stroke="#0D2232" stroke-width="6" stroke-miterlimit="10"/>
<path d="M604.72 332.85C604.72 332.85 627.69 336.63 629.42 362.11C631.15 387.59 602.81 410.1 580.64 401.2C558.47 392.3 574.83 354.24 574.83 354.24L604.72 332.85Z" fill="#FBC6A6" stroke="#0D2232" stroke-width="6" stroke-miterlimit="10"/>
<path opacity="0.4" d="M602.67 347.95C602.67 347.95 614.6 354.27 609.51 368.01C602.39 387.26 587.88 381.92 587.88 381.92L592.28 358.01L602.67 347.95Z" fill="black"/>
<path opacity="0.4" d="M368.73 347.95C368.73 347.95 356.8 354.27 361.89 368.01C369.01 387.26 383.52 381.92 383.52 381.92L379.12 358.01L368.73 347.95Z" fill="black"/>
<path d="M591.089 336.62V365.29C591.089 365.29 590.829 370.26 589.009 377.95C584.929 395.19 573.019 426.11 538.649 445.47C533.759 448.22 528.839 450.51 523.909 452.37C509.589 457.78 495.249 459.61 481.579 458.85C452.129 457.21 425.869 443.54 409.979 427.85C384.179 402.37 382.609 363.53 382.609 363.53V309.25L413.129 272.44L569.879 274.33L589.199 296.98L591.089 336.62Z" fill="#FBC6A6"/>
<path opacity="0.5" d="M429.6 431.89C449.92 446.55 468.97 454.04 483.59 457.86C454.14 456.22 427.88 442.55 411.99 426.86C386.19 401.38 384.62 362.54 384.62 362.54V352.94L393.08 346.32C393.07 346.32 385.56 400.11 429.6 431.89Z" fill="white"/>
<path opacity="0.5" d="M586.01 377.95C581.93 395.19 570.02 426.11 535.65 445.47C530.76 448.22 525.84 450.51 520.91 452.37C538.4 438.74 566.87 413.61 575.6 388.63C578.56 380.18 582.19 377.31 586.01 377.95Z" fill="white"/>
<path d="M628.31 284.08C628.31 284.08 617.3 279.99 602.51 279.99C587.72 279.99 367.67 279.99 367.67 279.99C367.67 279.99 347.69 279.2 342.03 284.08V270.4C342.03 265.1 346.33 260.8 351.63 260.8H618.72C624.02 260.8 628.32 265.1 628.32 270.4V284.08H628.31Z" fill="#F9DC1B"/>
<path d="M613.08 260.8C613.08 260.91 613.08 260.96 613.08 260.96H485.04V260.8H357C357 260.8 357 260.77 357 260.72C356.96 259.67 356.55 249.23 357 244.45C357.47 239.41 361.56 239.26 361.56 239.26C361.56 239.26 368.64 176.5 440.05 155.74C440.05 155.74 439.42 143.15 451.06 141.9C462.7 140.64 485.04 139.07 485.04 139.07V139.23C485.04 139.23 507.37 140.8 519.01 142.06C530.65 143.32 530.02 155.9 530.02 155.9C601.43 176.66 608.51 239.42 608.51 239.42C608.51 239.42 612.6 239.58 613.07 244.61C613.52 249.28 613.14 259.41 613.08 260.8Z" fill="#F9DC1B"/>
<path opacity="0.73" d="M613.08 260.8H602.2C602.2 260.8 596.69 196.62 530.16 164.53L530.12 157.27C530.12 157.27 477.95 140.93 439.93 158.55L440.41 168.94C440.41 168.94 381.36 185.29 366.89 260.48L357 260.71C356.96 259.66 356.55 249.22 357 244.44C357.47 239.4 361.56 239.25 361.56 239.25C361.56 239.25 368.64 176.49 440.05 155.73C440.05 155.73 439.42 143.14 451.06 141.89C462.7 140.63 485.04 139.06 485.04 139.06V139.22C485.04 139.22 507.37 140.79 519.01 142.05C530.65 143.31 530.02 155.89 530.02 155.89C601.43 176.65 608.51 239.41 608.51 239.41C608.51 239.41 612.6 239.57 613.07 244.6C613.52 249.28 613.14 259.41 613.08 260.8Z" fill="white"/>
<path d="M613.08 244.6C612.61 239.57 608.52 239.41 608.52 239.41C608.52 239.41 601.44 176.65 530.03 155.89C530.03 155.89 530.66 143.31 519.02 142.05C507.38 140.79 485.04 139.22 485.04 139.22V139.06C485.04 139.06 462.7 140.63 451.06 141.89C439.42 143.15 440.05 155.73 440.05 155.73C368.64 176.49 361.56 239.25 361.56 239.25C361.56 239.25 357.47 239.41 357 244.44C356.53 249.47 357 260.8 357 260.8H485.04V260.96H613.08C613.08 260.96 613.55 249.64 613.08 244.6Z" stroke="#0D2232" stroke-width="6" stroke-miterlimit="10" stroke-linecap="round" stroke-linejoin="round"/>
<path d="M529.4 468.86H559.729V634.54H409.979V468.86H529.4Z" fill="white"/>
<path d="M533.2 475.67H439.66V576.55H533.2V475.67Z" fill="#F9DC1B"/>
<path d="M559.729 597.73H409.979V634.54H559.729V597.73Z" fill="#F9DC1B"/>
<path d="M511.179 456.8C511.179 456.8 481.799 463.09 461.779 456.8L454.859 487.74L473.109 494.55C473.109 494.55 485.179 499.58 499.859 494.55C514.539 489.52 519.159 474.84 519.159 474.84L511.179 456.8Z" fill="#FBC6A6" stroke="#0D2232" stroke-width="6" stroke-miterlimit="10"/>
<path d="M530.22 490.83C529.43 502.68 527.53 513.64 527.53 513.64L499.84 494.55C499.84 494.55 503.01 487.04 505.62 479.6C507.14 475.25 508.48 470.91 508.86 468.12C509.91 460.57 511.17 456.8 511.17 456.8C511.17 456.8 527.32 455.96 529.83 470.85C530.79 476.41 530.7 483.77 530.22 490.83Z" fill="#435F84"/>
<path d="M530.22 490.83C523.09 490.3 514.79 486.75 510.51 483.71C508.79 482.48 507.11 481.12 505.62 479.6C507.14 475.25 508.48 470.91 508.86 468.12C509.91 460.57 511.17 456.8 511.17 456.8C511.17 456.8 527.32 455.96 529.83 470.85C530.79 476.41 530.7 483.77 530.22 490.83Z" fill="#253B5A"/>
<path d="M511.179 456.8C511.179 456.8 527.329 455.96 529.849 470.85C532.369 485.74 527.539 513.63 527.539 513.63L499.859 494.54C499.859 494.54 507.829 475.66 508.879 468.11C509.919 460.57 511.179 456.8 511.179 456.8Z" stroke="#0D2232" stroke-width="6" stroke-miterlimit="10"/>
<path d="M442.73 490.83C443.52 502.68 445.42 513.64 445.42 513.64L473.11 494.55C473.11 494.55 469.94 487.04 467.33 479.6C465.81 475.25 464.47 470.91 464.09 468.12C463.04 460.57 461.78 456.8 461.78 456.8C461.78 456.8 445.63 455.96 443.12 470.85C442.17 476.41 442.26 483.77 442.73 490.83Z" fill="#435F84"/>
<path d="M442.73 490.83C449.86 490.3 458.16 486.75 462.44 483.71C464.16 482.48 465.84 481.12 467.33 479.6C465.81 475.25 464.47 470.91 464.09 468.12C463.04 460.57 461.78 456.8 461.78 456.8C461.78 456.8 445.63 455.96 443.12 470.85C442.17 476.41 442.26 483.77 442.73 490.83Z" fill="#253B5A"/>
<path d="M461.78 456.8C461.78 456.8 445.63 455.96 443.11 470.85C440.59 485.74 445.42 513.63 445.42 513.63L473.1 494.54C473.1 494.54 465.13 475.66 464.08 468.11C463.03 460.56 461.78 456.8 461.78 456.8Z" stroke="#0D2232" stroke-width="6" stroke-miterlimit="10"/>
<path d="M464.619 528.31H425.609V563.96H464.619V528.31Z" fill="#F9DC1B" stroke="#0D2232" stroke-width="6" stroke-miterlimit="10"/>
<path d="M464.619 542.37H425.609" stroke="#0D2232" stroke-width="6" stroke-miterlimit="10"/>
<path d="M530.03 155.89C530.03 155.89 531.13 166.43 526.88 187.98Z" fill="#F9DC1B"/>
<path d="M530.03 155.89C530.03 155.89 531.13 166.43 526.88 187.98" stroke="#0D2232" stroke-width="6" stroke-miterlimit="10" stroke-linecap="round" stroke-linejoin="round"/>
<path d="M608.52 239.41H576.09C572.66 239.41 569.88 242.19 569.88 245.62V260.96" stroke="#0D2232" stroke-width="6" stroke-miterlimit="10" stroke-linecap="round" stroke-linejoin="round"/>
<path d="M440.05 155.73C440.05 155.73 438.95 166.27 443.2 187.82Z" fill="#F9DC1B"/>
<path d="M440.05 155.73C440.05 155.73 438.95 166.27 443.2 187.82" stroke="#0D2232" stroke-width="6" stroke-miterlimit="10" stroke-linecap="round" stroke-linejoin="round"/>
<path d="M361.56 239.25H393.99C397.42 239.25 400.2 242.03 400.2 245.46V260.8" stroke="#0D2232" stroke-width="6" stroke-miterlimit="10" stroke-linecap="round" stroke-linejoin="round"/>
<path opacity="0.74" d="M614.94 270.19C608.48 267.73 601.38 267.78 594.48 267.85C544.03 268.39 493.58 268.92 443.13 269.46C420.71 269.7 398.3 269.94 375.88 270.18C365.93 270.29 354.77 270.91 348.07 278.25C346.75 279.7 345.46 281.48 343.52 281.77C340.56 282.22 338.37 278.78 338.31 275.79C338.19 270.18 342.51 265.23 347.61 262.87C352.71 260.52 358.49 260.24 364.1 260.05C447.2 257.22 530.54 265.29 613.46 259.16C618.25 258.81 623.91 258.78 626.78 262.64C628.36 264.77 628.62 267.58 628.83 270.23C629.03 272.9 631.21 282.86 625.84 279.05C624.1 277.82 622.9 275.13 621.1 273.69C619.26 272.22 617.14 270.96 614.94 270.19Z" fill="white"/>
<path d="M628.31 284.08C628.31 284.08 617.3 279.99 602.51 279.99C587.72 279.99 367.67 279.99 367.67 279.99C367.67 279.99 347.69 279.2 342.03 284.08V270.4C342.03 265.1 346.33 260.8 351.63 260.8H618.72C624.02 260.8 628.32 265.1 628.32 270.4V284.08H628.31Z" stroke="#0D2232" stroke-width="6" stroke-miterlimit="10" stroke-linecap="round" stroke-linejoin="round"/>
<path d="M391.039 314.08C391.039 314.08 390.499 343.07 391.039 351.41C391.579 359.75 385.919 367.3 377.269 361.48C368.619 355.66 370.299 321.06 370.299 321.06C370.299 321.06 379.269 321.47 391.039 314.08Z" fill="#253B5A" stroke="#0D2232" stroke-width="6" stroke-miterlimit="10"/>
<path d="M438.479 360.47C447.338 360.47 454.519 353.289 454.519 344.43C454.519 335.571 447.338 328.39 438.479 328.39C429.621 328.39 422.439 335.571 422.439 344.43C422.439 353.289 429.621 360.47 438.479 360.47Z" fill="#0D2232"/>
<path d="M533.3 360.47C542.158 360.47 549.34 353.289 549.34 344.43C549.34 335.571 542.158 328.39 533.3 328.39C524.441 328.39 517.26 335.571 517.26 344.43C517.26 353.289 524.441 360.47 533.3 360.47Z" fill="#0D2232"/>
<path d="M554.17 316.19C552.88 316.19 551.59 315.75 550.54 314.84C550.05 314.43 539.27 305.47 523.47 307.94C520.43 308.42 517.58 306.34 517.11 303.3C516.63 300.26 518.71 297.41 521.75 296.94C542.84 293.64 557.23 305.89 557.83 306.42C560.15 308.44 560.4 311.96 558.38 314.28C557.28 315.54 555.73 316.19 554.17 316.19Z" fill="#0D2232"/>
<path d="M418.09 316.19C419.38 316.19 420.67 315.75 421.72 314.84C422.21 314.43 432.99 305.47 448.79 307.94C451.83 308.42 454.68 306.34 455.15 303.3C455.63 300.26 453.55 297.41 450.51 296.94C429.42 293.64 415.03 305.89 414.43 306.42C412.11 308.44 411.86 311.96 413.88 314.28C414.98 315.54 416.53 316.19 418.09 316.19Z" fill="#0D2232"/>
<path d="M535.53 391.87C531.34 399.56 525.18 407.93 516.38 414.09C508.61 419.53 498.78 423.24 486.43 423.24C472.96 423.24 462.53 418.82 454.51 412.57C446.82 406.58 441.35 398.89 437.54 391.79C434.21 385.56 436.2 378.46 441.07 374.51C443.41 372.61 446.41 371.44 449.8 371.44H523.32C526.71 371.44 529.71 372.61 532.05 374.51C536.94 378.48 538.93 385.64 535.53 391.87Z" fill="#162336"/>
<path d="M515.21 388.64C499.43 388.64 452.03 388.64 452.03 388.64C452.03 388.64 439.4 389.12 441.07 374.51C443.41 372.61 446.41 371.44 449.8 371.44H523.32C526.71 371.44 529.71 372.61 532.05 374.51C532.23 374.66 530.99 388.64 515.21 388.64Z" fill="white"/>
<path d="M516.38 414.09C508.61 419.53 498.78 423.24 486.43 423.24C472.96 423.24 462.53 418.82 454.51 412.57C459.24 402.16 476.75 398.68 494.4 399.65C507.99 400.39 513.9 408.42 516.38 414.09Z" fill="#DD1010"/>
<path d="M449.8 371.44H523.32C533.81 371.44 540.55 382.66 535.53 391.87C527.63 406.36 512.77 423.24 486.43 423.24C460.04 423.24 445.32 406.3 437.54 391.79C432.61 382.58 439.35 371.44 449.8 371.44Z" stroke="#0D2232" stroke-width="6" stroke-miterlimit="10"/>
<path d="M559.729 634.54H409.979V668.41H559.729V634.54Z" fill="#253B5A" stroke="#0D2232" stroke-width="6" stroke-miterlimit="10"/>
<path d="M510.549 634.54H463.149V668.41H510.549V634.54Z" fill="#C3CDD4" stroke="#0D2232" stroke-width="6" stroke-miterlimit="10"/>
<path d="M628.55 845H631.91C633.53 845 634.85 846.31 634.85 847.94V856.59C634.85 858.99 632.9 860.94 630.5 860.94H554.11L538.49 850.45V860.94H499.74C497.34 860.94 495.39 858.99 495.39 856.59V840.13C495.39 837.84 497.25 835.98 499.54 835.99H500.98L602.61 835.1L628.55 845Z" fill="#484D60" stroke="#0D2232" stroke-width="6" stroke-miterlimit="10" stroke-linecap="round" stroke-linejoin="round"/>
<path d="M630.12 841.23L628.55 845H558.55L540.46 835.98H500.96C500.96 835.98 499.15 827.28 500.67 816.5C501.61 809.81 503.84 802.32 508.58 795.61H568.77L573.49 800.65C573.49 800.65 581.98 800.96 582.61 808.83C582.61 808.83 584.1 808.08 586.67 807.26C591.74 805.64 601 803.71 611.24 806.63C626.66 811.03 633.9 830.85 630.12 841.23Z" fill="#E89F02"/>
<path d="M524.1 835.99H500.96C500.96 835.99 499.15 827.29 500.67 816.51C500.76 816.5 500.86 816.5 500.96 816.49C524.07 815.33 524.1 835.99 524.1 835.99Z" fill="#834526"/>
<path opacity="0.75" d="M630.12 841.23L628.55 845H618.48C618.48 845 627.44 812.71 586.68 807.25C591.75 805.63 601.01 803.7 611.25 806.62C626.66 811.03 633.9 830.85 630.12 841.23Z" fill="white"/>
<path d="M568.78 795.61L573.5 800.64C573.5 800.64 581.99 800.95 582.62 808.82C582.62 808.82 595.83 802.21 611.25 806.62C626.67 811.02 633.9 830.84 630.13 841.23L628.56 845.01H558.56L540.469 835.99H500.97C500.97 835.99 496.22 813.13 508.59 795.62H568.78V795.61Z" stroke="#0D2232" stroke-width="6" stroke-miterlimit="10" stroke-linecap="round" stroke-linejoin="round"/>
<path d="M582.62 808.83C582.62 808.83 562.38 815.44 558.55 845.01" stroke="#0D2232" stroke-width="6" stroke-miterlimit="10" stroke-linecap="round" stroke-linejoin="round"/>
<path d="M573.49 800.65C573.49 800.65 559.33 803.48 554.09 816.48" stroke="#0D2232" stroke-width="6" stroke-miterlimit="10" stroke-linecap="round" stroke-linejoin="round"/>
<path d="M573.5 774.12H500.07V795.62H573.5V774.12Z" fill="#435F84" stroke="#0D2232" stroke-width="6" stroke-miterlimit="10" stroke-linecap="round" stroke-linejoin="round"/>
<path d="M566.89 774.12L558.39 668.41H485.51V688.97L495.37 688.34L505.86 774.12H566.89Z" fill="#435F84" stroke="#0D2232" stroke-width="6" stroke-miterlimit="10" stroke-linecap="round" stroke-linejoin="round"/>
<path d="M342.48 845H339.12C337.5 845 336.18 846.31 336.18 847.94V856.59C336.18 858.99 338.13 860.94 340.53 860.94H416.92L432.54 850.45V860.94H471.29C473.69 860.94 475.64 858.99 475.64 856.59V840.13C475.64 837.84 473.78 835.98 471.49 835.99H470.05L368.42 835.1L342.48 845Z" fill="#484D60" stroke="#0D2232" stroke-width="6" stroke-miterlimit="10" stroke-linecap="round" stroke-linejoin="round"/>
<path d="M340.9 841.23L342.47 845H412.47L430.56 835.98H470.06C470.06 835.98 471.87 827.28 470.35 816.5C469.41 809.81 467.18 802.32 462.44 795.61H402.25L397.53 800.65C397.53 800.65 389.04 800.96 388.41 808.83C388.41 808.83 386.92 808.08 384.35 807.26C379.28 805.64 370.02 803.71 359.78 806.63C344.37 811.03 337.13 830.85 340.9 841.23Z" fill="#E89F02"/>
<path d="M446.92 835.99H470.06C470.06 835.99 471.87 827.29 470.35 816.51C470.26 816.5 470.16 816.5 470.06 816.49C446.96 815.33 446.92 835.99 446.92 835.99Z" fill="#834526"/>
<path opacity="0.75" d="M340.9 841.23L342.47 845H352.54C352.54 845 343.58 812.71 384.34 807.25C379.27 805.63 370.01 803.7 359.77 806.62C344.37 811.03 337.13 830.85 340.9 841.23Z" fill="white"/>
<path d="M402.25 795.61L397.53 800.64C397.53 800.64 389.04 800.95 388.41 808.82C388.41 808.82 375.2 802.21 359.78 806.62C344.36 811.02 337.13 830.84 340.9 841.23L342.47 845.01H412.47L430.56 835.99H470.06C470.06 835.99 474.81 813.13 462.44 795.62H402.25V795.61Z" stroke="#0D2232" stroke-width="6" stroke-miterlimit="10" stroke-linecap="round" stroke-linejoin="round"/>
<path d="M388.41 808.83C388.41 808.83 408.65 815.44 412.48 845.01" stroke="#0D2232" stroke-width="6" stroke-miterlimit="10" stroke-linecap="round" stroke-linejoin="round"/>
<path d="M397.53 800.65C397.53 800.65 411.69 803.48 416.93 816.48" stroke="#0D2232" stroke-width="6" stroke-miterlimit="10" stroke-linecap="round" stroke-linejoin="round"/>
<path d="M404.14 774.12L412.63 668.41H485.51V688.97L475.66 688.34L465.17 774.12H404.14Z" fill="#435F84" stroke="#0D2232" stroke-width="6" stroke-miterlimit="10" stroke-linecap="round" stroke-linejoin="round"/>
<path d="M367.91 556.93C367.91 556.93 354.62 566.9 330.21 558.72C305.8 550.54 298.72 522.65 298.72 522.65V515.63L299.91 515.45L341.39 509.17H345.31L358.61 502.11L365.3 532.94L366.03 539.71L367.91 556.93Z" fill="#FBC6A6"/>
<path opacity="0.16" d="M367.91 556.93C367.91 556.93 354.62 566.9 330.21 558.72C305.8 550.54 298.72 522.65 298.72 522.65V515.63L299.91 515.45C307.26 523.96 315.8 531.45 325.19 537.63C327.94 539.43 330.77 541.14 333.82 542.37C342.02 545.68 351.24 545.21 359.52 542.45C361.65 541.74 363.74 540.87 365.75 539.87C365.84 539.83 365.93 539.78 366.03 539.71L367.91 556.93Z" fill="black"/>
<path d="M345.32 509.16H341.4L298.72 515.63V522.66C298.72 522.66 305.8 550.55 330.21 558.73C354.62 566.91 367.91 556.94 367.91 556.94L365.31 532.94L358.62 502.11L345.32 509.16Z" stroke="#0D2232" stroke-width="6" stroke-miterlimit="10" stroke-linecap="round" stroke-linejoin="round"/>
<path d="M397.72 554.11L372.13 565.85L349.18 517.32L342.97 504.19L367.51 492.03L374.27 505.92L397.72 554.11Z" fill="#435F84"/>
<path opacity="0.21" d="M374.27 505.92L374.24 505.96L349.18 517.32L342.97 504.19L367.51 492.03L374.27 505.92Z" fill="white"/>
<path d="M409.99 475.67V542.37L395.41 549.92L374.24 505.96L369.82 496.78L409.99 475.67Z" fill="#F9DC1B"/>
<path opacity="0.5" d="M409.99 475.67V487.62L374.24 505.96L369.82 496.78L409.99 475.67Z" fill="white"/>
<path d="M337.94 490.82C337.94 490.82 347.17 500.85 341.51 513.64C341.51 513.64 339.2 522.66 324.94 522.66H296.31C292.31 522.66 288.56 521.6 285.32 519.74C278.67 515.93 274.18 508.75 274.18 500.54V464.04C274.18 451.82 284.09 441.92 296.31 441.92H327.24C327.24 441.92 342.97 441.5 344.65 454.5C344.65 454.5 347.37 464.78 338.36 467.71C338.36 467.7 354.3 479.74 337.94 490.82Z" fill="#FBC6A6"/>
<path opacity="0.5" d="M344.65 454.49C344.65 454.49 338.57 450.72 322 450.72C305.43 450.72 301.24 450.72 301.24 450.72C301.24 450.72 285.09 449.46 285.3 463.93C285.46 475.13 285.37 506.24 285.32 519.73C278.67 515.92 274.18 508.74 274.18 500.53V464.03C274.18 451.81 284.09 441.91 296.31 441.91H327.24C327.25 441.91 342.97 441.48 344.65 454.49Z" fill="white"/>
<path d="M337.94 490.82C337.94 490.82 347.17 500.85 341.51 513.64C341.51 513.64 339.2 522.66 324.94 522.66H296.31C284.09 522.66 274.18 512.75 274.18 500.53V464.04C274.18 451.82 284.09 441.91 296.31 441.91H327.25C327.25 441.91 342.98 441.49 344.66 454.49C344.66 454.49 347.39 464.77 338.37 467.7C338.36 467.7 354.3 479.74 337.94 490.82Z" stroke="#0D2232" stroke-width="6" stroke-miterlimit="10" stroke-linecap="round" stroke-linejoin="round"/>
<path d="M302.5 467.65H338.36" stroke="#0D2232" stroke-width="6" stroke-miterlimit="10" stroke-linecap="round" stroke-linejoin="round"/>
<path d="M302.5 490.82H338.36" stroke="#0D2232" stroke-width="6" stroke-miterlimit="10" stroke-linecap="round" stroke-linejoin="round"/>
<path d="M330.209 442.1V422.83C330.209 414.13 323.159 407.09 314.469 407.09C305.769 407.09 298.729 414.14 298.729 422.83V441.9L330.209 442.1Z" fill="#FBC6A6"/>
<path d="M330.209 442.1V422.83C330.209 414.13 323.159 407.09 314.469 407.09C305.769 407.09 298.729 414.14 298.729 422.83V441.9L330.209 442.1Z" stroke="#0D2232" stroke-width="6" stroke-miterlimit="10" stroke-linecap="round" stroke-linejoin="round"/>
<g opacity="0.16">
<path d="M389.9 279.99H591.09L595.91 291.63H383.52L389.9 279.99Z" fill="black"/>
<path d="M370.29 321.06C370.29 321.06 405.91 329.84 441.56 291.64L409.98 286.85L370.29 321.06Z" fill="black"/>
<path d="M457.49 318.37C457.49 318.37 510.64 327.19 544.71 285.81L515.21 286.84L457.49 318.37Z" fill="black"/>
</g>
<path opacity="0.16" d="M587.89 344.43C587.89 344.43 570.59 441.81 467.33 454.33C467.33 454.33 575.46 469.69 588.83 365.24L587.89 344.43Z" fill="black"/>
<path d="M409.979 512L382.609 523.35L395.409 549.92L409.979 542.37V512Z" fill="#E89F02"/>
<path d="M553.709 616.14H415.899V628.43H553.709V616.14Z" fill="#E89F02"/>
<path d="M529.829 468.86H560.259V634.54H409.979V468.86H439.769" stroke="#0D2232" stroke-width="6" stroke-miterlimit="10"/>
<path d="M367.509 492.03L397.709 554.11L372.129 565.86L342.979 504.19L367.509 492.03Z" stroke="#0D2232" stroke-width="6" stroke-miterlimit="10" stroke-linecap="round" stroke-linejoin="round"/>
<path d="M422.88 279.99C422.88 279.99 395.82 326.24 363.73 320.57C360.82 320.05 358.2 319.47 355.87 318.85C332.52 312.57 336.68 301.44 336.68 301.44C336.68 301.44 356.2 306.8 369.71 281.81C370.03 281.22 370.34 280.62 370.65 280H422.88V279.99Z" fill="#253B5A"/>
<path opacity="0.21" d="M361.56 303.9C352.57 309.4 348.95 309.25 348.95 309.25C348.95 309.25 347.85 313.82 355.87 318.85C332.52 312.57 336.68 301.44 336.68 301.44C336.68 301.44 358.56 304.98 372.07 279.99C372.09 280.33 370.46 298.46 361.56 303.9Z" fill="white"/>
<path d="M635.23 305.79C635.23 305.79 621.87 326.52 598.56 321.81C585.21 319.11 568.59 308.06 549.34 280L606.9 280.12C606.9 280.12 607.08 283.01 608.3 286.85C610.76 294.52 617.41 306 635.23 305.79Z" fill="#253B5A"/>
<path opacity="0.21" d="M635.23 305.79C635.23 305.79 621.87 326.52 598.56 321.81C601.22 321.05 603.8 319.96 606.27 318.73C611.25 316.24 615.91 313.15 620.86 310.6C615.36 310.34 610.46 306.28 608.3 301.21C606.78 297.63 605.72 291.66 607.46 287.97C607.69 287.48 607.99 287.11 608.32 286.86C610.76 294.52 617.41 306 635.23 305.79Z" fill="white"/>
<path d="M606.91 280.11C606.91 280.11 608.49 306.1 635.23 305.79C635.23 305.79 602.2 357.07 549.35 279.99L606.91 280.11Z" stroke="#0D2232" stroke-width="6" stroke-miterlimit="10" stroke-linecap="round" stroke-linejoin="round"/>
<path d="M522.61 279.99C522.61 279.99 510.34 313.34 457.49 318.37C457.49 318.37 466.61 302.01 466.61 279.99H522.61Z" fill="#253B5A" stroke="#0D2232" stroke-width="6" stroke-miterlimit="10" stroke-linecap="round" stroke-linejoin="round"/>
<path d="M422.88 279.99C422.88 279.99 395.82 326.24 363.74 320.57C331.66 314.9 336.68 301.43 336.68 301.43C336.68 301.43 357.13 307.04 370.66 279.98H422.88V279.99Z" stroke="#0D2232" stroke-width="6" stroke-miterlimit="10" stroke-linecap="round" stroke-linejoin="round"/>
<path d="M591.089 365.29C591.089 365.29 588.359 417.47 538.649 445.47C488.939 473.47 435.779 453.33 409.979 427.85C384.179 402.37 382.609 363.53 382.609 363.53" stroke="#0D2232" stroke-width="6" stroke-miterlimit="10"/>
<path d="M604.719 322.5C604.719 322.5 604.249 349.21 603.149 354.4C602.049 359.59 597.489 366.04 588.839 365.25C580.189 364.46 580.499 353.3 580.349 345.43C580.189 337.57 580.349 313.54 580.349 313.54C580.349 313.54 592.129 322.85 604.719 322.5Z" fill="#253B5A" stroke="#0D2232" stroke-width="6" stroke-miterlimit="10" stroke-linecap="round" stroke-linejoin="round"/>
<path d="M503.35 668.41L526.2 795.61H508.58H500.07V774.12H505.86L495.37 685L485.51 688.97V668.41H503.35Z" fill="#253B5A"/>
<path d="M449.349 774.12L445.109 795.61H470.959V774.12H465.169L475.659 685L485.509 688.97V668.41H463.149L449.349 774.12Z" fill="#253B5A"/>
<path d="M495.37 688.34L507.74 686.87" stroke="#0D2232" stroke-width="6" stroke-miterlimit="10" stroke-linecap="round" stroke-linejoin="round"/>
<path d="M475.66 688.34L463.28 686.87" stroke="#0D2232" stroke-width="6" stroke-miterlimit="10" stroke-linecap="round" stroke-linejoin="round"/>
<path d="M558.39 668.41H544.93L554.09 774.12H560.26V795.61H573.49V774.12H566.89L558.39 668.41Z" fill="#C3CDD4"/>
<path d="M413.289 668.41H426.759L417.589 774.12H411.429V795.61H398.189V774.12H404.799L413.289 668.41Z" fill="#C3CDD4"/>
<path d="M573.5 774.12H500.07V795.62H573.5V774.12Z" stroke="#0D2232" stroke-width="6" stroke-miterlimit="10" stroke-linecap="round" stroke-linejoin="round"/>
<path d="M566.89 774.12L558.39 668.41H485.51V688.97L495.37 688.34L505.86 774.12H566.89Z" stroke="#0D2232" stroke-width="6" stroke-miterlimit="10" stroke-linecap="round" stroke-linejoin="round"/>
<path d="M404.14 774.12L412.63 668.41H485.51V688.97L475.66 688.34L465.17 774.12H404.14Z" stroke="#0D2232" stroke-width="6" stroke-miterlimit="10" stroke-linecap="round" stroke-linejoin="round"/>
<path d="M636.37 681.09H619.17V746.23H636.37V681.09Z" fill="#E89F02"/>
<path d="M725.82 660.34V670.68C725.82 673.43 723.58 675.66 720.83 675.66H642.36C639.61 675.66 637.38 673.43 637.38 670.68V660.34C637.38 659.74 637.49 659.16 637.68 658.63C638.37 656.72 640.21 655.35 642.36 655.35H720.83C722.98 655.35 724.82 656.72 725.52 658.63C725.71 659.16 725.82 659.74 725.82 660.34Z" fill="#AFCADC"/>
<path opacity="0.2" d="M637.37 669.58V670.68C637.37 673.43 639.6 675.67 642.35 675.67H720.82C723.57 675.67 725.8 673.44 725.8 670.68V669.58H637.37Z" fill="black"/>
<path opacity="0.7" d="M725.509 658.63H637.669C638.359 656.72 640.199 655.35 642.349 655.35H720.819C722.979 655.35 724.809 656.71 725.509 658.63Z" fill="white"/>
<path d="M725.82 660.34V670.68C725.82 673.43 723.58 675.66 720.83 675.66H642.36C639.61 675.66 637.38 673.43 637.38 670.68V660.34C637.38 659.74 637.49 659.16 637.68 658.63C638.37 656.72 640.21 655.35 642.36 655.35H720.83C722.98 655.35 724.82 656.72 725.52 658.63C725.71 659.16 725.82 659.74 725.82 660.34Z" stroke="#0D2232" stroke-width="4" stroke-miterlimit="10" stroke-linecap="round" stroke-linejoin="round"/>
<path d="M551.87 674.02C551.87 674.02 573.08 690.73 637.37 684.31" stroke="white" stroke-miterlimit="10"/>
<path d="M533.87 634.16V722.88L545.44 734.45H624.51L613.91 726.09L614.55 634.16H533.87Z" fill="#F9DC1B"/>
<path d="M543.51 634.16V717.32L550.26 726.09H631.26L624.51 734.45H545.44L533.87 722.88V634.16H543.51Z" fill="#E89F02"/>
<path d="M546.079 646.52H540.939V651.66H546.079V646.52Z" fill="white"/>
<path d="M546.079 662.93H540.939V668.07H546.079V662.93Z" fill="white"/>
<path d="M546.079 679.35H540.939V684.49H546.079V679.35Z" fill="white"/>
<path d="M546.079 695.76H540.939V700.9H546.079V695.76Z" fill="white"/>
<path d="M546.079 712.17H540.939V717.31H546.079V712.17Z" fill="white"/>
<path d="M614.55 669.2V634.16H533.87V722.88L545.44 734.45H617.44" stroke="#0D2232" stroke-width="4" stroke-miterlimit="10" stroke-linecap="round" stroke-linejoin="round"/>
<path d="M414.3 658.93V718.37C414.3 718.37 389.87 737.01 352.59 734.44C352.59 734.44 337.16 710.01 332.66 669.19C332.66 669.2 396.94 672.78 414.3 658.93Z" stroke="white" stroke-miterlimit="10"/>
<path d="M335.21 685.78C335.21 685.78 388.59 686.24 414.3 674.02" stroke="white" stroke-miterlimit="10"/>
<path d="M348.04 725.81C348.04 725.81 380.22 726.73 398.87 716.45L394.75 666.27L414.3 658.93V718.37C414.3 718.37 392.44 735.73 352.59 734.44L348.04 725.81Z" stroke="white" stroke-miterlimit="10"/>
<path d="M414.47 674.02C414.47 674.02 393.23 690.73 328.87 684.31" stroke="white" stroke-miterlimit="10"/>
<path d="M432.49 634.16V722.88L420.9 734.45H341.74L352.36 726.09L351.72 634.16H432.49Z" fill="#F9DC1B"/>
<path d="M422.83 634.16V717.32L416.08 726.09H334.98L341.74 734.45H420.9L432.49 722.88V634.16H422.83Z" fill="#E89F02"/>
<path d="M420.26 651.667H425.41V646.527H420.26V651.667Z" fill="white"/>
<path d="M420.26 668.082H425.41V662.942H420.26V668.082Z" fill="white"/>
<path d="M420.26 684.488H425.41V679.348H420.26V684.488Z" fill="white"/>
<path d="M420.26 700.903H425.41V695.763H420.26V700.903Z" fill="white"/>
<path d="M420.26 717.319H425.41V712.179H420.26V717.319Z" fill="white"/>
<path d="M351.72 669.2V634.16H432.49V722.88L420.9 734.45L342.81 733.61" stroke="#0D2232" stroke-width="4" stroke-miterlimit="10" stroke-linecap="round" stroke-linejoin="round"/>
<path d="M357.64 604.1L362.31 621.71L359.58 624.62C356.31 619.72 350.27 616.99 344.21 618.22C343.92 618.28 343.63 618.35 343.34 618.42C344.59 617.38 345.5 616.2 346.08 614.98C348.62 609.67 345.28 603.31 339.01 602.17L335.23 587.93C344.72 589.24 351.58 594.3 356.63 601.93C357.1 602.6 357.44 603.33 357.64 604.1Z" fill="#AFCADC"/>
<path d="M359.56 624.93L359.43 624.73C356.13 619.78 350.04 617.24 344.26 618.41C343.99 618.46 343.71 618.53 343.41 618.61L342.57 618.83L343.24 618.27C344.43 617.28 345.34 616.15 345.93 614.89C347.09 612.47 347.04 609.7 345.81 607.29C344.48 604.7 342 602.9 339 602.35L338.88 602.33L335 587.7L335.29 587.74C344.32 588.99 351.37 593.59 356.83 601.82C357.29 602.51 357.63 603.26 357.84 604.05L362.54 621.76L359.56 624.93ZM344.06 618.05C344.1 618.04 344.14 618.03 344.19 618.02C350.04 616.83 356.2 619.35 359.62 624.3L362.11 621.64L357.46 604.14C357.26 603.39 356.94 602.68 356.5 602.02C351.16 593.98 344.3 589.43 335.52 588.15L339.19 601.99C342.25 602.58 344.79 604.44 346.15 607.11C347.44 609.63 347.48 612.52 346.27 615.05C345.75 616.15 345.01 617.16 344.06 618.05Z" fill="#000072"/>
<g opacity="0.55">
<path d="M346.07 617.97C345.46 618.01 344.84 618.1 344.22 618.22C343.93 618.28 343.64 618.35 343.35 618.42C344.6 617.38 345.51 616.2 346.09 614.98C348.63 609.67 345.29 603.31 339.02 602.17L335.24 587.93C336.26 588.07 337.24 588.25 338.19 588.48L341.71 601.73C347.98 602.87 351.32 609.22 348.78 614.54C348.21 615.76 347.31 616.93 346.07 617.97Z" fill="white"/>
</g>
<g opacity="0.55">
<path d="M346.13 617.96L346.04 617.98C346.05 617.97 346.05 617.97 346.06 617.96C346.09 617.96 346.11 617.96 346.13 617.96Z" fill="white"/>
<path d="M346.18 618.15L345.27 618.39L346.01 617.78C346.05 617.77 346.08 617.77 346.1 617.77L347.73 617.73L346.18 618.15Z" fill="#371A45"/>
</g>
<path d="M365.33 633.08L367.61 641.69C367.75 642.22 367.46 642.78 366.96 642.97C366.92 642.98 366.89 642.99 366.85 643L351.27 647.14C349.69 647.56 348.09 647.71 346.52 647.62C341.5 647.32 336.81 644.55 334.27 640.22C333.62 639.12 333.11 637.93 332.77 636.64C332.34 635.03 332.2 633.42 332.3 631.85C332.7 625.64 336.99 620.11 343.34 618.43H343.35C343.64 618.35 343.92 618.29 344.22 618.23C350.28 617 356.32 619.73 359.59 624.63C360.55 626.07 361.26 627.69 361.68 629.45C361.95 630.59 362.07 631.73 362.07 632.85L364.03 632.33C364.39 632.23 364.76 632.34 365.02 632.57C365.16 632.69 365.28 632.87 365.33 633.08Z" fill="#AFCADC"/>
<path d="M366.91 643.19L351.33 647.33C349.76 647.75 348.14 647.91 346.52 647.81C341.4 647.51 336.65 644.64 334.11 640.32C333.44 639.19 332.93 637.97 332.59 636.7C332.17 635.1 332.01 633.47 332.11 631.84C332.53 625.37 337.02 619.91 343.29 618.24C343.62 618.15 343.9 618.09 344.18 618.03C350.1 616.83 356.36 619.43 359.74 624.51C360.73 626 361.44 627.64 361.85 629.39C362.1 630.44 362.23 631.52 362.24 632.59L363.96 632.13C364.37 632.02 364.81 632.12 365.12 632.41C365.31 632.57 365.44 632.79 365.5 633.03L367.78 641.64C367.95 642.27 367.61 642.92 367.01 643.15C366.99 643.16 366.95 643.17 366.91 643.19ZM343.41 618.6C337.29 620.23 332.91 625.55 332.5 631.85C332.39 633.44 332.55 635.03 332.96 636.58C333.29 637.82 333.79 639.01 334.44 640.11C336.91 644.32 341.55 647.12 346.54 647.41C348.12 647.5 349.7 647.35 351.23 646.94L366.81 642.8C366.84 642.79 366.87 642.78 366.9 642.77C367.32 642.61 367.55 642.16 367.44 641.72L365.16 633.11C365.12 632.94 365.02 632.79 364.89 632.68C364.67 632.48 364.37 632.41 364.08 632.48L361.88 633.06V632.81C361.88 631.69 361.75 630.56 361.49 629.45C361.09 627.74 360.4 626.14 359.43 624.69C356.13 619.74 350.04 617.2 344.26 618.37C343.99 618.46 343.71 618.52 343.41 618.6Z" fill="#000072"/>
<g opacity="0.3">
<path d="M357.64 604.1L362.31 621.71L359.58 624.62C359.4 624.35 359.21 624.08 359.01 623.82C355.64 619.42 349.94 617.05 344.21 618.22C343.92 618.28 343.63 618.35 343.34 618.42C344.59 617.38 345.5 616.2 346.08 614.98C346.16 614.95 346.25 614.93 346.33 614.91H346.35C346.63 614.84 346.92 614.77 347.22 614.71C349.86 614.17 352.49 614.39 354.89 615.21C356.35 615.71 357.77 614.41 357.38 612.92L355.32 605.17C355.12 604.4 354.78 603.67 354.34 603C349.78 596.12 343.75 591.33 335.66 589.5L335.25 587.95C344.74 589.26 351.6 594.32 356.65 601.95C357.1 602.6 357.44 603.33 357.64 604.1Z" fill="black"/>
<path d="M359.56 624.93L359.43 624.73C359.25 624.45 359.06 624.19 358.87 623.95C355.45 619.48 349.72 617.31 344.26 618.42C343.99 618.47 343.71 618.54 343.41 618.62L342.57 618.84L343.24 618.28C344.43 617.29 345.34 616.16 345.93 614.9L345.97 614.82L346.05 614.79C346.45 614.66 346.86 614.58 347.2 614.51C349.78 613.99 352.46 614.16 354.97 615.01C355.59 615.22 356.25 615.08 356.73 614.64C357.2 614.2 357.38 613.58 357.21 612.96L355.15 605.21C354.95 604.47 354.63 603.76 354.19 603.09C349.35 595.79 343.28 591.4 335.62 589.67L335.51 589.64L335 587.7L335.29 587.74C344.32 588.99 351.37 593.59 356.83 601.82C357.29 602.51 357.63 603.26 357.84 604.05L362.54 621.76L359.56 624.93ZM344.06 618.05C344.1 618.04 344.14 618.03 344.19 618.02C349.79 616.88 355.67 619.11 359.18 623.7C359.33 623.89 359.48 624.09 359.62 624.31L362.11 621.65L357.46 604.15C357.26 603.4 356.94 602.69 356.5 602.03C351.16 593.99 344.3 589.44 335.52 588.16L335.83 589.32C343.53 591.09 349.64 595.53 354.52 602.88C354.98 603.58 355.32 604.33 355.53 605.11L357.59 612.86C357.79 613.62 357.57 614.39 357 614.92C356.42 615.46 355.62 615.63 354.85 615.38C352.41 614.55 349.79 614.38 347.28 614.89C347.01 614.94 346.7 615.01 346.42 615.09C346.36 615.11 346.3 615.12 346.25 615.14C345.72 616.2 344.99 617.18 344.06 618.05Z" fill="#371A45"/>
</g>
<g opacity="0.55">
<path d="M354.23 619.74C351.81 618.9 349.14 618.67 346.47 619.21C346.18 619.27 345.89 619.34 345.6 619.41H345.59C339.25 621.09 334.96 626.63 334.55 632.83C334.45 634.4 334.59 636.02 335.02 637.62C335.36 638.9 335.87 640.1 336.52 641.2C337.92 643.58 339.96 645.49 342.36 646.77C339.01 645.6 336.09 643.3 334.27 640.2C333.62 639.1 333.11 637.91 332.77 636.62C332.34 635.01 332.2 633.4 332.3 631.83C332.7 625.62 336.99 620.09 343.34 618.41H343.35C343.64 618.33 343.92 618.27 344.22 618.21C347.74 617.5 351.26 618.13 354.23 619.74Z" fill="white"/>
</g>
<path d="M347.17 640.7C351.522 640.7 355.05 637.172 355.05 632.82C355.05 628.468 351.522 624.94 347.17 624.94C342.818 624.94 339.29 628.468 339.29 632.82C339.29 637.172 342.818 640.7 347.17 640.7Z" fill="#CECEDD"/>
<g opacity="0.55">
<path d="M357.25 632.23C358.37 636.44 355.86 640.75 351.66 641.87C349.06 642.56 346.42 641.87 344.51 640.24C345.96 640.76 347.58 640.86 349.19 640.44C353.4 639.32 355.9 635.01 354.78 630.8C354.35 629.2 353.46 627.84 352.29 626.84C354.65 627.68 356.56 629.63 357.25 632.23Z" fill="white"/>
</g>
<g opacity="0.3">
<path d="M351.97 626.57C350.68 626.21 349.28 626.19 347.89 626.56C343.68 627.68 341.18 631.99 342.3 636.2C342.76 637.95 343.78 639.4 345.12 640.42C342.49 639.71 340.31 637.66 339.56 634.84C338.44 630.63 340.95 626.32 345.15 625.2C347.61 624.55 350.1 625.13 351.97 626.57Z" fill="black"/>
<path d="M346 640.86L345.06 640.61C342.28 639.86 340.1 637.67 339.36 634.89C338.22 630.59 340.79 626.16 345.09 625.02C347.53 624.37 350.08 624.88 352.08 626.42L352.86 627.02L351.91 626.76C350.62 626.4 349.25 626.4 347.93 626.75C343.83 627.84 341.38 632.06 342.47 636.15C342.91 637.8 343.86 639.23 345.22 640.27L346 640.86ZM345.2 625.39C341.1 626.48 338.65 630.7 339.74 634.79C340.36 637.12 342.05 639.02 344.25 639.93C343.22 638.92 342.49 637.67 342.11 636.25C340.97 631.95 343.54 627.52 347.84 626.38C348.89 626.1 349.99 626.04 351.05 626.19C349.29 625.15 347.21 624.85 345.2 625.39Z" fill="#371A45"/>
</g>
<path d="M350.99 647.21L354.6 660.81C355.08 662.61 356.13 664.22 357.59 665.38L372.35 677.12C374.78 679.05 376.52 681.71 377.31 684.7L384.68 712.48C385.15 714.26 387.2 715.07 388.78 714.11C392.44 711.88 395.28 709.3 396.82 706.16C398.06 703.63 398.26 700.71 397.53 697.98L391.94 676.94C391.38 674.83 390.26 672.92 388.7 671.39L378.94 661.85C377.03 659.98 375.9 657.44 375.87 654.77C375.84 651.75 376.43 648.39 377.38 644.83C377.97 642.61 375.95 640.58 373.73 641.17L350.99 647.21Z" fill="#F9DC1B"/>
<path d="M391.95 676.93L397.54 697.98C398.26 700.71 398.07 703.63 396.83 706.16C395.29 709.3 392.44 711.88 388.78 714.11C387.7 714.77 386.4 714.59 385.54 713.85C388.62 711.8 391.02 709.45 392.39 706.66C393.63 704.13 393.83 701.21 393.1 698.48L387.51 677.43C386.95 675.32 385.83 673.41 384.27 671.88L374.51 662.34C372.6 660.47 371.48 657.93 371.45 655.26C371.42 652.24 372.01 648.88 372.96 645.32C373.36 643.81 372.55 642.38 371.29 641.82L373.76 641.17C375.98 640.58 378 642.61 377.41 644.83C376.46 648.39 375.87 651.75 375.9 654.77C375.93 657.44 377.06 659.98 378.96 661.85L388.72 671.39C390.27 672.91 391.39 674.83 391.95 676.93Z" fill="#E89F02"/>
<g opacity="0.55">
<path d="M387.9 713.61C387.97 713.88 388.08 714.14 388.22 714.36C386.75 714.86 385.1 714.05 384.68 712.47L377.31 684.69C376.52 681.7 374.78 679.04 372.35 677.11L357.59 665.37C356.13 664.21 355.08 662.61 354.6 660.8L350.99 647.2L373.76 641.16C375.05 640.82 376.26 641.36 376.95 642.3L354.21 648.33L357.82 661.93C358.3 663.74 359.35 665.34 360.81 666.5L375.57 678.24C377.99 680.17 379.73 682.83 380.53 685.82L387.9 713.61Z" fill="white"/>
</g>
<path d="M350.99 647.21L354.6 660.81C355.08 662.61 354.96 664.52 354.27 666.26L347.27 683.77C346.12 686.65 345.93 689.82 346.72 692.82L354.09 720.6C354.56 722.38 353.18 724.1 351.34 724.04C347.06 723.92 343.31 723.09 340.41 721.13C338.07 719.55 336.46 717.11 335.73 714.38L330.14 693.34C329.58 691.23 329.6 689.02 330.2 686.92L333.94 673.8C334.67 671.23 334.39 668.47 333.09 666.13C331.62 663.49 329.44 660.86 326.85 658.24C325.24 656.61 325.99 653.85 328.2 653.26L350.99 647.21Z" fill="#F9DC1B"/>
<path d="M350.99 647.21L354.6 660.81C355.08 662.62 354.96 664.53 354.27 666.26L347.27 683.77C346.12 686.65 345.93 689.82 346.72 692.82L354.09 720.6C354.56 722.38 353.18 724.1 351.34 724.05C350.55 724.03 349.77 723.98 349.01 723.9C349.34 723.31 349.45 722.6 349.26 721.88L341.89 694.1C341.1 691.11 341.29 687.93 342.44 685.05L349.44 667.54C350.13 665.81 350.25 663.9 349.77 662.09L346.16 648.49L350.99 647.21Z" fill="#E89F02"/>
<g opacity="0.55">
<path d="M330.83 659.17C333.42 661.79 335.6 664.42 337.07 667.06C338.37 669.39 338.65 672.16 337.92 674.73L334.18 687.85C333.58 689.95 333.56 692.17 334.12 694.27L339.71 715.32C340.43 718.05 342.05 720.49 344.38 722.07C345.41 722.77 346.55 723.32 347.78 723.75C344.97 723.35 342.48 722.53 340.42 721.13C338.09 719.55 336.47 717.11 335.75 714.38L330.16 693.33C329.6 691.22 329.62 689 330.22 686.91L333.96 673.79C334.69 671.22 334.41 668.46 333.11 666.13C331.64 663.49 329.46 660.86 326.87 658.24C325.26 656.61 326.01 653.84 328.22 653.26L350.98 647.21L351.47 649.07L332.17 654.2C329.97 654.78 329.22 657.54 330.83 659.17Z" fill="white"/>
</g>
<path d="M346.52 647.61L346.71 648.34L333.83 651.76L331.47 642.88C331.21 641.89 331.8 640.87 332.79 640.61L334.26 640.22C336.81 644.54 341.5 647.32 346.52 647.61Z" fill="#AFCADC"/>
<path d="M346.95 648.48L333.7 652L331.29 642.93C331 641.84 331.65 640.71 332.75 640.42L334.36 639.99L334.43 640.12C336.9 644.33 341.54 647.13 346.53 647.42L346.67 647.43L346.95 648.48ZM333.97 651.53L346.48 648.21L346.37 647.8C341.36 647.46 336.71 644.65 334.18 640.44L332.85 640.79C331.96 641.03 331.43 641.94 331.67 642.83L333.97 651.53Z" fill="#000072"/>
<g opacity="0.55">
<path d="M334.4 640.18C334.6 640.53 334.83 640.87 335.06 641.2L334.93 641.24C333.94 641.5 333.35 642.52 333.61 643.51L335.67 651.28L333.96 651.73L331.6 642.85C331.34 641.86 331.93 640.84 332.92 640.58L334.4 640.18Z" fill="white"/>
</g>
<path d="M343.34 618.42C337 620.1 332.71 625.64 332.3 631.84L328.5 630.67L323.83 613.06C323.62 612.29 323.55 611.49 323.61 610.69C324.22 601.56 327.66 593.76 335.25 587.92L339.03 602.16C333.02 607.21 334.8 616.94 343.34 618.42Z" fill="#AFCADC"/>
<path d="M332.48 632.1L328.35 630.83L323.65 613.12C323.44 612.33 323.36 611.51 323.42 610.68C324.08 600.83 327.91 593.33 335.14 587.77L335.37 587.59L339.25 602.23L339.16 602.31C336.27 604.73 335.06 608.39 335.99 611.85C336.89 615.19 339.65 617.57 343.38 618.22L344.24 618.37L343.39 618.59C337.28 620.21 332.9 625.54 332.5 631.84L332.48 632.1ZM328.67 630.53L332.13 631.6C332.62 625.49 336.75 620.32 342.55 618.46C339.06 617.61 336.49 615.22 335.62 611.97C334.66 608.4 335.89 604.63 338.82 602.11L335.15 588.27C328.16 593.74 324.45 601.09 323.81 610.72C323.76 611.51 323.83 612.29 324.03 613.03L328.67 630.53Z" fill="#000072"/>
<g opacity="0.3">
<path d="M340.669 619.41C340.719 619.39 340.769 619.36 340.819 619.34C340.839 619.34 340.859 619.35 340.879 619.35C340.809 619.37 340.739 619.39 340.669 619.41Z" fill="#262F6A"/>
<path d="M340.73 619.6L340.58 619.25C340.63 619.22 340.69 619.2 340.74 619.17L340.79 619.15L340.89 619.16L341.69 619.32L340.93 619.53C340.86 619.56 340.79 619.58 340.73 619.6Z" fill="#371A45"/>
</g>
<g opacity="0.3">
<path d="M341.22 617.84C341.81 618.07 341.82 618.9 341.23 619.16C341.09 619.22 340.95 619.28 340.82 619.35C332.33 617.83 329.95 608.03 335.94 603L332.56 590.26C333.39 589.45 334.29 588.68 335.26 587.94L339.04 602.18C333.56 606.76 334.55 615.24 341.22 617.84Z" fill="#262F6A"/>
<path d="M340.85 619.54L340.79 619.53C336.74 618.8 333.73 616.15 332.74 612.43C331.81 608.94 332.95 605.3 335.73 602.92L332.35 590.19L332.43 590.11C333.27 589.3 334.18 588.51 335.14 587.77L335.37 587.59L339.25 602.23L339.16 602.31C336.53 604.52 335.27 607.77 335.81 611.01C336.31 614.07 338.31 616.5 341.3 617.66C341.64 617.8 341.86 618.11 341.87 618.48C341.88 618.86 341.67 619.18 341.32 619.33C341.18 619.39 341.05 619.45 340.91 619.52L340.85 619.54ZM332.77 590.31L336.15 603.06L336.06 603.14C333.33 605.43 332.2 608.95 333.1 612.34C334.05 615.89 336.92 618.43 340.78 619.15C340.9 619.09 341.02 619.04 341.15 618.98C341.39 618.88 341.47 618.66 341.47 618.49C341.47 618.28 341.35 618.1 341.15 618.02C338.04 616.81 335.95 614.28 335.42 611.08C334.87 607.75 336.14 604.4 338.81 602.11L335.14 588.27C334.31 588.91 333.51 589.6 332.77 590.31Z" fill="#371A45"/>
</g>
<g opacity="0.55">
<path d="M335.26 587.93L335.8 589.98C329.73 595.58 326.9 602.7 326.35 610.9C326.3 611.7 326.37 612.5 326.57 613.27L331.24 630.88L332.35 631.22C332.33 631.43 332.31 631.64 332.3 631.85L328.5 630.68L323.83 613.07C323.62 612.3 323.55 611.5 323.61 610.7C324.22 601.57 327.66 593.77 335.26 587.93Z" fill="white"/>
</g>
<g opacity="0.2">
<path d="M365.33 633.08L367.61 641.69C367.75 642.22 367.46 642.78 366.96 642.97L354.05 646.4C360.3 643.37 363.35 639.06 362.58 633.2L365.01 632.56C365.16 632.69 365.28 632.87 365.33 633.08Z" fill="black"/>
</g>
<path d="M346.52 647.61L346.71 648.34L333.83 651.76L331.47 642.88C331.21 641.89 331.8 640.87 332.79 640.61L334.26 640.22C336.81 644.54 341.5 647.32 346.52 647.61Z" stroke="#0D2232" stroke-width="4" stroke-miterlimit="10" stroke-linecap="round" stroke-linejoin="round"/>
<path d="M350.99 647.21L354.6 660.81C355.08 662.61 356.13 664.22 357.59 665.38L372.35 677.12C374.78 679.05 376.52 681.71 377.31 684.7L384.68 712.48C385.15 714.26 387.2 715.07 388.78 714.11C392.44 711.88 395.28 709.3 396.82 706.16C398.06 703.63 398.26 700.71 397.53 697.98L391.94 676.94C391.38 674.83 390.26 672.92 388.7 671.39L378.94 661.85C377.03 659.98 375.9 657.44 375.87 654.77C375.84 651.75 376.43 648.39 377.38 644.83C377.97 642.61 375.95 640.58 373.73 641.17L350.99 647.21Z" stroke="#0D2232" stroke-width="4" stroke-miterlimit="10" stroke-linecap="round" stroke-linejoin="round"/>
<path d="M350.989 647.21L354.599 660.81C355.079 662.61 354.959 664.52 354.269 666.26L347.269 683.77C346.119 686.65 345.929 689.82 346.719 692.82L354.089 720.6C354.559 722.38 353.179 724.1 351.339 724.04C347.059 723.92 343.309 723.09 340.409 721.13C338.069 719.55 336.459 717.11 335.729 714.38L330.139 693.34C329.579 691.23 329.599 689.02 330.199 686.92L333.939 673.8C334.669 671.23 334.389 668.47 333.089 666.13C331.619 663.49 329.439 660.86 326.849 658.24C325.239 656.61 325.989 653.85 328.199 653.26L350.989 647.21Z" stroke="#0D2232" stroke-width="4" stroke-miterlimit="10" stroke-linecap="round" stroke-linejoin="round"/>
<path d="M357.639 604.1L362.309 621.71L359.579 624.62C356.309 619.72 350.269 616.99 344.209 618.22C343.919 618.28 343.629 618.35 343.339 618.42C344.589 617.38 345.499 616.2 346.079 614.98C348.619 609.67 345.279 603.31 339.009 602.17L335.229 587.93C344.719 589.24 351.579 594.3 356.629 601.93C357.099 602.6 357.439 603.33 357.639 604.1Z" stroke="#0D2232" stroke-width="4" stroke-miterlimit="10" stroke-linecap="round" stroke-linejoin="round"/>
<path d="M365.329 633.08L367.609 641.69C367.749 642.22 367.459 642.78 366.959 642.97C366.919 642.98 366.889 642.99 366.849 643L351.269 647.14C349.689 647.56 348.089 647.71 346.519 647.62C341.499 647.32 336.809 644.55 334.269 640.22C333.619 639.12 333.109 637.93 332.769 636.64C332.339 635.03 332.199 633.42 332.299 631.85C332.699 625.64 336.989 620.11 343.339 618.43H343.349C343.639 618.35 343.919 618.29 344.219 618.23C350.279 617 356.319 619.73 359.589 624.63C360.549 626.07 361.259 627.69 361.679 629.45C361.949 630.59 362.069 631.73 362.069 632.85L364.029 632.33C364.389 632.23 364.759 632.34 365.019 632.57C365.159 632.69 365.279 632.87 365.329 633.08Z" stroke="#0D2232" stroke-width="4" stroke-miterlimit="10" stroke-linecap="round" stroke-linejoin="round"/>
<path d="M343.34 618.42C337 620.1 332.71 625.64 332.3 631.84L328.5 630.67L323.83 613.06C323.62 612.29 323.55 611.49 323.61 610.69C324.22 601.56 327.66 593.76 335.25 587.92L339.03 602.16C333.02 607.21 334.8 616.94 343.34 618.42Z" stroke="#0D2232" stroke-width="4" stroke-miterlimit="10" stroke-linecap="round" stroke-linejoin="round"/>
<path d="M347.17 640.7C351.522 640.7 355.05 637.172 355.05 632.82C355.05 628.468 351.522 624.94 347.17 624.94C342.818 624.94 339.29 628.468 339.29 632.82C339.29 637.172 342.818 640.7 347.17 640.7Z" stroke="#0D2232" stroke-width="4" stroke-miterlimit="10" stroke-linecap="round" stroke-linejoin="round"/>
<path d="M399.48 664.67H378.93C376.74 664.67 374.96 662.89 374.96 660.7V659.57C374.96 657.38 376.74 655.6 378.93 655.6H399.48C401.67 655.6 403.45 657.38 403.45 659.57V660.7C403.45 662.9 401.68 664.67 399.48 664.67Z" fill="#F9DC1B"/>
<path d="M397.82 664.67H380.68V671.75H397.82V664.67Z" fill="#F9DC1B"/>
<path d="M390.98 716.23H387.43C380.54 716.23 374.96 710.65 374.96 703.76V675.9C374.96 673.61 376.81 671.76 379.1 671.76H399.31C401.6 671.76 403.45 673.61 403.45 675.9V703.76C403.45 710.64 397.87 716.23 390.98 716.23Z" fill="#F9DC1B"/>
<path d="M403.45 658.65V661.63C403.45 663.31 402.09 664.67 400.41 664.67H395.41C397.09 664.67 398.45 663.31 398.45 661.63V658.65C398.45 656.97 397.09 655.61 395.41 655.61H400.41C402.09 655.61 403.45 656.97 403.45 658.65Z" fill="#E89F02"/>
<path d="M397.83 664.68H392.83V671.76H397.83V664.68Z" fill="#E89F02"/>
<path d="M403.45 674.78V702.4C403.45 710.04 397.26 716.23 389.62 716.23H389.35C394.38 716.23 398.46 712.15 398.46 707.12V674.78C398.46 673.11 397.11 671.76 395.44 671.76H400.44C402.1 671.75 403.45 673.11 403.45 674.78Z" fill="#E89F02"/>
<g opacity="0.55">
<path d="M381.54 664.68H378.01C376.33 664.68 374.97 663.32 374.97 661.64V658.66C374.97 656.98 376.33 655.62 378.01 655.62H381.54C379.86 655.62 378.5 656.98 378.5 658.66V661.64C378.5 663.31 379.86 664.68 381.54 664.68Z" fill="white"/>
</g>
<g opacity="0.55">
<path d="M384.21 664.68H380.68V671.76H384.21V664.68Z" fill="white"/>
</g>
<g opacity="0.55">
<path d="M387.61 716.23H384.08C379.05 716.23 374.97 712.15 374.97 707.12V674.78C374.97 673.11 376.32 671.76 377.99 671.76H381.52C379.85 671.76 378.5 673.11 378.5 674.78V707.12C378.5 712.15 382.58 716.23 387.61 716.23Z" fill="white"/>
</g>
<path d="M399.15 616.9L396.83 624.08H393.85V655.61H384.9V624.08H381.92L379.6 616.9L383.25 596.36H395.5L399.15 616.9Z" fill="#AFCADC"/>
<path d="M394.01 655.77H384.73V624.24H381.79L379.42 616.91L379.43 616.87L383.1 596.19H395.63L399.31 616.91L396.94 624.24H394V655.77H394.01ZM385.07 655.44H393.68V623.91H396.71L398.98 616.89L395.37 596.53H383.39L379.78 616.89L382.05 623.91H385.08V655.44H385.07Z" fill="#000072"/>
<g opacity="0.2">
<path d="M393.03 624.08H393.85V655.61H391.09V626.02C391.09 624.95 391.95 624.08 393.03 624.08Z" fill="black"/>
</g>
<g opacity="0.2">
<path d="M399.15 616.9L396.83 624.08H394.07L396.39 616.9L392.74 596.36H395.5L399.15 616.9Z" fill="black"/>
</g>
<g opacity="0.55">
<path d="M382.46 616.9L384.78 624.08H382.25L379.93 616.9L383.58 596.36H386.1L382.46 616.9Z" fill="white"/>
</g>
<g opacity="0.55">
<path d="M387.76 625.73V655.61H385.23V624.08H386.11C387.02 624.08 387.76 624.82 387.76 625.73Z" fill="white"/>
</g>
<g opacity="0.2">
<path d="M388.86 690.77C388.86 694.43 387.32 697.4 385.41 697.4C383.5 697.4 383.48 694.43 383.48 690.77C383.48 687.11 383.51 684.14 385.41 684.14C387.31 684.14 388.86 687.12 388.86 690.77Z" fill="white"/>
</g>
<path d="M399.48 664.67H378.93C376.74 664.67 374.96 662.89 374.96 660.7V659.57C374.96 657.38 376.74 655.6 378.93 655.6H399.48C401.67 655.6 403.45 657.38 403.45 659.57V660.7C403.45 662.9 401.68 664.67 399.48 664.67Z" stroke="#0D2232" stroke-width="4" stroke-miterlimit="10" stroke-linecap="round" stroke-linejoin="round"/>
<path d="M397.82 664.67H380.68V671.75H397.82V664.67Z" stroke="#0D2232" stroke-width="4" stroke-miterlimit="10" stroke-linecap="round" stroke-linejoin="round"/>
<path d="M390.98 716.23H387.43C380.54 716.23 374.96 710.65 374.96 703.76V675.9C374.96 673.61 376.81 671.76 379.1 671.76H399.31C401.6 671.76 403.45 673.61 403.45 675.9V703.76C403.45 710.64 397.87 716.23 390.98 716.23Z" stroke="#0D2232" stroke-width="4" stroke-miterlimit="10" stroke-linecap="round" stroke-linejoin="round"/>
<path d="M399.15 616.9L396.83 624.08H393.85V655.61H384.9V624.08H381.92L379.6 616.9L383.25 596.36H395.5L399.15 616.9Z" stroke="#0D2232" stroke-width="4" stroke-miterlimit="10" stroke-linecap="round" stroke-linejoin="round"/>
<path d="M414.47 658.93V717.09C414.47 717.09 402.88 734.45 380.36 734.45C357.83 734.45 341.74 734.45 341.74 734.45L334.98 725.77C334.98 725.77 329.51 684.95 328.87 669.2C328.87 669.2 390.65 670.85 414.47 658.93Z" fill="#FEC400"/>
<path d="M409.2 661.15V704.81C409.2 712.24 405 719.05 398.32 722.31C387.33 727.68 367.3 732.8 334.99 725.78L341.75 734.46L383.75 734.7C383.75 734.7 405.47 731.89 414.48 717.1V658.94L409.2 661.15Z" fill="#E89F02"/>
<path d="M414.47 658.93V713.29C414.47 716 413.44 718.6 411.6 720.58C406.88 725.65 396.39 734.44 380.36 734.44H346.96C343.67 734.44 340.56 732.92 338.54 730.32L336.77 728.05C335.6 726.55 334.85 724.76 334.61 722.88C333.36 713.3 329.42 682.41 328.88 669.19C328.87 669.2 390.65 670.85 414.47 658.93Z" stroke="#0D2232" stroke-width="4" stroke-miterlimit="10" stroke-linecap="round" stroke-linejoin="round"/>
<path d="M414.47 674.02C414.47 674.02 394.75 690.92 330.39 684.49" stroke="#0D2232" stroke-width="4" stroke-miterlimit="10" stroke-linecap="round" stroke-linejoin="round"/>
<path d="M397.532 795.609L470.962 795.609L470.962 774.109L397.532 774.109L397.532 795.609Z" stroke="#0D2232" stroke-width="6" stroke-miterlimit="10" stroke-linecap="round" stroke-linejoin="round"/>
<path d="M409.98 475.67L369.82 496.78L395.41 549.92L409.98 542.37V475.67Z" stroke="#0D2232" stroke-width="6" stroke-miterlimit="10"/>
<path d="M626.77 512.55C626.77 512.55 654.41 528.62 648.63 549.84C642.84 571.05 601.7 599.34 601.7 599.34C601.7 599.34 599.77 575.55 570.84 570.41L588.84 552.41L626.77 512.55Z" fill="#FBC6A6"/>
<path d="M570.84 570.4L561.84 575.86V631.79H602.34L601.7 599.33C601.7 599.33 599.12 574.9 570.84 570.4Z" fill="#FBC6A6"/>
<path opacity="0.16" d="M622.71 516.81C622.71 516.81 648.19 529.25 642.54 549.97C636.89 570.7 601.24 592.72 601.24 592.72" stroke="black" stroke-width="6" stroke-miterlimit="10"/>
<path opacity="0.16" d="M598.34 631.8L597.7 586.75" stroke="black" stroke-width="6" stroke-miterlimit="10"/>
<path opacity="0.5" d="M577 570.97L632.15 514.05" stroke="white" stroke-width="6" stroke-miterlimit="10"/>
<path opacity="0.5" d="M567 572.12V633.36" stroke="white" stroke-width="6" stroke-miterlimit="10"/>
<path d="M626.77 512.55C626.77 512.55 654.41 528.62 648.63 549.84C642.84 571.05 601.7 599.34 601.7 599.34C601.7 599.34 599.77 575.55 570.84 570.41L588.84 552.41L626.77 512.55Z" stroke="#0D2232" stroke-width="6" stroke-miterlimit="10" stroke-linecap="round" stroke-linejoin="round"/>
<path d="M570.84 570.4L561.84 575.86V631.79H602.34L601.7 599.33C601.7 599.33 599.12 574.9 570.84 570.4Z" stroke="#0D2232" stroke-width="6" stroke-miterlimit="10" stroke-linecap="round" stroke-linejoin="round"/>
<path d="M572.53 554.11L598.12 565.85L621.06 517.32L627.27 504.19L602.73 492.03L595.97 505.92L572.53 554.11Z" fill="#435F84"/>
<path opacity="0.21" d="M595.97 505.92L596 505.96L621.06 517.32L627.27 504.19L602.73 492.03L595.97 505.92Z" fill="white"/>
<path d="M560.26 475.67V542.37L574.84 549.92L596 505.96L600.42 496.78L560.26 475.67Z" fill="#F9DC1B"/>
<path opacity="0.5" d="M560.26 475.67V487.62L596 505.96L600.42 496.78L560.26 475.67Z" fill="white"/>
<path d="M583.45 532.02L560.26 522.65V542.37L574.84 549.92L583.45 532.02Z" fill="#E89F02"/>
<path d="M602.73 492.03L572.53 554.11L598.12 565.86L627.27 504.19L602.73 492.03Z" stroke="#0D2232" stroke-width="6" stroke-miterlimit="10" stroke-linecap="round" stroke-linejoin="round"/>
<path d="M560.26 475.67L600.42 496.78L574.84 549.92L560.26 542.37V475.67Z" stroke="#0D2232" stroke-width="6" stroke-miterlimit="10"/>
<path d="M563.429 589.67V606.93C563.429 608.27 562.339 609.36 561.009 609.36H551.639C550.299 609.36 549.209 608.27 549.209 606.93V589.67C549.209 588.33 550.299 587.25 551.639 587.25H561.009C562.349 587.24 563.429 588.33 563.429 589.67Z" fill="#AFCADC"/>
<path d="M561.01 609.53H551.64C550.21 609.53 549.04 608.37 549.04 606.93V589.67C549.04 588.24 550.2 587.08 551.64 587.08H561.01C562.44 587.08 563.6 588.24 563.6 589.67V606.93C563.6 608.36 562.44 609.53 561.01 609.53ZM551.64 587.41C550.4 587.41 549.38 588.42 549.38 589.66V606.92C549.38 608.16 550.39 609.18 551.64 609.18H561.01C562.25 609.18 563.26 608.17 563.26 606.92V589.66C563.26 588.42 562.25 587.41 561.01 587.41H551.64Z" fill="#000072"/>
<g opacity="0.2">
<path d="M563.429 603.1V606.93C563.429 608.27 562.339 609.36 561.009 609.36H551.639C550.299 609.36 549.209 608.27 549.209 606.93V603.1C549.209 604.44 550.299 605.53 551.639 605.53H561.009C562.349 605.52 563.429 604.44 563.429 603.1Z" fill="black"/>
</g>
<g opacity="0.55">
<path d="M563.429 589.67V592.38C563.429 591.04 562.339 589.96 561.009 589.96H551.639C550.299 589.96 549.209 591.05 549.209 592.38V589.67C549.209 588.33 550.299 587.25 551.639 587.25H561.009C562.349 587.24 563.429 588.33 563.429 589.67Z" fill="white"/>
</g>
<path d="M573.88 604.7H563.43V592.43H572.3L573.88 604.7Z" fill="#AFCADC"/>
<path d="M574.08 604.87H563.27V592.26H572.46L574.08 604.87ZM563.599 604.53H573.69L572.15 592.6H563.599V604.53Z" fill="#000072"/>
<path d="M623.04 602.89C622.89 604.64 620.83 605.51 619.5 604.36C612.03 597.94 600.99 601.56 598.74 610.72C598.36 612.25 597.02 613.33 595.45 613.33H577.98C576.28 613.33 574.84 612.07 574.63 610.38L573.9 604.7L572.32 592.43L571.79 588.29C571.53 586.27 573.11 584.47 575.15 584.47H603.8C615.39 584.48 623.82 593.43 623.04 602.89Z" fill="#AFCADC"/>
<path d="M595.45 613.5H577.98C576.2 613.5 574.68 612.17 574.46 610.4L571.61 588.31C571.48 587.3 571.79 586.28 572.47 585.51C573.14 584.74 574.12 584.3 575.14 584.3H603.79C609.62 584.3 615.09 586.61 618.8 590.63C622.02 594.13 623.6 598.48 623.23 602.89C623.16 603.77 622.6 604.53 621.79 604.86C620.97 605.2 620.08 605.05 619.41 604.47C615.94 601.49 611.37 600.52 607.16 601.86C603.04 603.18 599.96 606.5 598.92 610.74C598.51 612.38 597.08 613.5 595.45 613.5ZM575.12 584.65C574.2 584.65 573.32 585.05 572.71 585.74C572.1 586.43 571.82 587.36 571.94 588.27L574.79 610.36C575 611.96 576.37 613.16 577.98 613.16H595.45C596.93 613.16 598.22 612.14 598.58 610.68C599.65 606.32 602.81 602.91 607.04 601.55C611.36 600.17 616.06 601.17 619.61 604.22C620.18 604.71 620.94 604.84 621.64 604.55C622.35 604.26 622.81 603.63 622.87 602.87C623.22 598.55 621.68 594.29 618.52 590.87C614.88 586.92 609.5 584.65 603.76 584.65H575.12Z" fill="#000072"/>
<g opacity="0.2">
<path d="M623.04 602.89C622.89 604.64 620.83 605.51 619.5 604.36C612.03 597.94 600.99 601.56 598.74 610.72C598.36 612.25 597.02 613.33 595.45 613.33H577.98C576.28 613.33 574.84 612.07 574.63 610.38L574.45 609.02C574.9 609.24 575.39 609.36 575.92 609.36H593.39C594.96 609.36 596.31 608.27 596.68 606.75C598.93 597.59 609.97 593.96 617.44 600.39C618.77 601.54 620.83 600.67 620.98 598.92C621.16 596.76 620.85 594.62 620.14 592.61C622.26 595.63 623.34 599.22 623.04 602.89Z" fill="black"/>
</g>
<g opacity="0.55">
<path d="M618.969 591.11C615.629 588.46 611.21 586.79 606.2 586.79H577.549C575.509 586.79 573.929 588.58 574.189 590.61L574.719 594.75L576.299 607.02L577.03 612.7C577.05 612.89 577.09 613.07 577.15 613.24C575.82 612.92 574.789 611.8 574.599 610.39L573.869 604.71L572.289 592.44L571.76 588.3C571.5 586.28 573.079 584.48 575.119 584.48H603.77C610.11 584.48 615.509 587.15 618.969 591.11Z" fill="white"/>
</g>
<g opacity="0.55">
<path d="M563.43 592.38H549.78V596.16H563.43V592.38Z" fill="white"/>
</g>
<path d="M595.14 613.33H579.06V654.37H595.14V613.33Z" fill="#435F84" stroke="#0D2232" stroke-width="4" stroke-miterlimit="10" stroke-linecap="round" stroke-linejoin="round"/>
<g opacity="0.2">
<path d="M579.1 620.54C579.57 620.55 579.99 620.72 580.38 620.93C580.77 621.14 581.13 621.41 581.47 621.7C582.15 622.27 582.77 622.91 583.28 623.65C584.3 625.11 584.88 626.76 585.9 628.05C586.4 628.69 587.03 629.21 587.75 629.6C588.47 629.98 589.27 630.24 590.08 630.41C590.9 630.58 591.74 630.68 592.59 630.76C593.01 630.8 593.44 630.83 593.87 630.84C594.3 630.87 594.74 630.93 595.14 631.21C595.2 631.25 595.21 631.33 595.17 631.39C595.16 631.41 595.14 631.42 595.12 631.43H595.11C594.65 631.63 594.24 631.59 593.81 631.56C593.39 631.5 592.96 631.47 592.53 631.43C591.67 631.35 590.8 631.25 589.94 631.07C589.08 630.89 588.22 630.62 587.43 630.2C586.64 629.78 585.92 629.18 585.36 628.47C584.24 627.05 583.67 625.39 582.71 624.04C582.23 623.37 581.67 622.75 581.01 622.25C580.68 622 580.34 621.77 579.99 621.54C579.65 621.31 579.3 621.08 578.99 620.75C578.94 620.7 578.94 620.63 578.99 620.58C579.04 620.55 579.07 620.53 579.1 620.54Z" fill="#371A45"/>
<path d="M595.16 628C594.28 628.48 593.25 628.5 592.28 628.36C591.31 628.22 590.35 627.98 589.47 627.53C589.02 627.32 588.61 627.04 588.22 626.74C587.84 626.42 587.47 626.08 587.18 625.67C586.55 624.88 586.22 623.89 586.03 622.95C585.84 622 585.75 621.07 585.49 620.21C585.36 619.78 585.19 619.38 584.95 619.01C584.84 618.82 584.7 618.65 584.57 618.48C584.42 618.32 584.28 618.15 584.11 618.01C583.46 617.41 582.64 617 581.78 616.79C581.35 616.68 580.9 616.64 580.47 616.67C580.03 616.7 579.62 616.77 579.12 616.7H579.11C579.09 616.7 579.06 616.69 579.03 616.68L579.01 616.67C578.94 616.65 578.9 616.59 578.92 616.52C578.93 616.5 578.94 616.48 578.95 616.46C578.98 616.43 579 616.41 579.03 616.39H579.02C579.42 616.05 579.95 615.94 580.45 615.94C580.95 615.96 581.45 615.99 581.94 616.12C582.91 616.35 583.83 616.82 584.57 617.49C585.32 618.14 585.88 619.06 586.15 620C586.43 620.95 586.52 621.9 586.7 622.8C586.88 623.7 587.17 624.55 587.72 625.24C587.98 625.6 588.31 625.9 588.65 626.19C589.01 626.46 589.38 626.71 589.79 626.9C590.59 627.3 591.48 627.55 592.38 627.64C592.6 627.67 592.83 627.66 593.06 627.68C593.29 627.67 593.51 627.69 593.74 627.68C594.19 627.69 594.64 627.64 595.14 627.75H595.15C595.21 627.76 595.25 627.83 595.24 627.89C595.21 627.96 595.19 627.98 595.16 628Z" fill="#371A45"/>
<path d="M595.17 623.31C594.91 623.56 594.59 623.67 594.26 623.72C594.1 623.75 593.93 623.76 593.76 623.75C593.59 623.74 593.43 623.72 593.27 623.71C592.62 623.62 591.98 623.45 591.39 623.17C590.21 622.62 589.19 621.74 588.48 620.66C587.76 619.58 587.35 618.32 587.2 617.05C587.13 616.41 587.12 615.77 587.17 615.14C587.19 614.82 587.24 614.51 587.27 614.19C587.3 613.87 587.37 613.56 587.61 613.29V613.31C587.65 613.27 587.68 613.22 587.73 613.19C587.8 613.14 587.89 613.16 587.94 613.22L587.95 613.23V613.24C587.98 613.29 587.99 613.33 588.01 613.37V613.39C588.1 613.72 588.04 614.01 587.97 614.3C587.9 614.59 587.87 614.89 587.85 615.19C587.8 615.79 587.81 616.38 587.88 616.98C588.01 618.16 588.4 619.31 589.05 620.29C589.7 621.27 590.62 622.07 591.68 622.56C592.21 622.8 592.77 622.98 593.35 623.01C593.64 623.02 593.92 623.03 594.21 623.02C594.5 623.02 594.78 623.01 595.12 623.09C595.19 623.11 595.23 623.18 595.21 623.25C595.2 623.27 595.18 623.29 595.17 623.31Z" fill="#371A45"/>
<path d="M591.09 613.39C591.14 613.65 591.08 613.85 591.01 614.04C590.94 614.23 590.85 614.4 590.77 614.58C590.61 614.94 590.51 615.31 590.45 615.69C590.35 616.43 590.5 617.22 590.92 617.81C591.13 618.1 591.41 618.33 591.73 618.47C592.05 618.61 592.42 618.67 592.79 618.65C593.16 618.64 593.54 618.56 593.9 618.44C594.08 618.39 594.26 618.28 594.43 618.18C594.61 618.09 594.79 618.02 595.08 618.14H595.09C595.17 618.17 595.21 618.25 595.19 618.33C595.12 618.63 594.92 618.74 594.73 618.83C594.63 618.87 594.53 618.9 594.43 618.95C594.33 619 594.23 619.04 594.13 619.07C593.71 619.21 593.27 619.31 592.82 619.32C592.37 619.34 591.9 619.27 591.46 619.08C591.03 618.89 590.64 618.57 590.37 618.19C589.83 617.42 589.66 616.47 589.78 615.58C589.84 615.14 589.98 614.71 590.12 614.3C590.19 614.09 590.27 613.89 590.39 613.71C590.5 613.53 590.65 613.36 590.9 613.27C590.98 613.24 591.06 613.28 591.09 613.36C591.08 613.37 591.09 613.38 591.09 613.39Z" fill="#371A45"/>
<path d="M579.08 626.44C579.63 626.37 580.19 626.55 580.65 626.83C581.12 627.1 581.53 627.47 581.89 627.86C582.61 628.65 583.19 629.52 583.74 630.37C584.29 631.22 584.85 632.06 585.54 632.74C586.23 633.42 587.09 633.91 587.99 634.36C588.89 634.81 589.85 635.23 590.72 635.86C591.58 636.49 592.31 637.28 592.89 638.16C593.48 639.03 593.93 639.97 594.33 640.92C594.53 641.4 594.72 641.87 594.92 642.34C595.11 642.82 595.28 643.3 595.23 643.86C595.22 643.93 595.16 643.98 595.1 643.97C595.07 643.97 595.04 643.95 595.02 643.94C594.61 643.55 594.42 643.07 594.24 642.6C594.08 642.12 593.89 641.65 593.7 641.18C593.31 640.25 592.87 639.35 592.32 638.53C591.78 637.7 591.1 636.98 590.32 636.4C589.53 635.83 588.61 635.42 587.69 634.96C586.77 634.51 585.83 633.98 585.06 633.22C584.3 632.47 583.72 631.59 583.16 630.74C582.6 629.89 582.07 629.04 581.38 628.34C581.03 628 580.66 627.69 580.27 627.42C579.88 627.14 579.48 626.93 579.03 626.66C578.97 626.63 578.95 626.55 578.99 626.5C579.01 626.47 579.05 626.45 579.08 626.44Z" fill="#371A45"/>
<path d="M590.92 633.25C591.1 633.15 591.23 633.17 591.34 633.21C591.45 633.25 591.54 633.32 591.64 633.39C591.83 633.53 592.03 633.64 592.22 633.77C592.6 634.03 592.98 634.3 593.34 634.58C593.7 634.86 594.06 635.16 594.4 635.47C594.57 635.63 594.74 635.79 594.9 635.95C594.98 636.03 595.06 636.12 595.16 636.18C595.24 636.26 595.32 636.35 595.22 636.6C595.19 636.68 595.13 636.73 595.06 636.75C594.81 636.83 594.72 636.76 594.65 636.68C594.59 636.58 594.51 636.51 594.43 636.43C594.27 636.27 594.11 636.12 593.95 635.97C593.62 635.67 593.28 635.38 592.93 635.11C592.58 634.84 592.22 634.58 591.85 634.33C591.66 634.21 591.48 634.08 591.28 633.98C591.18 633.93 591.08 633.89 590.99 633.81C590.9 633.74 590.83 633.64 590.82 633.44C590.81 633.36 590.85 633.29 590.92 633.25Z" fill="#371A45"/>
<path d="M579.13 630.96C579.71 631.2 580.13 631.73 580.42 632.26C580.71 632.8 580.89 633.38 581.05 633.93C581.21 634.49 581.37 635.03 581.59 635.54C581.8 636.05 582.07 636.53 582.42 636.92C582.77 637.31 583.22 637.58 583.72 637.76C584.22 637.93 584.78 638.01 585.34 638.06C585.91 638.11 586.49 638.13 587.08 638.21C587.67 638.29 588.28 638.42 588.85 638.7C589.42 638.98 589.92 639.4 590.29 639.89C590.67 640.38 590.94 640.94 591.16 641.49C591.59 642.61 591.81 643.76 592.11 644.86C592.4 645.96 592.82 647.01 593.38 647.99C593.65 648.48 593.96 648.96 594.31 649.4C594.65 649.85 594.99 650.29 595.21 650.87C595.23 650.93 595.2 651 595.14 651.03C595.11 651.04 595.07 651.04 595.05 651.03C594.47 650.77 594.08 650.31 593.73 649.83C593.4 649.34 593.08 648.84 592.79 648.32C592.21 647.29 591.76 646.18 591.46 645.04C591.15 643.91 590.93 642.78 590.53 641.74C590.33 641.22 590.08 640.73 589.75 640.31C589.43 639.89 589.02 639.54 588.54 639.31C587.59 638.84 586.43 638.84 585.27 638.74C584.68 638.69 584.08 638.61 583.49 638.41C582.9 638.21 582.33 637.86 581.91 637.38C581.06 636.43 580.73 635.22 580.37 634.14C580.19 633.59 580 633.07 579.78 632.57C579.55 632.07 579.3 631.62 578.98 631.13C578.94 631.08 578.96 631 579.01 630.97C579.05 630.94 579.1 630.94 579.13 630.96Z" fill="#371A45"/>
<path d="M579.09 640.69C579.54 640.63 579.93 640.64 580.35 640.65L581.6 640.68C582.45 640.68 583.34 640.65 584.22 640.81C584.66 640.89 585.11 641.01 585.53 641.21C585.95 641.41 586.35 641.69 586.66 642.06C586.98 642.42 587.19 642.86 587.33 643.3C587.47 643.74 587.53 644.19 587.57 644.63C587.63 645.52 587.61 646.36 587.67 647.2C587.72 648.04 587.81 648.88 587.97 649.7C588.13 650.52 588.37 651.32 588.7 652.08C588.87 652.46 589.05 652.83 589.29 653.16C589.51 653.51 589.73 653.84 589.82 654.31C589.83 654.38 589.79 654.45 589.72 654.46C589.7 654.46 589.67 654.46 589.65 654.45C589.18 654.28 588.9 653.91 588.67 653.53C588.46 653.14 588.25 652.75 588.07 652.34C587.72 651.53 587.47 650.68 587.3 649.82C587.13 648.96 587.04 648.1 586.98 647.23C586.92 646.37 586.94 645.5 586.88 644.68C586.82 643.86 586.63 643.06 586.13 642.5C585.64 641.92 584.88 641.61 584.09 641.48C583.29 641.34 582.46 641.34 581.6 641.38C581.17 641.4 580.73 641.41 580.29 641.35C579.85 641.3 579.4 641.19 579.02 640.91C578.97 640.87 578.96 640.79 579 640.74C579.03 640.71 579.05 640.69 579.09 640.69Z" fill="#371A45"/>
<path d="M590.31 648.16C590.52 648.24 590.61 648.36 590.67 648.49C590.74 648.62 590.78 648.75 590.81 648.89C590.89 649.16 591.01 649.43 591.11 649.69C591.33 650.22 591.56 650.74 591.82 651.24C592.08 651.75 592.35 652.25 592.65 652.74C592.8 652.98 592.95 653.22 593.11 653.46C593.19 653.58 593.27 653.7 593.37 653.8C593.46 653.91 593.53 654.04 593.41 654.29C593.38 654.37 593.3 654.41 593.23 654.42C592.95 654.44 592.86 654.33 592.78 654.2C592.72 654.06 592.64 653.94 592.55 653.82C592.39 653.57 592.23 653.33 592.08 653.07C591.78 652.57 591.49 652.05 591.23 651.53C590.97 651.01 590.72 650.47 590.5 649.93C590.38 649.66 590.29 649.38 590.17 649.11C590.11 648.98 590.05 648.84 590.02 648.7C589.99 648.55 589.99 648.4 590.11 648.21C590.14 648.16 590.23 648.13 590.31 648.16Z" fill="#371A45"/>
<path d="M579.04 644.61C579.3 644.38 579.59 644.29 579.89 644.23C580.19 644.17 580.5 644.17 580.82 644.2C581.44 644.24 582.08 644.36 582.66 644.65C583.24 644.94 583.73 645.38 584.1 645.88C584.47 646.39 584.75 646.95 584.93 647.54C585.31 648.72 585.34 649.98 585.12 651.18C585.01 651.78 584.84 652.37 584.61 652.93L584.25 653.77C584.12 654.04 583.94 654.3 583.59 654.43C583.52 654.46 583.43 654.42 583.41 654.34C583.41 654.33 583.4 654.32 583.4 654.31V654.3C583.34 653.92 583.48 653.69 583.61 653.43C583.76 653.19 583.88 652.93 583.98 652.67C584.19 652.15 584.35 651.6 584.45 651.05C584.65 649.95 584.62 648.8 584.28 647.74C583.95 646.69 583.3 645.72 582.34 645.24C581.87 645 581.33 644.88 580.79 644.88C580.52 644.88 580.24 644.91 579.96 644.91C579.68 644.92 579.4 644.92 579.08 644.81C579.01 644.79 578.98 644.71 579 644.64C579.01 644.65 579.02 644.63 579.04 644.61Z" fill="#371A45"/>
<path d="M579.03 648.32C579.15 648.11 579.35 648.03 579.54 648C579.73 647.97 579.93 647.99 580.11 648.04C580.48 648.13 580.85 648.28 581.15 648.54C581.75 649.05 582.05 649.82 582.01 650.59C581.99 650.97 581.86 651.37 581.66 651.68C581.46 652 581.2 652.27 580.93 652.5C580.66 652.73 580.37 652.92 580.09 653.1C579.95 653.19 579.8 653.28 579.68 653.39C579.54 653.48 579.39 653.56 579.13 653.44C579.05 653.41 579.01 653.33 579.01 653.25C579.03 652.95 579.16 652.86 579.3 652.78C579.45 652.71 579.59 652.63 579.73 652.54C580 652.36 580.27 652.18 580.5 651.99C580.98 651.6 581.32 651.12 581.34 650.56C581.37 650.01 581.14 649.42 580.72 649.07C580.51 648.9 580.26 648.77 579.98 648.74C579.84 648.73 579.7 648.73 579.57 648.71C579.43 648.7 579.29 648.67 579.1 648.54L579.09 648.53C579.01 648.48 578.99 648.39 579.03 648.32Z" fill="#371A45"/>
</g>
<g opacity="0.55">
<path d="M581.45 654.37H579.06V618.99H579.4C580.53 618.99 581.45 619.91 581.45 621.04V654.37Z" fill="white"/>
</g>
<g opacity="0.3">
<path d="M595.14 613.33V654.37H591.33V622.84C591.33 620.74 589.63 619.04 587.53 619.04H579.06V613.33H595.14Z" fill="#371A45"/>
</g>
<path d="M598.86 657.76V699.05C598.86 700.92 597.34 702.43 595.48 702.43H578.89C578.33 702.43 577.8 702.29 577.34 702.05C576.25 701.49 575.51 700.35 575.51 699.04V657.75C575.51 655.88 577.03 654.37 578.89 654.37H595.48C597.34 654.37 598.86 655.89 598.86 657.76Z" fill="#F9DC1B"/>
<path d="M595.48 702.61H578.89C578.32 702.61 577.76 702.47 577.26 702.22L577.17 702.17C576.04 701.55 575.34 700.37 575.34 699.06V657.77C575.34 655.81 576.93 654.22 578.89 654.22H595.48C597.44 654.22 599.03 655.81 599.03 657.77V699.06C599.03 701.01 597.44 702.61 595.48 702.61ZM577.51 701.96C577.94 702.16 578.41 702.27 578.89 702.27H595.48C597.25 702.27 598.7 700.83 598.7 699.05V657.76C598.7 655.99 597.26 654.54 595.48 654.54H578.89C577.12 654.54 575.67 655.98 575.67 657.76V699.05C575.67 700.26 576.34 701.35 577.41 701.91L577.51 701.96Z" fill="#000072"/>
<path d="M598.86 657.76V699.05C598.86 700.92 597.34 702.43 595.48 702.43H589.97C591.84 702.43 593.35 700.91 593.35 699.05V657.76C593.35 655.89 591.83 654.38 589.97 654.38H595.48C597.34 654.37 598.86 655.89 598.86 657.76Z" fill="#E89F02"/>
<path d="M595.48 702.61H589.97V702.27C591.74 702.27 593.19 700.83 593.19 699.05V657.76C593.19 655.99 591.75 654.54 589.97 654.54V654.2H595.48C597.44 654.2 599.03 655.79 599.03 657.75V699.04C599.03 701.01 597.44 702.61 595.48 702.61ZM591.48 702.27H595.47C597.24 702.27 598.69 700.83 598.69 699.05V657.76C598.69 655.99 597.25 654.54 595.47 654.54H591.48C592.69 655.11 593.52 656.34 593.52 657.76V699.05C593.52 700.47 592.69 701.7 591.48 702.27Z" fill="#E89F02"/>
<g opacity="0.55">
<path d="M579.9 702.06C580.36 702.3 580.89 702.44 581.45 702.44H578.89C578.33 702.44 577.8 702.3 577.34 702.06C576.25 701.5 575.51 700.36 575.51 699.05V657.76C575.51 655.89 577.03 654.38 578.89 654.38H581.45C579.58 654.38 578.07 655.9 578.07 657.76V699.05C578.06 700.36 578.81 701.5 579.9 702.06Z" fill="white"/>
</g>
<g opacity="0.2">
<path d="M565.69 592.43L567.95 604.7H563.43V592.43H565.69Z" fill="black"/>
</g>
<g opacity="0.2">
<path d="M588.93 592.98C588.93 594.73 586.72 594.26 583.99 594.26C581.26 594.26 579.05 594.73 579.05 592.98C579.05 591.23 581.26 589.81 583.99 589.81C586.72 589.81 588.93 591.23 588.93 592.98Z" fill="white"/>
</g>
<g opacity="0.2">
<path d="M585.7 674.57C585.7 677.84 584.32 680.49 582.62 680.49C580.92 680.49 580.89 677.84 580.89 674.57C580.89 671.3 580.92 668.65 582.62 668.65C584.32 668.65 585.7 671.3 585.7 674.57Z" fill="white"/>
</g>
<path d="M563.429 589.67V606.93C563.429 608.27 562.339 609.36 561.009 609.36H551.639C550.299 609.36 549.209 608.27 549.209 606.93V589.67C549.209 588.33 550.299 587.25 551.639 587.25H561.009C562.349 587.24 563.429 588.33 563.429 589.67Z" stroke="#0D2232" stroke-width="4" stroke-miterlimit="10" stroke-linecap="round" stroke-linejoin="round"/>
<path d="M573.88 604.7H563.43V592.43H572.3L573.88 604.7Z" stroke="#0D2232" stroke-width="4" stroke-miterlimit="10" stroke-linecap="round" stroke-linejoin="round"/>
<path d="M623.04 602.89C622.89 604.64 620.83 605.51 619.5 604.36C612.03 597.94 600.99 601.56 598.74 610.72C598.36 612.25 597.02 613.33 595.45 613.33H577.98C576.28 613.33 574.84 612.07 574.63 610.38L573.9 604.7L572.32 592.43L571.79 588.29C571.53 586.27 573.11 584.47 575.15 584.47H603.8C615.39 584.48 623.82 593.43 623.04 602.89Z" stroke="#0D2232" stroke-width="4" stroke-miterlimit="10" stroke-linecap="round" stroke-linejoin="round"/>
<path d="M595.14 613.33H579.06V654.37H595.14V613.33Z" stroke="#0D2232" stroke-width="4" stroke-miterlimit="10" stroke-linecap="round" stroke-linejoin="round"/>
<path d="M598.86 657.76V699.05C598.86 700.92 597.34 702.43 595.48 702.43H578.89C578.33 702.43 577.8 702.29 577.34 702.05C576.25 701.49 575.51 700.35 575.51 699.04V657.75C575.51 655.88 577.03 654.37 578.89 654.37H595.48C597.34 654.37 598.86 655.89 598.86 657.76Z" stroke="#0D2232" stroke-width="4" stroke-miterlimit="10" stroke-linecap="round" stroke-linejoin="round"/>
<path d="M617.28 714.22C617.27 714.17 617.27 714.12 617.27 714.07L619.08 630.01C619.09 629.37 619.62 628.87 620.26 628.88L634.719 629.19C635.029 629.2 635.32 629.32 635.53 629.55C635.71 629.73 635.82 629.97 635.84 630.22C635.85 630.27 635.849 630.32 635.849 630.37L634.039 714.43C634.029 715.07 633.499 715.57 632.859 715.56L618.4 715.25C618.09 715.24 617.8 715.12 617.59 714.89C617.41 714.71 617.3 714.47 617.28 714.22Z" fill="#C14854"/>
<path d="M622.868 630.096L621.077 714.159L630.335 714.357L632.126 630.294L622.868 630.096Z" fill="#E8656D"/>
<path opacity="0.5" d="M621.751 626.414L619.877 715.236L621.017 715.26L622.891 626.438L621.751 626.414Z" fill="white"/>
<path d="M614.52 632.14C613.73 631.55 612.97 630.89 612.26 630.19C608.04 626.04 605.68 620.49 605.63 614.56C605.58 608.64 607.84 603.05 612 598.83C613.08 597.73 614.27 596.75 615.55 595.9C615.93 595.65 616.42 595.64 616.81 595.89C616.84 595.91 616.86 595.92 616.88 595.94C617.22 596.19 617.39 596.61 617.33 597.03L615.59 608.64L628.54 615.1L638.69 604.78L633.62 595.02C633.4 594.6 633.46 594.09 633.77 593.73C634.08 593.37 634.57 593.24 635.02 593.39C637.21 594.14 639.25 595.22 641.11 596.61C641.9 597.2 642.66 597.86 643.37 598.55C647.59 602.7 649.95 608.25 650 614.18C650.05 620.1 647.79 625.69 643.63 629.91C635.86 637.82 623.35 638.77 614.52 632.14Z" fill="#E8656D"/>
<path d="M634.64 594.5L635.44 596.04C636.68 596.82 637.85 597.74 638.94 598.81C647.22 606.95 647.33 620.26 639.19 628.54C634.69 633.12 628.6 635.19 622.66 634.76C629.66 636.52 637.38 634.64 642.8 629.12C650.94 620.84 650.83 607.53 642.55 599.39C640.23 597.12 637.52 595.49 634.64 594.5Z" fill="#C14854"/>
<path opacity="0.5" d="M612.7 625.72C620.65 635.88 631.219 632.41 631.219 632.41C631.219 632.41 623.36 630.59 617.53 624.31C611.44 617.76 609.15 610.8 609.15 610.8C609.15 610.8 606.94 618.36 612.7 625.72Z" fill="white"/>
<path opacity="0.5" d="M614.59 711.9C617.55 708 620.53 708.7 620.53 708.7C620.53 708.7 616.63 712.12 614.46 716.83C612.42 721.26 612.72 728.44 612.72 728.44C612.72 728.44 610.72 723.62 611 721.18C611.47 717.2 612.6 714.53 614.59 711.9Z" fill="white"/>
<path d="M617.439 706.08L618.979 634.72" stroke="#0D2232" stroke-width="4" stroke-miterlimit="10" stroke-linecap="round" stroke-linejoin="round"/>
<path d="M635.75 635.11L634.21 706.48" stroke="#0D2232" stroke-width="4" stroke-miterlimit="10" stroke-linecap="round" stroke-linejoin="round"/>
<path d="M614.52 632.14C613.73 631.55 612.97 630.89 612.26 630.19C608.04 626.04 605.68 620.49 605.63 614.56C605.58 608.64 607.84 603.05 612 598.83C613.08 597.73 614.27 596.75 615.55 595.9C615.93 595.65 616.42 595.64 616.81 595.89C616.84 595.91 616.86 595.92 616.88 595.94C617.22 596.19 617.39 596.61 617.33 597.03L615.59 608.64L628.54 615.1L638.69 604.78L633.62 595.02C633.4 594.6 633.46 594.09 633.77 593.73C634.08 593.37 634.57 593.24 635.02 593.39C637.21 594.14 639.25 595.22 641.11 596.61C641.9 597.2 642.66 597.86 643.37 598.55C647.59 602.7 649.95 608.25 650 614.18C650.05 620.1 647.79 625.69 643.63 629.91C635.86 637.82 623.35 638.77 614.52 632.14Z" stroke="#0D2232" stroke-width="4" stroke-miterlimit="10" stroke-linecap="round" stroke-linejoin="round"/>
<path d="M551.869 658.93V717.09C551.869 717.09 563.439 734.45 585.939 734.45C608.439 734.45 624.509 734.45 624.509 734.45L631.259 725.77C631.259 725.77 636.719 684.95 637.369 669.2C637.369 669.2 575.659 670.85 551.869 658.93Z" fill="#FEC400"/>
<path d="M557.129 661.15V704.81C557.129 712.24 561.329 719.05 567.999 722.31C578.969 727.68 598.979 732.8 631.259 725.78L624.509 734.46L582.559 734.7C582.559 734.7 560.859 731.89 551.859 717.1V658.94L557.129 661.15Z" fill="#E89F02"/>
<path d="M551.869 658.93V712.14C551.869 715.76 553.329 719.22 555.889 721.78C561.039 726.92 571.119 734.45 585.939 734.45H617.439C621.899 734.45 626.109 732.39 628.849 728.87C630.429 726.84 631.439 724.42 631.769 721.87C633.139 711.28 636.839 681.99 637.359 669.2C637.369 669.2 575.659 670.85 551.869 658.93Z" stroke="#0D2232" stroke-width="4" stroke-miterlimit="10" stroke-linecap="round" stroke-linejoin="round"/>
<path d="M551.869 674.02C551.869 674.02 571.569 690.92 635.849 684.49" stroke="#0D2232" stroke-width="4" stroke-miterlimit="10" stroke-linecap="round" stroke-linejoin="round"/>
</svg>
