<svg width="1000" height="1000" viewBox="0 0 1000 1000" fill="none" xmlns="http://www.w3.org/2000/svg">
<path d="M418.439 795.609L491.869 795.609L491.869 774.109L418.439 774.109L418.439 795.609Z" fill="#435F84" stroke="#0D2232" stroke-width="6" stroke-miterlimit="10" stroke-linecap="round" stroke-linejoin="round"/>
<path d="M629.359 734.45V775.39L648.639 795.63L667.279 775.39L667.249 674.57H652.139L629.359 734.45Z" fill="#AFCADC"/>
<path d="M648.32 771.47C652.313 771.47 655.55 768.233 655.55 764.24C655.55 760.247 652.313 757.01 648.32 757.01C644.327 757.01 641.09 760.247 641.09 764.24C641.09 768.233 644.327 771.47 648.32 771.47Z" stroke="#0D2232" stroke-width="4" stroke-miterlimit="10" stroke-linecap="round" stroke-linejoin="round"/>
<path opacity="0.2" d="M667.279 675.66H660.639V771.47L648.709 783.4L636.279 770.97V681.92L629.359 682.38V775.39L649.119 795.15L668.089 776.19L667.279 675.66Z" fill="black"/>
<path d="M629.359 734.45V775.39L648.639 795.63L667.279 775.39V675.66H652.179L629.359 734.45Z" stroke="#0D2232" stroke-width="4" stroke-miterlimit="10" stroke-linecap="round" stroke-linejoin="round"/>
<path d="M649.229 284.08C649.229 284.08 643.249 289.43 616.829 291.63C590.399 293.83 404.439 299.42 404.439 299.42L392.989 293.83C392.989 293.83 366.679 292.38 362.949 284.08C359.219 275.78 453.019 242.87 453.019 242.87L571.529 239.25L598.589 250.02L649.229 284.08Z" fill="#CFB300"/>
<path d="M649.229 284.08C649.229 284.08 643.249 289.43 616.829 291.63C590.399 293.83 404.439 299.42 404.439 299.42L392.989 293.83C392.989 293.83 366.679 292.38 362.949 284.08C359.219 275.78 453.019 242.87 453.019 242.87L571.529 239.25L598.589 250.02L649.229 284.08Z" stroke="#0D2232" stroke-width="6" stroke-miterlimit="10" stroke-linecap="round" stroke-linejoin="round"/>
<path d="M394.029 332.85C394.029 332.85 363.839 336.47 367.609 371.39C371.389 406.31 414.869 399.02 414.869 399.02L411.129 348.89L394.029 332.85Z" fill="#FBC6A6" stroke="#0D2232" stroke-width="6" stroke-miterlimit="10"/>
<path d="M625.629 332.85C625.629 332.85 648.599 336.63 650.329 362.11C652.059 387.59 623.719 410.1 601.549 401.2C579.379 392.31 595.739 354.24 595.739 354.24L625.629 332.85Z" fill="#FBC6A6" stroke="#0D2232" stroke-width="6" stroke-miterlimit="10"/>
<path opacity="0.4" d="M623.59 347.95C623.59 347.95 635.52 354.27 630.43 368.01C623.31 387.26 608.8 381.92 608.8 381.92L613.2 358.01L623.59 347.95Z" fill="black"/>
<path opacity="0.4" d="M389.65 347.95C389.65 347.95 377.72 354.27 382.81 368.01C389.93 387.26 404.44 381.92 404.44 381.92L400.04 358.01L389.65 347.95Z" fill="black"/>
<path d="M612 336.62V365.29C612 365.29 611.74 370.26 609.92 377.95C605.84 395.19 593.93 426.11 559.56 445.47C554.67 448.22 549.75 450.51 544.82 452.37C530.5 457.78 516.16 459.61 502.49 458.85C473.04 457.21 446.78 443.54 430.89 427.85C405.09 402.37 403.52 363.53 403.52 363.53V309.25L434.04 272.44L590.79 274.33L610.11 296.98L612 336.62Z" fill="#FBC6A6"/>
<path opacity="0.5" d="M450.509 431.89C470.829 446.55 489.879 454.04 504.499 457.86C475.049 456.22 448.789 442.55 432.899 426.86C407.099 401.38 405.529 362.54 405.529 362.54V352.94L413.989 346.32C413.989 346.32 406.469 400.11 450.509 431.89Z" fill="white"/>
<path opacity="0.5" d="M606.919 377.95C602.839 395.19 590.929 426.11 556.559 445.47C551.669 448.22 546.749 450.51 541.819 452.37C559.309 438.74 587.779 413.61 596.509 388.63C599.479 380.18 603.099 377.31 606.919 377.95Z" fill="white"/>
<path d="M649.229 284.08C649.229 284.08 638.219 279.99 623.429 279.99C608.639 279.99 388.589 279.99 388.589 279.99C388.589 279.99 368.609 279.2 362.949 284.08V270.4C362.949 265.1 367.249 260.8 372.549 260.8H639.639C644.939 260.8 649.239 265.1 649.239 270.4V284.08H649.229Z" fill="#F9DC1B"/>
<path d="M633.999 260.8C633.999 260.91 633.999 260.96 633.999 260.96H505.959V260.8H377.909C377.909 260.8 377.909 260.77 377.909 260.72C377.869 259.67 377.459 249.23 377.909 244.45C378.379 239.41 382.469 239.26 382.469 239.26C382.469 239.26 389.549 176.5 460.959 155.74C460.959 155.74 460.329 143.15 471.969 141.9C483.609 140.64 505.949 139.07 505.949 139.07V139.23C505.949 139.23 528.279 140.8 539.919 142.06C551.559 143.32 550.929 155.9 550.929 155.9C622.339 176.66 629.419 239.42 629.419 239.42C629.419 239.42 633.509 239.58 633.979 244.61C634.439 249.28 634.059 259.41 633.999 260.8Z" fill="#F9DC1B"/>
<path opacity="0.73" d="M633.999 260.8H623.119C623.119 260.8 617.609 196.62 551.079 164.53L551.039 157.27C551.039 157.27 498.869 140.93 460.849 158.55L461.329 168.94C461.329 168.94 402.279 185.29 387.809 260.48L377.919 260.71C377.879 259.66 377.469 249.22 377.919 244.44C378.389 239.4 382.479 239.25 382.479 239.25C382.479 239.25 389.559 176.49 460.969 155.73C460.969 155.73 460.339 143.14 471.979 141.89C483.619 140.63 505.959 139.06 505.959 139.06V139.22C505.959 139.22 528.289 140.79 539.929 142.05C551.569 143.31 550.939 155.89 550.939 155.89C622.349 176.65 629.429 239.41 629.429 239.41C629.429 239.41 633.519 239.57 633.989 244.6C634.439 249.28 634.059 259.41 633.999 260.8Z" fill="white"/>
<path d="M633.989 244.6C633.519 239.57 629.429 239.41 629.429 239.41C629.429 239.41 622.349 176.65 550.939 155.89C550.939 155.89 551.569 143.31 539.929 142.05C528.289 140.79 505.949 139.22 505.949 139.22V139.06C505.949 139.06 483.609 140.63 471.969 141.89C460.329 143.15 460.959 155.73 460.959 155.73C389.549 176.49 382.469 239.25 382.469 239.25C382.469 239.25 378.379 239.41 377.909 244.44C377.439 249.47 377.909 260.8 377.909 260.8H505.949V260.96H633.989C633.989 260.96 634.469 249.64 633.989 244.6Z" stroke="#0D2232" stroke-width="6" stroke-miterlimit="10" stroke-linecap="round" stroke-linejoin="round"/>
<path d="M550.319 468.86H580.639V634.54H430.899V468.86H550.319Z" fill="white"/>
<path d="M554.109 475.67H460.569V576.55H554.109V475.67Z" fill="#F9DC1B"/>
<path d="M580.649 597.73H430.899V634.54H580.649V597.73Z" fill="#F9DC1B"/>
<path d="M532.09 456.8C532.09 456.8 502.71 463.09 482.69 456.8L475.77 487.74L494.02 494.55C494.02 494.55 506.09 499.58 520.77 494.55C535.45 489.52 540.07 474.84 540.07 474.84L532.09 456.8Z" fill="#FBC6A6" stroke="#0D2232" stroke-width="6" stroke-miterlimit="10"/>
<path d="M551.14 490.83C550.35 502.68 548.45 513.64 548.45 513.64L520.76 494.55C520.76 494.55 523.93 487.04 526.54 479.6C528.06 475.25 529.4 470.91 529.78 468.12C530.83 460.57 532.09 456.8 532.09 456.8C532.09 456.8 548.24 455.96 550.75 470.85C551.7 476.41 551.61 483.77 551.14 490.83Z" fill="#435F84"/>
<path d="M551.139 490.83C544.009 490.3 535.709 486.75 531.429 483.71C529.709 482.48 528.029 481.12 526.539 479.6C528.059 475.25 529.399 470.91 529.779 468.12C530.829 460.57 532.089 456.8 532.089 456.8C532.089 456.8 548.239 455.96 550.749 470.85C551.699 476.41 551.609 483.77 551.139 490.83Z" fill="#253B5A"/>
<path d="M532.09 456.8C532.09 456.8 548.24 455.96 550.76 470.85C553.28 485.74 548.45 513.63 548.45 513.63L520.77 494.54C520.77 494.54 528.739 475.66 529.789 468.11C530.839 460.56 532.09 456.8 532.09 456.8Z" stroke="#0D2232" stroke-width="6" stroke-miterlimit="10"/>
<path d="M463.649 490.83C464.439 502.68 466.339 513.64 466.339 513.64L494.029 494.55C494.029 494.55 490.859 487.04 488.249 479.6C486.729 475.25 485.389 470.91 485.009 468.12C483.959 460.57 482.699 456.8 482.699 456.8C482.699 456.8 466.549 455.96 464.039 470.85C463.089 476.41 463.169 483.77 463.649 490.83Z" fill="#435F84"/>
<path d="M463.649 490.83C470.779 490.3 479.079 486.75 483.359 483.71C485.079 482.48 486.759 481.12 488.249 479.6C486.729 475.25 485.389 470.91 485.009 468.12C483.959 460.57 482.699 456.8 482.699 456.8C482.699 456.8 466.549 455.96 464.039 470.85C463.089 476.41 463.169 483.77 463.649 490.83Z" fill="#253B5A"/>
<path d="M482.689 456.8C482.689 456.8 466.539 455.96 464.019 470.85C461.499 485.74 466.329 513.63 466.329 513.63L494.009 494.54C494.009 494.54 486.039 475.66 484.989 468.11C483.939 460.56 482.689 456.8 482.689 456.8Z" stroke="#0D2232" stroke-width="6" stroke-miterlimit="10"/>
<path d="M485.53 528.31H446.52V563.96H485.53V528.31Z" fill="#F9DC1B" stroke="#0D2232" stroke-width="6" stroke-miterlimit="10"/>
<path d="M485.53 542.37H446.52" stroke="#0D2232" stroke-width="6" stroke-miterlimit="10"/>
<path d="M550.939 155.89C550.939 155.89 552.039 166.43 547.789 187.98Z" fill="#F9DC1B"/>
<path d="M550.939 155.89C550.939 155.89 552.039 166.43 547.789 187.98" stroke="#0D2232" stroke-width="6" stroke-miterlimit="10" stroke-linecap="round" stroke-linejoin="round"/>
<path d="M629.429 239.41H596.999C593.569 239.41 590.789 242.19 590.789 245.62V260.96" stroke="#0D2232" stroke-width="6" stroke-miterlimit="10" stroke-linecap="round" stroke-linejoin="round"/>
<path d="M460.97 155.73C460.97 155.73 459.87 166.27 464.12 187.82Z" fill="#F9DC1B"/>
<path d="M460.97 155.73C460.97 155.73 459.87 166.27 464.12 187.82" stroke="#0D2232" stroke-width="6" stroke-miterlimit="10" stroke-linecap="round" stroke-linejoin="round"/>
<path d="M382.479 239.25H414.909C418.339 239.25 421.119 242.03 421.119 245.46V260.8" stroke="#0D2232" stroke-width="6" stroke-miterlimit="10" stroke-linecap="round" stroke-linejoin="round"/>
<path opacity="0.74" d="M635.849 270.19C629.389 267.73 622.289 267.78 615.389 267.85C564.939 268.39 514.489 268.92 464.039 269.46C441.619 269.7 419.209 269.94 396.789 270.18C386.839 270.29 375.679 270.91 368.979 278.25C367.659 279.7 366.369 281.48 364.429 281.77C361.469 282.22 359.279 278.78 359.219 275.79C359.099 270.18 363.419 265.23 368.519 262.87C373.619 260.52 379.399 260.24 385.009 260.05C468.109 257.22 551.449 265.29 634.369 259.16C639.159 258.81 644.819 258.78 647.689 262.64C649.269 264.77 649.529 267.58 649.739 270.23C649.939 272.9 652.119 282.86 646.749 279.05C645.009 277.82 643.809 275.13 642.009 273.69C640.169 272.22 638.059 270.96 635.849 270.19Z" fill="white"/>
<path d="M649.229 284.08C649.229 284.08 638.219 279.99 623.429 279.99C608.639 279.99 388.589 279.99 388.589 279.99C388.589 279.99 368.609 279.2 362.949 284.08V270.4C362.949 265.1 367.249 260.8 372.549 260.8H639.639C644.939 260.8 649.239 265.1 649.239 270.4V284.08H649.229Z" stroke="#0D2232" stroke-width="6" stroke-miterlimit="10" stroke-linecap="round" stroke-linejoin="round"/>
<path d="M411.95 314.08C411.95 314.08 411.41 343.07 411.95 351.41C412.49 359.75 406.83 367.3 398.18 361.48C389.53 355.66 391.21 321.06 391.21 321.06C391.21 321.06 400.19 321.47 411.95 314.08Z" fill="#253B5A" stroke="#0D2232" stroke-width="6" stroke-miterlimit="10"/>
<path d="M459.399 360.47C468.258 360.47 475.439 353.289 475.439 344.43C475.439 335.571 468.258 328.39 459.399 328.39C450.541 328.39 443.359 335.571 443.359 344.43C443.359 353.289 450.541 360.47 459.399 360.47Z" fill="#0D2232"/>
<path d="M554.22 360.47C563.078 360.47 570.26 353.289 570.26 344.43C570.26 335.571 563.078 328.39 554.22 328.39C545.361 328.39 538.18 335.571 538.18 344.43C538.18 353.289 545.361 360.47 554.22 360.47Z" fill="#0D2232"/>
<path d="M575.079 316.19C573.789 316.19 572.499 315.75 571.449 314.84C570.959 314.43 560.179 305.47 544.379 307.94C541.339 308.42 538.489 306.34 538.019 303.3C537.539 300.26 539.619 297.41 542.659 296.94C563.749 293.64 578.139 305.89 578.739 306.42C581.059 308.44 581.309 311.96 579.289 314.28C578.189 315.54 576.639 316.19 575.079 316.19Z" fill="#0D2232"/>
<path d="M438.999 316.19C440.289 316.19 441.579 315.75 442.629 314.84C443.119 314.43 453.899 305.47 469.699 307.94C472.739 308.42 475.589 306.34 476.059 303.3C476.539 300.26 474.459 297.41 471.419 296.94C450.329 293.64 435.939 305.89 435.339 306.42C433.019 308.44 432.769 311.96 434.789 314.28C435.889 315.54 437.439 316.19 438.999 316.19Z" fill="#0D2232"/>
<path d="M556.439 391.87C552.249 399.56 546.089 407.93 537.289 414.09C529.519 419.53 519.689 423.24 507.339 423.24C493.869 423.24 483.439 418.82 475.419 412.57C467.729 406.58 462.259 398.89 458.449 391.79C455.119 385.56 457.109 378.46 461.979 374.51C464.319 372.61 467.319 371.44 470.709 371.44H544.229C547.619 371.44 550.619 372.61 552.959 374.51C557.849 378.48 559.839 385.64 556.439 391.87Z" fill="#162336"/>
<path d="M536.129 388.64C520.349 388.64 472.949 388.64 472.949 388.64C472.949 388.64 460.319 389.12 461.989 374.51C464.329 372.61 467.329 371.44 470.719 371.44H544.239C547.629 371.44 550.629 372.61 552.969 374.51C553.139 374.66 551.909 388.64 536.129 388.64Z" fill="white"/>
<path d="M537.3 414.09C529.53 419.53 519.7 423.24 507.35 423.24C493.88 423.24 483.45 418.82 475.43 412.57C480.16 402.16 497.67 398.68 515.32 399.65C528.91 400.39 534.81 408.42 537.3 414.09Z" fill="#DD1010"/>
<path d="M470.709 371.44H544.229C554.719 371.44 561.459 382.66 556.439 391.87C548.539 406.36 533.679 423.24 507.339 423.24C480.949 423.24 466.229 406.3 458.449 391.79C453.519 382.58 460.259 371.44 470.709 371.44Z" stroke="#0D2232" stroke-width="6" stroke-miterlimit="10"/>
<path d="M580.649 634.54H430.899V668.41H580.649V634.54Z" fill="#253B5A" stroke="#0D2232" stroke-width="6" stroke-miterlimit="10"/>
<path d="M531.46 634.54H484.06V668.41H531.46V634.54Z" fill="#C3CDD4" stroke="#0D2232" stroke-width="6" stroke-miterlimit="10"/>
<path d="M649.46 845H652.82C654.44 845 655.76 846.31 655.76 847.94V856.59C655.76 858.99 653.81 860.94 651.41 860.94H575.02L559.4 850.45V860.94H520.65C518.25 860.94 516.3 858.99 516.3 856.59V840.13C516.3 837.84 518.16 835.98 520.45 835.99H521.89L623.52 835.1L649.46 845Z" fill="#484D60" stroke="#0D2232" stroke-width="6" stroke-miterlimit="10" stroke-linecap="round" stroke-linejoin="round"/>
<path d="M651.039 841.23L649.469 845H579.469L561.379 835.98H521.879C521.879 835.98 520.069 827.28 521.589 816.5C522.529 809.81 524.759 802.32 529.499 795.61H589.689L594.409 800.65C594.409 800.65 602.899 800.96 603.529 808.83C603.529 808.83 605.019 808.08 607.589 807.26C612.659 805.64 621.919 803.71 632.159 806.63C647.569 811.03 654.809 830.85 651.039 841.23Z" fill="#E89F02"/>
<path d="M545.019 835.99H521.879C521.879 835.99 520.069 827.29 521.589 816.51C521.679 816.5 521.779 816.5 521.879 816.49C544.979 815.33 545.019 835.99 545.019 835.99Z" fill="#834526"/>
<path opacity="0.75" d="M651.04 841.23L649.47 845H639.4C639.4 845 648.36 812.71 607.6 807.25C612.67 805.63 621.93 803.7 632.17 806.62C647.57 811.03 654.81 830.85 651.04 841.23Z" fill="white"/>
<path d="M589.69 795.61L594.41 800.64C594.41 800.64 602.9 800.95 603.53 808.82C603.53 808.82 616.74 802.21 632.16 806.62C647.58 811.02 654.81 830.84 651.04 841.23L649.47 845.01H579.47L561.38 835.99H521.88C521.88 835.99 517.13 813.13 529.5 795.62H589.69V795.61Z" stroke="#0D2232" stroke-width="6" stroke-miterlimit="10" stroke-linecap="round" stroke-linejoin="round"/>
<path d="M603.53 808.83C603.53 808.83 583.29 815.44 579.46 845.01" stroke="#0D2232" stroke-width="6" stroke-miterlimit="10" stroke-linecap="round" stroke-linejoin="round"/>
<path d="M594.41 800.65C594.41 800.65 580.25 803.48 575.01 816.48" stroke="#0D2232" stroke-width="6" stroke-miterlimit="10" stroke-linecap="round" stroke-linejoin="round"/>
<path d="M594.409 774.12H520.979V795.62H594.409V774.12Z" fill="#435F84" stroke="#0D2232" stroke-width="6" stroke-miterlimit="10" stroke-linecap="round" stroke-linejoin="round"/>
<path d="M587.8 774.12L579.31 668.41H506.43V688.97L516.28 688.34L526.77 774.12H587.8Z" fill="#435F84" stroke="#0D2232" stroke-width="6" stroke-miterlimit="10" stroke-linecap="round" stroke-linejoin="round"/>
<path d="M363.39 845H360.03C358.41 845 357.09 846.31 357.09 847.94V856.59C357.09 858.99 359.04 860.94 361.44 860.94H437.83L453.45 850.45V860.94H492.2C494.6 860.94 496.55 858.99 496.55 856.59V840.13C496.55 837.84 494.69 835.98 492.4 835.99H490.96L389.33 835.1L363.39 845Z" fill="#484D60" stroke="#0D2232" stroke-width="6" stroke-miterlimit="10" stroke-linecap="round" stroke-linejoin="round"/>
<path d="M361.819 841.23L363.389 845H433.389L451.479 835.98H490.979C490.979 835.98 492.789 827.28 491.269 816.5C490.329 809.81 488.099 802.32 483.359 795.61H423.169L418.449 800.65C418.449 800.65 409.959 800.96 409.329 808.83C409.329 808.83 407.839 808.08 405.269 807.26C400.199 805.64 390.939 803.71 380.699 806.63C365.279 811.03 358.039 830.85 361.819 841.23Z" fill="#E89F02"/>
<path d="M467.84 835.99H490.98C490.98 835.99 492.79 827.29 491.27 816.51C491.18 816.5 491.08 816.5 490.98 816.49C467.87 815.33 467.84 835.99 467.84 835.99Z" fill="#834526"/>
<path opacity="0.75" d="M361.819 841.23L363.389 845H373.459C373.459 845 364.499 812.71 405.259 807.25C400.189 805.63 390.929 803.7 380.689 806.62C365.279 811.03 358.039 830.85 361.819 841.23Z" fill="white"/>
<path d="M423.16 795.61L418.44 800.64C418.44 800.64 409.95 800.95 409.32 808.82C409.32 808.82 396.11 802.21 380.69 806.62C365.27 811.02 358.04 830.84 361.81 841.23L363.38 845.01H433.38L451.47 835.99H490.97C490.97 835.99 495.72 813.13 483.35 795.62H423.16V795.61Z" stroke="#0D2232" stroke-width="6" stroke-miterlimit="10" stroke-linecap="round" stroke-linejoin="round"/>
<path d="M409.319 808.83C409.319 808.83 429.559 815.44 433.389 845.01" stroke="#0D2232" stroke-width="6" stroke-miterlimit="10" stroke-linecap="round" stroke-linejoin="round"/>
<path d="M418.449 800.65C418.449 800.65 432.609 803.48 437.849 816.48" stroke="#0D2232" stroke-width="6" stroke-miterlimit="10" stroke-linecap="round" stroke-linejoin="round"/>
<path d="M425.05 774.12L433.55 668.41H506.43V688.97L496.57 688.34L486.08 774.12H425.05Z" fill="#435F84" stroke="#0D2232" stroke-width="6" stroke-miterlimit="10" stroke-linecap="round" stroke-linejoin="round"/>
<path d="M388.82 556.93C388.82 556.93 375.53 566.9 351.12 558.72C326.71 550.54 319.63 522.65 319.63 522.65V515.63L320.82 515.45L362.3 509.17H366.22L379.52 502.11L386.21 532.94L386.94 539.71L388.82 556.93Z" fill="#FBC6A6"/>
<path opacity="0.16" d="M388.82 556.93C388.82 556.93 375.53 566.9 351.12 558.72C326.71 550.54 319.63 522.65 319.63 522.65V515.63L320.82 515.45C328.17 523.96 336.71 531.45 346.1 537.63C348.85 539.43 351.68 541.14 354.73 542.37C362.93 545.68 372.15 545.21 380.43 542.45C382.56 541.74 384.65 540.87 386.66 539.87C386.75 539.83 386.84 539.78 386.94 539.71L388.82 556.93Z" fill="black"/>
<path d="M366.24 509.16H362.32L319.64 515.63V522.66C319.64 522.66 326.72 550.55 351.13 558.73C375.54 566.91 388.83 556.94 388.83 556.94L386.23 532.94L379.54 502.11L366.24 509.16Z" stroke="#0D2232" stroke-width="6" stroke-miterlimit="10" stroke-linecap="round" stroke-linejoin="round"/>
<path d="M418.63 554.11L393.04 565.85L370.1 517.32L363.89 504.19L388.43 492.03L395.19 505.92L418.63 554.11Z" fill="#435F84"/>
<path opacity="0.21" d="M395.19 505.92L395.15 505.96L370.1 517.32L363.89 504.19L388.43 492.03L395.19 505.92Z" fill="white"/>
<path d="M430.899 475.67V542.37L416.319 549.92L395.149 505.96L390.739 496.78L430.899 475.67Z" fill="#F9DC1B"/>
<path opacity="0.5" d="M430.899 475.67V487.62L395.149 505.96L390.739 496.78L430.899 475.67Z" fill="white"/>
<g opacity="0.16">
<path d="M410.82 279.99H612L616.82 291.63H404.43L410.82 279.99Z" fill="black"/>
<path d="M391.21 321.06C391.21 321.06 426.83 329.84 462.48 291.64L430.9 286.85L391.21 321.06Z" fill="black"/>
<path d="M478.4 318.37C478.4 318.37 531.55 327.19 565.62 285.81L536.12 286.84L478.4 318.37Z" fill="black"/>
</g>
<path opacity="0.16" d="M608.799 344.43C608.799 344.43 591.499 441.81 488.239 454.33C488.239 454.33 596.369 469.69 609.739 365.24L608.799 344.43Z" fill="black"/>
<path d="M430.899 512L403.529 523.35L416.319 549.92L430.899 542.37V512Z" fill="#E89F02"/>
<path d="M574.62 616.14H436.81V628.43H574.62V616.14Z" fill="#E89F02"/>
<path d="M550.739 468.86H581.169V634.54H430.899V468.86H460.679" stroke="#0D2232" stroke-width="6" stroke-miterlimit="10"/>
<path d="M388.43 492.03L418.63 554.11L393.04 565.86L363.89 504.19L388.43 492.03Z" stroke="#0D2232" stroke-width="6" stroke-miterlimit="10" stroke-linecap="round" stroke-linejoin="round"/>
<path d="M443.8 279.99C443.8 279.99 416.74 326.24 384.65 320.57C381.74 320.05 379.12 319.47 376.79 318.85C353.44 312.57 357.6 301.44 357.6 301.44C357.6 301.44 377.12 306.8 390.63 281.81C390.95 281.22 391.26 280.62 391.57 280H443.8V279.99Z" fill="#253B5A"/>
<path opacity="0.21" d="M382.48 303.9C373.49 309.4 369.87 309.25 369.87 309.25C369.87 309.25 368.77 313.82 376.79 318.85C353.44 312.57 357.6 301.44 357.6 301.44C357.6 301.44 379.48 304.98 392.99 279.99C393.01 280.33 391.37 298.46 382.48 303.9Z" fill="white"/>
<path d="M656.15 305.79C656.15 305.79 642.79 326.52 619.48 321.81C606.13 319.11 589.51 308.06 570.26 280L627.82 280.12C627.82 280.12 628 283.01 629.22 286.85C631.68 294.52 638.32 306 656.15 305.79Z" fill="#253B5A"/>
<path opacity="0.21" d="M656.15 305.79C656.15 305.79 642.789 326.52 619.479 321.81C622.139 321.05 624.72 319.96 627.19 318.73C632.17 316.24 636.83 313.15 641.78 310.6C636.28 310.34 631.379 306.28 629.219 301.21C627.699 297.63 626.64 291.66 628.38 287.97C628.61 287.48 628.91 287.11 629.24 286.86C631.68 294.52 638.32 306 656.15 305.79Z" fill="white"/>
<path d="M627.83 280.11C627.83 280.11 629.41 306.1 656.15 305.79C656.15 305.79 623.12 357.07 570.27 279.99L627.83 280.11Z" stroke="#0D2232" stroke-width="6" stroke-miterlimit="10" stroke-linecap="round" stroke-linejoin="round"/>
<path d="M543.519 279.99C543.519 279.99 531.249 313.34 478.399 318.37C478.399 318.37 487.519 302.01 487.519 279.99H543.519Z" fill="#253B5A" stroke="#0D2232" stroke-width="6" stroke-miterlimit="10" stroke-linecap="round" stroke-linejoin="round"/>
<path d="M443.8 279.99C443.8 279.99 416.74 326.24 384.66 320.57C352.58 314.9 357.6 301.43 357.6 301.43C357.6 301.43 378.05 307.04 391.58 279.98H443.8V279.99Z" stroke="#0D2232" stroke-width="6" stroke-miterlimit="10" stroke-linecap="round" stroke-linejoin="round"/>
<path d="M612 365.29C612 365.29 609.27 417.47 559.56 445.47C509.85 473.47 456.69 453.33 430.89 427.85C405.09 402.37 403.52 363.53 403.52 363.53" stroke="#0D2232" stroke-width="6" stroke-miterlimit="10"/>
<path d="M625.63 322.5C625.63 322.5 625.16 349.21 624.06 354.4C622.96 359.59 618.4 366.04 609.75 365.25C601.1 364.46 601.41 353.3 601.26 345.43C601.1 337.57 601.26 313.54 601.26 313.54C601.26 313.54 613.04 322.85 625.63 322.5Z" fill="#253B5A" stroke="#0D2232" stroke-width="6" stroke-miterlimit="10" stroke-linecap="round" stroke-linejoin="round"/>
<path d="M524.27 668.41L547.11 795.61H529.5H520.98V774.12H526.77L516.28 685L506.43 688.97V668.41H524.27Z" fill="#253B5A"/>
<path d="M470.269 774.12L466.029 795.61H491.869V774.12H486.079L496.569 685L506.429 688.97V668.41H484.059L470.269 774.12Z" fill="#253B5A"/>
<path d="M516.279 688.34L528.659 686.87" stroke="#0D2232" stroke-width="6" stroke-miterlimit="10" stroke-linecap="round" stroke-linejoin="round"/>
<path d="M496.569 688.34L484.199 686.87" stroke="#0D2232" stroke-width="6" stroke-miterlimit="10" stroke-linecap="round" stroke-linejoin="round"/>
<path d="M579.31 668.41H565.84L575.01 774.12H581.17V795.61H594.41V774.12H587.8L579.31 668.41Z" fill="#C3CDD4"/>
<path d="M434.2 668.41H447.67L438.5 774.12H432.34V795.61H419.1V774.12H425.71L434.2 668.41Z" fill="#C3CDD4"/>
<path d="M594.409 774.12H520.979V795.62H594.409V774.12Z" stroke="#0D2232" stroke-width="6" stroke-miterlimit="10" stroke-linecap="round" stroke-linejoin="round"/>
<path d="M587.8 774.12L579.31 668.41H506.43V688.97L516.28 688.34L526.77 774.12H587.8Z" stroke="#0D2232" stroke-width="6" stroke-miterlimit="10" stroke-linecap="round" stroke-linejoin="round"/>
<path d="M425.05 774.12L433.55 668.41H506.43V688.97L496.57 688.34L486.08 774.12H425.05Z" stroke="#0D2232" stroke-width="6" stroke-miterlimit="10" stroke-linecap="round" stroke-linejoin="round"/>
<path d="M657.29 681.09H640.09V746.23H657.29V681.09Z" fill="#E89F02"/>
<path d="M746.729 660.34V670.68C746.729 673.43 744.489 675.66 741.739 675.66H663.269C660.519 675.66 658.289 673.43 658.289 670.68V660.34C658.289 659.74 658.399 659.16 658.589 658.63C659.279 656.72 661.119 655.35 663.269 655.35H741.739C743.889 655.35 745.729 656.72 746.429 658.63C746.619 659.16 746.729 659.74 746.729 660.34Z" fill="#AFCADC"/>
<path opacity="0.2" d="M658.279 669.58V670.68C658.279 673.43 660.509 675.67 663.259 675.67H741.729C744.479 675.67 746.709 673.44 746.709 670.68V669.58H658.279Z" fill="black"/>
<path opacity="0.7" d="M746.429 658.63H658.589C659.279 656.72 661.119 655.35 663.269 655.35H741.739C743.889 655.35 745.729 656.71 746.429 658.63Z" fill="white"/>
<path d="M746.729 660.34V670.68C746.729 673.43 744.489 675.66 741.739 675.66H663.269C660.519 675.66 658.289 673.43 658.289 670.68V660.34C658.289 659.74 658.399 659.16 658.589 658.63C659.279 656.72 661.119 655.35 663.269 655.35H741.739C743.889 655.35 745.729 656.72 746.429 658.63C746.619 659.16 746.729 659.74 746.729 660.34Z" stroke="#0D2232" stroke-width="4" stroke-miterlimit="10" stroke-linecap="round" stroke-linejoin="round"/>
<path d="M572.779 674.02C572.779 674.02 593.989 690.73 658.279 684.31" stroke="white" stroke-miterlimit="10"/>
<path d="M554.779 634.16V722.88L566.359 734.45H645.429L634.819 726.09L635.459 634.16H554.779Z" fill="#F9DC1B"/>
<path d="M564.429 634.16V717.32L571.179 726.09H652.179L645.429 734.45H566.359L554.779 722.88V634.16H564.429Z" fill="#E89F02"/>
<path d="M566.999 646.52H561.859V651.66H566.999V646.52Z" fill="white"/>
<path d="M566.999 662.93H561.859V668.07H566.999V662.93Z" fill="white"/>
<path d="M566.999 679.35H561.859V684.49H566.999V679.35Z" fill="white"/>
<path d="M566.999 695.76H561.859V700.9H566.999V695.76Z" fill="white"/>
<path d="M566.999 712.17H561.859V717.31H566.999V712.17Z" fill="white"/>
<path d="M635.459 669.2V634.16H554.779V722.88L566.359 734.45H638.359" stroke="#0D2232" stroke-width="4" stroke-miterlimit="10" stroke-linecap="round" stroke-linejoin="round"/>
<path d="M435.209 658.93V718.37C435.209 718.37 410.779 737.01 373.499 734.44C373.499 734.44 358.069 710.01 353.569 669.19C353.569 669.2 417.859 672.78 435.209 658.93Z" stroke="white" stroke-miterlimit="10"/>
<path d="M356.12 685.78C356.12 685.78 409.5 686.24 435.21 674.02" stroke="white" stroke-miterlimit="10"/>
<path d="M368.96 725.81C368.96 725.81 401.14 726.73 419.79 716.45L415.67 666.27L435.22 658.93V718.37C435.22 718.37 413.36 735.73 373.51 734.44L368.96 725.81Z" stroke="white" stroke-miterlimit="10"/>
<path d="M435.379 674.02C435.379 674.02 414.139 690.73 349.779 684.31" stroke="white" stroke-miterlimit="10"/>
<path d="M453.399 634.16V722.88L441.819 734.45H362.649L373.269 726.09L372.629 634.16H453.399Z" fill="#F9DC1B"/>
<path d="M443.75 634.16V717.32L436.99 726.09H355.89L362.65 734.45H441.82L453.4 722.88V634.16H443.75Z" fill="#E89F02"/>
<path d="M441.178 651.667H446.328V646.527H441.178V651.667Z" fill="white"/>
<path d="M441.178 668.082H446.328V662.942H441.178V668.082Z" fill="white"/>
<path d="M441.178 684.488H446.328V679.348H441.178V684.488Z" fill="white"/>
<path d="M441.178 700.903H446.328V695.763H441.178V700.903Z" fill="white"/>
<path d="M441.178 717.319H446.328V712.179H441.178V717.319Z" fill="white"/>
<path d="M372.63 669.2V634.16H453.4V722.88L441.82 734.45L363.72 733.61" stroke="#0D2232" stroke-width="4" stroke-miterlimit="10" stroke-linecap="round" stroke-linejoin="round"/>
<path d="M378.559 604.1L383.229 621.71L380.499 624.62C377.229 619.72 371.189 616.99 365.129 618.22C364.839 618.28 364.549 618.35 364.259 618.42C365.509 617.38 366.419 616.2 366.999 614.98C369.539 609.67 366.199 603.31 359.929 602.17L356.149 587.93C365.639 589.24 372.499 594.3 377.549 601.93C378.019 602.6 378.349 603.33 378.559 604.1Z" fill="#AFCADC"/>
<path d="M380.48 624.93L380.35 624.73C377.05 619.78 370.96 617.24 365.18 618.41C364.91 618.46 364.63 618.53 364.33 618.61L363.49 618.83L364.16 618.27C365.35 617.28 366.26 616.15 366.85 614.89C368.01 612.47 367.96 609.7 366.73 607.29C365.4 604.7 362.92 602.9 359.92 602.35L359.8 602.33L355.92 587.69L356.21 587.73C365.24 588.98 372.29 593.58 377.75 601.81C378.21 602.5 378.55 603.25 378.76 604.04L383.46 621.75L380.48 624.93ZM364.97 618.05C365.01 618.04 365.05 618.03 365.1 618.02C370.95 616.83 377.11 619.35 380.53 624.3L383.02 621.64L378.37 604.14C378.17 603.39 377.85 602.68 377.41 602.02C372.07 593.98 365.21 589.43 356.43 588.15L360.1 602C363.16 602.59 365.7 604.45 367.06 607.12C368.35 609.64 368.39 612.53 367.18 615.06C366.67 616.15 365.92 617.16 364.97 618.05Z" fill="#000072"/>
<g opacity="0.55">
<path d="M366.979 617.97C366.369 618.01 365.749 618.1 365.129 618.22C364.839 618.28 364.549 618.35 364.259 618.42C365.509 617.38 366.419 616.2 366.999 614.98C369.539 609.67 366.199 603.31 359.929 602.17L356.149 587.93C357.169 588.07 358.149 588.25 359.099 588.48L362.619 601.73C368.889 602.87 372.229 609.22 369.689 614.54C369.119 615.76 368.219 616.93 366.979 617.97Z" fill="white"/>
</g>
<g opacity="0.55">
<path d="M367.049 617.96L366.959 617.98C366.969 617.97 366.969 617.97 366.979 617.96C366.999 617.96 367.019 617.96 367.049 617.96Z" fill="white"/>
<path d="M367.099 618.15L366.189 618.39L366.929 617.78C366.969 617.77 366.999 617.77 367.019 617.77L368.649 617.73L367.099 618.15Z" fill="#371A45"/>
</g>
<path d="M386.249 633.08L388.529 641.69C388.669 642.22 388.379 642.78 387.879 642.97C387.839 642.98 387.809 642.99 387.769 643L372.189 647.14C370.609 647.56 369.009 647.71 367.439 647.62C362.419 647.32 357.729 644.55 355.189 640.22C354.539 639.12 354.029 637.93 353.689 636.64C353.259 635.03 353.119 633.42 353.219 631.85C353.619 625.64 357.909 620.11 364.259 618.43H364.269C364.559 618.35 364.839 618.29 365.139 618.23C371.199 617 377.239 619.73 380.509 624.63C381.469 626.07 382.179 627.69 382.599 629.45C382.869 630.59 382.989 631.73 382.989 632.85L384.949 632.33C385.309 632.23 385.679 632.34 385.939 632.57C386.079 632.69 386.189 632.87 386.249 633.08Z" fill="#AFCADC"/>
<path d="M387.82 643.19L372.24 647.33C370.67 647.75 369.05 647.91 367.43 647.81C362.31 647.51 357.56 644.64 355.02 640.32C354.35 639.19 353.84 637.97 353.5 636.7C353.08 635.1 352.92 633.47 353.02 631.84C353.44 625.37 357.93 619.91 364.2 618.24C364.53 618.15 364.81 618.09 365.09 618.03C371.01 616.83 377.27 619.43 380.65 624.51C381.64 626 382.35 627.64 382.76 629.39C383.01 630.44 383.14 631.52 383.15 632.59L384.87 632.13C385.28 632.02 385.72 632.12 386.03 632.41C386.22 632.57 386.35 632.79 386.41 633.03L388.69 641.64C388.86 642.27 388.52 642.92 387.92 643.15C387.9 643.16 387.86 643.17 387.82 643.19ZM364.32 618.6C358.2 620.23 353.82 625.55 353.41 631.85C353.3 633.44 353.46 635.03 353.87 636.58C354.2 637.82 354.7 639.01 355.35 640.11C357.82 644.32 362.46 647.12 367.45 647.41C369.03 647.5 370.61 647.35 372.14 646.94L387.72 642.8C387.75 642.79 387.78 642.78 387.81 642.77C388.23 642.61 388.46 642.16 388.35 641.72L386.07 633.11C386.03 632.94 385.93 632.79 385.8 632.68C385.58 632.48 385.28 632.41 384.99 632.48L382.79 633.06V632.81C382.79 631.69 382.66 630.56 382.4 629.45C382 627.74 381.31 626.14 380.34 624.69C377.04 619.74 370.95 617.2 365.17 618.37C364.9 618.46 364.62 618.52 364.32 618.6Z" fill="#000072"/>
<g opacity="0.3">
<path d="M378.56 604.1L383.23 621.71L380.5 624.62C380.32 624.35 380.13 624.08 379.93 623.82C376.56 619.42 370.86 617.05 365.13 618.22C364.84 618.28 364.55 618.35 364.26 618.42C365.51 617.38 366.42 616.2 367 614.98C367.08 614.95 367.17 614.93 367.25 614.91H367.27C367.55 614.84 367.84 614.77 368.14 614.71C370.78 614.17 373.41 614.39 375.81 615.21C377.27 615.71 378.69 614.41 378.3 612.92L376.24 605.17C376.04 604.4 375.7 603.67 375.26 603C370.7 596.12 364.67 591.33 356.58 589.5L356.17 587.95C365.66 589.26 372.52 594.32 377.57 601.95C378.02 602.6 378.35 603.33 378.56 604.1Z" fill="black"/>
<path d="M380.48 624.93L380.35 624.73C380.17 624.45 379.98 624.19 379.79 623.95C376.37 619.48 370.64 617.31 365.18 618.42C364.91 618.47 364.63 618.54 364.33 618.62L363.49 618.84L364.16 618.28C365.35 617.29 366.26 616.16 366.85 614.9L366.89 614.82L366.97 614.79C367.37 614.66 367.78 614.58 368.12 614.51C370.7 613.99 373.38 614.16 375.89 615.01C376.51 615.22 377.17 615.08 377.65 614.64C378.12 614.2 378.3 613.58 378.13 612.96L376.07 605.21C375.87 604.47 375.55 603.76 375.11 603.09C370.27 595.79 364.2 591.4 356.54 589.67L356.43 589.64L355.91 587.7L356.2 587.74C365.23 588.99 372.28 593.59 377.74 601.82C378.2 602.51 378.54 603.26 378.75 604.05L383.45 621.76L380.48 624.93ZM364.97 618.05C365.01 618.04 365.05 618.03 365.1 618.02C370.7 616.88 376.58 619.11 380.09 623.7C380.24 623.89 380.39 624.09 380.53 624.31L383.02 621.65L378.37 604.15C378.17 603.4 377.85 602.69 377.41 602.03C372.07 593.99 365.21 589.44 356.43 588.16L356.74 589.32C364.44 591.09 370.55 595.53 375.43 602.88C375.89 603.58 376.23 604.33 376.44 605.11L378.5 612.86C378.7 613.62 378.48 614.39 377.91 614.92C377.33 615.46 376.53 615.63 375.76 615.38C373.32 614.55 370.7 614.38 368.19 614.89C367.92 614.94 367.61 615.01 367.33 615.09C367.27 615.11 367.21 615.12 367.16 615.14C366.63 616.2 365.9 617.18 364.97 618.05Z" fill="#371A45"/>
</g>
<g opacity="0.55">
<path d="M375.149 619.74C372.729 618.9 370.059 618.67 367.389 619.21C367.099 619.27 366.809 619.34 366.519 619.41H366.509C360.169 621.09 355.879 626.63 355.469 632.83C355.369 634.4 355.509 636.02 355.939 637.62C356.279 638.9 356.789 640.1 357.439 641.2C358.839 643.58 360.879 645.49 363.279 646.77C359.929 645.6 357.009 643.3 355.189 640.2C354.539 639.1 354.029 637.91 353.689 636.62C353.259 635.01 353.119 633.4 353.219 631.83C353.619 625.62 357.909 620.09 364.259 618.41H364.269C364.559 618.33 364.839 618.27 365.139 618.21C368.659 617.5 372.179 618.13 375.149 619.74Z" fill="white"/>
</g>
<path d="M368.079 640.7C372.431 640.7 375.959 637.172 375.959 632.82C375.959 628.468 372.431 624.94 368.079 624.94C363.727 624.94 360.199 628.468 360.199 632.82C360.199 637.172 363.727 640.7 368.079 640.7Z" fill="#CECEDD"/>
<g opacity="0.55">
<path d="M378.17 632.23C379.29 636.44 376.78 640.75 372.58 641.87C369.98 642.56 367.34 641.87 365.43 640.24C366.88 640.76 368.5 640.86 370.11 640.44C374.32 639.32 376.82 635.01 375.7 630.8C375.27 629.2 374.38 627.84 373.21 626.84C375.56 627.68 377.48 629.63 378.17 632.23Z" fill="white"/>
</g>
<g opacity="0.3">
<path d="M372.88 626.57C371.59 626.21 370.19 626.19 368.8 626.56C364.59 627.68 362.09 631.99 363.21 636.2C363.67 637.95 364.69 639.4 366.03 640.42C363.4 639.71 361.22 637.66 360.47 634.84C359.35 630.63 361.86 626.32 366.06 625.2C368.52 624.55 371.02 625.13 372.88 626.57Z" fill="black"/>
<path d="M366.92 640.86L365.98 640.61C363.2 639.86 361.02 637.67 360.28 634.89C359.14 630.59 361.71 626.16 366.01 625.02C368.45 624.37 371 624.88 373 626.42L373.78 627.02L372.83 626.76C371.54 626.4 370.17 626.4 368.85 626.75C364.75 627.84 362.3 632.06 363.39 636.15C363.83 637.8 364.78 639.23 366.14 640.27L366.92 640.86ZM366.11 625.39C362.01 626.48 359.56 630.7 360.65 634.79C361.27 637.12 362.96 639.02 365.16 639.93C364.13 638.92 363.4 637.67 363.02 636.25C361.88 631.95 364.45 627.52 368.75 626.38C369.8 626.1 370.9 626.04 371.96 626.19C370.21 625.15 368.12 624.85 366.11 625.39Z" fill="#371A45"/>
</g>
<path d="M371.899 647.21L375.509 660.81C375.989 662.61 377.039 664.22 378.499 665.38L393.259 677.12C395.689 679.05 397.429 681.71 398.219 684.7L405.589 712.48C406.059 714.26 408.109 715.07 409.689 714.11C413.349 711.88 416.189 709.3 417.729 706.16C418.969 703.63 419.169 700.71 418.439 697.98L412.849 676.94C412.289 674.83 411.169 672.92 409.609 671.39L399.849 661.85C397.939 659.98 396.809 657.44 396.779 654.77C396.749 651.75 397.339 648.39 398.289 644.83C398.879 642.61 396.859 640.58 394.639 641.17L371.899 647.21Z" fill="#F9DC1B"/>
<path d="M412.87 676.93L418.46 697.98C419.18 700.71 418.99 703.63 417.75 706.16C416.21 709.3 413.36 711.88 409.7 714.11C408.62 714.77 407.32 714.59 406.46 713.85C409.54 711.8 411.94 709.45 413.31 706.66C414.55 704.13 414.75 701.21 414.02 698.48L408.43 677.43C407.87 675.32 406.75 673.41 405.19 671.88L395.43 662.34C393.52 660.47 392.4 657.93 392.37 655.26C392.34 652.24 392.93 648.88 393.88 645.32C394.28 643.81 393.47 642.38 392.21 641.82L394.68 641.17C396.9 640.58 398.92 642.61 398.33 644.83C397.38 648.39 396.79 651.75 396.82 654.77C396.85 657.44 397.98 659.98 399.88 661.85L409.64 671.39C411.19 672.91 412.31 674.83 412.87 676.93Z" fill="#E89F02"/>
<g opacity="0.55">
<path d="M408.809 713.61C408.879 713.88 408.989 714.14 409.129 714.36C407.659 714.86 406.009 714.05 405.589 712.47L398.219 684.69C397.429 681.7 395.689 679.04 393.259 677.11L378.499 665.37C377.039 664.21 375.989 662.61 375.509 660.8L371.899 647.2L394.669 641.16C395.959 640.82 397.169 641.36 397.859 642.3L375.119 648.33L378.729 661.93C379.209 663.74 380.259 665.34 381.719 666.5L396.479 678.24C398.899 680.17 400.639 682.83 401.439 685.82L408.809 713.61Z" fill="white"/>
</g>
<path d="M371.9 647.21L375.51 660.81C375.99 662.61 375.87 664.52 375.18 666.26L368.18 683.77C367.03 686.65 366.84 689.82 367.63 692.82L375 720.6C375.47 722.38 374.09 724.1 372.25 724.04C367.97 723.92 364.22 723.09 361.32 721.13C358.98 719.55 357.37 717.11 356.64 714.38L351.05 693.34C350.49 691.23 350.51 689.02 351.11 686.92L354.85 673.8C355.58 671.23 355.3 668.47 354 666.13C352.53 663.49 350.35 660.86 347.76 658.24C346.15 656.61 346.9 653.85 349.11 653.26L371.9 647.21Z" fill="#F9DC1B"/>
<path d="M371.899 647.21L375.509 660.81C375.989 662.62 375.869 664.53 375.179 666.26L368.179 683.77C367.029 686.65 366.839 689.82 367.629 692.82L374.999 720.6C375.469 722.38 374.089 724.1 372.249 724.05C371.459 724.03 370.679 723.98 369.919 723.9C370.249 723.31 370.359 722.6 370.169 721.88L362.799 694.1C362.009 691.11 362.199 687.93 363.349 685.05L370.349 667.54C371.039 665.81 371.159 663.9 370.679 662.09L367.069 648.49L371.899 647.21Z" fill="#E89F02"/>
<g opacity="0.55">
<path d="M351.749 659.17C354.339 661.79 356.519 664.42 357.989 667.06C359.289 669.39 359.569 672.16 358.839 674.73L355.099 687.85C354.499 689.95 354.479 692.17 355.039 694.27L360.629 715.32C361.349 718.05 362.969 720.49 365.299 722.07C366.329 722.77 367.469 723.32 368.699 723.75C365.889 723.35 363.399 722.53 361.339 721.13C359.009 719.55 357.389 717.11 356.669 714.38L351.079 693.33C350.519 691.22 350.539 689 351.139 686.91L354.879 673.79C355.609 671.22 355.329 668.46 354.029 666.13C352.559 663.49 350.379 660.86 347.789 658.24C346.179 656.61 346.929 653.84 349.139 653.26L371.899 647.21L372.389 649.07L353.089 654.2C350.879 654.78 350.129 657.54 351.749 659.17Z" fill="white"/>
</g>
<path d="M367.439 647.61L367.629 648.34L354.749 651.76L352.389 642.88C352.129 641.89 352.719 640.87 353.709 640.61L355.179 640.22C357.729 644.54 362.419 647.32 367.439 647.61Z" fill="#AFCADC"/>
<path d="M367.87 648.48L354.61 652L352.2 642.93C351.91 641.84 352.56 640.71 353.66 640.42L355.27 639.99L355.34 640.12C357.81 644.33 362.45 647.13 367.44 647.42L367.58 647.43L367.87 648.48ZM354.89 651.53L367.4 648.21L367.29 647.8C362.28 647.46 357.63 644.65 355.1 640.44L353.77 640.79C352.88 641.03 352.35 641.94 352.59 642.83L354.89 651.53Z" fill="#000072"/>
<g opacity="0.55">
<path d="M355.31 640.18C355.51 640.53 355.74 640.87 355.97 641.2L355.84 641.24C354.85 641.5 354.26 642.52 354.52 643.51L356.58 651.28L354.87 651.73L352.51 642.85C352.25 641.86 352.84 640.84 353.83 640.58L355.31 640.18Z" fill="white"/>
</g>
<path d="M364.25 618.42C357.91 620.1 353.62 625.64 353.21 631.84L349.41 630.67L344.74 613.06C344.53 612.29 344.46 611.49 344.52 610.69C345.13 601.56 348.57 593.76 356.16 587.92L359.94 602.16C353.93 607.21 355.72 616.94 364.25 618.42Z" fill="#AFCADC"/>
<path d="M353.4 632.1L349.27 630.83L344.57 613.12C344.36 612.33 344.28 611.51 344.34 610.68C345 600.83 348.83 593.33 356.06 587.77L356.29 587.59L360.17 602.23L360.08 602.31C357.19 604.73 355.98 608.39 356.91 611.85C357.81 615.19 360.57 617.57 364.3 618.22L365.16 618.37L364.31 618.59C358.2 620.21 353.82 625.54 353.42 631.84L353.4 632.1ZM349.58 630.53L353.04 631.6C353.53 625.49 357.66 620.32 363.46 618.46C359.97 617.61 357.4 615.22 356.53 611.97C355.57 608.4 356.8 604.63 359.73 602.11L356.06 588.27C349.07 593.74 345.36 601.09 344.72 610.72C344.67 611.51 344.74 612.29 344.94 613.03L349.58 630.53Z" fill="#000072"/>
<g opacity="0.3">
<path d="M361.579 619.41C361.629 619.39 361.679 619.36 361.729 619.34C361.749 619.34 361.769 619.35 361.789 619.35C361.719 619.37 361.649 619.39 361.579 619.41Z" fill="#262F6A"/>
<path d="M361.639 619.6L361.489 619.25C361.539 619.22 361.599 619.2 361.649 619.17L361.699 619.15L361.799 619.16L362.599 619.32L361.839 619.53C361.779 619.56 361.709 619.58 361.639 619.6Z" fill="#371A45"/>
</g>
<g opacity="0.3">
<path d="M362.13 617.84C362.72 618.07 362.73 618.9 362.14 619.16C362 619.22 361.86 619.28 361.73 619.35C353.24 617.83 350.86 608.03 356.85 603L353.47 590.26C354.3 589.45 355.2 588.68 356.17 587.94L359.95 602.18C354.47 606.76 355.46 615.24 362.13 617.84Z" fill="#262F6A"/>
<path d="M361.76 619.54L361.7 619.53C357.65 618.8 354.64 616.15 353.65 612.43C352.72 608.94 353.86 605.3 356.64 602.92L353.26 590.19L353.34 590.11C354.18 589.3 355.09 588.51 356.05 587.77L356.28 587.59L360.16 602.23L360.07 602.31C357.44 604.52 356.18 607.77 356.72 611.01C357.22 614.07 359.22 616.5 362.21 617.66C362.55 617.8 362.77 618.11 362.78 618.48C362.79 618.86 362.58 619.18 362.23 619.33C362.09 619.39 361.96 619.45 361.82 619.52L361.76 619.54ZM353.69 590.31L357.07 603.06L356.98 603.14C354.25 605.43 353.12 608.95 354.02 612.34C354.97 615.89 357.84 618.43 361.7 619.15C361.82 619.09 361.94 619.04 362.07 618.98C362.31 618.88 362.39 618.66 362.39 618.49C362.39 618.28 362.27 618.1 362.07 618.02C358.96 616.81 356.87 614.28 356.34 611.08C355.79 607.75 357.06 604.4 359.73 602.11L356.06 588.27C355.22 588.91 354.43 589.6 353.69 590.31Z" fill="#371A45"/>
</g>
<g opacity="0.55">
<path d="M356.17 587.93L356.71 589.98C350.64 595.58 347.81 602.7 347.26 610.9C347.21 611.7 347.28 612.5 347.48 613.27L352.15 630.88L353.26 631.22C353.24 631.43 353.22 631.64 353.21 631.85L349.41 630.68L344.74 613.07C344.53 612.3 344.46 611.5 344.52 610.7C345.14 601.57 348.58 593.77 356.17 587.93Z" fill="white"/>
</g>
<g opacity="0.2">
<path d="M386.25 633.08L388.53 641.69C388.67 642.22 388.38 642.78 387.88 642.97L374.97 646.4C381.22 643.37 384.27 639.06 383.5 633.2L385.93 632.56C386.08 632.69 386.19 632.87 386.25 633.08Z" fill="black"/>
</g>
<path d="M367.439 647.61L367.629 648.34L354.749 651.76L352.389 642.88C352.129 641.89 352.719 640.87 353.709 640.61L355.179 640.22C357.729 644.54 362.419 647.32 367.439 647.61Z" stroke="#0D2232" stroke-width="4" stroke-miterlimit="10" stroke-linecap="round" stroke-linejoin="round"/>
<path d="M371.899 647.21L375.509 660.81C375.989 662.61 377.039 664.22 378.499 665.38L393.259 677.12C395.689 679.05 397.429 681.71 398.219 684.7L405.589 712.48C406.059 714.26 408.109 715.07 409.689 714.11C413.349 711.88 416.189 709.3 417.729 706.16C418.969 703.63 419.169 700.71 418.439 697.98L412.849 676.94C412.289 674.83 411.169 672.92 409.609 671.39L399.849 661.85C397.939 659.98 396.809 657.44 396.779 654.77C396.749 651.75 397.339 648.39 398.289 644.83C398.879 642.61 396.859 640.58 394.639 641.17L371.899 647.21Z" stroke="#0D2232" stroke-width="4" stroke-miterlimit="10" stroke-linecap="round" stroke-linejoin="round"/>
<path d="M371.9 647.21L375.51 660.81C375.99 662.61 375.87 664.52 375.18 666.26L368.18 683.77C367.03 686.65 366.84 689.82 367.63 692.82L375 720.6C375.47 722.38 374.09 724.1 372.25 724.04C367.97 723.92 364.22 723.09 361.32 721.13C358.98 719.55 357.37 717.11 356.64 714.38L351.05 693.34C350.49 691.23 350.51 689.02 351.11 686.92L354.85 673.8C355.58 671.23 355.3 668.47 354 666.13C352.53 663.49 350.35 660.86 347.76 658.24C346.15 656.61 346.9 653.85 349.11 653.26L371.9 647.21Z" stroke="#0D2232" stroke-width="4" stroke-miterlimit="10" stroke-linecap="round" stroke-linejoin="round"/>
<path d="M378.559 604.1L383.229 621.71L380.499 624.62C377.229 619.72 371.189 616.99 365.129 618.22C364.839 618.28 364.549 618.35 364.259 618.42C365.509 617.38 366.419 616.2 366.999 614.98C369.539 609.67 366.199 603.31 359.929 602.17L356.149 587.93C365.639 589.24 372.499 594.3 377.549 601.93C378.019 602.6 378.349 603.33 378.559 604.1Z" stroke="#0D2232" stroke-width="4" stroke-miterlimit="10" stroke-linecap="round" stroke-linejoin="round"/>
<path d="M386.249 633.08L388.529 641.69C388.669 642.22 388.379 642.78 387.879 642.97C387.839 642.98 387.809 642.99 387.769 643L372.189 647.14C370.609 647.56 369.009 647.71 367.439 647.62C362.419 647.32 357.729 644.55 355.189 640.22C354.539 639.12 354.029 637.93 353.689 636.64C353.259 635.03 353.119 633.42 353.219 631.85C353.619 625.64 357.909 620.11 364.259 618.43H364.269C364.559 618.35 364.839 618.29 365.139 618.23C371.199 617 377.239 619.73 380.509 624.63C381.469 626.07 382.179 627.69 382.599 629.45C382.869 630.59 382.989 631.73 382.989 632.85L384.949 632.33C385.309 632.23 385.679 632.34 385.939 632.57C386.079 632.69 386.189 632.87 386.249 633.08Z" stroke="#0D2232" stroke-width="4" stroke-miterlimit="10" stroke-linecap="round" stroke-linejoin="round"/>
<path d="M364.25 618.42C357.91 620.1 353.62 625.64 353.21 631.84L349.41 630.67L344.74 613.06C344.53 612.29 344.46 611.49 344.52 610.69C345.13 601.56 348.57 593.76 356.16 587.92L359.94 602.16C353.93 607.21 355.72 616.94 364.25 618.42Z" stroke="#0D2232" stroke-width="4" stroke-miterlimit="10" stroke-linecap="round" stroke-linejoin="round"/>
<path d="M368.079 640.7C372.431 640.7 375.959 637.172 375.959 632.82C375.959 628.468 372.431 624.94 368.079 624.94C363.727 624.94 360.199 628.468 360.199 632.82C360.199 637.172 363.727 640.7 368.079 640.7Z" stroke="#0D2232" stroke-width="4" stroke-miterlimit="10" stroke-linecap="round" stroke-linejoin="round"/>
<path d="M420.4 664.67H399.85C397.66 664.67 395.88 662.89 395.88 660.7V659.57C395.88 657.38 397.66 655.6 399.85 655.6H420.4C422.59 655.6 424.37 657.38 424.37 659.57V660.7C424.37 662.9 422.59 664.67 420.4 664.67Z" fill="#F9DC1B"/>
<path d="M418.73 664.67H401.59V671.75H418.73V664.67Z" fill="#F9DC1B"/>
<path d="M411.9 716.23H408.35C401.46 716.23 395.88 710.65 395.88 703.76V675.9C395.88 673.61 397.73 671.76 400.02 671.76H420.23C422.52 671.76 424.37 673.61 424.37 675.9V703.76C424.37 710.64 418.78 716.23 411.9 716.23Z" fill="#F9DC1B"/>
<path d="M424.37 658.65V661.63C424.37 663.31 423.01 664.67 421.33 664.67H416.33C418.01 664.67 419.37 663.31 419.37 661.63V658.65C419.37 656.97 418.01 655.61 416.33 655.61H421.33C423.01 655.61 424.37 656.97 424.37 658.65Z" fill="#E89F02"/>
<path d="M418.74 664.68H413.74V671.76H418.74V664.68Z" fill="#E89F02"/>
<path d="M424.37 674.78V702.4C424.37 710.04 418.18 716.23 410.54 716.23H410.27C415.3 716.23 419.38 712.15 419.38 707.12V674.78C419.38 673.11 418.03 671.76 416.36 671.76H421.36C423.01 671.75 424.37 673.11 424.37 674.78Z" fill="#E89F02"/>
<g opacity="0.55">
<path d="M402.46 664.68H398.93C397.25 664.68 395.89 663.32 395.89 661.64V658.66C395.89 656.98 397.25 655.62 398.93 655.62H402.46C400.78 655.62 399.42 656.98 399.42 658.66V661.64C399.41 663.31 400.77 664.68 402.46 664.68Z" fill="white"/>
</g>
<g opacity="0.55">
<path d="M405.12 664.68H401.59V671.76H405.12V664.68Z" fill="white"/>
</g>
<g opacity="0.55">
<path d="M408.52 716.23H404.99C399.96 716.23 395.88 712.15 395.88 707.12V674.78C395.88 673.11 397.23 671.76 398.9 671.76H402.43C400.76 671.76 399.41 673.11 399.41 674.78V707.12C399.41 712.15 403.49 716.23 408.52 716.23Z" fill="white"/>
</g>
<path d="M420.06 616.9L417.74 624.08H414.76V655.61H405.82V624.08H402.83L400.52 616.9L404.16 596.36H416.42L420.06 616.9Z" fill="#AFCADC"/>
<path d="M414.93 655.77H405.65V624.24H402.71L400.34 616.91L400.35 616.87L404.02 596.19H416.55L420.23 616.91L417.86 624.24H414.92V655.77H414.93ZM405.98 655.44H414.59V623.91H417.62L419.89 616.89L416.28 596.53H404.3L400.69 616.89L402.96 623.91H405.99V655.44H405.98Z" fill="#000072"/>
<g opacity="0.2">
<path d="M413.94 624.08H414.76V655.61H412V626.02C412 624.95 412.87 624.08 413.94 624.08Z" fill="black"/>
</g>
<g opacity="0.2">
<path d="M420.06 616.9L417.74 624.08H414.98L417.3 616.9L413.66 596.36H416.42L420.06 616.9Z" fill="black"/>
</g>
<g opacity="0.55">
<path d="M403.37 616.9L405.69 624.08H403.17L400.85 616.9L404.49 596.36H407.02L403.37 616.9Z" fill="white"/>
</g>
<g opacity="0.55">
<path d="M408.67 625.73V655.61H406.14V624.08H407.02C407.94 624.08 408.67 624.82 408.67 625.73Z" fill="white"/>
</g>
<g opacity="0.2">
<path d="M409.77 690.77C409.77 694.43 408.23 697.4 406.32 697.4C404.41 697.4 404.39 694.43 404.39 690.77C404.39 687.11 404.42 684.14 406.32 684.14C408.22 684.14 409.77 687.12 409.77 690.77Z" fill="white"/>
</g>
<path d="M420.4 664.67H399.85C397.66 664.67 395.88 662.89 395.88 660.7V659.57C395.88 657.38 397.66 655.6 399.85 655.6H420.4C422.59 655.6 424.37 657.38 424.37 659.57V660.7C424.37 662.9 422.59 664.67 420.4 664.67Z" stroke="#0D2232" stroke-width="4" stroke-miterlimit="10" stroke-linecap="round" stroke-linejoin="round"/>
<path d="M418.73 664.67H401.59V671.75H418.73V664.67Z" stroke="#0D2232" stroke-width="4" stroke-miterlimit="10" stroke-linecap="round" stroke-linejoin="round"/>
<path d="M411.9 716.23H408.35C401.46 716.23 395.88 710.65 395.88 703.76V675.9C395.88 673.61 397.73 671.76 400.02 671.76H420.23C422.52 671.76 424.37 673.61 424.37 675.9V703.76C424.37 710.64 418.78 716.23 411.9 716.23Z" stroke="#0D2232" stroke-width="4" stroke-miterlimit="10" stroke-linecap="round" stroke-linejoin="round"/>
<path d="M420.06 616.9L417.74 624.08H414.76V655.61H405.82V624.08H402.83L400.52 616.9L404.16 596.36H416.42L420.06 616.9Z" stroke="#0D2232" stroke-width="4" stroke-miterlimit="10" stroke-linecap="round" stroke-linejoin="round"/>
<path d="M435.379 658.93V717.09C435.379 717.09 423.789 734.45 401.269 734.45C378.739 734.45 362.649 734.45 362.649 734.45L355.889 725.77C355.889 725.77 350.419 684.95 349.779 669.2C349.779 669.2 411.569 670.85 435.379 658.93Z" fill="#FEC400"/>
<path d="M430.109 661.15V704.81C430.109 712.24 425.909 719.05 419.229 722.31C408.239 727.68 388.209 732.8 355.899 725.78L362.659 734.46L404.659 734.7C404.659 734.7 426.379 731.89 435.389 717.1V658.94L430.109 661.15Z" fill="#E89F02"/>
<path d="M435.379 658.93V713.29C435.379 716 434.349 718.6 432.509 720.58C427.789 725.65 417.299 734.44 401.269 734.44H367.869C364.579 734.44 361.469 732.92 359.449 730.32L357.679 728.05C356.509 726.55 355.759 724.76 355.519 722.88C354.269 713.3 350.329 682.41 349.789 669.19C349.779 669.2 411.569 670.85 435.379 658.93Z" stroke="#0D2232" stroke-width="4" stroke-miterlimit="10" stroke-linecap="round" stroke-linejoin="round"/>
<path d="M435.379 674.02C435.379 674.02 415.659 690.92 351.299 684.49" stroke="#0D2232" stroke-width="4" stroke-miterlimit="10" stroke-linecap="round" stroke-linejoin="round"/>
<path d="M418.439 795.609L491.869 795.609L491.869 774.109L418.439 774.109L418.439 795.609Z" stroke="#0D2232" stroke-width="6" stroke-miterlimit="10" stroke-linecap="round" stroke-linejoin="round"/>
<path d="M430.899 475.67L390.729 496.78L416.319 549.92L430.899 542.37V475.67Z" stroke="#0D2232" stroke-width="6" stroke-miterlimit="10"/>
<path d="M647.68 512.55C647.68 512.55 675.32 528.62 669.54 549.84C663.76 571.06 622.61 599.34 622.61 599.34C622.61 599.34 620.68 575.55 591.75 570.41L609.75 552.41L647.68 512.55Z" fill="#FBC6A6"/>
<path d="M591.75 570.4L582.75 575.86V631.79H623.25L622.61 599.33C622.61 599.33 620.04 574.9 591.75 570.4Z" fill="#FBC6A6"/>
<path opacity="0.16" d="M643.62 516.81C643.62 516.81 669.1 529.25 663.45 549.97C657.8 570.7 622.15 592.72 622.15 592.72" stroke="black" stroke-width="6" stroke-miterlimit="10"/>
<path opacity="0.16" d="M619.25 631.8L618.61 586.75" stroke="black" stroke-width="6" stroke-miterlimit="10"/>
<path opacity="0.5" d="M597.92 570.97L653.06 514.05" stroke="white" stroke-width="6" stroke-miterlimit="10"/>
<path opacity="0.5" d="M587.92 572.12V633.36" stroke="white" stroke-width="6" stroke-miterlimit="10"/>
<path d="M647.68 512.55C647.68 512.55 675.32 528.62 669.54 549.84C663.76 571.06 622.61 599.34 622.61 599.34C622.61 599.34 620.68 575.55 591.75 570.41L609.75 552.41L647.68 512.55Z" stroke="#0D2232" stroke-width="6" stroke-miterlimit="10" stroke-linecap="round" stroke-linejoin="round"/>
<path d="M591.75 570.4L582.75 575.86V631.79H623.25L622.61 599.33C622.61 599.33 620.04 574.9 591.75 570.4Z" stroke="#0D2232" stroke-width="6" stroke-miterlimit="10" stroke-linecap="round" stroke-linejoin="round"/>
<path d="M593.439 554.11L619.029 565.85L641.969 517.32L648.179 504.19L623.639 492.03L616.879 505.92L593.439 554.11Z" fill="#435F84"/>
<path opacity="0.21" d="M616.88 505.92L616.92 505.96L641.97 517.32L648.18 504.19L623.64 492.03L616.88 505.92Z" fill="white"/>
<path d="M581.17 475.67V542.37L595.75 549.92L616.92 505.96L621.34 496.78L581.17 475.67Z" fill="#F9DC1B"/>
<path opacity="0.5" d="M581.17 475.67V487.62L616.92 505.96L621.34 496.78L581.17 475.67Z" fill="white"/>
<path d="M604.37 532.02L581.17 522.65V542.37L595.75 549.92L604.37 532.02Z" fill="#E89F02"/>
<path d="M623.639 492.03L593.439 554.11L619.029 565.86L648.179 504.19L623.639 492.03Z" stroke="#0D2232" stroke-width="6" stroke-miterlimit="10" stroke-linecap="round" stroke-linejoin="round"/>
<path d="M581.17 475.67L621.34 496.78L595.75 549.92L581.17 542.37V475.67Z" stroke="#0D2232" stroke-width="6" stroke-miterlimit="10"/>
<path d="M283.15 309.53V345.38C283.15 348.16 280.89 350.42 278.12 350.42H258.67C255.89 350.42 253.63 348.16 253.63 345.38V309.53C253.63 306.75 255.89 304.5 258.67 304.5H278.12C280.89 304.49 283.15 306.75 283.15 309.53Z" fill="#AFCADC"/>
<path d="M278.11 350.77H258.66C255.69 350.77 253.27 348.35 253.27 345.38V309.53C253.27 306.56 255.69 304.15 258.66 304.15H278.11C281.08 304.15 283.49 306.57 283.49 309.53V345.38C283.5 348.35 281.08 350.77 278.11 350.77ZM258.66 304.85C256.07 304.85 253.97 306.95 253.97 309.53V345.38C253.97 347.97 256.07 350.07 258.66 350.07H278.11C280.69 350.07 282.79 347.97 282.79 345.38V309.53C282.79 306.95 280.69 304.85 278.11 304.85H258.66Z" fill="#000072"/>
<g opacity="0.2">
<path d="M283.15 337.41V345.37C283.15 348.15 280.89 350.41 278.12 350.41H258.67C255.89 350.41 253.63 348.15 253.63 345.37V337.41C253.63 340.19 255.89 342.45 258.67 342.45H278.12C280.89 342.45 283.15 340.2 283.15 337.41Z" fill="black"/>
</g>
<g opacity="0.55">
<path d="M283.15 309.53V315.15C283.15 312.37 280.89 310.12 278.12 310.12H258.67C255.89 310.12 253.63 312.38 253.63 315.15V309.53C253.63 306.75 255.89 304.5 258.67 304.5H278.12C280.89 304.49 283.15 306.75 283.15 309.53Z" fill="white"/>
</g>
<path d="M304.849 340.75H283.149V315.27H301.559L304.849 340.75Z" fill="#AFCADC"/>
<path d="M305.249 341.1H282.789V314.92H301.869L305.249 341.1ZM283.499 340.4H304.459L301.259 315.62H283.499V340.4Z" fill="#000072"/>
<path d="M406.939 336.98C406.639 340.62 402.359 342.41 399.589 340.03C384.069 326.69 361.139 334.22 356.469 353.25C355.689 356.42 352.889 358.68 349.629 358.68H313.339C309.799 358.68 306.819 356.06 306.369 352.55L304.839 340.75L301.549 315.27L300.439 306.68C299.899 302.48 303.169 298.75 307.409 298.75H366.899C391.049 298.75 408.549 317.34 406.939 336.98Z" fill="#AFCADC"/>
<path d="M349.629 359.03H313.339C309.639 359.03 306.499 356.26 306.019 352.59L300.089 306.72C299.819 304.62 300.469 302.5 301.869 300.9C303.269 299.31 305.289 298.39 307.409 298.39H366.899C379.009 298.39 390.369 303.18 398.069 311.54C404.759 318.8 408.029 327.84 407.279 337.01C407.129 338.84 405.979 340.41 404.289 341.1C402.589 341.8 400.749 341.5 399.349 340.3C392.149 334.11 382.639 332.09 373.909 334.88C365.359 337.62 358.959 344.52 356.799 353.33C355.989 356.69 353.029 359.03 349.629 359.03ZM307.429 299.1C305.509 299.1 303.679 299.93 302.409 301.37C301.139 302.81 300.559 304.73 300.799 306.63L306.729 352.5C307.159 355.82 309.999 358.32 313.349 358.32H349.639C352.719 358.32 355.389 356.2 356.139 353.16C358.359 344.11 364.929 337.02 373.719 334.21C382.679 331.34 392.439 333.41 399.829 339.76C401.019 340.78 402.589 341.04 404.039 340.45C405.509 339.85 406.469 338.54 406.599 336.95C407.329 327.99 404.129 319.13 397.569 312.02C389.999 303.81 378.829 299.1 366.919 299.1H307.429Z" fill="#000072"/>
<g opacity="0.2">
<path d="M406.94 336.98C406.64 340.62 402.36 342.41 399.59 340.03C384.07 326.69 361.14 334.22 356.47 353.25C355.69 356.42 352.89 358.68 349.63 358.68H313.34C309.8 358.68 306.82 356.06 306.37 352.55L306 349.72C306.93 350.17 307.96 350.42 309.05 350.42H345.34C348.6 350.42 351.4 348.16 352.18 344.99C356.85 325.96 379.78 318.43 395.3 331.77C398.07 334.15 402.35 332.36 402.65 328.72C403.02 324.23 402.39 319.79 400.91 315.62C405.31 321.9 407.57 329.36 406.94 336.98Z" fill="black"/>
</g>
<g opacity="0.55">
<path d="M398.479 312.52C391.539 307.02 382.369 303.56 371.959 303.56H312.469C308.229 303.56 304.959 307.29 305.499 311.49L306.609 320.08L309.899 345.56L311.429 357.36C311.479 357.75 311.559 358.12 311.669 358.48C308.909 357.81 306.759 355.49 306.379 352.55L304.849 340.75L301.559 315.27L300.449 306.68C299.909 302.48 303.179 298.75 307.419 298.75H366.909C380.099 298.75 391.289 304.29 398.479 312.52Z" fill="white"/>
</g>
<g opacity="0.55">
<path d="M283.15 315.15H254.8V323H283.15V315.15Z" fill="white"/>
</g>
<path d="M348.99 358.68H315.6V443.91H348.99V358.68Z" fill="#435F84" stroke="#0D2232" stroke-width="4" stroke-miterlimit="10" stroke-linecap="round" stroke-linejoin="round"/>
<g opacity="0.2">
<path d="M315.689 373.63C316.659 373.66 317.529 374.01 318.339 374.45C319.149 374.89 319.899 375.44 320.609 376.04C322.019 377.23 323.319 378.56 324.379 380.08C326.499 383.11 327.689 386.54 329.819 389.21C330.869 390.55 332.179 391.63 333.669 392.43C335.169 393.22 336.819 393.75 338.519 394.1C340.219 394.45 341.969 394.66 343.729 394.82C344.609 394.9 345.499 394.97 346.389 394.99C347.279 395.05 348.189 395.18 349.019 395.76C349.139 395.84 349.169 396.01 349.079 396.13C349.049 396.17 349.009 396.2 348.969 396.22L348.959 396.23C348.009 396.64 347.159 396.56 346.269 396.49C345.389 396.37 344.499 396.3 343.599 396.22C341.809 396.06 340.019 395.85 338.229 395.48C336.439 395.11 334.669 394.54 333.009 393.67C331.359 392.8 329.859 391.56 328.719 390.09C326.399 387.15 325.209 383.7 323.229 380.89C322.239 379.49 321.069 378.21 319.699 377.17C319.019 376.65 318.299 376.18 317.589 375.7C316.879 375.22 316.159 374.75 315.499 374.06C315.399 373.96 315.399 373.8 315.499 373.7C315.559 373.65 315.629 373.63 315.689 373.63Z" fill="#371A45"/>
<path d="M349.029 389.13C347.199 390.12 345.059 390.17 343.059 389.87C341.049 389.58 339.049 389.08 337.219 388.14C336.289 387.71 335.439 387.12 334.609 386.5C333.829 385.83 333.049 385.13 332.439 384.28C331.129 382.65 330.439 380.58 330.059 378.63C329.669 376.67 329.479 374.73 328.939 372.94C328.669 372.04 328.309 371.21 327.819 370.44C327.599 370.04 327.289 369.7 327.019 369.33C326.699 369 326.409 368.65 326.049 368.36C324.689 367.12 322.989 366.26 321.209 365.83C320.319 365.6 319.389 365.53 318.479 365.58C317.559 365.63 316.709 365.78 315.679 365.64L315.659 365.65C315.609 365.64 315.549 365.62 315.489 365.61L315.439 365.6C315.299 365.57 315.219 365.43 315.259 365.29C315.269 365.24 315.299 365.2 315.329 365.17C315.379 365.12 315.439 365.06 315.499 365.02L315.479 365.03C316.319 364.32 317.399 364.1 318.439 364.1C319.479 364.15 320.529 364.21 321.529 364.47C323.539 364.96 325.449 365.92 326.989 367.32C328.559 368.67 329.709 370.57 330.279 372.54C330.859 374.51 331.049 376.49 331.429 378.36C331.799 380.23 332.399 381.99 333.549 383.43C334.079 384.18 334.779 384.8 335.479 385.4C336.219 385.95 336.989 386.48 337.839 386.88C339.509 387.72 341.349 388.24 343.219 388.42C343.689 388.48 344.159 388.46 344.619 388.51C345.089 388.5 345.559 388.53 346.029 388.52C346.969 388.54 347.909 388.43 348.929 388.67L348.959 388.68C349.089 388.71 349.169 388.84 349.139 388.97C349.139 389.04 349.089 389.1 349.029 389.13Z" fill="#371A45"/>
<path d="M349.05 379.39C348.51 379.92 347.84 380.13 347.16 380.24C346.82 380.29 346.47 380.31 346.13 380.31C345.79 380.3 345.45 380.25 345.11 380.22C343.76 380.04 342.43 379.68 341.2 379.11C338.74 377.98 336.64 376.14 335.15 373.9C333.66 371.65 332.8 369.04 332.5 366.4C332.35 365.08 332.34 363.75 332.44 362.43C332.48 361.77 332.59 361.12 332.64 360.45C332.71 359.79 332.85 359.13 333.34 358.58L333.33 358.62C333.42 358.53 333.48 358.44 333.59 358.37C333.73 358.27 333.92 358.3 334.02 358.43C334.03 358.44 334.03 358.45 334.04 358.45L334.05 358.47C334.11 358.57 334.13 358.66 334.18 358.75L334.17 358.79C334.36 359.48 334.23 360.08 334.09 360.69C333.94 361.29 333.89 361.92 333.84 362.53C333.75 363.77 333.76 365.01 333.9 366.24C334.18 368.69 334.97 371.09 336.32 373.12C337.67 375.15 339.59 376.81 341.79 377.83C342.89 378.33 344.06 378.69 345.26 378.77C345.86 378.79 346.45 378.8 347.04 378.79C347.64 378.78 348.23 378.76 348.93 378.94H348.94C349.08 378.98 349.17 379.12 349.13 379.26C349.11 379.31 349.09 379.35 349.05 379.39Z" fill="#371A45"/>
<path d="M340.579 358.79C340.679 359.34 340.569 359.75 340.419 360.13C340.279 360.52 340.089 360.88 339.909 361.25C339.569 361.99 339.369 362.77 339.249 363.55C339.029 365.09 339.349 366.73 340.219 367.95C340.649 368.56 341.229 369.03 341.899 369.33C342.569 369.62 343.329 369.74 344.109 369.71C344.889 369.69 345.669 369.52 346.419 369.26C346.789 369.15 347.169 368.93 347.519 368.72C347.889 368.53 348.259 368.38 348.879 368.64L348.899 368.65C349.059 368.72 349.139 368.89 349.099 369.05C348.949 369.68 348.539 369.9 348.129 370.08C347.919 370.16 347.709 370.23 347.499 370.32C347.299 370.42 347.089 370.51 346.869 370.58C345.999 370.88 345.089 371.07 344.139 371.1C343.199 371.14 342.219 370.99 341.319 370.6C340.419 370.21 339.619 369.55 339.059 368.76C337.929 367.16 337.589 365.19 337.839 363.34C337.959 362.42 338.249 361.54 338.539 360.69C338.679 360.26 338.849 359.84 339.089 359.46C339.319 359.08 339.619 358.73 340.149 358.54C340.309 358.48 340.479 358.56 340.539 358.72C340.569 358.76 340.579 358.78 340.579 358.79Z" fill="#371A45"/>
<path d="M315.649 385.9C316.789 385.75 317.949 386.13 318.919 386.71C319.909 387.27 320.739 388.04 321.489 388.85C322.979 390.48 324.179 392.29 325.319 394.07C326.469 395.84 327.619 397.57 329.069 398.99C330.499 400.41 332.279 401.42 334.169 402.35C336.049 403.28 338.029 404.16 339.829 405.46C341.619 406.77 343.139 408.41 344.339 410.24C345.559 412.05 346.499 414.01 347.339 415.98C347.759 416.97 348.149 417.96 348.569 418.93C348.959 419.92 349.309 420.92 349.219 422.08C349.209 422.22 349.079 422.33 348.939 422.32C348.879 422.32 348.819 422.29 348.779 422.25C347.929 421.44 347.539 420.45 347.169 419.47C346.839 418.47 346.449 417.49 346.039 416.53C345.219 414.61 344.309 412.73 343.169 411.03C342.049 409.31 340.639 407.81 339.009 406.61C337.369 405.43 335.459 404.57 333.549 403.62C331.639 402.69 329.679 401.59 328.089 400.01C326.509 398.45 325.309 396.62 324.149 394.85C322.989 393.08 321.879 391.31 320.439 389.87C319.719 389.16 318.949 388.52 318.139 387.96C317.329 387.38 316.499 386.94 315.559 386.38C315.439 386.31 315.399 386.16 315.469 386.04C315.499 385.96 315.579 385.91 315.649 385.9Z" fill="#371A45"/>
<path d="M340.24 400.04C340.62 399.84 340.88 399.88 341.11 399.96C341.34 400.04 341.54 400.19 341.73 400.33C342.12 400.62 342.54 400.85 342.93 401.12C343.73 401.65 344.51 402.21 345.26 402.8C346.02 403.39 346.75 404.01 347.46 404.66C347.81 404.98 348.16 405.32 348.5 405.65C348.67 405.82 348.83 405.99 349.04 406.13C349.21 406.3 349.36 406.49 349.16 407C349.1 407.16 348.97 407.27 348.83 407.32H348.82C348.29 407.5 348.12 407.35 347.97 407.17C347.85 406.97 347.68 406.81 347.52 406.65C347.19 406.33 346.86 406.01 346.52 405.7C345.84 405.08 345.13 404.48 344.41 403.91C343.68 403.34 342.93 402.8 342.17 402.29C341.78 402.04 341.41 401.77 340.99 401.57C340.78 401.48 340.57 401.38 340.39 401.22C340.21 401.07 340.06 400.88 340.03 400.45V400.44C340 400.28 340.1 400.12 340.24 400.04Z" fill="#371A45"/>
<path d="M315.749 395.27C316.959 395.77 317.829 396.87 318.419 397.98C319.029 399.1 319.389 400.3 319.719 401.46C320.059 402.62 320.389 403.75 320.839 404.81C321.289 405.87 321.839 406.87 322.569 407.68C323.289 408.5 324.219 409.06 325.269 409.42C326.319 409.78 327.459 409.93 328.639 410.04C329.819 410.14 331.029 410.19 332.259 410.34C333.489 410.5 334.759 410.77 335.939 411.35C337.119 411.93 338.149 412.8 338.939 413.82C339.729 414.85 340.299 415.99 340.749 417.15C341.639 419.48 342.109 421.87 342.729 424.15C343.329 426.43 344.209 428.61 345.359 430.65C345.929 431.67 346.559 432.66 347.299 433.58C347.999 434.52 348.719 435.42 349.169 436.63C349.219 436.76 349.149 436.91 349.019 436.96C348.959 436.98 348.879 436.98 348.829 436.95C347.629 436.41 346.809 435.46 346.089 434.47C345.399 433.45 344.729 432.41 344.129 431.34C342.929 429.2 341.999 426.89 341.369 424.52C340.739 422.17 340.269 419.82 339.439 417.66C339.019 416.58 338.509 415.56 337.829 414.68C337.159 413.8 336.299 413.09 335.329 412.61C333.349 411.64 330.949 411.64 328.529 411.44C327.309 411.33 326.059 411.18 324.829 410.75C323.609 410.33 322.419 409.61 321.549 408.62C319.779 406.64 319.109 404.13 318.359 401.89C317.979 400.76 317.589 399.66 317.129 398.63C316.659 397.59 316.139 396.65 315.469 395.64C315.389 395.53 315.419 395.38 315.529 395.3C315.589 395.25 315.679 395.24 315.749 395.27Z" fill="#371A45"/>
<path d="M315.659 415.49C316.589 415.36 317.409 415.39 318.279 415.4L320.879 415.46C322.629 415.47 324.489 415.4 326.319 415.73C327.239 415.89 328.159 416.14 329.039 416.56C329.909 416.97 330.739 417.57 331.389 418.32C332.049 419.07 332.499 419.98 332.789 420.89C333.069 421.81 333.209 422.74 333.279 423.66C333.409 425.5 333.369 427.24 333.489 428.99C333.599 430.74 333.779 432.48 334.119 434.18C334.449 435.88 334.939 437.55 335.629 439.11C335.969 439.89 336.369 440.66 336.859 441.35C337.309 442.08 337.779 442.75 337.959 443.74V443.75C337.989 443.9 337.889 444.03 337.749 444.06C337.699 444.07 337.649 444.06 337.609 444.05C336.639 443.69 336.059 442.93 335.579 442.14C335.139 441.33 334.709 440.51 334.339 439.67C333.599 437.98 333.089 436.22 332.739 434.44C332.379 432.66 332.189 430.86 332.079 429.06C331.949 427.27 331.999 425.46 331.869 423.75C331.739 422.05 331.359 420.39 330.319 419.21C329.309 418.01 327.729 417.36 326.079 417.08C324.409 416.79 322.689 416.79 320.899 416.87C320.009 416.91 319.089 416.93 318.179 416.82C317.269 416.71 316.329 416.49 315.539 415.9C315.429 415.82 315.409 415.66 315.489 415.55C315.529 415.53 315.589 415.5 315.659 415.49Z" fill="#371A45"/>
<path d="M338.959 431.01C339.399 431.18 339.579 431.43 339.709 431.7C339.859 431.96 339.929 432.25 339.999 432.54C340.159 433.11 340.409 433.65 340.619 434.2C341.069 435.29 341.559 436.37 342.099 437.43C342.629 438.49 343.209 439.52 343.819 440.54C344.129 441.05 344.439 441.55 344.769 442.04C344.929 442.29 345.089 442.54 345.299 442.75C345.479 442.99 345.629 443.24 345.389 443.78C345.319 443.94 345.169 444.03 345.009 444.05C344.429 444.09 344.229 443.85 344.069 443.6C343.939 443.32 343.769 443.07 343.599 442.81C343.269 442.3 342.939 441.78 342.629 441.26C341.999 440.22 341.409 439.15 340.859 438.06C340.309 436.97 339.799 435.86 339.339 434.73C339.099 434.17 338.909 433.59 338.649 433.03C338.519 432.75 338.389 432.47 338.339 432.17C338.279 431.87 338.269 431.55 338.519 431.15C338.609 431 338.799 430.94 338.959 431.01Z" fill="#371A45"/>
<path d="M315.549 423.64C316.079 423.16 316.689 422.97 317.319 422.86C317.949 422.74 318.599 422.74 319.239 422.79C320.529 422.87 321.859 423.12 323.049 423.73C324.249 424.33 325.259 425.25 326.039 426.29C326.819 427.34 327.389 428.52 327.769 429.74C328.559 432.19 328.629 434.81 328.169 437.3C327.939 438.55 327.579 439.76 327.109 440.93L326.359 442.67C326.089 443.23 325.719 443.77 324.979 444.03C324.819 444.08 324.659 444 324.599 443.85C324.589 443.83 324.589 443.82 324.589 443.8V443.78C324.469 443 324.759 442.51 325.029 441.98C325.349 441.48 325.589 440.95 325.809 440.4C326.249 439.31 326.579 438.19 326.789 437.04C327.209 434.75 327.139 432.36 326.429 430.17C325.749 427.99 324.389 425.97 322.409 424.98C321.429 424.49 320.319 424.23 319.179 424.23C318.609 424.24 318.039 424.29 317.459 424.3C316.879 424.32 316.289 424.32 315.629 424.09C315.489 424.04 315.409 423.89 315.459 423.74C315.489 423.71 315.519 423.67 315.549 423.64Z" fill="#371A45"/>
<path d="M315.539 431.33C315.799 430.89 316.199 430.72 316.589 430.67C316.989 430.6 317.389 430.66 317.779 430.76C318.549 430.95 319.329 431.27 319.939 431.8C321.179 432.86 321.799 434.47 321.719 436.06C321.669 436.85 321.419 437.67 320.989 438.33C320.569 439 320.029 439.55 319.469 440.02C318.899 440.49 318.309 440.89 317.729 441.27C317.439 441.46 317.139 441.64 316.869 441.87C316.579 442.06 316.269 442.23 315.719 441.98C315.559 441.91 315.469 441.75 315.479 441.59V441.58C315.509 440.97 315.789 440.77 316.079 440.6C316.399 440.46 316.679 440.29 316.969 440.1C317.539 439.73 318.089 439.36 318.579 438.95C319.569 438.13 320.279 437.14 320.329 435.98C320.399 434.83 319.909 433.61 319.039 432.88C318.609 432.53 318.089 432.25 317.509 432.19C317.219 432.16 316.939 432.17 316.649 432.13C316.359 432.1 316.069 432.05 315.659 431.78L315.639 431.77C315.499 431.67 315.449 431.48 315.539 431.33Z" fill="#371A45"/>
</g>
<g opacity="0.55">
<path d="M320.56 443.91H315.6V370.43H318.52C319.65 370.43 320.57 371.35 320.57 372.48V443.91H320.56Z" fill="white"/>
</g>
<g opacity="0.3">
<path d="M348.99 358.68V443.91H341.08V378.43C341.08 374.07 337.54 370.53 333.18 370.53H315.6V358.68H348.99Z" fill="#371A45"/>
</g>
<path d="M356.72 450.94V536.7C356.72 540.58 353.57 543.73 349.69 543.73H315.25C314.09 543.73 312.99 543.45 312.03 542.95C312.03 542.94 312.03 542.94 312.03 542.94C309.77 541.78 308.22 539.42 308.22 536.7V450.94C308.22 447.06 311.37 443.91 315.25 443.91H349.69C353.57 443.91 356.72 447.06 356.72 450.94Z" fill="#F9DC1B"/>
<path d="M349.689 544.08H315.249C314.069 544.08 312.899 543.8 311.869 543.26L311.679 543.15C309.319 541.86 307.869 539.4 307.869 536.7V450.94C307.869 446.87 311.179 443.56 315.249 443.56H349.689C353.759 443.56 357.069 446.87 357.069 450.94V536.7C357.069 540.77 353.759 544.08 349.689 544.08ZM312.379 542.73C313.269 543.15 314.249 543.38 315.249 543.38H349.689C353.369 543.38 356.369 540.38 356.369 536.7V450.94C356.369 447.26 353.369 444.26 349.689 444.26H315.249C311.569 444.26 308.569 447.26 308.569 450.94V536.7C308.569 539.21 309.959 541.49 312.189 542.63L312.379 542.73Z" fill="#000072"/>
<path d="M356.72 450.94V536.7C356.72 540.58 353.57 543.73 349.69 543.73H338.25C342.13 543.73 345.28 540.58 345.28 536.7V450.94C345.28 447.06 342.13 443.91 338.25 443.91H349.69C353.57 443.91 356.72 447.06 356.72 450.94Z" fill="#E89F02"/>
<path d="M349.69 544.08H338.25V543.38C341.93 543.38 344.93 540.38 344.93 536.7V450.94C344.93 447.26 341.93 444.26 338.25 444.26V443.56H349.69C353.76 443.56 357.07 446.87 357.07 450.94V536.7C357.07 540.77 353.76 544.08 349.69 544.08ZM341.4 543.38H349.69C353.37 543.38 356.37 540.38 356.37 536.7V450.94C356.37 447.26 353.37 444.26 349.69 444.26H341.4C343.9 445.44 345.64 447.99 345.64 450.94V536.7C345.64 539.64 343.9 542.19 341.4 543.38Z" fill="#E89F02"/>
<g opacity="0.55">
<path d="M317.34 542.95C318.3 543.45 319.4 543.73 320.56 543.73H315.25C314.09 543.73 312.99 543.45 312.03 542.95C312.03 542.94 312.03 542.94 312.03 542.94C309.77 541.78 308.22 539.42 308.22 536.7V450.94C308.22 447.06 311.37 443.91 315.25 443.91H320.56C316.68 443.91 313.53 447.06 313.53 450.94V536.7C313.53 539.42 315.08 541.78 317.34 542.95C317.34 542.94 317.34 542.94 317.34 542.95Z" fill="white"/>
</g>
<g opacity="0.2">
<path d="M287.829 315.27L292.519 340.75H283.149V315.27H287.829Z" fill="black"/>
</g>
<g opacity="0.2">
<path d="M336.1 316.41C336.1 320.05 331.51 319.07 325.85 319.07C320.19 319.07 315.6 320.05 315.6 316.41C315.6 312.77 320.19 309.82 325.85 309.82C331.51 309.82 336.1 312.77 336.1 316.41Z" fill="white"/>
</g>
<g opacity="0.2">
<path d="M329.38 485.85C329.38 492.64 326.51 498.15 322.98 498.15C319.45 498.15 319.39 492.64 319.39 485.85C319.39 479.06 319.44 473.55 322.98 473.55C326.52 473.55 329.38 479.06 329.38 485.85Z" fill="white"/>
</g>
<path d="M283.15 309.53V345.38C283.15 348.16 280.89 350.42 278.12 350.42H258.67C255.89 350.42 253.63 348.16 253.63 345.38V309.53C253.63 306.75 255.89 304.5 258.67 304.5H278.12C280.89 304.49 283.15 306.75 283.15 309.53Z" stroke="#0D2232" stroke-width="4" stroke-miterlimit="10" stroke-linecap="round" stroke-linejoin="round"/>
<path d="M304.849 340.75H283.149V315.27H301.559L304.849 340.75Z" stroke="#0D2232" stroke-width="4" stroke-miterlimit="10" stroke-linecap="round" stroke-linejoin="round"/>
<path d="M406.939 336.98C406.639 340.62 402.359 342.41 399.589 340.03C384.069 326.69 361.139 334.22 356.469 353.25C355.689 356.42 352.889 358.68 349.629 358.68H313.339C309.799 358.68 306.819 356.06 306.369 352.55L304.839 340.75L301.549 315.27L300.439 306.68C299.899 302.48 303.169 298.75 307.409 298.75H366.899C391.049 298.75 408.549 317.34 406.939 336.98Z" stroke="#0D2232" stroke-width="4" stroke-miterlimit="10" stroke-linecap="round" stroke-linejoin="round"/>
<path d="M348.99 358.68H315.6V443.91H348.99V358.68Z" stroke="#0D2232" stroke-width="4" stroke-miterlimit="10" stroke-linecap="round" stroke-linejoin="round"/>
<path d="M356.72 450.94V536.7C356.72 540.58 353.57 543.73 349.69 543.73H315.25C314.09 543.73 312.99 543.45 312.03 542.95C312.03 542.94 312.03 542.94 312.03 542.94C309.77 541.78 308.22 539.42 308.22 536.7V450.94C308.22 447.06 311.37 443.91 315.25 443.91H349.69C353.57 443.91 356.72 447.06 356.72 450.94Z" stroke="#0D2232" stroke-width="4" stroke-miterlimit="10" stroke-linecap="round" stroke-linejoin="round"/>
<path d="M597.059 688.73C597.049 688.68 597.049 688.63 597.049 688.58L598.859 604.52C598.869 603.88 599.399 603.38 600.039 603.39L614.499 603.7C614.809 603.71 615.099 603.83 615.309 604.06C615.489 604.24 615.599 604.48 615.619 604.73C615.629 604.78 615.629 604.83 615.629 604.88L613.819 688.94C613.809 689.58 613.279 690.08 612.639 690.07L598.179 689.76C597.869 689.75 597.579 689.63 597.369 689.4C597.199 689.22 597.089 688.98 597.059 688.73Z" fill="#C14854"/>
<path d="M602.649 604.605L600.858 688.668L610.117 688.865L611.907 604.802L602.649 604.605Z" fill="#E8656D"/>
<path opacity="0.5" d="M601.543 600.925L599.669 689.747L600.809 689.771L602.683 600.949L601.543 600.925Z" fill="white"/>
<path d="M594.299 606.66C593.509 606.07 592.749 605.41 592.039 604.71C587.819 600.56 585.459 595.01 585.409 589.08C585.359 583.16 587.619 577.57 591.779 573.35C592.859 572.25 594.049 571.27 595.329 570.42C595.709 570.17 596.199 570.16 596.589 570.41C596.619 570.43 596.639 570.44 596.659 570.46C596.999 570.71 597.169 571.13 597.109 571.55L595.369 583.16L608.319 589.62L618.469 579.3L613.399 569.54C613.179 569.12 613.239 568.61 613.549 568.25C613.859 567.89 614.349 567.76 614.799 567.91C616.989 568.66 619.029 569.74 620.889 571.13C621.679 571.72 622.439 572.38 623.149 573.07C627.369 577.22 629.729 582.77 629.779 588.7C629.829 594.62 627.569 600.21 623.409 604.43C615.649 612.34 603.139 613.29 594.299 606.66Z" fill="#E8656D"/>
<path d="M614.419 569.01L615.219 570.55C616.459 571.33 617.629 572.25 618.719 573.32C626.999 581.46 627.109 594.77 618.969 603.05C614.469 607.63 608.379 609.7 602.439 609.27C609.439 611.03 617.159 609.15 622.579 603.63C630.719 595.35 630.609 582.04 622.329 573.9C620.019 571.63 617.309 570 614.419 569.01Z" fill="#C14854"/>
<path opacity="0.5" d="M592.489 600.23C600.439 610.39 611.009 606.92 611.009 606.92C611.009 606.92 603.149 605.1 597.319 598.82C591.229 592.27 588.939 585.31 588.939 585.31C588.939 585.31 586.729 592.87 592.489 600.23Z" fill="white"/>
<path opacity="0.5" d="M594.379 686.41C597.339 682.51 600.319 683.21 600.319 683.21C600.319 683.21 596.419 686.63 594.249 691.34C592.209 695.77 592.509 702.95 592.509 702.95C592.509 702.95 590.509 698.13 590.789 695.69C591.249 691.71 592.379 689.04 594.379 686.41Z" fill="white"/>
<path d="M597.229 680.6L598.759 609.23" stroke="#0D2232" stroke-width="4" stroke-miterlimit="10" stroke-linecap="round" stroke-linejoin="round"/>
<path d="M615.539 609.62L613.999 680.99" stroke="#0D2232" stroke-width="4" stroke-miterlimit="10" stroke-linecap="round" stroke-linejoin="round"/>
<path d="M594.299 606.66C593.509 606.07 592.749 605.41 592.039 604.71C587.819 600.56 585.459 595.01 585.409 589.08C585.359 583.16 587.619 577.57 591.779 573.35C592.859 572.25 594.049 571.27 595.329 570.42C595.709 570.17 596.199 570.16 596.589 570.41C596.619 570.43 596.639 570.44 596.659 570.46C596.999 570.71 597.169 571.13 597.109 571.55L595.369 583.16L608.319 589.62L618.469 579.3L613.399 569.54C613.179 569.12 613.239 568.61 613.549 568.25C613.859 567.89 614.349 567.76 614.799 567.91C616.989 568.66 619.029 569.74 620.889 571.13C621.679 571.72 622.439 572.38 623.149 573.07C627.369 577.22 629.729 582.77 629.779 588.7C629.829 594.62 627.569 600.21 623.409 604.43C615.649 612.34 603.139 613.29 594.299 606.66Z" stroke="#0D2232" stroke-width="4" stroke-miterlimit="10" stroke-linecap="round" stroke-linejoin="round"/>
<path d="M572.779 658.93V717.09C572.779 717.09 584.349 734.45 606.849 734.45C629.349 734.45 645.419 734.45 645.419 734.45L652.169 725.77C652.169 725.77 657.629 684.95 658.279 669.2C658.279 669.2 596.569 670.85 572.779 658.93Z" fill="#FEC400"/>
<path d="M578.049 661.15V704.81C578.049 712.24 582.249 719.05 588.919 722.31C599.889 727.68 619.899 732.8 652.179 725.78L645.429 734.46L603.479 734.7C603.479 734.7 581.779 731.89 572.779 717.1V658.94L578.049 661.15Z" fill="#E89F02"/>
<path d="M572.779 658.93V712.14C572.779 715.76 574.239 719.22 576.799 721.78C581.949 726.92 592.029 734.45 606.849 734.45H638.349C642.809 734.45 647.019 732.39 649.759 728.87C651.339 726.84 652.349 724.42 652.679 721.87C654.049 711.28 657.749 681.99 658.269 669.2C658.279 669.2 596.569 670.85 572.779 658.93Z" stroke="#0D2232" stroke-width="4" stroke-miterlimit="10" stroke-linecap="round" stroke-linejoin="round"/>
<path d="M572.779 674.02C572.779 674.02 592.479 690.92 656.759 684.49" stroke="#0D2232" stroke-width="4" stroke-miterlimit="10" stroke-linecap="round" stroke-linejoin="round"/>
<path d="M358.86 490.82C358.86 490.82 368.09 500.85 362.43 513.64C362.43 513.64 360.12 522.66 345.86 522.66H317.23C313.23 522.66 309.48 521.6 306.24 519.74C299.59 515.93 295.1 508.75 295.1 500.54V464.04C295.1 451.82 305.01 441.92 317.23 441.92H348.16C348.16 441.92 363.89 441.5 365.57 454.5C365.57 454.5 368.29 464.78 359.28 467.71C359.28 467.7 375.21 479.74 358.86 490.82Z" fill="#FBC6A6"/>
<path opacity="0.5" d="M365.57 454.49C365.57 454.49 359.49 450.72 342.92 450.72C326.35 450.72 322.16 450.72 322.16 450.72C322.16 450.72 306.01 449.46 306.22 463.93C306.38 475.13 306.29 506.24 306.24 519.73C299.59 515.92 295.1 508.74 295.1 500.53V464.03C295.1 451.81 305.01 441.91 317.23 441.91H348.16C348.16 441.91 363.89 441.48 365.57 454.49Z" fill="white"/>
<path d="M358.86 490.82C358.86 490.82 368.09 500.85 362.43 513.64C362.43 513.64 360.12 522.66 345.86 522.66H317.23C305.01 522.66 295.1 512.75 295.1 500.53V464.04C295.1 451.82 305.01 441.91 317.23 441.91H348.17C348.17 441.91 363.9 441.49 365.58 454.49C365.58 454.49 368.31 464.77 359.29 467.7C359.28 467.7 375.21 479.74 358.86 490.82Z" stroke="#0D2232" stroke-width="6" stroke-miterlimit="10" stroke-linecap="round" stroke-linejoin="round"/>
<path d="M323.409 467.65H359.279" stroke="#0D2232" stroke-width="6" stroke-miterlimit="10" stroke-linecap="round" stroke-linejoin="round"/>
<path d="M323.409 490.82H359.279" stroke="#0D2232" stroke-width="6" stroke-miterlimit="10" stroke-linecap="round" stroke-linejoin="round"/>
</svg>
