<svg width="494" height="722" viewBox="0 0 494 722" fill="none" xmlns="http://www.w3.org/2000/svg">
<g clip-path="url(#clip0_344_6125)">
<path d="M165.44 656.609L238.87 656.609L238.87 635.109L165.44 635.109L165.44 656.609Z" fill="#435F84" stroke="#0D2232" stroke-width="6" stroke-miterlimit="10" stroke-linecap="round" stroke-linejoin="round"/>
<path d="M376.36 595.45V636.39L395.64 656.63L414.28 636.39L414.25 535.57H399.14L376.36 595.45Z" fill="#AFCADC"/>
<path d="M395.32 632.47C399.313 632.47 402.55 629.233 402.55 625.24C402.55 621.247 399.313 618.01 395.32 618.01C391.327 618.01 388.09 621.247 388.09 625.24C388.09 629.233 391.327 632.47 395.32 632.47Z" stroke="#0D2232" stroke-width="4" stroke-miterlimit="10" stroke-linecap="round" stroke-linejoin="round"/>
<path opacity="0.2" d="M414.28 536.66H407.64V632.47L395.71 644.4L383.28 631.97V542.92L376.36 543.38V636.39L396.12 656.15L415.09 637.19L414.28 536.66Z" fill="black"/>
<path d="M376.36 595.45V636.39L395.64 656.63L414.28 636.39V536.66H399.18L376.36 595.45Z" stroke="#0D2232" stroke-width="4" stroke-miterlimit="10" stroke-linecap="round" stroke-linejoin="round"/>
<path d="M396.23 145.08C396.23 145.08 390.25 150.43 363.83 152.63C337.4 154.83 151.44 160.42 151.44 160.42L139.99 154.83C139.99 154.83 113.68 153.38 109.95 145.08C106.22 136.78 200.02 103.87 200.02 103.87L318.53 100.25L345.59 111.02L396.23 145.08Z" fill="#CFB300"/>
<path d="M396.23 145.08C396.23 145.08 390.25 150.43 363.83 152.63C337.4 154.83 151.44 160.42 151.44 160.42L139.99 154.83C139.99 154.83 113.68 153.38 109.95 145.08C106.22 136.78 200.02 103.87 200.02 103.87L318.53 100.25L345.59 111.02L396.23 145.08Z" stroke="#0D2232" stroke-width="6" stroke-miterlimit="10" stroke-linecap="round" stroke-linejoin="round"/>
<path d="M141.03 193.85C141.03 193.85 110.84 197.47 114.61 232.39C118.39 267.31 161.87 260.02 161.87 260.02L158.13 209.89L141.03 193.85Z" fill="#FBC6A6" stroke="#0D2232" stroke-width="6" stroke-miterlimit="10"/>
<path d="M372.63 193.85C372.63 193.85 395.6 197.63 397.33 223.11C399.06 248.59 370.72 271.1 348.55 262.2C326.38 253.31 342.74 215.24 342.74 215.24L372.63 193.85Z" fill="#FBC6A6" stroke="#0D2232" stroke-width="6" stroke-miterlimit="10"/>
<path opacity="0.4" d="M370.59 208.95C370.59 208.95 382.52 215.27 377.43 229.01C370.31 248.26 355.8 242.92 355.8 242.92L360.2 219.01L370.59 208.95Z" fill="black"/>
<path opacity="0.4" d="M136.65 208.95C136.65 208.95 124.72 215.27 129.81 229.01C136.93 248.26 151.44 242.92 151.44 242.92L147.04 219.01L136.65 208.95Z" fill="black"/>
<path d="M359 197.62V226.29C359 226.29 358.74 231.26 356.92 238.95C352.84 256.19 340.93 287.11 306.56 306.47C301.67 309.22 296.75 311.51 291.82 313.37C277.5 318.78 263.16 320.61 249.49 319.85C220.04 318.21 193.78 304.54 177.89 288.85C152.09 263.37 150.52 224.53 150.52 224.53V170.25L181.04 133.44L337.79 135.33L357.11 157.98L359 197.62Z" fill="#FBC6A6"/>
<path opacity="0.5" d="M197.51 292.89C217.83 307.55 236.88 315.04 251.5 318.86C222.05 317.22 195.79 303.55 179.9 287.86C154.1 262.38 152.53 223.54 152.53 223.54V213.94L160.99 207.32C160.99 207.32 153.47 261.11 197.51 292.89Z" fill="white"/>
<path opacity="0.5" d="M353.92 238.95C349.84 256.19 337.93 287.11 303.56 306.47C298.67 309.22 293.75 311.51 288.82 313.37C306.31 299.74 334.78 274.61 343.51 249.63C346.48 241.18 350.1 238.31 353.92 238.95Z" fill="white"/>
<path d="M396.23 145.08C396.23 145.08 385.22 140.99 370.43 140.99C355.64 140.99 135.59 140.99 135.59 140.99C135.59 140.99 115.61 140.2 109.95 145.08V131.4C109.95 126.1 114.25 121.8 119.55 121.8H386.64C391.94 121.8 396.24 126.1 396.24 131.4V145.08H396.23Z" fill="#F9DC1B"/>
<path d="M381 121.8C381 121.91 381 121.96 381 121.96H252.96V121.8H124.91C124.91 121.8 124.91 121.77 124.91 121.72C124.87 120.67 124.46 110.23 124.91 105.45C125.38 100.41 129.47 100.26 129.47 100.26C129.47 100.26 136.55 37.5 207.96 16.74C207.96 16.74 207.33 4.14999 218.97 2.89999C230.61 1.63999 252.95 0.0700073 252.95 0.0700073V0.229996C252.95 0.229996 275.28 1.8 286.92 3.06C298.56 4.32 297.93 16.9 297.93 16.9C369.34 37.66 376.42 100.42 376.42 100.42C376.42 100.42 380.51 100.58 380.98 105.61C381.44 110.28 381.06 120.41 381 121.8Z" fill="#F9DC1B"/>
<path opacity="0.73" d="M381 121.8H370.12C370.12 121.8 364.61 57.62 298.08 25.53L298.04 18.27C298.04 18.27 245.87 1.93 207.85 19.55L208.33 29.94C208.33 29.94 149.28 46.29 134.81 121.48L124.92 121.71C124.88 120.66 124.47 110.22 124.92 105.44C125.39 100.4 129.48 100.25 129.48 100.25C129.48 100.25 136.56 37.49 207.97 16.73C207.97 16.73 207.34 4.14 218.98 2.89C230.62 1.63 252.96 0.0599976 252.96 0.0599976V0.220001C252.96 0.220001 275.29 1.79 286.93 3.05C298.57 4.31 297.94 16.89 297.94 16.89C369.35 37.65 376.43 100.41 376.43 100.41C376.43 100.41 380.52 100.57 380.99 105.6C381.44 110.28 381.06 120.41 381 121.8Z" fill="white"/>
<path d="M380.99 105.6C380.52 100.57 376.43 100.41 376.43 100.41C376.43 100.41 369.35 37.65 297.94 16.89C297.94 16.89 298.57 4.31 286.93 3.05C275.29 1.79 252.95 0.220001 252.95 0.220001V0.0599976C252.95 0.0599976 230.61 1.63 218.97 2.89C207.33 4.15 207.96 16.73 207.96 16.73C136.55 37.49 129.47 100.25 129.47 100.25C129.47 100.25 125.38 100.41 124.91 105.44C124.44 110.47 124.91 121.8 124.91 121.8H252.95V121.96H380.99C380.99 121.96 381.47 110.64 380.99 105.6Z" stroke="#0D2232" stroke-width="6" stroke-miterlimit="10" stroke-linecap="round" stroke-linejoin="round"/>
<path d="M297.32 329.86H327.64V495.54H177.9V329.86H297.32Z" fill="white"/>
<path d="M301.11 336.67H207.57V437.55H301.11V336.67Z" fill="#F9DC1B"/>
<path d="M327.65 458.73H177.9V495.54H327.65V458.73Z" fill="#F9DC1B"/>
<path d="M279.09 317.8C279.09 317.8 249.71 324.09 229.69 317.8L222.77 348.74L241.02 355.55C241.02 355.55 253.09 360.58 267.77 355.55C282.45 350.52 287.07 335.84 287.07 335.84L279.09 317.8Z" fill="#FBC6A6" stroke="#0D2232" stroke-width="6" stroke-miterlimit="10"/>
<path d="M298.14 351.83C297.35 363.68 295.45 374.64 295.45 374.64L267.76 355.55C267.76 355.55 270.93 348.04 273.54 340.6C275.06 336.25 276.4 331.91 276.78 329.12C277.83 321.57 279.09 317.8 279.09 317.8C279.09 317.8 295.24 316.96 297.75 331.85C298.7 337.41 298.61 344.77 298.14 351.83Z" fill="#435F84"/>
<path d="M298.14 351.83C291.01 351.3 282.71 347.75 278.43 344.71C276.71 343.48 275.03 342.12 273.54 340.6C275.06 336.25 276.4 331.91 276.78 329.12C277.83 321.57 279.09 317.8 279.09 317.8C279.09 317.8 295.24 316.96 297.75 331.85C298.7 337.41 298.61 344.77 298.14 351.83Z" fill="#253B5A"/>
<path d="M279.09 317.8C279.09 317.8 295.24 316.96 297.76 331.85C300.28 346.74 295.45 374.63 295.45 374.63L267.77 355.54C267.77 355.54 275.74 336.66 276.79 329.11C277.84 321.56 279.09 317.8 279.09 317.8Z" stroke="#0D2232" stroke-width="6" stroke-miterlimit="10"/>
<path d="M210.65 351.83C211.44 363.68 213.34 374.64 213.34 374.64L241.03 355.55C241.03 355.55 237.86 348.04 235.25 340.6C233.73 336.25 232.39 331.91 232.01 329.12C230.96 321.57 229.7 317.8 229.7 317.8C229.7 317.8 213.55 316.96 211.04 331.85C210.09 337.41 210.17 344.77 210.65 351.83Z" fill="#435F84"/>
<path d="M210.65 351.83C217.78 351.3 226.08 347.75 230.36 344.71C232.08 343.48 233.76 342.12 235.25 340.6C233.73 336.25 232.39 331.91 232.01 329.12C230.96 321.57 229.7 317.8 229.7 317.8C229.7 317.8 213.55 316.96 211.04 331.85C210.09 337.41 210.17 344.77 210.65 351.83Z" fill="#253B5A"/>
<path d="M229.69 317.8C229.69 317.8 213.54 316.96 211.02 331.85C208.5 346.74 213.33 374.63 213.33 374.63L241.01 355.54C241.01 355.54 233.04 336.66 231.99 329.11C230.94 321.56 229.69 317.8 229.69 317.8Z" stroke="#0D2232" stroke-width="6" stroke-miterlimit="10"/>
<path d="M232.53 389.31H193.52V424.96H232.53V389.31Z" fill="#F9DC1B" stroke="#0D2232" stroke-width="6" stroke-miterlimit="10"/>
<path d="M232.53 403.37H193.52" stroke="#0D2232" stroke-width="6" stroke-miterlimit="10"/>
<path d="M297.94 16.89C297.94 16.89 299.04 27.43 294.79 48.98Z" fill="#F9DC1B"/>
<path d="M297.94 16.89C297.94 16.89 299.04 27.43 294.79 48.98" stroke="#0D2232" stroke-width="6" stroke-miterlimit="10" stroke-linecap="round" stroke-linejoin="round"/>
<path d="M376.43 100.41H344C340.57 100.41 337.79 103.19 337.79 106.62V121.96" stroke="#0D2232" stroke-width="6" stroke-miterlimit="10" stroke-linecap="round" stroke-linejoin="round"/>
<path d="M207.97 16.73C207.97 16.73 206.87 27.27 211.12 48.82Z" fill="#F9DC1B"/>
<path d="M207.97 16.73C207.97 16.73 206.87 27.27 211.12 48.82" stroke="#0D2232" stroke-width="6" stroke-miterlimit="10" stroke-linecap="round" stroke-linejoin="round"/>
<path d="M129.48 100.25H161.91C165.34 100.25 168.12 103.03 168.12 106.46V121.8" stroke="#0D2232" stroke-width="6" stroke-miterlimit="10" stroke-linecap="round" stroke-linejoin="round"/>
<path opacity="0.74" d="M382.85 131.19C376.39 128.73 369.29 128.78 362.39 128.85C311.94 129.39 261.49 129.92 211.04 130.46C188.62 130.7 166.21 130.94 143.79 131.18C133.84 131.29 122.68 131.91 115.98 139.25C114.66 140.7 113.37 142.48 111.43 142.77C108.47 143.22 106.28 139.78 106.22 136.79C106.1 131.18 110.42 126.23 115.52 123.87C120.62 121.52 126.4 121.24 132.01 121.05C215.11 118.22 298.45 126.29 381.37 120.16C386.16 119.81 391.82 119.78 394.69 123.64C396.27 125.77 396.53 128.58 396.74 131.23C396.94 133.9 399.12 143.86 393.75 140.05C392.01 138.82 390.81 136.13 389.01 134.69C387.17 133.22 385.06 131.96 382.85 131.19Z" fill="white"/>
<path d="M396.23 145.08C396.23 145.08 385.22 140.99 370.43 140.99C355.64 140.99 135.59 140.99 135.59 140.99C135.59 140.99 115.61 140.2 109.95 145.08V131.4C109.95 126.1 114.25 121.8 119.55 121.8H386.64C391.94 121.8 396.24 126.1 396.24 131.4V145.08H396.23Z" stroke="#0D2232" stroke-width="6" stroke-miterlimit="10" stroke-linecap="round" stroke-linejoin="round"/>
<path d="M158.95 175.08C158.95 175.08 158.41 204.07 158.95 212.41C159.49 220.75 153.83 228.3 145.18 222.48C136.53 216.66 138.21 182.06 138.21 182.06C138.21 182.06 147.19 182.47 158.95 175.08Z" fill="#253B5A" stroke="#0D2232" stroke-width="6" stroke-miterlimit="10"/>
<path d="M206.4 221.47C215.259 221.47 222.44 214.289 222.44 205.43C222.44 196.571 215.259 189.39 206.4 189.39C197.541 189.39 190.36 196.571 190.36 205.43C190.36 214.289 197.541 221.47 206.4 221.47Z" fill="#0D2232"/>
<path d="M301.22 221.47C310.079 221.47 317.26 214.289 317.26 205.43C317.26 196.571 310.079 189.39 301.22 189.39C292.362 189.39 285.18 196.571 285.18 205.43C285.18 214.289 292.362 221.47 301.22 221.47Z" fill="#0D2232"/>
<path d="M322.08 177.19C320.79 177.19 319.5 176.75 318.45 175.84C317.96 175.43 307.18 166.47 291.38 168.94C288.34 169.42 285.49 167.34 285.02 164.3C284.54 161.26 286.62 158.41 289.66 157.94C310.75 154.64 325.14 166.89 325.74 167.42C328.06 169.44 328.31 172.96 326.29 175.28C325.19 176.54 323.64 177.19 322.08 177.19Z" fill="#0D2232"/>
<path d="M186 177.19C187.29 177.19 188.58 176.75 189.63 175.84C190.12 175.43 200.9 166.47 216.7 168.94C219.74 169.42 222.59 167.34 223.06 164.3C223.54 161.26 221.46 158.41 218.42 157.94C197.33 154.64 182.94 166.89 182.34 167.42C180.02 169.44 179.77 172.96 181.79 175.28C182.89 176.54 184.44 177.19 186 177.19Z" fill="#0D2232"/>
<path d="M303.44 252.87C299.25 260.56 293.09 268.93 284.29 275.09C276.52 280.53 266.69 284.24 254.34 284.24C240.87 284.24 230.44 279.82 222.42 273.57C214.73 267.58 209.26 259.89 205.45 252.79C202.12 246.56 204.11 239.46 208.98 235.51C211.32 233.61 214.32 232.44 217.71 232.44H291.23C294.62 232.44 297.62 233.61 299.96 235.51C304.85 239.48 306.84 246.64 303.44 252.87Z" fill="#162336"/>
<path d="M283.13 249.64C267.35 249.64 219.95 249.64 219.95 249.64C219.95 249.64 207.32 250.12 208.99 235.51C211.33 233.61 214.33 232.44 217.72 232.44H291.24C294.63 232.44 297.63 233.61 299.97 235.51C300.14 235.66 298.91 249.64 283.13 249.64Z" fill="white"/>
<path d="M284.3 275.09C276.53 280.53 266.7 284.24 254.35 284.24C240.88 284.24 230.45 279.82 222.43 273.57C227.16 263.16 244.67 259.68 262.32 260.65C275.91 261.39 281.81 269.42 284.3 275.09Z" fill="#DD1010"/>
<path d="M217.71 232.44H291.23C301.72 232.44 308.46 243.66 303.44 252.87C295.54 267.36 280.68 284.24 254.34 284.24C227.95 284.24 213.23 267.3 205.45 252.79C200.52 243.58 207.26 232.44 217.71 232.44Z" stroke="#0D2232" stroke-width="6" stroke-miterlimit="10"/>
<path d="M327.65 495.54H177.9V529.41H327.65V495.54Z" fill="#253B5A" stroke="#0D2232" stroke-width="6" stroke-miterlimit="10"/>
<path d="M278.46 495.54H231.06V529.41H278.46V495.54Z" fill="#C3CDD4" stroke="#0D2232" stroke-width="6" stroke-miterlimit="10"/>
<path d="M396.46 706H399.82C401.44 706 402.76 707.31 402.76 708.94V717.59C402.76 719.99 400.81 721.94 398.41 721.94H322.02L306.4 711.45V721.94H267.65C265.25 721.94 263.3 719.99 263.3 717.59V701.13C263.3 698.84 265.16 696.98 267.45 696.99H268.89L370.52 696.1L396.46 706Z" fill="#484D60" stroke="#0D2232" stroke-width="6" stroke-miterlimit="10" stroke-linecap="round" stroke-linejoin="round"/>
<path d="M398.04 702.23L396.47 706H326.47L308.38 696.98H268.88C268.88 696.98 267.07 688.28 268.59 677.5C269.53 670.81 271.76 663.32 276.5 656.61H336.69L341.41 661.65C341.41 661.65 349.9 661.96 350.53 669.83C350.53 669.83 352.02 669.08 354.59 668.26C359.66 666.64 368.92 664.71 379.16 667.63C394.57 672.03 401.81 691.85 398.04 702.23Z" fill="#E89F02"/>
<path d="M292.02 696.99H268.88C268.88 696.99 267.07 688.29 268.59 677.51C268.68 677.5 268.78 677.5 268.88 677.49C291.98 676.33 292.02 696.99 292.02 696.99Z" fill="#834526"/>
<path opacity="0.75" d="M398.04 702.23L396.47 706H386.4C386.4 706 395.36 673.71 354.6 668.25C359.67 666.63 368.93 664.7 379.17 667.62C394.57 672.03 401.81 691.85 398.04 702.23Z" fill="white"/>
<path d="M336.69 656.61L341.41 661.64C341.41 661.64 349.9 661.95 350.53 669.82C350.53 669.82 363.74 663.21 379.16 667.62C394.58 672.02 401.81 691.84 398.04 702.23L396.47 706.01H326.47L308.38 696.99H268.88C268.88 696.99 264.13 674.13 276.5 656.62H336.69V656.61Z" stroke="#0D2232" stroke-width="6" stroke-miterlimit="10" stroke-linecap="round" stroke-linejoin="round"/>
<path d="M350.53 669.83C350.53 669.83 330.29 676.44 326.46 706.01" stroke="#0D2232" stroke-width="6" stroke-miterlimit="10" stroke-linecap="round" stroke-linejoin="round"/>
<path d="M341.41 661.65C341.41 661.65 327.25 664.48 322.01 677.48" stroke="#0D2232" stroke-width="6" stroke-miterlimit="10" stroke-linecap="round" stroke-linejoin="round"/>
<path d="M341.41 635.12H267.98V656.62H341.41V635.12Z" fill="#435F84" stroke="#0D2232" stroke-width="6" stroke-miterlimit="10" stroke-linecap="round" stroke-linejoin="round"/>
<path d="M334.8 635.12L326.31 529.41H253.43V549.97L263.28 549.34L273.77 635.12H334.8Z" fill="#435F84" stroke="#0D2232" stroke-width="6" stroke-miterlimit="10" stroke-linecap="round" stroke-linejoin="round"/>
<path d="M110.39 706H107.03C105.41 706 104.09 707.31 104.09 708.94V717.59C104.09 719.99 106.04 721.94 108.44 721.94H184.83L200.45 711.45V721.94H239.2C241.6 721.94 243.55 719.99 243.55 717.59V701.13C243.55 698.84 241.69 696.98 239.4 696.99H237.96L136.33 696.1L110.39 706Z" fill="#484D60" stroke="#0D2232" stroke-width="6" stroke-miterlimit="10" stroke-linecap="round" stroke-linejoin="round"/>
<path d="M108.82 702.23L110.39 706H180.39L198.48 696.98H237.98C237.98 696.98 239.79 688.28 238.27 677.5C237.33 670.81 235.1 663.32 230.36 656.61H170.17L165.45 661.65C165.45 661.65 156.96 661.96 156.33 669.83C156.33 669.83 154.84 669.08 152.27 668.26C147.2 666.64 137.94 664.71 127.7 667.63C112.28 672.03 105.04 691.85 108.82 702.23Z" fill="#E89F02"/>
<path d="M214.84 696.99H237.98C237.98 696.99 239.79 688.29 238.27 677.51C238.18 677.5 238.08 677.5 237.98 677.49C214.87 676.33 214.84 696.99 214.84 696.99Z" fill="#834526"/>
<path opacity="0.75" d="M108.82 702.23L110.39 706H120.46C120.46 706 111.5 673.71 152.26 668.25C147.19 666.63 137.93 664.7 127.69 667.62C112.28 672.03 105.04 691.85 108.82 702.23Z" fill="white"/>
<path d="M170.16 656.61L165.44 661.64C165.44 661.64 156.95 661.95 156.32 669.82C156.32 669.82 143.11 663.21 127.69 667.62C112.27 672.02 105.04 691.84 108.81 702.23L110.38 706.01H180.38L198.47 696.99H237.97C237.97 696.99 242.72 674.13 230.35 656.62H170.16V656.61Z" stroke="#0D2232" stroke-width="6" stroke-miterlimit="10" stroke-linecap="round" stroke-linejoin="round"/>
<path d="M156.32 669.83C156.32 669.83 176.56 676.44 180.39 706.01" stroke="#0D2232" stroke-width="6" stroke-miterlimit="10" stroke-linecap="round" stroke-linejoin="round"/>
<path d="M165.45 661.65C165.45 661.65 179.61 664.48 184.85 677.48" stroke="#0D2232" stroke-width="6" stroke-miterlimit="10" stroke-linecap="round" stroke-linejoin="round"/>
<path d="M172.05 635.12L180.55 529.41H253.43V549.97L243.57 549.34L233.08 635.12H172.05Z" fill="#435F84" stroke="#0D2232" stroke-width="6" stroke-miterlimit="10" stroke-linecap="round" stroke-linejoin="round"/>
<path d="M135.82 417.93C135.82 417.93 122.53 427.9 98.1199 419.72C73.7099 411.54 66.6299 383.65 66.6299 383.65V376.63L67.8199 376.45L109.3 370.17H113.22L126.52 363.11L133.21 393.94L133.94 400.71L135.82 417.93Z" fill="#FBC6A6"/>
<path opacity="0.16" d="M135.82 417.93C135.82 417.93 122.53 427.9 98.1199 419.72C73.7099 411.54 66.6299 383.65 66.6299 383.65V376.63L67.8199 376.45C75.1699 384.96 83.7099 392.45 93.0999 398.63C95.8499 400.43 98.6799 402.14 101.73 403.37C109.93 406.68 119.15 406.21 127.43 403.45C129.56 402.74 131.65 401.87 133.66 400.87C133.75 400.83 133.84 400.78 133.94 400.71L135.82 417.93Z" fill="black"/>
<path d="M113.24 370.16H109.32L66.6401 376.63V383.66C66.6401 383.66 73.7201 411.55 98.1301 419.73C122.54 427.91 135.83 417.94 135.83 417.94L133.23 393.94L126.54 363.11L113.24 370.16Z" stroke="#0D2232" stroke-width="6" stroke-miterlimit="10" stroke-linecap="round" stroke-linejoin="round"/>
<path d="M165.63 415.11L140.04 426.85L117.1 378.32L110.89 365.19L135.43 353.03L142.19 366.92L165.63 415.11Z" fill="#435F84"/>
<path opacity="0.21" d="M142.19 366.92L142.15 366.96L117.1 378.32L110.89 365.19L135.43 353.03L142.19 366.92Z" fill="white"/>
<path d="M177.9 336.67V403.37L163.32 410.92L142.15 366.96L137.74 357.78L177.9 336.67Z" fill="#F9DC1B"/>
<path opacity="0.5" d="M177.9 336.67V348.62L142.15 366.96L137.74 357.78L177.9 336.67Z" fill="white"/>
<g opacity="0.16">
<path d="M157.82 140.99H359L363.82 152.63H151.43L157.82 140.99Z" fill="black"/>
<path d="M138.21 182.06C138.21 182.06 173.83 190.84 209.48 152.64L177.9 147.85L138.21 182.06Z" fill="black"/>
<path d="M225.4 179.37C225.4 179.37 278.55 188.19 312.62 146.81L283.12 147.84L225.4 179.37Z" fill="black"/>
</g>
<path opacity="0.16" d="M355.8 205.43C355.8 205.43 338.5 302.81 235.24 315.33C235.24 315.33 343.37 330.69 356.74 226.24L355.8 205.43Z" fill="black"/>
<path d="M177.9 373L150.53 384.35L163.32 410.92L177.9 403.37V373Z" fill="#E89F02"/>
<path d="M321.62 477.14H183.81V489.43H321.62V477.14Z" fill="#E89F02"/>
<path d="M297.74 329.86H328.17V495.54H177.9V329.86H207.68" stroke="#0D2232" stroke-width="6" stroke-miterlimit="10"/>
<path d="M135.43 353.03L165.63 415.11L140.04 426.86L110.89 365.19L135.43 353.03Z" stroke="#0D2232" stroke-width="6" stroke-miterlimit="10" stroke-linecap="round" stroke-linejoin="round"/>
<path d="M190.8 140.99C190.8 140.99 163.74 187.24 131.65 181.57C128.74 181.05 126.12 180.47 123.79 179.85C100.44 173.57 104.6 162.44 104.6 162.44C104.6 162.44 124.12 167.8 137.63 142.81C137.95 142.22 138.26 141.62 138.57 141H190.8V140.99Z" fill="#253B5A"/>
<path opacity="0.21" d="M129.48 164.9C120.49 170.4 116.87 170.25 116.87 170.25C116.87 170.25 115.77 174.82 123.79 179.85C100.44 173.57 104.6 162.44 104.6 162.44C104.6 162.44 126.48 165.98 139.99 140.99C140.01 141.33 138.37 159.46 129.48 164.9Z" fill="white"/>
<path d="M403.15 166.79C403.15 166.79 389.79 187.52 366.48 182.81C353.13 180.11 336.51 169.06 317.26 141L374.82 141.12C374.82 141.12 375 144.01 376.22 147.85C378.68 155.52 385.32 167 403.15 166.79Z" fill="#253B5A"/>
<path opacity="0.21" d="M403.15 166.79C403.15 166.79 389.79 187.52 366.48 182.81C369.14 182.05 371.72 180.96 374.19 179.73C379.17 177.24 383.83 174.15 388.78 171.6C383.28 171.34 378.38 167.28 376.22 162.21C374.7 158.63 373.64 152.66 375.38 148.97C375.61 148.48 375.91 148.11 376.24 147.86C378.68 155.52 385.32 167 403.15 166.79Z" fill="white"/>
<path d="M374.83 141.11C374.83 141.11 376.41 167.1 403.15 166.79C403.15 166.79 370.12 218.07 317.27 140.99L374.83 141.11Z" stroke="#0D2232" stroke-width="6" stroke-miterlimit="10" stroke-linecap="round" stroke-linejoin="round"/>
<path d="M290.52 140.99C290.52 140.99 278.25 174.34 225.4 179.37C225.4 179.37 234.52 163.01 234.52 140.99H290.52Z" fill="#253B5A" stroke="#0D2232" stroke-width="6" stroke-miterlimit="10" stroke-linecap="round" stroke-linejoin="round"/>
<path d="M190.8 140.99C190.8 140.99 163.74 187.24 131.66 181.57C99.5802 175.9 104.6 162.43 104.6 162.43C104.6 162.43 125.05 168.04 138.58 140.98H190.8V140.99Z" stroke="#0D2232" stroke-width="6" stroke-miterlimit="10" stroke-linecap="round" stroke-linejoin="round"/>
<path d="M359 226.29C359 226.29 356.27 278.47 306.56 306.47C256.85 334.47 203.69 314.33 177.89 288.85C152.09 263.37 150.52 224.53 150.52 224.53" stroke="#0D2232" stroke-width="6" stroke-miterlimit="10"/>
<path d="M372.63 183.5C372.63 183.5 372.16 210.21 371.06 215.4C369.96 220.59 365.4 227.04 356.75 226.25C348.1 225.46 348.41 214.3 348.26 206.43C348.1 198.57 348.26 174.54 348.26 174.54C348.26 174.54 360.04 183.85 372.63 183.5Z" fill="#253B5A" stroke="#0D2232" stroke-width="6" stroke-miterlimit="10" stroke-linecap="round" stroke-linejoin="round"/>
<path d="M271.27 529.41L294.11 656.61H276.5H267.98V635.12H273.77L263.28 546L253.43 549.97V529.41H271.27Z" fill="#253B5A"/>
<path d="M217.27 635.12L213.03 656.61H238.87V635.12H233.08L243.57 546L253.43 549.97V529.41H231.06L217.27 635.12Z" fill="#253B5A"/>
<path d="M263.28 549.34L275.66 547.87" stroke="#0D2232" stroke-width="6" stroke-miterlimit="10" stroke-linecap="round" stroke-linejoin="round"/>
<path d="M243.57 549.34L231.2 547.87" stroke="#0D2232" stroke-width="6" stroke-miterlimit="10" stroke-linecap="round" stroke-linejoin="round"/>
<path d="M326.31 529.41H312.84L322.01 635.12H328.17V656.61H341.41V635.12H334.8L326.31 529.41Z" fill="#C3CDD4"/>
<path d="M181.2 529.41H194.67L185.5 635.12H179.34V656.61H166.1V635.12H172.71L181.2 529.41Z" fill="#C3CDD4"/>
<path d="M341.41 635.12H267.98V656.62H341.41V635.12Z" stroke="#0D2232" stroke-width="6" stroke-miterlimit="10" stroke-linecap="round" stroke-linejoin="round"/>
<path d="M334.8 635.12L326.31 529.41H253.43V549.97L263.28 549.34L273.77 635.12H334.8Z" stroke="#0D2232" stroke-width="6" stroke-miterlimit="10" stroke-linecap="round" stroke-linejoin="round"/>
<path d="M172.05 635.12L180.55 529.41H253.43V549.97L243.57 549.34L233.08 635.12H172.05Z" stroke="#0D2232" stroke-width="6" stroke-miterlimit="10" stroke-linecap="round" stroke-linejoin="round"/>
<path d="M404.29 542.09H387.09V607.23H404.29V542.09Z" fill="#E89F02"/>
<path d="M493.73 521.34V531.68C493.73 534.43 491.49 536.66 488.74 536.66H410.27C407.52 536.66 405.29 534.43 405.29 531.68V521.34C405.29 520.74 405.4 520.16 405.59 519.63C406.28 517.72 408.12 516.35 410.27 516.35H488.74C490.89 516.35 492.73 517.72 493.43 519.63C493.62 520.16 493.73 520.74 493.73 521.34Z" fill="#AFCADC"/>
<path opacity="0.2" d="M405.28 530.58V531.68C405.28 534.43 407.51 536.67 410.26 536.67H488.73C491.48 536.67 493.71 534.44 493.71 531.68V530.58H405.28Z" fill="black"/>
<path opacity="0.7" d="M493.43 519.63H405.59C406.28 517.72 408.12 516.35 410.27 516.35H488.74C490.89 516.35 492.73 517.71 493.43 519.63Z" fill="white"/>
<path d="M493.73 521.34V531.68C493.73 534.43 491.49 536.66 488.74 536.66H410.27C407.52 536.66 405.29 534.43 405.29 531.68V521.34C405.29 520.74 405.4 520.16 405.59 519.63C406.28 517.72 408.12 516.35 410.27 516.35H488.74C490.89 516.35 492.73 517.72 493.43 519.63C493.62 520.16 493.73 520.74 493.73 521.34Z" stroke="#0D2232" stroke-width="4" stroke-miterlimit="10" stroke-linecap="round" stroke-linejoin="round"/>
<path d="M319.78 535.02C319.78 535.02 340.99 551.73 405.28 545.31" stroke="white" stroke-miterlimit="10"/>
<path d="M301.78 495.16V583.88L313.36 595.45H392.43L381.82 587.09L382.46 495.16H301.78Z" fill="#F9DC1B"/>
<path d="M311.43 495.16V578.32L318.18 587.09H399.18L392.43 595.45H313.36L301.78 583.88V495.16H311.43Z" fill="#E89F02"/>
<path d="M314 507.52H308.86V512.66H314V507.52Z" fill="white"/>
<path d="M314 523.93H308.86V529.07H314V523.93Z" fill="white"/>
<path d="M314 540.35H308.86V545.49H314V540.35Z" fill="white"/>
<path d="M314 556.76H308.86V561.9H314V556.76Z" fill="white"/>
<path d="M314 573.17H308.86V578.31H314V573.17Z" fill="white"/>
<path d="M382.46 530.2V495.16H301.78V583.88L313.36 595.45H385.36" stroke="#0D2232" stroke-width="4" stroke-miterlimit="10" stroke-linecap="round" stroke-linejoin="round"/>
<path d="M182.21 519.93V579.37C182.21 579.37 157.78 598.01 120.5 595.44C120.5 595.44 105.07 571.01 100.57 530.19C100.57 530.2 164.86 533.78 182.21 519.93Z" stroke="white" stroke-miterlimit="10"/>
<path d="M103.12 546.78C103.12 546.78 156.5 547.24 182.21 535.02" stroke="white" stroke-miterlimit="10"/>
<path d="M115.96 586.81C115.96 586.81 148.14 587.73 166.79 577.45L162.67 527.27L182.22 519.93V579.37C182.22 579.37 160.36 596.73 120.51 595.44L115.96 586.81Z" stroke="white" stroke-miterlimit="10"/>
<path d="M182.38 535.02C182.38 535.02 161.14 551.73 96.7803 545.31" stroke="white" stroke-miterlimit="10"/>
<path d="M200.4 495.16V583.88L188.82 595.45H109.65L120.27 587.09L119.63 495.16H200.4Z" fill="#F9DC1B"/>
<path d="M190.75 495.16V578.32L183.99 587.09H102.89L109.65 595.45H188.82L200.4 583.88V495.16H190.75Z" fill="#E89F02"/>
<path d="M188.178 512.667H193.328V507.527H188.178V512.667Z" fill="white"/>
<path d="M188.178 529.082H193.328V523.942H188.178V529.082Z" fill="white"/>
<path d="M188.178 545.488H193.328V540.348H188.178V545.488Z" fill="white"/>
<path d="M188.178 561.903H193.328V556.763H188.178V561.903Z" fill="white"/>
<path d="M188.178 578.319H193.328V573.179H188.178V578.319Z" fill="white"/>
<path d="M119.63 530.2V495.16H200.4V583.88L188.82 595.45L110.72 594.61" stroke="#0D2232" stroke-width="4" stroke-miterlimit="10" stroke-linecap="round" stroke-linejoin="round"/>
<path d="M125.56 465.1L130.23 482.71L127.5 485.62C124.23 480.72 118.19 477.99 112.13 479.22C111.84 479.28 111.55 479.35 111.26 479.42C112.51 478.38 113.42 477.2 114 475.98C116.54 470.67 113.2 464.31 106.93 463.17L103.15 448.93C112.64 450.24 119.5 455.3 124.55 462.93C125.02 463.6 125.35 464.33 125.56 465.1Z" fill="#AFCADC"/>
<path d="M127.48 485.93L127.35 485.73C124.05 480.78 117.96 478.24 112.18 479.41C111.91 479.46 111.63 479.53 111.33 479.61L110.49 479.83L111.16 479.27C112.35 478.28 113.26 477.15 113.85 475.89C115.01 473.47 114.96 470.7 113.73 468.29C112.4 465.7 109.92 463.9 106.92 463.35L106.8 463.33L102.92 448.69L103.21 448.73C112.24 449.98 119.29 454.58 124.75 462.81C125.21 463.5 125.55 464.25 125.76 465.04L130.46 482.75L127.48 485.93ZM111.97 479.05C112.01 479.04 112.05 479.03 112.1 479.02C117.95 477.83 124.11 480.35 127.53 485.3L130.02 482.64L125.37 465.14C125.17 464.39 124.85 463.68 124.41 463.02C119.07 454.98 112.21 450.43 103.43 449.15L107.1 463C110.16 463.59 112.7 465.45 114.06 468.12C115.35 470.64 115.39 473.53 114.18 476.06C113.67 477.15 112.92 478.16 111.97 479.05Z" fill="#000072"/>
<g opacity="0.55">
<path d="M113.98 478.97C113.37 479.01 112.75 479.1 112.13 479.22C111.84 479.28 111.55 479.35 111.26 479.42C112.51 478.38 113.42 477.2 114 475.98C116.54 470.67 113.2 464.31 106.93 463.17L103.15 448.93C104.17 449.07 105.15 449.25 106.1 449.48L109.62 462.73C115.89 463.87 119.23 470.22 116.69 475.54C116.12 476.76 115.22 477.93 113.98 478.97Z" fill="white"/>
</g>
<g opacity="0.55">
<path d="M114.05 478.96L113.96 478.98C113.97 478.97 113.97 478.97 113.98 478.96C114 478.96 114.02 478.96 114.05 478.96Z" fill="white"/>
<path d="M114.1 479.15L113.19 479.39L113.93 478.78C113.97 478.77 114 478.77 114.02 478.77L115.65 478.73L114.1 479.15Z" fill="#371A45"/>
</g>
<path d="M133.25 494.08L135.53 502.69C135.67 503.22 135.38 503.78 134.88 503.97C134.84 503.98 134.81 503.99 134.77 504L119.19 508.14C117.61 508.56 116.01 508.71 114.44 508.62C109.42 508.32 104.73 505.55 102.19 501.22C101.54 500.12 101.03 498.93 100.69 497.64C100.26 496.03 100.12 494.42 100.22 492.85C100.62 486.64 104.91 481.11 111.26 479.43H111.27C111.56 479.35 111.84 479.29 112.14 479.23C118.2 478 124.24 480.73 127.51 485.63C128.47 487.07 129.18 488.69 129.6 490.45C129.87 491.59 129.99 492.73 129.99 493.85L131.95 493.33C132.31 493.23 132.68 493.34 132.94 493.57C133.08 493.69 133.19 493.87 133.25 494.08Z" fill="#AFCADC"/>
<path d="M134.82 504.19L119.24 508.33C117.67 508.75 116.05 508.91 114.43 508.81C109.31 508.51 104.56 505.64 102.02 501.32C101.35 500.19 100.84 498.97 100.5 497.7C100.08 496.1 99.9201 494.47 100.02 492.84C100.44 486.37 104.93 480.91 111.2 479.24C111.53 479.15 111.81 479.09 112.09 479.03C118.01 477.83 124.27 480.43 127.65 485.51C128.64 487 129.35 488.64 129.76 490.39C130.01 491.44 130.14 492.52 130.15 493.59L131.87 493.13C132.28 493.02 132.72 493.12 133.03 493.41C133.22 493.57 133.35 493.79 133.41 494.03L135.69 502.64C135.86 503.27 135.52 503.92 134.92 504.15C134.9 504.16 134.86 504.17 134.82 504.19ZM111.32 479.6C105.2 481.23 100.82 486.55 100.41 492.85C100.3 494.44 100.46 496.03 100.87 497.58C101.2 498.82 101.7 500.01 102.35 501.11C104.82 505.32 109.46 508.12 114.45 508.41C116.03 508.5 117.61 508.35 119.14 507.94L134.72 503.8C134.75 503.79 134.78 503.78 134.81 503.77C135.23 503.61 135.46 503.16 135.35 502.72L133.07 494.11C133.03 493.94 132.93 493.79 132.8 493.68C132.58 493.48 132.28 493.41 131.99 493.48L129.79 494.06V493.81C129.79 492.69 129.66 491.56 129.4 490.45C129 488.74 128.31 487.14 127.34 485.69C124.04 480.74 117.95 478.2 112.17 479.37C111.9 479.46 111.62 479.52 111.32 479.6Z" fill="#000072"/>
<g opacity="0.3">
<path d="M125.56 465.1L130.23 482.71L127.5 485.62C127.32 485.35 127.13 485.08 126.93 484.82C123.56 480.42 117.86 478.05 112.13 479.22C111.84 479.28 111.55 479.35 111.26 479.42C112.51 478.38 113.42 477.2 114 475.98C114.08 475.95 114.17 475.93 114.25 475.91H114.27C114.55 475.84 114.84 475.77 115.14 475.71C117.78 475.17 120.41 475.39 122.81 476.21C124.27 476.71 125.69 475.41 125.3 473.92L123.24 466.17C123.04 465.4 122.7 464.67 122.26 464C117.7 457.12 111.67 452.33 103.58 450.5L103.17 448.95C112.66 450.26 119.52 455.32 124.57 462.95C125.02 463.6 125.35 464.33 125.56 465.1Z" fill="black"/>
<path d="M127.48 485.93L127.35 485.73C127.17 485.45 126.98 485.19 126.79 484.95C123.37 480.48 117.64 478.31 112.18 479.42C111.91 479.47 111.63 479.54 111.33 479.62L110.49 479.84L111.16 479.28C112.35 478.29 113.26 477.16 113.85 475.9L113.89 475.82L113.97 475.79C114.37 475.66 114.78 475.58 115.12 475.51C117.7 474.99 120.38 475.16 122.89 476.01C123.51 476.22 124.17 476.08 124.65 475.64C125.12 475.2 125.3 474.58 125.13 473.96L123.07 466.21C122.87 465.47 122.55 464.76 122.11 464.09C117.27 456.79 111.2 452.4 103.54 450.67L103.43 450.64L102.91 448.7L103.2 448.74C112.23 449.99 119.28 454.59 124.74 462.82C125.2 463.51 125.54 464.26 125.75 465.05L130.45 482.76L127.48 485.93ZM111.97 479.05C112.01 479.04 112.05 479.03 112.1 479.02C117.7 477.88 123.58 480.11 127.09 484.7C127.24 484.89 127.39 485.09 127.53 485.31L130.02 482.65L125.37 465.15C125.17 464.4 124.85 463.69 124.41 463.03C119.07 454.99 112.21 450.44 103.43 449.16L103.74 450.32C111.44 452.09 117.55 456.53 122.43 463.88C122.89 464.58 123.23 465.33 123.44 466.11L125.5 473.86C125.7 474.62 125.48 475.39 124.91 475.92C124.33 476.46 123.53 476.63 122.76 476.38C120.32 475.55 117.7 475.38 115.19 475.89C114.92 475.94 114.61 476.01 114.33 476.09C114.27 476.11 114.21 476.12 114.16 476.14C113.63 477.2 112.9 478.18 111.97 479.05Z" fill="#371A45"/>
</g>
<g opacity="0.55">
<path d="M122.15 480.74C119.73 479.9 117.06 479.67 114.39 480.21C114.1 480.27 113.81 480.34 113.52 480.41H113.51C107.17 482.09 102.88 487.63 102.47 493.83C102.37 495.4 102.51 497.02 102.94 498.62C103.28 499.9 103.79 501.1 104.44 502.2C105.84 504.58 107.88 506.49 110.28 507.77C106.93 506.6 104.01 504.3 102.19 501.2C101.54 500.1 101.03 498.91 100.69 497.62C100.26 496.01 100.12 494.4 100.22 492.83C100.62 486.62 104.91 481.09 111.26 479.41H111.27C111.56 479.33 111.84 479.27 112.14 479.21C115.66 478.5 119.18 479.13 122.15 480.74Z" fill="white"/>
</g>
<path d="M115.08 501.7C119.432 501.7 122.96 498.172 122.96 493.82C122.96 489.468 119.432 485.94 115.08 485.94C110.728 485.94 107.2 489.468 107.2 493.82C107.2 498.172 110.728 501.7 115.08 501.7Z" fill="#CECEDD"/>
<g opacity="0.55">
<path d="M125.17 493.23C126.29 497.44 123.78 501.75 119.58 502.87C116.98 503.56 114.34 502.87 112.43 501.24C113.88 501.76 115.5 501.86 117.11 501.44C121.32 500.32 123.82 496.01 122.7 491.8C122.27 490.2 121.38 488.84 120.21 487.84C122.56 488.68 124.48 490.63 125.17 493.23Z" fill="white"/>
</g>
<g opacity="0.3">
<path d="M119.88 487.57C118.59 487.21 117.19 487.19 115.8 487.56C111.59 488.68 109.09 492.99 110.21 497.2C110.67 498.95 111.69 500.4 113.03 501.42C110.4 500.71 108.22 498.66 107.47 495.84C106.35 491.63 108.86 487.32 113.06 486.2C115.52 485.55 118.02 486.13 119.88 487.57Z" fill="black"/>
<path d="M113.92 501.86L112.98 501.61C110.2 500.86 108.02 498.67 107.28 495.89C106.14 491.59 108.71 487.16 113.01 486.02C115.45 485.37 118 485.88 120 487.42L120.78 488.02L119.83 487.76C118.54 487.4 117.17 487.4 115.85 487.75C111.75 488.84 109.3 493.06 110.39 497.15C110.83 498.8 111.78 500.23 113.14 501.27L113.92 501.86ZM113.11 486.39C109.01 487.48 106.56 491.7 107.65 495.79C108.27 498.12 109.96 500.02 112.16 500.93C111.13 499.92 110.4 498.67 110.02 497.25C108.88 492.95 111.45 488.52 115.75 487.38C116.8 487.1 117.9 487.04 118.96 487.19C117.21 486.15 115.12 485.85 113.11 486.39Z" fill="#371A45"/>
</g>
<path d="M118.9 508.21L122.51 521.81C122.99 523.61 124.04 525.22 125.5 526.38L140.26 538.12C142.69 540.05 144.43 542.71 145.22 545.7L152.59 573.48C153.06 575.26 155.11 576.07 156.69 575.11C160.35 572.88 163.19 570.3 164.73 567.16C165.97 564.63 166.17 561.71 165.44 558.98L159.85 537.94C159.29 535.83 158.17 533.92 156.61 532.39L146.85 522.85C144.94 520.98 143.81 518.44 143.78 515.77C143.75 512.75 144.34 509.39 145.29 505.83C145.88 503.61 143.86 501.58 141.64 502.17L118.9 508.21Z" fill="#F9DC1B"/>
<path d="M159.87 537.93L165.46 558.98C166.18 561.71 165.99 564.63 164.75 567.16C163.21 570.3 160.36 572.88 156.7 575.11C155.62 575.77 154.32 575.59 153.46 574.85C156.54 572.8 158.94 570.45 160.31 567.66C161.55 565.13 161.75 562.21 161.02 559.48L155.43 538.43C154.87 536.32 153.75 534.41 152.19 532.88L142.43 523.34C140.52 521.47 139.4 518.93 139.37 516.26C139.34 513.24 139.93 509.88 140.88 506.32C141.28 504.81 140.47 503.38 139.21 502.82L141.68 502.17C143.9 501.58 145.92 503.61 145.33 505.83C144.38 509.39 143.79 512.75 143.82 515.77C143.85 518.44 144.98 520.98 146.88 522.85L156.64 532.39C158.19 533.91 159.31 535.83 159.87 537.93Z" fill="#E89F02"/>
<g opacity="0.55">
<path d="M155.81 574.61C155.88 574.88 155.99 575.14 156.13 575.36C154.66 575.86 153.01 575.05 152.59 573.47L145.22 545.69C144.43 542.7 142.69 540.04 140.26 538.11L125.5 526.37C124.04 525.21 122.99 523.61 122.51 521.8L118.9 508.2L141.67 502.16C142.96 501.82 144.17 502.36 144.86 503.3L122.12 509.33L125.73 522.93C126.21 524.74 127.26 526.34 128.72 527.5L143.48 539.24C145.9 541.17 147.64 543.83 148.44 546.82L155.81 574.61Z" fill="white"/>
</g>
<path d="M118.9 508.21L122.51 521.81C122.99 523.61 122.87 525.52 122.18 527.26L115.18 544.77C114.03 547.65 113.84 550.82 114.63 553.82L122 581.6C122.47 583.38 121.09 585.1 119.25 585.04C114.97 584.92 111.22 584.09 108.32 582.13C105.98 580.55 104.37 578.11 103.64 575.38L98.05 554.34C97.49 552.23 97.51 550.02 98.11 547.92L101.85 534.8C102.58 532.23 102.3 529.47 101 527.13C99.53 524.49 97.35 521.86 94.76 519.24C93.15 517.61 93.9 514.85 96.11 514.26L118.9 508.21Z" fill="#F9DC1B"/>
<path d="M118.9 508.21L122.51 521.81C122.99 523.62 122.87 525.53 122.18 527.26L115.18 544.77C114.03 547.65 113.84 550.82 114.63 553.82L122 581.6C122.47 583.38 121.09 585.1 119.25 585.05C118.46 585.03 117.68 584.98 116.92 584.9C117.25 584.31 117.36 583.6 117.17 582.88L109.8 555.1C109.01 552.11 109.2 548.93 110.35 546.05L117.35 528.54C118.04 526.81 118.16 524.9 117.68 523.09L114.07 509.49L118.9 508.21Z" fill="#E89F02"/>
<g opacity="0.55">
<path d="M98.7502 520.17C101.34 522.79 103.52 525.42 104.99 528.06C106.29 530.39 106.57 533.16 105.84 535.73L102.1 548.85C101.5 550.95 101.48 553.17 102.04 555.27L107.63 576.32C108.35 579.05 109.97 581.49 112.3 583.07C113.33 583.77 114.47 584.32 115.7 584.75C112.89 584.35 110.4 583.53 108.34 582.13C106.01 580.55 104.39 578.11 103.67 575.38L98.0802 554.33C97.5202 552.22 97.5403 550 98.1403 547.91L101.88 534.79C102.61 532.22 102.33 529.46 101.03 527.13C99.5602 524.49 97.3803 521.86 94.7903 519.24C93.1803 517.61 93.9303 514.84 96.1403 514.26L118.9 508.21L119.39 510.07L100.09 515.2C97.8802 515.78 97.1302 518.54 98.7502 520.17Z" fill="white"/>
</g>
<path d="M114.44 508.61L114.63 509.34L101.75 512.76L99.39 503.88C99.13 502.89 99.72 501.87 100.71 501.61L102.18 501.22C104.73 505.54 109.42 508.32 114.44 508.61Z" fill="#AFCADC"/>
<path d="M114.87 509.48L101.61 513L99.2004 503.93C98.9104 502.84 99.5604 501.71 100.66 501.42L102.27 500.99L102.34 501.12C104.81 505.33 109.45 508.13 114.44 508.42L114.58 508.43L114.87 509.48ZM101.89 512.53L114.4 509.21L114.29 508.8C109.28 508.46 104.63 505.65 102.1 501.44L100.77 501.79C99.8803 502.03 99.3504 502.94 99.5904 503.83L101.89 512.53Z" fill="#000072"/>
<g opacity="0.55">
<path d="M102.31 501.18C102.51 501.53 102.74 501.87 102.97 502.2L102.84 502.24C101.85 502.5 101.26 503.52 101.52 504.51L103.58 512.28L101.87 512.73L99.5101 503.85C99.2501 502.86 99.8401 501.84 100.83 501.58L102.31 501.18Z" fill="white"/>
</g>
<path d="M111.25 479.42C104.91 481.1 100.62 486.64 100.21 492.84L96.4102 491.67L91.7402 474.06C91.5302 473.29 91.4602 472.49 91.5202 471.69C92.1302 462.56 95.5702 454.76 103.16 448.92L106.94 463.16C100.93 468.21 102.72 477.94 111.25 479.42Z" fill="#AFCADC"/>
<path d="M100.4 493.1L96.2702 491.83L91.5702 474.12C91.3602 473.33 91.2802 472.51 91.3402 471.68C92.0002 461.83 95.8302 454.33 103.06 448.77L103.29 448.59L107.17 463.23L107.08 463.31C104.19 465.73 102.98 469.39 103.91 472.85C104.81 476.19 107.57 478.57 111.3 479.22L112.16 479.37L111.31 479.59C105.2 481.21 100.82 486.54 100.42 492.84L100.4 493.1ZM96.5802 491.53L100.04 492.6C100.53 486.49 104.66 481.32 110.46 479.46C106.97 478.61 104.4 476.22 103.53 472.97C102.57 469.4 103.8 465.63 106.73 463.11L103.06 449.27C96.0702 454.74 92.3602 462.09 91.7202 471.72C91.6702 472.51 91.7402 473.29 91.9402 474.03L96.5802 491.53Z" fill="#000072"/>
<g opacity="0.3">
<path d="M108.58 480.41C108.63 480.39 108.68 480.36 108.73 480.34C108.75 480.34 108.77 480.35 108.79 480.35C108.72 480.37 108.65 480.39 108.58 480.41Z" fill="#262F6A"/>
<path d="M108.64 480.6L108.49 480.25C108.54 480.22 108.6 480.2 108.65 480.17L108.7 480.15L108.8 480.16L109.6 480.32L108.84 480.53C108.78 480.56 108.71 480.58 108.64 480.6Z" fill="#371A45"/>
</g>
<g opacity="0.3">
<path d="M109.13 478.84C109.72 479.07 109.73 479.9 109.14 480.16C109 480.22 108.86 480.28 108.73 480.35C100.24 478.83 97.8602 469.03 103.85 464L100.47 451.26C101.3 450.45 102.2 449.68 103.17 448.94L106.95 463.18C101.47 467.76 102.46 476.24 109.13 478.84Z" fill="#262F6A"/>
<path d="M108.76 480.54L108.7 480.53C104.65 479.8 101.64 477.15 100.65 473.43C99.7202 469.94 100.86 466.3 103.64 463.92L100.26 451.19L100.34 451.11C101.18 450.3 102.09 449.51 103.05 448.77L103.28 448.59L107.16 463.23L107.07 463.31C104.44 465.52 103.18 468.77 103.72 472.01C104.22 475.07 106.22 477.5 109.21 478.66C109.55 478.8 109.77 479.11 109.78 479.48C109.79 479.86 109.58 480.18 109.23 480.33C109.09 480.39 108.96 480.45 108.82 480.52L108.76 480.54ZM100.69 451.31L104.07 464.06L103.98 464.14C101.25 466.43 100.12 469.95 101.02 473.34C101.97 476.89 104.84 479.43 108.7 480.15C108.82 480.09 108.94 480.04 109.07 479.98C109.31 479.88 109.39 479.66 109.39 479.49C109.39 479.28 109.27 479.1 109.07 479.02C105.96 477.81 103.87 475.28 103.34 472.08C102.79 468.75 104.06 465.4 106.73 463.11L103.06 449.27C102.22 449.91 101.43 450.6 100.69 451.31Z" fill="#371A45"/>
</g>
<g opacity="0.55">
<path d="M103.17 448.93L103.71 450.98C97.6402 456.58 94.8102 463.7 94.2602 471.9C94.2102 472.7 94.2802 473.5 94.4802 474.27L99.1502 491.88L100.26 492.22C100.24 492.43 100.22 492.64 100.21 492.85L96.4102 491.68L91.7402 474.07C91.5302 473.3 91.4602 472.5 91.5202 471.7C92.1402 462.57 95.5802 454.77 103.17 448.93Z" fill="white"/>
</g>
<g opacity="0.2">
<path d="M133.25 494.08L135.53 502.69C135.67 503.22 135.38 503.78 134.88 503.97L121.97 507.4C128.22 504.37 131.27 500.06 130.5 494.2L132.93 493.56C133.08 493.69 133.19 493.87 133.25 494.08Z" fill="black"/>
</g>
<path d="M114.44 508.61L114.63 509.34L101.75 512.76L99.39 503.88C99.13 502.89 99.72 501.87 100.71 501.61L102.18 501.22C104.73 505.54 109.42 508.32 114.44 508.61Z" stroke="#0D2232" stroke-width="4" stroke-miterlimit="10" stroke-linecap="round" stroke-linejoin="round"/>
<path d="M118.9 508.21L122.51 521.81C122.99 523.61 124.04 525.22 125.5 526.38L140.26 538.12C142.69 540.05 144.43 542.71 145.22 545.7L152.59 573.48C153.06 575.26 155.11 576.07 156.69 575.11C160.35 572.88 163.19 570.3 164.73 567.16C165.97 564.63 166.17 561.71 165.44 558.98L159.85 537.94C159.29 535.83 158.17 533.92 156.61 532.39L146.85 522.85C144.94 520.98 143.81 518.44 143.78 515.77C143.75 512.75 144.34 509.39 145.29 505.83C145.88 503.61 143.86 501.58 141.64 502.17L118.9 508.21Z" stroke="#0D2232" stroke-width="4" stroke-miterlimit="10" stroke-linecap="round" stroke-linejoin="round"/>
<path d="M118.9 508.21L122.51 521.81C122.99 523.61 122.87 525.52 122.18 527.26L115.18 544.77C114.03 547.65 113.84 550.82 114.63 553.82L122 581.6C122.47 583.38 121.09 585.1 119.25 585.04C114.97 584.92 111.22 584.09 108.32 582.13C105.98 580.55 104.37 578.11 103.64 575.38L98.05 554.34C97.49 552.23 97.51 550.02 98.11 547.92L101.85 534.8C102.58 532.23 102.3 529.47 101 527.13C99.53 524.49 97.35 521.86 94.76 519.24C93.15 517.61 93.9 514.85 96.11 514.26L118.9 508.21Z" stroke="#0D2232" stroke-width="4" stroke-miterlimit="10" stroke-linecap="round" stroke-linejoin="round"/>
<path d="M125.56 465.1L130.23 482.71L127.5 485.62C124.23 480.72 118.19 477.99 112.13 479.22C111.84 479.28 111.55 479.35 111.26 479.42C112.51 478.38 113.42 477.2 114 475.98C116.54 470.67 113.2 464.31 106.93 463.17L103.15 448.93C112.64 450.24 119.5 455.3 124.55 462.93C125.02 463.6 125.35 464.33 125.56 465.1Z" stroke="#0D2232" stroke-width="4" stroke-miterlimit="10" stroke-linecap="round" stroke-linejoin="round"/>
<path d="M133.25 494.08L135.53 502.69C135.67 503.22 135.38 503.78 134.88 503.97C134.84 503.98 134.81 503.99 134.77 504L119.19 508.14C117.61 508.56 116.01 508.71 114.44 508.62C109.42 508.32 104.73 505.55 102.19 501.22C101.54 500.12 101.03 498.93 100.69 497.64C100.26 496.03 100.12 494.42 100.22 492.85C100.62 486.64 104.91 481.11 111.26 479.43H111.27C111.56 479.35 111.84 479.29 112.14 479.23C118.2 478 124.24 480.73 127.51 485.63C128.47 487.07 129.18 488.69 129.6 490.45C129.87 491.59 129.99 492.73 129.99 493.85L131.95 493.33C132.31 493.23 132.68 493.34 132.94 493.57C133.08 493.69 133.19 493.87 133.25 494.08Z" stroke="#0D2232" stroke-width="4" stroke-miterlimit="10" stroke-linecap="round" stroke-linejoin="round"/>
<path d="M111.25 479.42C104.91 481.1 100.62 486.64 100.21 492.84L96.4102 491.67L91.7402 474.06C91.5302 473.29 91.4602 472.49 91.5202 471.69C92.1302 462.56 95.5702 454.76 103.16 448.92L106.94 463.16C100.93 468.21 102.72 477.94 111.25 479.42Z" stroke="#0D2232" stroke-width="4" stroke-miterlimit="10" stroke-linecap="round" stroke-linejoin="round"/>
<path d="M115.08 501.7C119.432 501.7 122.96 498.172 122.96 493.82C122.96 489.468 119.432 485.94 115.08 485.94C110.728 485.94 107.2 489.468 107.2 493.82C107.2 498.172 110.728 501.7 115.08 501.7Z" stroke="#0D2232" stroke-width="4" stroke-miterlimit="10" stroke-linecap="round" stroke-linejoin="round"/>
<path d="M167.4 525.67H146.85C144.66 525.67 142.88 523.89 142.88 521.7V520.57C142.88 518.38 144.66 516.6 146.85 516.6H167.4C169.59 516.6 171.37 518.38 171.37 520.57V521.7C171.37 523.9 169.59 525.67 167.4 525.67Z" fill="#F9DC1B"/>
<path d="M165.73 525.67H148.59V532.75H165.73V525.67Z" fill="#F9DC1B"/>
<path d="M158.9 577.23H155.35C148.46 577.23 142.88 571.65 142.88 564.76V536.9C142.88 534.61 144.73 532.76 147.02 532.76H167.23C169.52 532.76 171.37 534.61 171.37 536.9V564.76C171.37 571.64 165.78 577.23 158.9 577.23Z" fill="#F9DC1B"/>
<path d="M171.371 519.65V522.63C171.371 524.31 170.011 525.67 168.331 525.67H163.331C165.011 525.67 166.371 524.31 166.371 522.63V519.65C166.371 517.97 165.011 516.61 163.331 516.61H168.331C170.011 516.61 171.371 517.97 171.371 519.65Z" fill="#E89F02"/>
<path d="M165.74 525.68H160.74V532.76H165.74V525.68Z" fill="#E89F02"/>
<path d="M171.371 535.78V563.4C171.371 571.04 165.181 577.23 157.541 577.23H157.271C162.301 577.23 166.381 573.15 166.381 568.12V535.78C166.381 534.11 165.031 532.76 163.361 532.76H168.361C170.011 532.75 171.371 534.11 171.371 535.78Z" fill="#E89F02"/>
<g opacity="0.55">
<path d="M149.461 525.68H145.931C144.251 525.68 142.891 524.32 142.891 522.64V519.66C142.891 517.98 144.251 516.62 145.931 516.62H149.461C147.781 516.62 146.421 517.98 146.421 519.66V522.64C146.411 524.31 147.771 525.68 149.461 525.68Z" fill="white"/>
</g>
<g opacity="0.55">
<path d="M152.12 525.68H148.59V532.76H152.12V525.68Z" fill="white"/>
</g>
<g opacity="0.55">
<path d="M155.52 577.23H151.99C146.96 577.23 142.88 573.15 142.88 568.12V535.78C142.88 534.11 144.23 532.76 145.9 532.76H149.43C147.76 532.76 146.41 534.11 146.41 535.78V568.12C146.41 573.15 150.49 577.23 155.52 577.23Z" fill="white"/>
</g>
<path d="M167.061 477.9L164.741 485.08H161.761V516.61H152.821V485.08H149.831L147.521 477.9L151.161 457.36H163.421L167.061 477.9Z" fill="#AFCADC"/>
<path d="M161.93 516.77H152.65V485.24H149.71L147.34 477.91L147.35 477.87L151.02 457.19H163.55L167.23 477.91L164.86 485.24H161.92V516.77H161.93ZM152.98 516.44H161.59V484.91H164.62L166.89 477.89L163.28 457.53H151.3L147.69 477.89L149.96 484.91H152.99V516.44H152.98Z" fill="#000072"/>
<g opacity="0.2">
<path d="M160.94 485.08H161.76V516.61H159V487.02C159 485.95 159.87 485.08 160.94 485.08Z" fill="black"/>
</g>
<g opacity="0.2">
<path d="M167.06 477.9L164.74 485.08H161.98L164.3 477.9L160.66 457.36H163.42L167.06 477.9Z" fill="black"/>
</g>
<g opacity="0.55">
<path d="M150.371 477.9L152.691 485.08H150.171L147.851 477.9L151.491 457.36H154.021L150.371 477.9Z" fill="white"/>
</g>
<g opacity="0.55">
<path d="M155.671 486.73V516.61H153.141V485.08H154.021C154.941 485.08 155.671 485.82 155.671 486.73Z" fill="white"/>
</g>
<g opacity="0.2">
<path d="M156.771 551.77C156.771 555.43 155.231 558.4 153.321 558.4C151.411 558.4 151.391 555.43 151.391 551.77C151.391 548.11 151.421 545.14 153.321 545.14C155.221 545.14 156.771 548.12 156.771 551.77Z" fill="white"/>
</g>
<path d="M167.4 525.67H146.85C144.66 525.67 142.88 523.89 142.88 521.7V520.57C142.88 518.38 144.66 516.6 146.85 516.6H167.4C169.59 516.6 171.37 518.38 171.37 520.57V521.7C171.37 523.9 169.59 525.67 167.4 525.67Z" stroke="#0D2232" stroke-width="4" stroke-miterlimit="10" stroke-linecap="round" stroke-linejoin="round"/>
<path d="M165.73 525.67H148.59V532.75H165.73V525.67Z" stroke="#0D2232" stroke-width="4" stroke-miterlimit="10" stroke-linecap="round" stroke-linejoin="round"/>
<path d="M158.9 577.23H155.35C148.46 577.23 142.88 571.65 142.88 564.76V536.9C142.88 534.61 144.73 532.76 147.02 532.76H167.23C169.52 532.76 171.37 534.61 171.37 536.9V564.76C171.37 571.64 165.78 577.23 158.9 577.23Z" stroke="#0D2232" stroke-width="4" stroke-miterlimit="10" stroke-linecap="round" stroke-linejoin="round"/>
<path d="M167.061 477.9L164.741 485.08H161.761V516.61H152.821V485.08H149.831L147.521 477.9L151.161 457.36H163.421L167.061 477.9Z" stroke="#0D2232" stroke-width="4" stroke-miterlimit="10" stroke-linecap="round" stroke-linejoin="round"/>
<path d="M182.38 519.93V578.09C182.38 578.09 170.79 595.45 148.27 595.45C125.74 595.45 109.65 595.45 109.65 595.45L102.89 586.77C102.89 586.77 97.4203 545.95 96.7803 530.2C96.7803 530.2 158.57 531.85 182.38 519.93Z" fill="#FEC400"/>
<path d="M177.11 522.15V565.81C177.11 573.24 172.91 580.05 166.23 583.31C155.24 588.68 135.21 593.8 102.9 586.78L109.66 595.46L151.66 595.7C151.66 595.7 173.38 592.89 182.39 578.1V519.94L177.11 522.15Z" fill="#E89F02"/>
<path d="M182.38 519.93V574.29C182.38 577 181.35 579.6 179.51 581.58C174.79 586.65 164.3 595.44 148.27 595.44H114.87C111.58 595.44 108.47 593.92 106.45 591.32L104.68 589.05C103.51 587.55 102.76 585.76 102.52 583.88C101.27 574.3 97.33 543.41 96.79 530.19C96.78 530.2 158.57 531.85 182.38 519.93Z" stroke="#0D2232" stroke-width="4" stroke-miterlimit="10" stroke-linecap="round" stroke-linejoin="round"/>
<path d="M182.38 535.02C182.38 535.02 162.66 551.92 98.2998 545.49" stroke="#0D2232" stroke-width="4" stroke-miterlimit="10" stroke-linecap="round" stroke-linejoin="round"/>
<path d="M165.44 656.609L238.87 656.609L238.87 635.109L165.44 635.109L165.44 656.609Z" stroke="#0D2232" stroke-width="6" stroke-miterlimit="10" stroke-linecap="round" stroke-linejoin="round"/>
<path d="M177.9 336.67L137.73 357.78L163.32 410.92L177.9 403.37V336.67Z" stroke="#0D2232" stroke-width="6" stroke-miterlimit="10"/>
<path d="M394.68 373.55C394.68 373.55 422.32 389.62 416.54 410.84C410.76 432.06 369.61 460.34 369.61 460.34C369.61 460.34 367.68 436.55 338.75 431.41L356.75 413.41L394.68 373.55Z" fill="#FBC6A6"/>
<path d="M338.75 431.4L329.75 436.86V492.79H370.25L369.61 460.33C369.61 460.33 367.04 435.9 338.75 431.4Z" fill="#FBC6A6"/>
<path opacity="0.16" d="M390.62 377.81C390.62 377.81 416.1 390.25 410.45 410.97C404.8 431.7 369.15 453.72 369.15 453.72" stroke="black" stroke-width="6" stroke-miterlimit="10"/>
<path opacity="0.16" d="M366.25 492.8L365.61 447.75" stroke="black" stroke-width="6" stroke-miterlimit="10"/>
<path opacity="0.5" d="M344.92 431.97L400.06 375.05" stroke="white" stroke-width="6" stroke-miterlimit="10"/>
<path opacity="0.5" d="M334.92 433.12V494.36" stroke="white" stroke-width="6" stroke-miterlimit="10"/>
<path d="M394.68 373.55C394.68 373.55 422.32 389.62 416.54 410.84C410.76 432.06 369.61 460.34 369.61 460.34C369.61 460.34 367.68 436.55 338.75 431.41L356.75 413.41L394.68 373.55Z" stroke="#0D2232" stroke-width="6" stroke-miterlimit="10" stroke-linecap="round" stroke-linejoin="round"/>
<path d="M338.75 431.4L329.75 436.86V492.79H370.25L369.61 460.33C369.61 460.33 367.04 435.9 338.75 431.4Z" stroke="#0D2232" stroke-width="6" stroke-miterlimit="10" stroke-linecap="round" stroke-linejoin="round"/>
<path d="M340.44 415.11L366.03 426.85L388.97 378.32L395.18 365.19L370.64 353.03L363.88 366.92L340.44 415.11Z" fill="#435F84"/>
<path opacity="0.21" d="M363.88 366.92L363.92 366.96L388.97 378.32L395.18 365.19L370.64 353.03L363.88 366.92Z" fill="white"/>
<path d="M328.17 336.67V403.37L342.75 410.92L363.92 366.96L368.34 357.78L328.17 336.67Z" fill="#F9DC1B"/>
<path opacity="0.5" d="M328.17 336.67V348.62L363.92 366.96L368.34 357.78L328.17 336.67Z" fill="white"/>
<path d="M351.37 393.02L328.17 383.65V403.37L342.75 410.92L351.37 393.02Z" fill="#E89F02"/>
<path d="M370.64 353.03L340.44 415.11L366.03 426.86L395.18 365.19L370.64 353.03Z" stroke="#0D2232" stroke-width="6" stroke-miterlimit="10" stroke-linecap="round" stroke-linejoin="round"/>
<path d="M328.17 336.67L368.34 357.78L342.75 410.92L328.17 403.37V336.67Z" stroke="#0D2232" stroke-width="6" stroke-miterlimit="10"/>
<path d="M30.1499 170.53V206.38C30.1499 209.16 27.8899 211.42 25.1199 211.42H5.66989C2.88989 211.42 0.629883 209.16 0.629883 206.38V170.53C0.629883 167.75 2.88989 165.5 5.66989 165.5H25.1199C27.8899 165.49 30.1499 167.75 30.1499 170.53Z" fill="#AFCADC"/>
<path d="M25.11 211.77H5.66002C2.69002 211.77 0.27002 209.35 0.27002 206.38V170.53C0.27002 167.56 2.69002 165.15 5.66002 165.15H25.11C28.08 165.15 30.49 167.57 30.49 170.53V206.38C30.5 209.35 28.08 211.77 25.11 211.77ZM5.66002 165.85C3.07002 165.85 0.970016 167.95 0.970016 170.53V206.38C0.970016 208.97 3.07002 211.07 5.66002 211.07H25.11C27.69 211.07 29.79 208.97 29.79 206.38V170.53C29.79 167.95 27.69 165.85 25.11 165.85H5.66002Z" fill="#000072"/>
<g opacity="0.2">
<path d="M30.1499 198.41V206.37C30.1499 209.15 27.8899 211.41 25.1199 211.41H5.66989C2.88989 211.41 0.629883 209.15 0.629883 206.37V198.41C0.629883 201.19 2.88989 203.45 5.66989 203.45H25.1199C27.8899 203.45 30.1499 201.2 30.1499 198.41Z" fill="black"/>
</g>
<g opacity="0.55">
<path d="M30.1499 170.53V176.15C30.1499 173.37 27.8899 171.12 25.1199 171.12H5.66989C2.88989 171.12 0.629883 173.38 0.629883 176.15V170.53C0.629883 167.75 2.88989 165.5 5.66989 165.5H25.1199C27.8899 165.49 30.1499 167.75 30.1499 170.53Z" fill="white"/>
</g>
<path d="M51.8499 201.75H30.1499V176.27H48.5599L51.8499 201.75Z" fill="#AFCADC"/>
<path d="M52.25 202.1H29.79V175.92H48.87L52.25 202.1ZM30.5 201.4H51.46L48.26 176.62H30.5V201.4Z" fill="#000072"/>
<path d="M153.94 197.98C153.64 201.62 149.36 203.41 146.59 201.03C131.07 187.69 108.14 195.22 103.47 214.25C102.69 217.42 99.8898 219.68 96.6298 219.68H60.3398C56.7998 219.68 53.8198 217.06 53.3698 213.55L51.8398 201.75L48.5498 176.27L47.4398 167.68C46.8998 163.48 50.1698 159.75 54.4098 159.75H113.9C138.05 159.75 155.55 178.34 153.94 197.98Z" fill="#AFCADC"/>
<path d="M96.6303 220.03H60.3403C56.6403 220.03 53.5002 217.26 53.0202 213.59L47.0903 167.72C46.8203 165.62 47.4703 163.5 48.8702 161.9C50.2702 160.31 52.2903 159.39 54.4103 159.39H113.9C126.01 159.39 137.37 164.18 145.07 172.54C151.76 179.8 155.03 188.84 154.28 198.01C154.13 199.84 152.98 201.41 151.29 202.1C149.59 202.8 147.75 202.5 146.35 201.3C139.15 195.11 129.64 193.09 120.91 195.88C112.36 198.62 105.96 205.52 103.8 214.33C102.99 217.69 100.03 220.03 96.6303 220.03ZM54.4302 160.1C52.5102 160.1 50.6803 160.93 49.4103 162.37C48.1403 163.81 47.5602 165.73 47.8002 167.63L53.7303 213.5C54.1603 216.82 57.0003 219.32 60.3503 219.32H96.6403C99.7203 219.32 102.39 217.2 103.14 214.16C105.36 205.11 111.93 198.02 120.72 195.21C129.68 192.34 139.44 194.41 146.83 200.76C148.02 201.78 149.59 202.04 151.04 201.45C152.51 200.85 153.47 199.54 153.6 197.95C154.33 188.99 151.13 180.13 144.57 173.02C137 164.81 125.83 160.1 113.92 160.1H54.4302Z" fill="#000072"/>
<g opacity="0.2">
<path d="M153.94 197.98C153.64 201.62 149.36 203.41 146.59 201.03C131.07 187.69 108.14 195.22 103.47 214.25C102.69 217.42 99.89 219.68 96.63 219.68H60.34C56.8 219.68 53.82 217.06 53.37 213.55L53 210.72C53.93 211.17 54.96 211.42 56.05 211.42H92.34C95.6 211.42 98.4 209.16 99.18 205.99C103.85 186.96 126.78 179.43 142.3 192.77C145.07 195.15 149.35 193.36 149.65 189.72C150.02 185.23 149.39 180.79 147.91 176.62C152.31 182.9 154.57 190.36 153.94 197.98Z" fill="black"/>
</g>
<g opacity="0.55">
<path d="M145.48 173.52C138.54 168.02 129.37 164.56 118.96 164.56H59.47C55.23 164.56 51.96 168.29 52.5 172.49L53.61 181.08L56.9 206.56L58.43 218.36C58.48 218.75 58.5601 219.12 58.6701 219.48C55.9101 218.81 53.76 216.49 53.38 213.55L51.85 201.75L48.56 176.27L47.4501 167.68C46.9101 163.48 50.1801 159.75 54.4201 159.75H113.91C127.1 159.75 138.29 165.29 145.48 173.52Z" fill="white"/>
</g>
<g opacity="0.55">
<path d="M30.1498 176.15H1.7998V184H30.1498V176.15Z" fill="white"/>
</g>
<path d="M95.9901 219.68H62.6001V304.91H95.9901V219.68Z" fill="#435F84" stroke="#0D2232" stroke-width="4" stroke-miterlimit="10" stroke-linecap="round" stroke-linejoin="round"/>
<g opacity="0.2">
<path d="M62.6898 234.63C63.6598 234.66 64.5298 235.01 65.3398 235.45C66.1498 235.89 66.8998 236.44 67.6098 237.04C69.0198 238.23 70.3198 239.56 71.3798 241.08C73.4998 244.11 74.6898 247.54 76.8198 250.21C77.8698 251.55 79.1798 252.63 80.6698 253.43C82.1698 254.22 83.8198 254.75 85.5198 255.1C87.2198 255.45 88.9698 255.66 90.7298 255.82C91.6098 255.9 92.4998 255.97 93.3898 255.99C94.2798 256.05 95.1898 256.18 96.0198 256.76C96.1398 256.84 96.1698 257.01 96.0798 257.13C96.0498 257.17 96.0098 257.2 95.9698 257.22L95.9598 257.23C95.0098 257.64 94.1598 257.56 93.2698 257.49C92.3898 257.37 91.4998 257.3 90.5998 257.22C88.8098 257.06 87.0198 256.85 85.2298 256.48C83.4398 256.11 81.6698 255.54 80.0098 254.67C78.3598 253.8 76.8598 252.56 75.7198 251.09C73.3998 248.15 72.2098 244.7 70.2298 241.89C69.2398 240.49 68.0698 239.21 66.6998 238.17C66.0198 237.65 65.2998 237.18 64.5898 236.7C63.8798 236.22 63.1598 235.75 62.4998 235.06C62.3998 234.96 62.3998 234.8 62.4998 234.7C62.5598 234.65 62.6298 234.63 62.6898 234.63Z" fill="#371A45"/>
<path d="M96.0298 250.13C94.1998 251.12 92.0598 251.17 90.0598 250.87C88.0498 250.58 86.0498 250.08 84.2198 249.14C83.2898 248.71 82.4398 248.12 81.6098 247.5C80.8298 246.83 80.0498 246.13 79.4398 245.28C78.1298 243.65 77.4398 241.58 77.0598 239.63C76.6698 237.67 76.4798 235.73 75.9398 233.94C75.6698 233.04 75.3098 232.21 74.8198 231.44C74.5998 231.04 74.2898 230.7 74.0198 230.33C73.6998 230 73.4098 229.65 73.0498 229.36C71.6898 228.12 69.9898 227.26 68.2098 226.83C67.3198 226.6 66.3898 226.53 65.4798 226.58C64.5598 226.63 63.7098 226.78 62.6798 226.64L62.6598 226.65C62.6098 226.64 62.5498 226.62 62.4898 226.61L62.4398 226.6C62.2998 226.57 62.2198 226.43 62.2598 226.29C62.2698 226.24 62.2998 226.2 62.3298 226.17C62.3798 226.12 62.4398 226.06 62.4998 226.02L62.4798 226.03C63.3198 225.32 64.3998 225.1 65.4398 225.1C66.4798 225.15 67.5298 225.21 68.5298 225.47C70.5398 225.96 72.4498 226.92 73.9898 228.32C75.5598 229.67 76.7098 231.57 77.2798 233.54C77.8598 235.51 78.0498 237.49 78.4298 239.36C78.7998 241.23 79.3998 242.99 80.5498 244.43C81.0798 245.18 81.7798 245.8 82.4798 246.4C83.2198 246.95 83.9898 247.48 84.8398 247.88C86.5098 248.72 88.3498 249.24 90.2198 249.42C90.6898 249.48 91.1598 249.46 91.6198 249.51C92.0898 249.5 92.5598 249.53 93.0298 249.52C93.9698 249.54 94.9098 249.43 95.9298 249.67L95.9598 249.68C96.0898 249.71 96.1698 249.84 96.1398 249.97C96.1398 250.04 96.0898 250.1 96.0298 250.13Z" fill="#371A45"/>
<path d="M96.0496 240.39C95.5096 240.92 94.8396 241.13 94.1596 241.24C93.8196 241.29 93.4696 241.31 93.1296 241.31C92.7896 241.3 92.4496 241.25 92.1096 241.22C90.7596 241.04 89.4296 240.68 88.1996 240.11C85.7396 238.98 83.6396 237.14 82.1496 234.9C80.6596 232.65 79.7996 230.04 79.4996 227.4C79.3496 226.08 79.3396 224.75 79.4396 223.43C79.4796 222.77 79.5896 222.12 79.6396 221.45C79.7096 220.79 79.8496 220.13 80.3396 219.58L80.3296 219.62C80.4196 219.53 80.4796 219.44 80.5896 219.37C80.7296 219.27 80.9196 219.3 81.0196 219.43C81.0296 219.44 81.0296 219.45 81.0396 219.45L81.0496 219.47C81.1096 219.57 81.1296 219.66 81.1796 219.75L81.1696 219.79C81.3596 220.48 81.2296 221.08 81.0896 221.69C80.9396 222.29 80.8896 222.92 80.8396 223.53C80.7496 224.77 80.7596 226.01 80.8996 227.24C81.1796 229.69 81.9696 232.09 83.3196 234.12C84.6696 236.15 86.5896 237.81 88.7896 238.83C89.8896 239.33 91.0596 239.69 92.2596 239.77C92.8596 239.79 93.4496 239.8 94.0396 239.79C94.6396 239.78 95.2296 239.76 95.9296 239.94H95.9396C96.0796 239.98 96.1696 240.12 96.1296 240.26C96.1096 240.31 96.0896 240.35 96.0496 240.39Z" fill="#371A45"/>
<path d="M87.5798 219.79C87.6798 220.34 87.5699 220.75 87.4199 221.13C87.2799 221.52 87.0899 221.88 86.9099 222.25C86.5699 222.99 86.3699 223.77 86.2499 224.55C86.0299 226.09 86.3499 227.73 87.2199 228.95C87.6499 229.56 88.2298 230.03 88.8998 230.33C89.5698 230.62 90.3298 230.74 91.1098 230.71C91.8898 230.69 92.6699 230.52 93.4199 230.26C93.7899 230.15 94.1698 229.93 94.5198 229.72C94.8898 229.53 95.2599 229.38 95.8799 229.64L95.8998 229.65C96.0598 229.72 96.1399 229.89 96.0999 230.05C95.9499 230.68 95.5399 230.9 95.1299 231.08C94.9199 231.16 94.7099 231.23 94.4999 231.32C94.2999 231.42 94.0898 231.51 93.8698 231.58C92.9998 231.88 92.0899 232.07 91.1399 232.1C90.1999 232.14 89.2199 231.99 88.3199 231.6C87.4199 231.21 86.6199 230.55 86.0599 229.76C84.9299 228.16 84.5898 226.19 84.8398 224.34C84.9598 223.42 85.2499 222.54 85.5399 221.69C85.6799 221.26 85.8498 220.84 86.0898 220.46C86.3198 220.08 86.6198 219.73 87.1498 219.54C87.3098 219.48 87.4799 219.56 87.5399 219.72C87.5699 219.76 87.5798 219.78 87.5798 219.79Z" fill="#371A45"/>
<path d="M62.65 246.9C63.79 246.75 64.95 247.13 65.92 247.71C66.91 248.27 67.74 249.04 68.49 249.85C69.98 251.48 71.18 253.29 72.32 255.07C73.47 256.84 74.62 258.57 76.07 259.99C77.5 261.41 79.28 262.42 81.17 263.35C83.05 264.28 85.03 265.16 86.83 266.46C88.62 267.77 90.14 269.41 91.34 271.24C92.56 273.05 93.5 275.01 94.34 276.98C94.76 277.97 95.15 278.96 95.57 279.93C95.96 280.92 96.31 281.92 96.22 283.08C96.21 283.22 96.08 283.33 95.94 283.32C95.88 283.32 95.82 283.29 95.78 283.25C94.93 282.44 94.54 281.45 94.17 280.47C93.84 279.47 93.45 278.49 93.04 277.53C92.22 275.61 91.31 273.73 90.17 272.03C89.05 270.31 87.64 268.81 86.01 267.61C84.37 266.43 82.46 265.57 80.55 264.62C78.64 263.69 76.68 262.59 75.09 261.01C73.51 259.45 72.31 257.62 71.15 255.85C69.99 254.08 68.88 252.31 67.44 250.87C66.72 250.16 65.95 249.52 65.14 248.96C64.33 248.38 63.5 247.94 62.56 247.38C62.44 247.31 62.4 247.16 62.47 247.04C62.5 246.96 62.58 246.91 62.65 246.9Z" fill="#371A45"/>
<path d="M87.2397 261.04C87.6197 260.84 87.8797 260.88 88.1097 260.96C88.3397 261.04 88.5398 261.19 88.7298 261.33C89.1198 261.62 89.5397 261.85 89.9297 262.12C90.7297 262.65 91.5098 263.21 92.2598 263.8C93.0198 264.39 93.7497 265.01 94.4597 265.66C94.8097 265.98 95.1598 266.32 95.4998 266.65C95.6698 266.82 95.8298 266.99 96.0398 267.13C96.2098 267.3 96.3598 267.49 96.1598 268C96.0998 268.16 95.9697 268.27 95.8297 268.32H95.8198C95.2898 268.5 95.1198 268.35 94.9698 268.17C94.8498 267.97 94.6797 267.81 94.5197 267.65C94.1897 267.33 93.8597 267.01 93.5197 266.7C92.8397 266.08 92.1298 265.48 91.4098 264.91C90.6798 264.34 89.9298 263.8 89.1698 263.29C88.7798 263.04 88.4097 262.77 87.9897 262.57C87.7797 262.48 87.5698 262.38 87.3898 262.22C87.2098 262.07 87.0598 261.88 87.0298 261.45V261.44C86.9998 261.28 87.0997 261.12 87.2397 261.04Z" fill="#371A45"/>
<path d="M62.75 256.27C63.96 256.77 64.83 257.87 65.42 258.98C66.03 260.1 66.39 261.3 66.72 262.46C67.06 263.62 67.39 264.75 67.84 265.81C68.29 266.87 68.84 267.87 69.57 268.68C70.29 269.5 71.22 270.06 72.27 270.42C73.32 270.78 74.46 270.93 75.64 271.04C76.82 271.14 78.03 271.19 79.26 271.34C80.49 271.5 81.76 271.77 82.94 272.35C84.12 272.93 85.15 273.8 85.94 274.82C86.73 275.85 87.3 276.99 87.75 278.15C88.64 280.48 89.11 282.87 89.73 285.15C90.33 287.43 91.21 289.61 92.36 291.65C92.93 292.67 93.56 293.66 94.3 294.58C95 295.52 95.72 296.42 96.17 297.63C96.22 297.76 96.15 297.91 96.02 297.96C95.96 297.98 95.88 297.98 95.83 297.95C94.63 297.41 93.81 296.46 93.09 295.47C92.4 294.45 91.73 293.41 91.13 292.34C89.93 290.2 89 287.89 88.37 285.52C87.74 283.17 87.27 280.82 86.44 278.66C86.02 277.58 85.51 276.56 84.83 275.68C84.16 274.8 83.3 274.09 82.33 273.61C80.35 272.64 77.95 272.64 75.53 272.44C74.31 272.33 73.06 272.18 71.83 271.75C70.61 271.33 69.42 270.61 68.55 269.62C66.78 267.64 66.11 265.13 65.36 262.89C64.98 261.76 64.59 260.66 64.13 259.63C63.66 258.59 63.14 257.65 62.47 256.64C62.39 256.53 62.42 256.38 62.53 256.3C62.59 256.25 62.68 256.24 62.75 256.27Z" fill="#371A45"/>
<path d="M62.6596 276.49C63.5896 276.36 64.4096 276.39 65.2796 276.4L67.8796 276.46C69.6296 276.47 71.4896 276.4 73.3196 276.73C74.2396 276.89 75.1596 277.14 76.0396 277.56C76.9096 277.97 77.7396 278.57 78.3896 279.32C79.0496 280.07 79.4996 280.98 79.7896 281.89C80.0696 282.81 80.2096 283.74 80.2796 284.66C80.4096 286.5 80.3696 288.24 80.4896 289.99C80.5996 291.74 80.7796 293.48 81.1196 295.18C81.4496 296.88 81.9396 298.55 82.6296 300.11C82.9696 300.89 83.3696 301.66 83.8596 302.35C84.3096 303.08 84.7796 303.75 84.9596 304.74V304.75C84.9896 304.9 84.8896 305.03 84.7496 305.06C84.6996 305.07 84.6496 305.06 84.6096 305.05C83.6396 304.69 83.0596 303.93 82.5796 303.14C82.1396 302.33 81.7096 301.51 81.3396 300.67C80.5996 298.98 80.0896 297.22 79.7396 295.44C79.3796 293.66 79.1896 291.86 79.0796 290.06C78.9496 288.27 78.9996 286.46 78.8696 284.75C78.7396 283.05 78.3596 281.39 77.3196 280.21C76.3096 279.01 74.7296 278.36 73.0796 278.08C71.4096 277.79 69.6896 277.79 67.8996 277.87C67.0096 277.91 66.0896 277.93 65.1796 277.82C64.2696 277.71 63.3296 277.49 62.5396 276.9C62.4296 276.82 62.4096 276.66 62.4896 276.55C62.5296 276.53 62.5896 276.5 62.6596 276.49Z" fill="#371A45"/>
<path d="M85.9598 292.01C86.3998 292.18 86.5798 292.43 86.7098 292.7C86.8598 292.96 86.9298 293.25 86.9998 293.54C87.1598 294.11 87.4098 294.65 87.6198 295.2C88.0698 296.29 88.5598 297.37 89.0998 298.43C89.6298 299.49 90.2098 300.52 90.8198 301.54C91.1298 302.05 91.4398 302.55 91.7698 303.04C91.9298 303.29 92.0898 303.54 92.2998 303.75C92.4798 303.99 92.6298 304.24 92.3898 304.78C92.3198 304.94 92.1698 305.03 92.0098 305.05C91.4298 305.09 91.2298 304.85 91.0698 304.6C90.9398 304.32 90.7698 304.07 90.5998 303.81C90.2698 303.3 89.9398 302.78 89.6298 302.26C88.9998 301.22 88.4098 300.15 87.8598 299.06C87.3098 297.97 86.7998 296.86 86.3398 295.73C86.0998 295.17 85.9098 294.59 85.6498 294.03C85.5198 293.75 85.3898 293.47 85.3398 293.17C85.2798 292.87 85.2698 292.55 85.5198 292.15C85.6098 292 85.7998 291.94 85.9598 292.01Z" fill="#371A45"/>
<path d="M62.5498 284.64C63.0798 284.16 63.6898 283.97 64.3198 283.86C64.9498 283.74 65.5998 283.74 66.2398 283.79C67.5298 283.87 68.8598 284.12 70.0498 284.73C71.2498 285.33 72.2598 286.25 73.0398 287.29C73.8198 288.34 74.3898 289.52 74.7698 290.74C75.5598 293.19 75.6298 295.81 75.1698 298.3C74.9398 299.55 74.5798 300.76 74.1098 301.93L73.3598 303.67C73.0898 304.23 72.7198 304.77 71.9798 305.03C71.8198 305.08 71.6598 305 71.5998 304.85C71.5898 304.83 71.5898 304.82 71.5898 304.8V304.78C71.4698 304 71.7598 303.51 72.0298 302.98C72.3498 302.48 72.5898 301.95 72.8098 301.4C73.2498 300.31 73.5798 299.19 73.7898 298.04C74.2098 295.75 74.1398 293.36 73.4298 291.17C72.7498 288.99 71.3898 286.97 69.4098 285.98C68.4298 285.49 67.3198 285.23 66.1798 285.23C65.6098 285.24 65.0398 285.29 64.4598 285.3C63.8798 285.32 63.2898 285.32 62.6298 285.09C62.4898 285.04 62.4098 284.89 62.4598 284.74C62.4898 284.71 62.5198 284.67 62.5498 284.64Z" fill="#371A45"/>
<path d="M62.5398 292.33C62.7998 291.89 63.1997 291.72 63.5897 291.67C63.9897 291.6 64.3897 291.66 64.7797 291.76C65.5497 291.95 66.3297 292.27 66.9397 292.8C68.1797 293.86 68.7997 295.47 68.7197 297.06C68.6697 297.85 68.4197 298.67 67.9897 299.33C67.5697 300 67.0297 300.55 66.4697 301.02C65.8997 301.49 65.3098 301.89 64.7298 302.27C64.4398 302.46 64.1397 302.64 63.8697 302.87C63.5797 303.06 63.2697 303.23 62.7197 302.98C62.5597 302.91 62.4698 302.75 62.4798 302.59V302.58C62.5098 301.97 62.7897 301.77 63.0797 301.6C63.3997 301.46 63.6797 301.29 63.9697 301.1C64.5397 300.73 65.0897 300.36 65.5797 299.95C66.5697 299.13 67.2797 298.14 67.3297 296.98C67.3997 295.83 66.9098 294.61 66.0398 293.88C65.6098 293.53 65.0898 293.25 64.5098 293.19C64.2198 293.16 63.9397 293.17 63.6497 293.13C63.3597 293.1 63.0698 293.05 62.6598 292.78L62.6398 292.77C62.4998 292.67 62.4498 292.48 62.5398 292.33Z" fill="#371A45"/>
</g>
<g opacity="0.55">
<path d="M67.5601 304.91H62.6001V231.43H65.5201C66.6501 231.43 67.5701 232.35 67.5701 233.48V304.91H67.5601Z" fill="white"/>
</g>
<g opacity="0.3">
<path d="M95.9901 219.68V304.91H88.0801V239.43C88.0801 235.07 84.5401 231.53 80.1801 231.53H62.6001V219.68H95.9901Z" fill="#371A45"/>
</g>
<path d="M103.72 311.94V397.7C103.72 401.58 100.57 404.73 96.6902 404.73H62.2502C61.0902 404.73 59.9902 404.45 59.0302 403.95C59.0302 403.94 59.0302 403.94 59.0302 403.94C56.7702 402.78 55.2202 400.42 55.2202 397.7V311.94C55.2202 308.06 58.3702 304.91 62.2502 304.91H96.6902C100.57 304.91 103.72 308.06 103.72 311.94Z" fill="#F9DC1B"/>
<path d="M96.6901 405.08H62.2501C61.0701 405.08 59.9001 404.8 58.8701 404.26L58.6801 404.15C56.3201 402.86 54.8701 400.4 54.8701 397.7V311.94C54.8701 307.87 58.1801 304.56 62.2501 304.56H96.6901C100.76 304.56 104.07 307.87 104.07 311.94V397.7C104.07 401.77 100.76 405.08 96.6901 405.08ZM59.3801 403.73C60.2701 404.15 61.2501 404.38 62.2501 404.38H96.6901C100.37 404.38 103.37 401.38 103.37 397.7V311.94C103.37 308.26 100.37 305.26 96.6901 305.26H62.2501C58.5701 305.26 55.5701 308.26 55.5701 311.94V397.7C55.5701 400.21 56.9601 402.49 59.1901 403.63L59.3801 403.73Z" fill="#000072"/>
<path d="M103.72 311.94V397.7C103.72 401.58 100.57 404.73 96.69 404.73H85.25C89.13 404.73 92.28 401.58 92.28 397.7V311.94C92.28 308.06 89.13 304.91 85.25 304.91H96.69C100.57 304.91 103.72 308.06 103.72 311.94Z" fill="#E89F02"/>
<path d="M96.69 405.08H85.25V404.38C88.93 404.38 91.93 401.38 91.93 397.7V311.94C91.93 308.26 88.93 305.26 85.25 305.26V304.56H96.69C100.76 304.56 104.07 307.87 104.07 311.94V397.7C104.07 401.77 100.76 405.08 96.69 405.08ZM88.4 404.38H96.69C100.37 404.38 103.37 401.38 103.37 397.7V311.94C103.37 308.26 100.37 305.26 96.69 305.26H88.4C90.9 306.44 92.64 308.99 92.64 311.94V397.7C92.64 400.64 90.9 403.19 88.4 404.38Z" fill="#E89F02"/>
<g opacity="0.55">
<path d="M64.3402 403.95C65.3002 404.45 66.4002 404.73 67.5602 404.73H62.2502C61.0902 404.73 59.9902 404.45 59.0302 403.95C59.0302 403.94 59.0302 403.94 59.0302 403.94C56.7702 402.78 55.2202 400.42 55.2202 397.7V311.94C55.2202 308.06 58.3702 304.91 62.2502 304.91H67.5602C63.6802 304.91 60.5302 308.06 60.5302 311.94V397.7C60.5302 400.42 62.0802 402.78 64.3402 403.95C64.3402 403.94 64.3402 403.94 64.3402 403.95Z" fill="white"/>
</g>
<g opacity="0.2">
<path d="M34.8299 176.27L39.5199 201.75H30.1499V176.27H34.8299Z" fill="black"/>
</g>
<g opacity="0.2">
<path d="M83.1001 177.41C83.1001 181.05 78.5101 180.07 72.8501 180.07C67.1901 180.07 62.6001 181.05 62.6001 177.41C62.6001 173.77 67.1901 170.82 72.8501 170.82C78.5101 170.82 83.1001 173.77 83.1001 177.41Z" fill="white"/>
</g>
<g opacity="0.2">
<path d="M76.3801 346.85C76.3801 353.64 73.5101 359.15 69.9801 359.15C66.4501 359.15 66.3901 353.64 66.3901 346.85C66.3901 340.06 66.4401 334.55 69.9801 334.55C73.5201 334.55 76.3801 340.06 76.3801 346.85Z" fill="white"/>
</g>
<path d="M30.1499 170.53V206.38C30.1499 209.16 27.8899 211.42 25.1199 211.42H5.66989C2.88989 211.42 0.629883 209.16 0.629883 206.38V170.53C0.629883 167.75 2.88989 165.5 5.66989 165.5H25.1199C27.8899 165.49 30.1499 167.75 30.1499 170.53Z" stroke="#0D2232" stroke-width="4" stroke-miterlimit="10" stroke-linecap="round" stroke-linejoin="round"/>
<path d="M51.8499 201.75H30.1499V176.27H48.5599L51.8499 201.75Z" stroke="#0D2232" stroke-width="4" stroke-miterlimit="10" stroke-linecap="round" stroke-linejoin="round"/>
<path d="M153.94 197.98C153.64 201.62 149.36 203.41 146.59 201.03C131.07 187.69 108.14 195.22 103.47 214.25C102.69 217.42 99.8898 219.68 96.6298 219.68H60.3398C56.7998 219.68 53.8198 217.06 53.3698 213.55L51.8398 201.75L48.5498 176.27L47.4398 167.68C46.8998 163.48 50.1698 159.75 54.4098 159.75H113.9C138.05 159.75 155.55 178.34 153.94 197.98Z" stroke="#0D2232" stroke-width="4" stroke-miterlimit="10" stroke-linecap="round" stroke-linejoin="round"/>
<path d="M95.9901 219.68H62.6001V304.91H95.9901V219.68Z" stroke="#0D2232" stroke-width="4" stroke-miterlimit="10" stroke-linecap="round" stroke-linejoin="round"/>
<path d="M103.72 311.94V397.7C103.72 401.58 100.57 404.73 96.6902 404.73H62.2502C61.0902 404.73 59.9902 404.45 59.0302 403.95C59.0302 403.94 59.0302 403.94 59.0302 403.94C56.7702 402.78 55.2202 400.42 55.2202 397.7V311.94C55.2202 308.06 58.3702 304.91 62.2502 304.91H96.6902C100.57 304.91 103.72 308.06 103.72 311.94Z" stroke="#0D2232" stroke-width="4" stroke-miterlimit="10" stroke-linecap="round" stroke-linejoin="round"/>
<path d="M344.06 549.73C344.05 549.68 344.05 549.63 344.05 549.58L345.86 465.52C345.87 464.88 346.4 464.38 347.04 464.39L361.5 464.7C361.81 464.71 362.1 464.83 362.31 465.06C362.49 465.24 362.6 465.48 362.62 465.73C362.63 465.78 362.63 465.83 362.63 465.88L360.82 549.94C360.81 550.58 360.28 551.08 359.64 551.07L345.18 550.76C344.87 550.75 344.58 550.63 344.37 550.4C344.2 550.22 344.09 549.98 344.06 549.73Z" fill="#C14854"/>
<path d="M349.65 465.605L347.859 549.668L357.118 549.865L358.908 465.802L349.65 465.605Z" fill="#E8656D"/>
<path opacity="0.5" d="M348.544 461.925L346.67 550.747L347.81 550.771L349.684 461.949L348.544 461.925Z" fill="white"/>
<path d="M341.3 467.66C340.51 467.07 339.75 466.41 339.04 465.71C334.82 461.56 332.46 456.01 332.41 450.08C332.36 444.16 334.62 438.57 338.78 434.35C339.86 433.25 341.05 432.27 342.33 431.42C342.71 431.17 343.2 431.16 343.59 431.41C343.62 431.43 343.64 431.44 343.66 431.46C344 431.71 344.17 432.13 344.11 432.55L342.37 444.16L355.32 450.62L365.47 440.3L360.4 430.54C360.18 430.12 360.24 429.61 360.55 429.25C360.86 428.89 361.35 428.76 361.8 428.91C363.99 429.66 366.03 430.74 367.89 432.13C368.68 432.72 369.44 433.38 370.15 434.07C374.37 438.22 376.73 443.77 376.78 449.7C376.83 455.62 374.57 461.21 370.41 465.43C362.65 473.34 350.14 474.29 341.3 467.66Z" fill="#E8656D"/>
<path d="M361.42 430.01L362.22 431.55C363.46 432.33 364.63 433.25 365.72 434.32C374 442.46 374.11 455.77 365.97 464.05C361.47 468.63 355.38 470.7 349.44 470.27C356.44 472.03 364.16 470.15 369.58 464.63C377.72 456.35 377.61 443.04 369.33 434.9C367.02 432.63 364.31 431 361.42 430.01Z" fill="#C14854"/>
<path opacity="0.5" d="M339.49 461.23C347.44 471.39 358.01 467.92 358.01 467.92C358.01 467.92 350.15 466.1 344.32 459.82C338.23 453.27 335.94 446.31 335.94 446.31C335.94 446.31 333.73 453.87 339.49 461.23Z" fill="white"/>
<path opacity="0.5" d="M341.38 547.41C344.34 543.51 347.32 544.21 347.32 544.21C347.32 544.21 343.42 547.63 341.25 552.34C339.21 556.77 339.51 563.95 339.51 563.95C339.51 563.95 337.51 559.13 337.79 556.69C338.25 552.71 339.38 550.04 341.38 547.41Z" fill="white"/>
<path d="M344.23 541.6L345.76 470.23" stroke="#0D2232" stroke-width="4" stroke-miterlimit="10" stroke-linecap="round" stroke-linejoin="round"/>
<path d="M362.54 470.62L361 541.99" stroke="#0D2232" stroke-width="4" stroke-miterlimit="10" stroke-linecap="round" stroke-linejoin="round"/>
<path d="M341.3 467.66C340.51 467.07 339.75 466.41 339.04 465.71C334.82 461.56 332.46 456.01 332.41 450.08C332.36 444.16 334.62 438.57 338.78 434.35C339.86 433.25 341.05 432.27 342.33 431.42C342.71 431.17 343.2 431.16 343.59 431.41C343.62 431.43 343.64 431.44 343.66 431.46C344 431.71 344.17 432.13 344.11 432.55L342.37 444.16L355.32 450.62L365.47 440.3L360.4 430.54C360.18 430.12 360.24 429.61 360.55 429.25C360.86 428.89 361.35 428.76 361.8 428.91C363.99 429.66 366.03 430.74 367.89 432.13C368.68 432.72 369.44 433.38 370.15 434.07C374.37 438.22 376.73 443.77 376.78 449.7C376.83 455.62 374.57 461.21 370.41 465.43C362.65 473.34 350.14 474.29 341.3 467.66Z" stroke="#0D2232" stroke-width="4" stroke-miterlimit="10" stroke-linecap="round" stroke-linejoin="round"/>
<path d="M319.78 519.93V578.09C319.78 578.09 331.35 595.45 353.85 595.45C376.35 595.45 392.42 595.45 392.42 595.45L399.17 586.77C399.17 586.77 404.63 545.95 405.28 530.2C405.28 530.2 343.57 531.85 319.78 519.93Z" fill="#FEC400"/>
<path d="M325.05 522.15V565.81C325.05 573.24 329.25 580.05 335.92 583.31C346.89 588.68 366.9 593.8 399.18 586.78L392.43 595.46L350.48 595.7C350.48 595.7 328.78 592.89 319.78 578.1V519.94L325.05 522.15Z" fill="#E89F02"/>
<path d="M319.78 519.93V573.14C319.78 576.76 321.24 580.22 323.8 582.78C328.95 587.92 339.03 595.45 353.85 595.45H385.35C389.81 595.45 394.02 593.39 396.76 589.87C398.34 587.84 399.35 585.42 399.68 582.87C401.05 572.28 404.75 542.99 405.27 530.2C405.28 530.2 343.57 531.85 319.78 519.93Z" stroke="#0D2232" stroke-width="4" stroke-miterlimit="10" stroke-linecap="round" stroke-linejoin="round"/>
<path d="M319.78 535.02C319.78 535.02 339.48 551.92 403.76 545.49" stroke="#0D2232" stroke-width="4" stroke-miterlimit="10" stroke-linecap="round" stroke-linejoin="round"/>
<path d="M105.86 351.82C105.86 351.82 115.09 361.85 109.43 374.64C109.43 374.64 107.12 383.66 92.8601 383.66H64.2301C60.2301 383.66 56.4801 382.6 53.2401 380.74C46.5901 376.93 42.1001 369.75 42.1001 361.54V325.04C42.1001 312.82 52.0101 302.92 64.2301 302.92H95.1601C95.1601 302.92 110.89 302.5 112.57 315.5C112.57 315.5 115.29 325.78 106.28 328.71C106.28 328.7 122.21 340.74 105.86 351.82Z" fill="#FBC6A6"/>
<path opacity="0.5" d="M112.57 315.49C112.57 315.49 106.49 311.72 89.9201 311.72C73.3501 311.72 69.1601 311.72 69.1601 311.72C69.1601 311.72 53.0101 310.46 53.2201 324.93C53.3801 336.13 53.2901 367.24 53.2401 380.73C46.5901 376.92 42.1001 369.74 42.1001 361.53V325.03C42.1001 312.81 52.0101 302.91 64.2301 302.91H95.1601C95.1601 302.91 110.89 302.48 112.57 315.49Z" fill="white"/>
<path d="M105.86 351.82C105.86 351.82 115.09 361.85 109.43 374.64C109.43 374.64 107.12 383.66 92.8601 383.66H64.2301C52.0101 383.66 42.1001 373.75 42.1001 361.53V325.04C42.1001 312.82 52.0101 302.91 64.2301 302.91H95.1701C95.1701 302.91 110.9 302.49 112.58 315.49C112.58 315.49 115.31 325.77 106.29 328.7C106.28 328.7 122.21 340.74 105.86 351.82Z" stroke="#0D2232" stroke-width="6" stroke-miterlimit="10" stroke-linecap="round" stroke-linejoin="round"/>
<path d="M70.4102 328.65H106.28" stroke="#0D2232" stroke-width="6" stroke-miterlimit="10" stroke-linecap="round" stroke-linejoin="round"/>
<path d="M70.4102 351.82H106.28" stroke="#0D2232" stroke-width="6" stroke-miterlimit="10" stroke-linecap="round" stroke-linejoin="round"/>
</g>
<defs>
<clipPath id="clip0_344_6125">
<rect width="494" height="722" fill="white"/>
</clipPath>
</defs>
</svg>
