<svg width="465" height="728" viewBox="0 0 465 728" fill="none" xmlns="http://www.w3.org/2000/svg">
<path d="M134.195 659.609L207.625 659.609L207.625 638.109L134.195 638.109L134.195 659.609Z" fill="#435F84" stroke="#0D2232" stroke-width="6" stroke-miterlimit="10" stroke-linecap="round" stroke-linejoin="round"/>
<path d="M345.1 598.45V639.39L364.39 659.63L383.03 639.39L383 538.57H367.89L345.1 598.45Z" fill="#AFCADC"/>
<path d="M364.07 635.47C368.063 635.47 371.3 632.233 371.3 628.24C371.3 624.247 368.063 621.01 364.07 621.01C360.077 621.01 356.84 624.247 356.84 628.24C356.84 632.233 360.077 635.47 364.07 635.47Z" stroke="#0D2232" stroke-width="4" stroke-miterlimit="10" stroke-linecap="round" stroke-linejoin="round"/>
<path opacity="0.2" d="M383.03 539.66H376.39V635.47L364.46 647.4L352.03 634.97V545.92L345.1 546.38V639.39L364.87 659.15L383.83 640.19L383.03 539.66Z" fill="black"/>
<path d="M345.1 598.45V639.39L364.39 659.63L383.03 639.39V539.66H367.92L345.1 598.45Z" stroke="#0D2232" stroke-width="4" stroke-miterlimit="10" stroke-linecap="round" stroke-linejoin="round"/>
<path d="M364.97 148.08C364.97 148.08 358.99 153.43 332.57 155.63C306.14 157.83 120.18 163.42 120.18 163.42L108.73 157.83C108.73 157.83 82.4199 156.38 78.6899 148.08C74.9599 139.78 168.76 106.87 168.76 106.87L287.27 103.25L314.33 114.02L364.97 148.08Z" fill="#CFB300"/>
<path d="M364.97 148.08C364.97 148.08 358.99 153.43 332.57 155.63C306.14 157.83 120.18 163.42 120.18 163.42L108.73 157.83C108.73 157.83 82.4199 156.38 78.6899 148.08C74.9599 139.78 168.76 106.87 168.76 106.87L287.27 103.25L314.33 114.02L364.97 148.08Z" stroke="#0D2232" stroke-width="6" stroke-miterlimit="10" stroke-linecap="round" stroke-linejoin="round"/>
<path d="M109.78 196.85C109.78 196.85 79.59 200.47 83.36 235.39C87.14 270.31 130.62 263.02 130.62 263.02L126.88 212.89L109.78 196.85Z" fill="#FBC6A6" stroke="#0D2232" stroke-width="6" stroke-miterlimit="10"/>
<path d="M341.38 196.85C341.38 196.85 364.35 200.63 366.08 226.11C367.81 251.59 339.47 274.1 317.3 265.2C295.13 256.3 311.49 218.24 311.49 218.24L341.38 196.85Z" fill="#FBC6A6" stroke="#0D2232" stroke-width="6" stroke-miterlimit="10"/>
<path opacity="0.4" d="M339.33 211.95C339.33 211.95 351.26 218.27 346.17 232.01C339.05 251.26 324.54 245.92 324.54 245.92L328.94 222.01L339.33 211.95Z" fill="black"/>
<path opacity="0.4" d="M105.4 211.95C105.4 211.95 93.4701 218.27 98.5601 232.01C105.68 251.26 120.19 245.92 120.19 245.92L115.79 222.01L105.4 211.95Z" fill="black"/>
<path d="M327.75 200.62V229.29C327.75 229.29 327.49 234.26 325.67 241.95C321.59 259.19 309.68 290.11 275.31 309.47C270.42 312.22 265.5 314.51 260.57 316.37C246.25 321.78 231.91 323.61 218.24 322.85C188.79 321.21 162.53 307.54 146.64 291.85C120.84 266.37 119.27 227.53 119.27 227.53V173.25L149.79 136.44L306.54 138.33L325.86 160.98L327.75 200.62Z" fill="#FBC6A6"/>
<path opacity="0.5" d="M166.26 295.89C186.58 310.55 205.63 318.04 220.25 321.86C190.8 320.22 164.54 306.55 148.65 290.86C122.85 265.38 121.28 226.54 121.28 226.54V216.94L129.74 210.32C129.73 210.32 122.22 264.11 166.26 295.89Z" fill="white"/>
<path opacity="0.5" d="M322.67 241.95C318.59 259.19 306.68 290.11 272.31 309.47C267.42 312.22 262.5 314.51 257.57 316.37C275.06 302.74 303.53 277.61 312.26 252.63C315.22 244.18 318.85 241.31 322.67 241.95Z" fill="white"/>
<path d="M364.97 148.08C364.97 148.08 353.96 143.99 339.17 143.99C324.38 143.99 104.33 143.99 104.33 143.99C104.33 143.99 84.3499 143.2 78.6899 148.08V134.4C78.6899 129.1 82.9899 124.8 88.2899 124.8H355.38C360.68 124.8 364.98 129.1 364.98 134.4V148.08H364.97Z" fill="#F9DC1B"/>
<path d="M349.75 124.8C349.75 124.91 349.75 124.96 349.75 124.96H221.7V124.8H93.6599C93.6599 124.8 93.6599 124.77 93.6599 124.72C93.6199 123.67 93.2099 113.23 93.6599 108.45C94.1299 103.41 98.2199 103.26 98.2199 103.26C98.2199 103.26 105.3 40.5001 176.71 19.7401C176.71 19.7401 176.08 7.15005 187.72 5.90005C199.36 4.65005 221.7 3.07007 221.7 3.07007V3.23006C221.7 3.23006 244.03 4.80006 255.67 6.06006C267.31 7.32006 266.68 19.9001 266.68 19.9001C338.09 40.6601 345.17 103.42 345.17 103.42C345.17 103.42 349.26 103.58 349.73 108.61C350.18 113.28 349.8 123.41 349.75 124.8Z" fill="#F9DC1B"/>
<path opacity="0.73" d="M349.75 124.8H338.87C338.87 124.8 333.36 60.6201 266.83 28.5301L266.79 21.2701C266.79 21.2701 214.62 4.93006 176.6 22.5501L177.08 32.9401C177.08 32.9401 118.03 49.2901 103.56 124.48L93.6701 124.71C93.6301 123.66 93.2201 113.22 93.6701 108.44C94.1401 103.4 98.2301 103.25 98.2301 103.25C98.2301 103.25 105.31 40.4901 176.72 19.7301C176.72 19.7301 176.09 7.14006 187.73 5.89006C199.37 4.64006 221.71 3.06006 221.71 3.06006V3.22006C221.71 3.22006 244.04 4.79006 255.68 6.05006C267.32 7.31006 266.69 19.8901 266.69 19.8901C338.1 40.6501 345.18 103.41 345.18 103.41C345.18 103.41 349.27 103.57 349.74 108.6C350.18 113.28 349.8 123.41 349.75 124.8Z" fill="white"/>
<path d="M349.74 108.6C349.27 103.57 345.18 103.41 345.18 103.41C345.18 103.41 338.1 40.6501 266.69 19.8901C266.69 19.8901 267.32 7.31006 255.68 6.05006C244.04 4.79006 221.7 3.22006 221.7 3.22006V3.06006C221.7 3.06006 199.36 4.63006 187.72 5.89006C176.08 7.15006 176.71 19.7301 176.71 19.7301C105.3 40.4901 98.2201 103.25 98.2201 103.25C98.2201 103.25 94.1301 103.41 93.6601 108.44C93.1901 113.47 93.6601 124.8 93.6601 124.8H221.7V124.96H349.74C349.74 124.96 350.21 113.64 349.74 108.6Z" stroke="#0D2232" stroke-width="6" stroke-miterlimit="10" stroke-linecap="round" stroke-linejoin="round"/>
<path d="M266.07 332.86H296.39V498.54H146.65V332.86H266.07Z" fill="white"/>
<path d="M269.86 339.67H176.32V440.55H269.86V339.67Z" fill="#F9DC1B"/>
<path d="M296.4 461.73H146.65V498.54H296.4V461.73Z" fill="#F9DC1B"/>
<path d="M247.84 320.8C247.84 320.8 218.46 327.09 198.44 320.8L191.52 351.74L209.77 358.55C209.77 358.55 221.84 363.58 236.52 358.55C251.2 353.52 255.82 338.84 255.82 338.84L247.84 320.8Z" fill="#FBC6A6" stroke="#0D2232" stroke-width="6" stroke-miterlimit="10"/>
<path d="M266.89 354.83C266.1 366.68 264.2 377.64 264.2 377.64L236.51 358.55C236.51 358.55 239.68 351.04 242.29 343.6C243.81 339.25 245.15 334.91 245.53 332.12C246.58 324.57 247.84 320.8 247.84 320.8C247.84 320.8 263.99 319.96 266.5 334.85C267.45 340.41 267.36 347.77 266.89 354.83Z" fill="#435F84"/>
<path d="M266.89 354.83C259.76 354.3 251.46 350.75 247.18 347.71C245.46 346.48 243.78 345.12 242.29 343.6C243.81 339.25 245.15 334.91 245.53 332.12C246.58 324.57 247.84 320.8 247.84 320.8C247.84 320.8 263.99 319.96 266.5 334.85C267.45 340.41 267.36 347.77 266.89 354.83Z" fill="#253B5A"/>
<path d="M247.84 320.8C247.84 320.8 263.99 319.96 266.51 334.85C269.03 349.74 264.2 377.63 264.2 377.63L236.52 358.54C236.52 358.54 244.49 339.66 245.54 332.11C246.58 324.57 247.84 320.8 247.84 320.8Z" stroke="#0D2232" stroke-width="6" stroke-miterlimit="10"/>
<path d="M179.39 354.83C180.18 366.68 182.08 377.64 182.08 377.64L209.77 358.55C209.77 358.55 206.6 351.04 203.99 343.6C202.47 339.25 201.13 334.91 200.75 332.12C199.7 324.57 198.44 320.8 198.44 320.8C198.44 320.8 182.29 319.96 179.78 334.85C178.83 340.41 178.92 347.77 179.39 354.83Z" fill="#435F84"/>
<path d="M179.39 354.83C186.52 354.3 194.82 350.75 199.1 347.71C200.82 346.48 202.5 345.12 203.99 343.6C202.47 339.25 201.13 334.91 200.75 332.12C199.7 324.57 198.44 320.8 198.44 320.8C198.44 320.8 182.29 319.96 179.78 334.85C178.83 340.41 178.92 347.77 179.39 354.83Z" fill="#253B5A"/>
<path d="M198.44 320.8C198.44 320.8 182.29 319.96 179.77 334.85C177.25 349.74 182.08 377.63 182.08 377.63L209.76 358.54C209.76 358.54 201.79 339.66 200.74 332.11C199.69 324.56 198.44 320.8 198.44 320.8Z" stroke="#0D2232" stroke-width="6" stroke-miterlimit="10"/>
<path d="M201.28 392.31H162.27V427.96H201.28V392.31Z" fill="#F9DC1B" stroke="#0D2232" stroke-width="6" stroke-miterlimit="10"/>
<path d="M201.28 406.37H162.27" stroke="#0D2232" stroke-width="6" stroke-miterlimit="10"/>
<path d="M266.69 19.89C266.69 19.89 267.79 30.43 263.54 51.98Z" fill="#F9DC1B"/>
<path d="M266.69 19.89C266.69 19.89 267.79 30.43 263.54 51.98" stroke="#0D2232" stroke-width="6" stroke-miterlimit="10" stroke-linecap="round" stroke-linejoin="round"/>
<path d="M345.18 103.41H312.75C309.32 103.41 306.54 106.19 306.54 109.62V124.96" stroke="#0D2232" stroke-width="6" stroke-miterlimit="10" stroke-linecap="round" stroke-linejoin="round"/>
<path d="M176.72 19.7301C176.72 19.7301 175.62 30.2701 179.87 51.8201Z" fill="#F9DC1B"/>
<path d="M176.72 19.7301C176.72 19.7301 175.62 30.2701 179.87 51.8201" stroke="#0D2232" stroke-width="6" stroke-miterlimit="10" stroke-linecap="round" stroke-linejoin="round"/>
<path d="M98.2202 103.25H130.65C134.08 103.25 136.86 106.03 136.86 109.46V124.8" stroke="#0D2232" stroke-width="6" stroke-miterlimit="10" stroke-linecap="round" stroke-linejoin="round"/>
<path opacity="0.74" d="M351.6 134.19C345.14 131.73 338.04 131.78 331.14 131.85C280.69 132.39 230.24 132.92 179.79 133.46C157.37 133.7 134.96 133.94 112.54 134.18C102.59 134.29 91.4302 134.91 84.7302 142.25C83.4102 143.7 82.1202 145.48 80.1802 145.77C77.2202 146.22 75.0302 142.78 74.9702 139.79C74.8502 134.18 79.1702 129.23 84.2702 126.87C89.3702 124.52 95.1502 124.24 100.76 124.05C183.86 121.22 267.2 129.29 350.12 123.16C354.91 122.81 360.57 122.78 363.44 126.64C365.02 128.77 365.28 131.58 365.49 134.23C365.69 136.9 367.87 146.86 362.5 143.05C360.76 141.82 359.56 139.13 357.76 137.69C355.92 136.22 353.8 134.96 351.6 134.19Z" fill="white"/>
<path d="M364.97 148.08C364.97 148.08 353.96 143.99 339.17 143.99C324.38 143.99 104.33 143.99 104.33 143.99C104.33 143.99 84.3499 143.2 78.6899 148.08V134.4C78.6899 129.1 82.9899 124.8 88.2899 124.8H355.38C360.68 124.8 364.98 129.1 364.98 134.4V148.08H364.97Z" stroke="#0D2232" stroke-width="6" stroke-miterlimit="10" stroke-linecap="round" stroke-linejoin="round"/>
<path d="M127.7 178.08C127.7 178.08 127.16 207.07 127.7 215.41C128.24 223.75 122.58 231.3 113.93 225.48C105.28 219.66 106.96 185.06 106.96 185.06C106.96 185.06 115.93 185.47 127.7 178.08Z" fill="#253B5A" stroke="#0D2232" stroke-width="6" stroke-miterlimit="10"/>
<path d="M175.14 224.47C183.999 224.47 191.18 217.289 191.18 208.43C191.18 199.571 183.999 192.39 175.14 192.39C166.281 192.39 159.1 199.571 159.1 208.43C159.1 217.289 166.281 224.47 175.14 224.47Z" fill="#0D2232"/>
<path d="M269.97 224.47C278.829 224.47 286.01 217.289 286.01 208.43C286.01 199.571 278.829 192.39 269.97 192.39C261.112 192.39 253.93 199.571 253.93 208.43C253.93 217.289 261.112 224.47 269.97 224.47Z" fill="#0D2232"/>
<path d="M290.83 180.19C289.54 180.19 288.25 179.75 287.2 178.84C286.71 178.43 275.93 169.47 260.13 171.94C257.09 172.42 254.24 170.34 253.77 167.3C253.29 164.26 255.37 161.41 258.41 160.94C279.5 157.64 293.89 169.89 294.49 170.42C296.81 172.44 297.06 175.96 295.04 178.28C293.94 179.54 292.39 180.19 290.83 180.19Z" fill="#0D2232"/>
<path d="M154.75 180.19C156.04 180.19 157.33 179.75 158.38 178.84C158.87 178.43 169.65 169.47 185.45 171.94C188.49 172.42 191.34 170.34 191.81 167.3C192.29 164.26 190.21 161.41 187.17 160.94C166.08 157.64 151.69 169.89 151.09 170.42C148.77 172.44 148.52 175.96 150.54 178.28C151.64 179.54 153.19 180.19 154.75 180.19Z" fill="#0D2232"/>
<path d="M272.19 255.87C268 263.56 261.84 271.93 253.04 278.09C245.27 283.53 235.44 287.24 223.09 287.24C209.62 287.24 199.19 282.82 191.17 276.57C183.48 270.58 178.01 262.89 174.2 255.79C170.87 249.56 172.86 242.46 177.73 238.51C180.07 236.61 183.07 235.44 186.46 235.44H259.98C263.37 235.44 266.37 236.61 268.71 238.51C273.6 242.48 275.59 249.64 272.19 255.87Z" fill="#162336"/>
<path d="M251.88 252.64C236.1 252.64 188.7 252.64 188.7 252.64C188.7 252.64 176.07 253.12 177.74 238.51C180.08 236.61 183.08 235.44 186.47 235.44H259.99C263.38 235.44 266.38 236.61 268.72 238.51C268.89 238.66 267.65 252.64 251.88 252.64Z" fill="white"/>
<path d="M253.04 278.09C245.27 283.53 235.44 287.24 223.09 287.24C209.62 287.24 199.19 282.82 191.17 276.57C195.9 266.16 213.41 262.68 231.06 263.65C244.66 264.39 250.56 272.42 253.04 278.09Z" fill="#DD1010"/>
<path d="M186.46 235.44H259.98C270.47 235.44 277.21 246.66 272.19 255.87C264.29 270.36 249.43 287.24 223.09 287.24C196.7 287.24 181.98 270.3 174.2 255.79C169.27 246.58 176.01 235.44 186.46 235.44Z" stroke="#0D2232" stroke-width="6" stroke-miterlimit="10"/>
<path d="M296.4 498.54H146.65V532.41H296.4V498.54Z" fill="#253B5A" stroke="#0D2232" stroke-width="6" stroke-miterlimit="10"/>
<path d="M247.21 498.54H199.81V532.41H247.21V498.54Z" fill="#C3CDD4" stroke="#0D2232" stroke-width="6" stroke-miterlimit="10"/>
<path d="M365.21 709H368.57C370.19 709 371.51 710.31 371.51 711.94V720.59C371.51 722.99 369.56 724.94 367.16 724.94H290.77L275.15 714.45V724.94H236.4C234 724.94 232.05 722.99 232.05 720.59V704.13C232.05 701.84 233.91 699.98 236.2 699.99H237.64L339.27 699.1L365.21 709Z" fill="#484D60" stroke="#0D2232" stroke-width="6" stroke-miterlimit="10" stroke-linecap="round" stroke-linejoin="round"/>
<path d="M366.78 705.23L365.21 709H295.21L277.12 699.98H237.62C237.62 699.98 235.81 691.28 237.33 680.5C238.27 673.81 240.5 666.32 245.24 659.61H305.43L310.15 664.65C310.15 664.65 318.64 664.96 319.27 672.83C319.27 672.83 320.76 672.08 323.33 671.26C328.4 669.64 337.66 667.71 347.9 670.63C363.32 675.03 370.56 694.85 366.78 705.23Z" fill="#E89F02"/>
<path d="M260.76 699.99H237.62C237.62 699.99 235.81 691.29 237.33 680.51C237.42 680.5 237.52 680.5 237.62 680.49C260.73 679.33 260.76 699.99 260.76 699.99Z" fill="#834526"/>
<path opacity="0.75" d="M366.78 705.23L365.21 709H355.14C355.14 709 364.1 676.71 323.34 671.25C328.41 669.63 337.67 667.7 347.91 670.62C363.32 675.03 370.56 694.85 366.78 705.23Z" fill="white"/>
<path d="M305.44 659.61L310.16 664.64C310.16 664.64 318.65 664.95 319.28 672.82C319.28 672.82 332.49 666.21 347.91 670.62C363.33 675.02 370.56 694.84 366.79 705.23L365.22 709.01H295.22L277.13 699.99H237.63C237.63 699.99 232.88 677.13 245.25 659.62H305.44V659.61Z" stroke="#0D2232" stroke-width="6" stroke-miterlimit="10" stroke-linecap="round" stroke-linejoin="round"/>
<path d="M319.28 672.83C319.28 672.83 299.04 679.44 295.21 709.01" stroke="#0D2232" stroke-width="6" stroke-miterlimit="10" stroke-linecap="round" stroke-linejoin="round"/>
<path d="M310.16 664.65C310.16 664.65 296 667.48 290.76 680.48" stroke="#0D2232" stroke-width="6" stroke-miterlimit="10" stroke-linecap="round" stroke-linejoin="round"/>
<path d="M310.16 638.12H236.73V659.62H310.16V638.12Z" fill="#435F84" stroke="#0D2232" stroke-width="6" stroke-miterlimit="10" stroke-linecap="round" stroke-linejoin="round"/>
<path d="M303.55 638.12L295.06 532.41H222.17V552.97L232.03 552.34L242.52 638.12H303.55Z" fill="#435F84" stroke="#0D2232" stroke-width="6" stroke-miterlimit="10" stroke-linecap="round" stroke-linejoin="round"/>
<path d="M79.1399 709H75.7798C74.1598 709 72.8398 710.31 72.8398 711.94V720.59C72.8398 722.99 74.7898 724.94 77.1898 724.94H153.58L169.2 714.45V724.94H207.95C210.35 724.94 212.3 722.99 212.3 720.59V704.13C212.3 701.84 210.44 699.98 208.15 699.99H206.71L105.08 699.1L79.1399 709Z" fill="#484D60" stroke="#0D2232" stroke-width="6" stroke-miterlimit="10" stroke-linecap="round" stroke-linejoin="round"/>
<path d="M77.5601 705.23L79.1301 709H149.13L167.22 699.98H206.72C206.72 699.98 208.53 691.28 207.01 680.5C206.07 673.81 203.84 666.32 199.1 659.61H138.91L134.19 664.65C134.19 664.65 125.7 664.96 125.07 672.83C125.07 672.83 123.58 672.08 121.01 671.26C115.94 669.64 106.68 667.71 96.4401 670.63C81.0301 675.03 73.7901 694.85 77.5601 705.23Z" fill="#E89F02"/>
<path d="M183.59 699.99H206.73C206.73 699.99 208.54 691.29 207.02 680.51C206.93 680.5 206.83 680.5 206.73 680.49C183.62 679.33 183.59 699.99 183.59 699.99Z" fill="#834526"/>
<path opacity="0.75" d="M77.5601 705.23L79.1301 709H89.2001C89.2001 709 80.2401 676.71 121 671.25C115.93 669.63 106.67 667.7 96.4301 670.62C81.0301 675.03 73.7901 694.85 77.5601 705.23Z" fill="white"/>
<path d="M138.91 659.61L134.19 664.64C134.19 664.64 125.7 664.95 125.07 672.82C125.07 672.82 111.86 666.21 96.4399 670.62C81.0199 675.02 73.7899 694.84 77.5599 705.23L79.1299 709.01H149.13L167.22 699.99H206.72C206.72 699.99 211.47 677.13 199.1 659.62H138.91V659.61Z" stroke="#0D2232" stroke-width="6" stroke-miterlimit="10" stroke-linecap="round" stroke-linejoin="round"/>
<path d="M125.07 672.83C125.07 672.83 145.31 679.44 149.14 709.01" stroke="#0D2232" stroke-width="6" stroke-miterlimit="10" stroke-linecap="round" stroke-linejoin="round"/>
<path d="M134.19 664.65C134.19 664.65 148.35 667.48 153.59 680.48" stroke="#0D2232" stroke-width="6" stroke-miterlimit="10" stroke-linecap="round" stroke-linejoin="round"/>
<path d="M140.8 638.12L149.29 532.41H222.17V552.97L212.32 552.34L201.83 638.12H140.8Z" fill="#435F84" stroke="#0D2232" stroke-width="6" stroke-miterlimit="10" stroke-linecap="round" stroke-linejoin="round"/>
<path d="M104.57 420.93C104.57 420.93 91.2799 430.9 66.8699 422.72C42.4599 414.54 35.3799 386.65 35.3799 386.65V379.63L36.5699 379.45L78.0499 373.17H81.9699L95.2699 366.11L101.96 396.94L102.69 403.71L104.57 420.93Z" fill="#FBC6A6"/>
<path opacity="0.16" d="M104.57 420.93C104.57 420.93 84.8501 440.94 60.4501 432.75C36.0401 424.57 35.3901 386.64 35.3901 386.64V379.62L36.5801 379.44C43.9301 387.95 52.4701 395.44 61.8601 401.62C64.6101 403.42 67.4401 405.13 70.4901 406.36C78.6901 409.67 87.9101 409.2 96.1901 406.44C98.3201 405.73 100.41 404.86 102.42 403.86C102.51 403.82 102.6 403.77 102.7 403.7L104.57 420.93Z" fill="black"/>
<path d="M81.9799 373.16H78.0599L35.3799 379.63L47.0499 384.65C47.0499 384.65 38.9399 407.14 51.1199 420.91C54.0699 424.25 52.8799 430.84 57.6399 432.43C82.0499 440.61 104.57 420.93 104.57 420.93L101.97 396.93L95.2799 366.1L81.9799 373.16Z" stroke="#0D2232" stroke-width="6" stroke-miterlimit="10" stroke-linecap="round" stroke-linejoin="round"/>
<path d="M134.38 418.11L108.79 429.85L85.8401 381.32L79.6401 368.19L104.17 356.03L110.94 369.92L134.38 418.11Z" fill="#435F84"/>
<path opacity="0.21" d="M110.94 369.92L110.9 369.96L85.8401 381.32L79.6401 368.19L104.17 356.03L110.94 369.92Z" fill="white"/>
<path d="M146.65 339.67V406.37L132.07 413.92L110.9 369.96L106.48 360.78L146.65 339.67Z" fill="#F9DC1B"/>
<path opacity="0.5" d="M146.65 339.67V351.62L110.9 369.96L106.48 360.78L146.65 339.67Z" fill="white"/>
<g opacity="0.16">
<path d="M126.56 143.99H327.75L332.57 155.63H120.18L126.56 143.99Z" fill="black"/>
<path d="M106.95 185.06C106.95 185.06 142.57 193.84 178.22 155.64L146.64 150.85L106.95 185.06Z" fill="black"/>
<path d="M194.15 182.37C194.15 182.37 247.3 191.19 281.37 149.81L251.87 150.84L194.15 182.37Z" fill="black"/>
</g>
<path opacity="0.16" d="M324.55 208.43C324.55 208.43 307.25 305.81 203.99 318.33C203.99 318.33 312.12 333.69 325.49 229.24L324.55 208.43Z" fill="black"/>
<path d="M146.65 376L119.28 387.35L132.07 413.92L146.65 406.37V376Z" fill="#E89F02"/>
<path d="M290.37 480.14H152.56V492.43H290.37V480.14Z" fill="#E89F02"/>
<path d="M266.49 332.86H296.92V498.54H146.65V332.86H176.43" stroke="#0D2232" stroke-width="6" stroke-miterlimit="10"/>
<path d="M104.18 356.03L134.38 418.11L108.79 429.86L79.6401 368.19L104.18 356.03Z" stroke="#0D2232" stroke-width="6" stroke-miterlimit="10" stroke-linecap="round" stroke-linejoin="round"/>
<path d="M159.55 143.99C159.55 143.99 132.49 190.24 100.4 184.57C97.4901 184.05 94.8701 183.47 92.5401 182.85C69.1901 176.57 73.3501 165.44 73.3501 165.44C73.3501 165.44 92.8701 170.8 106.38 145.81C106.7 145.22 107.01 144.62 107.32 144H159.55V143.99Z" fill="#253B5A"/>
<path opacity="0.21" d="M98.2198 167.9C89.2298 173.4 85.6098 173.25 85.6098 173.25C85.6098 173.25 84.5098 177.82 92.5298 182.85C69.1798 176.57 73.3398 165.44 73.3398 165.44C73.3398 165.44 95.2199 168.98 108.73 143.99C108.75 144.33 107.12 162.46 98.2198 167.9Z" fill="white"/>
<path d="M371.9 169.79C371.9 169.79 358.54 190.52 335.23 185.81C321.88 183.11 305.26 172.06 286.01 144L343.57 144.12C343.57 144.12 343.75 147.01 344.97 150.85C347.42 158.52 354.07 170 371.9 169.79Z" fill="#253B5A"/>
<path opacity="0.21" d="M371.9 169.79C371.9 169.79 358.54 190.52 335.23 185.81C337.89 185.05 340.47 183.96 342.94 182.73C347.92 180.24 352.58 177.15 357.53 174.6C352.03 174.34 347.13 170.28 344.97 165.21C343.45 161.63 342.39 155.66 344.13 151.97C344.36 151.48 344.66 151.11 344.99 150.86C347.42 158.52 354.07 170 371.9 169.79Z" fill="white"/>
<path d="M343.57 144.11C343.57 144.11 345.15 170.1 371.89 169.79C371.89 169.79 338.86 221.07 286.01 143.99L343.57 144.11Z" stroke="#0D2232" stroke-width="6" stroke-miterlimit="10" stroke-linecap="round" stroke-linejoin="round"/>
<path d="M259.27 143.99C259.27 143.99 247 177.34 194.15 182.37C194.15 182.37 203.27 166.01 203.27 143.99H259.27Z" fill="#253B5A" stroke="#0D2232" stroke-width="6" stroke-miterlimit="10" stroke-linecap="round" stroke-linejoin="round"/>
<path d="M159.54 143.99C159.54 143.99 132.48 190.24 100.4 184.57C68.3199 178.9 73.3399 165.43 73.3399 165.43C73.3399 165.43 93.7899 171.04 107.32 143.98H159.54V143.99Z" stroke="#0D2232" stroke-width="6" stroke-miterlimit="10" stroke-linecap="round" stroke-linejoin="round"/>
<path d="M327.75 229.29C327.75 229.29 325.02 281.47 275.31 309.47C225.6 337.47 172.44 317.33 146.64 291.85C120.84 266.37 119.27 227.53 119.27 227.53" stroke="#0D2232" stroke-width="6" stroke-miterlimit="10"/>
<path d="M341.38 186.5C341.38 186.5 340.91 213.21 339.81 218.4C338.71 223.59 334.15 230.04 325.5 229.25C316.85 228.46 317.16 217.3 317.01 209.43C316.85 201.57 317.01 177.54 317.01 177.54C317.01 177.54 328.79 186.85 341.38 186.5Z" fill="#253B5A" stroke="#0D2232" stroke-width="6" stroke-miterlimit="10" stroke-linecap="round" stroke-linejoin="round"/>
<path d="M240.02 532.41L262.86 659.61H245.24H236.73V638.12H242.52L232.03 549L222.17 552.97V532.41H240.02Z" fill="#253B5A"/>
<path d="M186.02 638.12L181.78 659.61H207.62V638.12H201.83L212.32 549L222.17 552.97V532.41H199.81L186.02 638.12Z" fill="#253B5A"/>
<path d="M232.03 552.34L244.41 550.87" stroke="#0D2232" stroke-width="6" stroke-miterlimit="10" stroke-linecap="round" stroke-linejoin="round"/>
<path d="M212.32 552.34L199.94 550.87" stroke="#0D2232" stroke-width="6" stroke-miterlimit="10" stroke-linecap="round" stroke-linejoin="round"/>
<path d="M295.06 532.41H281.59L290.76 638.12H296.92V659.61H310.16V638.12H303.55L295.06 532.41Z" fill="#C3CDD4"/>
<path d="M149.95 532.41H163.42L154.25 638.12H148.09V659.61H134.85V638.12H141.46L149.95 532.41Z" fill="#C3CDD4"/>
<path d="M310.16 638.12H236.73V659.62H310.16V638.12Z" stroke="#0D2232" stroke-width="6" stroke-miterlimit="10" stroke-linecap="round" stroke-linejoin="round"/>
<path d="M303.55 638.12L295.06 532.41H222.17V552.97L232.03 552.34L242.52 638.12H303.55Z" stroke="#0D2232" stroke-width="6" stroke-miterlimit="10" stroke-linecap="round" stroke-linejoin="round"/>
<path d="M140.8 638.12L149.29 532.41H222.17V552.97L212.32 552.34L201.83 638.12H140.8Z" stroke="#0D2232" stroke-width="6" stroke-miterlimit="10" stroke-linecap="round" stroke-linejoin="round"/>
<path d="M373.03 545.09H355.83V610.23H373.03V545.09Z" fill="#E89F02"/>
<path d="M462.48 524.34V534.68C462.48 537.43 460.24 539.66 457.49 539.66H379.02C376.27 539.66 374.04 537.43 374.04 534.68V524.34C374.04 523.74 374.15 523.16 374.34 522.63C375.03 520.72 376.87 519.35 379.02 519.35H457.49C459.64 519.35 461.48 520.72 462.18 522.63C462.37 523.16 462.48 523.74 462.48 524.34Z" fill="#AFCADC"/>
<path opacity="0.2" d="M374.03 533.58V534.68C374.03 537.43 376.26 539.67 379.01 539.67H457.48C460.23 539.67 462.46 537.44 462.46 534.68V533.58H374.03Z" fill="black"/>
<path opacity="0.7" d="M462.17 522.63H374.33C375.02 520.72 376.86 519.35 379.01 519.35H457.48C459.64 519.35 461.48 520.71 462.17 522.63Z" fill="white"/>
<path d="M462.48 524.34V534.68C462.48 537.43 460.24 539.66 457.49 539.66H379.02C376.27 539.66 374.04 537.43 374.04 534.68V524.34C374.04 523.74 374.15 523.16 374.34 522.63C375.03 520.72 376.87 519.35 379.02 519.35H457.49C459.64 519.35 461.48 520.72 462.18 522.63C462.37 523.16 462.48 523.74 462.48 524.34Z" stroke="#0D2232" stroke-width="4" stroke-miterlimit="10" stroke-linecap="round" stroke-linejoin="round"/>
<path d="M288.53 538.02C288.53 538.02 309.74 554.73 374.03 548.31" stroke="white" stroke-miterlimit="10"/>
<path d="M270.53 498.16V586.88L282.1 598.45H361.17L350.57 590.09L351.21 498.16H270.53Z" fill="#F9DC1B"/>
<path d="M280.17 498.16V581.32L286.92 590.09H367.92L361.17 598.45H282.1L270.53 586.88V498.16H280.17Z" fill="#E89F02"/>
<path d="M282.74 510.52H277.6V515.66H282.74V510.52Z" fill="white"/>
<path d="M282.74 526.93H277.6V532.07H282.74V526.93Z" fill="white"/>
<path d="M282.74 543.35H277.6V548.49H282.74V543.35Z" fill="white"/>
<path d="M282.74 559.76H277.6V564.9H282.74V559.76Z" fill="white"/>
<path d="M282.74 576.17H277.6V581.31H282.74V576.17Z" fill="white"/>
<path d="M351.21 533.2V498.16H270.53V586.88L282.1 598.45H354.11" stroke="#0D2232" stroke-width="4" stroke-miterlimit="10" stroke-linecap="round" stroke-linejoin="round"/>
<path d="M150.96 522.93V582.37C150.96 582.37 126.53 601.01 89.2498 598.44C89.2498 598.44 73.8198 574.01 69.3198 533.19C69.3198 533.2 133.6 536.78 150.96 522.93Z" stroke="white" stroke-miterlimit="10"/>
<path d="M71.8701 549.78C71.8701 549.78 125.25 550.24 150.96 538.02" stroke="white" stroke-miterlimit="10"/>
<path d="M84.7002 589.81C84.7002 589.81 116.88 590.73 135.53 580.45L131.41 530.27L150.96 522.93V582.37C150.96 582.37 129.1 599.73 89.2502 598.44L84.7002 589.81Z" stroke="white" stroke-miterlimit="10"/>
<path d="M151.13 538.02C151.13 538.02 129.89 554.73 65.5298 548.31" stroke="white" stroke-miterlimit="10"/>
<path d="M169.15 498.16V586.88L157.57 598.45H78.3999L89.0199 590.09L88.3799 498.16H169.15Z" fill="#F9DC1B"/>
<path d="M159.5 498.16V581.32L152.74 590.09H71.6401L78.4001 598.45H157.57L169.15 586.88V498.16H159.5Z" fill="#E89F02"/>
<path d="M156.923 515.667H162.073V510.527H156.923V515.667Z" fill="white"/>
<path d="M156.923 532.082H162.073V526.942H156.923V532.082Z" fill="white"/>
<path d="M156.923 548.488H162.073V543.348H156.923V548.488Z" fill="white"/>
<path d="M156.923 564.903H162.073V559.763H156.923V564.903Z" fill="white"/>
<path d="M156.923 581.319H162.073V576.179H156.923V581.319Z" fill="white"/>
<path d="M88.3802 533.2V498.16H169.15V586.88L157.57 598.45L79.4702 597.61" stroke="#0D2232" stroke-width="4" stroke-miterlimit="10" stroke-linecap="round" stroke-linejoin="round"/>
<path d="M94.3001 468.1L98.9701 485.71L96.2401 488.62C92.9701 483.72 86.9301 480.99 80.8701 482.22C80.5801 482.28 80.2901 482.35 80.0001 482.42C81.2501 481.38 82.1601 480.2 82.7401 478.98C85.2801 473.67 81.9401 467.31 75.6701 466.17L71.8901 451.93C81.3801 453.24 88.2401 458.3 93.2901 465.93C93.7601 466.6 94.1001 467.33 94.3001 468.1Z" fill="#AFCADC"/>
<path d="M96.2202 488.93L96.0901 488.73C92.7901 483.78 86.7002 481.24 80.9202 482.41C80.6502 482.46 80.3702 482.53 80.0702 482.61L79.2302 482.83L79.9001 482.27C81.0901 481.28 82.0001 480.15 82.5901 478.89C83.7501 476.47 83.7002 473.7 82.4702 471.29C81.1402 468.7 78.6602 466.9 75.6602 466.35L75.5402 466.33L71.6602 451.69L71.9502 451.73C80.9802 452.98 88.0301 457.58 93.4901 465.81C93.9501 466.5 94.2902 467.25 94.5002 468.04L99.2002 485.75L96.2202 488.93ZM80.7202 482.05C80.7602 482.04 80.8002 482.03 80.8502 482.02C86.7002 480.83 92.8602 483.35 96.2802 488.3L98.7701 485.64L94.1201 468.14C93.9201 467.39 93.6002 466.68 93.1602 466.02C87.8202 457.98 80.9601 453.43 72.1801 452.15L75.8502 465.99C78.9102 466.58 81.4502 468.44 82.8102 471.11C84.1002 473.63 84.1401 476.52 82.9301 479.05C82.4101 480.15 81.6702 481.16 80.7202 482.05Z" fill="#000072"/>
<g opacity="0.55">
<path d="M82.7299 481.97C82.1199 482.01 81.4999 482.1 80.8799 482.22C80.5899 482.28 80.2999 482.35 80.0099 482.42C81.2599 481.38 82.1699 480.2 82.7499 478.98C85.2899 473.67 81.9499 467.31 75.6799 466.17L71.8999 451.93C72.9199 452.07 73.8999 452.25 74.8499 452.48L78.3699 465.73C84.6399 466.87 87.9799 473.22 85.4399 478.54C84.8699 479.76 83.9699 480.93 82.7299 481.97Z" fill="white"/>
</g>
<g opacity="0.55">
<path d="M82.7897 481.96L82.6997 481.98C82.7097 481.97 82.7097 481.97 82.7197 481.96C82.7497 481.96 82.7697 481.96 82.7897 481.96Z" fill="white"/>
<path d="M82.8397 482.15L81.9297 482.39L82.6697 481.78C82.7097 481.77 82.7397 481.77 82.7597 481.77L84.3897 481.73L82.8397 482.15Z" fill="#371A45"/>
</g>
<path d="M101.99 497.08L104.27 505.69C104.41 506.22 104.12 506.78 103.62 506.97C103.58 506.98 103.55 506.99 103.51 507L87.93 511.14C86.35 511.56 84.75 511.71 83.18 511.62C78.16 511.32 73.47 508.55 70.93 504.22C70.28 503.12 69.77 501.93 69.43 500.64C69 499.03 68.86 497.42 68.96 495.85C69.36 489.64 73.65 484.11 80 482.43H80.01C80.3 482.35 80.58 482.29 80.88 482.23C86.94 481 92.98 483.73 96.25 488.63C97.21 490.07 97.92 491.69 98.34 493.45C98.61 494.59 98.73 495.73 98.73 496.85L100.69 496.33C101.05 496.23 101.42 496.34 101.68 496.57C101.82 496.69 101.94 496.87 101.99 497.08Z" fill="#AFCADC"/>
<path d="M103.57 507.19L87.9901 511.33C86.4201 511.75 84.8001 511.91 83.1801 511.81C78.0601 511.51 73.3101 508.64 70.7701 504.32C70.1001 503.19 69.5901 501.97 69.2501 500.7C68.8301 499.1 68.6701 497.47 68.7701 495.84C69.1901 489.37 73.6801 483.91 79.9501 482.24C80.2801 482.15 80.5601 482.09 80.8401 482.03C86.7601 480.83 93.0201 483.43 96.4001 488.51C97.3901 490 98.1001 491.64 98.5101 493.39C98.7601 494.44 98.8901 495.52 98.9001 496.59L100.62 496.13C101.03 496.02 101.47 496.12 101.78 496.41C101.97 496.57 102.1 496.79 102.16 497.03L104.44 505.64C104.61 506.27 104.27 506.92 103.67 507.15C103.65 507.16 103.61 507.17 103.57 507.19ZM80.0701 482.6C73.9501 484.23 69.5701 489.55 69.1601 495.85C69.0501 497.44 69.2101 499.03 69.6201 500.58C69.9501 501.82 70.4501 503.01 71.1001 504.11C73.5701 508.32 78.2101 511.12 83.2001 511.41C84.7801 511.5 86.3601 511.35 87.8901 510.94L103.47 506.8C103.5 506.79 103.53 506.78 103.56 506.77C103.98 506.61 104.21 506.16 104.1 505.72L101.82 497.11C101.78 496.94 101.68 496.79 101.55 496.68C101.33 496.48 101.03 496.41 100.74 496.48L98.5401 497.06V496.81C98.5401 495.69 98.4101 494.56 98.1501 493.45C97.7501 491.74 97.0601 490.14 96.0901 488.69C92.7901 483.74 86.7001 481.2 80.9201 482.37C80.6501 482.46 80.3701 482.52 80.0701 482.6Z" fill="#000072"/>
<g opacity="0.3">
<path d="M94.3001 468.1L98.9702 485.71L96.2401 488.62C96.0601 488.35 95.8702 488.08 95.6702 487.82C92.3002 483.42 86.6001 481.05 80.8701 482.22C80.5801 482.28 80.2902 482.35 80.0002 482.42C81.2502 481.38 82.1601 480.2 82.7401 478.98C82.8201 478.95 82.9101 478.93 82.9901 478.91H83.0102C83.2902 478.84 83.5802 478.77 83.8802 478.71C86.5202 478.17 89.1501 478.39 91.5501 479.21C93.0101 479.71 94.4302 478.41 94.0402 476.92L91.9802 469.17C91.7802 468.4 91.4402 467.67 91.0002 467C86.4402 460.12 80.4102 455.33 72.3202 453.5L71.9102 451.95C81.4002 453.26 88.2601 458.32 93.3102 465.95C93.7602 466.6 94.1001 467.33 94.3001 468.1Z" fill="black"/>
<path d="M96.2199 488.93L96.0899 488.73C95.9099 488.45 95.7199 488.19 95.5299 487.95C92.1099 483.48 86.3799 481.31 80.9199 482.42C80.6499 482.47 80.3699 482.54 80.0699 482.62L79.2299 482.84L79.8999 482.28C81.0899 481.29 81.9999 480.16 82.5899 478.9L82.6299 478.82L82.7099 478.79C83.1099 478.66 83.5199 478.58 83.8599 478.51C86.4399 477.99 89.1199 478.16 91.6299 479.01C92.2499 479.22 92.9099 479.08 93.3899 478.64C93.8599 478.2 94.0399 477.58 93.8699 476.96L91.8099 469.21C91.6099 468.47 91.2899 467.76 90.8499 467.09C86.0099 459.79 79.9399 455.4 72.2799 453.67L72.1699 453.64L71.6499 451.7L71.9399 451.74C80.9699 452.99 88.0199 457.59 93.4799 465.82C93.9399 466.51 94.2799 467.26 94.4899 468.05L99.1899 485.76L96.2199 488.93ZM80.7199 482.05C80.7599 482.04 80.7999 482.03 80.8499 482.02C86.4499 480.88 92.3299 483.11 95.8399 487.7C95.9899 487.89 96.1399 488.09 96.2799 488.31L98.7699 485.65L94.1199 468.15C93.9199 467.4 93.5999 466.69 93.1599 466.03C87.8199 457.99 80.9599 453.44 72.1799 452.16L72.4899 453.32C80.1899 455.09 86.2999 459.53 91.1799 466.88C91.6399 467.58 91.9799 468.33 92.1899 469.11L94.2499 476.86C94.4499 477.62 94.2299 478.39 93.6599 478.92C93.0799 479.46 92.2799 479.63 91.5099 479.38C89.0699 478.55 86.4499 478.38 83.9399 478.89C83.6699 478.94 83.3599 479.01 83.0799 479.09C83.0199 479.11 82.9599 479.12 82.9099 479.14C82.3799 480.2 81.6499 481.18 80.7199 482.05Z" fill="#371A45"/>
</g>
<g opacity="0.55">
<path d="M90.89 483.74C88.47 482.9 85.8 482.67 83.13 483.21C82.84 483.27 82.55 483.34 82.26 483.41H82.25C75.91 485.09 71.62 490.63 71.21 496.83C71.11 498.4 71.25 500.02 71.68 501.62C72.02 502.9 72.53 504.1 73.18 505.2C74.58 507.58 76.62 509.49 79.02 510.77C75.67 509.6 72.75 507.3 70.93 504.2C70.28 503.1 69.77 501.91 69.43 500.62C69 499.01 68.86 497.4 68.96 495.83C69.36 489.62 73.65 484.09 80 482.41H80.01C80.3 482.33 80.58 482.27 80.88 482.21C84.41 481.5 87.92 482.13 90.89 483.74Z" fill="white"/>
</g>
<path d="M83.8302 504.7C88.1822 504.7 91.7102 501.172 91.7102 496.82C91.7102 492.468 88.1822 488.94 83.8302 488.94C79.4782 488.94 75.9502 492.468 75.9502 496.82C75.9502 501.172 79.4782 504.7 83.8302 504.7Z" fill="#CECEDD"/>
<g opacity="0.55">
<path d="M93.9099 496.23C95.0299 500.44 92.5199 504.75 88.3199 505.87C85.7199 506.56 83.0799 505.87 81.1699 504.24C82.6199 504.76 84.2399 504.86 85.8499 504.44C90.0599 503.32 92.5599 499.01 91.4399 494.8C91.0099 493.2 90.1199 491.84 88.9499 490.84C91.3099 491.68 93.2199 493.63 93.9099 496.23Z" fill="white"/>
</g>
<g opacity="0.3">
<path d="M88.6299 490.57C87.3399 490.21 85.9399 490.19 84.5499 490.56C80.3399 491.68 77.8399 495.99 78.9599 500.2C79.4199 501.95 80.4399 503.4 81.7799 504.42C79.1499 503.71 76.9699 501.66 76.2199 498.84C75.0999 494.63 77.6099 490.32 81.8099 489.2C84.2699 488.55 86.7599 489.13 88.6299 490.57Z" fill="black"/>
<path d="M82.6599 504.86L81.7199 504.61C78.9399 503.86 76.7599 501.67 76.0199 498.89C74.8799 494.59 77.4499 490.16 81.7499 489.02C84.1899 488.37 86.7399 488.88 88.7399 490.42L89.5199 491.02L88.5699 490.76C87.2799 490.4 85.9099 490.4 84.5899 490.75C80.4899 491.84 78.0399 496.06 79.1299 500.15C79.5699 501.8 80.5199 503.23 81.8799 504.27L82.6599 504.86ZM81.8599 489.39C77.7599 490.48 75.3099 494.7 76.3999 498.79C77.0199 501.12 78.7099 503.02 80.9099 503.93C79.8799 502.92 79.1499 501.67 78.7699 500.25C77.6299 495.95 80.1999 491.52 84.4999 490.38C85.5499 490.1 86.6499 490.04 87.7099 490.19C85.9499 489.15 83.8699 488.85 81.8599 489.39Z" fill="#371A45"/>
</g>
<path d="M87.6499 511.21L91.2599 524.81C91.7399 526.61 92.7899 528.22 94.2499 529.38L109.01 541.12C111.44 543.05 113.18 545.71 113.97 548.7L121.34 576.48C121.81 578.26 123.86 579.07 125.44 578.11C129.1 575.88 131.94 573.3 133.48 570.16C134.72 567.63 134.92 564.71 134.19 561.98L128.6 540.94C128.04 538.83 126.92 536.92 125.36 535.39L115.6 525.85C113.69 523.98 112.56 521.44 112.53 518.77C112.5 515.75 113.09 512.39 114.04 508.83C114.63 506.61 112.61 504.58 110.39 505.17L87.6499 511.21Z" fill="#F9DC1B"/>
<path d="M128.61 540.93L134.2 561.98C134.92 564.71 134.73 567.63 133.49 570.16C131.95 573.3 129.1 575.88 125.44 578.11C124.36 578.77 123.06 578.59 122.2 577.85C125.28 575.8 127.68 573.45 129.05 570.66C130.29 568.13 130.49 565.21 129.76 562.48L124.17 541.43C123.61 539.32 122.49 537.41 120.93 535.88L111.17 526.34C109.26 524.47 108.13 521.93 108.11 519.26C108.08 516.24 108.67 512.88 109.62 509.32C110.02 507.81 109.21 506.38 107.95 505.82L110.42 505.17C112.64 504.58 114.66 506.61 114.07 508.83C113.12 512.39 112.53 515.75 112.56 518.77C112.59 521.44 113.72 523.98 115.62 525.85L125.38 535.39C126.93 536.91 128.05 538.83 128.61 540.93Z" fill="#E89F02"/>
<g opacity="0.55">
<path d="M124.56 577.61C124.63 577.88 124.74 578.14 124.88 578.36C123.41 578.86 121.76 578.05 121.34 576.47L113.97 548.69C113.18 545.7 111.44 543.04 109.01 541.11L94.2499 529.37C92.7899 528.21 91.7399 526.61 91.2599 524.8L87.6499 511.2L110.42 505.16C111.71 504.82 112.92 505.36 113.61 506.3L90.8699 512.33L94.4799 525.93C94.9599 527.74 96.0099 529.34 97.4699 530.5L112.23 542.24C114.65 544.17 116.39 546.83 117.19 549.82L124.56 577.61Z" fill="white"/>
</g>
<path d="M87.65 511.21L91.26 524.81C91.74 526.61 91.62 528.52 90.93 530.26L83.93 547.77C82.78 550.65 82.59 553.82 83.38 556.82L90.75 584.6C91.22 586.38 89.84 588.1 88 588.04C83.72 587.92 79.97 587.09 77.07 585.13C74.73 583.55 73.12 581.11 72.39 578.38L66.8 557.34C66.24 555.23 66.26 553.02 66.86 550.92L70.6 537.8C71.33 535.23 71.05 532.47 69.75 530.13C68.28 527.49 66.1 524.86 63.51 522.24C61.9 520.61 62.65 517.85 64.86 517.26L87.65 511.21Z" fill="#F9DC1B"/>
<path d="M87.6497 511.21L91.2598 524.81C91.7398 526.62 91.6197 528.53 90.9297 530.26L83.9297 547.77C82.7797 550.65 82.5898 553.82 83.3798 556.82L90.7498 584.6C91.2198 586.38 89.8398 588.1 87.9998 588.05C87.2098 588.03 86.4298 587.98 85.6698 587.9C85.9998 587.31 86.1098 586.6 85.9198 585.88L78.5497 558.1C77.7597 555.11 77.9498 551.93 79.0998 549.05L86.0998 531.54C86.7898 529.81 86.9097 527.9 86.4297 526.09L82.8198 512.49L87.6497 511.21Z" fill="#E89F02"/>
<g opacity="0.55">
<path d="M67.4998 523.17C70.0898 525.79 72.2697 528.42 73.7397 531.06C75.0397 533.39 75.3198 536.16 74.5898 538.73L70.8498 551.85C70.2498 553.95 70.2298 556.17 70.7898 558.27L76.3798 579.32C77.0998 582.05 78.7197 584.49 81.0497 586.07C82.0797 586.77 83.2198 587.32 84.4498 587.75C81.6398 587.35 79.1498 586.53 77.0898 585.13C74.7598 583.55 73.1398 581.11 72.4198 578.38L66.8297 557.33C66.2697 555.22 66.2898 553 66.8898 550.91L70.6298 537.79C71.3598 535.22 71.0798 532.46 69.7798 530.13C68.3098 527.49 66.1298 524.86 63.5398 522.24C61.9298 520.61 62.6798 517.84 64.8898 517.26L87.6498 511.21L88.1398 513.07L68.8398 518.2C66.6298 518.78 65.8798 521.54 67.4998 523.17Z" fill="white"/>
</g>
<path d="M83.1797 511.61L83.3697 512.34L70.4897 515.76L68.1297 506.88C67.8697 505.89 68.4597 504.87 69.4497 504.61L70.9197 504.22C73.4697 508.54 78.1597 511.32 83.1797 511.61Z" fill="#AFCADC"/>
<path d="M83.6099 512.48L70.3599 516L67.9499 506.93C67.6599 505.84 68.3099 504.71 69.4099 504.42L71.0199 503.99L71.0899 504.12C73.5599 508.33 78.1999 511.13 83.1899 511.42L83.3299 511.43L83.6099 512.48ZM70.6299 515.53L83.1399 512.21L83.0299 511.8C78.0199 511.46 73.3699 508.65 70.8399 504.44L69.5099 504.79C68.6199 505.03 68.0899 505.94 68.3299 506.83L70.6299 515.53Z" fill="#000072"/>
<g opacity="0.55">
<path d="M71.0601 504.18C71.2601 504.53 71.4901 504.87 71.7201 505.2L71.5901 505.24C70.6001 505.5 70.0101 506.52 70.2701 507.51L72.3301 515.28L70.6201 515.73L68.2601 506.85C68.0001 505.86 68.5901 504.84 69.5801 504.58L71.0601 504.18Z" fill="white"/>
</g>
<path d="M79.9997 482.42C73.6597 484.1 69.3697 489.64 68.9597 495.84L65.1597 494.67L60.4897 477.06C60.2797 476.29 60.2097 475.49 60.2697 474.69C60.8797 465.56 64.3197 457.76 71.9097 451.92L75.6897 466.16C69.6797 471.21 71.4597 480.94 79.9997 482.42Z" fill="#AFCADC"/>
<path d="M69.14 496.1L65.01 494.83L60.3099 477.12C60.0999 476.33 60.0199 475.51 60.0799 474.68C60.7399 464.83 64.5699 457.33 71.7999 451.77L72.0299 451.59L75.9099 466.23L75.82 466.31C72.93 468.73 71.7199 472.39 72.6499 475.85C73.5499 479.19 76.31 481.57 80.04 482.22L80.8999 482.37L80.0499 482.59C73.9399 484.21 69.5599 489.54 69.1599 495.84L69.14 496.1ZM65.3299 494.53L68.79 495.6C69.28 489.49 73.4099 484.32 79.2099 482.46C75.7199 481.61 73.1499 479.22 72.2799 475.97C71.3199 472.4 72.55 468.63 75.48 466.11L71.8099 452.27C64.8199 457.74 61.1099 465.09 60.4699 474.72C60.4199 475.51 60.4899 476.29 60.6899 477.03L65.3299 494.53Z" fill="#000072"/>
<g opacity="0.3">
<path d="M77.3296 483.41C77.3796 483.39 77.4296 483.36 77.4796 483.34C77.4996 483.34 77.5196 483.35 77.5396 483.35C77.4696 483.37 77.3996 483.39 77.3296 483.41Z" fill="#262F6A"/>
<path d="M77.3898 483.6L77.2397 483.25C77.2897 483.22 77.3497 483.2 77.3997 483.17L77.4498 483.15L77.5497 483.16L78.3498 483.32L77.5898 483.53C77.5198 483.56 77.4598 483.58 77.3898 483.6Z" fill="#371A45"/>
</g>
<g opacity="0.3">
<path d="M77.8797 481.84C78.4697 482.07 78.4797 482.9 77.8897 483.16C77.7497 483.22 77.6097 483.28 77.4797 483.35C68.9897 481.83 66.6097 472.03 72.5997 467L69.2197 454.26C70.0497 453.45 70.9497 452.68 71.9197 451.94L75.6997 466.18C70.2197 470.76 71.2097 479.24 77.8797 481.84Z" fill="#262F6A"/>
<path d="M77.5098 483.54L77.4498 483.53C73.3998 482.8 70.3897 480.15 69.3997 476.43C68.4697 472.94 69.6098 469.3 72.3898 466.92L69.0098 454.19L69.0898 454.11C69.9298 453.3 70.8397 452.51 71.7997 451.77L72.0298 451.59L75.9098 466.23L75.8198 466.31C73.1898 468.52 71.9298 471.77 72.4698 475.01C72.9698 478.07 74.9697 480.5 77.9597 481.66C78.2997 481.8 78.5198 482.11 78.5298 482.48C78.5398 482.86 78.3298 483.18 77.9798 483.33C77.8398 483.39 77.7098 483.45 77.5698 483.52L77.5098 483.54ZM69.4297 454.31L72.8098 467.06L72.7198 467.14C69.9898 469.43 68.8598 472.95 69.7598 476.34C70.7098 479.89 73.5798 482.43 77.4398 483.15C77.5598 483.09 77.6798 483.04 77.8098 482.98C78.0498 482.88 78.1298 482.66 78.1298 482.49C78.1298 482.28 78.0098 482.1 77.8098 482.02C74.6998 480.81 72.6097 478.28 72.0797 475.08C71.5297 471.75 72.7998 468.4 75.4698 466.11L71.7997 452.27C70.9697 452.91 70.1697 453.6 69.4297 454.31Z" fill="#371A45"/>
</g>
<g opacity="0.55">
<path d="M71.9197 451.93L72.4597 453.98C66.3897 459.58 63.5597 466.7 63.0097 474.9C62.9597 475.7 63.0297 476.5 63.2297 477.27L67.8997 494.88L69.0097 495.22C68.9897 495.43 68.9697 495.64 68.9597 495.85L65.1597 494.68L60.4897 477.07C60.2797 476.3 60.2097 475.5 60.2697 474.7C60.8797 465.57 64.3297 457.77 71.9197 451.93Z" fill="white"/>
</g>
<g opacity="0.2">
<path d="M101.99 497.08L104.27 505.69C104.41 506.22 104.12 506.78 103.62 506.97L90.71 510.4C96.96 507.37 100.01 503.06 99.24 497.2L101.67 496.56C101.82 496.69 101.94 496.87 101.99 497.08Z" fill="black"/>
</g>
<path d="M83.1797 511.61L83.3697 512.34L70.4897 515.76L68.1297 506.88C67.8697 505.89 68.4597 504.87 69.4497 504.61L70.9197 504.22C73.4697 508.54 78.1597 511.32 83.1797 511.61Z" stroke="#0D2232" stroke-width="4" stroke-miterlimit="10" stroke-linecap="round" stroke-linejoin="round"/>
<path d="M87.6499 511.21L91.2599 524.81C91.7399 526.61 92.7899 528.22 94.2499 529.38L109.01 541.12C111.44 543.05 113.18 545.71 113.97 548.7L121.34 576.48C121.81 578.26 123.86 579.07 125.44 578.11C129.1 575.88 131.94 573.3 133.48 570.16C134.72 567.63 134.92 564.71 134.19 561.98L128.6 540.94C128.04 538.83 126.92 536.92 125.36 535.39L115.6 525.85C113.69 523.98 112.56 521.44 112.53 518.77C112.5 515.75 113.09 512.39 114.04 508.83C114.63 506.61 112.61 504.58 110.39 505.17L87.6499 511.21Z" stroke="#0D2232" stroke-width="4" stroke-miterlimit="10" stroke-linecap="round" stroke-linejoin="round"/>
<path d="M87.6495 511.21L91.2595 524.81C91.7395 526.61 91.6195 528.52 90.9295 530.26L83.9295 547.77C82.7795 550.65 82.5895 553.82 83.3795 556.82L90.7495 584.6C91.2195 586.38 89.8395 588.1 87.9995 588.04C83.7195 587.92 79.9695 587.09 77.0695 585.13C74.7295 583.55 73.1195 581.11 72.3895 578.38L66.7995 557.34C66.2395 555.23 66.2595 553.02 66.8595 550.92L70.5995 537.8C71.3295 535.23 71.0495 532.47 69.7495 530.13C68.2795 527.49 66.0995 524.86 63.5095 522.24C61.8995 520.61 62.6495 517.85 64.8595 517.26L87.6495 511.21Z" stroke="#0D2232" stroke-width="4" stroke-miterlimit="10" stroke-linecap="round" stroke-linejoin="round"/>
<path d="M94.2996 468.1L98.9696 485.71L96.2396 488.62C92.9696 483.72 86.9296 480.99 80.8696 482.22C80.5796 482.28 80.2896 482.35 79.9996 482.42C81.2496 481.38 82.1596 480.2 82.7396 478.98C85.2796 473.67 81.9396 467.31 75.6696 466.17L71.8896 451.93C81.3796 453.24 88.2396 458.3 93.2896 465.93C93.7596 466.6 94.0996 467.33 94.2996 468.1Z" stroke="#0D2232" stroke-width="4" stroke-miterlimit="10" stroke-linecap="round" stroke-linejoin="round"/>
<path d="M101.99 497.08L104.27 505.69C104.41 506.22 104.12 506.78 103.62 506.97C103.58 506.98 103.55 506.99 103.51 507L87.9295 511.14C86.3495 511.56 84.7495 511.71 83.1795 511.62C78.1595 511.32 73.4695 508.55 70.9295 504.22C70.2795 503.12 69.7695 501.93 69.4295 500.64C68.9995 499.03 68.8595 497.42 68.9595 495.85C69.3595 489.64 73.6495 484.11 79.9995 482.43H80.0095C80.2995 482.35 80.5795 482.29 80.8795 482.23C86.9395 481 92.9795 483.73 96.2495 488.63C97.2095 490.07 97.9195 491.69 98.3395 493.45C98.6095 494.59 98.7295 495.73 98.7295 496.85L100.69 496.33C101.05 496.23 101.42 496.34 101.68 496.57C101.82 496.69 101.94 496.87 101.99 497.08Z" stroke="#0D2232" stroke-width="4" stroke-miterlimit="10" stroke-linecap="round" stroke-linejoin="round"/>
<path d="M79.9997 482.42C73.6597 484.1 69.3697 489.64 68.9597 495.84L65.1597 494.67L60.4897 477.06C60.2797 476.29 60.2097 475.49 60.2697 474.69C60.8797 465.56 64.3197 457.76 71.9097 451.92L75.6897 466.16C69.6797 471.21 71.4597 480.94 79.9997 482.42Z" stroke="#0D2232" stroke-width="4" stroke-miterlimit="10" stroke-linecap="round" stroke-linejoin="round"/>
<path d="M83.8302 504.7C88.1822 504.7 91.7102 501.172 91.7102 496.82C91.7102 492.468 88.1822 488.94 83.8302 488.94C79.4782 488.94 75.9502 492.468 75.9502 496.82C75.9502 501.172 79.4782 504.7 83.8302 504.7Z" stroke="#0D2232" stroke-width="4" stroke-miterlimit="10" stroke-linecap="round" stroke-linejoin="round"/>
<path d="M136.14 528.67H115.59C113.4 528.67 111.62 526.89 111.62 524.7V523.57C111.62 521.38 113.4 519.6 115.59 519.6H136.14C138.33 519.6 140.11 521.38 140.11 523.57V524.7C140.11 526.9 138.34 528.67 136.14 528.67Z" fill="#F9DC1B"/>
<path d="M134.48 528.67H117.34V535.75H134.48V528.67Z" fill="#F9DC1B"/>
<path d="M127.64 580.23H124.09C117.2 580.23 111.62 574.65 111.62 567.76V539.9C111.62 537.61 113.47 535.76 115.76 535.76H135.97C138.26 535.76 140.11 537.61 140.11 539.9V567.76C140.11 574.64 134.53 580.23 127.64 580.23Z" fill="#F9DC1B"/>
<path d="M140.11 522.65V525.63C140.11 527.31 138.75 528.67 137.07 528.67H132.07C133.75 528.67 135.11 527.31 135.11 525.63V522.65C135.11 520.97 133.75 519.61 132.07 519.61H137.07C138.75 519.61 140.11 520.97 140.11 522.65Z" fill="#E89F02"/>
<path d="M134.49 528.68H129.49V535.76H134.49V528.68Z" fill="#E89F02"/>
<path d="M140.11 538.78V566.4C140.11 574.04 133.92 580.23 126.28 580.23H126.01C131.04 580.23 135.12 576.15 135.12 571.12V538.78C135.12 537.11 133.77 535.76 132.1 535.76H137.1C138.76 535.75 140.11 537.11 140.11 538.78Z" fill="#E89F02"/>
<g opacity="0.55">
<path d="M118.2 528.68H114.67C112.99 528.68 111.63 527.32 111.63 525.64V522.66C111.63 520.98 112.99 519.62 114.67 519.62H118.2C116.52 519.62 115.16 520.98 115.16 522.66V525.64C115.16 527.31 116.52 528.68 118.2 528.68Z" fill="white"/>
</g>
<g opacity="0.55">
<path d="M120.87 528.68H117.34V535.76H120.87V528.68Z" fill="white"/>
</g>
<g opacity="0.55">
<path d="M124.27 580.23H120.74C115.71 580.23 111.63 576.15 111.63 571.12V538.78C111.63 537.11 112.98 535.76 114.65 535.76H118.18C116.51 535.76 115.16 537.11 115.16 538.78V571.12C115.16 576.15 119.24 580.23 124.27 580.23Z" fill="white"/>
</g>
<path d="M135.81 480.9L133.49 488.08H130.51V519.61H121.56V488.08H118.58L116.26 480.9L119.91 460.36H132.16L135.81 480.9Z" fill="#AFCADC"/>
<path d="M130.67 519.77H121.39V488.24H118.45L116.08 480.91L116.09 480.87L119.76 460.19H132.29L135.97 480.91L133.6 488.24H130.66V519.77H130.67ZM121.73 519.44H130.34V487.91H133.37L135.64 480.89L132.03 460.53H120.05L116.44 480.89L118.71 487.91H121.74V519.44H121.73Z" fill="#000072"/>
<g opacity="0.2">
<path d="M129.69 488.08H130.51V519.61H127.75V490.02C127.75 488.95 128.62 488.08 129.69 488.08Z" fill="black"/>
</g>
<g opacity="0.2">
<path d="M135.81 480.9L133.49 488.08H130.73L133.05 480.9L129.4 460.36H132.16L135.81 480.9Z" fill="black"/>
</g>
<g opacity="0.55">
<path d="M119.12 480.9L121.44 488.08H118.91L116.59 480.9L120.24 460.36H122.77L119.12 480.9Z" fill="white"/>
</g>
<g opacity="0.55">
<path d="M124.42 489.73V519.61H121.89V488.08H122.77C123.68 488.08 124.42 488.82 124.42 489.73Z" fill="white"/>
</g>
<g opacity="0.2">
<path d="M125.52 554.77C125.52 558.43 123.98 561.4 122.07 561.4C120.17 561.4 120.14 558.43 120.14 554.77C120.14 551.11 120.17 548.14 122.07 548.14C123.97 548.15 125.52 551.12 125.52 554.77Z" fill="white"/>
</g>
<path d="M136.14 528.67H115.59C113.4 528.67 111.62 526.89 111.62 524.7V523.57C111.62 521.38 113.4 519.6 115.59 519.6H136.14C138.33 519.6 140.11 521.38 140.11 523.57V524.7C140.11 526.9 138.34 528.67 136.14 528.67Z" stroke="#0D2232" stroke-width="4" stroke-miterlimit="10" stroke-linecap="round" stroke-linejoin="round"/>
<path d="M134.48 528.67H117.34V535.75H134.48V528.67Z" stroke="#0D2232" stroke-width="4" stroke-miterlimit="10" stroke-linecap="round" stroke-linejoin="round"/>
<path d="M127.64 580.23H124.09C117.2 580.23 111.62 574.65 111.62 567.76V539.9C111.62 537.61 113.47 535.76 115.76 535.76H135.97C138.26 535.76 140.11 537.61 140.11 539.9V567.76C140.11 574.64 134.53 580.23 127.64 580.23Z" stroke="#0D2232" stroke-width="4" stroke-miterlimit="10" stroke-linecap="round" stroke-linejoin="round"/>
<path d="M135.81 480.9L133.49 488.08H130.51V519.61H121.56V488.08H118.58L116.26 480.9L119.91 460.36H132.16L135.81 480.9Z" stroke="#0D2232" stroke-width="4" stroke-miterlimit="10" stroke-linecap="round" stroke-linejoin="round"/>
<path d="M151.13 522.93V581.09C151.13 581.09 139.54 598.45 117.02 598.45C94.4998 598.45 78.3998 598.45 78.3998 598.45L71.6398 589.77C71.6398 589.77 66.1698 548.95 65.5298 533.2C65.5298 533.2 127.32 534.85 151.13 522.93Z" fill="#FEC400"/>
<path d="M145.86 525.15V568.81C145.86 576.24 141.66 583.05 134.98 586.31C123.99 591.68 103.96 596.8 71.6499 589.78L78.4099 598.46L120.41 598.7C120.41 598.7 142.13 595.89 151.14 581.1V522.94L145.86 525.15Z" fill="#E89F02"/>
<path d="M151.13 522.93V577.29C151.13 580 150.1 582.6 148.26 584.58C143.54 589.65 133.05 598.44 117.02 598.44H83.62C80.33 598.44 77.22 596.92 75.2 594.32L73.43 592.05C72.26 590.55 71.51 588.76 71.27 586.88C70.02 577.3 66.08 546.41 65.54 533.19C65.53 533.2 127.32 534.85 151.13 522.93Z" stroke="#0D2232" stroke-width="4" stroke-miterlimit="10" stroke-linecap="round" stroke-linejoin="round"/>
<path d="M151.13 538.02C151.13 538.02 131.41 554.92 67.0498 548.49" stroke="#0D2232" stroke-width="4" stroke-miterlimit="10" stroke-linecap="round" stroke-linejoin="round"/>
<path d="M134.195 659.609L207.625 659.609L207.625 638.109L134.195 638.109L134.195 659.609Z" stroke="#0D2232" stroke-width="6" stroke-miterlimit="10" stroke-linecap="round" stroke-linejoin="round"/>
<path d="M146.65 339.67L106.48 360.78L132.07 413.92L146.65 406.37V339.67Z" stroke="#0D2232" stroke-width="6" stroke-miterlimit="10"/>
<path d="M363.43 376.55C363.43 376.55 391.07 392.62 385.29 413.84C379.51 435.06 338.36 463.34 338.36 463.34C338.36 463.34 336.43 439.55 307.5 434.41L325.5 416.41L363.43 376.55Z" fill="#FBC6A6"/>
<path d="M307.5 434.4L298.5 439.86V495.79H339L338.36 463.33C338.36 463.33 335.79 438.9 307.5 434.4Z" fill="#FBC6A6"/>
<path opacity="0.16" d="M359.37 380.81C359.37 380.81 384.85 393.25 379.2 413.97C373.55 434.7 337.9 456.72 337.9 456.72" stroke="black" stroke-width="6" stroke-miterlimit="10"/>
<path opacity="0.16" d="M335 495.8L334.36 450.75" stroke="black" stroke-width="6" stroke-miterlimit="10"/>
<path opacity="0.5" d="M313.67 434.97L368.81 378.05" stroke="white" stroke-width="6" stroke-miterlimit="10"/>
<path opacity="0.5" d="M303.67 436.12V497.36" stroke="white" stroke-width="6" stroke-miterlimit="10"/>
<path d="M363.43 376.55C363.43 376.55 391.07 392.62 385.29 413.84C379.51 435.06 338.36 463.34 338.36 463.34C338.36 463.34 336.43 439.55 307.5 434.41L325.5 416.41L363.43 376.55Z" stroke="#0D2232" stroke-width="6" stroke-miterlimit="10" stroke-linecap="round" stroke-linejoin="round"/>
<path d="M307.5 434.4L298.5 439.86V495.79H339L338.36 463.33C338.36 463.33 335.79 438.9 307.5 434.4Z" stroke="#0D2232" stroke-width="6" stroke-miterlimit="10" stroke-linecap="round" stroke-linejoin="round"/>
<path d="M309.19 418.11L334.78 429.85L357.72 381.32L363.93 368.19L339.39 356.03L332.63 369.92L309.19 418.11Z" fill="#435F84"/>
<path opacity="0.21" d="M332.63 369.92L332.67 369.96L357.72 381.32L363.93 368.19L339.39 356.03L332.63 369.92Z" fill="white"/>
<path d="M296.92 339.67V406.37L311.5 413.92L332.67 369.96L337.08 360.78L296.92 339.67Z" fill="#F9DC1B"/>
<path opacity="0.5" d="M296.92 339.67V351.62L332.67 369.96L337.08 360.78L296.92 339.67Z" fill="white"/>
<path d="M320.11 396.02L296.92 386.65V406.37L311.5 413.92L320.11 396.02Z" fill="#E89F02"/>
<path d="M339.39 356.03L309.19 418.11L334.78 429.86L363.93 368.19L339.39 356.03Z" stroke="#0D2232" stroke-width="6" stroke-miterlimit="10" stroke-linecap="round" stroke-linejoin="round"/>
<path d="M296.92 339.67L337.08 360.78L311.5 413.92L296.92 406.37V339.67Z" stroke="#0D2232" stroke-width="6" stroke-miterlimit="10"/>
<path fill-rule="evenodd" clip-rule="evenodd" d="M78.14 429.86C66.36 437.1 58.0499 438.06 48.0299 425.95C39.9899 416.24 32.5199 366.84 31.9399 341.51C46.1799 334.13 56.76 329.17 64.4799 325.83C65.0499 342.94 80.0799 379.41 86.6299 402.69C89.8899 414.33 88.82 423.29 78.14 429.86Z" fill="#F7BB9C"/>
<path opacity="0.16" d="M35.6499 353.36C35.6499 353.36 40.9699 409.22 49.8999 423.32C58.8299 437.42 69.7799 434.56 79.6399 429.74" stroke="black" stroke-width="6" stroke-miterlimit="10"/>
<path opacity="0.5" d="M64.1099 344.98L79.6699 392.94L87.6999 420.91" stroke="white" stroke-width="6" stroke-miterlimit="10"/>
<path fill-rule="evenodd" clip-rule="evenodd" d="M78.14 429.86C66.36 437.1 58.0499 438.06 48.0299 425.95C39.9899 416.24 32.5199 366.84 31.9399 341.51C46.1799 334.13 56.76 329.17 64.4799 325.83C65.0499 342.94 80.0799 379.41 86.6299 402.69C89.8899 414.33 88.82 423.29 78.14 429.86Z" stroke="#0D2232" stroke-width="6" stroke-miterlimit="10" stroke-linecap="round" stroke-linejoin="round"/>
<path d="M83.32 303.65C76.42 301.54 66.54 306.85 62.63 316.13C61.63 317.96 60.71 313.73 60.08 309.21C58.88 300.67 57.54 280.67 53.14 278.4C48.33 275.91 41.54 277.99 41.27 286.14C41.03 293.2 45.4 310.3 44.05 315.34C42.71 320.37 31.26 288.87 26.42 286.07C21.78 283.39 15.09 286.98 16.32 293.42C17.51 299.63 28.25 314.01 28.54 319.36C28.54 319.36 23.48 315.18 18.9 311.46C18.9 311.46 11.83 304.01 7.77002 304.48C3.71002 304.96 0.800013 312.04 7.58001 318.28C12.18 322.51 20.95 330.35 23.55 334.54C26.15 338.74 26.63 350.55 34.47 353.75C41.4 356.58 59.97 355.87 67.13 344.33C69.52 342.21 71.94 338.95 72.97 334.02C75.27 323.02 79.57 319.31 84.95 317.88C90.32 316.45 90.46 305.83 83.32 303.65Z" fill="#FBC6A6"/>
<path opacity="0.07" d="M60.0802 309.2C58.8802 300.66 57.5402 280.66 53.1402 278.39C50.0602 276.8 46.1902 277.09 43.7202 279.62C44.4902 279.44 45.3602 279.37 46.3802 279.54C51.0902 280.33 52.1802 290.59 52.8002 296.61C53.4202 302.63 54.2602 315.68 55.8502 318.44C57.4302 321.2 60.2602 323.23 62.6402 316.12C61.6302 317.96 60.7102 313.73 60.0802 309.2Z" fill="black"/>
<path opacity="0.07" d="M44.0401 315.33C42.7001 320.36 31.2601 288.86 26.4101 286.06C23.6701 284.48 20.2401 285.09 18.1201 287.17C19.2801 287.07 20.5901 287.19 21.8301 287.84C25.2001 289.6 30.6201 302.42 31.9701 305.52C33.3201 308.62 37.5201 317.75 39.1701 318.72C40.8101 319.69 43.8701 320.03 44.0401 315.33Z" fill="black"/>
<path opacity="0.07" d="M28.5301 319.35C28.5301 319.35 23.4701 315.17 18.8901 311.45C18.8901 311.45 11.8201 304 7.7601 304.47C6.0201 304.67 4.4901 306.1 3.8501 308.15C4.8201 307.69 5.97009 307.43 7.25009 307.74C10.8601 308.63 20.9001 319.1 22.1501 320.45C23.4101 321.8 27.4301 324.88 28.8801 323.1C30.3301 321.33 28.7301 320.56 28.5301 319.35Z" fill="black"/>
<path opacity="0.07" d="M48.0303 354.85C55.2603 353.96 63.0503 350.91 67.1303 344.33C69.5203 342.21 71.9403 338.95 72.9703 334.02C75.2703 323.02 79.5703 319.31 84.9503 317.88C88.9303 316.83 90.0303 310.75 87.4503 306.76C88.1203 309.14 86.5903 311.39 84.3003 312.44C81.1703 313.88 72.5303 315.71 69.7503 324.67C66.9703 333.62 61.8803 352.33 48.0303 354.85Z" fill="black"/>
<path opacity="0.5" d="M61.7398 349.94C61.7398 349.94 50.2298 353.11 49.4198 353.23C45.6898 353.81 34.7398 354.74 29.9798 346.93C29.9798 346.93 25.9898 334.76 24.6098 332.86L20.6298 328.03L3.5498 311" stroke="white" stroke-width="6" stroke-miterlimit="10"/>
<path d="M83.32 303.65C76.42 301.54 66.54 306.85 62.63 316.13C61.63 317.96 60.71 313.73 60.08 309.21C58.88 300.67 57.54 280.67 53.14 278.4C48.33 275.91 41.54 277.99 41.27 286.14C41.03 293.2 45.4 310.3 44.05 315.34C42.71 320.37 31.26 288.87 26.42 286.07C21.78 283.39 15.09 286.98 16.32 293.42C17.51 299.63 28.25 314.01 28.54 319.36C28.54 319.36 23.48 315.18 18.9 311.46C18.9 311.46 11.83 304.01 7.77002 304.48C3.71002 304.96 0.800013 312.04 7.58001 318.28C12.18 322.51 20.95 330.35 23.55 334.54C26.15 338.74 26.63 350.55 34.47 353.75C41.4 356.58 59.97 355.87 67.13 344.33C69.52 342.21 71.94 338.95 72.97 334.02C75.27 323.02 79.57 319.31 84.95 317.88C90.32 316.45 90.46 305.83 83.32 303.65Z" stroke="#0D2232" stroke-width="6" stroke-miterlimit="10" stroke-linecap="round" stroke-linejoin="round"/>
<path d="M290.5 469.49V486.75C290.5 488.09 289.41 489.18 288.08 489.18H278.71C277.37 489.18 276.28 488.09 276.28 486.75V469.49C276.28 468.15 277.37 467.07 278.71 467.07H288.08C289.41 467.06 290.5 468.15 290.5 469.49Z" fill="#AFCADC"/>
<path d="M288.08 489.34H278.71C277.28 489.34 276.11 488.18 276.11 486.74V469.48C276.11 468.05 277.27 466.89 278.71 466.89H288.08C289.51 466.89 290.67 468.05 290.67 469.48V486.74C290.67 488.18 289.51 489.34 288.08 489.34ZM278.71 467.23C277.47 467.23 276.45 468.24 276.45 469.48V486.74C276.45 487.98 277.46 489 278.71 489H288.08C289.32 489 290.33 487.99 290.33 486.74V469.48C290.33 468.24 289.32 467.23 288.08 467.23H278.71Z" fill="#000072"/>
<g opacity="0.2">
<path d="M290.5 482.91V486.74C290.5 488.08 289.41 489.17 288.08 489.17H278.71C277.37 489.17 276.28 488.08 276.28 486.74V482.91C276.28 484.25 277.37 485.34 278.71 485.34H288.08C289.41 485.34 290.5 484.25 290.5 482.91Z" fill="black"/>
</g>
<g opacity="0.55">
<path d="M290.5 469.49V472.2C290.5 470.86 289.41 469.78 288.08 469.78H278.71C277.37 469.78 276.28 470.87 276.28 472.2V469.49C276.28 468.15 277.37 467.07 278.71 467.07H288.08C289.41 467.06 290.5 468.15 290.5 469.49Z" fill="white"/>
</g>
<path d="M300.95 484.52H290.5V472.25H299.37L300.95 484.52Z" fill="#AFCADC"/>
<path d="M301.15 484.69H290.34V472.08H299.53L301.15 484.69ZM290.67 484.35H300.76L299.22 472.42H290.67V484.35Z" fill="#000072"/>
<path d="M350.11 482.71C349.96 484.46 347.9 485.33 346.57 484.18C339.1 477.76 328.06 481.38 325.81 490.54C325.43 492.07 324.09 493.15 322.52 493.15H305.05C303.35 493.15 301.91 491.89 301.7 490.2L300.97 484.52L299.39 472.25L298.86 468.11C298.6 466.09 300.18 464.29 302.22 464.29H330.87C342.46 464.3 350.88 473.25 350.11 482.71Z" fill="#AFCADC"/>
<path d="M322.51 493.32H305.04C303.26 493.32 301.74 491.99 301.52 490.22L298.67 468.13C298.54 467.12 298.85 466.1 299.53 465.33C300.2 464.56 301.18 464.12 302.2 464.12H330.85C336.68 464.12 342.15 466.43 345.86 470.45C349.08 473.95 350.66 478.3 350.29 482.71C350.22 483.59 349.66 484.35 348.85 484.68C348.03 485.02 347.14 484.87 346.47 484.29C343 481.31 338.43 480.34 334.22 481.68C330.1 483 327.02 486.32 325.98 490.56C325.57 492.19 324.15 493.32 322.51 493.32ZM302.19 464.47C301.27 464.47 300.39 464.87 299.78 465.56C299.17 466.25 298.89 467.18 299.01 468.09L301.86 490.18C302.07 491.78 303.44 492.98 305.05 492.98H322.52C324 492.98 325.29 491.96 325.65 490.5C326.72 486.14 329.88 482.73 334.11 481.37C338.43 479.99 343.13 480.99 346.68 484.04C347.25 484.53 348.01 484.66 348.71 484.37C349.42 484.08 349.88 483.45 349.94 482.69C350.29 478.37 348.75 474.11 345.59 470.69C341.95 466.74 336.57 464.47 330.83 464.47H302.19Z" fill="#000072"/>
<g opacity="0.2">
<path d="M350.11 482.71C349.96 484.46 347.9 485.33 346.57 484.18C339.1 477.76 328.06 481.38 325.81 490.54C325.43 492.07 324.09 493.15 322.52 493.15H305.05C303.35 493.15 301.91 491.89 301.7 490.2L301.52 488.84C301.97 489.06 302.46 489.18 302.99 489.18H320.46C322.03 489.18 323.38 488.09 323.75 486.57C326 477.41 337.04 473.78 344.51 480.21C345.84 481.36 347.9 480.49 348.05 478.74C348.23 476.58 347.92 474.44 347.21 472.43C349.32 475.44 350.41 479.04 350.11 482.71Z" fill="black"/>
</g>
<g opacity="0.55">
<path d="M346.04 470.93C342.7 468.28 338.28 466.61 333.27 466.61H304.62C302.58 466.61 301 468.4 301.26 470.43L301.79 474.57L303.37 486.84L304.1 492.52C304.12 492.71 304.16 492.89 304.22 493.06C302.89 492.74 301.86 491.62 301.67 490.21L300.94 484.53L299.36 472.26L298.83 468.12C298.57 466.1 300.15 464.3 302.19 464.3H330.84C337.18 464.3 342.58 466.96 346.04 470.93Z" fill="white"/>
</g>
<g opacity="0.55">
<path d="M290.5 472.19H276.85V475.97H290.5V472.19Z" fill="white"/>
</g>
<path d="M322.21 493.15H306.13V534.19H322.21V493.15Z" fill="#435F84" stroke="#0D2232" stroke-width="4" stroke-miterlimit="10" stroke-linecap="round" stroke-linejoin="round"/>
<g opacity="0.2">
<path d="M306.17 500.35C306.64 500.36 307.06 500.53 307.45 500.74C307.84 500.95 308.2 501.22 308.54 501.51C309.22 502.08 309.84 502.72 310.35 503.46C311.37 504.92 311.95 506.57 312.97 507.86C313.47 508.5 314.1 509.02 314.82 509.41C315.54 509.79 316.34 510.05 317.15 510.22C317.97 510.39 318.81 510.49 319.66 510.57C320.08 510.61 320.51 510.64 320.94 510.65C321.37 510.68 321.81 510.74 322.21 511.02C322.27 511.06 322.28 511.14 322.24 511.2C322.23 511.22 322.21 511.23 322.19 511.24H322.18C321.72 511.44 321.31 511.4 320.88 511.37C320.46 511.31 320.03 511.28 319.6 511.24C318.74 511.16 317.87 511.06 317.01 510.88C316.15 510.7 315.29 510.43 314.5 510.01C313.71 509.59 312.99 508.99 312.43 508.28C311.31 506.86 310.74 505.2 309.78 503.85C309.3 503.18 308.74 502.56 308.08 502.06C307.75 501.81 307.41 501.58 307.06 501.35C306.72 501.12 306.37 500.89 306.06 500.56C306.01 500.51 306.01 500.44 306.06 500.39C306.11 500.36 306.14 500.35 306.17 500.35Z" fill="#371A45"/>
<path d="M322.23 507.82C321.35 508.3 320.32 508.32 319.35 508.18C318.38 508.04 317.42 507.8 316.54 507.35C316.09 507.14 315.68 506.86 315.29 506.56C314.91 506.24 314.54 505.9 314.25 505.49C313.62 504.7 313.29 503.71 313.1 502.77C312.91 501.82 312.82 500.89 312.56 500.03C312.43 499.6 312.26 499.2 312.02 498.83C311.91 498.64 311.77 498.47 311.64 498.3C311.49 498.14 311.35 497.97 311.18 497.83C310.53 497.23 309.71 496.82 308.85 496.61C308.42 496.5 307.97 496.46 307.54 496.49C307.1 496.52 306.69 496.59 306.19 496.52H306.18C306.16 496.52 306.13 496.51 306.1 496.5L306.08 496.49C306.01 496.47 305.97 496.41 305.99 496.34C306 496.32 306.01 496.3 306.02 496.28C306.05 496.25 306.07 496.23 306.1 496.21H306.09C306.49 495.87 307.02 495.76 307.52 495.76C308.02 495.78 308.52 495.81 309.01 495.94C309.98 496.17 310.9 496.64 311.64 497.31C312.39 497.96 312.95 498.88 313.22 499.82C313.5 500.77 313.59 501.72 313.77 502.62C313.95 503.52 314.24 504.37 314.79 505.06C315.05 505.42 315.38 505.72 315.72 506.01C316.08 506.28 316.45 506.53 316.86 506.72C317.66 507.12 318.55 507.37 319.45 507.46C319.67 507.49 319.9 507.48 320.13 507.5C320.36 507.49 320.58 507.51 320.81 507.5C321.26 507.51 321.71 507.46 322.21 507.57H322.22C322.28 507.58 322.32 507.65 322.31 507.71C322.28 507.77 322.26 507.8 322.23 507.82Z" fill="#371A45"/>
<path d="M322.24 503.12C321.98 503.37 321.66 503.48 321.33 503.53C321.17 503.56 321 503.57 320.83 503.56C320.66 503.55 320.5 503.53 320.34 503.52C319.69 503.43 319.05 503.26 318.46 502.98C317.28 502.43 316.26 501.55 315.55 500.47C314.83 499.39 314.42 498.13 314.27 496.86C314.2 496.22 314.19 495.58 314.24 494.95C314.26 494.63 314.31 494.32 314.34 494C314.37 493.68 314.44 493.37 314.68 493.1V493.12C314.72 493.08 314.75 493.03 314.8 493C314.87 492.95 314.96 492.97 315.01 493.03L315.02 493.04V493.05C315.05 493.1 315.06 493.14 315.08 493.18V493.2C315.17 493.53 315.11 493.82 315.04 494.11C314.97 494.4 314.94 494.7 314.92 495C314.87 495.6 314.88 496.19 314.95 496.79C315.08 497.97 315.47 499.12 316.12 500.1C316.77 501.08 317.69 501.88 318.75 502.37C319.28 502.61 319.84 502.79 320.42 502.82C320.71 502.83 320.99 502.84 321.28 502.83C321.57 502.83 321.85 502.82 322.19 502.9C322.26 502.92 322.3 502.99 322.28 503.06C322.26 503.09 322.25 503.11 322.24 503.12Z" fill="#371A45"/>
<path d="M318.16 493.21C318.21 493.47 318.15 493.67 318.08 493.86C318.01 494.05 317.92 494.22 317.84 494.4C317.68 494.76 317.58 495.13 317.52 495.51C317.42 496.25 317.57 497.04 317.99 497.63C318.2 497.92 318.48 498.15 318.8 498.29C319.12 498.43 319.49 498.49 319.86 498.47C320.23 498.46 320.61 498.38 320.97 498.26C321.15 498.21 321.33 498.1 321.5 498C321.68 497.91 321.86 497.84 322.15 497.96H322.16C322.24 497.99 322.28 498.07 322.26 498.15C322.19 498.45 321.99 498.56 321.8 498.65C321.7 498.69 321.6 498.72 321.5 498.77C321.4 498.82 321.3 498.86 321.2 498.9C320.78 499.04 320.34 499.14 319.89 499.15C319.44 499.17 318.97 499.1 318.53 498.91C318.1 498.72 317.71 498.4 317.44 498.02C316.9 497.25 316.73 496.3 316.85 495.41C316.91 494.97 317.05 494.54 317.19 494.13C317.26 493.92 317.34 493.72 317.46 493.54C317.57 493.36 317.72 493.19 317.97 493.1C318.05 493.07 318.13 493.11 318.16 493.19C318.15 493.19 318.16 493.2 318.16 493.21Z" fill="#371A45"/>
<path d="M306.15 506.26C306.7 506.19 307.26 506.37 307.72 506.65C308.19 506.92 308.6 507.29 308.96 507.68C309.68 508.47 310.26 509.34 310.81 510.19C311.36 511.04 311.92 511.88 312.61 512.56C313.3 513.24 314.16 513.73 315.06 514.18C315.96 514.63 316.92 515.05 317.79 515.68C318.65 516.31 319.38 517.1 319.96 517.98C320.55 518.85 321 519.79 321.4 520.74C321.6 521.22 321.79 521.69 321.99 522.16C322.18 522.64 322.35 523.12 322.3 523.68C322.29 523.75 322.23 523.8 322.17 523.79C322.14 523.79 322.11 523.77 322.09 523.76C321.68 523.37 321.49 522.89 321.31 522.42C321.15 521.94 320.96 521.47 320.77 521C320.38 520.07 319.94 519.17 319.39 518.35C318.85 517.52 318.17 516.8 317.39 516.22C316.6 515.65 315.68 515.24 314.76 514.78C313.84 514.33 312.9 513.8 312.13 513.04C311.37 512.29 310.79 511.41 310.23 510.56C309.67 509.71 309.14 508.86 308.45 508.16C308.1 507.82 307.73 507.51 307.34 507.24C306.95 506.96 306.55 506.75 306.1 506.48C306.04 506.45 306.02 506.37 306.06 506.32C306.08 506.29 306.12 506.27 306.15 506.26Z" fill="#371A45"/>
<path d="M317.99 513.07C318.17 512.97 318.3 512.99 318.41 513.03C318.52 513.07 318.61 513.14 318.71 513.21C318.9 513.35 319.1 513.46 319.29 513.59C319.67 513.85 320.05 514.12 320.41 514.4C320.77 514.68 321.13 514.98 321.47 515.29C321.64 515.45 321.81 515.61 321.97 515.77C322.05 515.85 322.13 515.94 322.23 516C322.31 516.08 322.39 516.17 322.29 516.42C322.26 516.5 322.2 516.55 322.13 516.57C321.88 516.65 321.79 516.58 321.72 516.5C321.66 516.4 321.58 516.33 321.5 516.25C321.34 516.09 321.18 515.94 321.02 515.79C320.69 515.49 320.35 515.2 320 514.93C319.65 514.66 319.29 514.4 318.92 514.15C318.73 514.03 318.55 513.9 318.35 513.8C318.25 513.75 318.15 513.71 318.06 513.63C317.97 513.56 317.9 513.46 317.89 513.26C317.88 513.18 317.92 513.11 317.99 513.07Z" fill="#371A45"/>
<path d="M306.2 510.77C306.78 511.01 307.2 511.54 307.49 512.07C307.78 512.61 307.96 513.19 308.12 513.74C308.28 514.3 308.44 514.84 308.66 515.35C308.87 515.86 309.14 516.34 309.49 516.73C309.84 517.12 310.29 517.39 310.79 517.57C311.29 517.74 311.85 517.82 312.41 517.87C312.98 517.92 313.56 517.94 314.15 518.02C314.74 518.1 315.35 518.23 315.92 518.51C316.49 518.79 316.99 519.21 317.36 519.7C317.74 520.19 318.01 520.75 318.23 521.3C318.66 522.42 318.88 523.57 319.18 524.67C319.47 525.77 319.89 526.82 320.45 527.8C320.72 528.29 321.03 528.77 321.38 529.21C321.72 529.66 322.06 530.1 322.28 530.68C322.3 530.74 322.27 530.81 322.21 530.84C322.18 530.85 322.14 530.85 322.12 530.84C321.54 530.58 321.15 530.12 320.8 529.64C320.47 529.15 320.15 528.65 319.86 528.13C319.28 527.1 318.83 525.99 318.53 524.85C318.22 523.72 318 522.59 317.6 521.55C317.4 521.03 317.15 520.54 316.82 520.12C316.5 519.7 316.09 519.35 315.61 519.12C314.66 518.65 313.5 518.65 312.34 518.55C311.75 518.5 311.15 518.42 310.56 518.22C309.97 518.02 309.4 517.67 308.98 517.19C308.13 516.24 307.8 515.03 307.44 513.95C307.26 513.4 307.07 512.88 306.85 512.38C306.62 511.88 306.37 511.43 306.05 510.94C306.01 510.89 306.03 510.81 306.08 510.78C306.12 510.76 306.16 510.76 306.2 510.77Z" fill="#371A45"/>
<path d="M306.16 520.51C306.61 520.45 307 520.46 307.42 520.47L308.67 520.5C309.51 520.5 310.41 520.47 311.29 520.63C311.73 520.71 312.18 520.83 312.6 521.03C313.02 521.23 313.42 521.51 313.73 521.88C314.05 522.24 314.26 522.68 314.4 523.12C314.54 523.56 314.6 524.01 314.64 524.45C314.7 525.34 314.68 526.18 314.74 527.02C314.79 527.86 314.88 528.7 315.04 529.52C315.2 530.34 315.44 531.14 315.77 531.9C315.94 532.28 316.12 532.65 316.36 532.98C316.58 533.33 316.8 533.66 316.89 534.13C316.9 534.2 316.86 534.27 316.79 534.28C316.77 534.28 316.74 534.28 316.72 534.27C316.25 534.1 315.97 533.73 315.74 533.35C315.53 532.96 315.32 532.57 315.14 532.16C314.79 531.35 314.54 530.5 314.37 529.64C314.2 528.78 314.11 527.92 314.05 527.05C313.99 526.19 314.01 525.32 313.95 524.5C313.89 523.68 313.7 522.88 313.2 522.32C312.71 521.74 311.95 521.43 311.16 521.3C310.36 521.16 309.53 521.16 308.67 521.2C308.24 521.22 307.8 521.23 307.36 521.17C306.92 521.12 306.47 521.01 306.09 520.73C306.04 520.69 306.03 520.61 306.07 520.56C306.09 520.53 306.12 520.51 306.16 520.51Z" fill="#371A45"/>
<path d="M317.38 527.98C317.59 528.06 317.68 528.18 317.74 528.31C317.81 528.44 317.85 528.57 317.88 528.71C317.96 528.98 318.08 529.25 318.18 529.51C318.4 530.04 318.63 530.56 318.89 531.06C319.15 531.57 319.42 532.07 319.72 532.56C319.87 532.8 320.02 533.04 320.18 533.28C320.26 533.4 320.34 533.52 320.44 533.62C320.53 533.73 320.6 533.86 320.48 534.11C320.45 534.19 320.37 534.23 320.3 534.24C320.02 534.26 319.93 534.15 319.85 534.02C319.79 533.88 319.71 533.76 319.62 533.64C319.46 533.39 319.3 533.15 319.15 532.89C318.85 532.39 318.56 531.87 318.3 531.35C318.04 530.83 317.79 530.29 317.57 529.75C317.45 529.48 317.36 529.2 317.24 528.93C317.18 528.8 317.12 528.66 317.09 528.52C317.06 528.37 317.06 528.22 317.18 528.03C317.21 527.98 317.3 527.95 317.38 527.98Z" fill="#371A45"/>
<path d="M306.11 524.43C306.37 524.2 306.66 524.11 306.96 524.05C307.26 523.99 307.57 523.99 307.89 524.02C308.51 524.06 309.15 524.18 309.73 524.47C310.31 524.76 310.8 525.2 311.17 525.7C311.54 526.21 311.82 526.77 312 527.36C312.38 528.54 312.41 529.8 312.19 531C312.08 531.6 311.91 532.19 311.68 532.75L311.32 533.59C311.19 533.86 311.01 534.12 310.66 534.25C310.59 534.28 310.5 534.24 310.48 534.16C310.48 534.15 310.48 534.14 310.47 534.13V534.12C310.41 533.74 310.55 533.51 310.68 533.25C310.83 533.01 310.95 532.75 311.05 532.49C311.26 531.97 311.42 531.42 311.52 530.87C311.72 529.77 311.69 528.62 311.35 527.56C311.02 526.51 310.37 525.54 309.41 525.06C308.94 524.82 308.4 524.7 307.86 524.7C307.59 524.7 307.31 524.73 307.03 524.73C306.75 524.74 306.47 524.74 306.15 524.63C306.08 524.61 306.05 524.53 306.07 524.46C306.08 524.46 306.09 524.45 306.11 524.43Z" fill="#371A45"/>
<path d="M306.1 528.13C306.22 527.92 306.42 527.84 306.61 527.81C306.8 527.78 307 527.8 307.18 527.85C307.55 527.94 307.92 528.09 308.22 528.35C308.82 528.86 309.12 529.63 309.08 530.4C309.06 530.78 308.93 531.18 308.73 531.49C308.53 531.81 308.27 532.08 308 532.31C307.73 532.54 307.44 532.73 307.16 532.91C307.02 533 306.87 533.09 306.75 533.2C306.61 533.29 306.46 533.37 306.2 533.25C306.12 533.22 306.08 533.14 306.08 533.06C306.1 532.76 306.23 532.67 306.37 532.59C306.52 532.52 306.66 532.44 306.8 532.35C307.07 532.17 307.34 531.99 307.57 531.8C308.05 531.41 308.39 530.93 308.41 530.37C308.44 529.82 308.21 529.23 307.79 528.88C307.58 528.71 307.33 528.58 307.05 528.55C306.91 528.54 306.78 528.54 306.64 528.52C306.5 528.51 306.36 528.48 306.17 528.35L306.16 528.34C306.08 528.3 306.06 528.2 306.1 528.13Z" fill="#371A45"/>
</g>
<g opacity="0.55">
<path d="M308.52 534.19H306.13V498.81H306.47C307.6 498.81 308.52 499.73 308.52 500.86V534.19Z" fill="white"/>
</g>
<g opacity="0.3">
<path d="M322.21 493.15V534.19H318.4V502.66C318.4 500.56 316.7 498.86 314.6 498.86H306.13V493.15H322.21Z" fill="#371A45"/>
</g>
<path d="M325.93 537.58V578.87C325.93 580.74 324.41 582.25 322.55 582.25H305.96C305.4 582.25 304.87 582.11 304.41 581.87C303.32 581.31 302.58 580.17 302.58 578.86V537.57C302.58 535.7 304.1 534.19 305.96 534.19H322.55C324.41 534.19 325.93 535.71 325.93 537.58Z" fill="#F9DC1B"/>
<path d="M322.54 582.42H305.95C305.38 582.42 304.82 582.28 304.32 582.03L304.23 581.98C303.1 581.36 302.4 580.18 302.4 578.87V537.58C302.4 535.62 303.99 534.03 305.95 534.03H322.54C324.5 534.03 326.09 535.62 326.09 537.58V578.87C326.1 580.83 324.5 582.42 322.54 582.42ZM304.58 581.77C305.01 581.97 305.48 582.08 305.96 582.08H322.55C324.32 582.08 325.77 580.64 325.77 578.86V537.57C325.77 535.8 324.33 534.35 322.55 534.35H305.96C304.19 534.35 302.74 535.79 302.74 537.57V578.86C302.74 580.07 303.41 581.16 304.48 581.72L304.58 581.77Z" fill="#000072"/>
<path d="M325.93 537.58V578.87C325.93 580.74 324.41 582.25 322.55 582.25H317.04C318.91 582.25 320.42 580.73 320.42 578.87V537.58C320.42 535.71 318.9 534.2 317.04 534.2H322.55C324.41 534.19 325.93 535.71 325.93 537.58Z" fill="#E89F02"/>
<path d="M322.54 582.42H317.03V582.08C318.8 582.08 320.25 580.64 320.25 578.86V537.57C320.25 535.8 318.81 534.35 317.03 534.35V534.01H322.54C324.5 534.01 326.09 535.6 326.09 537.56V578.85C326.1 580.83 324.5 582.42 322.54 582.42ZM318.55 582.09H322.54C324.31 582.09 325.76 580.65 325.76 578.87V537.58C325.76 535.81 324.32 534.36 322.54 534.36H318.55C319.76 534.93 320.59 536.16 320.59 537.58V578.87C320.59 580.29 319.76 581.52 318.55 582.09Z" fill="#E89F02"/>
<g opacity="0.55">
<path d="M306.97 581.88C307.43 582.12 307.96 582.26 308.52 582.26H305.96C305.4 582.26 304.87 582.12 304.41 581.88C303.32 581.32 302.58 580.18 302.58 578.87V537.58C302.58 535.71 304.1 534.2 305.96 534.2H308.52C306.65 534.2 305.14 535.72 305.14 537.58V578.87C305.13 580.18 305.88 581.32 306.97 581.88Z" fill="white"/>
</g>
<g opacity="0.2">
<path d="M292.76 472.25L295.01 484.52H290.5V472.25H292.76Z" fill="black"/>
</g>
<g opacity="0.2">
<path d="M316 472.8C316 474.55 313.79 474.08 311.06 474.08C308.33 474.08 306.12 474.55 306.12 472.8C306.12 471.05 308.33 469.63 311.06 469.63C313.79 469.63 316 471.05 316 472.8Z" fill="white"/>
</g>
<g opacity="0.2">
<path d="M312.76 554.39C312.76 557.66 311.38 560.31 309.68 560.31C307.98 560.31 307.95 557.66 307.95 554.39C307.95 551.12 307.98 548.47 309.68 548.47C311.38 548.46 312.76 551.12 312.76 554.39Z" fill="white"/>
</g>
<path d="M290.5 469.49V486.75C290.5 488.09 289.41 489.18 288.08 489.18H278.71C277.37 489.18 276.28 488.09 276.28 486.75V469.49C276.28 468.15 277.37 467.07 278.71 467.07H288.08C289.41 467.06 290.5 468.15 290.5 469.49Z" stroke="#0D2232" stroke-width="4" stroke-miterlimit="10" stroke-linecap="round" stroke-linejoin="round"/>
<path d="M300.95 484.52H290.5V472.25H299.37L300.95 484.52Z" stroke="#0D2232" stroke-width="4" stroke-miterlimit="10" stroke-linecap="round" stroke-linejoin="round"/>
<path d="M350.11 482.71C349.96 484.46 347.9 485.33 346.57 484.18C339.1 477.76 328.06 481.38 325.81 490.54C325.43 492.07 324.09 493.15 322.52 493.15H305.05C303.35 493.15 301.91 491.89 301.7 490.2L300.97 484.52L299.39 472.25L298.86 468.11C298.6 466.09 300.18 464.29 302.22 464.29H330.87C342.46 464.3 350.88 473.25 350.11 482.71Z" stroke="#0D2232" stroke-width="4" stroke-miterlimit="10" stroke-linecap="round" stroke-linejoin="round"/>
<path d="M322.21 493.15H306.13V534.19H322.21V493.15Z" stroke="#0D2232" stroke-width="4" stroke-miterlimit="10" stroke-linecap="round" stroke-linejoin="round"/>
<path d="M325.93 537.58V578.87C325.93 580.74 324.41 582.25 322.55 582.25H305.96C305.4 582.25 304.87 582.11 304.41 581.87C303.32 581.31 302.58 580.17 302.58 578.86V537.57C302.58 535.7 304.1 534.19 305.96 534.19H322.55C324.41 534.19 325.93 535.71 325.93 537.58Z" stroke="#0D2232" stroke-width="4" stroke-miterlimit="10" stroke-linecap="round" stroke-linejoin="round"/>
<path d="M353.54 574.32C353.53 574.27 353.53 574.22 353.53 574.17L355.34 490.11C355.35 489.47 355.88 488.97 356.52 488.98L370.98 489.29C371.29 489.3 371.58 489.42 371.79 489.65C371.97 489.83 372.08 490.07 372.1 490.32C372.11 490.37 372.11 490.42 372.11 490.47L370.3 574.53C370.29 575.17 369.76 575.67 369.12 575.66L354.66 575.35C354.35 575.34 354.06 575.22 353.85 574.99C353.67 574.8 353.57 574.57 353.54 574.32Z" fill="#C14854"/>
<path d="M359.124 490.191L357.333 574.254L366.591 574.451L368.382 490.388L359.124 490.191Z" fill="#E8656D"/>
<path opacity="0.5" d="M358.017 486.509L356.143 575.332L357.282 575.356L359.157 486.533L358.017 486.509Z" fill="white"/>
<path d="M350.78 492.24C349.99 491.65 349.23 490.99 348.52 490.29C344.3 486.14 341.94 480.59 341.89 474.66C341.84 468.73 344.1 463.15 348.26 458.93C349.34 457.83 350.53 456.85 351.81 456C352.19 455.75 352.68 455.74 353.07 455.99C353.1 456.01 353.12 456.02 353.14 456.04C353.48 456.29 353.65 456.71 353.59 457.13L351.85 468.74L364.8 475.2L374.95 464.88L369.88 455.12C369.66 454.7 369.72 454.19 370.03 453.83C370.34 453.47 370.83 453.34 371.28 453.49C373.47 454.24 375.51 455.32 377.37 456.71C378.16 457.3 378.92 457.96 379.63 458.65C383.85 462.8 386.21 468.35 386.26 474.28C386.31 480.2 384.05 485.79 379.89 490.01C372.12 497.92 359.61 498.87 350.78 492.24Z" fill="#E8656D"/>
<path d="M370.9 454.6L371.7 456.14C372.94 456.92 374.11 457.84 375.2 458.91C383.48 467.05 383.59 480.36 375.45 488.64C370.95 493.22 364.86 495.29 358.92 494.86C365.92 496.62 373.64 494.74 379.06 489.22C387.2 480.94 387.09 467.63 378.81 459.49C376.49 457.22 373.78 455.58 370.9 454.6Z" fill="#C14854"/>
<path opacity="0.5" d="M348.96 485.81C356.91 495.97 367.48 492.5 367.48 492.5C367.48 492.5 359.62 490.68 353.79 484.4C347.7 477.85 345.41 470.89 345.41 470.89C345.41 470.89 343.2 478.45 348.96 485.81Z" fill="white"/>
<path opacity="0.5" d="M350.85 571.99C353.81 568.09 356.79 568.79 356.79 568.79C356.79 568.79 352.89 572.21 350.72 576.92C348.68 581.35 348.98 588.53 348.98 588.53C348.98 588.53 346.98 583.71 347.26 581.27C347.73 577.29 348.86 574.62 350.85 571.99Z" fill="white"/>
<path d="M353.7 566.18L355.24 494.81" stroke="#0D2232" stroke-width="4" stroke-miterlimit="10" stroke-linecap="round" stroke-linejoin="round"/>
<path d="M372.01 495.2L370.47 566.57" stroke="#0D2232" stroke-width="4" stroke-miterlimit="10" stroke-linecap="round" stroke-linejoin="round"/>
<path d="M350.78 492.24C349.99 491.65 349.23 490.99 348.52 490.29C344.3 486.14 341.94 480.59 341.89 474.66C341.84 468.73 344.1 463.15 348.26 458.93C349.34 457.83 350.53 456.85 351.81 456C352.19 455.75 352.68 455.74 353.07 455.99C353.1 456.01 353.12 456.02 353.14 456.04C353.48 456.29 353.65 456.71 353.59 457.13L351.85 468.74L364.8 475.2L374.95 464.88L369.88 455.12C369.66 454.7 369.72 454.19 370.03 453.83C370.34 453.47 370.83 453.34 371.28 453.49C373.47 454.24 375.51 455.32 377.37 456.71C378.16 457.3 378.92 457.96 379.63 458.65C383.85 462.8 386.21 468.35 386.26 474.28C386.31 480.2 384.05 485.79 379.89 490.01C372.12 497.92 359.61 498.87 350.78 492.24Z" stroke="#0D2232" stroke-width="4" stroke-miterlimit="10" stroke-linecap="round" stroke-linejoin="round"/>
<path d="M288.53 522.93V581.09C288.53 581.09 300.1 598.45 322.6 598.45C345.1 598.45 361.17 598.45 361.17 598.45L367.92 589.77C367.92 589.77 373.38 548.95 374.03 533.2C374.03 533.2 312.32 534.85 288.53 522.93Z" fill="#FEC400"/>
<path d="M293.79 525.15V568.81C293.79 576.24 297.99 583.05 304.66 586.31C315.63 591.68 335.64 596.8 367.92 589.78L361.17 598.46L319.22 598.7C319.22 598.7 297.52 595.89 288.52 581.1V522.94L293.79 525.15Z" fill="#E89F02"/>
<path d="M288.53 522.93V576.14C288.53 579.76 289.99 583.22 292.55 585.78C297.7 590.92 307.78 598.45 322.6 598.45H354.1C358.56 598.45 362.77 596.39 365.51 592.87C367.09 590.84 368.1 588.42 368.43 585.87C369.8 575.28 373.5 545.99 374.02 533.2C374.03 533.2 312.32 534.85 288.53 522.93Z" stroke="#0D2232" stroke-width="4" stroke-miterlimit="10" stroke-linecap="round" stroke-linejoin="round"/>
<path d="M288.53 538.02C288.53 538.02 308.23 554.92 372.51 548.49" stroke="#0D2232" stroke-width="4" stroke-miterlimit="10" stroke-linecap="round" stroke-linejoin="round"/>
</svg>
