<svg width="151" height="31" viewBox="0 0 151 31" fill="none" xmlns="http://www.w3.org/2000/svg">
<path d="M51.38 21V10.14H47.08V7H59.62V10.14H55.34V21H51.38ZM65.2616 21.18C64.0749 21.18 63.0216 20.94 62.1016 20.46C61.1816 19.98 60.4549 19.32 59.9216 18.48C59.4016 17.6267 59.1416 16.6533 59.1416 15.56C59.1416 14.4667 59.4016 13.5 59.9216 12.66C60.4549 11.82 61.1816 11.1667 62.1016 10.7C63.0216 10.22 64.0749 9.98 65.2616 9.98C66.4482 9.98 67.5016 10.22 68.4216 10.7C69.3549 11.1667 70.0816 11.82 70.6016 12.66C71.1216 13.5 71.3816 14.4667 71.3816 15.56C71.3816 16.6533 71.1216 17.6267 70.6016 18.48C70.0816 19.32 69.3549 19.98 68.4216 20.46C67.5016 20.94 66.4482 21.18 65.2616 21.18ZM65.2616 18.16C65.7016 18.16 66.0882 18.06 66.4216 17.86C66.7682 17.66 67.0416 17.3667 67.2416 16.98C67.4416 16.58 67.5416 16.1067 67.5416 15.56C67.5416 15.0133 67.4416 14.5533 67.2416 14.18C67.0416 13.7933 66.7682 13.5 66.4216 13.3C66.0882 13.1 65.7016 13 65.2616 13C64.8349 13 64.4482 13.1 64.1016 13.3C63.7682 13.5 63.4949 13.7933 63.2816 14.18C63.0816 14.5533 62.9816 15.0133 62.9816 15.56C62.9816 16.1067 63.0816 16.58 63.2816 16.98C63.4949 17.3667 63.7682 17.66 64.1016 17.86C64.4482 18.06 64.8349 18.16 65.2616 18.16ZM78.5819 21.18C77.3952 21.18 76.3419 20.94 75.4219 20.46C74.5019 19.98 73.7752 19.32 73.2419 18.48C72.7219 17.6267 72.4619 16.6533 72.4619 15.56C72.4619 14.4667 72.7219 13.5 73.2419 12.66C73.7752 11.82 74.5019 11.1667 75.4219 10.7C76.3419 10.22 77.3952 9.98 78.5819 9.98C79.7685 9.98 80.8219 10.22 81.7419 10.7C82.6752 11.1667 83.4019 11.82 83.9219 12.66C84.4419 13.5 84.7019 14.4667 84.7019 15.56C84.7019 16.6533 84.4419 17.6267 83.9219 18.48C83.4019 19.32 82.6752 19.98 81.7419 20.46C80.8219 20.94 79.7685 21.18 78.5819 21.18ZM78.5819 18.16C79.0219 18.16 79.4085 18.06 79.7419 17.86C80.0885 17.66 80.3619 17.3667 80.5619 16.98C80.7619 16.58 80.8619 16.1067 80.8619 15.56C80.8619 15.0133 80.7619 14.5533 80.5619 14.18C80.3619 13.7933 80.0885 13.5 79.7419 13.3C79.4085 13.1 79.0219 13 78.5819 13C78.1552 13 77.7685 13.1 77.4219 13.3C77.0885 13.5 76.8152 13.7933 76.6019 14.18C76.4019 14.5533 76.3019 15.0133 76.3019 15.56C76.3019 16.1067 76.4019 16.58 76.6019 16.98C76.8152 17.3667 77.0885 17.66 77.4219 17.86C77.7685 18.06 78.1552 18.16 78.5819 18.16ZM86.4622 21V6.16H90.2622V21H86.4622ZM98.732 21V7H101.992L107.792 16.52H106.072L111.712 7H114.972L115.012 21H111.372L111.332 12.54H111.952L107.732 19.62H105.972L101.632 12.54H102.392V21H98.732ZM124.254 21V18.98L123.994 18.48V14.76C123.994 14.16 123.807 13.7 123.434 13.38C123.074 13.0467 122.494 12.88 121.694 12.88C121.174 12.88 120.647 12.9667 120.114 13.14C119.581 13.3 119.127 13.5267 118.754 13.82L117.474 11.24C118.087 10.84 118.821 10.5333 119.674 10.32C120.541 10.0933 121.401 9.98 122.254 9.98C124.014 9.98 125.374 10.3867 126.334 11.2C127.307 12 127.794 13.26 127.794 14.98V21H124.254ZM121.054 21.18C120.187 21.18 119.454 21.0333 118.854 20.74C118.254 20.4467 117.794 20.0467 117.474 19.54C117.167 19.0333 117.014 18.4667 117.014 17.84C117.014 17.1733 117.181 16.6 117.514 16.12C117.861 15.6267 118.387 15.2533 119.094 15C119.801 14.7333 120.714 14.6 121.834 14.6H124.394V16.58H122.354C121.741 16.58 121.307 16.68 121.054 16.88C120.814 17.08 120.694 17.3467 120.694 17.68C120.694 18.0133 120.821 18.28 121.074 18.48C121.327 18.68 121.674 18.78 122.114 18.78C122.527 18.78 122.901 18.68 123.234 18.48C123.581 18.2667 123.834 17.9467 123.994 17.52L124.514 18.92C124.314 19.6667 123.921 20.2333 123.334 20.62C122.761 20.9933 122.001 21.18 121.054 21.18ZM135.033 21.18C133.646 21.18 132.566 20.84 131.793 20.16C131.019 19.4667 130.633 18.4267 130.633 17.04V7.74H134.433V17C134.433 17.3867 134.539 17.6933 134.753 17.92C134.966 18.1333 135.239 18.24 135.573 18.24C136.026 18.24 136.413 18.1267 136.733 17.9L137.673 20.56C137.353 20.7733 136.959 20.9267 136.493 21.02C136.026 21.1267 135.539 21.18 135.033 21.18ZM129.053 13.4V10.56H136.913V13.4H129.053ZM144.505 21.18C143.225 21.18 142.105 20.94 141.145 20.46C140.199 19.9667 139.459 19.3 138.925 18.46C138.405 17.6067 138.145 16.64 138.145 15.56C138.145 14.48 138.399 13.52 138.905 12.68C139.425 11.8267 140.139 11.1667 141.045 10.7C141.952 10.22 142.972 9.98 144.105 9.98C145.172 9.98 146.145 10.2 147.025 10.64C147.905 11.0667 148.605 11.7 149.125 12.54C149.645 13.38 149.905 14.4 149.905 15.6C149.905 15.7333 149.899 15.8867 149.885 16.06C149.872 16.2333 149.859 16.3933 149.845 16.54H141.265V14.54H147.825L146.385 15.1C146.399 14.6067 146.305 14.18 146.105 13.82C145.919 13.46 145.652 13.18 145.305 12.98C144.972 12.78 144.579 12.68 144.125 12.68C143.672 12.68 143.272 12.78 142.925 12.98C142.592 13.18 142.332 13.4667 142.145 13.84C141.959 14.2 141.865 14.6267 141.865 15.12V15.7C141.865 16.2333 141.972 16.6933 142.185 17.08C142.412 17.4667 142.732 17.7667 143.145 17.98C143.559 18.18 144.052 18.28 144.625 18.28C145.159 18.28 145.612 18.2067 145.985 18.06C146.372 17.9 146.752 17.66 147.125 17.34L149.125 19.42C148.605 19.9933 147.965 20.4333 147.205 20.74C146.445 21.0333 145.545 21.18 144.505 21.18Z" fill="url(#paint0_linear_257_233)"/>
<path fill-rule="evenodd" clip-rule="evenodd" d="M28.823 1.95973C35.6376 1.95125 41.1668 7.47052 41.1752 14.2864C41.1816 21.1024 35.6651 26.6344 28.8526 26.6428C26.1569 26.6471 23.6623 25.7826 21.6315 24.3186L15.0308 26.4966L17.555 19.293C16.8816 17.7717 16.5046 16.0874 16.5025 14.3161C16.4941 7.50018 22.0105 1.9682 28.823 1.95973Z" fill="black"/>
<path fill-rule="evenodd" clip-rule="evenodd" d="M17.2202 24.346L21.8621 22.8142L22.4233 23.2189C24.3016 24.5727 26.5357 25.291 28.8503 25.2889C34.9174 25.2804 39.8261 20.3565 39.8197 14.2885C39.8113 8.22044 34.8899 3.30713 28.8249 3.31348C22.76 3.32196 17.8492 8.24587 17.8576 14.3139C17.8597 15.8436 18.1732 17.3458 18.7936 18.7441L19.0096 19.2357L17.2202 24.346Z" fill="#FFE134"/>
<path fill-rule="evenodd" clip-rule="evenodd" d="M23.2089 16.0874H23.2131L28.0774 11.8393C28.2171 9.31594 30.2755 7.36671 32.8421 7.41544C33.4541 7.42816 35.0762 7.77775 35.4913 8.24175C35.6924 8.46845 35.6734 8.8138 35.4489 9.0172C35.4108 9.0511 35.3684 9.07864 35.3261 9.09983L32.3466 11.1147L32.6303 12.7483L33.9687 13.939L36.9842 12.0279C37.2066 11.8859 37.503 11.922 37.6851 12.1254C37.7677 12.2165 37.8122 12.3288 37.8228 12.4432C37.8228 12.4495 37.8228 12.4559 37.8228 12.4622C37.8249 12.4792 37.8249 12.4983 37.8249 12.5152C37.827 15.1721 35.7115 17.2696 33.0539 17.2188C32.5795 17.2103 32.12 17.1319 31.6837 16.9963H31.6816H31.6795C31.6414 16.9836 31.6054 16.973 31.5694 16.9603C31.4677 16.937 31.3597 16.9327 31.2009 16.9327C30.9849 16.9327 30.6757 17.026 30.4746 17.1827V17.1849C30.4364 17.2124 30.4026 17.2442 30.3687 17.276L25.7014 21.4096C25.1063 22.1194 24.2148 22.5728 23.2174 22.5728C21.428 22.5749 19.9753 21.1257 19.9731 19.3333C19.971 17.5429 21.4195 16.0895 23.2089 16.0874ZM28.2934 15.6424C28.4247 15.8013 28.4056 16.0386 28.2489 16.1721L27.1604 17.0874C27.0037 17.2209 26.7666 17.2018 26.6331 17.0429C26.4997 16.8861 26.5209 16.6488 26.6776 16.5154L27.764 15.5979C27.9228 15.4645 28.16 15.4857 28.2934 15.6424ZM23.2131 18.1256C23.876 18.1256 24.416 18.6637 24.416 19.329C24.4181 19.9943 23.8802 20.5324 23.2153 20.5346C22.5503 20.5346 22.0103 19.9964 22.0103 19.3311C22.0103 18.6659 22.5482 18.1256 23.2131 18.1256Z" fill="#FFAE42"/>
<path fill-rule="evenodd" clip-rule="evenodd" d="M23.2726 15.0492H23.2768L28.141 10.8033C28.2808 8.27776 30.3391 6.32854 32.9036 6.37939C33.5156 6.38998 35.1398 6.74169 35.5549 7.20569C35.7561 7.43028 35.737 7.77775 35.5126 7.97903C35.4744 8.01292 35.4321 8.04047 35.3876 8.06166L32.4102 10.0787L32.694 11.7101L34.0302 12.9029L37.0478 10.9897C37.2702 10.8499 37.5667 10.8859 37.7488 11.0872C37.8293 11.1804 37.8758 11.2906 37.8864 11.405V11.4071C37.8864 11.4135 37.8864 11.4198 37.8864 11.4241C37.8886 11.4431 37.8886 11.4601 37.8864 11.477C37.8886 14.136 35.7751 16.2336 33.1154 16.1806C32.641 16.1721 32.1815 16.0937 31.7453 15.9602L31.7431 15.9581C31.705 15.9475 31.669 15.9348 31.6309 15.9221C31.5314 15.8988 31.4213 15.8946 31.2646 15.8946C31.0464 15.8946 30.7373 15.9899 30.5382 16.1467H30.5361C30.5001 16.1742 30.4662 16.206 30.4323 16.2399L25.7629 20.3735V20.3714C25.17 21.0812 24.2784 21.5346 23.281 21.5346C21.4895 21.5367 20.0368 20.0875 20.0347 18.2972C20.0326 16.5048 21.4831 15.0513 23.2726 15.0492ZM28.3549 14.6064C28.4883 14.7632 28.4693 15.0005 28.3104 15.1339L27.2241 16.0514C27.0674 16.1848 26.8302 16.1636 26.6968 16.0069C26.5634 15.848 26.5846 15.6107 26.7413 15.4772L27.8276 14.5598C27.9843 14.4284 28.2236 14.4475 28.3549 14.6064ZM23.2747 17.0895C23.9396 17.0874 24.4796 17.6256 24.4796 18.2908C24.4817 18.9561 23.9417 19.4964 23.2789 19.4964C22.614 19.4964 22.074 18.9582 22.074 18.293C22.0718 17.6298 22.6097 17.0895 23.2747 17.0895Z" fill="black"/>
<path fill-rule="evenodd" clip-rule="evenodd" d="M23.2746 15.9561C24.5642 15.9539 25.6103 16.9985 25.6125 18.2888C25.6146 19.5812 24.5685 20.6278 23.2788 20.63C21.9892 20.6321 20.943 19.5854 20.9409 18.2951C20.9388 17.0048 21.9828 15.9561 23.2746 15.9561ZM23.2746 16.3332C24.3567 16.3311 25.2334 17.2082 25.2355 18.2909C25.2355 19.3714 24.3609 20.2507 23.2788 20.2528C22.1967 20.2528 21.32 19.3778 21.3179 18.2951C21.3157 17.2125 22.1925 16.3332 23.2746 16.3332Z" fill="white"/>
<path fill-rule="evenodd" clip-rule="evenodd" d="M24.7042 15.5809L24.6343 15.1741L28.283 11.8032L28.3253 12.4537L24.7042 15.5809Z" fill="white"/>
<path fill-rule="evenodd" clip-rule="evenodd" d="M29.8545 12.8267C29.8714 12.8564 29.882 12.8924 29.882 12.9305C29.882 13.045 29.7867 13.1403 29.6724 13.1403C29.5834 13.1403 29.5072 13.0513 29.4458 12.9348C29.0095 12.1212 28.9545 10.8923 29.2065 10.0237C29.3081 9.67619 29.4564 9.3372 29.6533 9.02151C30.3881 7.83926 31.6799 7.1189 33.0712 7.1189C33.1601 7.1189 33.2321 7.19093 33.2321 7.27992C33.2321 7.36679 33.1601 7.43882 33.0712 7.43882C31.8451 7.5723 30.7545 8.2736 30.1213 9.33084C29.4903 10.3902 29.3907 11.6826 29.8545 12.8267Z" fill="white"/>
<path d="M21.1275 11.1994C21.4713 11.1994 21.7501 10.9205 21.7501 10.5765C21.7501 10.2325 21.4713 9.95361 21.1275 9.95361C20.7836 9.95361 20.5049 10.2325 20.5049 10.5765C20.5049 10.9205 20.7836 11.1994 21.1275 11.1994Z" fill="white"/>
<path fill-rule="evenodd" clip-rule="evenodd" d="M22.0718 8.83717C23.1518 9.71856 24.4478 7.77358 23.5542 7.04262C22.796 6.42395 20.9855 7.94943 22.0718 8.83717Z" fill="white"/>
<path fill-rule="evenodd" clip-rule="evenodd" d="M36.5949 6.52334C36.5335 6.52758 33.8187 5.49152 33.3719 5.30719C29.198 3.58044 25.0432 4.34318 22.0827 6.80937C20.3399 8.26281 18.6288 12.4939 18.1926 15.583L17.9829 15.9686C17.9003 15.4241 17.858 14.8711 17.858 14.3139C17.8559 13.7461 17.8982 13.1888 17.9808 12.6443L17.9829 12.638C17.9956 12.5532 18.0105 12.4664 18.0253 12.3816C18.0295 12.3498 18.0359 12.3202 18.0422 12.2905C18.0528 12.2354 18.0613 12.1782 18.074 12.1231C18.0803 12.0871 18.0888 12.0532 18.0952 12.0172C18.1058 11.9685 18.1163 11.9176 18.129 11.8689C18.1354 11.8307 18.146 11.7947 18.1545 11.7587C18.165 11.71 18.1778 11.6612 18.1883 11.6125C18.1989 11.5765 18.2074 11.5405 18.218 11.5045C18.2307 11.4557 18.2434 11.4091 18.2561 11.3625C18.2646 11.3244 18.2752 11.2883 18.2858 11.2523C18.3006 11.2057 18.3133 11.157 18.3281 11.1104C18.3387 11.0744 18.3493 11.0383 18.362 11.0044C18.3768 10.9557 18.3916 10.9091 18.4065 10.8625C18.4192 10.8265 18.4298 10.7926 18.4403 10.7587C18.4573 10.7099 18.4742 10.6612 18.4912 10.6146C18.5039 10.5807 18.5145 10.5468 18.5272 10.515C18.5462 10.462 18.5674 10.4112 18.5865 10.3582C18.597 10.3307 18.6076 10.3031 18.6182 10.2756C18.65 10.1972 18.6818 10.1188 18.7135 10.0404C18.722 10.0213 18.7305 10.0044 18.7368 9.98533C18.7643 9.92601 18.7898 9.86456 18.8152 9.80524C18.8279 9.77769 18.8427 9.74803 18.8554 9.71837C18.8787 9.67176 18.8999 9.62303 18.9232 9.5743C18.938 9.54252 18.9549 9.51074 18.9698 9.47896C18.9909 9.43446 19.0142 9.38997 19.0354 9.34548C19.0523 9.31369 19.0693 9.2798 19.0862 9.2459C19.1095 9.20352 19.1307 9.16115 19.154 9.12089C19.1709 9.08699 19.1879 9.05309 19.2069 9.02131C19.2302 8.97894 19.2535 8.93868 19.2768 8.89631C19.2938 8.86453 19.3128 8.83063 19.3319 8.79885C19.3573 8.75647 19.3806 8.71622 19.406 8.67384C19.4229 8.64418 19.442 8.6124 19.461 8.58062C19.4865 8.53824 19.514 8.49799 19.5394 8.45561C19.5585 8.42595 19.5775 8.39629 19.5966 8.36663C19.6241 8.32213 19.6538 8.27976 19.6813 8.23527C19.7003 8.20772 19.7173 8.1823 19.7363 8.15475C19.7702 8.10391 19.8041 8.05517 19.838 8.00433C19.8528 7.98526 19.8655 7.96619 19.8803 7.94712C19.9269 7.87932 19.9778 7.81152 20.0265 7.74372C20.0413 7.72465 20.0561 7.70559 20.0709 7.6844C20.1069 7.63779 20.1429 7.59117 20.1789 7.54456C20.2001 7.51702 20.2213 7.49159 20.2425 7.46405C20.2742 7.42591 20.306 7.38566 20.3378 7.34752C20.3589 7.31998 20.3822 7.29032 20.4076 7.26277C20.4373 7.22675 20.4669 7.19074 20.4987 7.1526C20.522 7.12506 20.5474 7.09751 20.5707 7.06997C20.6025 7.03395 20.6342 6.99793 20.666 6.96191C20.6914 6.93649 20.7147 6.90895 20.7401 6.8814C20.7719 6.84538 20.8058 6.81149 20.8375 6.77547C20.8629 6.75004 20.8883 6.7225 20.9138 6.69707C20.9476 6.66106 20.9815 6.62716 21.0154 6.59326C21.0408 6.56783 21.0641 6.54241 21.0895 6.51698C21.1255 6.48096 21.1615 6.44707 21.1954 6.41317C21.2208 6.38774 21.2462 6.36443 21.2716 6.33901C21.3098 6.30299 21.35 6.26697 21.3881 6.23096C21.4114 6.20977 21.4326 6.18858 21.4559 6.16951C21.5109 6.11654 21.5681 6.06781 21.6253 6.01696C21.6316 6.01273 21.638 6.00637 21.6422 6.00213C21.7058 5.94705 21.7693 5.89196 21.8349 5.83899C21.8561 5.81992 21.8794 5.80297 21.9006 5.78391C21.945 5.75001 21.9874 5.71399 22.0298 5.68009C22.0573 5.6589 22.0827 5.63983 22.1102 5.61865C22.1505 5.58686 22.1907 5.5572 22.2309 5.52542C22.2585 5.50423 22.2881 5.48305 22.3156 5.46186C22.3559 5.4322 22.394 5.40465 22.4342 5.37711C22.4639 5.35381 22.4935 5.33262 22.5232 5.31143C22.5634 5.28389 22.6015 5.25634 22.6417 5.23092C22.6714 5.20973 22.7032 5.18854 22.7328 5.16736C22.773 5.14193 22.8133 5.11439 22.8535 5.08896C22.8832 5.0699 22.9149 5.04871 22.9446 5.02964C22.9869 5.0021 23.0293 4.97667 23.0716 4.95125C23.1013 4.93218 23.1309 4.91311 23.1606 4.89616C23.205 4.86862 23.2495 4.84319 23.294 4.81565C23.3215 4.7987 23.3512 4.78387 23.3787 4.76692C23.4295 4.73726 23.4803 4.70971 23.5312 4.68005C23.5545 4.66734 23.5777 4.65463 23.601 4.64191C23.6752 4.60166 23.7493 4.5614 23.8255 4.52327C23.8382 4.51691 23.8488 4.51055 23.8615 4.5042C23.925 4.47242 23.9886 4.44064 24.0521 4.41097C24.0796 4.39826 24.105 4.38555 24.1326 4.37284C24.1813 4.34953 24.2321 4.32411 24.2829 4.3008C24.3147 4.28809 24.3465 4.27326 24.3761 4.26054C24.4227 4.23936 24.4693 4.21817 24.5159 4.1991C24.5497 4.18427 24.5836 4.16944 24.6154 4.15673C24.662 4.13766 24.7086 4.11859 24.7552 4.09952C24.789 4.08681 24.8229 4.07198 24.8568 4.05927C24.9013 4.04232 24.9479 4.02537 24.9945 4.0063C25.0283 3.99359 25.0622 3.98087 25.0982 3.96816C25.1448 3.95121 25.1914 3.93638 25.238 3.91943C25.2719 3.90672 25.3079 3.89612 25.3417 3.88341C25.3905 3.86646 25.4392 3.85163 25.4879 3.83468C25.5217 3.82621 25.5535 3.81561 25.5874 3.80502C25.6403 3.78807 25.6954 3.77112 25.7505 3.75629C25.778 3.74781 25.8055 3.73934 25.8352 3.73086C25.9008 3.7118 25.9665 3.69485 26.0321 3.6779C26.049 3.67154 26.0681 3.6673 26.0872 3.66307C26.1697 3.64188 26.2545 3.62069 26.3392 3.5995C26.3625 3.59527 26.3857 3.59103 26.4112 3.58467C26.4705 3.57196 26.5319 3.55713 26.5933 3.54442C26.625 3.53806 26.6589 3.5317 26.6907 3.52535C26.7436 3.51476 26.7987 3.50416 26.8516 3.49357C26.8855 3.48721 26.9215 3.48297 26.9554 3.47662C27.0062 3.46814 27.0592 3.45755 27.11 3.45119C27.1481 3.44484 27.1841 3.43848 27.2222 3.43424C27.2709 3.42577 27.3217 3.41941 27.3726 3.41306C27.4107 3.4067 27.4488 3.40246 27.4869 3.39823C27.5356 3.39187 27.5865 3.38551 27.6373 3.37916C27.6754 3.37492 27.7135 3.3728 27.7495 3.36856C27.8025 3.36221 27.8533 3.35797 27.9062 3.35373C27.9422 3.35161 27.9803 3.34738 28.0185 3.34526C28.0714 3.34102 28.1243 3.3389 28.1773 3.33466C28.2133 3.33255 28.2493 3.33043 28.2853 3.32831C28.3446 3.32619 28.406 3.32407 28.4653 3.32195C28.4949 3.31983 28.5246 3.31983 28.5542 3.31771C28.6453 3.3156 28.7342 3.3156 28.8253 3.31348C28.9163 3.31348 29.0074 3.3156 29.0985 3.31771H29.1175C29.2065 3.31983 29.2975 3.32407 29.3865 3.32831H29.3992C29.486 3.33255 29.5728 3.3389 29.6596 3.34526H29.6766C29.7634 3.35161 29.8502 3.36009 29.937 3.36856L29.9625 3.37068C30.0472 3.37916 30.1319 3.38975 30.2145 3.40034L30.2293 3.40246C30.314 3.41306 30.3966 3.42365 30.4813 3.43636L30.5152 3.44272C30.5977 3.45543 30.6782 3.46814 30.7608 3.48297L30.7883 3.48721C30.8646 3.49992 30.9408 3.51476 31.017 3.5317L31.0552 3.53806C31.1335 3.55501 31.2097 3.57196 31.2881 3.58891C31.3029 3.59315 31.3177 3.59527 31.3326 3.5995C31.4025 3.61645 31.4723 3.6334 31.5422 3.65035L31.5909 3.66307C31.6629 3.68213 31.7328 3.7012 31.8048 3.72027L31.862 3.73722C31.9276 3.75629 31.9933 3.77536 32.0589 3.79443C32.0822 3.80078 32.1055 3.80926 32.1288 3.81561C32.1902 3.83468 32.2495 3.85587 32.3109 3.87494C32.3342 3.88341 32.3575 3.88977 32.3787 3.89824C32.4422 3.91943 32.5036 3.94062 32.565 3.96392C32.5926 3.9724 32.618 3.98299 32.6455 3.99359C32.7006 4.01265 32.7535 4.03384 32.8065 4.05503C32.8382 4.06562 32.87 4.07833 32.9017 4.09105C32.9547 4.11223 33.0076 4.13342 33.0627 4.15673C33.0902 4.16944 33.1177 4.18003 33.1474 4.19275C33.194 4.21393 33.2427 4.233 33.2893 4.25419C33.3274 4.27114 33.3655 4.28809 33.4036 4.30504C33.4481 4.32623 33.4926 4.34741 33.5392 4.3686C33.5752 4.38767 33.6133 4.40462 33.6493 4.42369C33.6874 4.44064 33.7234 4.4597 33.7594 4.47665C33.8017 4.49784 33.8441 4.51903 33.8865 4.54233C33.9246 4.5614 33.9627 4.58259 34.0029 4.60378C34.0474 4.62708 34.0919 4.65039 34.1363 4.67581C34.1617 4.69065 34.1893 4.70548 34.2147 4.72031C34.2613 4.74573 34.3079 4.77328 34.3545 4.7987C34.3883 4.81777 34.4201 4.83896 34.454 4.85802C34.5006 4.88557 34.545 4.91311 34.5916 4.94277C34.617 4.9576 34.6425 4.97244 34.6679 4.98939C34.7229 5.02328 34.778 5.0593 34.8309 5.0932C34.8521 5.10591 34.8712 5.12075 34.8902 5.13346C34.9389 5.16524 34.9876 5.19702 35.0342 5.2288C35.0639 5.24999 35.0935 5.27117 35.1232 5.29024L35.1253 5.29236C35.6505 5.66102 36.1418 6.07205 36.5949 6.52334Z" fill="white"/>
<path fill-rule="evenodd" clip-rule="evenodd" d="M18.999 19.2634C19.179 19.6278 19.2828 20.0474 19.1494 20.4118L18.224 23.1852L22.4635 22.4267L21.8621 22.8144L17.2202 24.3462L18.999 19.2634Z" fill="#FFAE42"/>
<path fill-rule="evenodd" clip-rule="evenodd" d="M21.8646 22.8144C21.7333 22.9013 21.6931 22.7021 21.7206 22.5602C22.483 22.5453 22.9721 22.5263 23.7091 22.6767C33.0881 24.592 38.251 21.4966 39.1997 13.3946C39.35 12.7759 39.4601 12.2399 39.53 11.7886C39.7185 12.5916 39.818 13.4285 39.8201 14.2887C39.8265 20.3567 34.9178 25.2806 28.8507 25.2891C26.5361 25.2912 24.302 24.5729 22.4237 23.2191L21.8646 22.8144Z" fill="#FFAE42"/>
<defs>
<linearGradient id="paint0_linear_257_233" x1="47" y1="14.1143" x2="151" y2="14.1143" gradientUnits="userSpaceOnUse">
<stop offset="0.0398304" stop-color="#FFC700"/>
<stop offset="1" stop-color="#FF5900"/>
</linearGradient>
</defs>
</svg>
