<svg width="41" height="41" viewBox="0 0 41 41" fill="none" xmlns="http://www.w3.org/2000/svg">
<g clip-path="url(#clip0_1215_607)">
<rect width="41" height="41" fill="url(#paint0_linear_1215_607)"/>
<path d="M23.6136 36.012C23.1778 35.2406 22.5432 34.6001 21.776 34.1571C21.0087 33.7141 20.1368 33.4849 19.2508 33.4931L3.54608 33.6413C3.2764 33.6373 3.01537 33.5454 2.80262 33.3797C2.58986 33.2139 2.43697 32.9833 2.36717 32.7227C2.29736 32.4622 2.31444 32.186 2.41581 31.9361C2.51718 31.6862 2.69732 31.4761 2.92888 31.3378L16.603 23.6113C17.3742 23.1758 18.0145 22.5417 18.4576 21.7749C18.9007 21.0081 19.1303 20.1366 19.1225 19.251L18.9744 3.54623C18.9774 3.27575 19.0688 3.01368 19.2346 2.8C19.4005 2.58631 19.6317 2.43275 19.8929 2.36275C20.1542 2.29274 20.4312 2.31012 20.6817 2.41225C20.9322 2.51438 21.1424 2.69564 21.2802 2.92838L29.0019 16.6038C29.4377 17.3752 30.0722 18.0157 30.8395 18.4587C31.6068 18.9016 32.4787 19.1309 33.3646 19.1227L49.0688 18.9721C49.34 18.9741 49.6032 19.065 49.8178 19.231C50.0324 19.3969 50.1867 19.6287 50.2569 19.8907C50.3271 20.1528 50.3094 20.4306 50.2065 20.6816C50.1036 20.9327 49.9212 21.143 49.6872 21.2803L36.0118 29.002C35.2404 29.4378 34.6 30.0724 34.157 30.8396C33.714 31.6069 33.4847 32.4789 33.493 33.3648L33.6411 49.0695C33.6381 49.34 33.5467 49.6021 33.3809 49.8158C33.215 50.0295 32.9838 50.183 32.7225 50.253C32.4613 50.323 32.1843 50.3057 31.9338 50.2035C31.6833 50.1014 31.4731 49.9201 31.3353 49.6874L23.6136 36.012Z" fill="url(#paint1_linear_1215_607)"/>
</g>
<defs>
<linearGradient id="paint0_linear_1215_607" x1="0" y1="0" x2="41" y2="41.5" gradientUnits="userSpaceOnUse">
<stop stop-color="#FCFF7D"/>
<stop offset="1" stop-color="#FBDF29" stop-opacity="0.02"/>
</linearGradient>
<linearGradient id="paint1_linear_1215_607" x1="19.896" y1="2.36192" x2="32.728" y2="50.2516" gradientUnits="userSpaceOnUse">
<stop stop-color="#FF5900"/>
<stop offset="1" stop-color="#FF7C36"/>
</linearGradient>
<clipPath id="clip0_1215_607">
<rect width="41" height="41" fill="white"/>
</clipPath>
</defs>
</svg>
