<svg width="24" height="28" viewBox="0 0 24 28" fill="none" xmlns="http://www.w3.org/2000/svg">
<path d="M18.0818 5.13544C18.0752 5.13544 18.0692 5.13748 18.0626 5.13748C17.629 5.028 17.1875 4.98176 16.7248 5.07492C16.1348 5.19324 15.5639 5.56044 15.1797 6.03304C14.2551 7.17136 14.2115 8.84348 15.0121 10.075C15.7724 11.2446 17.1281 11.9334 18.483 11.4968C19.8103 11.0691 20.6617 9.84444 20.7244 8.42732C20.793 6.88916 19.7285 5.09124 18.0818 5.13544Z" fill="black"/>
<path d="M22.5527 15.0335C22.5461 15.005 22.5329 14.9791 22.5243 14.9513C22.5137 14.8731 22.4992 14.7942 22.4748 14.716C22.189 13.7987 21.1587 13.3145 20.37 12.9487C19.4678 12.5311 18.5141 12.287 17.5188 12.3781C16.4477 12.4761 15.4174 12.8337 14.4683 13.3492C13.6367 13.8007 12.9325 14.4447 12.5682 15.3348L12.5669 15.3361C12.4982 15.4708 12.4639 15.6081 12.4454 15.7441C12.4217 15.8795 12.4223 16.0046 12.4487 16.1188C12.45 16.1256 12.4514 16.1331 12.4527 16.1399C12.4659 16.1909 12.4784 16.2412 12.5002 16.2875C12.6249 16.6363 12.9114 16.9212 13.316 17.0307C13.8407 17.1728 14.4624 17.1599 15.0016 17.1912C16.1368 17.2571 17.276 17.2463 18.4092 17.1572C18.9986 17.1116 19.5853 17.0416 20.1707 16.9586C20.6809 16.8865 21.2366 16.8498 21.7131 16.6377C22.3223 16.3657 22.7203 15.7265 22.5527 15.0335Z" fill="black"/>
<path d="M8.18186 12.6154C8.17526 12.6154 8.16932 12.6175 8.16272 12.6175C7.7291 12.508 7.28756 12.4617 6.8249 12.5549C6.23486 12.6732 5.66396 13.0404 5.27984 13.513C4.35518 14.6513 4.31162 16.3235 5.1122 17.5549C5.87252 18.7245 7.22816 19.4134 8.58314 18.9768C9.9104 18.5491 10.7618 17.3244 10.8245 15.9073C10.8931 14.3691 9.82856 12.5712 8.18186 12.6154Z" fill="black"/>
<path d="M12.6525 22.5135C12.6459 22.485 12.6327 22.4591 12.6241 22.4312C12.6136 22.353 12.599 22.2742 12.5746 22.196C12.2888 21.2786 11.2586 20.7945 10.4699 20.4286C9.56767 20.0111 8.61397 19.767 7.61869 19.8581C6.54751 19.956 5.51725 20.3137 4.56817 20.8292C3.73657 21.2807 3.03235 21.9246 2.66803 22.8148L2.66671 22.8161C2.59807 22.9508 2.56375 23.0881 2.54527 23.2241C2.52151 23.3594 2.52217 23.4846 2.54857 23.5988C2.54989 23.6056 2.55121 23.6131 2.55253 23.6199C2.56573 23.6709 2.57827 23.7212 2.60005 23.7674C2.72479 24.1163 3.01123 24.4012 3.41581 24.5107C3.94051 24.6528 4.56223 24.6399 5.10145 24.6712C6.23665 24.7371 7.37581 24.7262 8.50903 24.6372C9.0984 24.5916 9.68515 24.5216 10.2706 24.4386C10.7807 24.3665 11.3365 24.3298 11.813 24.1176C12.4222 23.8456 12.8201 23.2064 12.6525 22.5135Z" fill="black"/>
<path d="M2.62724 8.6842C3.18164 9.39072 3.7367 10.0966 4.2911 10.8031C4.39076 10.9302 4.60658 11.0023 4.75772 11.0023C4.91942 11.0023 5.1128 10.9282 5.22434 10.8031C5.33984 10.6732 5.42564 10.5032 5.41772 10.3223C5.40914 10.1319 5.3405 9.98912 5.22434 9.84156C4.66994 9.13504 4.11488 8.4292 3.56048 7.72268C3.46082 7.59552 3.245 7.52344 3.09386 7.52344C2.93216 7.52344 2.73878 7.59756 2.62724 7.72268C2.51174 7.85256 2.42594 8.02256 2.43386 8.20344C2.44244 8.39384 2.51108 8.53664 2.62724 8.6842Z" fill="black"/>
<path d="M7.10521 7.48879C7.12237 7.59351 7.13755 7.69823 7.15273 7.80295C7.15999 7.85531 7.15735 7.83559 7.14481 7.74379C7.14877 7.77643 7.15273 7.80839 7.15669 7.84103C7.16263 7.88931 7.16791 7.93827 7.17253 7.98723C7.19365 8.18987 7.20883 8.39387 7.21939 8.59719C7.23985 9.01267 7.23721 9.42951 7.21279 9.84499C7.19233 10.2006 7.53091 10.5406 7.87279 10.525C8.24767 10.508 8.51101 10.2258 8.53279 9.84499C8.58559 8.93447 8.52421 8.02667 8.37835 7.12771C8.35261 6.96927 8.20411 6.79927 8.07475 6.72107C7.93351 6.63607 7.72495 6.59935 7.56589 6.65239C7.19695 6.77547 7.04383 7.11207 7.10521 7.48879Z" fill="black"/>
<path d="M11.3504 8.58897C11.1708 8.91197 10.9702 9.22205 10.7498 9.51717C10.7841 9.47161 10.8184 9.42537 10.8527 9.37981C10.6494 9.65045 10.4303 9.90749 10.196 10.1503C9.95247 10.4025 9.93267 10.8629 10.196 11.1118C10.4587 11.3607 10.8692 11.3811 11.1293 11.1118C11.6559 10.5657 12.1179 9.94353 12.4895 9.27509C12.5753 9.12141 12.6017 8.92285 12.5562 8.75081C12.5139 8.59305 12.3958 8.42237 12.2526 8.34417C11.9397 8.17417 11.5338 8.25917 11.3504 8.58897Z" fill="black"/>
<path d="M16.2307 21.3368C15.8479 22.0726 15.4657 22.809 15.0829 23.5448C14.9199 23.8583 14.9965 24.2996 15.3199 24.475C15.6261 24.6416 16.0485 24.5661 16.2227 24.2309C16.6055 23.4951 16.9877 22.7587 17.3705 22.0229C17.5335 21.7095 17.4569 21.2681 17.1335 21.0927C16.8273 20.9261 16.4049 21.0023 16.2307 21.3368Z" fill="#FCFF7D"/>
<path d="M18.4782 21.6856C18.3528 22.5227 18.2782 23.3652 18.2722 24.2118C18.2696 24.5674 18.5778 24.9081 18.9322 24.8918C19.2919 24.8755 19.5896 24.5933 19.5922 24.2118C19.5969 23.5338 19.6431 22.8579 19.7295 22.1861C19.7216 22.2466 19.7137 22.3064 19.7058 22.3669C19.7196 22.2602 19.7348 22.1534 19.7506 22.0473C19.7784 21.8603 19.7803 21.6931 19.684 21.5231C19.6041 21.3823 19.447 21.2477 19.2893 21.2103C19.1203 21.1708 18.9309 21.179 18.7804 21.2789C18.6465 21.3687 18.5039 21.5149 18.4782 21.6856Z" fill="#FCFF7D"/>
<path d="M20.4291 21.8611C20.6429 22.4894 20.8561 23.1177 21.0699 23.7461C21.1273 23.9147 21.2197 24.0602 21.3735 24.1527C21.5148 24.2377 21.7233 24.2744 21.8824 24.2214C22.2038 24.1139 22.4658 23.744 22.3431 23.385C22.1292 22.7567 21.916 22.1283 21.7022 21.5C21.6448 21.3314 21.5524 21.1859 21.3986 21.0934C21.2574 21.0084 21.0488 20.9717 20.8897 21.0247C20.5683 21.1321 20.307 21.5021 20.4291 21.8611Z" fill="#FCFF7D"/>
<path d="M7.38786 15.9507C7.40898 15.8772 7.43406 15.8052 7.4631 15.7344C7.4301 15.8154 7.39644 15.897 7.36344 15.9779C7.42746 15.8256 7.50931 15.6828 7.60699 15.5502C7.55551 15.6188 7.50402 15.6875 7.45188 15.7569C7.55814 15.6154 7.6809 15.489 7.81884 15.3788C7.75218 15.4318 7.68553 15.4849 7.61821 15.5386C7.74691 15.438 7.8855 15.3543 8.034 15.289C7.95546 15.323 7.87626 15.3577 7.79772 15.3917C7.81488 15.3842 7.83204 15.3774 7.8492 15.37C7.9779 15.3387 8.0901 15.2775 8.1858 15.1877C8.29338 15.1156 8.37852 15.0204 8.44056 14.9014C8.51316 14.7845 8.55211 14.658 8.55805 14.522C8.58775 14.3867 8.5818 14.2507 8.54022 14.1154C8.463 13.8685 8.3145 13.6305 8.08548 13.5061C8.00694 13.4721 7.92774 13.4374 7.8492 13.4034C7.67364 13.3551 7.49809 13.3551 7.32253 13.4034C7.10407 13.4911 6.88692 13.5829 6.69354 13.721C6.50676 13.8542 6.31932 14.0018 6.16488 14.1752C5.84742 14.5315 5.6118 14.9436 5.47848 15.408C5.4369 15.5434 5.43162 15.6794 5.46066 15.8147C5.4666 15.9507 5.50554 16.0772 5.57814 16.1941C5.64018 16.3131 5.72533 16.4083 5.83291 16.4804C5.92861 16.5708 6.0408 16.6314 6.1695 16.6626C6.42294 16.7218 6.7074 16.7096 6.93246 16.56C7.15224 16.4144 7.31262 16.2125 7.38786 15.9507Z" fill="white"/>
<path d="M17.07 8.35323C17.0924 8.27027 17.1202 8.18867 17.1525 8.10911C17.1195 8.19003 17.0858 8.27163 17.0528 8.35255C17.1195 8.19343 17.204 8.04519 17.3056 7.90715C17.2541 7.97583 17.2027 8.04451 17.1505 8.11387C17.2621 7.96563 17.3908 7.83371 17.5346 7.71879C17.468 7.77183 17.4013 7.82487 17.334 7.87859C17.468 7.77387 17.6119 7.68683 17.7663 7.61815C17.6878 7.65215 17.6086 7.68683 17.53 7.72083C17.627 7.67935 17.726 7.64535 17.8277 7.61951C18.0653 7.55967 18.2969 7.36587 18.419 7.15099C18.4916 7.03403 18.5306 6.90755 18.5365 6.77155C18.5662 6.63623 18.5603 6.50023 18.5187 6.36491C18.4415 6.11807 18.293 5.88007 18.064 5.75563C17.8244 5.62507 17.5676 5.58563 17.301 5.65295C16.2813 5.90999 15.4411 6.77495 15.1606 7.81127C15.092 8.06559 15.1309 8.36955 15.2603 8.59735C15.3804 8.80883 15.616 9.01079 15.8516 9.06587C16.1051 9.12503 16.3895 9.11279 16.6146 8.96319C16.8324 8.81835 16.9987 8.61435 17.07 8.35323Z" fill="white"/>
<path d="M9.14277 23.4022C9.71169 23.4022 10.28 23.4022 10.8489 23.4022C11.0218 23.4022 11.1868 23.2458 11.1789 23.0622C11.171 22.8779 11.0337 22.7222 10.8489 22.7222C10.28 22.7222 9.71169 22.7222 9.14277 22.7222C8.96985 22.7222 8.80485 22.8786 8.81277 23.0622C8.82069 23.2464 8.95797 23.4022 9.14277 23.4022Z" fill="#231F20"/>
<path d="M19.0744 16.1227C19.7397 15.8799 20.3852 15.7738 21.0861 15.7922C21.259 15.797 21.424 15.6324 21.4161 15.4522C21.4082 15.2638 21.2709 15.117 21.0861 15.1122C20.3449 15.0925 19.5985 15.2122 18.8995 15.4672C18.7372 15.5263 18.6118 15.7018 18.6692 15.8854C18.7207 16.0499 18.9002 16.1859 19.0744 16.1227Z" fill="#231F20"/>
</svg>
