<svg width="24" height="28" viewBox="0 0 24 28" fill="none" xmlns="http://www.w3.org/2000/svg">
<path d="M18.0816 5.13544C18.075 5.13544 18.069 5.13748 18.0624 5.13748C17.6288 5.028 17.1873 4.98176 16.7246 5.07492C16.1346 5.19324 15.5637 5.56044 15.1795 6.03304C14.2549 7.17136 14.2113 8.84348 15.0119 10.075C15.7722 11.2446 17.1279 11.9334 18.4828 11.4968C19.8101 11.0691 20.6615 9.84444 20.7242 8.42732C20.7928 6.88916 19.7283 5.09124 18.0816 5.13544Z" fill="black"/>
<path d="M22.5532 15.0335C22.5466 15.005 22.5334 14.9791 22.5248 14.9513C22.5142 14.8731 22.4997 14.7942 22.4753 14.716C22.1895 13.7987 21.1592 13.3145 20.3705 12.9487C19.4683 12.5311 18.5146 12.287 17.5193 12.3781C16.4482 12.4761 15.4179 12.8337 14.4688 13.3492C13.6372 13.8007 12.933 14.4447 12.5687 15.3348L12.5674 15.3361C12.4987 15.4708 12.4644 15.6081 12.4459 15.7441C12.4222 15.8795 12.4228 16.0046 12.4492 16.1188C12.4505 16.1256 12.4519 16.1331 12.4532 16.1399C12.4664 16.1909 12.4789 16.2412 12.5007 16.2875C12.6254 16.6363 12.9119 16.9212 13.3165 17.0307C13.8412 17.1728 14.4629 17.1599 15.0021 17.1912C16.1373 17.2571 17.2765 17.2463 18.4097 17.1572C18.9991 17.1116 19.5858 17.0416 20.1712 16.9586C20.6814 16.8865 21.2371 16.8498 21.7136 16.6377C22.3228 16.3657 22.7208 15.7265 22.5532 15.0335Z" fill="black"/>
<path d="M8.18211 12.6154C8.17551 12.6154 8.16956 12.6175 8.16296 12.6175C7.72934 12.508 7.28781 12.4617 6.82515 12.5549C6.23511 12.6732 5.66421 13.0404 5.28009 13.513C4.35543 14.6513 4.31186 16.3235 5.11244 17.5549C5.87276 18.7245 7.22841 19.4134 8.58339 18.9768C9.91065 18.5491 10.762 17.3244 10.8247 15.9073C10.8933 14.3691 9.82881 12.5712 8.18211 12.6154Z" fill="black"/>
<path d="M12.6527 22.5135C12.6461 22.485 12.6329 22.4591 12.6243 22.4312C12.6138 22.353 12.5992 22.2742 12.5748 22.196C12.289 21.2786 11.2588 20.7945 10.4701 20.4286C9.56791 20.0111 8.61421 19.767 7.61893 19.8581C6.54775 19.956 5.51749 20.3137 4.56841 20.8292C3.73681 21.2807 3.03259 21.9246 2.66827 22.8148L2.66695 22.8161C2.59831 22.9508 2.56399 23.0881 2.54551 23.2241C2.52175 23.3594 2.52241 23.4846 2.54881 23.5988C2.55013 23.6056 2.55145 23.6131 2.55277 23.6199C2.56597 23.6709 2.57851 23.7212 2.60029 23.7674C2.72503 24.1163 3.01147 24.4012 3.41605 24.5107C3.94075 24.6528 4.56247 24.6399 5.10169 24.6712C6.23689 24.7371 7.37605 24.7262 8.50927 24.6372C9.09864 24.5916 9.68539 24.5216 10.2708 24.4386C10.7809 24.3665 11.3367 24.3298 11.8132 24.1176C12.4224 23.8456 12.8203 23.2064 12.6527 22.5135Z" fill="black"/>
<path d="M2.62748 8.6842C3.18188 9.39072 3.73694 10.0966 4.29134 10.8031C4.391 10.9302 4.60682 11.0023 4.75796 11.0023C4.91966 11.0023 5.11304 10.9282 5.22458 10.8031C5.34008 10.6732 5.42588 10.5032 5.41796 10.3223C5.40938 10.1319 5.34074 9.98912 5.22458 9.84156C4.67018 9.13504 4.11512 8.4292 3.56072 7.72268C3.46106 7.59552 3.24524 7.52344 3.0941 7.52344C2.9324 7.52344 2.73902 7.59756 2.62748 7.72268C2.51198 7.85256 2.42618 8.02256 2.4341 8.20344C2.44268 8.39384 2.51132 8.53664 2.62748 8.6842Z" fill="black"/>
<path d="M7.10497 7.48879C7.12213 7.59351 7.13731 7.69823 7.15249 7.80295C7.15975 7.85531 7.15711 7.83559 7.14457 7.74379C7.14853 7.77643 7.15249 7.80839 7.15645 7.84103C7.16239 7.88931 7.16767 7.93827 7.17229 7.98723C7.19341 8.18987 7.20859 8.39387 7.21915 8.59719C7.23961 9.01267 7.23697 9.42951 7.21255 9.84499C7.19209 10.2006 7.53067 10.5406 7.87255 10.525C8.24743 10.508 8.51077 10.2258 8.53255 9.84499C8.58535 8.93447 8.52397 8.02667 8.37811 7.12771C8.35237 6.96927 8.20387 6.79927 8.07451 6.72107C7.93327 6.63607 7.72471 6.59935 7.56565 6.65239C7.19671 6.77547 7.04359 7.11207 7.10497 7.48879Z" fill="black"/>
<path d="M11.3504 8.58897C11.1708 8.91197 10.9702 9.22205 10.7498 9.51717C10.7841 9.47161 10.8184 9.42537 10.8527 9.37981C10.6494 9.65045 10.4303 9.90749 10.196 10.1503C9.95247 10.4025 9.93267 10.8629 10.196 11.1118C10.4587 11.3607 10.8692 11.3811 11.1293 11.1118C11.6559 10.5657 12.1179 9.94353 12.4895 9.27509C12.5753 9.12141 12.6017 8.92285 12.5562 8.75081C12.5139 8.59305 12.3958 8.42237 12.2526 8.34417C11.9397 8.17417 11.5338 8.25917 11.3504 8.58897Z" fill="black"/>
<path d="M16.2307 21.3368C15.8479 22.0726 15.4657 22.809 15.0829 23.5448C14.9199 23.8583 14.9965 24.2996 15.3199 24.475C15.6261 24.6416 16.0485 24.5661 16.2227 24.2309C16.6055 23.4951 16.9877 22.7587 17.3705 22.0229C17.5335 21.7095 17.4569 21.2681 17.1335 21.0927C16.8273 20.9261 16.4049 21.0023 16.2307 21.3368Z" fill="#FF7C36"/>
<path d="M18.4785 21.6856C18.3531 22.5227 18.2785 23.3652 18.2725 24.2118C18.2699 24.5674 18.5781 24.9081 18.9325 24.8918C19.2922 24.8755 19.5899 24.5933 19.5925 24.2118C19.5972 23.5338 19.6434 22.8579 19.7298 22.1861C19.7219 22.2466 19.714 22.3064 19.7061 22.3669C19.7199 22.2602 19.7351 22.1534 19.7509 22.0473C19.7787 21.8603 19.7806 21.6931 19.6843 21.5231C19.6044 21.3823 19.4473 21.2477 19.2896 21.2103C19.1206 21.1708 18.9312 21.179 18.7807 21.2789C18.6468 21.3687 18.5042 21.5149 18.4785 21.6856Z" fill="#FF7C36"/>
<path d="M20.4291 21.8611C20.6429 22.4894 20.8561 23.1177 21.0699 23.7461C21.1273 23.9147 21.2197 24.0602 21.3735 24.1527C21.5148 24.2377 21.7233 24.2744 21.8824 24.2214C22.2038 24.1139 22.4658 23.744 22.3431 23.385C22.1292 22.7567 21.916 22.1283 21.7022 21.5C21.6448 21.3314 21.5524 21.1859 21.3986 21.0934C21.2574 21.0084 21.0488 20.9717 20.8897 21.0247C20.5683 21.1321 20.307 21.5021 20.4291 21.8611Z" fill="#FF7C36"/>
<path d="M7.38786 15.9507C7.40898 15.8772 7.43406 15.8052 7.4631 15.7344C7.4301 15.8154 7.39644 15.897 7.36344 15.9779C7.42746 15.8256 7.50931 15.6828 7.60699 15.5502C7.55551 15.6188 7.50402 15.6875 7.45188 15.7569C7.55814 15.6154 7.6809 15.489 7.81884 15.3788C7.75218 15.4318 7.68553 15.4849 7.61821 15.5386C7.74691 15.438 7.88551 15.3543 8.03401 15.289C7.95547 15.323 7.87626 15.3577 7.79772 15.3917C7.81488 15.3842 7.83204 15.3774 7.8492 15.37C7.9779 15.3387 8.0901 15.2775 8.1858 15.1877C8.29338 15.1156 8.37853 15.0204 8.44057 14.9014C8.51317 14.7845 8.55211 14.658 8.55805 14.522C8.58775 14.3867 8.58181 14.2507 8.54023 14.1154C8.46301 13.8685 8.3145 13.6305 8.08548 13.5061C8.00694 13.4721 7.92774 13.4374 7.8492 13.4034C7.67364 13.3551 7.49809 13.3551 7.32253 13.4034C7.10407 13.4911 6.88692 13.5829 6.69354 13.721C6.50676 13.8542 6.31932 14.0018 6.16488 14.1752C5.84742 14.5315 5.6118 14.9436 5.47848 15.408C5.4369 15.5434 5.43162 15.6794 5.46066 15.8147C5.4666 15.9507 5.50554 16.0772 5.57814 16.1941C5.64018 16.3131 5.72533 16.4083 5.83291 16.4804C5.92861 16.5708 6.0408 16.6314 6.1695 16.6626C6.42294 16.7218 6.7074 16.7096 6.93246 16.56C7.15224 16.4144 7.31262 16.2125 7.38786 15.9507Z" fill="white"/>
<path d="M17.0698 8.35323C17.0922 8.27027 17.12 8.18867 17.1523 8.10911C17.1193 8.19003 17.0856 8.27163 17.0526 8.35255C17.1193 8.19343 17.2038 8.04519 17.3054 7.90715C17.2539 7.97583 17.2025 8.04451 17.1503 8.11387C17.2619 7.96563 17.3906 7.83371 17.5344 7.71879C17.4678 7.77183 17.4011 7.82487 17.3338 7.87859C17.4678 7.77387 17.6117 7.68683 17.7661 7.61815C17.6876 7.65215 17.6084 7.68683 17.5298 7.72083C17.6268 7.67935 17.7258 7.64535 17.8275 7.61951C18.0651 7.55967 18.2967 7.36587 18.4188 7.15099C18.4914 7.03403 18.5304 6.90755 18.5363 6.77155C18.566 6.63623 18.5601 6.50023 18.5185 6.36491C18.4413 6.11807 18.2928 5.88007 18.0638 5.75563C17.8242 5.62507 17.5674 5.58563 17.3008 5.65295C16.2811 5.90999 15.4409 6.77495 15.1604 7.81127C15.0918 8.06559 15.1307 8.36955 15.2601 8.59735C15.3802 8.80883 15.6158 9.01079 15.8514 9.06587C16.1049 9.12503 16.3893 9.11279 16.6144 8.96319C16.8322 8.81835 16.9985 8.61435 17.0698 8.35323Z" fill="white"/>
<path d="M9.14277 23.4022C9.71169 23.4022 10.28 23.4022 10.8489 23.4022C11.0218 23.4022 11.1868 23.2458 11.1789 23.0622C11.171 22.8779 11.0337 22.7222 10.8489 22.7222C10.28 22.7222 9.71169 22.7222 9.14277 22.7222C8.96985 22.7222 8.80485 22.8786 8.81277 23.0622C8.82069 23.2464 8.95797 23.4022 9.14277 23.4022Z" fill="#231F20"/>
<path d="M19.0746 16.1227C19.7399 15.8799 20.3854 15.7738 21.0863 15.7922C21.2592 15.797 21.4242 15.6324 21.4163 15.4522C21.4084 15.2638 21.2711 15.117 21.0863 15.1122C20.3451 15.0925 19.5987 15.2122 18.8997 15.4672C18.7374 15.5263 18.612 15.7018 18.6694 15.8854C18.7209 16.0499 18.9004 16.1859 19.0746 16.1227Z" fill="#231F20"/>
</svg>
