<svg width="50" height="50" viewBox="0 0 50 50" fill="none" xmlns="http://www.w3.org/2000/svg">
<path d="M34.153 46.978C35.633 46.922 37.393 46.696 38.502 45.635C38.811 45.34 39.064 45.003 39.279 44.643C39.739 43.38 39.769 41.919 39.812 40.635C39.873 38.821 40.402 22.418 40.376 19.297C40.358 17.169 40.215 15.042 39.947 12.93C39.924 12.75 39.903 12.554 39.882 12.362C39.812 12.109 39.758 11.852 39.708 11.613C39.616 11.171 39.439 10.757 39.278 10.339C39.018 9.95105 38.711 9.58504 38.324 9.25604C37.618 8.65604 36.855 8.21205 36.507 7.31805C36.205 6.54404 36.274 5.70805 36.286 4.89605C36.296 4.25705 36.47 3.24605 35.963 2.74405C35.361 2.14705 34.3 2.14205 33.399 2.11605C33.048 2.11305 32.695 2.10905 32.351 2.10005C31.109 2.06605 29.867 2.04105 28.625 2.02605C26.058 1.99405 23.49 2.00305 20.923 2.04805C20.891 2.04805 20.868 2.06105 20.839 2.06605C19.266 1.99705 17.689 1.94905 16.125 1.99805C15.312 2.02305 14.611 2.30005 14.21 3.02905C13.726 3.90905 13.924 4.84805 13.89 5.79705C13.865 6.50405 13.587 7.07305 13.162 7.55505C12.774 7.86905 12.385 8.18204 12.006 8.50604C11.367 8.91304 10.663 9.26205 10.313 9.96205C10.248 10.093 10.059 10.566 10.017 10.665C9.65102 11.532 9.73102 12.54 9.71602 13.459C9.69802 14.553 9.68202 15.648 9.66902 16.742C9.61902 20.957 9.61002 25.173 9.64202 29.388C9.65802 31.496 9.68402 33.604 9.72002 35.711C9.75002 37.477 9.63802 39.352 10.164 41.064C10.339 41.762 10.617 42.429 11.026 43.05C11.081 43.158 11.13 43.268 11.188 43.374C11.559 44.049 12.036 44.665 12.557 45.241C13.248 45.767 14.071 46.074 14.928 46.28C15.296 46.369 15.672 46.45 16.05 46.525C16.866 46.559 17.763 46.588 18.226 46.607C20.44 46.696 31.032 47.097 34.153 46.978Z" fill="black"/>
<path d="M25.3079 15.511C23.9299 17.056 22.5609 18.61 21.2029 20.173C20.0559 21.494 17.7119 23.4 18.6379 25.379C19.5829 27.399 22.2299 26.966 23.9679 26.508C24.9539 26.248 25.9379 25.978 26.9229 25.713C27.4429 25.573 27.9629 25.411 28.4879 25.292C28.5909 25.269 28.8069 25.257 28.8969 25.212C29.1179 25.102 28.8789 25.197 28.8829 25.201C28.7539 24.98 28.6259 24.76 28.4969 24.539C28.6979 25.03 27.6369 26.121 27.3239 26.495C26.6529 27.295 25.9729 28.086 25.2969 28.882C23.9319 30.489 22.5669 32.096 21.2019 33.703C19.9589 35.166 22.0709 37.298 23.3229 35.824C24.8399 34.038 26.3569 32.253 27.8729 30.467C29.1779 28.931 31.3289 27.057 31.5339 24.932C31.6349 23.883 31.1619 22.942 30.2069 22.475C29.3569 22.059 28.3949 22.216 27.5169 22.446C26.3559 22.749 25.1989 23.07 24.0399 23.381C23.1979 23.608 21.7019 24.304 20.9179 23.711C21.0969 23.89 21.2769 24.07 21.4559 24.249C21.4139 24.547 21.4569 24.568 21.5849 24.309C21.7389 24.129 21.8929 23.95 22.0479 23.771C22.2799 23.502 22.5119 23.233 22.7439 22.965C23.2469 22.383 23.7519 21.803 24.2579 21.224C25.3089 20.021 26.3669 18.825 27.4299 17.633C28.7109 16.196 26.5959 14.067 25.3079 15.511Z" fill="white"/>
<path d="M12.0261 13.121C20.5931 12.914 29.1651 12.952 37.7311 13.236C38.3751 13.257 38.3741 12.257 37.7311 12.236C29.1661 11.952 20.5941 11.913 12.0261 12.121C11.3841 12.136 11.3811 13.136 12.0261 13.121Z" fill="white"/>
<path d="M13.078 42.121C20.881 41.919 28.688 41.979 36.487 42.3C37.131 42.327 37.129 41.326 36.487 41.3C28.688 40.978 20.881 40.919 13.078 41.121C12.435 41.138 12.433 42.138 13.078 42.121Z" fill="white"/>
<path d="M15.233 7.46894C21.689 7.11494 28.157 7.00194 34.622 7.13094C35.266 7.14394 35.266 6.14394 34.622 6.13094C28.157 6.00194 21.69 6.11494 15.233 6.46894C14.593 6.50494 14.589 7.50494 15.233 7.46894Z" fill="white"/>
<path d="M41.3009 6.02791C41.4009 6.09691 41.4189 6.10591 41.3569 6.05691C41.4109 6.10291 41.4629 6.15091 41.5119 6.20091C41.5619 6.25191 41.6089 6.30391 41.6539 6.35891C41.6069 6.29691 41.6189 6.31591 41.6899 6.41391C41.8289 6.62891 41.9539 6.84991 42.0679 7.07891C42.3009 7.54791 42.4759 8.01091 42.6309 8.55391C42.9509 9.67191 43.0459 10.6859 42.9589 11.8719C42.9199 12.4109 43.4469 12.8719 43.9589 12.8719C44.5329 12.8719 44.9199 12.4129 44.9589 11.8719C45.0579 10.5049 44.8989 9.10291 44.4909 7.79391C44.0889 6.50491 43.4939 5.05191 42.3089 4.29991C41.8529 4.00991 41.2059 4.20491 40.9409 4.65891C40.6609 5.14091 40.8439 5.73691 41.3009 6.02791Z" fill="#B9B9B9"/>
<path d="M44.27 3.80504C44.356 3.89704 44.436 3.99204 44.517 4.08904C44.58 4.16404 44.37 3.89004 44.501 4.07104C44.535 4.11804 44.568 4.16504 44.6 4.21304C44.734 4.41304 44.853 4.62404 44.956 4.84204C44.984 4.90204 45.054 5.09504 44.949 4.81504C44.969 4.86904 44.992 4.92204 45.013 4.97704C45.053 5.08604 45.09 5.19604 45.123 5.30704C45.194 5.54804 45.245 5.79404 45.279 6.04304C45.267 5.95404 45.255 5.86604 45.243 5.77704C45.282 6.08404 45.292 6.39204 45.273 6.70104C45.241 7.22404 45.756 7.72404 46.273 7.70104C46.842 7.67504 47.238 7.26104 47.273 6.70104C47.371 5.12104 46.76 3.54104 45.685 2.39204C45.327 2.00904 44.628 2.00304 44.271 2.39204C43.894 2.80104 43.888 3.39604 44.27 3.80504Z" fill="#B9B9B9"/>
<path d="M6.81898 42.0089C6.42498 41.7979 5.78598 41.5379 5.61698 41.0809C5.58598 40.9969 5.58298 40.7909 5.55898 40.8269C5.66998 40.6649 6.20198 40.7759 6.35598 40.7899C6.84498 40.8339 7.28398 40.3759 7.33798 39.9229C7.40098 39.3979 7.09898 39.0119 6.62198 38.8259C6.39598 38.7379 6.09798 38.6079 5.94198 38.4069C5.77698 38.1929 5.90798 38.1909 5.69498 38.1479C6.97498 38.4069 7.41398 36.6859 6.22698 36.2189C5.97298 36.1189 5.75298 35.9109 5.62398 35.6729C5.57898 35.5899 5.54198 35.2849 5.50998 35.2659C5.49998 35.2599 5.27798 35.4289 5.19998 35.3749C6.12998 36.0149 7.26598 34.5529 6.41198 33.8039C6.19998 33.6189 6.01398 33.4299 5.82998 33.2189C5.80598 33.1919 5.77398 33.0399 5.75398 33.0319C5.79898 33.0509 5.24698 33.1329 5.67598 33.1879C5.50798 33.1419 5.33998 33.0969 5.17098 33.0509C5.21998 33.0719 5.26798 33.0929 5.31698 33.1149C5.81198 33.3309 6.38998 33.2609 6.68498 32.7559C6.94698 32.3089 6.80798 31.6349 6.32598 31.3879C5.39398 30.9089 5.60498 29.7789 6.60698 29.5869C7.86998 29.3439 7.33498 27.4159 6.07498 27.6579C3.38598 28.1749 2.90298 31.8739 5.31698 33.1149C5.65298 32.5389 5.98898 31.9639 6.32498 31.3879C5.31298 30.9469 4.13298 31.3469 3.82098 32.4839C3.51798 33.5849 4.21298 34.5329 4.99498 35.2179C5.39898 34.6939 5.80298 34.1709 6.20698 33.6469C4.99198 32.8109 3.53098 33.9389 3.50798 35.2639C3.48398 36.6219 4.50498 37.6789 5.69398 38.1459C5.87098 37.5029 6.04798 36.8599 6.22598 36.2169C4.97898 35.9649 3.79898 36.8599 3.82598 38.1719C3.85298 39.5139 4.95498 40.3099 6.08898 40.7529C6.17798 40.0979 6.26598 39.4429 6.35498 38.7889C4.98498 38.6659 3.56898 39.3319 3.58098 40.8889C3.59198 42.2899 4.68098 43.1319 5.80898 43.7349C6.94398 44.3429 7.95598 42.6169 6.81898 42.0089Z" fill="#B9B9B9"/>
<path d="M7.09291 24.822C7.07691 24.79 7.06091 24.758 7.04491 24.726C6.98191 24.609 6.89591 24.516 6.78691 24.445C6.68991 24.357 6.57691 24.297 6.44691 24.266C6.31391 24.224 6.18091 24.218 6.04791 24.248C5.91491 24.254 5.79091 24.294 5.67591 24.367C5.60891 24.419 5.54091 24.471 5.47391 24.523C5.34991 24.648 5.26391 24.795 5.21691 24.964C5.20491 25.053 5.19291 25.141 5.18091 25.23C5.18191 25.411 5.22691 25.579 5.31791 25.735C5.33391 25.767 5.34991 25.799 5.36591 25.831C5.42891 25.948 5.51491 26.041 5.62391 26.112C5.72091 26.2 5.83391 26.26 5.96391 26.291C6.09691 26.333 6.22991 26.339 6.36291 26.309C6.49591 26.303 6.61991 26.263 6.73491 26.19C6.80191 26.138 6.86991 26.086 6.93691 26.034C7.06091 25.909 7.14691 25.762 7.19391 25.593C7.20591 25.504 7.21791 25.416 7.22991 25.327C7.22891 25.146 7.18291 24.978 7.09291 24.822Z" fill="#B9B9B9"/>
</svg>
