<svg width="1007" height="1007" viewBox="0 0 1007 1007" fill="none" xmlns="http://www.w3.org/2000/svg">
<path d="M592.381 268.232C671.616 279.321 750.924 305.21 800.922 359.987C850.919 414.764 871.605 498.428 860.213 572.921C849.237 648.175 805.828 715.44 752.363 762.481C698.126 809.944 633.061 837.605 558.431 860.603C483.801 883.6 398.772 900.412 323.027 875.542C248.055 850.25 181.951 782.515 173.745 708.844C166.312 634.752 216.005 555.147 256.438 480.605C296.872 406.063 326.857 336.245 380.628 298.93C435.588 261.954 514.333 257.482 592.381 268.232Z" fill="url(#paint0_linear_1188_942)"/>
<path d="M681.336 516.138C681.336 516.138 709.17 532.32 703.349 553.689C697.529 575.058 656.091 603.536 656.091 603.536C656.091 603.536 654.147 579.579 625.015 574.403L643.141 556.277L681.336 516.138Z" fill="#FBC6A6"/>
<path d="M625.014 574.393L615.951 579.891V636.213H656.735L656.09 603.525C656.09 603.525 653.492 578.924 625.014 574.393Z" fill="#FBC6A6"/>
<path opacity="0.16" d="M677.247 520.428C677.247 520.428 702.906 532.955 697.216 553.82C691.526 574.695 655.627 596.869 655.627 596.869" stroke="black" stroke-width="6" stroke-miterlimit="10"/>
<path opacity="0.16" d="M652.707 636.223L652.062 590.857" stroke="black" stroke-width="6" stroke-miterlimit="10"/>
<path opacity="0.5" d="M631.218 574.967L686.754 517.648" stroke="white" stroke-width="6" stroke-miterlimit="10"/>
<path opacity="0.5" d="M621.147 576.125V637.794" stroke="white" stroke-width="6" stroke-miterlimit="10"/>
<path d="M681.336 516.138C681.336 516.138 709.17 532.32 703.349 553.689C697.529 575.058 656.091 603.536 656.091 603.536C656.091 603.536 654.147 579.579 625.015 574.403L643.141 556.277L681.336 516.138Z" stroke="#0D2232" stroke-width="6" stroke-miterlimit="10" stroke-linecap="round" stroke-linejoin="round"/>
<path d="M625.014 574.393L615.951 579.891V636.213H656.735L656.09 603.525C656.09 603.525 653.492 578.924 625.014 574.393Z" stroke="#0D2232" stroke-width="6" stroke-miterlimit="10" stroke-linecap="round" stroke-linejoin="round"/>
<path d="M437.531 494.467L405.398 515.322L336.318 496.723L316.309 537.809C316.309 537.809 392.659 566.891 417.15 566.881L442.335 549.983L437.531 494.467Z" fill="#FBC6A6"/>
<path opacity="0.16" d="M336.318 502.352L405.399 520.951L437.532 500.096" stroke="black" stroke-width="6" stroke-miterlimit="10"/>
<path opacity="0.5" d="M442.325 544.938L417.14 561.836C417.14 561.836 393.787 559.469 364.031 549.399C334.274 539.339 316.299 532.764 316.299 532.764" stroke="white" stroke-width="6" stroke-miterlimit="10"/>
<path d="M437.531 494.467L405.398 515.322L337.325 496.995L316.309 537.809C316.309 537.809 392.659 566.891 417.15 566.881L442.335 549.983L437.531 494.467Z" stroke="#0D2232" stroke-width="6" stroke-miterlimit="10"/>
<path d="M338.886 492.393C338.886 492.393 339.117 479.362 327.335 474.146C327.335 474.146 330.699 437.864 307.83 440.24C307.83 440.24 292.976 438.992 298.193 473.542C298.193 473.542 296.158 487.821 277.922 485.666C259.685 483.511 221.761 465.848 229.767 504.205C229.767 504.205 215.115 524.264 237.249 533.619C237.249 533.619 232.687 553.467 254.962 554.001C277.237 554.535 306.561 549.147 318.856 533.478L338.886 492.393Z" fill="#FBC6A6"/>
<path d="M229.757 504.195L254.096 507.961L274.367 503.248" stroke="#0D2232" stroke-width="6" stroke-miterlimit="10" stroke-linecap="round" stroke-linejoin="round"/>
<path d="M237.239 533.599C237.239 533.599 235.909 525.161 269.614 523.318L286.31 514.577" stroke="#0D2232" stroke-width="6" stroke-miterlimit="10" stroke-linecap="round" stroke-linejoin="round"/>
<path opacity="0.16" d="M327.325 474.146C327.325 474.146 327.919 442.808 308.353 444.228C308.353 444.228 298.374 444.097 301.314 473.743C301.314 473.743 296.682 491.809 278.435 489.644C260.188 487.489 224.571 467.49 232.587 505.846" stroke="black" stroke-width="6" stroke-miterlimit="10"/>
<path opacity="0.5" d="M323.952 522.995L317.205 530.196C317.205 530.196 295.987 544.636 278.405 547.315C260.823 549.993 240.451 548.241 236.997 540.125" stroke="white" stroke-width="6" stroke-miterlimit="10"/>
<path d="M338.886 492.393C338.886 492.393 339.117 479.362 327.335 474.146C327.335 474.146 330.699 437.864 307.83 440.24C307.83 440.24 292.976 438.992 298.193 473.542C298.193 473.542 296.158 487.821 277.922 485.666C259.685 483.511 221.761 465.848 229.767 504.205C229.767 504.205 215.115 524.264 237.249 533.619C237.249 533.619 232.687 553.467 254.962 554.001C277.237 554.535 306.561 549.147 318.856 533.478L338.886 492.393Z" stroke="#0D2232" stroke-width="6" stroke-miterlimit="10"/>
<path d="M451.416 801.178L525.36 801.178L525.36 779.528L451.416 779.528L451.416 801.178Z" fill="#435F84" stroke="#0D2232" stroke-width="6" stroke-miterlimit="10" stroke-linecap="round" stroke-linejoin="round"/>
<path d="M663.794 739.591V780.818L683.219 801.199L701.989 780.818L701.959 679.292H686.743L663.794 739.591Z" fill="#AFCADC"/>
<path d="M682.897 776.87C686.918 776.87 690.177 773.611 690.177 769.59C690.177 765.569 686.918 762.309 682.897 762.309C678.876 762.309 675.616 765.569 675.616 769.59C675.616 773.611 678.876 776.87 682.897 776.87Z" stroke="#0D2232" stroke-width="4" stroke-miterlimit="10" stroke-linecap="round" stroke-linejoin="round"/>
<path opacity="0.2" d="M701.989 680.39H695.303V776.87L683.289 788.884L670.772 776.367V686.693L663.794 687.157V780.818L683.702 800.716L702.805 781.623L701.989 680.39Z" fill="black"/>
<path d="M663.794 739.591V780.818L683.219 801.199L701.989 780.818V680.39H686.784L663.794 739.591Z" stroke="#0D2232" stroke-width="4" stroke-miterlimit="10" stroke-linecap="round" stroke-linejoin="round"/>
<path d="M683.813 286.069C683.813 286.069 677.791 291.456 651.186 293.671C624.571 295.887 437.309 301.516 437.309 301.516L425.779 295.887C425.779 295.887 399.285 294.427 395.529 286.069C391.773 277.71 486.23 244.57 486.23 244.57L605.569 240.925L632.819 251.77L683.813 286.069Z" fill="#CFB300"/>
<path d="M683.813 286.069C683.813 286.069 677.791 291.456 651.186 293.671C624.571 295.887 437.309 301.516 437.309 301.516L425.779 295.887C425.779 295.887 399.285 294.427 395.529 286.069C391.773 277.71 486.23 244.57 486.23 244.57L605.569 240.925L632.819 251.77L683.813 286.069Z" stroke="#0D2232" stroke-width="6" stroke-miterlimit="10" stroke-linecap="round" stroke-linejoin="round"/>
<path d="M426.827 335.18C426.827 335.18 396.425 338.825 400.222 373.99C404.028 409.154 447.812 401.813 447.812 401.813L444.046 351.332L426.827 335.18Z" fill="#FBC6A6" stroke="#0D2232" stroke-width="6" stroke-miterlimit="10"/>
<path d="M660.048 335.18C660.048 335.18 683.179 338.986 684.921 364.645C686.663 390.303 658.125 412.971 635.799 404.008C613.474 395.046 629.949 356.72 629.949 356.72L660.048 335.18Z" fill="#FBC6A6" stroke="#0D2232" stroke-width="6" stroke-miterlimit="10"/>
<path opacity="0.4" d="M657.994 350.386C657.994 350.386 670.008 356.75 664.882 370.586C657.712 389.971 643.101 384.594 643.101 384.594L647.531 360.516L657.994 350.386Z" fill="black"/>
<path opacity="0.4" d="M422.416 350.386C422.416 350.386 410.403 356.75 415.528 370.586C422.698 389.971 437.31 384.594 437.31 384.594L432.879 360.516L422.416 350.386Z" fill="black"/>
<path d="M646.322 338.976V367.847C646.322 367.847 646.06 372.852 644.228 380.596C640.119 397.956 628.126 429.093 593.515 448.588C588.591 451.358 583.636 453.664 578.672 455.537C564.252 460.985 549.811 462.827 536.046 462.062C506.389 460.411 479.946 446.645 463.944 430.845C437.964 405.187 436.383 366.075 436.383 366.075V311.415L467.116 274.347L624.964 276.25L644.419 299.059L646.322 338.976Z" fill="#FBC6A6"/>
<path opacity="0.5" d="M483.702 434.913C504.164 449.676 523.348 457.218 538.07 461.065C508.414 459.414 481.97 445.648 465.969 429.848C439.988 404.19 438.407 365.078 438.407 365.078V355.411L446.926 348.744C446.926 348.744 439.354 402.911 483.702 434.913Z" fill="white"/>
<path opacity="0.5" d="M641.207 380.596C637.098 397.956 625.105 429.093 590.495 448.588C585.57 451.358 580.616 453.664 575.651 455.537C593.264 441.811 621.933 416.505 630.724 391.35C633.715 382.841 637.36 379.951 641.207 380.596Z" fill="white"/>
<path d="M683.813 286.069C683.813 286.069 672.726 281.95 657.833 281.95C642.939 281.95 421.349 281.95 421.349 281.95C421.349 281.95 401.229 281.154 395.529 286.069V272.293C395.529 266.956 399.859 262.626 405.197 262.626H674.156C679.493 262.626 683.823 266.956 683.823 272.293V286.069H683.813Z" fill="#F9DC1B"/>
<path d="M668.477 262.626C668.477 262.736 668.477 262.787 668.477 262.787H539.541V262.626H410.594C410.594 262.626 410.594 262.595 410.594 262.545C410.554 261.488 410.141 250.975 410.594 246.161C411.068 241.086 415.186 240.935 415.186 240.935C415.186 240.935 422.316 177.736 494.226 156.83C494.226 156.83 493.591 144.152 505.313 142.893C517.034 141.624 539.531 140.044 539.531 140.044V140.205C539.531 140.205 562.017 141.786 573.739 143.054C585.46 144.323 584.826 156.991 584.826 156.991C656.735 177.897 663.865 241.096 663.865 241.096C663.865 241.096 667.984 241.257 668.457 246.322C668.91 251.025 668.538 261.226 668.477 262.626Z" fill="#F9DC1B"/>
<path opacity="0.73" d="M668.477 262.626H657.521C657.521 262.626 651.972 197.996 584.976 165.682L584.936 158.371C584.936 158.371 532.401 141.917 494.115 159.66L494.598 170.123C494.598 170.123 435.135 186.587 420.563 262.303L410.604 262.535C410.564 261.478 410.151 250.965 410.604 246.151C411.077 241.076 415.196 240.925 415.196 240.925C415.196 240.925 422.326 177.725 494.236 156.82C494.236 156.82 493.601 144.142 505.323 142.883C517.044 141.614 539.54 140.033 539.54 140.033V140.195C539.54 140.195 562.027 141.776 573.748 143.044C585.47 144.313 584.835 156.981 584.835 156.981C656.745 177.887 663.875 241.086 663.875 241.086C663.875 241.086 667.993 241.247 668.467 246.312C668.91 251.025 668.537 261.226 668.477 262.626Z" fill="white"/>
<path d="M668.467 246.312C667.993 241.247 663.875 241.086 663.875 241.086C663.875 241.086 656.745 177.887 584.835 156.981C584.835 156.981 585.47 144.313 573.748 143.044C562.027 141.776 539.53 140.195 539.53 140.195V140.033C539.53 140.033 517.034 141.614 505.313 142.883C493.591 144.152 494.226 156.82 494.226 156.82C422.316 177.725 415.186 240.925 415.186 240.925C415.186 240.925 411.067 241.086 410.594 246.151C410.121 251.216 410.594 262.626 410.594 262.626H539.53V262.787H668.467C668.467 262.787 668.95 251.388 668.467 246.312Z" stroke="#0D2232" stroke-width="6" stroke-miterlimit="10" stroke-linecap="round" stroke-linejoin="round"/>
<path d="M584.211 472.142H614.743V638.982H463.955V472.142H584.211Z" fill="white"/>
<path d="M588.028 479H493.833V580.586H588.028V479Z" fill="#F9DC1B"/>
<path d="M614.753 601.914H463.955V638.982H614.753V601.914Z" fill="#F9DC1B"/>
<path d="M565.853 459.998C565.853 459.998 536.267 466.332 516.107 459.998L509.139 491.154L527.516 498.012C527.516 498.012 539.671 503.077 554.454 498.012C569.236 492.947 573.889 478.164 573.889 478.164L565.853 459.998Z" fill="#FBC6A6" stroke="#0D2232" stroke-width="6" stroke-miterlimit="10"/>
<path d="M585.037 494.266C584.241 506.199 582.328 517.235 582.328 517.235L554.444 498.012C554.444 498.012 557.636 490.449 560.265 482.957C561.795 478.577 563.145 474.206 563.527 471.397C564.585 463.794 565.854 459.998 565.854 459.998C565.854 459.998 582.117 459.152 584.644 474.146C585.601 479.745 585.51 487.156 585.037 494.266Z" fill="#435F84"/>
<path d="M585.037 494.266C577.857 493.732 569.499 490.157 565.189 487.096C563.457 485.857 561.765 484.488 560.265 482.957C561.795 478.577 563.145 474.206 563.527 471.397C564.585 463.794 565.853 459.998 565.853 459.998C565.853 459.998 582.117 459.152 584.644 474.146C585.601 479.745 585.51 487.156 585.037 494.266Z" fill="#253B5A"/>
<path d="M565.853 459.998C565.853 459.998 582.116 459.152 584.654 474.146C587.192 489.14 582.328 517.225 582.328 517.225L554.454 498.002C554.454 498.002 562.48 478.99 563.537 471.387C564.595 463.784 565.853 459.998 565.853 459.998Z" stroke="#0D2232" stroke-width="6" stroke-miterlimit="10"/>
<path d="M496.934 494.266C497.73 506.199 499.643 517.235 499.643 517.235L527.527 498.012C527.527 498.012 524.335 490.449 521.707 482.957C520.176 478.577 518.827 474.206 518.444 471.397C517.387 463.794 516.118 459.998 516.118 459.998C516.118 459.998 499.855 459.152 497.327 474.146C496.36 479.745 496.451 487.156 496.934 494.266Z" fill="#435F84"/>
<path d="M496.934 494.266C504.114 493.732 512.472 490.157 516.782 487.096C518.514 485.857 520.206 484.488 521.707 482.957C520.176 478.577 518.827 474.206 518.444 471.397C517.387 463.794 516.118 459.998 516.118 459.998C516.118 459.998 499.855 459.152 497.327 474.146C496.36 479.745 496.451 487.156 496.934 494.266Z" fill="#253B5A"/>
<path d="M516.107 459.998C516.107 459.998 499.844 459.152 497.306 474.146C494.769 489.14 499.633 517.225 499.633 517.225L527.506 498.002C527.506 498.002 519.481 478.99 518.423 471.387C517.366 463.784 516.107 459.998 516.107 459.998Z" stroke="#0D2232" stroke-width="6" stroke-miterlimit="10"/>
<path d="M518.968 532.008H479.685V567.908H518.968V532.008Z" fill="#F9DC1B" stroke="#0D2232" stroke-width="6" stroke-miterlimit="10"/>
<path d="M518.968 546.167H479.685" stroke="#0D2232" stroke-width="6" stroke-miterlimit="10"/>
<path d="M584.835 156.981C584.835 156.981 585.943 167.595 581.663 189.296Z" fill="#F9DC1B"/>
<path d="M584.835 156.981C584.835 156.981 585.943 167.595 581.663 189.296" stroke="#0D2232" stroke-width="6" stroke-miterlimit="10" stroke-linecap="round" stroke-linejoin="round"/>
<path d="M663.874 241.086H631.217C627.763 241.086 624.964 243.885 624.964 247.339V262.787" stroke="#0D2232" stroke-width="6" stroke-miterlimit="10" stroke-linecap="round" stroke-linejoin="round"/>
<path d="M494.235 156.82C494.235 156.82 493.128 167.434 497.407 189.135Z" fill="#F9DC1B"/>
<path d="M494.235 156.82C494.235 156.82 493.128 167.434 497.407 189.135" stroke="#0D2232" stroke-width="6" stroke-miterlimit="10" stroke-linecap="round" stroke-linejoin="round"/>
<path d="M415.196 240.925H447.853C451.307 240.925 454.107 243.724 454.107 247.178V262.626" stroke="#0D2232" stroke-width="6" stroke-miterlimit="10" stroke-linecap="round" stroke-linejoin="round"/>
<path opacity="0.74" d="M670.339 272.081C663.834 269.604 656.684 269.654 649.736 269.725C598.933 270.269 548.13 270.802 497.327 271.346C474.75 271.588 452.183 271.83 429.606 272.071C419.586 272.182 408.348 272.806 401.601 280.198C400.272 281.658 398.973 283.45 397.019 283.742C394.039 284.196 391.833 280.731 391.773 277.721C391.652 272.071 396.002 267.087 401.138 264.71C406.274 262.344 412.094 262.062 417.744 261.87C501.425 259.021 585.349 267.147 668.849 260.974C673.673 260.622 679.372 260.591 682.262 264.478C683.853 266.623 684.115 269.453 684.327 272.122C684.528 274.81 686.723 284.84 681.316 281.003C679.564 279.765 678.355 277.056 676.543 275.606C674.69 274.126 672.565 272.857 670.339 272.081Z" fill="white"/>
<path d="M683.813 286.069C683.813 286.069 672.726 281.95 657.833 281.95C642.939 281.95 421.349 281.95 421.349 281.95C421.349 281.95 401.229 281.154 395.529 286.069V272.293C395.529 266.956 399.859 262.626 405.197 262.626H674.156C679.493 262.626 683.823 266.956 683.823 272.293V286.069H683.813Z" stroke="#0D2232" stroke-width="6" stroke-miterlimit="10" stroke-linecap="round" stroke-linejoin="round"/>
<path d="M444.872 316.279C444.872 316.279 444.328 345.472 444.872 353.87C445.416 362.268 439.716 369.871 431.006 364.01C422.295 358.15 423.987 323.307 423.987 323.307C423.987 323.307 433.03 323.72 444.872 316.279Z" fill="#253B5A" stroke="#0D2232" stroke-width="6" stroke-miterlimit="10"/>
<path d="M492.644 362.993C501.565 362.993 508.797 355.762 508.797 346.841C508.797 337.92 501.565 330.689 492.644 330.689C483.724 330.689 476.492 337.92 476.492 346.841C476.492 355.762 483.724 362.993 492.644 362.993Z" fill="#0D2232"/>
<path d="M588.139 362.993C597.059 362.993 604.291 355.762 604.291 346.841C604.291 337.92 597.059 330.689 588.139 330.689C579.218 330.689 571.986 337.92 571.986 346.841C571.986 355.762 579.218 362.993 588.139 362.993Z" fill="#0D2232"/>
<path d="M609.145 318.403C607.846 318.403 606.547 317.96 605.489 317.044C604.996 316.631 594.14 307.608 578.23 310.096C575.169 310.579 572.299 308.484 571.825 305.423C571.342 302.362 573.436 299.492 576.498 299.019C597.735 295.695 612.226 308.031 612.83 308.565C615.167 310.599 615.418 314.144 613.384 316.48C612.276 317.749 610.716 318.403 609.145 318.403Z" fill="#0D2232"/>
<path d="M472.111 318.403C473.41 318.403 474.709 317.96 475.767 317.044C476.26 316.631 487.116 307.608 503.026 310.096C506.088 310.579 508.958 308.484 509.431 305.423C509.914 302.362 507.82 299.492 504.758 299.019C483.521 295.695 469.03 308.031 468.426 308.565C466.09 310.599 465.838 314.144 467.872 316.48C468.98 317.749 470.54 318.403 472.111 318.403Z" fill="#0D2232"/>
<path d="M590.374 394.613C586.155 402.357 579.952 410.786 571.09 416.989C563.266 422.467 553.367 426.203 540.93 426.203C527.366 426.203 516.863 421.752 508.787 415.458C501.043 409.426 495.535 401.682 491.698 394.533C488.345 388.259 490.349 381.109 495.253 377.132C497.609 375.218 500.63 374.04 504.044 374.04H578.079C581.492 374.04 584.513 375.218 586.87 377.132C591.794 381.129 593.798 388.34 590.374 394.613Z" fill="#162336"/>
<path d="M569.922 391.361C554.031 391.361 506.299 391.361 506.299 391.361C506.299 391.361 493.581 391.844 495.263 377.132C497.619 375.218 500.64 374.04 504.054 374.04H578.088C581.502 374.04 584.523 375.218 586.879 377.132C587.051 377.283 585.802 391.361 569.922 391.361Z" fill="white"/>
<path d="M571.1 416.989C563.276 422.467 553.377 426.203 540.94 426.203C527.376 426.203 516.873 421.752 508.797 415.458C513.56 404.975 531.193 401.471 548.966 402.448C562.651 403.193 568.593 411.279 571.1 416.989Z" fill="#DD1010"/>
<path d="M504.044 374.04H578.079C588.642 374.04 595.429 385.339 590.374 394.613C582.419 409.205 567.455 426.203 540.93 426.203C514.356 426.203 499.533 409.144 491.698 394.533C486.734 385.258 493.521 374.04 504.044 374.04Z" stroke="#0D2232" stroke-width="6" stroke-miterlimit="10"/>
<path d="M614.753 638.982H463.955V673.089H614.753V638.982Z" fill="#253B5A" stroke="#0D2232" stroke-width="6" stroke-miterlimit="10"/>
<path d="M565.219 638.982H517.487V673.089H565.219V638.982Z" fill="#C3CDD4" stroke="#0D2232" stroke-width="6" stroke-miterlimit="10"/>
<path d="M684.045 850.915H687.429C689.06 850.915 690.389 852.234 690.389 853.876V862.586C690.389 865.003 688.426 866.967 686.009 866.967H609.084L593.355 856.403V866.967H554.334C551.917 866.967 549.953 865.003 549.953 862.586V846.011C549.953 843.705 551.826 841.832 554.132 841.842H555.582L657.924 840.946L684.045 850.915Z" fill="#484D60" stroke="#0D2232" stroke-width="6" stroke-miterlimit="10" stroke-linecap="round" stroke-linejoin="round"/>
<path d="M685.636 847.119L684.055 850.915H613.565L595.349 841.832H555.572C555.572 841.832 553.749 833.071 555.28 822.215C556.227 815.479 558.472 807.936 563.245 801.179H623.857L628.61 806.255C628.61 806.255 637.159 806.567 637.794 814.492C637.794 814.492 639.294 813.737 641.882 812.911C646.987 811.279 656.312 809.336 666.624 812.276C682.142 816.707 689.433 836.666 685.636 847.119Z" fill="#E89F02"/>
<path d="M578.863 841.842H555.561C555.561 841.842 553.739 833.081 555.269 822.226C555.36 822.216 555.461 822.216 555.561 822.205C578.833 821.037 578.863 841.842 578.863 841.842Z" fill="#834526"/>
<path opacity="0.75" d="M685.636 847.119L684.055 850.915H673.914C673.914 850.915 682.937 818.399 641.892 812.901C646.997 811.269 656.322 809.326 666.634 812.266C682.141 816.707 689.432 836.666 685.636 847.119Z" fill="white"/>
<path d="M623.856 801.179L628.609 806.244C628.609 806.244 637.159 806.557 637.793 814.482C637.793 814.482 651.095 807.825 666.623 812.266C682.151 816.697 689.432 836.656 685.636 847.119L684.055 850.925H613.565L595.348 841.842H555.572C555.572 841.842 550.788 818.822 563.245 801.189H623.856V801.179Z" stroke="#0D2232" stroke-width="6" stroke-miterlimit="10" stroke-linecap="round" stroke-linejoin="round"/>
<path d="M637.793 814.492C637.793 814.492 617.411 821.148 613.555 850.925" stroke="#0D2232" stroke-width="6" stroke-miterlimit="10" stroke-linecap="round" stroke-linejoin="round"/>
<path d="M628.61 806.255C628.61 806.255 614.351 809.104 609.074 822.195" stroke="#0D2232" stroke-width="6" stroke-miterlimit="10" stroke-linecap="round" stroke-linejoin="round"/>
<path d="M628.609 779.539H554.665V801.189H628.609V779.539Z" fill="#435F84" stroke="#0D2232" stroke-width="6" stroke-miterlimit="10" stroke-linecap="round" stroke-linejoin="round"/>
<path d="M621.953 779.539L613.404 673.089H540.014V693.793L549.933 693.158L560.496 779.539H621.953Z" fill="#435F84" stroke="#0D2232" stroke-width="6" stroke-miterlimit="10" stroke-linecap="round" stroke-linejoin="round"/>
<path d="M395.972 850.915H392.588C390.957 850.915 389.628 852.234 389.628 853.876V862.586C389.628 865.003 391.592 866.967 394.008 866.967H470.933L486.662 856.403V866.967H525.684C528.101 866.967 530.064 865.003 530.064 862.586V846.011C530.064 843.705 528.191 841.832 525.885 841.842H524.435L422.094 840.946L395.972 850.915Z" fill="#484D60" stroke="#0D2232" stroke-width="6" stroke-miterlimit="10" stroke-linecap="round" stroke-linejoin="round"/>
<path d="M394.392 847.119L395.973 850.915H466.463L484.679 841.832H524.456C524.456 841.832 526.278 833.071 524.748 822.215C523.801 815.479 521.556 807.936 516.782 801.179H456.171L451.418 806.255C451.418 806.255 442.869 806.567 442.234 814.492C442.234 814.492 440.734 813.737 438.146 812.911C433.04 811.279 423.715 809.336 413.404 812.276C397.876 816.707 390.585 836.666 394.392 847.119Z" fill="#E89F02"/>
<path d="M501.153 841.842H524.455C524.455 841.842 526.278 833.081 524.747 822.226C524.657 822.216 524.556 822.216 524.455 822.205C501.184 821.037 501.153 841.842 501.153 841.842Z" fill="#834526"/>
<path opacity="0.75" d="M394.392 847.119L395.973 850.915H406.113C406.113 850.915 397.09 818.399 438.136 812.901C433.03 811.269 423.705 809.326 413.394 812.266C397.876 816.707 390.585 836.666 394.392 847.119Z" fill="white"/>
<path d="M456.161 801.179L451.408 806.244C451.408 806.244 442.858 806.557 442.224 814.482C442.224 814.482 428.921 807.825 413.393 812.266C397.865 816.697 390.585 836.656 394.381 847.119L395.962 850.925H466.452L484.669 841.842H524.445C524.445 841.842 529.229 818.822 516.772 801.189H456.161V801.179Z" stroke="#0D2232" stroke-width="6" stroke-miterlimit="10" stroke-linecap="round" stroke-linejoin="round"/>
<path d="M442.224 814.492C442.224 814.492 462.605 821.148 466.462 850.925" stroke="#0D2232" stroke-width="6" stroke-miterlimit="10" stroke-linecap="round" stroke-linejoin="round"/>
<path d="M451.407 806.255C451.407 806.255 465.666 809.104 470.943 822.195" stroke="#0D2232" stroke-width="6" stroke-miterlimit="10" stroke-linecap="round" stroke-linejoin="round"/>
<path d="M458.064 779.539L466.624 673.089H540.014V693.793L530.085 693.158L519.522 779.539H458.064Z" fill="#435F84" stroke="#0D2232" stroke-width="6" stroke-miterlimit="10" stroke-linecap="round" stroke-linejoin="round"/>
<path d="M451.599 557.989L425.83 569.811L402.729 520.941L396.476 507.719L421.187 495.474L427.995 509.461L451.599 557.989Z" fill="#435F84"/>
<path opacity="0.21" d="M427.995 509.461L427.954 509.502L402.729 520.941L396.476 507.719L421.187 495.474L427.995 509.461Z" fill="white"/>
<path d="M463.955 479V546.167L449.273 553.769L427.955 509.502L423.514 500.258L463.955 479Z" fill="#F9DC1B"/>
<path opacity="0.5" d="M463.955 479V491.033L427.955 509.502L423.514 500.258L463.955 479Z" fill="white"/>
<path d="M627.633 557.989L653.402 569.811L676.502 520.941L682.756 507.719L658.044 495.474L651.237 509.461L627.633 557.989Z" fill="#435F84"/>
<path opacity="0.21" d="M651.236 509.461L651.277 509.502L676.502 520.941L682.755 507.719L658.044 495.474L651.236 509.461Z" fill="white"/>
<path d="M615.276 479V546.167L629.958 553.769L651.277 509.502L655.717 500.258L615.276 479Z" fill="#F9DC1B"/>
<path opacity="0.5" d="M615.276 479V491.033L651.277 509.502L655.717 500.258L615.276 479Z" fill="white"/>
<g opacity="0.16">
<path d="M443.735 281.95H646.323L651.177 293.671H437.3L443.735 281.95Z" fill="black"/>
<path d="M423.987 323.307C423.987 323.307 459.857 332.149 495.756 293.682L463.955 288.858L423.987 323.307Z" fill="black"/>
<path d="M511.788 320.599C511.788 320.599 565.31 329.48 599.619 287.811L569.912 288.848L511.788 320.599Z" fill="black"/>
</g>
<path opacity="0.16" d="M643.1 346.841C643.1 346.841 625.679 444.903 521.696 457.51C521.696 457.51 630.583 472.978 644.047 367.797L643.1 346.841Z" fill="black"/>
<path d="M638.639 535.744L615.276 526.309V546.167L629.958 553.769L638.639 535.744Z" fill="#E89F02"/>
<path d="M463.955 515.584L436.394 527.013L449.273 553.769L463.955 546.167V515.584Z" fill="#E89F02"/>
<path d="M608.681 620.453H469.906V632.829H608.681V620.453Z" fill="#E89F02"/>
<path d="M584.634 472.142H615.277V638.982H463.955V472.142H493.944" stroke="#0D2232" stroke-width="6" stroke-miterlimit="10"/>
<path d="M658.044 495.474L627.633 557.989L653.402 569.821L682.756 507.719L658.044 495.474Z" stroke="#0D2232" stroke-width="6" stroke-miterlimit="10" stroke-linecap="round" stroke-linejoin="round"/>
<path d="M421.187 495.474L451.599 557.989L425.83 569.821L396.476 507.719L421.187 495.474Z" stroke="#0D2232" stroke-width="6" stroke-miterlimit="10" stroke-linecap="round" stroke-linejoin="round"/>
<path d="M476.945 281.95C476.945 281.95 449.696 328.524 417.381 322.814C414.451 322.29 411.812 321.706 409.466 321.082C385.953 314.758 390.142 303.55 390.142 303.55C390.142 303.55 409.798 308.948 423.403 283.783C423.725 283.189 424.037 282.584 424.349 281.96H476.945V281.95Z" fill="#253B5A"/>
<path opacity="0.21" d="M415.196 306.027C406.143 311.566 402.498 311.415 402.498 311.415C402.498 311.415 401.39 316.017 409.466 321.082C385.953 314.758 390.142 303.55 390.142 303.55C390.142 303.55 412.175 307.115 425.779 281.95C425.8 282.292 424.148 300.549 415.196 306.027Z" fill="white"/>
<path d="M690.781 307.931C690.781 307.931 677.328 328.806 653.855 324.063C640.411 321.344 623.675 310.217 604.29 281.96L662.253 282.081C662.253 282.081 662.434 284.991 663.663 288.858C666.14 296.582 672.826 308.142 690.781 307.931Z" fill="#253B5A"/>
<path opacity="0.21" d="M690.782 307.931C690.782 307.931 677.329 328.806 653.855 324.063C656.534 323.297 659.132 322.2 661.619 320.961C666.634 318.454 671.327 315.342 676.312 312.774C670.773 312.512 665.839 308.424 663.664 303.318C662.133 299.713 661.066 293.702 662.818 289.986C663.049 289.492 663.351 289.12 663.684 288.868C666.141 296.582 672.827 308.142 690.782 307.931Z" fill="white"/>
<path d="M662.264 282.071C662.264 282.071 663.855 308.243 690.782 307.931C690.782 307.931 657.521 359.57 604.301 281.95L662.264 282.071Z" stroke="#0D2232" stroke-width="6" stroke-miterlimit="10" stroke-linecap="round" stroke-linejoin="round"/>
<path d="M577.363 281.95C577.363 281.95 565.007 315.533 511.787 320.599C511.787 320.599 520.971 304.124 520.971 281.95H577.363Z" fill="#253B5A" stroke="#0D2232" stroke-width="6" stroke-miterlimit="10" stroke-linecap="round" stroke-linejoin="round"/>
<path d="M476.945 281.95C476.945 281.95 449.696 328.524 417.391 322.814C385.087 317.104 390.142 303.54 390.142 303.54C390.142 303.54 410.735 309.189 424.36 281.94H476.945V281.95Z" stroke="#0D2232" stroke-width="6" stroke-miterlimit="10" stroke-linecap="round" stroke-linejoin="round"/>
<path d="M646.322 367.847C646.322 367.847 643.573 420.392 593.515 448.588C543.457 476.784 489.925 456.503 463.944 430.845C437.964 405.187 436.383 366.075 436.383 366.075" stroke="#0D2232" stroke-width="6" stroke-miterlimit="10"/>
<path d="M660.048 324.758C660.048 324.758 659.574 351.655 658.467 356.881C657.359 362.107 652.767 368.602 644.057 367.807C635.346 367.011 635.658 355.773 635.507 347.848C635.346 339.933 635.507 315.735 635.507 315.735C635.507 315.735 647.37 325.11 660.048 324.758Z" fill="#253B5A" stroke="#0D2232" stroke-width="6" stroke-miterlimit="10" stroke-linecap="round" stroke-linejoin="round"/>
<path d="M557.979 673.089L580.978 801.179H563.245H554.666V779.539H560.496L549.933 689.795L540.014 693.793V673.089H557.979Z" fill="#253B5A"/>
<path d="M503.601 779.539L499.331 801.179H525.352V779.539H519.521L530.085 689.795L540.014 693.793V673.089H517.487L503.601 779.539Z" fill="#253B5A"/>
<path d="M549.933 693.158L562.399 691.678" stroke="#0D2232" stroke-width="6" stroke-miterlimit="10" stroke-linecap="round" stroke-linejoin="round"/>
<path d="M530.085 693.158L517.618 691.678" stroke="#0D2232" stroke-width="6" stroke-miterlimit="10" stroke-linecap="round" stroke-linejoin="round"/>
<path d="M613.404 673.089H599.84L609.074 779.539H615.277V801.179H628.61V779.539H621.954L613.404 673.089Z" fill="#C3CDD4"/>
<path d="M467.278 673.089H480.842L471.608 779.539H465.405V801.179H452.072V779.539H458.729L467.278 673.089Z" fill="#C3CDD4"/>
<path d="M628.609 779.539H554.665V801.189H628.609V779.539Z" stroke="#0D2232" stroke-width="6" stroke-miterlimit="10" stroke-linecap="round" stroke-linejoin="round"/>
<path d="M621.953 779.539L613.404 673.089H540.014V693.793L549.933 693.158L560.496 779.539H621.953Z" stroke="#0D2232" stroke-width="6" stroke-miterlimit="10" stroke-linecap="round" stroke-linejoin="round"/>
<path d="M458.064 779.539L466.624 673.089H540.014V693.793L530.085 693.158L519.522 779.539H458.064Z" stroke="#0D2232" stroke-width="6" stroke-miterlimit="10" stroke-linecap="round" stroke-linejoin="round"/>
<path d="M691.93 685.858H674.609V751.454H691.93V685.858Z" fill="#E89F02"/>
<path d="M781.996 664.962V675.375C781.996 678.144 779.74 680.39 776.971 680.39H697.951C695.182 680.39 692.937 678.144 692.937 675.375V664.962C692.937 664.358 693.047 663.774 693.239 663.24C693.933 661.317 695.786 659.938 697.951 659.938H776.971C779.136 659.938 780.989 661.317 781.694 663.24C781.885 663.774 781.996 664.358 781.996 664.962Z" fill="#AFCADC"/>
<path opacity="0.2" d="M692.927 674.267V675.375C692.927 678.144 695.172 680.4 697.942 680.4H776.961C779.73 680.4 781.976 678.154 781.976 675.375V674.267H692.927Z" fill="black"/>
<path opacity="0.7" d="M781.694 663.24H693.239C693.934 661.317 695.787 659.938 697.952 659.938H776.971C779.136 659.938 780.989 661.307 781.694 663.24Z" fill="white"/>
<path d="M781.996 664.962V675.375C781.996 678.144 779.74 680.39 776.971 680.39H697.951C695.182 680.39 692.937 678.144 692.937 675.375V664.962C692.937 664.358 693.047 663.774 693.239 663.24C693.933 661.317 695.786 659.938 697.951 659.938H776.971C779.136 659.938 780.989 661.317 781.694 663.24C781.885 663.774 781.996 664.358 781.996 664.962Z" stroke="#0D2232" stroke-width="4" stroke-miterlimit="10" stroke-linecap="round" stroke-linejoin="round"/>
<path d="M606.828 678.738C606.828 678.738 628.187 695.565 692.927 689.1" stroke="white" stroke-miterlimit="10"/>
<path d="M588.702 638.599V727.94L600.353 739.591H679.987L669.302 731.173L669.947 638.599H588.702Z" fill="#F9DC1B"/>
<path d="M598.42 638.599V722.341L605.217 731.173H686.784L679.987 739.591H600.353L588.702 727.94V638.599H598.42Z" fill="#E89F02"/>
<path d="M600.997 651.046H595.821V656.222H600.997V651.046Z" fill="white"/>
<path d="M600.997 667.571H595.821V672.747H600.997V667.571Z" fill="white"/>
<path d="M600.997 684.105H595.821V689.281H600.997V684.105Z" fill="white"/>
<path d="M600.997 700.63H595.821V705.806H600.997V700.63Z" fill="white"/>
<path d="M600.997 717.155H595.821V722.331H600.997V717.155Z" fill="white"/>
<path d="M669.947 673.884V638.599H588.702V727.94L600.353 739.591H672.867" stroke="#0D2232" stroke-width="4" stroke-miterlimit="10" stroke-linecap="round" stroke-linejoin="round"/>
<path d="M618.48 593.798V611.179C618.48 612.528 617.382 613.626 616.043 613.626H606.607C605.258 613.626 604.16 612.528 604.16 611.179V593.798C604.16 592.448 605.258 591.361 606.607 591.361H616.043C617.382 591.351 618.48 592.448 618.48 593.798Z" fill="#AFCADC"/>
<path d="M616.032 613.797H606.597C605.157 613.797 603.979 612.629 603.979 611.179V593.798C603.979 592.358 605.147 591.19 606.597 591.19H616.032C617.472 591.19 618.64 592.358 618.64 593.798V611.179C618.64 612.619 617.472 613.797 616.032 613.797ZM606.607 591.522C605.358 591.522 604.331 592.539 604.331 593.788V611.169C604.331 612.417 605.348 613.444 606.607 613.444H616.042C617.291 613.444 618.308 612.427 618.308 611.169V593.788C618.308 592.539 617.291 591.522 616.042 591.522H606.607Z" fill="#000072"/>
<g opacity="0.2">
<path d="M618.48 607.322V611.179C618.48 612.528 617.382 613.626 616.043 613.626H606.607C605.258 613.626 604.16 612.528 604.16 611.179V607.322C604.16 608.671 605.258 609.769 606.607 609.769H616.043C617.382 609.759 618.48 608.671 618.48 607.322Z" fill="black"/>
</g>
<g opacity="0.55">
<path d="M618.48 593.798V596.527C618.48 595.177 617.382 594.09 616.043 594.09H606.607C605.258 594.09 604.16 595.187 604.16 596.527V593.798C604.16 592.448 605.258 591.361 606.607 591.361H616.043C617.382 591.351 618.48 592.448 618.48 593.798Z" fill="white"/>
</g>
<path d="M629.003 608.933H618.479V596.577H627.401L629.003 608.933Z" fill="#AFCADC"/>
<path d="M629.193 609.104H618.308V596.406H627.562L629.193 609.104ZM618.64 608.762H628.801L627.25 596.748H618.64V608.762Z" fill="#000072"/>
<path d="M678.496 607.11C678.345 608.873 676.271 609.749 674.932 608.591C667.409 602.126 656.292 605.771 654.026 614.995C653.644 616.536 652.294 617.623 650.713 617.623H633.121C631.409 617.623 629.959 616.355 629.747 614.653L629.012 608.933L627.421 596.577L626.888 592.408C626.626 590.374 628.217 588.561 630.271 588.561H659.122C670.793 588.571 679.282 597.584 678.496 607.11Z" fill="#AFCADC"/>
<path d="M650.713 617.795H633.121C631.328 617.795 629.798 616.455 629.576 614.673L626.706 592.428C626.575 591.411 626.887 590.384 627.572 589.609C628.247 588.833 629.234 588.39 630.261 588.39H659.111C664.982 588.39 670.49 590.716 674.226 594.764C677.469 598.289 679.06 602.669 678.687 607.11C678.617 607.996 678.053 608.762 677.237 609.094C676.412 609.436 675.515 609.285 674.841 608.701C671.346 605.7 666.744 604.724 662.505 606.073C658.356 607.402 655.254 610.746 654.207 615.015C653.794 616.667 652.364 617.795 650.713 617.795ZM630.251 588.743C629.324 588.743 628.438 589.145 627.824 589.84C627.21 590.535 626.928 591.472 627.048 592.388L629.918 614.633C630.13 616.244 631.509 617.452 633.131 617.452H650.723C652.213 617.452 653.512 616.425 653.875 614.955C654.952 610.564 658.134 607.13 662.394 605.761C666.744 604.371 671.477 605.378 675.052 608.45C675.626 608.943 676.391 609.074 677.096 608.782C677.811 608.49 678.274 607.855 678.335 607.09C678.687 602.74 677.137 598.45 673.954 595.006C670.289 591.028 664.871 588.743 659.091 588.743H630.251Z" fill="#000072"/>
<g opacity="0.2">
<path d="M678.497 607.11C678.346 608.873 676.271 609.749 674.932 608.591C667.409 602.126 656.292 605.771 654.026 614.995C653.644 616.536 652.294 617.623 650.713 617.623H633.121C631.409 617.623 629.959 616.355 629.748 614.653L629.566 613.283C630.02 613.505 630.513 613.626 631.047 613.626H648.639C650.22 613.626 651.579 612.528 651.952 610.997C654.218 601.773 665.335 598.118 672.857 604.593C674.197 605.751 676.271 604.875 676.422 603.112C676.603 600.937 676.291 598.782 675.576 596.758C677.711 599.799 678.809 603.415 678.497 607.11Z" fill="black"/>
</g>
<g opacity="0.55">
<path d="M674.398 595.248C671.034 592.579 666.583 590.898 661.538 590.898H632.698C630.643 590.898 629.052 592.7 629.314 594.744L629.848 598.913L631.439 611.269L632.174 616.989C632.194 617.18 632.234 617.362 632.295 617.533C630.956 617.211 629.918 616.083 629.727 614.663L628.992 608.943L627.401 596.587L626.867 592.418C626.605 590.384 628.196 588.571 630.251 588.571H659.101C665.486 588.571 670.913 591.26 674.398 595.248Z" fill="white"/>
</g>
<g opacity="0.55">
<path d="M618.469 596.527H604.724V600.333H618.469V596.527Z" fill="white"/>
</g>
<path d="M650.402 617.623H634.209V658.951H650.402V617.623Z" fill="#435F84" stroke="#0D2232" stroke-width="4" stroke-miterlimit="10" stroke-linecap="round" stroke-linejoin="round"/>
<g opacity="0.2">
<path d="M634.259 624.884C634.732 624.894 635.155 625.065 635.548 625.276C635.941 625.488 636.303 625.76 636.645 626.052C637.33 626.626 637.955 627.27 638.468 628.016C639.495 629.486 640.079 631.147 641.107 632.446C641.61 633.091 642.244 633.614 642.969 634.007C643.694 634.39 644.5 634.652 645.316 634.823C646.142 634.994 646.987 635.095 647.843 635.175C648.266 635.216 648.699 635.246 649.132 635.256C649.565 635.286 650.008 635.346 650.411 635.628C650.472 635.669 650.482 635.749 650.441 635.81C650.431 635.83 650.411 635.84 650.391 635.85H650.381C649.918 636.051 649.505 636.011 649.072 635.981C648.649 635.92 648.216 635.89 647.783 635.85C646.917 635.769 646.041 635.669 645.175 635.487C644.309 635.306 643.443 635.034 642.647 634.611C641.852 634.188 641.127 633.584 640.563 632.869C639.435 631.439 638.861 629.768 637.894 628.408C637.411 627.734 636.847 627.109 636.182 626.606C635.85 626.354 635.508 626.122 635.155 625.891C634.813 625.659 634.46 625.428 634.148 625.095C634.098 625.045 634.098 624.974 634.148 624.924C634.188 624.894 634.229 624.874 634.259 624.884Z" fill="#371A45"/>
<path d="M650.421 632.396C649.535 632.879 648.498 632.899 647.521 632.759C646.544 632.618 645.578 632.376 644.692 631.923C644.238 631.711 643.826 631.429 643.433 631.127C643.05 630.805 642.678 630.463 642.386 630.05C641.751 629.254 641.419 628.257 641.227 627.311C641.036 626.354 640.945 625.418 640.684 624.551C640.553 624.118 640.382 623.716 640.14 623.343C640.029 623.152 639.888 622.981 639.757 622.809C639.606 622.648 639.465 622.477 639.294 622.336C638.639 621.732 637.814 621.319 636.948 621.108C636.515 620.997 636.062 620.956 635.629 620.987C635.186 621.017 634.773 621.087 634.269 621.017H634.259C634.239 621.017 634.209 621.007 634.178 620.997L634.158 620.987C634.088 620.967 634.048 620.906 634.068 620.836C634.078 620.816 634.088 620.795 634.098 620.775C634.128 620.745 634.148 620.725 634.178 620.705H634.168C634.571 620.362 635.105 620.252 635.608 620.252C636.112 620.272 636.615 620.302 637.109 620.433C638.086 620.664 639.012 621.138 639.757 621.812C640.513 622.467 641.076 623.393 641.348 624.34C641.63 625.297 641.721 626.253 641.902 627.16C642.083 628.066 642.375 628.922 642.929 629.617C643.191 629.979 643.523 630.281 643.866 630.573C644.228 630.845 644.601 631.097 645.014 631.288C645.819 631.691 646.716 631.943 647.622 632.033C647.843 632.064 648.075 632.054 648.307 632.074C648.538 632.064 648.76 632.084 648.991 632.074C649.445 632.084 649.898 632.033 650.401 632.144H650.411C650.472 632.154 650.512 632.225 650.502 632.285C650.472 632.356 650.452 632.376 650.421 632.396Z" fill="#371A45"/>
<path d="M650.431 627.673C650.169 627.925 649.847 628.036 649.515 628.086C649.354 628.116 649.183 628.126 649.011 628.116C648.84 628.106 648.679 628.086 648.518 628.076C647.863 627.985 647.219 627.814 646.625 627.532C645.437 626.978 644.409 626.092 643.694 625.005C642.969 623.917 642.556 622.648 642.405 621.369C642.335 620.725 642.325 620.08 642.375 619.446C642.395 619.124 642.446 618.812 642.476 618.489C642.506 618.167 642.577 617.855 642.818 617.583V617.603C642.859 617.563 642.889 617.513 642.939 617.482C643.01 617.432 643.1 617.452 643.151 617.513L643.161 617.523V617.533C643.191 617.583 643.201 617.623 643.221 617.664V617.684C643.312 618.016 643.251 618.308 643.181 618.6C643.11 618.892 643.08 619.194 643.06 619.496C643.01 620.101 643.02 620.695 643.09 621.299C643.221 622.487 643.614 623.645 644.268 624.632C644.923 625.619 645.849 626.425 646.917 626.918C647.45 627.16 648.014 627.341 648.599 627.371C648.891 627.381 649.172 627.391 649.465 627.381C649.757 627.381 650.038 627.371 650.381 627.452C650.451 627.472 650.492 627.542 650.472 627.613C650.461 627.633 650.451 627.653 650.431 627.673Z" fill="#371A45"/>
<path d="M646.323 617.684C646.373 617.946 646.313 618.147 646.242 618.338C646.172 618.53 646.081 618.701 646.001 618.882C645.839 619.245 645.739 619.617 645.678 620C645.578 620.745 645.729 621.541 646.152 622.135C646.363 622.427 646.645 622.658 646.967 622.799C647.289 622.94 647.662 623.001 648.035 622.981C648.407 622.971 648.79 622.89 649.152 622.769C649.334 622.719 649.515 622.608 649.686 622.507C649.867 622.417 650.049 622.346 650.341 622.467H650.351C650.431 622.497 650.472 622.578 650.451 622.658C650.381 622.961 650.18 623.071 649.988 623.162C649.888 623.202 649.787 623.232 649.686 623.283C649.585 623.333 649.485 623.373 649.384 623.404C648.961 623.545 648.518 623.645 648.065 623.655C647.612 623.675 647.138 623.605 646.695 623.414C646.262 623.222 645.87 622.9 645.598 622.517C645.054 621.742 644.883 620.785 645.004 619.889C645.064 619.446 645.205 619.013 645.346 618.6C645.416 618.389 645.497 618.187 645.618 618.006C645.729 617.825 645.88 617.654 646.131 617.563C646.212 617.533 646.293 617.573 646.323 617.654C646.323 617.664 646.323 617.674 646.323 617.684Z" fill="#371A45"/>
<path d="M634.239 630.825C634.792 630.755 635.356 630.936 635.82 631.218C636.293 631.49 636.706 631.862 637.068 632.255C637.793 633.051 638.377 633.927 638.931 634.783C639.485 635.639 640.049 636.485 640.744 637.169C641.439 637.854 642.305 638.347 643.211 638.801C644.117 639.254 645.084 639.677 645.96 640.311C646.826 640.946 647.561 641.741 648.145 642.627C648.739 643.503 649.193 644.45 649.595 645.407C649.797 645.89 649.988 646.363 650.189 646.837C650.381 647.32 650.552 647.803 650.502 648.367C650.491 648.438 650.431 648.488 650.371 648.478C650.34 648.478 650.31 648.458 650.29 648.448C649.877 648.055 649.686 647.572 649.505 647.098C649.344 646.615 649.152 646.142 648.961 645.668C648.568 644.732 648.125 643.826 647.571 643C647.027 642.164 646.343 641.439 645.557 640.855C644.762 640.281 643.835 639.868 642.909 639.405C641.982 638.952 641.036 638.418 640.26 637.653C639.495 636.897 638.911 636.011 638.347 635.155C637.783 634.299 637.249 633.443 636.555 632.739C636.202 632.396 635.83 632.084 635.437 631.812C635.044 631.53 634.641 631.319 634.188 631.047C634.128 631.016 634.108 630.936 634.148 630.886C634.168 630.855 634.198 630.835 634.239 630.825Z" fill="#371A45"/>
<path d="M646.162 637.683C646.343 637.582 646.474 637.602 646.585 637.643C646.696 637.683 646.786 637.753 646.887 637.824C647.078 637.965 647.28 638.076 647.471 638.206C647.854 638.468 648.236 638.74 648.599 639.022C648.961 639.304 649.324 639.606 649.666 639.918C649.837 640.079 650.009 640.241 650.17 640.402C650.25 640.482 650.331 640.573 650.431 640.633C650.512 640.714 650.593 640.804 650.492 641.056C650.462 641.137 650.401 641.187 650.331 641.207C650.079 641.288 649.988 641.217 649.918 641.137C649.858 641.036 649.777 640.966 649.696 640.885C649.535 640.724 649.374 640.573 649.213 640.422C648.881 640.12 648.538 639.828 648.186 639.556C647.833 639.284 647.471 639.022 647.098 638.77C646.907 638.65 646.726 638.519 646.524 638.418C646.424 638.368 646.323 638.327 646.232 638.247C646.142 638.176 646.071 638.075 646.061 637.874C646.041 637.794 646.091 637.723 646.162 637.683Z" fill="#371A45"/>
<path d="M634.279 635.377C634.863 635.618 635.286 636.152 635.578 636.686C635.87 637.23 636.051 637.814 636.212 638.367C636.373 638.931 636.535 639.475 636.756 639.989C636.968 640.502 637.239 640.986 637.592 641.378C637.944 641.771 638.398 642.043 638.901 642.224C639.405 642.396 639.969 642.476 640.532 642.526C641.106 642.577 641.69 642.597 642.285 642.677C642.879 642.758 643.493 642.889 644.067 643.171C644.641 643.453 645.145 643.876 645.517 644.369C645.9 644.863 646.172 645.427 646.393 645.98C646.826 647.108 647.048 648.266 647.35 649.374C647.642 650.482 648.065 651.539 648.629 652.526C648.901 653.019 649.213 653.503 649.565 653.946C649.908 654.399 650.25 654.842 650.472 655.426C650.492 655.486 650.461 655.557 650.401 655.587C650.371 655.597 650.331 655.597 650.31 655.587C649.726 655.325 649.334 654.862 648.981 654.379C648.649 653.885 648.327 653.382 648.035 652.858C647.451 651.821 646.997 650.703 646.695 649.555C646.383 648.417 646.162 647.279 645.759 646.232C645.557 645.709 645.306 645.215 644.973 644.792C644.651 644.369 644.238 644.017 643.755 643.785C642.798 643.312 641.63 643.312 640.462 643.211C639.868 643.161 639.264 643.08 638.669 642.879C638.075 642.677 637.501 642.325 637.078 641.842C636.222 640.885 635.89 639.667 635.528 638.579C635.346 638.025 635.155 637.501 634.934 636.998C634.702 636.494 634.45 636.041 634.128 635.548C634.088 635.498 634.108 635.417 634.158 635.387C634.208 635.357 634.249 635.357 634.279 635.377Z" fill="#371A45"/>
<path d="M634.239 645.175C634.692 645.114 635.084 645.125 635.507 645.135L636.766 645.165C637.622 645.165 638.518 645.135 639.404 645.296C639.848 645.376 640.301 645.497 640.724 645.698C641.147 645.9 641.549 646.182 641.862 646.554C642.184 646.917 642.395 647.36 642.536 647.803C642.677 648.246 642.738 648.699 642.778 649.142C642.838 650.039 642.818 650.885 642.879 651.73C642.929 652.576 643.02 653.422 643.181 654.248C643.342 655.074 643.583 655.879 643.916 656.645C644.087 657.027 644.268 657.4 644.51 657.732C644.732 658.085 644.953 658.417 645.044 658.89C645.054 658.961 645.013 659.031 644.943 659.041C644.923 659.041 644.893 659.041 644.872 659.031C644.399 658.86 644.117 658.487 643.886 658.105C643.674 657.712 643.463 657.319 643.281 656.906C642.929 656.091 642.677 655.235 642.506 654.369C642.335 653.503 642.244 652.637 642.184 651.761C642.123 650.895 642.143 650.018 642.083 649.193C642.023 648.367 641.831 647.561 641.328 646.997C640.834 646.413 640.069 646.101 639.274 645.97C638.468 645.829 637.632 645.829 636.766 645.87C636.333 645.89 635.89 645.9 635.447 645.839C635.004 645.789 634.551 645.678 634.168 645.396C634.118 645.356 634.108 645.276 634.148 645.225C634.178 645.195 634.208 645.175 634.239 645.175Z" fill="#371A45"/>
<path d="M645.537 652.697C645.749 652.778 645.839 652.899 645.9 653.029C645.97 653.16 646.011 653.291 646.041 653.432C646.121 653.704 646.242 653.976 646.343 654.238C646.564 654.772 646.796 655.295 647.058 655.799C647.32 656.312 647.592 656.816 647.894 657.309C648.045 657.551 648.196 657.793 648.357 658.034C648.437 658.155 648.518 658.276 648.619 658.377C648.709 658.487 648.78 658.618 648.659 658.87C648.629 658.951 648.548 658.991 648.478 659.001C648.196 659.021 648.105 658.91 648.025 658.779C647.964 658.638 647.884 658.518 647.793 658.397C647.632 658.145 647.471 657.903 647.32 657.642C647.018 657.138 646.726 656.614 646.464 656.091C646.202 655.567 645.95 655.023 645.729 654.48C645.608 654.208 645.517 653.926 645.396 653.654C645.336 653.523 645.276 653.382 645.245 653.241C645.215 653.09 645.215 652.939 645.336 652.748C645.366 652.697 645.457 652.667 645.537 652.697Z" fill="#371A45"/>
<path d="M634.189 649.122C634.451 648.891 634.743 648.8 635.045 648.74C635.347 648.679 635.659 648.679 635.981 648.709C636.606 648.75 637.25 648.871 637.834 649.163C638.418 649.455 638.912 649.898 639.284 650.401C639.657 650.915 639.939 651.479 640.12 652.073C640.503 653.261 640.533 654.53 640.312 655.738C640.201 656.342 640.03 656.937 639.798 657.501L639.435 658.346C639.305 658.618 639.123 658.88 638.771 659.011C638.7 659.041 638.61 659.001 638.59 658.92C638.59 658.91 638.59 658.9 638.58 658.89V658.88C638.519 658.497 638.66 658.266 638.791 658.004C638.942 657.762 639.063 657.501 639.164 657.239C639.375 656.715 639.536 656.161 639.637 655.607C639.838 654.5 639.808 653.342 639.466 652.274C639.133 651.217 638.479 650.24 637.512 649.757C637.039 649.515 636.495 649.394 635.951 649.394C635.679 649.394 635.397 649.424 635.115 649.424C634.833 649.434 634.552 649.434 634.229 649.324C634.159 649.304 634.129 649.223 634.149 649.153C634.159 649.163 634.179 649.142 634.189 649.122Z" fill="#371A45"/>
<path d="M634.178 652.858C634.299 652.647 634.501 652.566 634.692 652.536C634.883 652.506 635.085 652.526 635.266 652.576C635.638 652.667 636.011 652.818 636.313 653.08C636.917 653.593 637.219 654.369 637.179 655.144C637.159 655.527 637.028 655.93 636.827 656.242C636.625 656.564 636.364 656.836 636.092 657.068C635.82 657.299 635.528 657.49 635.246 657.672C635.105 657.762 634.954 657.853 634.833 657.964C634.692 658.054 634.541 658.135 634.279 658.014C634.198 657.984 634.158 657.903 634.158 657.823C634.178 657.521 634.309 657.43 634.45 657.35C634.601 657.279 634.742 657.198 634.883 657.108C635.155 656.927 635.427 656.745 635.659 656.554C636.142 656.161 636.484 655.678 636.505 655.114C636.535 654.56 636.303 653.966 635.88 653.614C635.669 653.442 635.417 653.311 635.135 653.281C634.994 653.271 634.853 653.271 634.722 653.251C634.581 653.241 634.44 653.211 634.249 653.08L634.239 653.07C634.158 653.019 634.138 652.929 634.178 652.858Z" fill="#371A45"/>
</g>
<g opacity="0.55">
<path d="M636.616 658.951H634.209V623.323H634.551C635.689 623.323 636.616 624.249 636.616 625.387V658.951Z" fill="white"/>
</g>
<g opacity="0.3">
<path d="M650.402 617.623V658.951H646.565V627.2C646.565 625.085 644.853 623.373 642.738 623.373H634.209V617.623H650.402Z" fill="#371A45"/>
</g>
<path d="M654.147 662.364V703.943C654.147 705.827 652.617 707.347 650.744 707.347H634.037C633.474 707.347 632.94 707.206 632.477 706.964C631.379 706.401 630.634 705.253 630.634 703.933V662.354C630.634 660.471 632.164 658.951 634.037 658.951H650.744C652.627 658.951 654.147 660.481 654.147 662.364Z" fill="#F9DC1B"/>
<path d="M650.744 707.528H634.038C633.464 707.528 632.9 707.387 632.396 707.136L632.306 707.085C631.168 706.461 630.463 705.273 630.463 703.953V662.374C630.463 660.401 632.064 658.8 634.038 658.8H650.744C652.718 658.8 654.319 660.401 654.319 662.374V703.953C654.319 705.917 652.718 707.528 650.744 707.528ZM632.648 706.874C633.081 707.075 633.554 707.186 634.038 707.186H650.744C652.526 707.186 653.986 705.736 653.986 703.943V662.364C653.986 660.582 652.536 659.122 650.744 659.122H634.038C632.255 659.122 630.795 660.572 630.795 662.364V703.943C630.795 705.162 631.47 706.259 632.547 706.823L632.648 706.874Z" fill="#000072"/>
<path d="M654.147 662.364V703.943C654.147 705.826 652.617 707.347 650.744 707.347H645.195C647.078 707.347 648.599 705.816 648.599 703.943V662.364C648.599 660.481 647.068 658.961 645.195 658.961H650.744C652.627 658.951 654.147 660.481 654.147 662.364Z" fill="#E89F02"/>
<path d="M650.744 707.528H645.195V707.186C646.978 707.186 648.438 705.736 648.438 703.943V662.364C648.438 660.582 646.988 659.122 645.195 659.122V658.779H650.744C652.718 658.779 654.319 660.381 654.319 662.354V703.933C654.319 705.917 652.718 707.528 650.744 707.528ZM646.726 707.186H650.744C652.526 707.186 653.986 705.736 653.986 703.943V662.364C653.986 660.582 652.536 659.122 650.744 659.122H646.726C647.944 659.696 648.78 660.934 648.78 662.364V703.943C648.78 705.373 647.934 706.612 646.726 707.186Z" fill="#E89F02"/>
<g opacity="0.55">
<path d="M635.055 706.974C635.518 707.216 636.051 707.357 636.615 707.357H634.037C633.474 707.357 632.94 707.216 632.477 706.974C631.379 706.411 630.634 705.263 630.634 703.943V662.364C630.634 660.481 632.164 658.961 634.037 658.961H636.615C634.732 658.961 633.212 660.491 633.212 662.364V703.943C633.212 705.263 633.957 706.411 635.055 706.974Z" fill="white"/>
</g>
<g opacity="0.2">
<path d="M620.745 596.577L623.021 608.933H618.479V596.577H620.745Z" fill="black"/>
</g>
<g opacity="0.2">
<path d="M644.147 597.131C644.147 598.893 641.922 598.42 639.173 598.42C636.424 598.42 634.198 598.893 634.198 597.131C634.198 595.369 636.424 593.939 639.173 593.939C641.922 593.939 644.147 595.369 644.147 597.131Z" fill="white"/>
</g>
<g opacity="0.2">
<path d="M640.895 679.292C640.895 682.585 639.506 685.254 637.794 685.254C636.082 685.254 636.052 682.585 636.052 679.292C636.052 675.999 636.082 673.331 637.794 673.331C639.506 673.331 640.895 675.999 640.895 679.292Z" fill="white"/>
</g>
<path d="M618.48 593.798V611.179C618.48 612.528 617.382 613.626 616.043 613.626H606.607C605.258 613.626 604.16 612.528 604.16 611.179V593.798C604.16 592.448 605.258 591.361 606.607 591.361H616.043C617.382 591.351 618.48 592.448 618.48 593.798Z" stroke="#0D2232" stroke-width="4" stroke-miterlimit="10" stroke-linecap="round" stroke-linejoin="round"/>
<path d="M629.003 608.933H618.479V596.577H627.401L629.003 608.933Z" stroke="#0D2232" stroke-width="4" stroke-miterlimit="10" stroke-linecap="round" stroke-linejoin="round"/>
<path d="M678.496 607.11C678.345 608.873 676.271 609.749 674.932 608.591C667.409 602.126 656.292 605.771 654.026 614.995C653.644 616.536 652.294 617.623 650.713 617.623H633.121C631.409 617.623 629.959 616.355 629.747 614.653L629.012 608.933L627.421 596.577L626.888 592.408C626.626 590.374 628.217 588.561 630.271 588.561H659.122C670.793 588.571 679.282 597.584 678.496 607.11Z" stroke="#0D2232" stroke-width="4" stroke-miterlimit="10" stroke-linecap="round" stroke-linejoin="round"/>
<path d="M650.402 617.623H634.209V658.951H650.402V617.623Z" stroke="#0D2232" stroke-width="4" stroke-miterlimit="10" stroke-linecap="round" stroke-linejoin="round"/>
<path d="M654.147 662.364V703.943C654.147 705.827 652.617 707.347 650.744 707.347H634.037C633.474 707.347 632.94 707.206 632.477 706.964C631.379 706.401 630.634 705.253 630.634 703.933V662.354C630.634 660.471 632.164 658.951 634.037 658.951H650.744C652.627 658.951 654.147 660.481 654.147 662.364Z" stroke="#0D2232" stroke-width="4" stroke-miterlimit="10" stroke-linecap="round" stroke-linejoin="round"/>
<path d="M672.697 719.22C672.687 719.169 672.687 719.119 672.687 719.069L674.509 634.42C674.519 633.776 675.053 633.272 675.697 633.282L690.259 633.594C690.571 633.604 690.863 633.725 691.074 633.957C691.256 634.138 691.366 634.38 691.387 634.632C691.397 634.682 691.397 634.732 691.397 634.783L689.574 719.431C689.564 720.076 689.03 720.579 688.386 720.569L673.824 720.257C673.512 720.247 673.22 720.126 673.009 719.894C672.838 719.713 672.727 719.471 672.697 719.22Z" fill="#C14854"/>
<path d="M678.329 634.499L676.525 719.151L685.848 719.349L687.652 634.698L678.329 634.499Z" fill="#E8656D"/>
<path opacity="0.5" d="M677.201 630.801L675.313 720.245L676.461 720.269L678.349 630.826L677.201 630.801Z" fill="white"/>
<path d="M669.917 636.565C669.121 635.971 668.356 635.306 667.641 634.601C663.392 630.422 661.015 624.833 660.965 618.862C660.914 612.9 663.19 607.271 667.379 603.022C668.467 601.914 669.665 600.927 670.954 600.071C671.337 599.82 671.83 599.81 672.223 600.061C672.253 600.081 672.273 600.091 672.293 600.112C672.636 600.363 672.807 600.786 672.747 601.209L670.994 612.901L684.035 619.406L694.256 609.014L689.151 599.185C688.929 598.762 688.99 598.249 689.302 597.886C689.614 597.524 690.107 597.393 690.56 597.544C692.766 598.299 694.82 599.387 696.693 600.786C697.489 601.38 698.254 602.045 698.969 602.74C703.218 606.919 705.595 612.508 705.645 618.479C705.696 624.441 703.42 630.07 699.231 634.319C691.416 642.285 678.809 643.241 669.917 636.565Z" fill="#E8656D"/>
<path d="M690.178 598.661L690.984 600.212C692.232 600.998 693.411 601.924 694.508 603.002C702.846 611.199 702.957 624.602 694.76 632.94C690.228 637.552 684.096 639.636 678.114 639.203C685.163 640.976 692.937 639.082 698.395 633.524C706.592 625.186 706.481 611.783 698.143 603.586C695.807 601.3 693.078 599.658 690.178 598.661Z" fill="#C14854"/>
<path opacity="0.5" d="M668.094 630.1C676.1 640.331 686.744 636.837 686.744 636.837C686.744 636.837 678.829 635.004 672.958 628.68C666.825 622.084 664.519 615.076 664.519 615.076C664.519 615.076 662.294 622.688 668.094 630.1Z" fill="white"/>
<path opacity="0.5" d="M669.998 716.883C672.978 712.956 675.979 713.661 675.979 713.661C675.979 713.661 672.052 717.105 669.867 721.848C667.812 726.309 668.115 733.539 668.115 733.539C668.115 733.539 666.101 728.685 666.383 726.228C666.846 722.22 667.984 719.532 669.998 716.883Z" fill="white"/>
<path d="M672.857 711.023L674.408 639.163" stroke="#0D2232" stroke-width="4" stroke-miterlimit="10" stroke-linecap="round" stroke-linejoin="round"/>
<path d="M691.296 639.556L689.755 711.425" stroke="#0D2232" stroke-width="4" stroke-miterlimit="10" stroke-linecap="round" stroke-linejoin="round"/>
<path d="M669.917 636.565C669.121 635.971 668.356 635.306 667.641 634.601C663.392 630.422 661.015 624.833 660.965 618.862C660.914 612.9 663.19 607.271 667.379 603.022C668.467 601.914 669.665 600.927 670.954 600.071C671.337 599.82 671.83 599.81 672.223 600.061C672.253 600.081 672.273 600.091 672.293 600.112C672.636 600.363 672.807 600.786 672.747 601.209L670.994 612.901L684.035 619.406L694.256 609.014L689.151 599.185C688.929 598.762 688.99 598.249 689.302 597.886C689.614 597.524 690.107 597.393 690.56 597.544C692.766 598.299 694.82 599.387 696.693 600.786C697.489 601.38 698.254 602.045 698.969 602.74C703.218 606.919 705.595 612.508 705.645 618.479C705.696 624.441 703.42 630.07 699.231 634.319C691.416 642.285 678.809 643.241 669.917 636.565Z" stroke="#0D2232" stroke-width="4" stroke-miterlimit="10" stroke-linecap="round" stroke-linejoin="round"/>
<path d="M606.828 663.542V722.11C606.828 722.11 618.479 739.591 641.137 739.591C663.794 739.591 679.977 739.591 679.977 739.591L686.774 730.85C686.774 730.85 692.272 689.745 692.927 673.884C692.927 673.884 630.785 675.546 606.828 663.542Z" fill="#FEC400"/>
<path d="M612.135 665.778V709.744C612.135 717.226 616.364 724.083 623.081 727.366C634.128 732.774 654.278 737.93 686.784 730.861L679.987 739.601L637.743 739.843C637.743 739.843 615.891 737.013 606.828 722.12V663.553L612.135 665.778Z" fill="#E89F02"/>
<path d="M606.828 663.542V717.125C606.828 720.77 608.298 724.255 610.876 726.832C616.062 732.008 626.213 739.591 641.137 739.591H672.857C677.348 739.591 681.588 737.517 684.347 733.972C685.938 731.928 686.955 729.491 687.287 726.923C688.667 716.259 692.393 686.764 692.917 673.884C692.927 673.884 630.785 675.546 606.828 663.542Z" stroke="#0D2232" stroke-width="4" stroke-miterlimit="10" stroke-linecap="round" stroke-linejoin="round"/>
<path d="M606.828 678.738C606.828 678.738 626.666 695.756 691.396 689.281" stroke="#0D2232" stroke-width="4" stroke-miterlimit="10" stroke-linecap="round" stroke-linejoin="round"/>
<path d="M468.295 663.542V723.399C468.295 723.399 443.694 742.169 406.153 739.581C406.153 739.581 390.615 714.98 386.084 673.874C386.084 673.884 450.814 677.489 468.295 663.542Z" stroke="white" stroke-miterlimit="10"/>
<path d="M388.651 690.58C388.651 690.58 442.405 691.044 468.295 678.738" stroke="white" stroke-miterlimit="10"/>
<path d="M401.582 730.891C401.582 730.891 433.987 731.817 452.768 721.465L448.619 670.934L468.306 663.542V723.399C468.306 723.399 446.293 740.88 406.164 739.581L401.582 730.891Z" stroke="white" stroke-miterlimit="10"/>
<path d="M468.467 678.738C468.467 678.738 447.078 695.565 382.268 689.1" stroke="white" stroke-miterlimit="10"/>
<path d="M486.613 638.599V727.94L474.952 739.591H395.228L405.922 731.173L405.277 638.599H486.613Z" fill="#F9DC1B"/>
<path d="M476.895 638.599V722.341L470.088 731.173H388.42L395.227 739.591H474.951L486.612 727.94V638.599H476.895Z" fill="#E89F02"/>
<path d="M474.304 656.228H479.49V651.052H474.304V656.228Z" fill="white"/>
<path d="M474.304 672.759H479.49V667.583H474.304V672.759Z" fill="white"/>
<path d="M474.304 689.279H479.49V684.103H474.304V689.279Z" fill="white"/>
<path d="M474.304 705.809H479.49V700.633H474.304V705.809Z" fill="white"/>
<path d="M474.304 722.34H479.49V717.164H474.304V722.34Z" fill="white"/>
<path d="M405.277 673.884V638.599H486.612V727.94L474.951 739.591L396.305 738.745" stroke="#0D2232" stroke-width="4" stroke-miterlimit="10" stroke-linecap="round" stroke-linejoin="round"/>
<path d="M411.239 608.329L415.941 626.062L413.192 628.992C409.9 624.058 403.817 621.309 397.715 622.548C397.423 622.608 397.131 622.678 396.839 622.749C398.097 621.702 399.014 620.513 399.598 619.285C402.156 613.938 398.792 607.533 392.478 606.385L388.702 592.046C398.259 593.365 405.167 598.46 410.252 606.144C410.705 606.818 411.037 607.553 411.239 608.329Z" fill="#AFCADC"/>
<path d="M413.182 629.305L413.051 629.103C409.728 624.118 403.595 621.561 397.775 622.739C397.503 622.789 397.221 622.86 396.919 622.94L396.073 623.162L396.748 622.598C397.946 621.601 398.863 620.463 399.457 619.194C400.625 616.757 400.574 613.968 399.336 611.541C397.997 608.933 395.499 607.12 392.478 606.566L392.357 606.546L388.45 591.804L388.742 591.844C397.835 593.103 404.935 597.735 410.433 606.023C410.896 606.717 411.239 607.473 411.45 608.268L416.183 626.102L413.182 629.305ZM397.564 622.376C397.604 622.366 397.644 622.356 397.694 622.346C403.585 621.148 409.789 623.685 413.232 628.67L415.74 625.991L411.057 608.369C410.856 607.614 410.534 606.899 410.091 606.234C404.713 598.138 397.805 593.556 388.964 592.267L392.659 606.204C395.741 606.798 398.299 608.671 399.668 611.36C400.967 613.897 401.007 616.808 399.789 619.355C399.275 620.463 398.52 621.48 397.564 622.376Z" fill="#000072"/>
<g opacity="0.55">
<path d="M399.588 622.296C398.974 622.336 398.349 622.427 397.725 622.548C397.433 622.608 397.141 622.678 396.849 622.749C398.108 621.702 399.024 620.513 399.608 619.285C402.166 613.938 398.802 607.533 392.488 606.385L388.702 592.046C389.729 592.187 390.716 592.368 391.673 592.599L395.217 605.942C401.531 607.09 404.895 613.485 402.337 618.842C401.743 620.07 400.836 621.249 399.588 622.296Z" fill="white"/>
</g>
<g opacity="0.55">
<path d="M399.658 622.286L399.567 622.306C399.577 622.296 399.577 622.296 399.588 622.286C399.608 622.286 399.628 622.286 399.658 622.286Z" fill="white"/>
<path d="M399.708 622.477L398.792 622.719L399.537 622.104C399.577 622.094 399.608 622.094 399.628 622.094L401.269 622.054L399.708 622.477Z" fill="#371A45"/>
</g>
<path d="M418.992 637.511L421.288 646.182C421.429 646.715 421.137 647.279 420.634 647.471C420.594 647.481 420.563 647.491 420.523 647.501L404.834 651.67C403.243 652.093 401.632 652.244 400.051 652.153C394.996 651.851 390.273 649.062 387.715 644.701C387.06 643.594 386.547 642.395 386.205 641.096C385.772 639.475 385.631 637.854 385.731 636.273C386.134 630.019 390.454 624.451 396.849 622.759H396.859C397.151 622.678 397.433 622.618 397.735 622.558C403.837 621.319 409.919 624.068 413.212 629.002C414.179 630.452 414.894 632.084 415.317 633.856C415.589 635.004 415.71 636.152 415.71 637.28L417.683 636.756C418.046 636.656 418.418 636.766 418.68 636.998C418.811 637.119 418.932 637.3 418.992 637.511Z" fill="#AFCADC"/>
<path d="M420.574 647.692L404.885 651.861C403.304 652.284 401.672 652.445 400.041 652.345C394.885 652.043 390.102 649.152 387.544 644.802C386.869 643.664 386.356 642.436 386.013 641.157C385.59 639.546 385.429 637.904 385.53 636.263C385.953 629.748 390.474 624.249 396.788 622.568C397.121 622.477 397.403 622.417 397.685 622.356C403.646 621.148 409.95 623.766 413.353 628.882C414.35 630.382 415.065 632.033 415.478 633.796C415.73 634.853 415.861 635.941 415.871 637.018L417.603 636.555C418.016 636.444 418.459 636.545 418.771 636.837C418.962 636.998 419.093 637.22 419.154 637.461L421.45 646.131C421.621 646.766 421.279 647.42 420.674 647.652C420.654 647.662 420.614 647.672 420.574 647.692ZM396.909 622.93C390.746 624.572 386.336 629.929 385.923 636.273C385.812 637.874 385.973 639.475 386.386 641.036C386.718 642.285 387.222 643.483 387.876 644.591C390.364 648.83 395.036 651.65 400.061 651.942C401.652 652.032 403.243 651.881 404.784 651.469L420.473 647.3C420.503 647.29 420.533 647.279 420.564 647.269C420.987 647.108 421.218 646.655 421.107 646.212L418.811 637.542C418.771 637.371 418.67 637.22 418.539 637.109C418.318 636.907 418.016 636.837 417.724 636.907L415.508 637.491V637.24C415.508 636.112 415.378 634.974 415.116 633.856C414.713 632.134 414.018 630.523 413.041 629.063C409.718 624.078 403.586 621.52 397.765 622.699C397.493 622.789 397.211 622.85 396.909 622.93Z" fill="#000072"/>
<g opacity="0.3">
<path d="M411.239 608.329L415.942 626.062L413.193 628.992C413.011 628.72 412.82 628.448 412.619 628.187C409.225 623.756 403.485 621.369 397.715 622.547C397.423 622.608 397.131 622.678 396.839 622.749C398.098 621.702 399.014 620.513 399.598 619.285C399.679 619.255 399.769 619.234 399.85 619.214H399.87C400.152 619.144 400.444 619.073 400.746 619.013C403.405 618.469 406.053 618.691 408.47 619.516C409.94 620.02 411.37 618.711 410.977 617.21L408.903 609.406C408.701 608.631 408.359 607.896 407.916 607.221C403.324 600.293 397.252 595.469 389.105 593.626L388.692 592.066C398.249 593.385 405.157 598.48 410.242 606.164C410.705 606.818 411.038 607.553 411.239 608.329Z" fill="black"/>
<path d="M413.173 629.304L413.042 629.103C412.86 628.821 412.669 628.559 412.478 628.318C409.034 623.816 403.264 621.631 397.766 622.749C397.494 622.799 397.212 622.87 396.91 622.95L396.064 623.172L396.738 622.608C397.937 621.611 398.853 620.473 399.447 619.204L399.488 619.124L399.568 619.093C399.971 618.963 400.384 618.882 400.726 618.812C403.324 618.288 406.023 618.459 408.551 619.315C409.175 619.526 409.839 619.386 410.323 618.942C410.796 618.499 410.977 617.875 410.806 617.251L408.732 609.446C408.53 608.701 408.208 607.986 407.765 607.312C402.891 599.96 396.779 595.54 389.065 593.798L388.954 593.767L388.431 591.814L388.723 591.854C397.816 593.113 404.915 597.745 410.413 606.033C410.877 606.728 411.219 607.483 411.431 608.278L416.163 626.112L413.173 629.304ZM397.564 622.376C397.604 622.366 397.645 622.356 397.695 622.346C403.334 621.198 409.255 623.444 412.79 628.066C412.941 628.257 413.092 628.459 413.233 628.68L415.74 626.002L411.058 608.379C410.857 607.624 410.534 606.909 410.091 606.244C404.714 598.148 397.806 593.566 388.964 592.277L389.277 593.445C397.03 595.228 403.183 599.699 408.097 607.1C408.561 607.805 408.903 608.56 409.114 609.346L411.189 617.15C411.39 617.915 411.169 618.691 410.595 619.224C410.011 619.768 409.205 619.939 408.43 619.688C405.973 618.852 403.334 618.681 400.807 619.194C400.535 619.245 400.223 619.315 399.941 619.396C399.88 619.416 399.82 619.426 399.769 619.446C399.236 620.513 398.501 621.5 397.564 622.376Z" fill="#371A45"/>
</g>
<g opacity="0.55">
<path d="M407.805 624.078C405.368 623.232 402.679 623.001 399.991 623.544C399.699 623.605 399.407 623.675 399.115 623.746H399.104C392.72 625.438 388.4 631.016 387.987 637.26C387.887 638.841 388.027 640.472 388.46 642.083C388.803 643.372 389.316 644.581 389.971 645.688C391.381 648.085 393.435 650.008 395.852 651.297C392.478 650.119 389.538 647.803 387.705 644.681C387.051 643.574 386.537 642.375 386.195 641.076C385.762 639.455 385.621 637.834 385.721 636.253C386.124 629.999 390.444 624.431 396.839 622.739H396.849C397.141 622.658 397.423 622.598 397.725 622.537C401.28 621.823 404.824 622.457 407.805 624.078Z" fill="white"/>
</g>
<path d="M400.696 645.185C405.078 645.185 408.631 641.632 408.631 637.25C408.631 632.867 405.078 629.315 400.696 629.315C396.313 629.315 392.761 632.867 392.761 637.25C392.761 641.632 396.313 645.185 400.696 645.185Z" fill="#CECEDD"/>
<g opacity="0.55">
<path d="M410.857 636.656C411.984 640.895 409.457 645.235 405.227 646.363C402.609 647.058 399.951 646.363 398.027 644.722C399.487 645.245 401.119 645.346 402.74 644.923C406.98 643.795 409.497 639.455 408.369 635.216C407.936 633.604 407.04 632.235 405.862 631.228C408.228 632.074 410.162 634.037 410.857 636.656Z" fill="white"/>
</g>
<g opacity="0.3">
<path d="M405.529 630.956C404.23 630.593 402.82 630.573 401.421 630.946C397.181 632.074 394.664 636.414 395.792 640.653C396.255 642.416 397.282 643.876 398.631 644.903C395.983 644.188 393.788 642.124 393.032 639.284C391.904 635.044 394.432 630.704 398.661 629.576C401.139 628.922 403.646 629.506 405.529 630.956Z" fill="black"/>
<path d="M399.517 645.346L398.571 645.094C395.771 644.339 393.576 642.134 392.831 639.334C391.683 635.004 394.271 630.543 398.601 629.395C401.058 628.741 403.626 629.254 405.64 630.805L406.425 631.409L405.469 631.147C404.17 630.785 402.79 630.785 401.461 631.137C397.332 632.235 394.865 636.484 395.963 640.603C396.406 642.265 397.362 643.705 398.732 644.752L399.517 645.346ZM398.712 629.768C394.583 630.865 392.116 635.115 393.214 639.233C393.838 641.58 395.54 643.493 397.755 644.409C396.718 643.392 395.983 642.134 395.6 640.704C394.452 636.374 397.04 631.913 401.37 630.765C402.428 630.483 403.535 630.422 404.603 630.573C402.84 629.526 400.736 629.224 398.712 629.768Z" fill="#371A45"/>
</g>
<path d="M404.542 651.741L408.177 665.436C408.661 667.248 409.718 668.87 411.188 670.038L426.051 681.86C428.499 683.803 430.251 686.482 431.046 689.493L438.468 717.467C438.941 719.26 441.005 720.076 442.596 719.109C446.282 716.863 449.142 714.265 450.693 711.103C451.941 708.555 452.143 705.615 451.408 702.866L445.779 681.679C445.215 679.554 444.087 677.631 442.516 676.09L432.688 666.483C430.764 664.6 429.626 662.042 429.596 659.353C429.566 656.312 430.16 652.929 431.117 649.344C431.711 647.108 429.677 645.064 427.441 645.658L404.542 651.741Z" fill="#F9DC1B"/>
<path d="M445.799 681.669L451.428 702.866C452.153 705.615 451.962 708.555 450.713 711.103C449.162 714.265 446.292 716.863 442.607 719.109C441.519 719.773 440.21 719.592 439.344 718.847C442.445 716.783 444.862 714.416 446.242 711.607C447.491 709.059 447.692 706.118 446.957 703.369L441.328 682.172C440.764 680.047 439.636 678.124 438.065 676.583L428.237 666.976C426.313 665.093 425.185 662.536 425.155 659.847C425.125 656.806 425.719 653.422 426.676 649.837C427.079 648.317 426.263 646.877 424.994 646.313L427.481 645.658C429.717 645.064 431.751 647.108 431.157 649.344C430.2 652.929 429.606 656.312 429.636 659.353C429.667 662.042 430.805 664.6 432.718 666.483L442.546 676.09C444.107 677.62 445.235 679.554 445.799 681.669Z" fill="#E89F02"/>
<g opacity="0.55">
<path d="M441.71 718.605C441.781 718.877 441.892 719.139 442.033 719.36C440.552 719.864 438.891 719.048 438.468 717.457L431.046 689.483C430.251 686.472 428.499 683.793 426.051 681.85L411.188 670.028C409.718 668.859 408.661 667.248 408.177 665.426L404.542 651.73L427.471 645.648C428.77 645.306 429.989 645.849 430.684 646.796L407.785 652.868L411.42 666.563C411.903 668.386 412.96 669.997 414.431 671.165L429.294 682.988C431.731 684.931 433.483 687.61 434.289 690.621L441.71 718.605Z" fill="white"/>
</g>
<path d="M404.542 651.74L408.177 665.436C408.66 667.248 408.54 669.172 407.845 670.924L400.796 688.556C399.638 691.457 399.446 694.649 400.242 697.67L407.663 725.644C408.137 727.437 406.747 729.169 404.894 729.108C400.584 728.987 396.808 728.152 393.888 726.178C391.531 724.587 389.91 722.13 389.175 719.381L383.546 698.193C382.982 696.069 383.002 693.843 383.606 691.728L387.372 678.517C388.108 675.929 387.826 673.149 386.516 670.793C385.036 668.134 382.841 665.486 380.233 662.848C378.612 661.206 379.367 658.427 381.592 657.833L404.542 651.74Z" fill="#F9DC1B"/>
<path d="M404.542 651.74L408.178 665.436C408.661 667.258 408.54 669.182 407.845 670.924L400.796 688.556C399.638 691.457 399.447 694.649 400.243 697.67L407.664 725.644C408.137 727.437 406.748 729.169 404.895 729.118C404.099 729.098 403.314 729.048 402.549 728.967C402.881 728.373 402.992 727.658 402.8 726.933L395.379 698.959C394.583 695.948 394.775 692.745 395.933 689.845L402.982 672.213C403.676 670.471 403.797 668.547 403.314 666.725L399.679 653.029L404.542 651.74Z" fill="#E89F02"/>
<g opacity="0.55">
<path d="M384.251 663.784C386.859 666.422 389.054 669.071 390.535 671.729C391.844 674.076 392.126 676.865 391.39 679.453L387.624 692.665C387.02 694.78 387 697.015 387.564 699.13L393.193 720.327C393.918 723.076 395.549 725.533 397.896 727.124C398.933 727.829 400.081 728.383 401.319 728.816C398.49 728.413 395.982 727.588 393.908 726.178C391.562 724.587 389.93 722.13 389.205 719.381L383.576 698.183C383.012 696.059 383.032 693.823 383.637 691.718L387.403 678.506C388.138 675.919 387.856 673.139 386.547 670.793C385.066 668.134 382.871 665.486 380.263 662.848C378.642 661.206 379.397 658.417 381.623 657.833L404.542 651.74L405.035 653.613L385.6 658.779C383.375 659.363 382.619 662.143 384.251 663.784Z" fill="white"/>
</g>
<path d="M400.051 652.143L400.242 652.878L387.272 656.322L384.896 647.38C384.634 646.383 385.228 645.356 386.225 645.094L387.705 644.702C390.273 649.052 394.986 651.851 400.051 652.143Z" fill="#AFCADC"/>
<path d="M400.484 653.019L387.131 656.564L384.704 647.43C384.412 646.333 385.067 645.195 386.174 644.903L387.796 644.47L387.866 644.601C390.354 648.84 395.026 651.66 400.051 651.952L400.192 651.962L400.484 653.019ZM387.413 656.091L400.011 652.747L399.9 652.335C394.855 651.992 390.172 649.162 387.625 644.923L386.285 645.275C385.389 645.517 384.855 646.434 385.097 647.33L387.413 656.091Z" fill="#000072"/>
<g opacity="0.55">
<path d="M387.836 644.661C388.038 645.014 388.269 645.356 388.501 645.688L388.37 645.729C387.373 645.99 386.779 647.018 387.041 648.015L389.115 655.839L387.393 656.292L385.017 647.35C384.755 646.353 385.349 645.326 386.346 645.064L387.836 644.661Z" fill="white"/>
</g>
<path d="M396.839 622.749C390.455 624.441 386.135 630.019 385.722 636.263L381.895 635.085L377.193 617.351C376.981 616.576 376.911 615.77 376.971 614.965C377.585 605.771 381.049 597.916 388.692 592.035L392.499 606.375C386.447 611.46 388.249 621.259 396.839 622.749Z" fill="#AFCADC"/>
<path d="M385.903 636.525L381.744 635.246L377.011 617.412C376.799 616.616 376.719 615.791 376.779 614.955C377.444 605.036 381.301 597.483 388.581 591.884L388.813 591.703L392.72 606.446L392.629 606.526C389.719 608.963 388.501 612.649 389.437 616.133C390.344 619.496 393.123 621.893 396.879 622.547L397.745 622.699L396.889 622.92C390.736 624.551 386.326 629.919 385.923 636.263L385.903 636.525ZM382.066 634.944L385.55 636.021C386.044 629.868 390.203 624.662 396.043 622.789C392.529 621.933 389.941 619.526 389.065 616.254C388.098 612.659 389.337 608.862 392.287 606.325L388.591 592.388C381.552 597.896 377.816 605.298 377.172 614.995C377.122 615.791 377.192 616.576 377.394 617.321L382.066 634.944Z" fill="#000072"/>
<g opacity="0.3">
<path d="M394.15 623.746C394.201 623.726 394.251 623.695 394.301 623.675C394.322 623.675 394.342 623.685 394.362 623.685C394.291 623.705 394.221 623.726 394.15 623.746Z" fill="#262F6A"/>
<path d="M394.211 623.937L394.06 623.585C394.11 623.554 394.17 623.534 394.221 623.504L394.271 623.484L394.372 623.494L395.177 623.655L394.412 623.867C394.342 623.897 394.281 623.917 394.211 623.937Z" fill="#371A45"/>
</g>
<g opacity="0.3">
<path d="M394.704 622.165C395.298 622.396 395.308 623.232 394.714 623.494C394.573 623.554 394.432 623.615 394.301 623.685C385.752 622.155 383.355 612.286 389.387 607.221L385.983 594.392C386.819 593.576 387.726 592.801 388.702 592.056L392.509 606.395C386.99 611.007 387.987 619.547 394.704 622.165Z" fill="#262F6A"/>
<path d="M394.331 623.877L394.271 623.867C390.192 623.132 387.161 620.463 386.164 616.717C385.228 613.203 386.376 609.537 389.175 607.14L385.771 594.321L385.852 594.241C386.698 593.425 387.614 592.63 388.581 591.884L388.813 591.703L392.72 606.446L392.629 606.526C389.981 608.752 388.712 612.024 389.256 615.287C389.759 618.368 391.773 620.815 394.784 621.984C395.127 622.125 395.348 622.437 395.358 622.809C395.368 623.192 395.157 623.514 394.804 623.665C394.663 623.726 394.532 623.786 394.391 623.857L394.331 623.877ZM386.204 594.442L389.608 607.281L389.518 607.362C386.768 609.668 385.631 613.213 386.537 616.626C387.493 620.201 390.384 622.759 394.271 623.484C394.391 623.424 394.512 623.373 394.643 623.313C394.885 623.212 394.965 622.991 394.965 622.819C394.965 622.608 394.845 622.427 394.643 622.346C391.511 621.128 389.407 618.58 388.873 615.358C388.319 612.004 389.598 608.631 392.287 606.325L388.591 592.388C387.745 593.032 386.95 593.727 386.204 594.442Z" fill="#371A45"/>
</g>
<g opacity="0.55">
<path d="M388.703 592.046L389.246 594.11C383.134 599.749 380.284 606.919 379.73 615.176C379.68 615.982 379.75 616.788 379.952 617.563L384.654 635.296L385.772 635.639C385.752 635.85 385.732 636.061 385.722 636.273L381.895 635.095L377.193 617.362C376.981 616.586 376.911 615.781 376.971 614.975C377.595 605.781 381.059 597.926 388.703 592.046Z" fill="white"/>
</g>
<g opacity="0.2">
<path d="M418.993 637.512L421.289 646.182C421.43 646.716 421.138 647.279 420.634 647.471L407.634 650.925C413.928 647.874 416.999 643.533 416.223 637.632L418.671 636.988C418.812 637.119 418.932 637.3 418.993 637.512Z" fill="black"/>
</g>
<path d="M400.051 652.143L400.242 652.878L387.272 656.322L384.896 647.38C384.634 646.383 385.228 645.356 386.225 645.094L387.705 644.702C390.273 649.052 394.986 651.851 400.051 652.143Z" stroke="#0D2232" stroke-width="4" stroke-miterlimit="10" stroke-linecap="round" stroke-linejoin="round"/>
<path d="M404.543 651.741L408.178 665.436C408.662 667.248 409.719 668.87 411.189 670.038L426.052 681.86C428.499 683.803 430.252 686.482 431.047 689.493L438.469 717.467C438.942 719.26 441.006 720.076 442.597 719.109C446.283 716.863 449.143 714.265 450.694 711.103C451.942 708.555 452.144 705.615 451.409 702.866L445.78 681.679C445.216 679.554 444.088 677.631 442.517 676.09L432.689 666.483C430.765 664.6 429.627 662.042 429.597 659.353C429.567 656.312 430.161 652.929 431.118 649.344C431.712 647.108 429.678 645.064 427.442 645.658L404.543 651.741Z" stroke="#0D2232" stroke-width="4" stroke-miterlimit="10" stroke-linecap="round" stroke-linejoin="round"/>
<path d="M404.543 651.74L408.178 665.436C408.661 667.248 408.541 669.172 407.846 670.924L400.797 688.556C399.639 691.457 399.447 694.649 400.243 697.67L407.664 725.644C408.138 727.437 406.748 729.169 404.895 729.108C400.585 728.987 396.809 728.152 393.889 726.178C391.532 724.587 389.911 722.13 389.176 719.381L383.547 698.193C382.983 696.069 383.003 693.843 383.607 691.728L387.373 678.517C388.109 675.929 387.827 673.149 386.517 670.793C385.037 668.134 382.842 665.486 380.234 662.848C378.613 661.206 379.368 658.427 381.593 657.833L404.543 651.74Z" stroke="#0D2232" stroke-width="4" stroke-miterlimit="10" stroke-linecap="round" stroke-linejoin="round"/>
<path d="M411.239 608.329L415.941 626.062L413.192 628.992C409.9 624.058 403.817 621.309 397.715 622.548C397.423 622.608 397.131 622.678 396.839 622.749C398.097 621.702 399.014 620.513 399.598 619.285C402.156 613.938 398.792 607.533 392.478 606.385L388.702 592.046C398.259 593.365 405.167 598.46 410.252 606.144C410.705 606.818 411.037 607.553 411.239 608.329Z" stroke="#0D2232" stroke-width="4" stroke-miterlimit="10" stroke-linecap="round" stroke-linejoin="round"/>
<path d="M418.993 637.511L421.289 646.182C421.43 646.715 421.138 647.279 420.635 647.471C420.595 647.481 420.564 647.491 420.524 647.501L404.835 651.67C403.244 652.093 401.633 652.244 400.052 652.153C394.997 651.851 390.274 649.062 387.716 644.701C387.061 643.594 386.548 642.395 386.205 641.096C385.772 639.475 385.631 637.854 385.732 636.273C386.135 630.019 390.455 624.451 396.849 622.759H396.86C397.152 622.678 397.434 622.618 397.736 622.558C403.838 621.319 409.92 624.068 413.213 629.002C414.18 630.452 414.895 632.084 415.318 633.856C415.59 635.004 415.711 636.152 415.711 637.28L417.684 636.756C418.047 636.656 418.419 636.766 418.681 636.998C418.812 637.119 418.933 637.3 418.993 637.511Z" stroke="#0D2232" stroke-width="4" stroke-miterlimit="10" stroke-linecap="round" stroke-linejoin="round"/>
<path d="M396.839 622.749C390.455 624.441 386.135 630.019 385.722 636.263L381.895 635.085L377.193 617.351C376.981 616.576 376.911 615.77 376.971 614.965C377.585 605.771 381.049 597.916 388.692 592.035L392.499 606.375C386.447 611.46 388.249 621.259 396.839 622.749Z" stroke="#0D2232" stroke-width="4" stroke-miterlimit="10" stroke-linecap="round" stroke-linejoin="round"/>
<path d="M400.696 645.185C405.078 645.185 408.631 641.632 408.631 637.25C408.631 632.867 405.078 629.315 400.696 629.315C396.313 629.315 392.761 632.867 392.761 637.25C392.761 641.632 396.313 645.185 400.696 645.185Z" stroke="#0D2232" stroke-width="4" stroke-miterlimit="10" stroke-linecap="round" stroke-linejoin="round"/>
<path d="M453.382 669.323H432.688C430.483 669.323 428.69 667.53 428.69 665.325V664.187C428.69 661.982 430.483 660.189 432.688 660.189H453.382C455.587 660.189 457.38 661.982 457.38 664.187V665.325C457.38 667.54 455.587 669.323 453.382 669.323Z" fill="#F9DC1B"/>
<path d="M451.7 669.323H434.44V676.452H451.7V669.323Z" fill="#F9DC1B"/>
<path d="M444.823 721.244H441.248C434.309 721.244 428.69 715.625 428.69 708.686V680.631C428.69 678.325 430.553 676.462 432.859 676.462H453.211C455.517 676.462 457.38 678.325 457.38 680.631V708.686C457.38 715.614 451.751 721.244 444.823 721.244Z" fill="#F9DC1B"/>
<path d="M457.379 663.261V666.261C457.379 667.953 456.01 669.323 454.318 669.323H449.283C450.975 669.323 452.344 667.953 452.344 666.261V663.261C452.344 661.569 450.975 660.199 449.283 660.199H454.318C456 660.199 457.379 661.569 457.379 663.261Z" fill="#E89F02"/>
<path d="M451.711 669.333H446.676V676.462H451.711V669.333Z" fill="#E89F02"/>
<path d="M457.38 679.503V707.317C457.38 715.01 451.147 721.243 443.454 721.243H443.182C448.247 721.243 452.355 717.135 452.355 712.07V679.503C452.355 677.822 450.996 676.462 449.314 676.462H454.349C456.011 676.452 457.38 677.822 457.38 679.503Z" fill="#E89F02"/>
<g opacity="0.55">
<path d="M435.316 669.333H431.761C430.07 669.333 428.7 667.963 428.7 666.271V663.27C428.7 661.579 430.07 660.209 431.761 660.209H435.316C433.624 660.209 432.255 661.579 432.255 663.27V666.271C432.245 667.953 433.614 669.333 435.316 669.333Z" fill="white"/>
</g>
<g opacity="0.55">
<path d="M437.995 669.333H434.44V676.462H437.995V669.333Z" fill="white"/>
</g>
<g opacity="0.55">
<path d="M441.419 721.244H437.864C432.799 721.244 428.69 717.135 428.69 712.07V679.503C428.69 677.822 430.05 676.462 431.732 676.462H435.286C433.605 676.462 432.245 677.822 432.245 679.503V712.07C432.245 717.135 436.354 721.244 441.419 721.244Z" fill="white"/>
</g>
<path d="M453.039 621.218L450.703 628.448H447.702V660.199H438.69V628.448H435.689L433.353 621.218L437.028 600.534H449.374L453.039 621.218Z" fill="#AFCADC"/>
<path d="M447.864 660.36H438.519V628.61H435.558L433.172 621.228L433.182 621.188L436.878 600.363H449.495L453.201 621.228L450.815 628.61H447.854V660.36H447.864ZM438.861 660.028H447.532V628.277H450.583L452.869 621.208L449.234 600.706H437.17L433.534 621.208L435.82 628.277H438.871V660.028H438.861Z" fill="#000072"/>
<g opacity="0.2">
<path d="M446.876 628.448H447.702V660.199H444.923V630.402C444.923 629.325 445.799 628.448 446.876 628.448Z" fill="black"/>
</g>
<g opacity="0.2">
<path d="M453.04 621.218L450.703 628.448H447.924L450.26 621.218L446.595 600.534H449.374L453.04 621.218Z" fill="black"/>
</g>
<g opacity="0.55">
<path d="M436.233 621.218L438.569 628.448H436.021L433.695 621.218L437.361 600.534H439.909L436.233 621.218Z" fill="white"/>
</g>
<g opacity="0.55">
<path d="M441.57 630.11V660.199H439.022V628.448H439.909C440.835 628.448 441.57 629.194 441.57 630.11Z" fill="white"/>
</g>
<g opacity="0.2">
<path d="M442.677 695.605C442.677 699.291 441.127 702.282 439.203 702.282C437.28 702.282 437.26 699.291 437.26 695.605C437.26 691.92 437.29 688.929 439.203 688.929C441.117 688.929 442.677 691.93 442.677 695.605Z" fill="white"/>
</g>
<path d="M453.382 669.323H432.688C430.483 669.323 428.69 667.53 428.69 665.325V664.187C428.69 661.982 430.483 660.189 432.688 660.189H453.382C455.587 660.189 457.38 661.982 457.38 664.187V665.325C457.38 667.54 455.587 669.323 453.382 669.323Z" stroke="#0D2232" stroke-width="4" stroke-miterlimit="10" stroke-linecap="round" stroke-linejoin="round"/>
<path d="M451.7 669.323H434.44V676.452H451.7V669.323Z" stroke="#0D2232" stroke-width="4" stroke-miterlimit="10" stroke-linecap="round" stroke-linejoin="round"/>
<path d="M444.823 721.244H441.248C434.309 721.244 428.69 715.625 428.69 708.686V680.631C428.69 678.325 430.553 676.462 432.859 676.462H453.211C455.517 676.462 457.38 678.325 457.38 680.631V708.686C457.38 715.614 451.751 721.244 444.823 721.244Z" stroke="#0D2232" stroke-width="4" stroke-miterlimit="10" stroke-linecap="round" stroke-linejoin="round"/>
<path d="M453.039 621.218L450.703 628.448H447.702V660.199H438.69V628.448H435.689L433.353 621.218L437.028 600.534H449.374L453.039 621.218Z" stroke="#0D2232" stroke-width="4" stroke-miterlimit="10" stroke-linecap="round" stroke-linejoin="round"/>
<path d="M468.467 663.542V722.11C468.467 722.11 456.796 739.591 434.118 739.591C411.44 739.591 395.228 739.591 395.228 739.591L388.42 730.85C388.42 730.85 382.912 689.745 382.268 673.884C382.268 673.884 444.49 675.546 468.467 663.542Z" fill="#FEC400"/>
<path d="M463.159 665.778V709.744C463.159 717.226 458.93 724.083 452.203 727.366C441.136 732.774 420.966 737.93 388.43 730.861L395.237 739.601L437.531 739.843C437.531 739.843 459.403 737.013 468.476 722.12V663.553L463.159 665.778Z" fill="#E89F02"/>
<path d="M468.466 663.542V718.283C468.466 721.012 467.429 723.63 465.576 725.624C460.823 730.73 450.26 739.581 434.118 739.581H400.484C397.171 739.581 394.039 738.05 392.005 735.432L390.223 733.146C389.044 731.636 388.289 729.833 388.047 727.94C386.789 718.293 382.821 687.187 382.277 673.874C382.267 673.884 444.49 675.546 468.466 663.542Z" stroke="#0D2232" stroke-width="4" stroke-miterlimit="10" stroke-linecap="round" stroke-linejoin="round"/>
<path d="M468.466 678.738C468.466 678.738 448.608 695.756 383.798 689.281" stroke="#0D2232" stroke-width="4" stroke-miterlimit="10" stroke-linecap="round" stroke-linejoin="round"/>
<path d="M451.416 801.178L525.36 801.178L525.36 779.528L451.416 779.528L451.416 801.178Z" stroke="#0D2232" stroke-width="6" stroke-miterlimit="10" stroke-linecap="round" stroke-linejoin="round"/>
<path d="M615.276 479L655.728 500.258L629.958 553.769L615.276 546.167V479Z" stroke="#0D2232" stroke-width="6" stroke-miterlimit="10"/>
<path d="M463.955 479L423.504 500.258L449.273 553.769L463.955 546.167V479Z" stroke="#0D2232" stroke-width="6" stroke-miterlimit="10"/>
<defs>
<linearGradient id="paint0_linear_1188_942" x1="323.556" y1="1006.98" x2="488.754" y2="97.1921" gradientUnits="userSpaceOnUse">
<stop stop-color="#DABE00"/>
<stop offset="1" stop-color="#EBF7A4"/>
</linearGradient>
</defs>
</svg>
