<svg width="12" height="12" viewBox="0 0 12 12" fill="none" xmlns="http://www.w3.org/2000/svg">
<path d="M6 0C5.84513 0 5.70863 0.104326 5.67089 0.253126L5.54771 0.740157C5.22225 0.766992 4.9052 0.822132 4.5989 0.903751L4.31449 0.488906C4.22731 0.361946 4.06298 0.309554 3.91737 0.361874C3.77199 0.414194 3.68014 0.558226 3.69622 0.710626L3.74901 1.20891C3.45611 1.34283 3.17756 1.50204 2.91624 1.68375L2.5039 1.38938C2.37801 1.29938 2.20539 1.30575 2.0868 1.40391C1.96797 1.50207 1.93159 1.66834 1.99977 1.8061L2.22235 2.25656C1.99466 2.47977 1.78831 2.72368 1.60407 2.98406L1.11468 2.84578C0.964929 2.80354 0.80546 2.86776 0.728025 3C0.650591 3.13224 0.674279 3.30079 0.786048 3.40735L1.15083 3.75516C1.01495 4.03977 0.904269 4.338 0.821241 4.64766L0.314732 4.68281C0.159619 4.69361 0.0319058 4.80749 0.00511784 4.95797C-0.0216677 5.10821 0.0586256 5.25885 0.200589 5.32125L0.665245 5.52562C0.651117 5.68195 0.642891 5.84006 0.642891 6C0.642891 6.15994 0.651117 6.31805 0.665245 6.47437L0.200589 6.67875C0.0586256 6.74115 -0.0216653 6.89155 0.00511784 7.04203C0.0319034 7.19251 0.159619 7.30638 0.314732 7.31718L0.821241 7.35281C0.904255 7.66231 1.01501 7.96037 1.15083 8.24484L0.785573 8.59265C0.673804 8.69921 0.650116 8.86776 0.72755 9C0.805228 9.13224 0.965172 9.19646 1.11468 9.15422L1.60407 9.01594C1.78844 9.2765 1.99495 9.52057 2.22282 9.7439L2.00025 10.1944C1.93231 10.3321 1.96869 10.4984 2.08728 10.5966C2.20587 10.6947 2.37801 10.7011 2.5039 10.6111L2.91624 10.3162C3.17785 10.4981 3.45671 10.6575 3.74996 10.7916L3.69717 11.2894C3.68085 11.442 3.77223 11.5858 3.91785 11.6381C4.06346 11.6904 4.22779 11.6385 4.31497 11.5116L4.59937 11.0962C4.90555 11.1778 5.22241 11.233 5.54771 11.2598L5.67089 11.7469C5.70863 11.8957 5.84513 12 6 12C6.15487 12 6.29137 11.8957 6.32911 11.7469L6.45229 11.2598C6.77775 11.233 7.0948 11.1779 7.40111 11.0962L7.68551 11.5111C7.77269 11.6381 7.93654 11.6904 8.08216 11.6381C8.22753 11.5858 8.31938 11.4418 8.30331 11.2894L8.25052 10.7911C8.54356 10.6571 8.82232 10.498 9.08376 10.3162L9.49563 10.6106C9.62152 10.7006 9.79414 10.6943 9.91272 10.5961C10.0316 10.4979 10.0679 10.3317 9.99976 10.1939L9.77718 9.7439C10.0051 9.52057 10.2116 9.2765 10.3959 9.01594L10.8853 9.15422C11.0351 9.19646 11.1945 9.13224 11.272 9C11.3494 8.86776 11.3257 8.69921 11.214 8.59265L10.8492 8.24484C10.9851 7.96023 11.0957 7.662 11.1788 7.35234L11.6853 7.31719C11.8404 7.30639 11.9681 7.19251 11.9949 7.04203C12.0217 6.89179 11.9414 6.74115 11.7994 6.67875L11.3348 6.47438C11.3489 6.31805 11.3571 6.15994 11.3571 6C11.3571 5.84006 11.3489 5.68195 11.3348 5.52563L11.7994 5.32125C11.9414 5.25885 12.0217 5.10845 11.9949 4.95797C11.9681 4.80749 11.8404 4.69362 11.6853 4.68282L11.1788 4.64719C11.0957 4.33769 10.985 4.03963 10.8492 3.75516L11.214 3.40735C11.3257 3.30079 11.3494 3.13224 11.272 3C11.1943 2.86776 11.0348 2.80354 10.8853 2.84578L10.3959 2.98406C10.2116 2.7235 10.0051 2.47943 9.77718 2.2561L9.99976 1.80563C10.0677 1.66787 10.0313 1.5016 9.91272 1.40344C9.79414 1.30528 9.62199 1.29891 9.4961 1.38891L9.08376 1.68375C8.82215 1.50185 8.54329 1.34245 8.25004 1.20844L8.30283 0.710628C8.31915 0.557988 8.22777 0.414197 8.08216 0.361877C7.93654 0.309557 7.77221 0.361949 7.68503 0.488909L7.40063 0.903753C7.09445 0.822199 6.77759 0.76698 6.45229 0.74016L6.32911 0.253128C6.29137 0.104328 6.15487 0 6 0ZM5.26948 2.71922V4.22109C4.55596 4.50611 4.05196 5.19455 4.05196 6C4.05196 6.09025 4.06018 6.17837 4.07241 6.26531L2.75073 7.01766C2.64732 6.69661 2.59093 6.3548 2.59093 6C2.59093 4.39163 3.73799 3.049 5.26948 2.71922ZM6.73051 2.71922C8.262 3.049 9.40907 4.39163 9.40907 6C9.40907 6.3548 9.35268 6.6966 9.24926 7.01765L7.92759 6.26531C7.93981 6.17837 7.94804 6.09025 7.94804 6C7.94804 5.19455 7.44403 4.50611 6.73051 4.22109V2.71922ZM6 5.52C6.26907 5.52 6.48701 5.7348 6.48701 6C6.48701 6.2652 6.26907 6.48 6 6.48C5.73092 6.48 5.51299 6.2652 5.51299 6C5.51299 5.7348 5.73092 5.52 6 5.52ZM4.80292 7.51265C5.1334 7.76713 5.54815 7.92 6 7.92C6.45184 7.92 6.86659 7.76713 7.19707 7.51265L8.51542 8.26265C7.89202 8.93555 6.99737 9.36 6 9.36C5.00262 9.36 4.10798 8.93555 3.48457 8.26265L4.80292 7.51265Z" fill="black"/>
</svg>
