<svg width="336" height="309" viewBox="0 0 336 309" fill="none" xmlns="http://www.w3.org/2000/svg">
<path d="M95.7962 101.049L111.115 129.887C112.303 132.123 111.451 134.907 109.223 136.091L93.5769 144.402C91.3406 145.59 88.5569 144.738 87.3689 142.501L72.0498 113.663C70.8619 111.427 71.7184 108.651 73.9547 107.463L89.6006 99.1518C91.8246 97.9601 94.6083 98.8124 95.7962 101.049Z" fill="#AFCADC"/>
<path d="M109.364 136.377L93.7181 144.688C91.3289 145.957 88.3482 145.045 87.079 142.655L71.7599 113.817C70.4908 111.428 71.4076 108.455 73.7968 107.186L89.4427 98.8748C91.8318 97.6057 94.8046 98.5226 96.0694 100.904L111.389 129.742C112.666 132.127 111.753 135.108 109.364 136.377ZM74.0959 107.749C72.0124 108.856 71.2205 111.443 72.323 113.518L87.6421 142.356C88.7489 144.44 91.3355 145.232 93.419 144.125L109.065 135.814C111.14 134.711 111.932 132.125 110.826 130.041L95.5063 101.203C94.4039 99.1274 91.8172 98.3355 89.7418 99.4379L74.0959 107.749Z" fill="#000072"/>
<g opacity="0.2">
<path d="M107.71 123.476L111.112 129.879C112.3 132.116 111.447 134.899 109.219 136.083L93.5732 144.394C91.3369 145.582 88.5532 144.73 87.3653 142.494L83.9639 136.09C85.1518 138.327 87.9355 139.179 90.1718 137.991L105.818 129.68C108.046 128.496 108.903 125.72 107.71 123.476Z" fill="black"/>
</g>
<g opacity="0.55">
<path d="M95.7962 101.049L98.1977 105.57C97.0098 103.333 94.2304 102.489 92.0021 103.673L76.3562 111.984C74.1199 113.172 73.2676 115.956 74.4513 118.184L72.0498 113.663C70.8619 111.427 71.7184 108.651 73.9547 107.463L89.6006 99.1518C91.8246 97.9601 94.6083 98.8124 95.7962 101.049Z" fill="white"/>
</g>
<path d="M126.593 116.89L109.137 126.163L98.249 105.666L113.058 97.7992L126.593 116.89Z" fill="#AFCADC"/>
<path d="M127.064 117.001L108.997 126.598L97.8101 105.539L113.158 97.3855L127.064 117.001ZM109.269 125.732L126.13 116.775L112.967 98.2092L98.6803 105.798L109.269 125.732Z" fill="#000072"/>
<path d="M207.106 70.2333C208.42 73.2896 205.742 76.5584 202.496 75.8276C184.311 71.7285 169.084 87.5841 173.459 104.888C174.186 107.771 172.899 110.785 170.277 112.179L141.085 127.686C138.237 129.198 134.72 128.364 132.858 125.733L126.585 116.895L113.051 97.8039L108.487 91.3682C106.258 88.2204 107.295 83.8226 110.706 82.0108L158.56 56.59C177.987 46.2704 200.008 53.7466 207.106 70.2333Z" fill="#AFCADC"/>
<path d="M170.427 112.46L141.234 127.967C138.258 129.548 134.548 128.662 132.594 125.914L108.223 91.5497C107.108 89.9758 106.725 87.9927 107.168 86.1073C107.615 84.2301 108.846 82.6269 110.552 81.721L158.407 56.3001C168.148 51.1254 179.333 50.1243 189.1 53.5589C197.584 56.5403 204.077 62.4149 207.392 70.1119C208.053 71.6481 207.799 73.4024 206.735 74.6796C205.666 75.9692 204.058 76.5141 202.419 76.147C193.982 74.2443 185.469 76.6831 179.638 82.6579C173.931 88.5155 171.732 96.8008 173.759 104.811C174.543 107.86 173.162 111.007 170.427 112.46ZM110.871 82.2835C109.327 83.104 108.209 84.5536 107.803 86.2547C107.397 87.9557 107.751 89.7481 108.756 91.1739L133.127 125.539C134.891 128.026 138.244 128.823 140.939 127.392L170.131 111.884C172.609 110.568 173.851 107.722 173.155 104.956C171.074 96.7274 173.329 88.2166 179.199 82.2001C185.18 76.0627 193.916 73.5573 202.574 75.5075C203.967 75.8195 205.341 75.3578 206.256 74.2636C207.182 73.1528 207.394 71.6888 206.819 70.3542C203.578 62.8347 197.218 57.0749 188.903 54.1587C179.305 50.7891 168.307 51.7734 158.726 56.8627L110.871 82.2835Z" fill="#000072"/>
<g opacity="0.2">
<path d="M207.105 70.2336C208.419 73.2898 205.741 76.5586 202.496 75.8278C184.311 71.7287 169.083 87.5843 173.459 104.888C174.186 107.771 172.899 110.786 170.277 112.179L141.084 127.686C138.237 129.199 134.72 128.364 132.858 125.733L131.351 123.615C132.292 123.579 133.227 123.34 134.104 122.875L163.296 107.367C165.919 105.974 167.205 102.96 166.478 100.077C162.103 82.7729 177.331 66.9174 195.516 71.0164C198.761 71.7473 201.439 68.4785 200.125 65.4222C198.504 61.6523 196.1 58.3498 193.127 55.6278C199.35 58.7994 204.356 63.8347 207.105 70.2336Z" fill="black"/>
</g>
<g opacity="0.55">
<path d="M189.848 54.1727C181.915 52.7139 173.06 53.8491 164.686 58.2974L116.831 83.7182C113.42 85.53 112.384 89.9278 114.613 93.0756L119.176 99.5113L132.711 118.602L138.984 127.44C139.191 127.733 139.413 127.996 139.656 128.239C137.149 128.879 134.428 127.932 132.866 125.729L126.593 116.891L113.059 97.8L108.495 91.3643C106.266 88.2165 107.303 83.8187 110.713 82.0069L158.568 56.5861C169.179 50.9498 180.547 50.6247 189.848 54.1727Z" fill="white"/>
</g>
<g opacity="0.55">
<path d="M98.1979 105.57L75.3926 117.685L78.747 123.999L101.552 111.885L98.1979 105.57Z" fill="white"/>
</g>
<path d="M171.493 120.885L149.753 132.434L179.232 187.926L200.972 176.378L171.493 120.885Z" fill="#435F84" stroke="#0D2232" stroke-width="9" stroke-miterlimit="10" stroke-linecap="round" stroke-linejoin="round"/>
<g opacity="0.2">
<path d="M154.983 142.132C155.625 141.816 156.312 141.743 156.992 141.749C157.671 141.756 158.35 141.854 159.02 141.999C160.349 142.287 161.656 142.703 162.871 143.326C165.3 144.566 167.261 146.387 169.571 147.389C170.718 147.898 171.945 148.148 173.192 148.154C174.441 148.149 175.699 147.924 176.927 147.564C178.155 147.204 179.367 146.735 180.568 146.231C181.169 145.978 181.773 145.716 182.359 145.421C182.959 145.153 183.597 144.922 184.338 145.013C184.443 145.024 184.522 145.124 184.505 145.233C184.499 145.27 184.483 145.303 184.464 145.33L184.461 145.34C183.984 145.935 183.403 146.177 182.8 146.439C182.185 146.666 181.581 146.928 180.968 147.187C179.747 147.702 178.509 148.184 177.215 148.563C175.922 148.941 174.572 149.182 173.191 149.19C171.816 149.194 170.41 148.905 169.159 148.342C166.632 147.231 164.664 145.396 162.403 144.251C161.274 143.682 160.07 143.253 158.818 143.05C158.195 142.947 157.564 142.89 156.936 142.823C156.307 142.756 155.676 142.699 155.008 142.478C154.908 142.447 154.853 142.343 154.883 142.243C154.905 142.19 154.944 142.153 154.983 142.132Z" fill="#371A45"/>
<path d="M200.727 164.047C199.452 165.965 197.386 167.126 195.275 167.871C193.159 168.631 190.944 169.181 188.667 169.213C187.534 169.275 186.396 169.14 185.263 168.965C184.152 168.715 183.026 168.435 181.988 167.921C179.861 167.008 178.111 165.342 176.727 163.633C175.328 161.92 174.135 160.121 172.677 158.652C171.945 157.912 171.162 157.288 170.283 156.789C169.861 156.512 169.381 156.341 168.925 156.119C168.441 155.963 167.975 155.771 167.473 155.675C165.499 155.169 163.39 155.211 161.427 155.715C160.437 155.952 159.491 156.367 158.628 156.888C157.754 157.415 157.001 158.003 155.921 158.401L155.907 158.421C155.853 158.438 155.784 158.449 155.72 158.471L155.666 158.487C155.513 158.53 155.362 158.435 155.329 158.277C155.313 158.223 155.321 158.169 155.335 158.124C155.358 158.049 155.385 157.959 155.423 157.889L155.409 157.909C155.861 156.778 156.803 156.002 157.82 155.462C158.863 154.971 159.92 154.484 161.033 154.219C163.253 153.654 165.619 153.601 167.852 154.17C170.088 154.674 172.199 155.935 173.779 157.565C175.369 159.19 176.584 161.027 177.926 162.658C179.259 164.294 180.76 165.703 182.632 166.514C183.54 166.972 184.546 167.214 185.542 167.437C186.551 167.591 187.58 167.709 188.618 167.659C190.687 167.613 192.756 167.165 194.678 166.37C195.169 166.185 195.618 165.921 196.094 165.731C196.548 165.477 197.023 165.262 197.477 165.009C198.407 164.54 199.269 163.944 200.391 163.649L200.425 163.643C200.568 163.605 200.714 163.691 200.752 163.833C200.788 163.902 200.77 163.986 200.727 164.047Z" fill="#371A45"/>
<path d="M195.688 154.514C195.436 155.313 194.89 155.866 194.282 156.327C193.975 156.552 193.644 156.754 193.311 156.93C192.974 157.097 192.615 157.225 192.267 157.372C190.854 157.897 189.366 158.236 187.868 158.317C184.876 158.49 181.867 157.782 179.247 156.366C176.621 154.94 174.425 152.835 172.761 150.409C171.928 149.197 171.228 147.902 170.64 146.559C170.337 145.893 170.106 145.2 169.807 144.519C169.533 143.838 169.327 143.12 169.521 142.327L169.532 142.372C169.573 142.237 169.585 142.118 169.656 141.992C169.741 141.822 169.942 141.752 170.107 141.828C170.122 141.832 170.128 141.842 170.137 141.837L170.158 141.851C170.268 141.918 170.335 141.995 170.43 142.057L170.441 142.102C170.985 142.678 171.17 143.332 171.35 144.001C171.515 144.665 171.793 145.307 172.061 145.93C172.617 147.189 173.271 148.396 174.046 149.526C175.593 151.776 177.611 153.712 179.986 154.996C182.36 156.279 185.099 156.905 187.78 156.76C189.115 156.677 190.446 156.421 191.661 155.876C192.258 155.584 192.84 155.288 193.411 154.972C193.993 154.65 194.559 154.324 195.337 154.137L195.347 154.131C195.505 154.098 195.665 154.188 195.699 154.346C195.705 154.405 195.707 154.454 195.688 154.514Z" fill="#371A45"/>
<path d="M176.708 138.772C177.092 139.258 177.197 139.716 177.248 140.165C177.314 140.619 177.315 141.07 177.331 141.525C177.383 142.425 177.593 143.292 177.88 144.117C178.465 145.737 179.63 147.174 181.114 147.915C181.851 148.288 182.662 148.446 183.473 148.392C184.279 148.327 185.084 148.05 185.831 147.615C186.583 147.191 187.258 146.619 187.856 145.976C188.161 145.676 188.418 145.264 188.651 144.876C188.914 144.498 189.198 144.16 189.939 144.092L189.964 144.091C190.157 144.077 190.323 144.201 190.367 144.378C190.548 145.072 190.261 145.5 189.954 145.889C189.79 146.077 189.621 146.254 189.462 146.451C189.319 146.653 189.16 146.85 188.982 147.033C188.287 147.778 187.496 148.436 186.582 148.959C185.684 149.486 184.648 149.848 183.566 149.935C182.483 150.021 181.358 149.791 180.4 149.309C178.465 148.332 177.109 146.582 176.393 144.644C176.032 143.682 175.859 142.671 175.701 141.689C175.614 141.196 175.562 140.697 175.6 140.201C175.627 139.71 175.739 139.212 176.158 138.751C176.283 138.609 176.491 138.599 176.633 138.725C176.683 138.748 176.703 138.762 176.708 138.772Z" fill="#371A45"/>
<path d="M159.2 150.134C159.891 149.642 160.777 149.488 161.61 149.531C162.448 149.553 163.255 149.767 164.023 150.035C165.557 150.581 166.964 151.344 168.322 152.109C169.683 152.864 171.03 153.592 172.465 154.016C173.888 154.446 175.396 154.487 176.948 154.439C178.494 154.395 180.087 154.283 181.709 154.507C183.327 154.74 184.884 155.283 186.299 156.059C187.719 156.816 189.009 157.767 190.237 158.759C190.853 159.258 191.449 159.768 192.058 160.254C192.655 160.764 193.228 161.294 193.571 162.08C193.613 162.175 193.566 162.291 193.472 162.333C193.433 162.354 193.383 162.355 193.343 162.343C192.51 162.11 191.913 161.6 191.334 161.09C190.773 160.553 190.18 160.05 189.581 159.566C188.383 158.6 187.14 157.691 185.81 156.978C184.486 156.246 183.049 155.757 181.573 155.539C180.097 155.338 178.556 155.439 176.984 155.481C175.418 155.536 173.762 155.497 172.18 155.019C170.612 154.549 169.198 153.773 167.83 153.022C166.463 152.27 165.128 151.502 163.692 151.062C162.978 150.849 162.255 150.699 161.534 150.614C160.806 150.517 160.113 150.517 159.308 150.478C159.205 150.474 159.127 150.39 159.132 150.288C159.123 150.225 159.158 150.165 159.2 150.134Z" fill="#371A45"/>
<path d="M180.101 150.837C180.279 150.575 180.462 150.511 180.639 150.484C180.817 150.456 180.999 150.485 181.171 150.51C181.525 150.564 181.878 150.569 182.226 150.609C182.93 150.678 183.631 150.773 184.324 150.897C185.023 151.019 185.712 151.17 186.4 151.348C186.738 151.435 187.084 151.535 187.419 151.632C187.589 151.684 187.752 151.74 187.937 151.758C188.106 151.81 188.27 151.882 188.316 152.283C188.332 152.408 188.285 152.525 188.212 152.606L188.205 152.609C187.922 152.91 187.76 152.871 187.6 152.805C187.452 152.717 187.286 152.671 187.127 152.623C186.801 152.528 186.476 152.434 186.147 152.35C185.49 152.181 184.82 152.036 184.154 151.914C183.482 151.796 182.807 151.703 182.136 151.634C181.795 151.606 181.461 151.558 181.118 151.573C180.95 151.588 180.779 151.595 180.606 151.553C180.437 151.518 180.274 151.446 180.106 151.176L180.102 151.17C180.027 151.076 180.037 150.937 180.101 150.837Z" fill="#371A45"/>
<path d="M162.507 156.201C163.467 156.108 164.414 156.524 165.182 157.042C165.967 157.561 166.616 158.217 167.232 158.858C167.855 159.496 168.461 160.118 169.12 160.652C169.78 161.187 170.484 161.648 171.239 161.923C171.992 162.207 172.791 162.25 173.599 162.122C174.407 161.993 175.201 161.696 176.008 161.36C176.811 161.017 177.616 160.631 178.468 160.303C179.325 159.982 180.245 159.718 181.214 159.688C182.183 159.657 183.154 159.868 184.021 160.258C184.892 160.656 185.657 161.201 186.352 161.801C187.737 163.01 188.87 164.403 190.062 165.673C191.241 166.95 192.568 168.065 194.022 168.996C194.746 169.463 195.499 169.89 196.299 170.233C197.08 170.603 197.86 170.94 198.571 171.572C198.649 171.639 198.655 171.761 198.588 171.838C198.556 171.872 198.503 171.9 198.461 171.898C197.492 171.961 196.63 171.626 195.819 171.231C195.017 170.805 194.221 170.36 193.46 169.871C191.939 168.892 190.534 167.71 189.304 166.385C188.081 165.073 186.962 163.705 185.675 162.586C185.028 162.028 184.343 161.54 183.596 161.202C182.855 160.861 182.05 160.696 181.252 160.719C179.628 160.772 178.065 161.603 176.42 162.309C175.588 162.66 174.722 162.994 173.773 163.14C172.833 163.288 171.809 163.231 170.9 162.887C169.063 162.21 167.759 160.808 166.496 159.609C165.857 159.004 165.223 158.423 164.567 157.912C163.902 157.397 163.238 156.965 162.452 156.539C162.362 156.495 162.33 156.387 162.374 156.297C162.396 156.244 162.451 156.206 162.507 156.201Z" fill="#371A45"/>
<path d="M169.44 169.397C170.001 168.991 170.545 168.727 171.115 168.433L172.829 167.572C173.971 166.974 175.158 166.285 176.464 165.867C177.118 165.653 177.804 165.497 178.522 165.466C179.23 165.432 179.978 165.536 180.661 165.799C181.35 166.06 181.958 166.496 182.461 166.989C182.962 167.491 183.374 168.048 183.738 168.623C184.459 169.776 185.035 170.922 185.718 172.02C186.395 173.122 187.114 174.192 187.924 175.182C188.726 176.174 189.623 177.092 190.612 177.869C191.103 178.26 191.63 178.623 192.188 178.902C192.733 179.222 193.271 179.496 193.73 180.078L193.734 180.084C193.805 180.172 193.785 180.291 193.704 180.359C193.675 180.383 193.639 180.394 193.61 180.401C192.854 180.502 192.213 180.208 191.627 179.859C191.061 179.484 190.497 179.099 189.966 178.68C188.899 177.836 187.959 176.866 187.115 175.828C186.265 174.794 185.519 173.687 184.825 172.554C184.121 171.433 183.527 170.237 182.851 169.169C182.179 168.107 181.357 167.158 180.272 166.749C179.199 166.317 177.946 166.44 176.775 166.829C175.587 167.217 174.467 167.812 173.329 168.484C172.764 168.817 172.172 169.149 171.541 169.392C170.91 169.635 170.222 169.817 169.504 169.706C169.405 169.692 169.336 169.594 169.35 169.495C169.369 169.468 169.398 169.428 169.44 169.397Z" fill="#371A45"/>
<path d="M189.978 171.444C190.324 171.402 190.527 171.503 190.705 171.633C190.893 171.751 191.039 171.915 191.185 172.08C191.486 172.396 191.836 172.661 192.163 172.946C192.833 173.5 193.525 174.034 194.243 174.538C194.955 175.044 195.689 175.514 196.439 175.968C196.817 176.192 197.192 176.411 197.576 176.616C197.767 176.723 197.957 176.831 198.167 176.895C198.367 176.989 198.551 177.1 198.582 177.534C198.591 177.662 198.525 177.773 198.428 177.841C198.064 178.068 197.851 177.981 197.66 177.873C197.479 177.736 197.281 177.632 197.081 177.522C196.689 177.304 196.295 177.079 195.913 176.848C195.143 176.389 194.389 175.896 193.654 175.377C192.919 174.857 192.203 174.311 191.512 173.734C191.163 173.453 190.838 173.141 190.475 172.866C190.294 172.729 190.112 172.591 189.976 172.413C189.833 172.239 189.716 172.034 189.74 171.687C189.747 171.558 189.85 171.453 189.978 171.444Z" fill="#371A45"/>
<path d="M172.187 174.742C172.366 174.246 172.698 173.912 173.07 173.622C173.439 173.326 173.862 173.101 174.296 172.913C175.163 172.519 176.116 172.221 177.102 172.207C178.09 172.182 179.066 172.432 179.934 172.84C180.805 173.253 181.584 173.825 182.253 174.487C183.615 175.809 184.567 177.491 185.129 179.271C185.411 180.165 185.595 181.077 185.694 182.001L185.807 183.394C185.825 183.852 185.771 184.331 185.379 184.757C185.292 184.844 185.161 184.848 185.07 184.771C185.056 184.761 185.053 184.755 185.046 184.742L185.039 184.729C184.691 184.262 184.71 183.843 184.703 183.405C184.738 182.968 184.711 182.54 184.664 182.106C184.574 181.244 184.401 180.401 184.14 179.579C183.622 177.943 182.749 176.411 181.53 175.231C180.333 174.047 178.749 173.202 177.117 173.242C176.31 173.262 175.497 173.477 174.755 173.871C174.387 174.075 174.033 174.304 173.659 174.511C173.288 174.725 172.904 174.929 172.395 175.008C172.286 175.023 172.183 174.953 172.163 174.838C172.172 174.809 172.178 174.772 172.187 174.742Z" fill="#371A45"/>
<path d="M174.841 179.752C174.858 179.375 175.06 179.126 175.297 178.959C175.533 178.775 175.814 178.676 176.103 178.606C176.67 178.463 177.288 178.402 177.869 178.536C179.043 178.797 180.003 179.631 180.501 180.694C180.742 181.226 180.863 181.846 180.811 182.424C180.769 183.006 180.608 183.551 180.406 184.05C180.197 184.554 179.951 185.018 179.705 185.466C179.582 185.69 179.449 185.911 179.353 186.154C179.23 186.378 179.087 186.596 178.642 186.624C178.514 186.633 178.4 186.56 178.351 186.453L178.347 186.446C178.156 186.039 178.269 185.812 178.399 185.601C178.559 185.399 178.683 185.191 178.806 184.967C179.049 184.529 179.279 184.098 179.456 183.662C179.817 182.785 179.937 181.895 179.568 181.123C179.216 180.35 178.475 179.725 177.656 179.55C177.255 179.471 176.82 179.469 176.421 179.63C176.222 179.711 176.043 179.814 175.841 179.889C175.642 179.969 175.435 180.037 175.075 180.003L175.059 180.004C174.933 179.987 174.835 179.88 174.841 179.752Z" fill="#371A45"/>
</g>
<g opacity="0.55">
<path d="M182.461 186.21L179.232 187.925L153.817 140.083L155.719 139.073C156.454 138.682 157.372 138.963 157.762 139.699L182.468 186.207L182.461 186.21Z" fill="white"/>
</g>
<g opacity="0.3">
<path d="M171.493 120.885L200.972 176.378L195.821 179.114L173.174 136.48C171.666 133.641 168.137 132.561 165.298 134.069L153.852 140.149L149.753 132.434L171.493 120.885Z" fill="#371A45"/>
</g>
<path d="M208.435 178.28L238.097 234.118C239.439 236.644 238.477 239.785 235.951 241.127L213.527 253.038C212.772 253.44 211.959 253.638 211.161 253.644C211.158 253.638 211.158 253.638 211.158 253.638C209.285 253.664 207.459 252.664 206.519 250.893L176.857 195.055C175.515 192.528 176.477 189.388 179.003 188.046L201.427 176.134C203.953 174.793 207.093 175.754 208.435 178.28Z" fill="#F9DC1B"/>
<path d="M236.072 241.356L213.649 253.267C212.88 253.675 212.022 253.898 211.164 253.902L211.003 253.896C209.02 253.873 207.225 252.773 206.291 251.015L176.63 195.177C175.222 192.527 176.232 189.227 178.882 187.819L201.306 175.907C203.956 174.5 207.256 175.51 208.664 178.16L238.325 233.998C239.733 236.648 238.722 239.948 236.072 241.356ZM211.313 253.381C212.038 253.346 212.755 253.157 213.407 252.811L235.83 240.9C238.226 239.627 239.142 236.636 237.869 234.24L208.208 178.402C206.935 176.006 203.944 175.09 201.548 176.363L179.124 188.275C176.728 189.548 175.813 192.539 177.085 194.935L206.747 250.772C207.615 252.407 209.309 253.41 211.155 253.381L211.313 253.381Z" fill="#000072"/>
<path d="M208.436 178.281L238.097 234.119C239.439 236.646 238.478 239.786 235.951 241.128L228.503 245.085C231.029 243.743 231.991 240.602 230.649 238.076L200.987 182.238C199.645 179.712 196.505 178.75 193.979 180.092L201.427 176.136C203.953 174.794 207.094 175.755 208.436 178.281Z" fill="#E89F02"/>
<path d="M236.072 241.356L228.624 245.312L228.382 244.857C230.778 243.584 231.693 240.593 230.421 238.197L200.759 182.359C199.486 179.963 196.496 179.047 194.1 180.32L193.857 179.864L201.306 175.908C203.956 174.5 207.256 175.51 208.664 178.16L238.325 233.998C239.733 236.648 238.722 239.948 236.072 241.356ZM230.433 243.767L235.83 240.9C238.226 239.627 239.142 236.636 237.869 234.24L208.208 178.402C206.935 176.006 203.944 175.091 201.548 176.363L196.15 179.231C198.186 179.134 200.201 180.193 201.222 182.113L230.883 237.951C231.9 239.866 231.649 242.128 230.433 243.767Z" fill="#E89F02"/>
<g opacity="0.55">
<path d="M214.618 251.808C215.416 251.801 216.229 251.603 216.985 251.202L213.527 253.038C212.772 253.44 211.959 253.638 211.161 253.644C211.158 253.638 211.158 253.638 211.158 253.638C209.285 253.664 207.459 252.664 206.519 250.893L176.857 195.055C175.515 192.528 176.477 189.388 179.003 188.046L182.46 186.21C179.934 187.552 178.973 190.692 180.315 193.218L209.976 249.056C210.917 250.827 212.742 251.828 214.618 251.808C214.615 251.801 214.615 251.801 214.618 251.808Z" fill="white"/>
</g>
<g opacity="0.2">
<path d="M102.014 103.666L116.675 122.159L109.137 126.163L98.2495 105.666L102.014 103.666Z" fill="black"/>
</g>
<g opacity="0.2">
<path d="M141.331 83.9577C142.886 86.8858 138.775 88.0588 134.222 90.4774C129.669 92.896 126.396 95.6457 124.84 92.7176C123.285 89.7895 125.717 85.4551 130.27 83.0365C134.823 80.618 139.776 81.0296 141.331 83.9577Z" fill="white"/>
</g>
<g opacity="0.2">
<path d="M202.709 210.466C205.058 214.887 205.095 219.467 202.796 220.688C200.498 221.909 198.553 218.342 196.205 213.922C193.856 209.501 191.983 205.896 194.288 204.671C196.593 203.447 200.361 206.045 202.709 210.466Z" fill="white"/>
</g>
<path d="M95.7962 101.049L111.115 129.887C112.303 132.123 111.451 134.907 109.223 136.091L93.5769 144.402C91.3406 145.59 88.5569 144.738 87.3689 142.501L72.0498 113.663C70.8619 111.427 71.7184 108.651 73.9547 107.463L89.6006 99.1518C91.8246 97.9601 94.6083 98.8124 95.7962 101.049Z" stroke="#0D2232" stroke-width="9" stroke-miterlimit="10" stroke-linecap="round" stroke-linejoin="round"/>
<path d="M126.593 116.89L109.137 126.163L98.249 105.666L113.058 97.7992L126.593 116.89Z" stroke="#0D2232" stroke-width="9" stroke-miterlimit="10" stroke-linecap="round" stroke-linejoin="round"/>
<path d="M207.106 70.2333C208.42 73.2896 205.742 76.5584 202.496 75.8276C184.311 71.7285 169.084 87.5841 173.459 104.888C174.186 107.771 172.899 110.785 170.277 112.179L141.085 127.686C138.237 129.198 134.72 128.364 132.858 125.733L126.585 116.895L113.051 97.8039L108.487 91.3682C106.258 88.2204 107.295 83.8226 110.706 82.0108L158.56 56.59C177.987 46.2704 200.008 53.7466 207.106 70.2333Z" stroke="#0D2232" stroke-width="9" stroke-miterlimit="10" stroke-linecap="round" stroke-linejoin="round"/>
<path d="M171.493 120.885L149.753 132.434L179.232 187.926L200.972 176.378L171.493 120.885Z" stroke="#0D2232" stroke-width="9" stroke-miterlimit="10" stroke-linecap="round" stroke-linejoin="round"/>
<path d="M208.435 178.28L238.097 234.118C239.439 236.644 238.477 239.785 235.951 241.127L213.527 253.038C212.772 253.44 211.959 253.638 211.161 253.644C211.158 253.638 211.158 253.638 211.158 253.638C209.285 253.664 207.459 252.664 206.519 250.893L176.857 195.055C175.515 192.528 176.477 189.388 179.003 188.046L201.427 176.134C203.953 174.793 207.093 175.754 208.435 178.28Z" stroke="#0D2232" stroke-width="9" stroke-miterlimit="10" stroke-linecap="round" stroke-linejoin="round"/>
</svg>
