<svg width="74" height="82" viewBox="0 0 74 82" fill="none" xmlns="http://www.w3.org/2000/svg">
<g clip-path="url(#clip0_844_270)">
<path d="M0.760004 8.03401C0.994004 9.87001 1.088 12.202 2.2 13.698C3.254 15.118 4.91801 15.326 6.43601 15.658C8.21401 16.046 9.99 16.436 11.768 16.824C11.984 22.35 13.212 27.842 15.602 32.63C18.304 38.038 22.906 41.378 27.988 43.292C20.42 48.13 14.896 56.562 12.052 66.026C11.232 66.364 10.402 66.666 9.596 67.046C7.064 68.236 4.934 69.824 4.168 72.93C3.56 75.394 2.898 79.526 5.13 81.204C6.038 81.886 7.164 82.06 8.232 82.112C9.98 82.196 11.744 82.13 13.492 82.13C17.204 82.132 20.914 82.128 24.626 82.118C31.894 82.096 39.162 82.05 46.43 81.98C54.626 81.9 62.82 81.788 71.016 81.646C71.44 81.638 71.706 81.368 71.832 81.028C72.012 81.002 72.194 80.988 72.374 80.96C72.68 80.912 72.954 80.546 73.026 80.23C73.852 76.644 74.638 72.774 73.202 69.246C71.772 65.734 68.964 64.876 65.77 64.634C63.862 64.49 61.952 64.348 60.042 64.206C59.964 59.192 58.61 54.406 56.252 50.336C56.032 49.696 55.764 49.076 55.432 48.488C54.702 47.196 53.702 46.254 52.612 45.438C51.09 43.83 49.362 42.448 47.476 41.322C49.596 39.204 51.518 36.78 53.244 34.272C56.726 29.21 59.302 23.344 59.824 16.95C62.86 16.43 65.898 15.928 68.922 15.392C69.314 15.324 69.614 14.804 69.608 14.384C69.532 9.85401 69.63 5.32401 69.898 0.802006C69.928 0.284006 69.444 -0.309994 68.964 -0.243994C66.72 0.0620057 5.742 -0.985994 0.824004 0.136006C0.446004 0.222006 0.116004 0.712006 0.138004 1.14601C0.264004 3.45201 0.470004 5.74801 0.760004 8.03401Z" fill="black"/>
<path d="M46.934 53.808C45.802 52.132 44.558 50.652 42.952 49.412C41.512 48.3 39.672 47.308 37.864 47.02C35.358 46.62 33.93 48.702 32.514 50.372C29.664 53.732 26.914 57.178 24.276 60.706C23.332 61.966 23.924 64.092 25.252 64.836C25.33 64.88 25.41 64.91 25.488 64.942C25.796 65.236 26.188 65.48 26.684 65.636C29.358 66.474 32.464 65.944 35.218 65.832C38.072 65.716 40.926 65.602 43.778 65.486C46.4 65.38 49.956 65.822 51.468 63.14C53.042 60.344 47.476 54.61 46.934 53.808Z" fill="white"/>
<path d="M72.732 49.17C71.006 48.192 69.084 48.066 67.16 47.812C67.338 47.836 67.514 47.86 67.692 47.884C66.906 47.776 66.128 47.634 65.382 47.358C64.92 47.188 64.252 47.318 63.84 47.56C63.426 47.802 63.03 48.278 62.92 48.756C62.662 49.888 63.264 50.828 64.316 51.216C65.694 51.724 67.184 51.808 68.628 51.998C68.45 51.974 68.274 51.95 68.096 51.926C68.616 51.996 69.134 52.08 69.642 52.212C69.894 52.278 70.136 52.36 70.382 52.446C70.728 52.566 69.964 52.236 70.312 52.418C70.444 52.486 70.578 52.552 70.708 52.626C71.618 53.142 72.936 52.872 73.444 51.908C73.952 50.958 73.704 49.722 72.732 49.17Z" fill="#FF5900"/>
<path d="M68.312 37.844C68.06 38.068 67.804 38.282 67.542 38.494C67.338 38.66 67.57 38.468 67.648 38.414C67.562 38.472 67.48 38.54 67.396 38.602C67.26 38.702 67.124 38.8 66.986 38.894C66.416 39.288 65.824 39.652 65.214 39.978C64.918 40.136 64.618 40.288 64.312 40.428C64.16 40.498 64 40.556 63.852 40.634C63.934 40.59 64.23 40.48 63.982 40.578C63.904 40.61 63.826 40.64 63.748 40.672C63.082 40.932 62.402 41.15 61.712 41.332C60.7 41.598 59.986 42.772 60.316 43.792C60.652 44.834 61.692 45.474 62.776 45.188C65.886 44.37 68.738 42.8 71.138 40.666C71.922 39.97 71.902 38.538 71.138 37.838C70.302 37.074 69.148 37.1 68.312 37.844Z" fill="#FF5900"/>
<path d="M59.844 39.186C60.452 37.456 60.754 35.598 60.77 33.766C60.774 33.256 60.544 32.712 60.184 32.352C59.838 32.006 59.268 31.744 58.77 31.766C57.678 31.814 56.78 32.644 56.77 33.766C56.764 34.414 56.718 35.058 56.632 35.698C56.656 35.52 56.68 35.344 56.704 35.166C56.562 36.174 56.324 37.162 55.986 38.122C55.822 38.592 55.942 39.244 56.188 39.664C56.43 40.078 56.906 40.474 57.384 40.584C57.896 40.7 58.47 40.676 58.926 40.382C59.38 40.088 59.664 39.698 59.844 39.186Z" fill="#FF5900"/>
<path d="M15.752 17.936C29.79 17.552 43.834 17.448 57.874 17.626C59.162 17.642 59.162 15.642 57.874 15.626C43.832 15.448 29.788 15.552 15.752 15.936C14.468 15.972 14.464 17.972 15.752 17.936Z" fill="white"/>
<path d="M13.746 67.688C28.606 66.46 43.518 65.954 58.426 66.178C59.714 66.198 59.714 64.198 58.426 64.178C43.518 63.956 28.606 64.46 13.746 65.688C12.472 65.792 12.46 67.794 13.746 67.688Z" fill="white"/>
<path d="M26.148 31.064C26.276 31.064 26.404 31.064 26.53 31.064C26.944 31.08 27.328 30.994 27.686 30.806C28.058 30.686 28.38 30.478 28.652 30.186C28.944 29.914 29.152 29.592 29.272 29.22C29.46 28.862 29.546 28.478 29.53 28.064C29.494 27.798 29.458 27.532 29.422 27.266C29.28 26.758 29.022 26.316 28.65 25.942C28.448 25.786 28.246 25.63 28.042 25.472C27.574 25.2 27.07 25.064 26.528 25.062C26.4 25.062 26.272 25.062 26.146 25.062C25.732 25.046 25.348 25.132 24.99 25.32C24.618 25.44 24.296 25.648 24.024 25.94C23.732 26.212 23.524 26.534 23.404 26.906C23.216 27.264 23.13 27.648 23.146 28.062C23.182 28.328 23.218 28.594 23.254 28.86C23.396 29.368 23.654 29.81 24.026 30.184C24.228 30.34 24.43 30.496 24.634 30.654C25.102 30.926 25.608 31.062 26.148 31.064Z" fill="white"/>
<path d="M35.148 39.106C35.212 39.106 35.276 39.106 35.34 39.106C35.754 39.122 36.138 39.036 36.496 38.848C36.868 38.728 37.19 38.52 37.462 38.228C37.754 37.956 37.962 37.634 38.082 37.262C38.27 36.904 38.356 36.52 38.34 36.106C38.304 35.84 38.268 35.574 38.232 35.308C38.09 34.8 37.832 34.358 37.46 33.984C37.258 33.828 37.056 33.672 36.852 33.514C36.384 33.242 35.88 33.106 35.338 33.104C35.274 33.104 35.21 33.104 35.146 33.104C34.732 33.088 34.348 33.174 33.99 33.362C33.618 33.482 33.296 33.69 33.024 33.982C32.732 34.254 32.524 34.576 32.404 34.948C32.216 35.306 32.13 35.69 32.146 36.104C32.182 36.37 32.218 36.636 32.254 36.902C32.396 37.41 32.654 37.852 33.026 38.226C33.228 38.382 33.43 38.538 33.634 38.696C34.102 38.968 34.608 39.104 35.148 39.106Z" fill="white"/>
<path d="M36.872 27.808C40.732 27.808 40.74 21.808 36.872 21.808C33.012 21.808 33.006 27.808 36.872 27.808Z" fill="white"/>
<path d="M46.064 28.702C46 28.702 45.936 28.702 45.872 28.702C45.458 28.686 45.074 28.772 44.716 28.96C44.344 29.08 44.022 29.288 43.75 29.58C43.458 29.852 43.25 30.174 43.13 30.546C42.942 30.904 42.856 31.288 42.872 31.702C42.908 31.968 42.944 32.234 42.98 32.5C43.122 33.008 43.38 33.45 43.752 33.824C43.954 33.98 44.156 34.136 44.36 34.294C44.828 34.566 45.332 34.702 45.874 34.704C45.938 34.704 46.002 34.704 46.066 34.704C46.48 34.72 46.864 34.634 47.222 34.446C47.594 34.326 47.916 34.118 48.188 33.826C48.48 33.554 48.688 33.232 48.808 32.86C48.996 32.502 49.082 32.118 49.066 31.704C49.03 31.438 48.994 31.172 48.958 30.906C48.816 30.398 48.558 29.956 48.186 29.582C47.984 29.426 47.782 29.27 47.578 29.112C47.11 28.84 46.606 28.704 46.064 28.702Z" fill="white"/>
<path d="M17.2039 43.068C16.3859 41.758 14.9319 41.256 13.3859 41.172C13.6139 40.016 13.4399 38.83 12.5239 37.716C11.6299 36.63 10.4779 36.136 9.24394 35.974C9.35994 35.712 9.47795 35.45 9.55795 35.168C9.95995 33.734 9.84594 32.114 8.97194 30.878C7.95594 29.444 6.16795 28.89 4.47594 29.224C2.82794 29.55 1.60995 30.732 0.683945 32.062C0.0659451 32.948 0.521945 34.284 1.40195 34.798C2.39795 35.382 3.51795 34.968 4.13795 34.08C4.40995 33.692 5.54995 32.624 5.77795 33.306C5.95195 33.826 5.55395 34.52 5.30795 34.946C4.84595 35.746 4.28795 36.484 3.84995 37.3C3.02595 38.83 4.38594 40.686 6.10794 40.238C6.94394 40.02 8.60394 39.416 9.36194 40.158C9.91594 40.7 8.78994 41.798 8.38994 42.244C7.12994 43.658 8.32195 46.212 10.3359 45.586C11.1499 45.334 11.9439 45.176 12.7979 45.176C13.0859 45.176 13.3019 45.216 13.5059 45.226C13.4699 45.29 13.4319 45.35 13.3939 45.412C13.1559 45.802 12.9019 46.182 12.6559 46.566C12.1219 47.398 11.5899 48.23 11.0559 49.062C9.66194 51.236 13.1239 53.244 14.5099 51.08C15.3139 49.826 16.1739 48.59 16.9259 47.304C17.6899 46.006 18.0579 44.438 17.2039 43.068Z" fill="#FF6422"/>
</g>
<defs>
<clipPath id="clip0_844_270">
<rect width="74" height="82" fill="white"/>
</clipPath>
</defs>
</svg>
