<svg width="67" height="67" viewBox="0 0 67 67" fill="none" xmlns="http://www.w3.org/2000/svg">
<path d="M22.927 12.9817C21.0426 12.9817 19.2621 13.9235 18.1629 15.4414L6.80469 31.5637C6.59531 31.8254 6.54297 32.1391 6.54297 32.4532V48.2084C6.54297 51.4014 9.15995 54.0184 12.3529 54.0184H33.5H33.7617H33.9192H54.6471C57.84 54.0184 60.457 51.4535 60.457 48.2606V32.4532C60.457 32.3485 60.4572 32.2438 60.4049 32.1914V32.0872C60.4049 32.0348 60.3528 31.9821 60.3528 31.9297C60.3528 31.8774 60.3519 31.8778 60.2996 31.8254C60.2472 31.7731 60.2477 31.7203 60.1953 31.668C60.1953 31.668 60.1955 31.6159 60.1432 31.6159L48.8371 15.4414C47.7379 13.9235 45.9574 12.9817 44.073 12.9817C42.1887 12.9817 40.4092 13.9235 39.31 15.4414L38.4205 16.6979H33.2904C32.4006 16.6979 31.7201 17.3784 31.7201 18.2682C31.7201 19.158 32.4006 19.8385 33.2904 19.8385H41.875C42.5031 19.8385 43.0262 20.3096 43.0262 20.8854C43.0262 21.4612 42.5031 21.9323 41.875 21.9323H35.5938C35.0703 21.9323 34.5992 22.1934 34.2852 22.6121L33.5 23.7122L27.69 15.4414C26.5908 13.9235 24.8113 12.9817 22.927 12.9817ZM22.927 16.1223C23.8168 16.1223 24.6016 16.5407 25.125 17.2735L36.1693 32.9766V48.2606C36.1693 49.7262 34.9656 50.8777 33.5 50.8777H12.3529C10.8873 50.8777 9.68359 49.6738 9.68359 48.2606V32.9766L20.7279 17.2735C21.2514 16.5407 22.0371 16.1223 22.927 16.1223ZM44.073 16.1745C44.9629 16.1745 45.7486 16.5928 46.2721 17.3256L55.8504 30.935H43.7592L40.6185 26.4858L41.6133 25.0729H41.875C44.2305 25.0729 46.1668 23.1885 46.1668 20.8854C46.1668 18.7393 44.5445 17.0117 42.3984 16.75C42.8695 16.3836 43.4449 16.1745 44.073 16.1745ZM22.927 18.2682C22.2329 18.2682 21.5672 18.5439 21.0763 19.0348C20.5855 19.5256 20.3098 20.1913 20.3098 20.8854C20.3098 21.5795 20.5855 22.2452 21.0763 22.736C21.5672 23.2268 22.2329 23.5026 22.927 23.5026C23.6211 23.5026 24.2868 23.2268 24.7776 22.736C25.2684 22.2452 25.5442 21.5795 25.5442 20.8854C25.5442 20.1913 25.2684 19.5256 24.7776 19.0348C24.2868 18.5439 23.6211 18.2682 22.927 18.2682ZM39.31 34.0235H57.3164V48.2084C57.3164 49.674 56.1127 50.8256 54.6471 50.8256H38.6822C39.0486 50.0928 39.31 49.1506 39.31 48.2084V34.0235Z" fill="#FF5900"/>
</svg>
