<svg width="30" height="30" viewBox="0 0 30 30" fill="none" xmlns="http://www.w3.org/2000/svg">
<path d="M4.21875 0.625C2.23716 0.625 0.625 2.23716 0.625 4.21875V8.53125C0.625 9.33984 0.89306 10.0866 1.34515 10.6875C0.89306 11.2884 0.625 12.0352 0.625 12.8438V17.1562C0.625 17.9648 0.89306 18.7116 1.34515 19.3125C0.89306 19.9134 0.625 20.6602 0.625 21.4688V25.7812C0.625 27.7628 2.23716 29.375 4.21875 29.375H8.53125C9.33984 29.375 10.0866 29.1062 10.6875 28.6548C11.2884 29.1062 12.0352 29.375 12.8438 29.375H17.1562C17.9648 29.375 18.7116 29.1062 19.3125 28.6548C19.9134 29.1062 20.6602 29.375 21.4688 29.375H25.7812C27.7628 29.375 29.375 27.7628 29.375 25.7812V21.4688C29.375 20.6602 29.1069 19.9134 28.6548 19.3125C29.1069 18.7116 29.375 17.9648 29.375 17.1562V12.8438C29.375 12.0352 29.1069 11.2884 28.6548 10.6875C29.1069 10.0866 29.375 9.33984 29.375 8.53125V4.21875C29.375 2.23716 27.7628 0.625 25.7812 0.625H21.4688C20.6602 0.625 19.9134 0.893779 19.3125 1.34515C18.7116 0.893779 17.9648 0.625 17.1562 0.625H12.8438C12.0352 0.625 11.2884 0.893779 10.6875 1.34515C10.0866 0.893779 9.33984 0.625 8.53125 0.625H4.21875ZM4.21875 3.5H8.53125C8.928 3.5 9.25 3.82272 9.25 4.21875V8.53125C9.25 8.92728 8.928 9.25 8.53125 9.25H4.21875C3.822 9.25 3.5 8.92728 3.5 8.53125V4.21875C3.5 3.82272 3.822 3.5 4.21875 3.5ZM12.8438 3.5H17.1562C17.553 3.5 17.875 3.82272 17.875 4.21875V8.53125C17.875 8.92728 17.553 9.25 17.1562 9.25H12.8438C12.447 9.25 12.125 8.92728 12.125 8.53125V4.21875C12.125 3.82272 12.447 3.5 12.8438 3.5ZM21.4688 3.5H25.7812C26.178 3.5 26.5 3.82272 26.5 4.21875V8.53125C26.5 8.92728 26.178 9.25 25.7812 9.25H21.4688C21.072 9.25 20.75 8.92728 20.75 8.53125V4.21875C20.75 3.82272 21.072 3.5 21.4688 3.5ZM4.21875 12.125H8.53125C8.928 12.125 9.25 12.4477 9.25 12.8438V17.1562C9.25 17.5523 8.928 17.875 8.53125 17.875H4.21875C3.822 17.875 3.5 17.5523 3.5 17.1562V12.8438C3.5 12.4477 3.822 12.125 4.21875 12.125ZM12.8438 12.125H17.1562C17.553 12.125 17.875 12.4477 17.875 12.8438V17.1562C17.875 17.5523 17.553 17.875 17.1562 17.875H12.8438C12.447 17.875 12.125 17.5523 12.125 17.1562V12.8438C12.125 12.4477 12.447 12.125 12.8438 12.125ZM21.4688 12.125H25.7812C26.178 12.125 26.5 12.4477 26.5 12.8438V17.1562C26.5 17.5523 26.178 17.875 25.7812 17.875H21.4688C21.072 17.875 20.75 17.5523 20.75 17.1562V12.8438C20.75 12.4477 21.072 12.125 21.4688 12.125ZM4.21875 20.75H8.53125C8.928 20.75 9.25 21.0727 9.25 21.4688V25.7812C9.25 26.1773 8.928 26.5 8.53125 26.5H4.21875C3.822 26.5 3.5 26.1773 3.5 25.7812V21.4688C3.5 21.0727 3.822 20.75 4.21875 20.75ZM12.8438 20.75H17.1562C17.553 20.75 17.875 21.0727 17.875 21.4688V25.7812C17.875 26.1773 17.553 26.5 17.1562 26.5H12.8438C12.447 26.5 12.125 26.1773 12.125 25.7812V21.4688C12.125 21.0727 12.447 20.75 12.8438 20.75ZM21.4688 20.75H25.7812C26.178 20.75 26.5 21.0727 26.5 21.4688V25.7812C26.5 26.1773 26.178 26.5 25.7812 26.5H21.4688C21.072 26.5 20.75 26.1773 20.75 25.7812V21.4688C20.75 21.0727 21.072 20.75 21.4688 20.75Z" fill="#FF7C36"/>
</svg>
