<svg width="24" height="24" viewBox="0 0 24 24" fill="none" xmlns="http://www.w3.org/2000/svg">
<path d="M3.45 0C3.13512 0 2.88 0.307954 2.88 0.688043V4.19163C2.88 4.57172 3.13512 4.87967 3.45 4.87967H5.76V10.0943H3.84V8.9355C3.84 7.65559 2.98032 6.61788 1.92 6.61788C0.85968 6.61788 0 7.65559 0 8.9355V21.6824C0 22.9623 0.85968 24 1.92 24H22.08C23.1403 24 24 22.9623 24 21.6824V8.9355C24 7.65559 23.1403 6.61788 22.08 6.61788C21.0197 6.61788 20.16 7.65559 20.16 8.9355V10.0943H18.48V7.25727C19.4816 6.57303 20.16 5.2794 20.16 3.79103C20.16 2.31123 19.49 1.02325 18.4978 0.337236C18.2583 0.171527 17.9587 0.394499 17.9587 0.727656V3.05659C17.9587 3.71827 17.5847 4.33117 17.0437 4.4372C16.354 4.57278 15.7584 3.93441 15.7584 3.12788V0.724255C15.7584 0.393995 15.4621 0.169864 15.2241 0.333836C14.0495 1.14326 13.3261 2.79448 13.6256 4.61033C13.805 5.69766 14.3766 6.63247 15.1453 7.19728H15.12V10.0943H9.12V4.87966H11.91C12.2249 4.87966 12.48 4.57171 12.48 4.19162V3.38363C12.48 3.17272 12.4002 2.97365 12.2634 2.8427L9.68251 0.385895C9.41995 0.136172 9.09456 0 8.76001 0H3.45ZM3.84 13.5707H20.16V14.7295H3.84V13.5707ZM3.84 18.206H20.16V19.3648H3.84V18.206Z" fill="#FF7C36"/>
</svg>
