<svg width="38" height="38" viewBox="0 0 38 38" fill="none" xmlns="http://www.w3.org/2000/svg">
<path d="M31.6668 20.5834C31.6668 28.5001 26.1252 32.4584 19.5385 34.7542C19.1936 34.8711 18.8189 34.8655 18.4777 34.7384C11.8752 32.4584 6.3335 28.5001 6.3335 20.5834V9.50006C6.3335 9.08013 6.50031 8.67741 6.79724 8.38048C7.09418 8.08354 7.4969 7.91673 7.91683 7.91673C11.0835 7.91673 15.0418 6.01673 17.7968 3.61006C18.1323 3.32348 18.559 3.16602 19.0002 3.16602C19.4414 3.16602 19.8681 3.32348 20.2035 3.61006C22.9743 6.03256 26.9168 7.91673 30.0835 7.91673C30.5034 7.91673 30.9062 8.08354 31.2031 8.38048C31.5 8.67741 31.6668 9.08013 31.6668 9.50006V20.5834Z" stroke="#FF7C36" stroke-width="3" stroke-linecap="round" stroke-linejoin="round"/>
<path d="M14 19.1667L17.1667 22.3333L23.5 16" stroke="#FF7C36" stroke-width="3" stroke-linecap="round" stroke-linejoin="round"/>
</svg>
