<svg width="34" height="32" viewBox="0 0 34 32" fill="none" xmlns="http://www.w3.org/2000/svg">
<path d="M25.0824 0.128357C22.6037 0.112821 19.6478 1.08618 17.9294 2.8045C15.5004 5.23354 15.0107 8.51936 16.3799 11.5661C15.6724 12.2211 14.7823 13.0007 13.7534 13.8716L7.06238 7.1806V5.82843C7.06238 5.44137 6.87574 5.07773 6.56018 4.85223L3.17102 2.43256C2.78189 2.15481 2.24974 2.19904 1.91149 2.53729L0.474728 3.97406C0.136478 4.31231 0.0922415 4.84446 0.369992 5.23358L2.78967 8.62274C3.01517 8.9383 3.37812 9.12494 3.76587 9.12494H5.11804L11.6332 15.6401C11.1284 16.0595 10.6647 16.453 10.1561 16.8741C7.24113 19.2879 4.48637 21.569 3.07837 22.977C1.05987 24.9948 1.05987 28.2779 3.07837 30.2964C4.08762 31.3057 5.41327 31.8098 6.73877 31.8098C8.06427 31.8098 9.38992 31.3057 10.3992 30.2964C11.6339 29.0617 13.9943 26.2277 16.494 23.2267C18.5004 20.819 20.516 18.4089 21.806 17.0016C22.9167 17.501 24.059 17.7523 25.1804 17.7523C27.1357 17.7523 29.0255 16.9882 30.569 15.444C33.3183 12.6954 34.1609 6.77915 32.097 4.71527C31.5601 4.17833 30.6903 4.17902 30.1527 4.71527L25.7699 9.09808C25.2453 9.04996 24.7366 8.94559 24.5386 8.8349C24.4279 8.63621 24.3228 8.12745 24.2754 7.60358L28.6582 3.22076C29.1951 2.68383 29.1951 1.81471 28.6582 1.27777C27.8842 0.504076 26.5696 0.137679 25.0824 0.128357ZM25.0972 2.89581L21.9027 6.09027C21.6449 6.34808 21.4999 6.69806 21.4999 7.06244C21.4999 7.85375 21.6057 9.80079 22.5902 10.7846C23.574 11.7691 25.5211 11.8749 26.3124 11.8749C26.6768 11.8749 27.0267 11.7293 27.2845 11.4708L30.479 8.27631C30.4639 9.86787 29.9336 12.1907 28.6246 13.4997C26.0747 16.0469 22.7386 14.9895 20.5613 12.8135C18.3833 10.6355 17.3266 7.29737 19.8738 4.75018C21.1835 3.4405 23.5056 2.91094 25.0972 2.89581ZM17.873 13.9348C18.1052 14.2139 18.3492 14.4887 18.6169 14.7565C18.8854 15.0249 19.1616 15.2719 19.4414 15.5045C18.1229 16.9769 16.2963 19.169 14.3818 21.4677C12.0313 24.2885 9.60089 27.206 8.45483 28.3521C7.50883 29.2974 5.97008 29.2974 5.0227 28.3521C4.0767 27.4061 4.0767 25.8673 5.0227 24.9213C6.33995 23.6048 9.17282 21.259 11.9111 18.9916C14.1886 17.1051 16.3464 15.3137 17.873 13.9348ZM22.1014 19.3555L20.9923 20.6312L26.4977 26.1365C27.1659 26.8048 27.1659 27.8927 26.4977 28.5602C25.8507 29.2072 24.7223 29.2079 24.0753 28.5602L18.7808 23.2657L17.011 25.3859L22.131 30.5046C22.9739 31.3481 24.0944 31.8124 25.2865 31.8124C26.4786 31.8124 27.5998 31.3481 28.4434 30.5046C30.1834 28.7645 30.1834 25.9343 28.4434 24.1935L23.89 19.6402L22.1014 19.3555Z" fill="#FF7C36"/>
</svg>
