<svg width="32" height="32" viewBox="0 0 32 32" fill="none" xmlns="http://www.w3.org/2000/svg">
<path d="M8.36881 2.86591C4.73844 4.85589 2.09628 8.14064 0.943487 12.1085C-0.21561 16.0798 0.23522 20.2672 2.2252 23.8976C4.21518 27.5279 7.50263 30.1604 11.4739 31.3195C15.439 32.4821 19.6293 32.0216 23.2596 30.0316C26.89 28.0417 29.5259 24.7604 30.685 20.7891C30.8729 20.1451 31.0074 19.5382 31.1037 18.9362C31.2181 18.2178 30.7867 17.5357 30.0905 17.3272C29.3977 17.125 28.6649 17.4614 28.3715 18.1222C26.4673 22.379 21.6519 24.601 17.1634 23.291C14.747 22.591 12.7533 20.9872 11.5476 18.7875C10.3418 16.5879 10.0623 14.0445 10.772 11.6309C12.082 7.14244 16.5482 4.26854 21.1582 4.96282C21.8731 5.0709 22.5571 4.63066 22.753 3.94133C22.9518 3.24224 22.6088 2.51171 21.9417 2.22169C21.3825 1.97906 20.7985 1.76601 20.1545 1.57805C16.1832 0.418948 11.9992 0.875934 8.36881 2.86591ZM25.3594 5.11567C25.1489 5.26798 24.9809 5.47795 24.8793 5.72626L24.1658 7.44447L22.2928 7.85639C21.7567 7.96993 21.3315 8.3916 21.2007 8.9305C21.0762 9.46595 21.2715 10.0307 21.6996 10.378L23.1434 11.546L22.961 13.3509C22.9076 13.8966 23.1684 14.417 23.6331 14.7115C24.0943 14.9996 24.6615 15.0178 25.1456 14.7196L26.777 13.7181L28.5515 14.4584C28.9569 14.6296 29.4148 14.5999 29.793 14.3926C29.8812 14.3442 29.9622 14.2828 30.0401 14.2155C30.4512 13.859 30.6275 13.2961 30.495 12.7703L30.0391 11.0128L31.2858 9.6394C31.656 9.22333 31.7633 8.64141 31.5512 8.13476C31.3419 7.61836 30.8656 7.27298 30.3143 7.23913L28.3954 7.11752L27.4289 5.53253C27.1509 5.07019 26.6364 4.80428 26.0944 4.84728C25.8234 4.86878 25.57 4.96337 25.3594 5.11567Z" fill="#FF7C36"/>
</svg>
