<svg width="25" height="25" viewBox="0 0 25 25" fill="none" xmlns="http://www.w3.org/2000/svg">
<path d="M16.9045 0.387467C16.5789 0.385437 16.2582 0.482766 15.992 0.668394L13.2323 2.59438C12.394 3.1792 11.9235 4.12257 11.9799 5.10636L12.1881 8.70749L5.09328 16.0024C4.90299 15.9736 4.71014 15.9518 4.51222 15.9471C2.12672 15.8905 0.150036 17.6686 0.0966941 19.919C0.0433521 22.1693 1.93357 24.0391 4.31906 24.0956C6.70456 24.1522 8.68124 22.3741 8.73459 20.1237C8.73937 19.922 8.72343 19.7247 8.69802 19.5301L16.8181 12.2259L20.6717 12.058C21.9767 12.0011 23.0674 11.1073 23.3112 9.8974L24.4551 4.20952C24.5607 3.68343 24.3475 3.14406 23.9012 2.81188L22.6257 1.86424L19.9445 7.5661C19.9445 7.5661 18.8969 7.74276 17.4412 6.90607C15.9855 6.06939 15.928 5.06901 15.928 5.06901L19.085 0.818677L17.2301 0.422609C17.1222 0.399557 17.0131 0.388146 16.9045 0.387467ZM4.46912 17.7649L4.9955 18.149L5.65791 18.0957L5.91145 18.675L6.51375 18.9422L6.42589 19.563L6.80755 20.0781L6.40193 20.5736L6.46026 21.1987L5.846 21.4362L5.56434 22.0037L4.90613 21.9191L4.36215 22.2778L3.83577 21.8937L3.17336 21.947L2.91891 21.3669L2.31753 21.1005L2.40539 20.4797L2.02373 19.9647L2.42935 19.4691L2.37102 18.844L2.9853 18.6056L3.266 18.039L3.92421 18.1236L4.46912 17.7649Z" fill="#FF7C36"/>
</svg>
