<svg width="34" height="34" viewBox="0 0 34 34" fill="none" xmlns="http://www.w3.org/2000/svg">
<path d="M19.8165 0.0791016C18.8362 0.0791973 17.8557 0.451913 17.1099 1.19763L3.66066 14.6484C3.43634 14.872 3.28808 15.16 3.23449 15.4724L0.442647 31.7897C0.359194 32.279 0.518899 32.7789 0.870321 33.1296C1.15973 33.419 1.65811 33.643 2.21166 33.5573L18.529 30.7654C18.8414 30.7118 19.1287 30.5636 19.353 30.3392L32.8038 16.8885C34.2944 15.3963 34.2937 12.969 32.8023 11.4767L22.5232 1.19763C21.7767 0.451531 20.7969 0.0790058 19.8165 0.0791016ZM19.8165 3.13861C20.0125 3.13842 20.2082 3.21324 20.3579 3.36292L30.637 13.642C30.9356 13.9406 30.9356 14.4261 30.637 14.7247L19.2363 26.1238C18.4877 23.3598 16.3176 21.4647 13.1084 20.893C12.5366 17.6821 10.6399 15.513 7.87459 14.765L19.2752 3.36292C19.4249 3.214 19.6205 3.1388 19.8165 3.13861ZM5.98446 17.5599C8.29474 17.6894 9.68867 19.0077 10.1072 21.5136C10.3101 22.7333 11.2674 23.6891 12.4878 23.8927C14.9929 24.3105 16.3105 25.7045 16.44 28.0154L7.62188 29.5243L4.47564 26.378L5.98446 17.5599Z" fill="#FF7C36"/>
</svg>
