<svg width="25" height="25" viewBox="0 0 25 25" fill="none" xmlns="http://www.w3.org/2000/svg">
<path d="M12.2653 0C11.9488 0 11.6697 0.216379 11.5926 0.525002L11.3408 1.53514C10.6754 1.5908 10.0273 1.70516 9.40117 1.87445L8.81978 1.01403C8.64158 0.750705 8.30565 0.642039 8.00797 0.750555C7.7108 0.859071 7.52304 1.1578 7.55589 1.47389L7.66381 2.50736C7.06507 2.78513 6.49565 3.11536 5.96145 3.49223L5.11853 2.88167C4.86118 2.69501 4.50831 2.70822 4.26589 2.91182C4.02297 3.11541 3.9486 3.46026 4.08797 3.74598L4.54297 4.68029C4.07753 5.14324 3.65571 5.64913 3.27908 6.18918L2.27866 5.90237C1.97253 5.81476 1.64654 5.94796 1.48825 6.22224C1.32995 6.49651 1.37838 6.84609 1.60686 7.0671L2.35255 7.78849C2.07478 8.37879 1.84853 8.99736 1.6788 9.6396L0.643382 9.71252C0.326297 9.73492 0.0652226 9.9711 0.010462 10.2832C-0.0442936 10.5948 0.119844 10.9073 0.410049 11.0367L1.35991 11.4606C1.33103 11.7848 1.31421 12.1127 1.31421 12.4445C1.31421 12.7762 1.33103 13.1041 1.35991 13.4283L0.410049 13.8522C0.119844 13.9817 -0.0442886 14.2936 0.010462 14.6057C0.0652176 14.9178 0.326297 15.154 0.643382 15.1764L1.6788 15.2503C1.8485 15.8922 2.0749 16.5104 2.35255 17.1004L1.60589 17.8218C1.37741 18.0428 1.32898 18.3924 1.48728 18.6667C1.64607 18.941 1.97303 19.0742 2.27866 18.9866L3.27908 18.6997C3.65598 19.2402 4.07812 19.7464 4.54395 20.2096L4.08895 21.1439C3.95007 21.4296 4.02445 21.7745 4.26687 21.9781C4.50928 22.1817 4.86118 22.1949 5.11853 22.0082L5.96145 21.3967C6.49625 21.774 7.0663 22.1046 7.66576 22.3825L7.55784 23.415C7.52449 23.7316 7.71128 24.0299 8.00895 24.1384C8.30663 24.2469 8.64256 24.1392 8.82076 23.8759L9.40215 23.0145C10.028 23.1836 10.6758 23.2982 11.3408 23.3538L11.5926 24.3639C11.6697 24.6725 11.9488 24.8889 12.2653 24.8889C12.5819 24.8889 12.861 24.6725 12.9381 24.3639L13.1899 23.3538C13.8552 23.2981 14.5034 23.1838 15.1295 23.0145L15.7109 23.8749C15.8891 24.1382 16.2241 24.2469 16.5217 24.1384C16.8189 24.0299 17.0067 23.7311 16.9738 23.415L16.8659 22.3816C17.4649 22.1037 18.0348 21.7737 18.5692 21.3967L19.4112 22.0073C19.6685 22.1939 20.0214 22.1807 20.2638 21.9771C20.5067 21.7735 20.5811 21.4287 20.4417 21.1429L19.9867 20.2096C20.4526 19.7464 20.8747 19.2402 21.2516 18.6997L22.252 18.9866C22.5582 19.0742 22.8842 18.941 23.0424 18.6667C23.2007 18.3924 23.1523 18.0428 22.9238 17.8218L22.1781 17.1004C22.4559 16.5101 22.6822 15.8916 22.8519 15.2493L23.8873 15.1764C24.2044 15.154 24.4655 14.9178 24.5202 14.6057C24.575 14.2941 24.4108 13.9817 24.1206 13.8522L23.1708 13.4284C23.1997 13.1041 23.2165 12.7762 23.2165 12.4445C23.2165 12.1127 23.1997 11.7848 23.1708 11.4606L24.1206 11.0367C24.4108 10.9073 24.575 10.5953 24.5202 10.2832C24.4655 9.97111 24.2044 9.73492 23.8873 9.71252L22.8519 9.63863C22.6822 8.99671 22.4558 8.37851 22.1781 7.78849L22.9238 7.0671C23.1523 6.84609 23.2007 6.49651 23.0424 6.22224C22.8837 5.94796 22.5577 5.81476 22.252 5.90237L21.2516 6.18918C20.8747 5.64875 20.4526 5.14253 19.9867 4.67932L20.4417 3.74501C20.5806 3.45929 20.5062 3.11444 20.2638 2.91084C20.0214 2.70725 19.6695 2.69404 19.4122 2.8807L18.5692 3.49223C18.0344 3.11495 17.4644 2.78435 16.8649 2.5064L16.9728 1.4739C17.0062 1.15731 16.8194 0.859076 16.5217 0.75056C16.2241 0.642045 15.8881 0.75071 15.7099 1.01403L15.1285 1.87445C14.5026 1.7053 13.8549 1.59078 13.1899 1.53515L12.9381 0.525007C12.861 0.216384 12.5819 0 12.2653 0ZM10.772 5.63987V8.75487C9.31341 9.34602 8.28311 10.7739 8.28311 12.4445C8.28311 12.6317 8.29992 12.8144 8.32492 12.9947L5.62311 14.5552C5.41171 13.8893 5.29644 13.1803 5.29644 12.4445C5.29644 9.10858 7.64129 6.32386 10.772 5.63987ZM13.7587 5.63987C16.8894 6.32386 19.2342 9.10858 19.2342 12.4445C19.2342 13.1803 19.119 13.8893 18.9076 14.5552L16.2058 12.9947C16.2308 12.8144 16.2476 12.6317 16.2476 12.4445C16.2476 10.7739 15.2173 9.34602 13.7587 8.75487V5.63987ZM12.2653 11.4489C12.8154 11.4489 13.2609 11.8944 13.2609 12.4445C13.2609 12.9945 12.8154 13.44 12.2653 13.44C11.7153 13.44 11.2698 12.9945 11.2698 12.4445C11.2698 11.8944 11.7153 11.4489 12.2653 11.4489ZM9.81825 15.5818C10.4938 16.1096 11.3417 16.4267 12.2653 16.4267C13.189 16.4267 14.0368 16.1096 14.7124 15.5818L17.4074 17.1374C16.1331 18.533 14.3042 19.4134 12.2653 19.4134C10.2265 19.4134 8.39762 18.533 7.12325 17.1374L9.81825 15.5818Z" fill="#FF7C36"/>
</svg>
