<svg width="60" height="60" viewBox="0 0 60 60" fill="none" xmlns="http://www.w3.org/2000/svg">
<path d="M31.465 6.465C30.5275 5.52725 29.256 5.00028 27.93 5H10C8.67392 5 7.40215 5.52678 6.46447 6.46447C5.52678 7.40215 5 8.67392 5 10V27.93C5.00028 29.256 5.52725 30.5275 6.465 31.465L28.225 53.225C29.3613 54.3541 30.8981 54.9878 32.5 54.9878C34.1019 54.9878 35.6387 54.3541 36.775 53.225L53.225 36.775C54.3541 35.6387 54.9878 34.1019 54.9878 32.5C54.9878 30.8981 54.3541 29.3613 53.225 28.225L31.465 6.465Z" stroke="#FF5900" stroke-width="3.75" stroke-linecap="round" stroke-linejoin="round"/>
<path d="M18.75 20C19.4404 20 20 19.4404 20 18.75C20 18.0596 19.4404 17.5 18.75 17.5C18.0596 17.5 17.5 18.0596 17.5 18.75C17.5 19.4404 18.0596 20 18.75 20Z" fill="black" stroke="#FF5900" stroke-width="3.75" stroke-linecap="round" stroke-linejoin="round"/>
</svg>
