<svg width="27" height="29" viewBox="0 0 27 29" fill="none" xmlns="http://www.w3.org/2000/svg">
<path fill-rule="evenodd" clip-rule="evenodd" d="M13.8228 1.95973C20.6373 1.95125 26.1665 7.47052 26.175 14.2864C26.1813 21.1024 20.6649 26.6344 13.8524 26.6428C11.1566 26.6471 8.66205 25.7826 6.63122 24.3186L0.0305176 26.4966L2.55475 19.293C1.88134 17.7717 1.5044 16.0874 1.50228 14.3161C1.49381 7.50018 7.01028 1.9682 13.8228 1.95973Z" fill="black"/>
<path fill-rule="evenodd" clip-rule="evenodd" d="M2.22021 24.346L6.8621 22.8142L7.42327 23.2189C9.30163 24.5727 11.5357 25.291 13.8503 25.2889C19.9174 25.2804 24.8261 20.3565 24.8197 14.2885C24.8113 8.22044 19.8899 3.30713 13.8249 3.31348C7.75998 3.32196 2.84916 8.24587 2.85763 14.3139C2.85974 15.8436 3.17316 17.3458 3.79363 18.7441L4.00963 19.2357L2.22021 24.346Z" fill="#FFE134"/>
<path fill-rule="evenodd" clip-rule="evenodd" d="M8.20891 16.0874H8.21315L13.0774 11.8393C13.2171 9.31594 15.2755 7.36671 17.8421 7.41544C18.4541 7.42816 20.0762 7.77775 20.4913 8.24175C20.6924 8.46845 20.6734 8.8138 20.4489 9.0172C20.4108 9.0511 20.3684 9.07864 20.3261 9.09983L17.3466 11.1147L17.6303 12.7483L18.9687 13.939L21.9842 12.0279C22.2066 11.8859 22.503 11.922 22.6851 12.1254C22.7677 12.2165 22.8122 12.3288 22.8228 12.4432C22.8228 12.4495 22.8228 12.4559 22.8228 12.4622C22.8249 12.4792 22.8249 12.4983 22.8249 12.5152C22.827 15.1721 20.7115 17.2696 18.0539 17.2188C17.5795 17.2103 17.12 17.1319 16.6837 16.9963H16.6816H16.6795C16.6414 16.9836 16.6054 16.973 16.5694 16.9603C16.4677 16.937 16.3597 16.9327 16.2009 16.9327C15.9849 16.9327 15.6757 17.026 15.4746 17.1827V17.1849C15.4364 17.2124 15.4026 17.2442 15.3687 17.276L10.7014 21.4096C10.1063 22.1194 9.21479 22.5728 8.21738 22.5728C6.42797 22.5749 4.97526 21.1257 4.97315 19.3333C4.97103 17.5429 6.4195 16.0895 8.20891 16.0874ZM13.2934 15.6424C13.4247 15.8013 13.4056 16.0386 13.2489 16.1721L12.1604 17.0874C12.0037 17.2209 11.7666 17.2018 11.6331 17.0429C11.4997 16.8861 11.5209 16.6488 11.6776 16.5154L12.764 15.5979C12.9228 15.4645 13.16 15.4857 13.2934 15.6424ZM8.21315 18.1256C8.87597 18.1256 9.41597 18.6637 9.41597 19.329C9.41809 19.9943 8.88021 20.5324 8.21526 20.5346C7.55032 20.5346 7.01032 19.9964 7.01032 19.3311C7.01032 18.6659 7.54821 18.1256 8.21315 18.1256Z" fill="#FFAE42"/>
<path fill-rule="evenodd" clip-rule="evenodd" d="M8.27231 15.0492H8.27654L13.1408 10.8033C13.2805 8.27776 15.3389 6.32854 17.9034 6.37939C18.5154 6.38998 20.1396 6.74169 20.5547 7.20569C20.7558 7.43028 20.7368 7.77775 20.5123 7.97903C20.4742 8.01292 20.4318 8.04047 20.3874 8.06166L17.41 10.0787L17.6937 11.7101L19.03 12.9029L22.0476 10.9897C22.27 10.8499 22.5664 10.8859 22.7485 11.0872C22.829 11.1804 22.8756 11.2906 22.8862 11.405V11.4071C22.8862 11.4135 22.8862 11.4198 22.8862 11.4241C22.8883 11.4431 22.8883 11.4601 22.8862 11.477C22.8883 14.136 20.7749 16.2336 18.1151 16.1806C17.6408 16.1721 17.1812 16.0937 16.745 15.9602L16.7429 15.9581C16.7048 15.9475 16.6688 15.9348 16.6307 15.9221C16.5311 15.8988 16.421 15.8946 16.2643 15.8946C16.0462 15.8946 15.737 15.9899 15.538 16.1467H15.5358C15.4998 16.1742 15.466 16.206 15.4321 16.2399L10.7627 20.3735V20.3714C10.1697 21.0812 9.27819 21.5346 8.28078 21.5346C6.48925 21.5367 5.03654 20.0875 5.03443 18.2972C5.03231 16.5048 6.4829 15.0513 8.27231 15.0492ZM13.3547 14.6064C13.4881 14.7632 13.469 15.0005 13.3102 15.1339L12.2238 16.0514C12.0671 16.1848 11.83 16.1636 11.6965 16.0069C11.5631 15.848 11.5843 15.6107 11.741 15.4772L12.8274 14.5598C12.9841 14.4284 13.2234 14.4475 13.3547 14.6064ZM8.27443 17.0895C8.93937 17.0874 9.47937 17.6256 9.47937 18.2908C9.48148 18.9561 8.94148 19.4964 8.27866 19.4964C7.61372 19.4964 7.07372 18.9582 7.07372 18.293C7.0716 17.6298 7.60948 17.0895 8.27443 17.0895Z" fill="black"/>
<path fill-rule="evenodd" clip-rule="evenodd" d="M8.27457 15.9561C9.56422 15.9539 10.6103 16.9985 10.6125 18.2888C10.6146 19.5812 9.56845 20.6278 8.2788 20.63C6.98916 20.6321 5.94304 19.5854 5.94092 18.2951C5.9388 17.0048 6.9828 15.9561 8.27457 15.9561ZM8.27457 16.3332C9.35669 16.3311 10.2334 17.2082 10.2355 18.2909C10.2355 19.3714 9.36092 20.2507 8.2788 20.2528C7.19669 20.2528 6.31998 19.3778 6.31786 18.2951C6.31574 17.2125 7.19245 16.3332 8.27457 16.3332Z" fill="white"/>
<path fill-rule="evenodd" clip-rule="evenodd" d="M9.70392 15.5809L9.63403 15.1741L13.2827 11.8032L13.3251 12.4537L9.70392 15.5809Z" fill="white"/>
<path fill-rule="evenodd" clip-rule="evenodd" d="M14.854 12.8267C14.8709 12.8564 14.8815 12.8924 14.8815 12.9305C14.8815 13.045 14.7862 13.1403 14.6719 13.1403C14.5829 13.1403 14.5067 13.0513 14.4453 12.9348C14.0091 12.1212 13.954 10.8923 14.206 10.0237C14.3076 9.67619 14.4559 9.3372 14.6528 9.02151C15.3876 7.83926 16.6794 7.1189 18.0707 7.1189C18.1596 7.1189 18.2316 7.19093 18.2316 7.27992C18.2316 7.36679 18.1596 7.43882 18.0707 7.43882C16.8446 7.5723 15.754 8.2736 15.1208 9.33084C14.4898 10.3902 14.3902 11.6826 14.854 12.8267Z" fill="white"/>
<path d="M6.12723 11.1994C6.47107 11.1994 6.74982 10.9205 6.74982 10.5765C6.74982 10.2325 6.47107 9.95361 6.12723 9.95361C5.78338 9.95361 5.50464 10.2325 5.50464 10.5765C5.50464 10.9205 5.78338 11.1994 6.12723 11.1994Z" fill="white"/>
<path fill-rule="evenodd" clip-rule="evenodd" d="M7.07181 8.83717C8.15181 9.71856 9.44781 7.77358 8.55416 7.04262C7.79605 6.42395 5.98546 7.94943 7.07181 8.83717Z" fill="white"/>
<path fill-rule="evenodd" clip-rule="evenodd" d="M21.5944 6.52334C21.533 6.52758 18.8182 5.49152 18.3714 5.30719C14.1975 3.58044 10.0427 4.34318 7.0822 6.80937C5.33938 8.26281 3.62832 12.4939 3.19209 15.583L2.98244 15.9686C2.89985 15.4241 2.8575 14.8711 2.8575 14.3139C2.85538 13.7461 2.89773 13.1888 2.98032 12.6443L2.98244 12.638C2.99514 12.5532 3.00997 12.4664 3.02479 12.3816C3.02903 12.3498 3.03538 12.3202 3.04173 12.2905C3.05232 12.2354 3.06079 12.1782 3.0735 12.1231C3.07985 12.0871 3.08832 12.0532 3.09467 12.0172C3.10526 11.9685 3.11585 11.9176 3.12856 11.8689C3.13491 11.8307 3.1455 11.7947 3.15397 11.7587C3.16456 11.71 3.17726 11.6612 3.18785 11.6125C3.19844 11.5765 3.20691 11.5405 3.2175 11.5045C3.2302 11.4557 3.24291 11.4091 3.25562 11.3625C3.26409 11.3244 3.27467 11.2883 3.28526 11.2523C3.30009 11.2057 3.31279 11.157 3.32762 11.1104C3.3382 11.0744 3.34879 11.0383 3.3615 11.0044C3.37632 10.9557 3.39114 10.9091 3.40597 10.8625C3.41867 10.8265 3.42926 10.7926 3.43985 10.7587C3.45679 10.7099 3.47373 10.6612 3.49067 10.6146C3.50338 10.5807 3.51397 10.5468 3.52667 10.515C3.54573 10.462 3.56691 10.4112 3.58597 10.3582C3.59656 10.3307 3.60714 10.3031 3.61773 10.2756C3.6495 10.1972 3.68126 10.1188 3.71303 10.0404C3.7215 10.0213 3.72997 10.0044 3.73632 9.98533C3.76385 9.92601 3.78926 9.86456 3.81467 9.80524C3.82738 9.77769 3.8422 9.74803 3.85491 9.71837C3.8782 9.67176 3.89938 9.62303 3.92267 9.5743C3.9375 9.54252 3.95444 9.51074 3.96926 9.47896C3.99044 9.43446 4.01373 9.38997 4.03491 9.34548C4.05185 9.31369 4.06879 9.2798 4.08573 9.2459C4.10903 9.20352 4.1302 9.16115 4.1535 9.12089C4.17044 9.08699 4.18738 9.05309 4.20644 9.02131C4.22973 8.97894 4.25303 8.93868 4.27632 8.89631C4.29326 8.86453 4.31232 8.83063 4.33138 8.79885C4.35679 8.75647 4.38009 8.71622 4.4055 8.67384C4.42244 8.64418 4.4415 8.6124 4.46056 8.58062C4.48597 8.53824 4.5135 8.49799 4.53891 8.45561C4.55797 8.42595 4.57703 8.39629 4.59609 8.36663C4.62362 8.32213 4.65326 8.27976 4.68079 8.23527C4.69985 8.20772 4.71679 8.1823 4.73585 8.15475C4.76973 8.10391 4.80362 8.05517 4.8375 8.00433C4.85232 7.98526 4.86503 7.96619 4.87985 7.94712C4.92644 7.87932 4.97726 7.81152 5.02597 7.74372C5.04079 7.72465 5.05561 7.70559 5.07044 7.6844C5.10644 7.63779 5.14244 7.59117 5.17844 7.54456C5.19962 7.51702 5.22079 7.49159 5.24197 7.46405C5.27373 7.42591 5.3055 7.38566 5.33726 7.34752C5.35844 7.31998 5.38173 7.29032 5.40714 7.26277C5.43679 7.22675 5.46644 7.19074 5.4982 7.1526C5.5215 7.12506 5.54691 7.09751 5.5702 7.06997C5.60197 7.03395 5.63373 6.99793 5.6655 6.96191C5.69091 6.93649 5.7142 6.90895 5.73961 6.8814C5.77138 6.84538 5.80526 6.81149 5.83703 6.77547C5.86244 6.75004 5.88785 6.7225 5.91326 6.69707C5.94714 6.66106 5.98103 6.62716 6.01491 6.59326C6.04032 6.56783 6.06361 6.54241 6.08903 6.51698C6.12503 6.48096 6.16103 6.44707 6.19491 6.41317C6.22032 6.38774 6.24573 6.36443 6.27114 6.33901C6.30926 6.30299 6.3495 6.26697 6.38761 6.23096C6.41091 6.20977 6.43209 6.18858 6.45538 6.16951C6.51044 6.11654 6.56761 6.06781 6.62479 6.01696C6.63114 6.01273 6.6375 6.00637 6.64173 6.00213C6.70526 5.94705 6.76879 5.89196 6.83444 5.83899C6.85561 5.81992 6.87891 5.80297 6.90009 5.78391C6.94456 5.75001 6.98691 5.71399 7.02926 5.68009C7.05679 5.6589 7.0822 5.63983 7.10973 5.61865C7.14997 5.58686 7.1902 5.5572 7.23044 5.52542C7.25797 5.50423 7.28761 5.48305 7.31514 5.46186C7.35538 5.4322 7.3935 5.40465 7.43373 5.37711C7.46338 5.35381 7.49303 5.33262 7.52267 5.31143C7.56291 5.28389 7.60103 5.25634 7.64126 5.23092C7.67091 5.20973 7.70267 5.18854 7.73232 5.16736C7.77256 5.14193 7.81279 5.11439 7.85303 5.08896C7.88267 5.0699 7.91444 5.04871 7.94409 5.02964C7.98644 5.0021 8.02879 4.97667 8.07114 4.95125C8.10079 4.93218 8.13044 4.91311 8.16009 4.89616C8.20456 4.86862 8.24903 4.84319 8.2935 4.81565C8.32103 4.7987 8.35067 4.78387 8.3782 4.76692C8.42903 4.73726 8.47985 4.70971 8.53067 4.68005C8.55397 4.66734 8.57726 4.65463 8.60056 4.64191C8.67467 4.60166 8.74879 4.5614 8.82503 4.52327C8.83773 4.51691 8.84832 4.51055 8.86103 4.5042C8.92456 4.47242 8.98808 4.44064 9.05161 4.41097C9.07914 4.39826 9.10456 4.38555 9.13208 4.37284C9.18079 4.34953 9.23161 4.32411 9.28244 4.3008C9.3142 4.28809 9.34597 4.27326 9.37561 4.26054C9.4222 4.23936 9.46879 4.21817 9.51538 4.1991C9.54926 4.18427 9.58314 4.16944 9.61491 4.15673C9.6615 4.13766 9.70809 4.11859 9.75467 4.09952C9.78856 4.08681 9.82244 4.07198 9.85632 4.05927C9.90079 4.04232 9.94738 4.02537 9.99397 4.0063C10.0278 3.99359 10.0617 3.98087 10.0977 3.96816C10.1443 3.95121 10.1909 3.93638 10.2375 3.91943C10.2714 3.90672 10.3074 3.89612 10.3413 3.88341C10.39 3.86646 10.4387 3.85163 10.4874 3.83468C10.5213 3.82621 10.553 3.81561 10.5869 3.80502C10.6398 3.78807 10.6949 3.77112 10.75 3.75629C10.7775 3.74781 10.805 3.73934 10.8347 3.73086C10.9003 3.7118 10.966 3.69485 11.0316 3.6779C11.0486 3.67154 11.0676 3.6673 11.0867 3.66307C11.1693 3.64188 11.254 3.62069 11.3387 3.5995C11.362 3.59527 11.3853 3.59103 11.4107 3.58467C11.47 3.57196 11.5314 3.55713 11.5928 3.54442C11.6246 3.53806 11.6584 3.5317 11.6902 3.52535C11.7431 3.51476 11.7982 3.50416 11.8511 3.49357C11.885 3.48721 11.921 3.48297 11.9549 3.47662C12.0057 3.46814 12.0587 3.45755 12.1095 3.45119C12.1476 3.44484 12.1836 3.43848 12.2217 3.43424C12.2704 3.42577 12.3213 3.41941 12.3721 3.41306C12.4102 3.4067 12.4483 3.40246 12.4864 3.39823C12.5351 3.39187 12.586 3.38551 12.6368 3.37916C12.6749 3.37492 12.713 3.3728 12.749 3.36856C12.802 3.36221 12.8528 3.35797 12.9057 3.35373C12.9417 3.35161 12.9798 3.34738 13.018 3.34526C13.0709 3.34102 13.1238 3.3389 13.1768 3.33466C13.2128 3.33255 13.2488 3.33043 13.2848 3.32831C13.3441 3.32619 13.4055 3.32407 13.4648 3.32195C13.4944 3.31983 13.5241 3.31983 13.5537 3.31771C13.6448 3.3156 13.7337 3.3156 13.8248 3.31348C13.9158 3.31348 14.0069 3.3156 14.098 3.31771H14.117C14.206 3.31983 14.297 3.32407 14.386 3.32831H14.3987C14.4855 3.33255 14.5723 3.3389 14.6591 3.34526H14.6761C14.7629 3.35161 14.8497 3.36009 14.9366 3.36856L14.962 3.37068C15.0467 3.37916 15.1314 3.38975 15.214 3.40034L15.2288 3.40246C15.3135 3.41306 15.3961 3.42365 15.4808 3.43636L15.5147 3.44272C15.5973 3.45543 15.6777 3.46814 15.7603 3.48297L15.7878 3.48721C15.8641 3.49992 15.9403 3.51476 16.0166 3.5317L16.0547 3.53806C16.133 3.55501 16.2093 3.57196 16.2876 3.58891C16.3024 3.59315 16.3173 3.59527 16.3321 3.5995C16.402 3.61645 16.4718 3.6334 16.5417 3.65035L16.5904 3.66307C16.6624 3.68213 16.7323 3.7012 16.8043 3.72027L16.8615 3.73722C16.9271 3.75629 16.9928 3.77536 17.0584 3.79443C17.0817 3.80078 17.105 3.80926 17.1283 3.81561C17.1897 3.83468 17.249 3.85587 17.3104 3.87494C17.3337 3.88341 17.357 3.88977 17.3782 3.89824C17.4417 3.91943 17.5031 3.94062 17.5646 3.96392C17.5921 3.9724 17.6175 3.98299 17.645 3.99359C17.7001 4.01265 17.753 4.03384 17.806 4.05503C17.8377 4.06562 17.8695 4.07833 17.9013 4.09105C17.9542 4.11223 18.0071 4.13342 18.0622 4.15673C18.0897 4.16944 18.1173 4.18003 18.1469 4.19275C18.1935 4.21393 18.2422 4.233 18.2888 4.25419C18.3269 4.27114 18.365 4.28809 18.4031 4.30504C18.4476 4.32623 18.4921 4.34741 18.5387 4.3686C18.5747 4.38767 18.6128 4.40462 18.6488 4.42369C18.6869 4.44064 18.7229 4.4597 18.7589 4.47665C18.8013 4.49784 18.8436 4.51903 18.886 4.54233C18.9241 4.5614 18.9622 4.58259 19.0024 4.60378C19.0469 4.62708 19.0914 4.65039 19.1358 4.67581C19.1613 4.69065 19.1888 4.70548 19.2142 4.72031C19.2608 4.74573 19.3074 4.77328 19.354 4.7987C19.3878 4.81777 19.4196 4.83896 19.4535 4.85802C19.5001 4.88557 19.5446 4.91311 19.5911 4.94277C19.6166 4.9576 19.642 4.97244 19.6674 4.98939C19.7224 5.02328 19.7775 5.0593 19.8304 5.0932C19.8516 5.10591 19.8707 5.12075 19.8897 5.13346C19.9384 5.16524 19.9871 5.19702 20.0337 5.2288C20.0634 5.24999 20.093 5.27117 20.1227 5.29024L20.1248 5.29236C20.65 5.66102 21.1413 6.07205 21.5944 6.52334Z" fill="white"/>
<path fill-rule="evenodd" clip-rule="evenodd" d="M3.99904 19.2634C4.17904 19.6278 4.2828 20.0474 4.14939 20.4118L3.22398 23.1852L7.46351 22.4267L6.8621 22.8144L2.22021 24.3462L3.99904 19.2634Z" fill="#FFAE42"/>
<path fill-rule="evenodd" clip-rule="evenodd" d="M6.86412 22.8144C6.73282 22.9013 6.69259 22.7021 6.72012 22.5602C7.48247 22.5453 7.97165 22.5263 8.70859 22.6767C18.0876 24.592 23.2505 21.4966 24.1992 13.3946C24.3495 12.7759 24.4596 12.2399 24.5295 11.7886C24.718 12.5916 24.8175 13.4285 24.8196 14.2887C24.826 20.3567 19.9173 25.2806 13.8502 25.2891C11.5356 25.2912 9.30153 24.5729 7.42318 23.2191L6.86412 22.8144Z" fill="#FFAE42"/>
</svg>
