<svg width="12" height="12" viewBox="0 0 12 12" fill="none" xmlns="http://www.w3.org/2000/svg">
<path d="M1.725 0C1.56756 0 1.44 0.153977 1.44 0.344021V2.09581C1.44 2.28586 1.56756 2.43983 1.725 2.43983H2.88V5.04715H1.92V4.46775C1.92 3.8278 1.49016 3.30894 0.96 3.30894C0.42984 3.30894 0 3.8278 0 4.46775V10.8412C0 11.4811 0.42984 12 0.96 12H11.04C11.5702 12 12 11.4811 12 10.8412V4.46775C12 3.8278 11.5702 3.30894 11.04 3.30894C10.5098 3.30894 10.08 3.8278 10.08 4.46775V5.04715H9.24V3.62863C9.74082 3.28652 10.08 2.6397 10.08 1.89551C10.08 1.15562 9.74499 0.511625 9.24891 0.168618C9.12915 0.0857633 8.97937 0.197249 8.97937 0.363828V1.52829C8.97937 1.85913 8.79235 2.16558 8.52187 2.2186C8.17699 2.28639 7.87922 1.9672 7.87922 1.56394V0.362128C7.87922 0.196998 7.73107 0.0849322 7.61203 0.166918C7.02475 0.571631 6.66305 1.39724 6.81281 2.30517C6.90251 2.84883 7.18831 3.31623 7.57266 3.59864H7.56V5.04715H4.56V2.43983H5.955C6.11244 2.43983 6.24 2.28586 6.24 2.09581V1.69181C6.24 1.58636 6.20012 1.48682 6.13172 1.42135L4.84125 0.192947C4.70997 0.0680859 4.54728 0 4.38 0H1.725ZM1.92 6.78536H10.08V7.36477H1.92V6.78536ZM1.92 9.10298H10.08V9.68238H1.92V9.10298Z" fill="black"/>
</svg>
