<svg width="66" height="66" viewBox="0 0 66 66" fill="none" xmlns="http://www.w3.org/2000/svg">
<path d="M38.3039 55.283C37.9805 55.9047 37.1277 57.0438 36.2816 56.9224C35.6124 56.826 35.186 55.6565 34.9484 55.1404C34.5498 54.2718 33.0701 54.2811 32.6688 55.1404C32.4615 55.5826 31.9956 56.9224 31.325 56.8868C31.0901 56.8749 31.0016 56.6135 30.8907 56.4287C30.6518 56.0288 30.4169 55.6631 30.1238 55.2988C29.6579 54.722 28.7431 54.8658 28.2573 55.2988C27.7953 55.7093 27.4469 56.1977 27.0469 56.6637C26.8634 56.8762 26.3671 57.5058 26.0648 57.4121C25.6886 57.2946 25.3203 55.8954 25.1105 55.5417C24.2419 54.0831 21.9596 55.4097 22.8308 56.8736C23.6202 58.2002 23.933 59.8251 25.7744 60.0152C26.7077 60.1115 27.5789 59.7327 28.289 59.1479C28.9899 58.5711 29.4453 57.7672 30.1225 57.164C29.5008 57.164 28.8777 57.164 28.256 57.164C28.6428 57.6431 28.8395 58.2384 29.2817 58.6872C29.8572 59.272 30.6637 59.569 31.4781 59.503C33.2469 59.3618 34.2554 57.952 34.9471 56.471C34.1868 56.471 33.4278 56.471 32.6675 56.471C33.3407 57.9375 34.4283 59.4858 36.2011 59.5558C38.0451 59.6284 39.7743 58.1658 40.5822 56.6135C41.3663 55.11 39.0893 53.7729 38.3039 55.283Z" fill="white"/>
<path d="M34.0613 31.9796C35.8209 31.9215 37.624 31.2971 38.9123 30.0695C40.4119 28.64 41.0402 26.3168 41.3675 24.3381C41.7253 22.168 41.6223 19.8184 40.4053 17.9176C39.7268 16.8563 38.7777 15.997 37.661 15.4994C35.0725 13.295 30.4868 13.8758 27.9128 15.7805C24.7171 18.146 24.5217 23.1277 25.8628 26.5649C27.1696 29.9125 30.4511 32.0984 34.0613 31.9796Z" fill="black"/>
<path d="M14.347 36.2854C15.9759 36.7831 17.9018 36.8425 19.4765 36.1323C21.0737 35.4129 22.1667 33.8289 22.7435 32.2225C23.9434 28.8776 22.7013 25.0905 19.92 22.9415C18.4126 21.7773 16.4102 21.0949 14.5146 21.574C14.4183 21.5503 14.314 21.5423 14.1965 21.5714C10.9493 22.3488 8.59049 25.3624 8.59841 28.698C8.60765 32.2251 11.0061 35.2651 14.347 36.2854Z" fill="black"/>
<path d="M47.1107 34.4784C49.8642 36.5561 53.7925 36.8188 56.5936 34.6698C59.3867 32.5275 60.0559 28.6335 58.5841 25.5262C57.4146 23.0565 55.0677 21.4751 52.4818 21.0105C49.3085 19.7961 46.1405 22.1272 44.7373 24.9863C43.9057 26.6812 43.5375 28.611 44.1354 30.4432C44.6621 32.0589 45.7603 33.4594 47.1107 34.4784Z" fill="black"/>
<path d="M61.6216 44.4892C60.1709 42.6095 58.0404 41.4347 55.8439 40.6321C52.2773 39.3293 48.11 38.5597 44.2438 39.1511C42.3654 37.9565 40.3036 37.0457 38.1256 36.5216C33.066 35.3046 27.6883 36.2352 23.2518 38.932C22.8004 39.2065 22.3766 39.5167 21.949 39.823C17.8068 39.0613 13.46 39.2501 9.64788 41.1509C5.9334 43.0015 3.05448 46.4111 2.21892 50.482C2.19384 50.5084 2.1648 50.5216 2.14368 50.5532C1.1682 51.9168 3.12048 52.9055 4.19892 53.0599C6.28056 53.3582 8.39388 53.2579 10.4887 53.2249C14.9384 53.155 19.3895 53.0863 23.8392 53.0164C32.6304 52.8791 41.4216 52.7405 50.2115 52.6032C52.7393 52.5636 55.2658 52.524 57.7936 52.4844C58.9961 52.4659 60.2197 52.5108 61.4196 52.4276C61.7641 52.4039 62.0796 52.3168 62.3396 52.1663C62.6102 52.1768 62.8822 52.0475 62.9772 51.7096C63.6847 49.2148 63.2095 46.547 61.6216 44.4892Z" fill="black"/>
<path d="M44.3665 40.3577C47.454 43.1139 49.6491 46.732 50.6576 50.7475C50.8648 51.5711 52.1373 51.2227 51.9301 50.3963C50.8714 46.1776 48.5456 42.3219 45.2997 39.4245C44.6674 38.8609 43.7316 39.7901 44.3665 40.3577Z" fill="#231F20"/>
<path d="M17.0782 51.0232C17.8029 47.3655 19.6073 44.0074 22.2751 41.3991C22.8836 40.8038 21.9503 39.8705 21.3418 40.4659C18.5249 43.2207 16.5727 46.8058 15.8057 50.6721C15.6407 51.5011 16.9132 51.8561 17.0782 51.0232Z" fill="#231F20"/>
<path d="M26.9268 45.9585C26.878 46.0865 26.7776 46.2462 26.9017 46.039C26.9506 45.9572 27.0007 45.8753 27.0482 45.7935C27.2159 45.511 27.0166 45.8634 26.9954 45.8476C26.9915 45.845 27.2093 45.6047 27.2357 45.577C27.501 45.2945 27.7914 45.0358 28.0897 44.789C28.128 44.7573 28.3788 44.5448 28.1755 44.7177C27.9538 44.9064 28.2772 44.6477 28.3273 44.6134C28.4857 44.5012 28.6481 44.3943 28.8118 44.29C29.1616 44.0696 29.5232 43.8702 29.8942 43.6894C29.9813 43.6472 30.0697 43.6062 30.1582 43.5653C30.2057 43.5442 30.5053 43.4056 30.2558 43.5204C30.0077 43.634 30.3086 43.5033 30.3575 43.4848C30.4486 43.4505 30.5396 43.4175 30.632 43.3845C31.0214 43.2485 31.4188 43.1324 31.8214 43.04C32.0101 42.9964 32.2015 42.9568 32.3929 42.9238C32.4616 42.9119 32.6252 42.9159 32.6807 42.8763C32.6028 42.9317 32.2992 42.9172 32.5883 42.8908C33.0252 42.8512 33.4582 42.8235 33.8977 42.8261C34.9339 42.8314 35.9252 41.9114 35.8777 40.8461C35.8289 39.769 35.0078 38.8714 33.8977 38.8661C31.7606 38.8556 29.6724 39.3783 27.7663 40.334C25.818 41.3108 23.908 42.8301 23.108 44.9064C22.7345 45.8753 23.5199 47.1214 24.4914 47.3418C25.624 47.6006 26.5268 46.996 26.9268 45.9585Z" fill="white"/>
<path d="M14.4249 28.9292C14.4209 28.7088 14.4328 28.491 14.4592 28.2732C14.4355 28.4487 14.4117 28.6243 14.3879 28.7999C14.4447 28.3827 14.5556 27.9801 14.7166 27.5921C14.6506 27.7491 14.5833 27.9075 14.5173 28.0646C14.6757 27.6963 14.8763 27.3518 15.1179 27.0324C15.0149 27.1657 14.912 27.299 14.8077 27.4337C15.0413 27.134 15.3053 26.8634 15.6036 26.6271C15.4703 26.7301 15.337 26.8331 15.2024 26.9373C15.2974 26.8647 15.3938 26.7948 15.4941 26.7275C15.9244 26.441 16.2636 26.0529 16.4036 25.5447C16.5342 25.0709 16.4748 24.4399 16.2042 24.0188C15.9323 23.5964 15.5258 23.2242 15.0215 23.1093C14.5186 22.9945 13.9391 23.0143 13.4956 23.3087C12.5756 23.9211 11.7796 24.7303 11.2635 25.715C10.7434 26.705 10.4438 27.8072 10.4636 28.9305C10.4728 29.444 10.6787 29.9654 11.0431 30.3311C11.3863 30.6743 11.9499 30.933 12.4436 30.9105C12.9557 30.8881 13.4864 30.7191 13.8441 30.3311C14.1965 29.9456 14.4328 29.4625 14.4249 28.9292Z" fill="white"/>
<path d="M49.9159 29.3581C49.9885 29.0598 50.0835 28.7694 50.2023 28.4869C50.1363 28.644 50.069 28.8024 50.003 28.9594C50.2023 28.4948 50.4571 28.0592 50.766 27.6579C50.663 27.7912 50.5601 27.9246 50.4558 28.0592C50.7567 27.6751 51.0999 27.3306 51.4854 27.0309C51.3521 27.1339 51.2187 27.2368 51.0841 27.3411C51.2412 27.221 51.4049 27.1088 51.5738 27.0045C52.0041 26.7379 52.3487 26.3142 52.4833 25.8218C52.614 25.3479 52.5546 24.717 52.284 24.2959C52.0121 23.8735 51.6055 23.5012 51.1013 23.3864C50.5891 23.2702 50.0334 23.3019 49.5753 23.5857C47.8725 24.6404 46.5737 26.3524 46.0971 28.3074C45.9731 28.8156 46.0298 29.3766 46.2965 29.8333C46.5367 30.2438 47.0079 30.6359 47.4792 30.7428C47.9861 30.8576 48.555 30.8338 49.0051 30.5434C49.4328 30.2676 49.7931 29.865 49.9159 29.3581Z" fill="white"/>
<path d="M11.1658 16.5501C12.3538 16.7322 13.5299 16.9883 14.6836 17.3275C15.2604 17.4965 15.8307 17.6853 16.3943 17.8938C16.6768 17.9981 16.9553 18.109 17.2352 18.2199C17.4912 18.3215 17.1177 18.1657 17.3949 18.2859C17.552 18.3545 17.709 18.4231 17.8661 18.4944C18.4944 18.7782 19.3155 18.6964 19.6719 18.0205C19.9768 17.4437 19.8699 16.5184 19.198 16.2148C16.855 15.1575 14.4104 14.3932 11.8667 14.0051C11.1869 13.9008 10.4134 14.1767 10.2431 14.9265C10.1006 15.5561 10.4358 16.4392 11.1658 16.5501Z" fill="#8A8A8A"/>
<path d="M15.7714 10.0741C16.7284 11.8772 18.0115 13.5286 19.5242 14.8987C20.0363 15.362 20.893 15.4412 21.3907 14.8987C21.8553 14.3932 21.9371 13.5272 21.3907 13.0322C20.6818 12.3894 20.0377 11.6885 19.441 10.94C19.3354 10.808 19.6047 11.1565 19.5044 11.0206C19.4661 10.9678 19.4252 10.9163 19.3869 10.8635C19.3169 10.7684 19.2483 10.6734 19.1797 10.577C19.0437 10.3856 18.9117 10.1903 18.7837 9.99228C18.521 9.58572 18.2781 9.16728 18.0511 8.74092C17.7263 8.12976 16.8274 7.89216 16.2453 8.26704C15.6236 8.66832 15.4243 9.42072 15.7714 10.0741Z" fill="#8A8A8A"/>
<path d="M26.474 12.7696C26.7604 11.5552 26.9941 10.3289 27.1749 9.09469C27.229 8.72905 27.2356 8.40961 27.0416 8.07697C26.8819 7.80373 26.5677 7.54237 26.2522 7.46977C25.9143 7.39321 25.5355 7.40905 25.2345 7.60309C24.9665 7.77601 24.6761 8.06113 24.6273 8.39245C24.4465 9.62665 24.2115 10.8529 23.9264 12.0673C23.8459 12.4079 23.8802 12.7775 24.0597 13.085C24.2194 13.3583 24.5336 13.6196 24.8491 13.6922C25.5249 13.8454 26.3037 13.489 26.474 12.7696Z" fill="#8A8A8A"/>
</svg>
