<svg width="13" height="13" viewBox="0 0 13 13" fill="none" xmlns="http://www.w3.org/2000/svg">
<path d="M8.3883 0.192268C8.22672 0.191261 8.06756 0.239557 7.93547 0.33167L6.56609 1.28738C6.15011 1.57758 5.91663 2.0457 5.94461 2.53387L6.04791 4.32082L2.52733 7.9407C2.43291 7.92639 2.33722 7.91556 2.239 7.91323C1.05527 7.88517 0.0744044 8.7675 0.0479351 9.88417C0.0214658 11.0008 0.959426 11.9286 2.14315 11.9567C3.32688 11.9848 4.30775 11.1024 4.33422 9.98577C4.33659 9.88566 4.32869 9.78778 4.31607 9.69122L8.34539 6.06671L10.2576 5.98341C10.9052 5.95516 11.4465 5.51167 11.5674 4.91128L12.135 2.08885C12.1875 1.82779 12.0817 1.56014 11.8602 1.39531L11.2273 0.925072L9.89677 3.75444C9.89677 3.75444 9.37693 3.8421 8.6546 3.42692C7.93227 3.01175 7.90372 2.51534 7.90372 2.51534L9.4703 0.406243L8.54984 0.209707C8.49632 0.198268 8.44217 0.192606 8.3883 0.192268ZM2.21762 8.8153L2.47881 9.00586L2.80751 8.97941L2.93333 9.26686L3.2322 9.3995L3.1886 9.70752L3.37799 9.96311L3.17671 10.209L3.20566 10.5192L2.90085 10.6371L2.76108 10.9187L2.43447 10.8767L2.16453 11.0547L1.90334 10.8641L1.57464 10.8905L1.44837 10.6026L1.14996 10.4704L1.19355 10.1624L1.00416 9.90684L1.20544 9.66095L1.1765 9.35077L1.48132 9.23245L1.62061 8.95128L1.94722 8.99327L2.21762 8.8153Z" fill="black"/>
</svg>
